<?xml version="1.0" encoding="UTF-8" standalone="no"?>
<!DOCTYPE svg PUBLIC "-//W3C//DTD SVG 1.1//EN"
 "http://www.w3.org/Graphics/SVG/1.1/DTD/svg11.dtd">
<!-- Generated by graphviz version 2.43.0 (0)
 -->
<!-- Title: CareRequestHandler.cpp Pages: 1 -->
<svg width="260pt" height="140pt"
 viewBox="0.00 0.00 259.50 140.00" xmlns="http://www.w3.org/2000/svg" xmlns:xlink="http://www.w3.org/1999/xlink">
<g id="graph0" class="graph" transform="scale(1 1) rotate(0) translate(4 136)">
<title>CareRequestHandler.cpp</title>
<!-- Node1 -->
<g id="node1" class="node">
<title>Node1</title>
<g id="a_node1"><a xlink:title="Implements the CareRequestHandler behaviour defined in the corresponding header.">
<polygon fill="#bfbfbf" stroke="black" points="85,-112.5 85,-131.5 222,-131.5 222,-112.5 85,-112.5"/>
<text text-anchor="middle" x="153.5" y="-119.5" font-family="Helvetica,sans-Serif" font-size="10.00">CareRequestHandler.cpp</text>
</a>
</g>
</g>
<!-- Node2 -->
<g id="node2" class="node">
<title>Node2</title>
<g id="a_node2"><a xlink:href="CareRequestHandler_8h.html" target="_top" xlink:title="The &#39;Handler&#39; interface for the Chain of Responsibility.">
<polygon fill="none" stroke="black" points="0,-56.5 0,-75.5 173,-75.5 173,-56.5 0,-56.5"/>
<text text-anchor="middle" x="86.5" y="-63.5" font-family="Helvetica,sans-Serif" font-size="10.00">../include/CareRequestHandler.h</text>
</a>
</g>
</g>
<!-- Node1&#45;&gt;Node2 -->
<g id="edge1" class="edge">
<title>Node1&#45;&gt;Node2</title>
<path fill="none" stroke="midnightblue" d="M142.74,-112.32C132.73,-104.26 117.61,-92.08 105.57,-82.37"/>
<polygon fill="midnightblue" stroke="midnightblue" points="107.44,-79.38 97.46,-75.83 103.05,-84.83 107.44,-79.38"/>
</g>
<!-- Node4 -->
<g id="node4" class="node">
<title>Node4</title>
<g id="a_node4"><a xlink:title=" ">
<polygon fill="none" stroke="#bfbfbf" points="191.5,-56.5 191.5,-75.5 251.5,-75.5 251.5,-56.5 191.5,-56.5"/>
<text text-anchor="middle" x="221.5" y="-63.5" font-family="Helvetica,sans-Serif" font-size="10.00">iostream</text>
</a>
</g>
</g>
<!-- Node1&#45;&gt;Node4 -->
<g id="edge3" class="edge">
<title>Node1&#45;&gt;Node4</title>
<path fill="none" stroke="midnightblue" d="M164.43,-112.32C174.67,-104.18 190.22,-91.84 202.5,-82.09"/>
<polygon fill="midnightblue" stroke="midnightblue" points="204.72,-84.79 210.38,-75.83 200.37,-79.31 204.72,-84.79"/>
</g>
<!-- Node3 -->
<g id="node3" class="node">
<title>Node3</title>
<g id="a_node3"><a xlink:title=" ">
<polygon fill="none" stroke="#bfbfbf" points="64.5,-0.5 64.5,-19.5 108.5,-19.5 108.5,-0.5 64.5,-0.5"/>
<text text-anchor="middle" x="86.5" y="-7.5" font-family="Helvetica,sans-Serif" font-size="10.00">string</text>
</a>
</g>
</g>
<!-- Node2&#45;&gt;Node3 -->
<g id="edge2" class="edge">
<title>Node2&#45;&gt;Node3</title>
<path fill="none" stroke="midnightblue" d="M86.5,-56.08C86.5,-49.01 86.5,-38.86 86.5,-29.99"/>
<polygon fill="midnightblue" stroke="midnightblue" points="90,-29.75 86.5,-19.75 83,-29.75 90,-29.75"/>
</g>
</g>
</svg>
