<?xml version="1.0" encoding="UTF-8" standalone="no"?>
<!DOCTYPE svg PUBLIC "-//W3C//DTD SVG 1.1//EN"
 "http://www.w3.org/Graphics/SVG/1.1/DTD/svg11.dtd">
<!-- Generated by graphviz version 2.43.0 (0)
 -->
<!-- Title: CareRequestHandler.h Pages: 1 -->
<svg width="490pt" height="140pt"
 viewBox="0.00 0.00 489.50 140.00" xmlns="http://www.w3.org/2000/svg" xmlns:xlink="http://www.w3.org/1999/xlink">
<g id="graph0" class="graph" transform="scale(1 1) rotate(0) translate(4 136)">
<title>CareRequestHandler.h</title>
<!-- Node1 -->
<g id="node1" class="node">
<title>Node1</title>
<g id="a_node1"><a xlink:title="The &#39;Handler&#39; interface for the Chain of Responsibility.">
<polygon fill="#bfbfbf" stroke="black" points="203.5,-112.5 203.5,-131.5 328.5,-131.5 328.5,-112.5 203.5,-112.5"/>
<text text-anchor="middle" x="266" y="-119.5" font-family="Helvetica,sans-Serif" font-size="10.00">CareRequestHandler.h</text>
</a>
</g>
</g>
<!-- Node2 -->
<g id="node2" class="node">
<title>Node2</title>
<g id="a_node2"><a xlink:href="FertilizingHandler_8h.html" target="_top" xlink:title="A &#39;ConcreteHandler&#39; for fertilizing requests.">
<polygon fill="none" stroke="black" points="8.5,-56.5 8.5,-75.5 119.5,-75.5 119.5,-56.5 8.5,-56.5"/>
<text text-anchor="middle" x="64" y="-63.5" font-family="Helvetica,sans-Serif" font-size="10.00">FertilizingHandler.h</text>
</a>
</g>
</g>
<!-- Node1&#45;&gt;Node2 -->
<g id="edge1" class="edge">
<title>Node1&#45;&gt;Node2</title>
<path fill="none" stroke="midnightblue" d="M224.21,-109.83C186.07,-99.63 130.52,-84.78 95.86,-75.52"/>
<polygon fill="midnightblue" stroke="midnightblue" points="223.43,-113.24 233.99,-112.44 225.24,-106.48 223.43,-113.24"/>
</g>
<!-- Node4 -->
<g id="node4" class="node">
<title>Node4</title>
<g id="a_node4"><a xlink:href="WateringHandler_8h.html" target="_top" xlink:title="A &#39;ConcreteHandler&#39; for watering requests.">
<polygon fill="none" stroke="black" points="142.5,-56.5 142.5,-75.5 249.5,-75.5 249.5,-56.5 142.5,-56.5"/>
<text text-anchor="middle" x="196" y="-63.5" font-family="Helvetica,sans-Serif" font-size="10.00">WateringHandler.h</text>
</a>
</g>
</g>
<!-- Node1&#45;&gt;Node4 -->
<g id="edge3" class="edge">
<title>Node1&#45;&gt;Node4</title>
<path fill="none" stroke="midnightblue" d="M246.69,-106.1C234.09,-96.38 218.07,-84.03 207.45,-75.83"/>
<polygon fill="midnightblue" stroke="midnightblue" points="244.7,-108.99 254.75,-112.32 248.97,-103.44 244.7,-108.99"/>
</g>
<!-- Node6 -->
<g id="node6" class="node">
<title>Node6</title>
<g id="a_node6"><a xlink:href="CareRequestHandler_8cpp.html" target="_top" xlink:title="Implements the CareRequestHandler behaviour defined in the corresponding header.">
<polygon fill="none" stroke="black" points="267.5,-56.5 267.5,-75.5 404.5,-75.5 404.5,-56.5 267.5,-56.5"/>
<text text-anchor="middle" x="336" y="-63.5" font-family="Helvetica,sans-Serif" font-size="10.00">CareRequestHandler.cpp</text>
</a>
</g>
</g>
<!-- Node1&#45;&gt;Node6 -->
<g id="edge5" class="edge">
<title>Node1&#45;&gt;Node6</title>
<path fill="none" stroke="midnightblue" d="M285.31,-106.1C297.91,-96.38 313.93,-84.03 324.55,-75.83"/>
<polygon fill="midnightblue" stroke="midnightblue" points="283.03,-103.44 277.25,-112.32 287.3,-108.99 283.03,-103.44"/>
</g>
<!-- Node7 -->
<g id="node7" class="node">
<title>Node7</title>
<g id="a_node7"><a xlink:href="Staff_8cpp.html" target="_top" xlink:title="Implements the Staff behaviour defined in the corresponding header.">
<polygon fill="none" stroke="black" points="422.5,-56.5 422.5,-75.5 481.5,-75.5 481.5,-56.5 422.5,-56.5"/>
<text text-anchor="middle" x="452" y="-63.5" font-family="Helvetica,sans-Serif" font-size="10.00">Staff.cpp</text>
</a>
</g>
</g>
<!-- Node1&#45;&gt;Node7 -->
<g id="edge6" class="edge">
<title>Node1&#45;&gt;Node7</title>
<path fill="none" stroke="midnightblue" d="M305.38,-109.57C340.47,-99.38 391.02,-84.7 422.67,-75.52"/>
<polygon fill="midnightblue" stroke="midnightblue" points="304.1,-106.29 295.47,-112.44 306.05,-113.02 304.1,-106.29"/>
</g>
<!-- Node3 -->
<g id="node3" class="node">
<title>Node3</title>
<g id="a_node3"><a xlink:href="FertilizingHandler_8cpp.html" target="_top" xlink:title="Implements the FertilizingHandler behaviour defined in the corresponding header.">
<polygon fill="none" stroke="black" points="0,-0.5 0,-19.5 122,-19.5 122,-0.5 0,-0.5"/>
<text text-anchor="middle" x="61" y="-7.5" font-family="Helvetica,sans-Serif" font-size="10.00">FertilizingHandler.cpp</text>
</a>
</g>
</g>
<!-- Node2&#45;&gt;Node3 -->
<g id="edge2" class="edge">
<title>Node2&#45;&gt;Node3</title>
<path fill="none" stroke="midnightblue" d="M62.93,-45.8C62.44,-36.91 61.88,-26.78 61.49,-19.75"/>
<polygon fill="midnightblue" stroke="midnightblue" points="59.46,-46.29 63.5,-56.08 66.44,-45.9 59.46,-46.29"/>
</g>
<!-- Node5 -->
<g id="node5" class="node">
<title>Node5</title>
<g id="a_node5"><a xlink:href="WateringHandler_8cpp.html" target="_top" xlink:title="Implements the WateringHandler behaviour defined in the corresponding header.">
<polygon fill="none" stroke="black" points="140,-0.5 140,-19.5 258,-19.5 258,-0.5 140,-0.5"/>
<text text-anchor="middle" x="199" y="-7.5" font-family="Helvetica,sans-Serif" font-size="10.00">WateringHandler.cpp</text>
</a>
</g>
</g>
<!-- Node4&#45;&gt;Node5 -->
<g id="edge4" class="edge">
<title>Node4&#45;&gt;Node5</title>
<path fill="none" stroke="midnightblue" d="M197.07,-45.8C197.56,-36.91 198.12,-26.78 198.51,-19.75"/>
<polygon fill="midnightblue" stroke="midnightblue" points="193.56,-45.9 196.5,-56.08 200.54,-46.29 193.56,-45.9"/>
</g>
</g>
</svg>
