<?xml version="1.0" encoding="UTF-8" standalone="no"?>
<!DOCTYPE svg PUBLIC "-//W3C//DTD SVG 1.1//EN"
 "http://www.w3.org/Graphics/SVG/1.1/DTD/svg11.dtd">
<!-- Generated by graphviz version 2.43.0 (0)
 -->
<!-- Title: LiquidFertilizer Pages: 1 -->
<svg width="132pt" height="204pt"
 viewBox="0.00 0.00 132.00 204.00" xmlns="http://www.w3.org/2000/svg" xmlns:xlink="http://www.w3.org/1999/xlink">
<g id="graph0" class="graph" transform="scale(1 1) rotate(0) translate(4 200)">
<title>LiquidFertilizer</title>
<!-- Node1 -->
<g id="node1" class="node">
<title>Node1</title>
<g id="a_node1"><a xlink:title=" ">
<polygon fill="#bfbfbf" stroke="black" points="8.5,-0.5 8.5,-79.5 115.5,-79.5 115.5,-0.5 8.5,-0.5"/>
<text text-anchor="middle" x="62" y="-67.5" font-family="Helvetica,sans-Serif" font-size="10.00">LiquidFertilizer</text>
<polyline fill="none" stroke="black" points="8.5,-60.5 115.5,-60.5 "/>
<text text-anchor="middle" x="62" y="-48.5" font-family="Helvetica,sans-Serif" font-size="10.00"> </text>
<polyline fill="none" stroke="black" points="8.5,-41.5 115.5,-41.5 "/>
<text text-anchor="start" x="16.5" y="-29.5" font-family="Helvetica,sans-Serif" font-size="10.00">+ LiquidFertilizer()</text>
<text text-anchor="start" x="16.5" y="-18.5" font-family="Helvetica,sans-Serif" font-size="10.00">+ clone()</text>
<text text-anchor="start" x="16.5" y="-7.5" font-family="Helvetica,sans-Serif" font-size="10.00">+ fertilize()</text>
</a>
</g>
</g>
<!-- Node2 -->
<g id="node2" class="node">
<title>Node2</title>
<g id="a_node2"><a xlink:href="classFertilizeStrategy.html" target="_top" xlink:title=" ">
<polygon fill="none" stroke="black" points="0,-116.5 0,-195.5 124,-195.5 124,-116.5 0,-116.5"/>
<text text-anchor="middle" x="62" y="-183.5" font-family="Helvetica,sans-Serif" font-size="10.00">FertilizeStrategy</text>
<polyline fill="none" stroke="black" points="0,-176.5 124,-176.5 "/>
<text text-anchor="middle" x="62" y="-164.5" font-family="Helvetica,sans-Serif" font-size="10.00"> </text>
<polyline fill="none" stroke="black" points="0,-157.5 124,-157.5 "/>
<text text-anchor="start" x="8" y="-145.5" font-family="Helvetica,sans-Serif" font-size="10.00">+ ~FertilizeStrategy()</text>
<text text-anchor="start" x="8" y="-134.5" font-family="Helvetica,sans-Serif" font-size="10.00">+ clone()</text>
<text text-anchor="start" x="8" y="-123.5" font-family="Helvetica,sans-Serif" font-size="10.00">+ fertilize()</text>
</a>
</g>
</g>
<!-- Node2&#45;&gt;Node1 -->
<g id="edge1" class="edge">
<title>Node2&#45;&gt;Node1</title>
<path fill="none" stroke="midnightblue" d="M62,-106.15C62,-97.26 62,-88.1 62,-79.56"/>
<polygon fill="none" stroke="midnightblue" points="58.5,-106.4 62,-116.4 65.5,-106.4 58.5,-106.4"/>
</g>
</g>
</svg>
