<?xml version="1.0" encoding="UTF-8" standalone="no"?>
<!DOCTYPE svg PUBLIC "-//W3C//DTD SVG 1.1//EN"
 "http://www.w3.org/Graphics/SVG/1.1/DTD/svg11.dtd">
<!-- Generated by graphviz version 2.43.0 (0)
 -->
<!-- Title: FertilizePlant Pages: 1 -->
<!--zoomable 781 -->
<svg id="main" version="1.1" xmlns="http://www.w3.org/2000/svg" xmlns:xlink="http://www.w3.org/1999/xlink" xml:space="preserve" onload="init(evt)">
<style type="text/css"><![CDATA[
.edge:hover path { stroke: red; }
.edge:hover polygon { stroke: red; fill: red; }
]]></style>
<script type="text/javascript"><![CDATA[
var edges = document.getElementsByTagName('g');
if (edges && edges.length) {
  for (var i=0;i<edges.length;i++) {
    if (edges[i].id.substr(0,4)=='edge') {
      edges[i].setAttribute('class','edge');
    }
  }
}
]]></script>
        <defs>
                <circle id="rim" cx="0" cy="0" r="7"/>
                <circle id="rim2" cx="0" cy="0" r="3.5"/>
                <g id="zoomPlus">
                        <use xlink:href="#rim" fill="#404040">
                                <set attributeName="fill" to="#808080" begin="zoomplus.mouseover" end="zoomplus.mouseout"/>
                        </use>
                        <path d="M-4,0h8M0,-4v8" fill="none" stroke="white" stroke-width="1.5" pointer-events="none"/>
                </g>
                <g id="zoomMin">
                        <use xlink:href="#rim" fill="#404040">
                                <set attributeName="fill" to="#808080" begin="zoomminus.mouseover" end="zoomminus.mouseout"/>
                        </use>
                        <path d="M-4,0h8" fill="none" stroke="white" stroke-width="1.5" pointer-events="none"/>
                </g>
                <g id="dirArrow">
                        <path fill="none" stroke="white" stroke-width="1.5" d="M0,-3.0v7 M-2.5,-0.5L0,-3.0L2.5,-0.5"/>
                </g>
               <g id="resetDef">
                       <use xlink:href="#rim2" fill="#404040">
                               <set attributeName="fill" to="#808080" begin="reset.mouseover" end="reset.mouseout"/>
                       </use>
               </g>
        </defs>

<script type="text/javascript">
var viewWidth = 294;
var viewHeight = 781;
var sectionId = 'dynsection-1';
</script>
<script xlink:href="svgpan.js"/>
<svg id="graph" class="graph">
<g id="viewport">
<title>FertilizePlant</title>
<!-- Node1 -->
<g id="node1" class="node">
<title>Node1</title>
<g id="a_node1"><a xlink:title=" ">
<polygon fill="#bfbfbf" stroke="black" points="101,-0.5 101,-68.5 209,-68.5 209,-0.5 101,-0.5"/>
<text text-anchor="middle" x="155" y="-56.5" font-family="Helvetica,sans-Serif" font-size="10.00">FertilizePlant</text>
<polyline fill="none" stroke="black" points="101,-49.5 209,-49.5 "/>
<text text-anchor="middle" x="155" y="-37.5" font-family="Helvetica,sans-Serif" font-size="10.00"> </text>
<polyline fill="none" stroke="black" points="101,-30.5 209,-30.5 "/>
<text text-anchor="start" x="109" y="-18.5" font-family="Helvetica,sans-Serif" font-size="10.00">+ FertilizePlant()</text>
<text text-anchor="start" x="109" y="-7.5" font-family="Helvetica,sans-Serif" font-size="10.00">+ handleRequest()</text>
</a>
</g>
</g>
<!-- Node2 -->
<g id="node2" class="node">
<title>Node2</title>
<g id="a_node2"><a xlink:href="classPlantCommand.html" target="_top" xlink:title=" ">
<polygon fill="none" stroke="black" points="95.5,-106.5 95.5,-185.5 214.5,-185.5 214.5,-106.5 95.5,-106.5"/>
<text text-anchor="middle" x="155" y="-173.5" font-family="Helvetica,sans-Serif" font-size="10.00">PlantCommand</text>
<polyline fill="none" stroke="black" points="95.5,-166.5 214.5,-166.5 "/>
<text text-anchor="middle" x="155" y="-154.5" font-family="Helvetica,sans-Serif" font-size="10.00"> </text>
<polyline fill="none" stroke="black" points="95.5,-147.5 214.5,-147.5 "/>
<text text-anchor="start" x="103.5" y="-135.5" font-family="Helvetica,sans-Serif" font-size="10.00">+ PlantCommand()</text>
<text text-anchor="start" x="103.5" y="-124.5" font-family="Helvetica,sans-Serif" font-size="10.00">+ ~PlantCommand()</text>
<text text-anchor="start" x="103.5" y="-113.5" font-family="Helvetica,sans-Serif" font-size="10.00">+ handleRequest()</text>
</a>
</g>
</g>
<!-- Node2&#45;&gt;Node1 -->
<g id="edge1" class="edge">
<title>Node2&#45;&gt;Node1</title>
<path fill="none" stroke="midnightblue" d="M155,-96.38C155,-87.02 155,-77.41 155,-68.67"/>
<polygon fill="none" stroke="midnightblue" points="151.5,-96.39 155,-106.39 158.5,-96.39 151.5,-96.39"/>
</g>
<!-- Node3 -->
<g id="node3" class="node">
<title>Node3</title>
<g id="a_node3"><a xlink:href="classPlantInstance.html" target="_top" xlink:title=" ">
<polygon fill="none" stroke="black" points="83.5,-233.5 83.5,-400.5 226.5,-400.5 226.5,-233.5 83.5,-233.5"/>
<text text-anchor="middle" x="155" y="-388.5" font-family="Helvetica,sans-Serif" font-size="10.00">PlantInstance</text>
<polyline fill="none" stroke="black" points="83.5,-381.5 226.5,-381.5 "/>
<text text-anchor="middle" x="155" y="-369.5" font-family="Helvetica,sans-Serif" font-size="10.00"> </text>
<polyline fill="none" stroke="black" points="83.5,-362.5 226.5,-362.5 "/>
<text text-anchor="start" x="91.5" y="-350.5" font-family="Helvetica,sans-Serif" font-size="10.00">+ PlantInstance()</text>
<text text-anchor="start" x="91.5" y="-339.5" font-family="Helvetica,sans-Serif" font-size="10.00">+ ~PlantInstance()</text>
<text text-anchor="start" x="91.5" y="-328.5" font-family="Helvetica,sans-Serif" font-size="10.00">+ applyFertilizeStrategy()</text>
<text text-anchor="start" x="91.5" y="-317.5" font-family="Helvetica,sans-Serif" font-size="10.00">+ applyGrowthTick()</text>
<text text-anchor="start" x="91.5" y="-306.5" font-family="Helvetica,sans-Serif" font-size="10.00">+ applyWaterStrategy()</text>
<text text-anchor="start" x="91.5" y="-295.5" font-family="Helvetica,sans-Serif" font-size="10.00">+ changeHealth()</text>
<text text-anchor="start" x="91.5" y="-284.5" font-family="Helvetica,sans-Serif" font-size="10.00">+ changeNutrientLevel()</text>
<text text-anchor="start" x="91.5" y="-273.5" font-family="Helvetica,sans-Serif" font-size="10.00">+ changeWaterLevel()</text>
<text text-anchor="start" x="91.5" y="-262.5" font-family="Helvetica,sans-Serif" font-size="10.00">+ getHealth()</text>
<text text-anchor="start" x="91.5" y="-251.5" font-family="Helvetica,sans-Serif" font-size="10.00">+ getNutrientLevel()</text>
<text text-anchor="start" x="91.5" y="-240.5" font-family="Helvetica,sans-Serif" font-size="10.00">and 17 more...</text>
</a>
</g>
</g>
<!-- Node3&#45;&gt;Node2 -->
<g id="edge2" class="edge">
<title>Node3&#45;&gt;Node2</title>
<path fill="none" stroke="#404040" d="M155,-233.48C155,-221.3 155,-209.07 155,-197.8"/>
<polygon fill="none" stroke="#404040" points="155,-197.53 151,-191.53 155,-185.53 159,-191.53 155,-197.53"/>
<text text-anchor="middle" x="173.5" y="-207" font-family="Helvetica,sans-Serif" font-size="10.00"> #plant</text>
</g>
<!-- Node4 -->
<g id="node4" class="node">
<title>Node4</title>
<g id="a_node4"><a xlink:href="classGreenhouseComponent.html" target="_top" xlink:title=" ">
<polygon fill="none" stroke="black" points="0,-438.5 0,-561.5 158,-561.5 158,-438.5 0,-438.5"/>
<text text-anchor="middle" x="79" y="-549.5" font-family="Helvetica,sans-Serif" font-size="10.00">GreenhouseComponent</text>
<polyline fill="none" stroke="black" points="0,-542.5 158,-542.5 "/>
<text text-anchor="middle" x="79" y="-530.5" font-family="Helvetica,sans-Serif" font-size="10.00"> </text>
<polyline fill="none" stroke="black" points="0,-523.5 158,-523.5 "/>
<text text-anchor="start" x="8" y="-511.5" font-family="Helvetica,sans-Serif" font-size="10.00">+ GreenhouseComponent()</text>
<text text-anchor="start" x="8" y="-500.5" font-family="Helvetica,sans-Serif" font-size="10.00">+ ~GreenhouseComponent()</text>
<text text-anchor="start" x="8" y="-489.5" font-family="Helvetica,sans-Serif" font-size="10.00">+ add()</text>
<text text-anchor="start" x="8" y="-478.5" font-family="Helvetica,sans-Serif" font-size="10.00">+ createIterator()</text>
<text text-anchor="start" x="8" y="-467.5" font-family="Helvetica,sans-Serif" font-size="10.00">+ getName()</text>
<text text-anchor="start" x="8" y="-456.5" font-family="Helvetica,sans-Serif" font-size="10.00">+ performCare()</text>
<text text-anchor="start" x="8" y="-445.5" font-family="Helvetica,sans-Serif" font-size="10.00">+ remove()</text>
</a>
</g>
</g>
<!-- Node4&#45;&gt;Node3 -->
<g id="edge3" class="edge">
<title>Node4&#45;&gt;Node3</title>
<path fill="none" stroke="midnightblue" d="M108.29,-429.25C112.21,-419.9 116.27,-410.23 120.28,-400.69"/>
<polygon fill="none" stroke="midnightblue" points="105.06,-427.9 104.41,-438.48 111.51,-430.61 105.06,-427.9"/>
</g>
<!-- Node5 -->
<g id="node5" class="node">
<title>Node5</title>
<g id="a_node5"><a xlink:title=" ">
<polygon fill="none" stroke="#bfbfbf" points="46.5,-609.5 46.5,-666.5 111.5,-666.5 111.5,-609.5 46.5,-609.5"/>
<text text-anchor="middle" x="79" y="-654.5" font-family="Helvetica,sans-Serif" font-size="10.00">std::string</text>
<polyline fill="none" stroke="#bfbfbf" points="46.5,-647.5 111.5,-647.5 "/>
<text text-anchor="middle" x="79" y="-635.5" font-family="Helvetica,sans-Serif" font-size="10.00"> </text>
<polyline fill="none" stroke="#bfbfbf" points="46.5,-628.5 111.5,-628.5 "/>
<text text-anchor="middle" x="79" y="-616.5" font-family="Helvetica,sans-Serif" font-size="10.00"> </text>
</a>
</g>
</g>
<!-- Node5&#45;&gt;Node4 -->
<g id="edge4" class="edge">
<title>Node5&#45;&gt;Node4</title>
<path fill="none" stroke="#404040" d="M79,-609.48C79,-599.01 79,-586.53 79,-573.82"/>
<polygon fill="none" stroke="#404040" points="79,-573.62 75,-567.62 79,-561.62 83,-567.62 79,-573.62"/>
<text text-anchor="middle" x="99" y="-583" font-family="Helvetica,sans-Serif" font-size="10.00"> #name</text>
</g>
<!-- Node6 -->
<g id="node6" class="node">
<title>Node6</title>
<g id="a_node6"><a xlink:title=" ">
<polygon fill="none" stroke="#bfbfbf" points="27,-704.5 27,-772.5 131,-772.5 131,-704.5 27,-704.5"/>
<text text-anchor="start" x="35" y="-760.5" font-family="Helvetica,sans-Serif" font-size="10.00">std::basic_string&lt;</text>
<text text-anchor="middle" x="79" y="-749.5" font-family="Helvetica,sans-Serif" font-size="10.00"> Char &gt;</text>
<polyline fill="none" stroke="#bfbfbf" points="27,-742.5 131,-742.5 "/>
<text text-anchor="middle" x="79" y="-730.5" font-family="Helvetica,sans-Serif" font-size="10.00"> </text>
<polyline fill="none" stroke="#bfbfbf" points="27,-723.5 131,-723.5 "/>
<text text-anchor="middle" x="79" y="-711.5" font-family="Helvetica,sans-Serif" font-size="10.00"> </text>
</a>
</g>
</g>
<!-- Node6&#45;&gt;Node5 -->
<g id="edge5" class="edge">
<title>Node6&#45;&gt;Node5</title>
<path fill="none" stroke="midnightblue" d="M79,-694.38C79,-684.94 79,-675.2 79,-666.57"/>
<polygon fill="none" stroke="midnightblue" points="75.5,-694.43 79,-704.43 82.5,-694.43 75.5,-694.43"/>
</g>
<!-- Node7 -->
<g id="node7" class="node">
<title>Node7</title>
<g id="a_node7"><a xlink:href="classSubject.html" target="_top" xlink:title=" ">
<polygon fill="none" stroke="black" points="176.5,-449.5 176.5,-550.5 285.5,-550.5 285.5,-449.5 176.5,-449.5"/>
<text text-anchor="middle" x="231" y="-538.5" font-family="Helvetica,sans-Serif" font-size="10.00">Subject</text>
<polyline fill="none" stroke="black" points="176.5,-531.5 285.5,-531.5 "/>
<text text-anchor="middle" x="231" y="-519.5" font-family="Helvetica,sans-Serif" font-size="10.00"> </text>
<polyline fill="none" stroke="black" points="176.5,-512.5 285.5,-512.5 "/>
<text text-anchor="start" x="184.5" y="-500.5" font-family="Helvetica,sans-Serif" font-size="10.00">+ ~Subject()</text>
<text text-anchor="start" x="184.5" y="-489.5" font-family="Helvetica,sans-Serif" font-size="10.00">+ attach()</text>
<text text-anchor="start" x="184.5" y="-478.5" font-family="Helvetica,sans-Serif" font-size="10.00">+ detach()</text>
<text text-anchor="start" x="184.5" y="-467.5" font-family="Helvetica,sans-Serif" font-size="10.00"># clearObservers()</text>
<text text-anchor="start" x="184.5" y="-456.5" font-family="Helvetica,sans-Serif" font-size="10.00"># notify()</text>
</a>
</g>
</g>
<!-- Node7&#45;&gt;Node3 -->
<g id="edge6" class="edge">
<title>Node7&#45;&gt;Node3</title>
<path fill="none" stroke="midnightblue" d="M206.11,-439.73C200.88,-427.28 195.28,-413.92 189.76,-400.79"/>
<polygon fill="none" stroke="midnightblue" points="202.93,-441.2 210.03,-449.06 209.39,-438.49 202.93,-441.2"/>
</g>
</g>
</svg>
        <g id="navigator" transform="translate(0 0)" fill="#404254">
                <rect fill="#f2f5e9" fill-opacity="0.5" stroke="#606060" stroke-width=".5" x="0" y="0" width="60" height="60"/>
                <use id="zoomplus" xlink:href="#zoomPlus" x="17" y="9" onmousedown="handleZoom(evt,'in')"/>
                <use id="zoomminus" xlink:href="#zoomMin" x="42" y="9" onmousedown="handleZoom(evt,'out')"/>
                <use id="reset" xlink:href="#resetDef" x="30" y="36" onmousedown="handleReset()"/>
                <g id="arrowUp" xlink:href="#dirArrow" transform="translate(30 24)" onmousedown="handlePan(0,-1)">
                  <use xlink:href="#rim" fill="#404040">
                        <set attributeName="fill" to="#808080" begin="arrowUp.mouseover" end="arrowUp.mouseout"/>
                  </use>
                  <path fill="none" stroke="white" stroke-width="1.5" d="M0,-3.0v7 M-2.5,-0.5L0,-3.0L2.5,-0.5"/>
                </g>
                <g id="arrowRight" xlink:href="#dirArrow" transform="rotate(90) translate(36 -43)" onmousedown="handlePan(1,0)">
                  <use xlink:href="#rim" fill="#404040">
                        <set attributeName="fill" to="#808080" begin="arrowRight.mouseover" end="arrowRight.mouseout"/>
                  </use>
                  <path fill="none" stroke="white" stroke-width="1.5" d="M0,-3.0v7 M-2.5,-0.5L0,-3.0L2.5,-0.5"/>
                </g>
                <g id="arrowDown" xlink:href="#dirArrow" transform="rotate(180) translate(-30 -48)" onmousedown="handlePan(0,1)">
                  <use xlink:href="#rim" fill="#404040">
                        <set attributeName="fill" to="#808080" begin="arrowDown.mouseover" end="arrowDown.mouseout"/>
                  </use>
                  <path fill="none" stroke="white" stroke-width="1.5" d="M0,-3.0v7 M-2.5,-0.5L0,-3.0L2.5,-0.5"/>
                </g>
                <g id="arrowLeft" xlink:href="#dirArrow" transform="rotate(270) translate(-36 17)" onmousedown="handlePan(-1,0)">
                  <use xlink:href="#rim" fill="#404040">
                        <set attributeName="fill" to="#808080" begin="arrowLeft.mouseover" end="arrowLeft.mouseout"/>
                  </use>
                  <path fill="none" stroke="white" stroke-width="1.5" d="M0,-3.0v7 M-2.5,-0.5L0,-3.0L2.5,-0.5"/>
                </g>
        </g>
        <svg viewBox="0 0 15 15" width="100%" height="30px" preserveAspectRatio="xMaxYMin meet">
         <g id="arrow_out" transform="scale(0.3 0.3)">
          <a xlink:href="classFertilizePlant__coll__graph_org.svg" target="_base">
           <rect id="button" ry="5" rx="5" y="6" x="6" height="38" width="38"
                fill="#f2f5e9" fill-opacity="0.5" stroke="#606060" stroke-width="1.0"/>
           <path id="arrow"
             d="M 11.500037,31.436501 C 11.940474,20.09759 22.043105,11.32322 32.158766,21.979434 L 37.068811,17.246167 C 37.068811,17.246167 37.088388,32 37.088388,32 L 22.160133,31.978069 C 22.160133,31.978069 26.997745,27.140456 26.997745,27.140456 C 18.528582,18.264221 13.291696,25.230495 11.500037,31.436501 z"
             style="fill:#404040;"/>
          </a>
         </g>
        </svg>
</svg>
