<?xml version="1.0" encoding="UTF-8" standalone="no"?>
<!DOCTYPE svg PUBLIC "-//W3C//DTD SVG 1.1//EN"
 "http://www.w3.org/Graphics/SVG/1.1/DTD/svg11.dtd">
<!-- Generated by graphviz version 2.43.0 (0)
 -->
<!-- Title: CareRequestHandler Pages: 1 -->
<svg width="266pt" height="226pt"
 viewBox="0.00 0.00 265.50 226.00" xmlns="http://www.w3.org/2000/svg" xmlns:xlink="http://www.w3.org/1999/xlink">
<g id="graph0" class="graph" transform="scale(1 1) rotate(0) translate(4 222)">
<title>CareRequestHandler</title>
<!-- Node1 -->
<g id="node1" class="node">
<title>Node1</title>
<g id="a_node1"><a xlink:title=" ">
<polygon fill="#bfbfbf" stroke="black" points="58,-116.5 58,-217.5 202,-217.5 202,-116.5 58,-116.5"/>
<text text-anchor="middle" x="130" y="-205.5" font-family="Helvetica,sans-Serif" font-size="10.00">CareRequestHandler</text>
<polyline fill="none" stroke="black" points="58,-198.5 202,-198.5 "/>
<text text-anchor="start" x="66" y="-186.5" font-family="Helvetica,sans-Serif" font-size="10.00"># nextHandler</text>
<polyline fill="none" stroke="black" points="58,-179.5 202,-179.5 "/>
<text text-anchor="start" x="66" y="-167.5" font-family="Helvetica,sans-Serif" font-size="10.00">+ CareRequestHandler()</text>
<text text-anchor="start" x="66" y="-156.5" font-family="Helvetica,sans-Serif" font-size="10.00">+ ~CareRequestHandler()</text>
<text text-anchor="start" x="66" y="-145.5" font-family="Helvetica,sans-Serif" font-size="10.00">+ canHandle()</text>
<text text-anchor="start" x="66" y="-134.5" font-family="Helvetica,sans-Serif" font-size="10.00">+ handleRequest()</text>
<text text-anchor="start" x="66" y="-123.5" font-family="Helvetica,sans-Serif" font-size="10.00">+ setNext()</text>
</a>
</g>
</g>
<!-- Node2 -->
<g id="node2" class="node">
<title>Node2</title>
<g id="a_node2"><a xlink:href="classFertilizingHandler.html" target="_top" xlink:title=" ">
<polygon fill="none" stroke="black" points="0,-0.5 0,-79.5 122,-79.5 122,-0.5 0,-0.5"/>
<text text-anchor="middle" x="61" y="-67.5" font-family="Helvetica,sans-Serif" font-size="10.00">FertilizingHandler</text>
<polyline fill="none" stroke="black" points="0,-60.5 122,-60.5 "/>
<text text-anchor="middle" x="61" y="-48.5" font-family="Helvetica,sans-Serif" font-size="10.00"> </text>
<polyline fill="none" stroke="black" points="0,-41.5 122,-41.5 "/>
<text text-anchor="start" x="8" y="-29.5" font-family="Helvetica,sans-Serif" font-size="10.00">+ FertilizingHandler()</text>
<text text-anchor="start" x="8" y="-18.5" font-family="Helvetica,sans-Serif" font-size="10.00">+ canHandle()</text>
<text text-anchor="start" x="8" y="-7.5" font-family="Helvetica,sans-Serif" font-size="10.00">+ handleRequest()</text>
</a>
</g>
</g>
<!-- Node1&#45;&gt;Node2 -->
<g id="edge1" class="edge">
<title>Node1&#45;&gt;Node2</title>
<path fill="none" stroke="midnightblue" d="M97.62,-107.34C92.46,-98 87.24,-88.54 82.42,-79.81"/>
<polygon fill="none" stroke="midnightblue" points="94.63,-109.17 102.53,-116.24 100.76,-105.79 94.63,-109.17"/>
</g>
<!-- Node3 -->
<g id="node3" class="node">
<title>Node3</title>
<g id="a_node3"><a xlink:href="classWateringHandler.html" target="_top" xlink:title=" ">
<polygon fill="none" stroke="black" points="140.5,-0.5 140.5,-79.5 257.5,-79.5 257.5,-0.5 140.5,-0.5"/>
<text text-anchor="middle" x="199" y="-67.5" font-family="Helvetica,sans-Serif" font-size="10.00">WateringHandler</text>
<polyline fill="none" stroke="black" points="140.5,-60.5 257.5,-60.5 "/>
<text text-anchor="middle" x="199" y="-48.5" font-family="Helvetica,sans-Serif" font-size="10.00"> </text>
<polyline fill="none" stroke="black" points="140.5,-41.5 257.5,-41.5 "/>
<text text-anchor="start" x="148.5" y="-29.5" font-family="Helvetica,sans-Serif" font-size="10.00">+ WateringHandler()</text>
<text text-anchor="start" x="148.5" y="-18.5" font-family="Helvetica,sans-Serif" font-size="10.00">+ canHandle()</text>
<text text-anchor="start" x="148.5" y="-7.5" font-family="Helvetica,sans-Serif" font-size="10.00">+ handleRequest()</text>
</a>
</g>
</g>
<!-- Node1&#45;&gt;Node3 -->
<g id="edge2" class="edge">
<title>Node1&#45;&gt;Node3</title>
<path fill="none" stroke="midnightblue" d="M162.38,-107.34C167.54,-98 172.76,-88.54 177.58,-79.81"/>
<polygon fill="none" stroke="midnightblue" points="159.24,-105.79 157.47,-116.24 165.37,-109.17 159.24,-105.79"/>
</g>
</g>
</svg>
