<?xml version="1.0" encoding="UTF-8" standalone="no"?>
<!DOCTYPE svg PUBLIC "-//W3C//DTD SVG 1.1//EN"
 "http://www.w3.org/Graphics/SVG/1.1/DTD/svg11.dtd">
<!-- Generated by graphviz version 2.43.0 (0)
 -->
<!-- Title: Plant Pages: 1 -->
<svg width="147pt" height="398pt"
 viewBox="0.00 0.00 147.00 398.00" xmlns="http://www.w3.org/2000/svg" xmlns:xlink="http://www.w3.org/1999/xlink">
<g id="graph0" class="graph" transform="scale(1 1) rotate(0) translate(4 394)">
<title>Plant</title>
<!-- Node1 -->
<g id="node1" class="node">
<title>Node1</title>
<g id="a_node1"><a xlink:title=" ">
<polygon fill="#bfbfbf" stroke="black" points="0,-0.5 0,-167.5 139,-167.5 139,-0.5 0,-0.5"/>
<text text-anchor="middle" x="69.5" y="-155.5" font-family="Helvetica,sans-Serif" font-size="10.00">Plant</text>
<polyline fill="none" stroke="black" points="0,-148.5 139,-148.5 "/>
<text text-anchor="middle" x="69.5" y="-136.5" font-family="Helvetica,sans-Serif" font-size="10.00"> </text>
<polyline fill="none" stroke="black" points="0,-129.5 139,-129.5 "/>
<text text-anchor="start" x="8" y="-117.5" font-family="Helvetica,sans-Serif" font-size="10.00">+ Plant()</text>
<text text-anchor="start" x="8" y="-106.5" font-family="Helvetica,sans-Serif" font-size="10.00">+ ~Plant()</text>
<text text-anchor="start" x="8" y="-95.5" font-family="Helvetica,sans-Serif" font-size="10.00">+ clone()</text>
<text text-anchor="start" x="8" y="-84.5" font-family="Helvetica,sans-Serif" font-size="10.00">+ getDefaultFertStrat()</text>
<text text-anchor="start" x="8" y="-73.5" font-family="Helvetica,sans-Serif" font-size="10.00">+ getDefaultWaterStrat()</text>
<text text-anchor="start" x="8" y="-62.5" font-family="Helvetica,sans-Serif" font-size="10.00">+ getName()</text>
<text text-anchor="start" x="8" y="-51.5" font-family="Helvetica,sans-Serif" font-size="10.00">+ getType()</text>
<text text-anchor="start" x="8" y="-40.5" font-family="Helvetica,sans-Serif" font-size="10.00">+ setDefaultFertStrat()</text>
<text text-anchor="start" x="8" y="-29.5" font-family="Helvetica,sans-Serif" font-size="10.00">+ setDefaultWaterStrat()</text>
<text text-anchor="start" x="8" y="-18.5" font-family="Helvetica,sans-Serif" font-size="10.00">+ setName()</text>
<text text-anchor="start" x="8" y="-7.5" font-family="Helvetica,sans-Serif" font-size="10.00">+ setType()</text>
</a>
</g>
</g>
<!-- Node2 -->
<g id="node2" class="node">
<title>Node2</title>
<g id="a_node2"><a xlink:title=" ">
<polygon fill="none" stroke="#bfbfbf" points="37,-226.5 37,-283.5 102,-283.5 102,-226.5 37,-226.5"/>
<text text-anchor="middle" x="69.5" y="-271.5" font-family="Helvetica,sans-Serif" font-size="10.00">std::string</text>
<polyline fill="none" stroke="#bfbfbf" points="37,-264.5 102,-264.5 "/>
<text text-anchor="middle" x="69.5" y="-252.5" font-family="Helvetica,sans-Serif" font-size="10.00"> </text>
<polyline fill="none" stroke="#bfbfbf" points="37,-245.5 102,-245.5 "/>
<text text-anchor="middle" x="69.5" y="-233.5" font-family="Helvetica,sans-Serif" font-size="10.00"> </text>
</a>
</g>
</g>
<!-- Node2&#45;&gt;Node1 -->
<g id="edge1" class="edge">
<title>Node2&#45;&gt;Node1</title>
<path fill="none" stroke="#404040" d="M69.5,-226.47C69.5,-213.45 69.5,-197.05 69.5,-180.07"/>
<polygon fill="none" stroke="#404040" points="69.5,-179.65 65.5,-173.65 69.5,-167.65 73.5,-173.65 69.5,-179.65"/>
<text text-anchor="middle" x="89.5" y="-200" font-family="Helvetica,sans-Serif" font-size="10.00"> #name</text>
<text text-anchor="middle" x="89.5" y="-189" font-family="Helvetica,sans-Serif" font-size="10.00">#type</text>
</g>
<!-- Node3 -->
<g id="node3" class="node">
<title>Node3</title>
<g id="a_node3"><a xlink:title=" ">
<polygon fill="none" stroke="#bfbfbf" points="17.5,-321.5 17.5,-389.5 121.5,-389.5 121.5,-321.5 17.5,-321.5"/>
<text text-anchor="start" x="25.5" y="-377.5" font-family="Helvetica,sans-Serif" font-size="10.00">std::basic_string&lt;</text>
<text text-anchor="middle" x="69.5" y="-366.5" font-family="Helvetica,sans-Serif" font-size="10.00"> Char &gt;</text>
<polyline fill="none" stroke="#bfbfbf" points="17.5,-359.5 121.5,-359.5 "/>
<text text-anchor="middle" x="69.5" y="-347.5" font-family="Helvetica,sans-Serif" font-size="10.00"> </text>
<polyline fill="none" stroke="#bfbfbf" points="17.5,-340.5 121.5,-340.5 "/>
<text text-anchor="middle" x="69.5" y="-328.5" font-family="Helvetica,sans-Serif" font-size="10.00"> </text>
</a>
</g>
</g>
<!-- Node3&#45;&gt;Node2 -->
<g id="edge2" class="edge">
<title>Node3&#45;&gt;Node2</title>
<path fill="none" stroke="midnightblue" d="M69.5,-311.38C69.5,-301.94 69.5,-292.2 69.5,-283.57"/>
<polygon fill="none" stroke="midnightblue" points="66,-311.43 69.5,-321.43 73,-311.43 66,-311.43"/>
</g>
</g>
</svg>
