<?xml version="1.0" encoding="UTF-8" standalone="no"?>
<!DOCTYPE svg PUBLIC "-//W3C//DTD SVG 1.1//EN"
 "http://www.w3.org/Graphics/SVG/1.1/DTD/svg11.dtd">
<!-- Generated by graphviz version 2.43.0 (0)
 -->
<!-- Title: FertilizeStrategy Pages: 1 -->
<svg width="408pt" height="204pt"
 viewBox="0.00 0.00 407.50 204.00" xmlns="http://www.w3.org/2000/svg" xmlns:xlink="http://www.w3.org/1999/xlink">
<g id="graph0" class="graph" transform="scale(1 1) rotate(0) translate(4 200)">
<title>FertilizeStrategy</title>
<!-- Node1 -->
<g id="node1" class="node">
<title>Node1</title>
<g id="a_node1"><a xlink:title=" ">
<polygon fill="#bfbfbf" stroke="black" points="121.5,-116.5 121.5,-195.5 245.5,-195.5 245.5,-116.5 121.5,-116.5"/>
<text text-anchor="middle" x="183.5" y="-183.5" font-family="Helvetica,sans-Serif" font-size="10.00">FertilizeStrategy</text>
<polyline fill="none" stroke="black" points="121.5,-176.5 245.5,-176.5 "/>
<text text-anchor="middle" x="183.5" y="-164.5" font-family="Helvetica,sans-Serif" font-size="10.00"> </text>
<polyline fill="none" stroke="black" points="121.5,-157.5 245.5,-157.5 "/>
<text text-anchor="start" x="129.5" y="-145.5" font-family="Helvetica,sans-Serif" font-size="10.00">+ ~FertilizeStrategy()</text>
<text text-anchor="start" x="129.5" y="-134.5" font-family="Helvetica,sans-Serif" font-size="10.00">+ clone()</text>
<text text-anchor="start" x="129.5" y="-123.5" font-family="Helvetica,sans-Serif" font-size="10.00">+ fertilize()</text>
</a>
</g>
</g>
<!-- Node2 -->
<g id="node2" class="node">
<title>Node2</title>
<g id="a_node2"><a xlink:href="classLiquidFertilizer.html" target="_top" xlink:title=" ">
<polygon fill="none" stroke="black" points="0,-0.5 0,-79.5 107,-79.5 107,-0.5 0,-0.5"/>
<text text-anchor="middle" x="53.5" y="-67.5" font-family="Helvetica,sans-Serif" font-size="10.00">LiquidFertilizer</text>
<polyline fill="none" stroke="black" points="0,-60.5 107,-60.5 "/>
<text text-anchor="middle" x="53.5" y="-48.5" font-family="Helvetica,sans-Serif" font-size="10.00"> </text>
<polyline fill="none" stroke="black" points="0,-41.5 107,-41.5 "/>
<text text-anchor="start" x="8" y="-29.5" font-family="Helvetica,sans-Serif" font-size="10.00">+ LiquidFertilizer()</text>
<text text-anchor="start" x="8" y="-18.5" font-family="Helvetica,sans-Serif" font-size="10.00">+ clone()</text>
<text text-anchor="start" x="8" y="-7.5" font-family="Helvetica,sans-Serif" font-size="10.00">+ fertilize()</text>
</a>
</g>
</g>
<!-- Node1&#45;&gt;Node2 -->
<g id="edge1" class="edge">
<title>Node1&#45;&gt;Node2</title>
<path fill="none" stroke="midnightblue" d="M131.74,-109.61C120.39,-99.66 108.48,-89.21 97.47,-79.56"/>
<polygon fill="none" stroke="midnightblue" points="129.66,-112.44 139.49,-116.4 134.28,-107.18 129.66,-112.44"/>
</g>
<!-- Node3 -->
<g id="node3" class="node">
<title>Node3</title>
<g id="a_node3"><a xlink:href="classOrganicFertilizer.html" target="_top" xlink:title=" ">
<polygon fill="none" stroke="black" points="125.5,-0.5 125.5,-79.5 241.5,-79.5 241.5,-0.5 125.5,-0.5"/>
<text text-anchor="middle" x="183.5" y="-67.5" font-family="Helvetica,sans-Serif" font-size="10.00">OrganicFertilizer</text>
<polyline fill="none" stroke="black" points="125.5,-60.5 241.5,-60.5 "/>
<text text-anchor="middle" x="183.5" y="-48.5" font-family="Helvetica,sans-Serif" font-size="10.00"> </text>
<polyline fill="none" stroke="black" points="125.5,-41.5 241.5,-41.5 "/>
<text text-anchor="start" x="133.5" y="-29.5" font-family="Helvetica,sans-Serif" font-size="10.00">+ OrganicFertilizer()</text>
<text text-anchor="start" x="133.5" y="-18.5" font-family="Helvetica,sans-Serif" font-size="10.00">+ clone()</text>
<text text-anchor="start" x="133.5" y="-7.5" font-family="Helvetica,sans-Serif" font-size="10.00">+ fertilize()</text>
</a>
</g>
</g>
<!-- Node1&#45;&gt;Node3 -->
<g id="edge2" class="edge">
<title>Node1&#45;&gt;Node3</title>
<path fill="none" stroke="midnightblue" d="M183.5,-106.15C183.5,-97.26 183.5,-88.1 183.5,-79.56"/>
<polygon fill="none" stroke="midnightblue" points="180,-106.4 183.5,-116.4 187,-106.4 180,-106.4"/>
</g>
<!-- Node4 -->
<g id="node4" class="node">
<title>Node4</title>
<g id="a_node4"><a xlink:href="classSlowReleaseFertilizer.html" target="_top" xlink:title=" ">
<polygon fill="none" stroke="black" points="259.5,-0.5 259.5,-79.5 399.5,-79.5 399.5,-0.5 259.5,-0.5"/>
<text text-anchor="middle" x="329.5" y="-67.5" font-family="Helvetica,sans-Serif" font-size="10.00">SlowReleaseFertilizer</text>
<polyline fill="none" stroke="black" points="259.5,-60.5 399.5,-60.5 "/>
<text text-anchor="middle" x="329.5" y="-48.5" font-family="Helvetica,sans-Serif" font-size="10.00"> </text>
<polyline fill="none" stroke="black" points="259.5,-41.5 399.5,-41.5 "/>
<text text-anchor="start" x="267.5" y="-29.5" font-family="Helvetica,sans-Serif" font-size="10.00">+ SlowReleaseFertilizer()</text>
<text text-anchor="start" x="267.5" y="-18.5" font-family="Helvetica,sans-Serif" font-size="10.00">+ clone()</text>
<text text-anchor="start" x="267.5" y="-7.5" font-family="Helvetica,sans-Serif" font-size="10.00">+ fertilize()</text>
</a>
</g>
</g>
<!-- Node1&#45;&gt;Node4 -->
<g id="edge3" class="edge">
<title>Node1&#45;&gt;Node4</title>
<path fill="none" stroke="midnightblue" d="M240.9,-110.18C253.86,-100.06 267.52,-89.4 280.12,-79.56"/>
<polygon fill="none" stroke="midnightblue" points="238.66,-107.49 232.93,-116.4 242.96,-113.01 238.66,-107.49"/>
</g>
</g>
</svg>
