<?xml version="1.0" encoding="UTF-8" standalone="no"?>
<!DOCTYPE svg PUBLIC "-//W3C//DTD SVG 1.1//EN"
 "http://www.w3.org/Graphics/SVG/1.1/DTD/svg11.dtd">
<!-- Generated by graphviz version 2.43.0 (0)
 -->
<!-- Title: PlantCommand Pages: 1 -->
<!--zoomable 675 -->
<svg id="main" version="1.1" xmlns="http://www.w3.org/2000/svg" xmlns:xlink="http://www.w3.org/1999/xlink" xml:space="preserve" onload="init(evt)">
<style type="text/css"><![CDATA[
.edge:hover path { stroke: red; }
.edge:hover polygon { stroke: red; fill: red; }
]]></style>
<script type="text/javascript"><![CDATA[
var edges = document.getElementsByTagName('g');
if (edges && edges.length) {
  for (var i=0;i<edges.length;i++) {
    if (edges[i].id.substr(0,4)=='edge') {
      edges[i].setAttribute('class','edge');
    }
  }
}
]]></script>
        <defs>
                <circle id="rim" cx="0" cy="0" r="7"/>
                <circle id="rim2" cx="0" cy="0" r="3.5"/>
                <g id="zoomPlus">
                        <use xlink:href="#rim" fill="#404040">
                                <set attributeName="fill" to="#808080" begin="zoomplus.mouseover" end="zoomplus.mouseout"/>
                        </use>
                        <path d="M-4,0h8M0,-4v8" fill="none" stroke="white" stroke-width="1.5" pointer-events="none"/>
                </g>
                <g id="zoomMin">
                        <use xlink:href="#rim" fill="#404040">
                                <set attributeName="fill" to="#808080" begin="zoomminus.mouseover" end="zoomminus.mouseout"/>
                        </use>
                        <path d="M-4,0h8" fill="none" stroke="white" stroke-width="1.5" pointer-events="none"/>
                </g>
                <g id="dirArrow">
                        <path fill="none" stroke="white" stroke-width="1.5" d="M0,-3.0v7 M-2.5,-0.5L0,-3.0L2.5,-0.5"/>
                </g>
               <g id="resetDef">
                       <use xlink:href="#rim2" fill="#404040">
                               <set attributeName="fill" to="#808080" begin="reset.mouseover" end="reset.mouseout"/>
                       </use>
               </g>
        </defs>

<script type="text/javascript">
var viewWidth = 294;
var viewHeight = 675;
var sectionId = 'dynsection-1';
</script>
<script xlink:href="svgpan.js"/>
<svg id="graph" class="graph">
<g id="viewport">
<title>PlantCommand</title>
<!-- Node1 -->
<g id="node1" class="node">
<title>Node1</title>
<g id="a_node1"><a xlink:title=" ">
<polygon fill="#bfbfbf" stroke="black" points="95.5,-0.5 95.5,-79.5 214.5,-79.5 214.5,-0.5 95.5,-0.5"/>
<text text-anchor="middle" x="155" y="-67.5" font-family="Helvetica,sans-Serif" font-size="10.00">PlantCommand</text>
<polyline fill="none" stroke="black" points="95.5,-60.5 214.5,-60.5 "/>
<text text-anchor="middle" x="155" y="-48.5" font-family="Helvetica,sans-Serif" font-size="10.00"> </text>
<polyline fill="none" stroke="black" points="95.5,-41.5 214.5,-41.5 "/>
<text text-anchor="start" x="103.5" y="-29.5" font-family="Helvetica,sans-Serif" font-size="10.00">+ PlantCommand()</text>
<text text-anchor="start" x="103.5" y="-18.5" font-family="Helvetica,sans-Serif" font-size="10.00">+ ~PlantCommand()</text>
<text text-anchor="start" x="103.5" y="-7.5" font-family="Helvetica,sans-Serif" font-size="10.00">+ handleRequest()</text>
</a>
</g>
</g>
<!-- Node2 -->
<g id="node2" class="node">
<title>Node2</title>
<g id="a_node2"><a xlink:href="classPlantInstance.html" target="_top" xlink:title=" ">
<polygon fill="none" stroke="black" points="83.5,-127.5 83.5,-294.5 226.5,-294.5 226.5,-127.5 83.5,-127.5"/>
<text text-anchor="middle" x="155" y="-282.5" font-family="Helvetica,sans-Serif" font-size="10.00">PlantInstance</text>
<polyline fill="none" stroke="black" points="83.5,-275.5 226.5,-275.5 "/>
<text text-anchor="middle" x="155" y="-263.5" font-family="Helvetica,sans-Serif" font-size="10.00"> </text>
<polyline fill="none" stroke="black" points="83.5,-256.5 226.5,-256.5 "/>
<text text-anchor="start" x="91.5" y="-244.5" font-family="Helvetica,sans-Serif" font-size="10.00">+ PlantInstance()</text>
<text text-anchor="start" x="91.5" y="-233.5" font-family="Helvetica,sans-Serif" font-size="10.00">+ ~PlantInstance()</text>
<text text-anchor="start" x="91.5" y="-222.5" font-family="Helvetica,sans-Serif" font-size="10.00">+ applyFertilizeStrategy()</text>
<text text-anchor="start" x="91.5" y="-211.5" font-family="Helvetica,sans-Serif" font-size="10.00">+ applyGrowthTick()</text>
<text text-anchor="start" x="91.5" y="-200.5" font-family="Helvetica,sans-Serif" font-size="10.00">+ applyWaterStrategy()</text>
<text text-anchor="start" x="91.5" y="-189.5" font-family="Helvetica,sans-Serif" font-size="10.00">+ changeHealth()</text>
<text text-anchor="start" x="91.5" y="-178.5" font-family="Helvetica,sans-Serif" font-size="10.00">+ changeNutrientLevel()</text>
<text text-anchor="start" x="91.5" y="-167.5" font-family="Helvetica,sans-Serif" font-size="10.00">+ changeWaterLevel()</text>
<text text-anchor="start" x="91.5" y="-156.5" font-family="Helvetica,sans-Serif" font-size="10.00">+ getHealth()</text>
<text text-anchor="start" x="91.5" y="-145.5" font-family="Helvetica,sans-Serif" font-size="10.00">+ getNutrientLevel()</text>
<text text-anchor="start" x="91.5" y="-134.5" font-family="Helvetica,sans-Serif" font-size="10.00">and 17 more...</text>
</a>
</g>
</g>
<!-- Node2&#45;&gt;Node1 -->
<g id="edge1" class="edge">
<title>Node2&#45;&gt;Node1</title>
<path fill="none" stroke="#404040" d="M155,-127.48C155,-115.3 155,-103.07 155,-91.8"/>
<polygon fill="none" stroke="#404040" points="155,-91.53 151,-85.53 155,-79.53 159,-85.53 155,-91.53"/>
<text text-anchor="middle" x="173.5" y="-101" font-family="Helvetica,sans-Serif" font-size="10.00"> #plant</text>
</g>
<!-- Node3 -->
<g id="node3" class="node">
<title>Node3</title>
<g id="a_node3"><a xlink:href="classGreenhouseComponent.html" target="_top" xlink:title=" ">
<polygon fill="none" stroke="black" points="0,-332.5 0,-455.5 158,-455.5 158,-332.5 0,-332.5"/>
<text text-anchor="middle" x="79" y="-443.5" font-family="Helvetica,sans-Serif" font-size="10.00">GreenhouseComponent</text>
<polyline fill="none" stroke="black" points="0,-436.5 158,-436.5 "/>
<text text-anchor="middle" x="79" y="-424.5" font-family="Helvetica,sans-Serif" font-size="10.00"> </text>
<polyline fill="none" stroke="black" points="0,-417.5 158,-417.5 "/>
<text text-anchor="start" x="8" y="-405.5" font-family="Helvetica,sans-Serif" font-size="10.00">+ GreenhouseComponent()</text>
<text text-anchor="start" x="8" y="-394.5" font-family="Helvetica,sans-Serif" font-size="10.00">+ ~GreenhouseComponent()</text>
<text text-anchor="start" x="8" y="-383.5" font-family="Helvetica,sans-Serif" font-size="10.00">+ add()</text>
<text text-anchor="start" x="8" y="-372.5" font-family="Helvetica,sans-Serif" font-size="10.00">+ createIterator()</text>
<text text-anchor="start" x="8" y="-361.5" font-family="Helvetica,sans-Serif" font-size="10.00">+ getName()</text>
<text text-anchor="start" x="8" y="-350.5" font-family="Helvetica,sans-Serif" font-size="10.00">+ performCare()</text>
<text text-anchor="start" x="8" y="-339.5" font-family="Helvetica,sans-Serif" font-size="10.00">+ remove()</text>
</a>
</g>
</g>
<!-- Node3&#45;&gt;Node2 -->
<g id="edge2" class="edge">
<title>Node3&#45;&gt;Node2</title>
<path fill="none" stroke="midnightblue" d="M108.29,-323.25C112.21,-313.9 116.27,-304.23 120.28,-294.69"/>
<polygon fill="none" stroke="midnightblue" points="105.06,-321.9 104.41,-332.48 111.51,-324.61 105.06,-321.9"/>
</g>
<!-- Node4 -->
<g id="node4" class="node">
<title>Node4</title>
<g id="a_node4"><a xlink:title=" ">
<polygon fill="none" stroke="#bfbfbf" points="46.5,-503.5 46.5,-560.5 111.5,-560.5 111.5,-503.5 46.5,-503.5"/>
<text text-anchor="middle" x="79" y="-548.5" font-family="Helvetica,sans-Serif" font-size="10.00">std::string</text>
<polyline fill="none" stroke="#bfbfbf" points="46.5,-541.5 111.5,-541.5 "/>
<text text-anchor="middle" x="79" y="-529.5" font-family="Helvetica,sans-Serif" font-size="10.00"> </text>
<polyline fill="none" stroke="#bfbfbf" points="46.5,-522.5 111.5,-522.5 "/>
<text text-anchor="middle" x="79" y="-510.5" font-family="Helvetica,sans-Serif" font-size="10.00"> </text>
</a>
</g>
</g>
<!-- Node4&#45;&gt;Node3 -->
<g id="edge3" class="edge">
<title>Node4&#45;&gt;Node3</title>
<path fill="none" stroke="#404040" d="M79,-503.48C79,-493.01 79,-480.53 79,-467.82"/>
<polygon fill="none" stroke="#404040" points="79,-467.62 75,-461.62 79,-455.62 83,-461.62 79,-467.62"/>
<text text-anchor="middle" x="99" y="-477" font-family="Helvetica,sans-Serif" font-size="10.00"> #name</text>
</g>
<!-- Node5 -->
<g id="node5" class="node">
<title>Node5</title>
<g id="a_node5"><a xlink:title=" ">
<polygon fill="none" stroke="#bfbfbf" points="27,-598.5 27,-666.5 131,-666.5 131,-598.5 27,-598.5"/>
<text text-anchor="start" x="35" y="-654.5" font-family="Helvetica,sans-Serif" font-size="10.00">std::basic_string&lt;</text>
<text text-anchor="middle" x="79" y="-643.5" font-family="Helvetica,sans-Serif" font-size="10.00"> Char &gt;</text>
<polyline fill="none" stroke="#bfbfbf" points="27,-636.5 131,-636.5 "/>
<text text-anchor="middle" x="79" y="-624.5" font-family="Helvetica,sans-Serif" font-size="10.00"> </text>
<polyline fill="none" stroke="#bfbfbf" points="27,-617.5 131,-617.5 "/>
<text text-anchor="middle" x="79" y="-605.5" font-family="Helvetica,sans-Serif" font-size="10.00"> </text>
</a>
</g>
</g>
<!-- Node5&#45;&gt;Node4 -->
<g id="edge4" class="edge">
<title>Node5&#45;&gt;Node4</title>
<path fill="none" stroke="midnightblue" d="M79,-588.38C79,-578.94 79,-569.2 79,-560.57"/>
<polygon fill="none" stroke="midnightblue" points="75.5,-588.43 79,-598.43 82.5,-588.43 75.5,-588.43"/>
</g>
<!-- Node6 -->
<g id="node6" class="node">
<title>Node6</title>
<g id="a_node6"><a xlink:href="classSubject.html" target="_top" xlink:title=" ">
<polygon fill="none" stroke="black" points="176.5,-343.5 176.5,-444.5 285.5,-444.5 285.5,-343.5 176.5,-343.5"/>
<text text-anchor="middle" x="231" y="-432.5" font-family="Helvetica,sans-Serif" font-size="10.00">Subject</text>
<polyline fill="none" stroke="black" points="176.5,-425.5 285.5,-425.5 "/>
<text text-anchor="middle" x="231" y="-413.5" font-family="Helvetica,sans-Serif" font-size="10.00"> </text>
<polyline fill="none" stroke="black" points="176.5,-406.5 285.5,-406.5 "/>
<text text-anchor="start" x="184.5" y="-394.5" font-family="Helvetica,sans-Serif" font-size="10.00">+ ~Subject()</text>
<text text-anchor="start" x="184.5" y="-383.5" font-family="Helvetica,sans-Serif" font-size="10.00">+ attach()</text>
<text text-anchor="start" x="184.5" y="-372.5" font-family="Helvetica,sans-Serif" font-size="10.00">+ detach()</text>
<text text-anchor="start" x="184.5" y="-361.5" font-family="Helvetica,sans-Serif" font-size="10.00"># clearObservers()</text>
<text text-anchor="start" x="184.5" y="-350.5" font-family="Helvetica,sans-Serif" font-size="10.00"># notify()</text>
</a>
</g>
</g>
<!-- Node6&#45;&gt;Node2 -->
<g id="edge5" class="edge">
<title>Node6&#45;&gt;Node2</title>
<path fill="none" stroke="midnightblue" d="M206.11,-333.73C200.88,-321.28 195.28,-307.92 189.76,-294.79"/>
<polygon fill="none" stroke="midnightblue" points="202.93,-335.2 210.03,-343.06 209.39,-332.49 202.93,-335.2"/>
</g>
</g>
</svg>
        <g id="navigator" transform="translate(0 0)" fill="#404254">
                <rect fill="#f2f5e9" fill-opacity="0.5" stroke="#606060" stroke-width=".5" x="0" y="0" width="60" height="60"/>
                <use id="zoomplus" xlink:href="#zoomPlus" x="17" y="9" onmousedown="handleZoom(evt,'in')"/>
                <use id="zoomminus" xlink:href="#zoomMin" x="42" y="9" onmousedown="handleZoom(evt,'out')"/>
                <use id="reset" xlink:href="#resetDef" x="30" y="36" onmousedown="handleReset()"/>
                <g id="arrowUp" xlink:href="#dirArrow" transform="translate(30 24)" onmousedown="handlePan(0,-1)">
                  <use xlink:href="#rim" fill="#404040">
                        <set attributeName="fill" to="#808080" begin="arrowUp.mouseover" end="arrowUp.mouseout"/>
                  </use>
                  <path fill="none" stroke="white" stroke-width="1.5" d="M0,-3.0v7 M-2.5,-0.5L0,-3.0L2.5,-0.5"/>
                </g>
                <g id="arrowRight" xlink:href="#dirArrow" transform="rotate(90) translate(36 -43)" onmousedown="handlePan(1,0)">
                  <use xlink:href="#rim" fill="#404040">
                        <set attributeName="fill" to="#808080" begin="arrowRight.mouseover" end="arrowRight.mouseout"/>
                  </use>
                  <path fill="none" stroke="white" stroke-width="1.5" d="M0,-3.0v7 M-2.5,-0.5L0,-3.0L2.5,-0.5"/>
                </g>
                <g id="arrowDown" xlink:href="#dirArrow" transform="rotate(180) translate(-30 -48)" onmousedown="handlePan(0,1)">
                  <use xlink:href="#rim" fill="#404040">
                        <set attributeName="fill" to="#808080" begin="arrowDown.mouseover" end="arrowDown.mouseout"/>
                  </use>
                  <path fill="none" stroke="white" stroke-width="1.5" d="M0,-3.0v7 M-2.5,-0.5L0,-3.0L2.5,-0.5"/>
                </g>
                <g id="arrowLeft" xlink:href="#dirArrow" transform="rotate(270) translate(-36 17)" onmousedown="handlePan(-1,0)">
                  <use xlink:href="#rim" fill="#404040">
                        <set attributeName="fill" to="#808080" begin="arrowLeft.mouseover" end="arrowLeft.mouseout"/>
                  </use>
                  <path fill="none" stroke="white" stroke-width="1.5" d="M0,-3.0v7 M-2.5,-0.5L0,-3.0L2.5,-0.5"/>
                </g>
        </g>
        <svg viewBox="0 0 15 15" width="100%" height="30px" preserveAspectRatio="xMaxYMin meet">
         <g id="arrow_out" transform="scale(0.3 0.3)">
          <a xlink:href="classPlantCommand__coll__graph_org.svg" target="_base">
           <rect id="button" ry="5" rx="5" y="6" x="6" height="38" width="38"
                fill="#f2f5e9" fill-opacity="0.5" stroke="#606060" stroke-width="1.0"/>
           <path id="arrow"
             d="M 11.500037,31.436501 C 11.940474,20.09759 22.043105,11.32322 32.158766,21.979434 L 37.068811,17.246167 C 37.068811,17.246167 37.088388,32 37.088388,32 L 22.160133,31.978069 C 22.160133,31.978069 26.997745,27.140456 26.997745,27.140456 C 18.528582,18.264221 13.291696,25.230495 11.500037,31.436501 z"
             style="fill:#404040;"/>
          </a>
         </g>
        </svg>
</svg>
