<?xml version="1.0" encoding="UTF-8" standalone="no"?>
<!DOCTYPE svg PUBLIC "-//W3C//DTD SVG 1.1//EN"
 "http://www.w3.org/Graphics/SVG/1.1/DTD/svg11.dtd">
<!-- Generated by graphviz version 2.43.0 (0)
 -->
<!-- Title: Observer Pages: 1 -->
<svg width="294pt" height="325pt"
 viewBox="0.00 0.00 294.00 325.00" xmlns="http://www.w3.org/2000/svg" xmlns:xlink="http://www.w3.org/1999/xlink">
<g id="graph0" class="graph" transform="scale(1 1) rotate(0) translate(4 321)">
<title>Observer</title>
<!-- Node1 -->
<g id="node1" class="node">
<title>Node1</title>
<g id="a_node1"><a xlink:title="The &#39;Observer&#39; interface that reacts to Subject notifications.">
<polygon fill="#bfbfbf" stroke="black" points="106.5,-248.5 106.5,-316.5 194.5,-316.5 194.5,-248.5 106.5,-248.5"/>
<text text-anchor="middle" x="150.5" y="-304.5" font-family="Helvetica,sans-Serif" font-size="10.00">Observer</text>
<polyline fill="none" stroke="black" points="106.5,-297.5 194.5,-297.5 "/>
<text text-anchor="middle" x="150.5" y="-285.5" font-family="Helvetica,sans-Serif" font-size="10.00"> </text>
<polyline fill="none" stroke="black" points="106.5,-278.5 194.5,-278.5 "/>
<text text-anchor="start" x="114.5" y="-266.5" font-family="Helvetica,sans-Serif" font-size="10.00">+ ~Observer()</text>
<text text-anchor="start" x="114.5" y="-255.5" font-family="Helvetica,sans-Serif" font-size="10.00">+ update()</text>
</a>
</g>
</g>
<!-- Node2 -->
<g id="node2" class="node">
<title>Node2</title>
<g id="a_node2"><a xlink:href="classStaff.html" target="_top" xlink:title=" ">
<polygon fill="none" stroke="black" points="0,-22.5 0,-189.5 149,-189.5 149,-22.5 0,-22.5"/>
<text text-anchor="middle" x="74.5" y="-177.5" font-family="Helvetica,sans-Serif" font-size="10.00">Staff</text>
<polyline fill="none" stroke="black" points="0,-170.5 149,-170.5 "/>
<text text-anchor="middle" x="74.5" y="-158.5" font-family="Helvetica,sans-Serif" font-size="10.00"> </text>
<polyline fill="none" stroke="black" points="0,-151.5 149,-151.5 "/>
<text text-anchor="start" x="8" y="-139.5" font-family="Helvetica,sans-Serif" font-size="10.00">+ Staff()</text>
<text text-anchor="start" x="8" y="-128.5" font-family="Helvetica,sans-Serif" font-size="10.00">+ ~Staff()</text>
<text text-anchor="start" x="8" y="-117.5" font-family="Helvetica,sans-Serif" font-size="10.00">+ addCommandToQueue()</text>
<text text-anchor="start" x="8" y="-106.5" font-family="Helvetica,sans-Serif" font-size="10.00">+ assignToBed()</text>
<text text-anchor="start" x="8" y="-95.5" font-family="Helvetica,sans-Serif" font-size="10.00">+ checkOnPlants()</text>
<text text-anchor="start" x="8" y="-84.5" font-family="Helvetica,sans-Serif" font-size="10.00">+ getCareReminderCount()</text>
<text text-anchor="start" x="8" y="-73.5" font-family="Helvetica,sans-Serif" font-size="10.00">+ getCareReminders()</text>
<text text-anchor="start" x="8" y="-62.5" font-family="Helvetica,sans-Serif" font-size="10.00">+ getID()</text>
<text text-anchor="start" x="8" y="-51.5" font-family="Helvetica,sans-Serif" font-size="10.00">+ getTaskQueueSize()</text>
<text text-anchor="start" x="8" y="-40.5" font-family="Helvetica,sans-Serif" font-size="10.00">+ makeCareRequest()</text>
<text text-anchor="start" x="8" y="-29.5" font-family="Helvetica,sans-Serif" font-size="10.00">and 7 more...</text>
</a>
</g>
</g>
<!-- Node1&#45;&gt;Node2 -->
<g id="edge1" class="edge">
<title>Node1&#45;&gt;Node2</title>
<path fill="none" stroke="midnightblue" d="M131.93,-238.86C125.45,-223.99 117.95,-206.76 110.54,-189.75"/>
<polygon fill="none" stroke="midnightblue" points="128.82,-240.5 136.03,-248.27 135.24,-237.7 128.82,-240.5"/>
</g>
<!-- Node3 -->
<g id="node3" class="node">
<title>Node3</title>
<g id="a_node3"><a xlink:href="classStockItem.html" target="_top" xlink:title=" ">
<polygon fill="none" stroke="black" points="167,-0.5 167,-211.5 286,-211.5 286,-0.5 167,-0.5"/>
<text text-anchor="middle" x="226.5" y="-199.5" font-family="Helvetica,sans-Serif" font-size="10.00">StockItem</text>
<polyline fill="none" stroke="black" points="167,-192.5 286,-192.5 "/>
<text text-anchor="middle" x="226.5" y="-180.5" font-family="Helvetica,sans-Serif" font-size="10.00"> </text>
<polyline fill="none" stroke="black" points="167,-173.5 286,-173.5 "/>
<text text-anchor="start" x="175" y="-161.5" font-family="Helvetica,sans-Serif" font-size="10.00">+ StockItem()</text>
<text text-anchor="start" x="175" y="-150.5" font-family="Helvetica,sans-Serif" font-size="10.00">+ StockItem()</text>
<text text-anchor="start" x="175" y="-139.5" font-family="Helvetica,sans-Serif" font-size="10.00">+ ~StockItem()</text>
<text text-anchor="start" x="175" y="-128.5" font-family="Helvetica,sans-Serif" font-size="10.00">+ getDisplayStatus()</text>
<text text-anchor="start" x="175" y="-117.5" font-family="Helvetica,sans-Serif" font-size="10.00">+ getId()</text>
<text text-anchor="start" x="175" y="-106.5" font-family="Helvetica,sans-Serif" font-size="10.00">+ getIsAvailible()</text>
<text text-anchor="start" x="175" y="-95.5" font-family="Helvetica,sans-Serif" font-size="10.00">+ getname()</text>
<text text-anchor="start" x="175" y="-84.5" font-family="Helvetica,sans-Serif" font-size="10.00">+ getplant()</text>
<text text-anchor="start" x="175" y="-73.5" font-family="Helvetica,sans-Serif" font-size="10.00">+ getplant()</text>
<text text-anchor="start" x="175" y="-62.5" font-family="Helvetica,sans-Serif" font-size="10.00">+ getPrice()</text>
<text text-anchor="start" x="175" y="-51.5" font-family="Helvetica,sans-Serif" font-size="10.00">+ isPlant()</text>
<text text-anchor="start" x="175" y="-40.5" font-family="Helvetica,sans-Serif" font-size="10.00">+ setIsAvailible()</text>
<text text-anchor="start" x="175" y="-29.5" font-family="Helvetica,sans-Serif" font-size="10.00">+ setPlant()</text>
<text text-anchor="start" x="175" y="-18.5" font-family="Helvetica,sans-Serif" font-size="10.00">+ setPrice()</text>
<text text-anchor="start" x="175" y="-7.5" font-family="Helvetica,sans-Serif" font-size="10.00">+ update()</text>
</a>
</g>
</g>
<!-- Node1&#45;&gt;Node3 -->
<g id="edge2" class="edge">
<title>Node1&#45;&gt;Node3</title>
<path fill="none" stroke="midnightblue" d="M168.99,-239.04C172.69,-230.56 176.72,-221.3 180.88,-211.75"/>
<polygon fill="none" stroke="midnightblue" points="165.76,-237.7 164.97,-248.27 172.18,-240.5 165.76,-237.7"/>
</g>
</g>
</svg>
