<?xml version="1.0" encoding="UTF-8" standalone="no"?>
<!DOCTYPE svg PUBLIC "-//W3C//DTD SVG 1.1//EN"
 "http://www.w3.org/Graphics/SVG/1.1/DTD/svg11.dtd">
<!-- Generated by graphviz version 2.43.0 (0)
 -->
<!-- Title: Staff Pages: 1 -->
<svg width="206pt" height="314pt"
 viewBox="0.00 0.00 206.00 314.00" xmlns="http://www.w3.org/2000/svg" xmlns:xlink="http://www.w3.org/1999/xlink">
<g id="graph0" class="graph" transform="scale(1 1) rotate(0) translate(4 310)">
<title>Staff</title>
<!-- Node1 -->
<g id="node1" class="node">
<title>Node1</title>
<g id="a_node1"><a xlink:title=" ">
<polygon fill="#bfbfbf" stroke="black" points="23.5,-0.5 23.5,-167.5 172.5,-167.5 172.5,-0.5 23.5,-0.5"/>
<text text-anchor="middle" x="98" y="-155.5" font-family="Helvetica,sans-Serif" font-size="10.00">Staff</text>
<polyline fill="none" stroke="black" points="23.5,-148.5 172.5,-148.5 "/>
<text text-anchor="middle" x="98" y="-136.5" font-family="Helvetica,sans-Serif" font-size="10.00"> </text>
<polyline fill="none" stroke="black" points="23.5,-129.5 172.5,-129.5 "/>
<text text-anchor="start" x="31.5" y="-117.5" font-family="Helvetica,sans-Serif" font-size="10.00">+ Staff()</text>
<text text-anchor="start" x="31.5" y="-106.5" font-family="Helvetica,sans-Serif" font-size="10.00">+ ~Staff()</text>
<text text-anchor="start" x="31.5" y="-95.5" font-family="Helvetica,sans-Serif" font-size="10.00">+ addCommandToQueue()</text>
<text text-anchor="start" x="31.5" y="-84.5" font-family="Helvetica,sans-Serif" font-size="10.00">+ assignToBed()</text>
<text text-anchor="start" x="31.5" y="-73.5" font-family="Helvetica,sans-Serif" font-size="10.00">+ checkOnPlants()</text>
<text text-anchor="start" x="31.5" y="-62.5" font-family="Helvetica,sans-Serif" font-size="10.00">+ getCareReminderCount()</text>
<text text-anchor="start" x="31.5" y="-51.5" font-family="Helvetica,sans-Serif" font-size="10.00">+ getCareReminders()</text>
<text text-anchor="start" x="31.5" y="-40.5" font-family="Helvetica,sans-Serif" font-size="10.00">+ getID()</text>
<text text-anchor="start" x="31.5" y="-29.5" font-family="Helvetica,sans-Serif" font-size="10.00">+ getTaskQueueSize()</text>
<text text-anchor="start" x="31.5" y="-18.5" font-family="Helvetica,sans-Serif" font-size="10.00">+ makeCareRequest()</text>
<text text-anchor="start" x="31.5" y="-7.5" font-family="Helvetica,sans-Serif" font-size="10.00">and 7 more...</text>
</a>
</g>
</g>
<!-- Node2 -->
<g id="node2" class="node">
<title>Node2</title>
<g id="a_node2"><a xlink:href="classObserver.html" target="_top" xlink:title="The &#39;Observer&#39; interface that reacts to Subject notifications.">
<polygon fill="none" stroke="black" points="0,-221 0,-289 88,-289 88,-221 0,-221"/>
<text text-anchor="middle" x="44" y="-277" font-family="Helvetica,sans-Serif" font-size="10.00">Observer</text>
<polyline fill="none" stroke="black" points="0,-270 88,-270 "/>
<text text-anchor="middle" x="44" y="-258" font-family="Helvetica,sans-Serif" font-size="10.00"> </text>
<polyline fill="none" stroke="black" points="0,-251 88,-251 "/>
<text text-anchor="start" x="8" y="-239" font-family="Helvetica,sans-Serif" font-size="10.00">+ ~Observer()</text>
<text text-anchor="start" x="8" y="-228" font-family="Helvetica,sans-Serif" font-size="10.00">+ update()</text>
</a>
</g>
</g>
<!-- Node2&#45;&gt;Node1 -->
<g id="edge1" class="edge">
<title>Node2&#45;&gt;Node1</title>
<path fill="none" stroke="midnightblue" d="M57.78,-210.88C62,-197.65 66.8,-182.63 71.58,-167.69"/>
<polygon fill="none" stroke="midnightblue" points="54.38,-210.02 54.67,-220.61 61.05,-212.15 54.38,-210.02"/>
</g>
<!-- Node3 -->
<g id="node3" class="node">
<title>Node3</title>
<g id="a_node3"><a xlink:href="classColleague.html" target="_top" xlink:title=" ">
<polygon fill="none" stroke="black" points="106,-204.5 106,-305.5 198,-305.5 198,-204.5 106,-204.5"/>
<text text-anchor="middle" x="152" y="-293.5" font-family="Helvetica,sans-Serif" font-size="10.00">Colleague</text>
<polyline fill="none" stroke="black" points="106,-286.5 198,-286.5 "/>
<text text-anchor="start" x="114" y="-274.5" font-family="Helvetica,sans-Serif" font-size="10.00"># mediator</text>
<polyline fill="none" stroke="black" points="106,-267.5 198,-267.5 "/>
<text text-anchor="start" x="114" y="-255.5" font-family="Helvetica,sans-Serif" font-size="10.00">+ Colleague()</text>
<text text-anchor="start" x="114" y="-244.5" font-family="Helvetica,sans-Serif" font-size="10.00">+ ~Colleague()</text>
<text text-anchor="start" x="114" y="-233.5" font-family="Helvetica,sans-Serif" font-size="10.00">+ getID()</text>
<text text-anchor="start" x="114" y="-222.5" font-family="Helvetica,sans-Serif" font-size="10.00">+ receive()</text>
<text text-anchor="start" x="114" y="-211.5" font-family="Helvetica,sans-Serif" font-size="10.00">+ send()</text>
</a>
</g>
</g>
<!-- Node3&#45;&gt;Node1 -->
<g id="edge2" class="edge">
<title>Node3&#45;&gt;Node1</title>
<path fill="none" stroke="midnightblue" d="M133.01,-194.57C130.23,-185.87 127.33,-176.78 124.43,-167.72"/>
<polygon fill="none" stroke="midnightblue" points="129.71,-195.75 136.09,-204.21 136.38,-193.62 129.71,-195.75"/>
</g>
</g>
</svg>
