<?xml version="1.0" encoding="UTF-8" standalone="no"?>
<!DOCTYPE svg PUBLIC "-//W3C//DTD SVG 1.1//EN"
 "http://www.w3.org/Graphics/SVG/1.1/DTD/svg11.dtd">
<!-- Generated by graphviz version 2.43.0 (0)
 -->
<!-- Title: CustomOrderBuilder Pages: 1 -->
<svg width="147pt" height="310pt"
 viewBox="0.00 0.00 147.00 310.00" xmlns="http://www.w3.org/2000/svg" xmlns:xlink="http://www.w3.org/1999/xlink">
<g id="graph0" class="graph" transform="scale(1 1) rotate(0) translate(4 306)">
<title>CustomOrderBuilder</title>
<!-- Node1 -->
<g id="node1" class="node">
<title>Node1</title>
<g id="a_node1"><a xlink:title=" ">
<polygon fill="#bfbfbf" stroke="black" points="2.5,-0.5 2.5,-68.5 136.5,-68.5 136.5,-0.5 2.5,-0.5"/>
<text text-anchor="middle" x="69.5" y="-56.5" font-family="Helvetica,sans-Serif" font-size="10.00">CustomOrderBuilder</text>
<polyline fill="none" stroke="black" points="2.5,-49.5 136.5,-49.5 "/>
<text text-anchor="middle" x="69.5" y="-37.5" font-family="Helvetica,sans-Serif" font-size="10.00"> </text>
<polyline fill="none" stroke="black" points="2.5,-30.5 136.5,-30.5 "/>
<text text-anchor="start" x="10.5" y="-18.5" font-family="Helvetica,sans-Serif" font-size="10.00">+ CustomOrderBuilder()</text>
<text text-anchor="start" x="10.5" y="-7.5" font-family="Helvetica,sans-Serif" font-size="10.00">+ addItem()</text>
</a>
</g>
</g>
<!-- Node2 -->
<g id="node2" class="node">
<title>Node2</title>
<g id="a_node2"><a xlink:href="classOrderBuilder.html" target="_top" xlink:title=" ">
<polygon fill="none" stroke="black" points="12,-106.5 12,-196.5 127,-196.5 127,-106.5 12,-106.5"/>
<text text-anchor="middle" x="69.5" y="-184.5" font-family="Helvetica,sans-Serif" font-size="10.00">OrderBuilder</text>
<polyline fill="none" stroke="black" points="12,-177.5 127,-177.5 "/>
<text text-anchor="middle" x="69.5" y="-165.5" font-family="Helvetica,sans-Serif" font-size="10.00"> </text>
<polyline fill="none" stroke="black" points="12,-158.5 127,-158.5 "/>
<text text-anchor="start" x="20" y="-146.5" font-family="Helvetica,sans-Serif" font-size="10.00">+ ~OrderBuilder()</text>
<text text-anchor="start" x="20" y="-135.5" font-family="Helvetica,sans-Serif" font-size="10.00">+ addItem()</text>
<text text-anchor="start" x="20" y="-124.5" font-family="Helvetica,sans-Serif" font-size="10.00">+ createNewOrder()</text>
<text text-anchor="start" x="20" y="-113.5" font-family="Helvetica,sans-Serif" font-size="10.00">+ getOrder()</text>
</a>
</g>
</g>
<!-- Node2&#45;&gt;Node1 -->
<g id="edge1" class="edge">
<title>Node2&#45;&gt;Node1</title>
<path fill="none" stroke="midnightblue" d="M69.5,-96.23C69.5,-86.8 69.5,-77.26 69.5,-68.62"/>
<polygon fill="none" stroke="midnightblue" points="66,-96.37 69.5,-106.37 73,-96.37 66,-96.37"/>
</g>
<!-- Node3 -->
<g id="node3" class="node">
<title>Node3</title>
<g id="a_node3"><a xlink:title=" ">
<polygon fill="none" stroke="#bfbfbf" points="0,-244.5 0,-301.5 139,-301.5 139,-244.5 0,-244.5"/>
<text text-anchor="middle" x="69.5" y="-289.5" font-family="Helvetica,sans-Serif" font-size="10.00">std::unique_ptr&lt; Order &gt;</text>
<polyline fill="none" stroke="#bfbfbf" points="0,-282.5 139,-282.5 "/>
<text text-anchor="start" x="8" y="-270.5" font-family="Helvetica,sans-Serif" font-size="10.00">+ ptr</text>
<polyline fill="none" stroke="#bfbfbf" points="0,-263.5 139,-263.5 "/>
<text text-anchor="start" x="8" y="-251.5" font-family="Helvetica,sans-Serif" font-size="10.00">+ operator&#45;&gt;()</text>
</a>
</g>
</g>
<!-- Node3&#45;&gt;Node2 -->
<g id="edge2" class="edge">
<title>Node3&#45;&gt;Node2</title>
<path fill="none" stroke="#404040" d="M69.5,-244.28C69.5,-233.73 69.5,-221.29 69.5,-209.03"/>
<polygon fill="none" stroke="#404040" points="69.5,-208.91 65.5,-202.91 69.5,-196.91 73.5,-202.91 69.5,-208.91"/>
<text text-anchor="middle" x="88" y="-218" font-family="Helvetica,sans-Serif" font-size="10.00"> #order</text>
</g>
</g>
</svg>
