<?xml version="1.0" encoding="UTF-8" standalone="no"?>
<!DOCTYPE svg PUBLIC "-//W3C//DTD SVG 1.1//EN"
 "http://www.w3.org/Graphics/SVG/1.1/DTD/svg11.dtd">
<!-- Generated by graphviz version 2.43.0 (0)
 -->
<!-- Title: WaterStrategy Pages: 1 -->
<svg width="402pt" height="204pt"
 viewBox="0.00 0.00 402.00 204.00" xmlns="http://www.w3.org/2000/svg" xmlns:xlink="http://www.w3.org/1999/xlink">
<g id="graph0" class="graph" transform="scale(1 1) rotate(0) translate(4 200)">
<title>WaterStrategy</title>
<!-- Node1 -->
<g id="node1" class="node">
<title>Node1</title>
<g id="a_node1"><a xlink:title=" ">
<polygon fill="#bfbfbf" stroke="black" points="145.5,-116.5 145.5,-195.5 258.5,-195.5 258.5,-116.5 145.5,-116.5"/>
<text text-anchor="middle" x="202" y="-183.5" font-family="Helvetica,sans-Serif" font-size="10.00">WaterStrategy</text>
<polyline fill="none" stroke="black" points="145.5,-176.5 258.5,-176.5 "/>
<text text-anchor="middle" x="202" y="-164.5" font-family="Helvetica,sans-Serif" font-size="10.00"> </text>
<polyline fill="none" stroke="black" points="145.5,-157.5 258.5,-157.5 "/>
<text text-anchor="start" x="153.5" y="-145.5" font-family="Helvetica,sans-Serif" font-size="10.00">+ ~WaterStrategy()</text>
<text text-anchor="start" x="153.5" y="-134.5" font-family="Helvetica,sans-Serif" font-size="10.00">+ clone()</text>
<text text-anchor="start" x="153.5" y="-123.5" font-family="Helvetica,sans-Serif" font-size="10.00">+ water()</text>
</a>
</g>
</g>
<!-- Node2 -->
<g id="node2" class="node">
<title>Node2</title>
<g id="a_node2"><a xlink:href="classFrequentWatering.html" target="_top" xlink:title=" ">
<polygon fill="none" stroke="black" points="0,-0.5 0,-79.5 122,-79.5 122,-0.5 0,-0.5"/>
<text text-anchor="middle" x="61" y="-67.5" font-family="Helvetica,sans-Serif" font-size="10.00">FrequentWatering</text>
<polyline fill="none" stroke="black" points="0,-60.5 122,-60.5 "/>
<text text-anchor="middle" x="61" y="-48.5" font-family="Helvetica,sans-Serif" font-size="10.00"> </text>
<polyline fill="none" stroke="black" points="0,-41.5 122,-41.5 "/>
<text text-anchor="start" x="8" y="-29.5" font-family="Helvetica,sans-Serif" font-size="10.00">+ FrequentWatering()</text>
<text text-anchor="start" x="8" y="-18.5" font-family="Helvetica,sans-Serif" font-size="10.00">+ clone()</text>
<text text-anchor="start" x="8" y="-7.5" font-family="Helvetica,sans-Serif" font-size="10.00">+ water()</text>
</a>
</g>
</g>
<!-- Node1&#45;&gt;Node2 -->
<g id="edge1" class="edge">
<title>Node1&#45;&gt;Node2</title>
<path fill="none" stroke="midnightblue" d="M146.21,-109.9C133.8,-99.86 120.74,-89.3 108.69,-79.56"/>
<polygon fill="none" stroke="midnightblue" points="144.29,-112.84 154.26,-116.4 148.69,-107.4 144.29,-112.84"/>
</g>
<!-- Node3 -->
<g id="node3" class="node">
<title>Node3</title>
<g id="a_node3"><a xlink:href="classSeasonalWatering.html" target="_top" xlink:title=" ">
<polygon fill="none" stroke="black" points="140.5,-0.5 140.5,-79.5 263.5,-79.5 263.5,-0.5 140.5,-0.5"/>
<text text-anchor="middle" x="202" y="-67.5" font-family="Helvetica,sans-Serif" font-size="10.00">SeasonalWatering</text>
<polyline fill="none" stroke="black" points="140.5,-60.5 263.5,-60.5 "/>
<text text-anchor="middle" x="202" y="-48.5" font-family="Helvetica,sans-Serif" font-size="10.00"> </text>
<polyline fill="none" stroke="black" points="140.5,-41.5 263.5,-41.5 "/>
<text text-anchor="start" x="148.5" y="-29.5" font-family="Helvetica,sans-Serif" font-size="10.00">+ SeasonalWatering()</text>
<text text-anchor="start" x="148.5" y="-18.5" font-family="Helvetica,sans-Serif" font-size="10.00">+ clone()</text>
<text text-anchor="start" x="148.5" y="-7.5" font-family="Helvetica,sans-Serif" font-size="10.00">+ water()</text>
</a>
</g>
</g>
<!-- Node1&#45;&gt;Node3 -->
<g id="edge2" class="edge">
<title>Node1&#45;&gt;Node3</title>
<path fill="none" stroke="midnightblue" d="M202,-106.15C202,-97.26 202,-88.1 202,-79.56"/>
<polygon fill="none" stroke="midnightblue" points="198.5,-106.4 202,-116.4 205.5,-106.4 198.5,-106.4"/>
</g>
<!-- Node4 -->
<g id="node4" class="node">
<title>Node4</title>
<g id="a_node4"><a xlink:href="classSparseWatering.html" target="_top" xlink:title=" ">
<polygon fill="none" stroke="black" points="282,-0.5 282,-79.5 394,-79.5 394,-0.5 282,-0.5"/>
<text text-anchor="middle" x="338" y="-67.5" font-family="Helvetica,sans-Serif" font-size="10.00">SparseWatering</text>
<polyline fill="none" stroke="black" points="282,-60.5 394,-60.5 "/>
<text text-anchor="middle" x="338" y="-48.5" font-family="Helvetica,sans-Serif" font-size="10.00"> </text>
<polyline fill="none" stroke="black" points="282,-41.5 394,-41.5 "/>
<text text-anchor="start" x="290" y="-29.5" font-family="Helvetica,sans-Serif" font-size="10.00">+ SparseWatering()</text>
<text text-anchor="start" x="290" y="-18.5" font-family="Helvetica,sans-Serif" font-size="10.00">+ clone()</text>
<text text-anchor="start" x="290" y="-7.5" font-family="Helvetica,sans-Serif" font-size="10.00">+ water()</text>
</a>
</g>
</g>
<!-- Node1&#45;&gt;Node4 -->
<g id="edge3" class="edge">
<title>Node1&#45;&gt;Node4</title>
<path fill="none" stroke="midnightblue" d="M255.81,-109.9C267.78,-99.86 280.38,-89.3 292,-79.56"/>
<polygon fill="none" stroke="midnightblue" points="253.46,-107.3 248.04,-116.4 257.96,-112.66 253.46,-107.3"/>
</g>
</g>
</svg>
