<?xml version="1.0" encoding="UTF-8" standalone="no"?>
<!DOCTYPE svg PUBLIC "-//W3C//DTD SVG 1.1//EN"
 "http://www.w3.org/Graphics/SVG/1.1/DTD/svg11.dtd">
<!-- Generated by graphviz version 2.43.0 (0)
 -->
<!-- Title: Customer Pages: 1 -->
<svg width="154pt" height="486pt"
 viewBox="0.00 0.00 154.00 486.00" xmlns="http://www.w3.org/2000/svg" xmlns:xlink="http://www.w3.org/1999/xlink">
<g id="graph0" class="graph" transform="scale(1 1) rotate(0) translate(4 482)">
<title>Customer</title>
<!-- Node1 -->
<g id="node1" class="node">
<title>Node1</title>
<g id="a_node1"><a xlink:title=" ">
<polygon fill="#bfbfbf" stroke="black" points="0,-0.5 0,-211.5 146,-211.5 146,-0.5 0,-0.5"/>
<text text-anchor="middle" x="73" y="-199.5" font-family="Helvetica,sans-Serif" font-size="10.00">Customer</text>
<polyline fill="none" stroke="black" points="0,-192.5 146,-192.5 "/>
<text text-anchor="middle" x="73" y="-180.5" font-family="Helvetica,sans-Serif" font-size="10.00"> </text>
<polyline fill="none" stroke="black" points="0,-173.5 146,-173.5 "/>
<text text-anchor="start" x="8" y="-161.5" font-family="Helvetica,sans-Serif" font-size="10.00">+ Customer()</text>
<text text-anchor="start" x="8" y="-150.5" font-family="Helvetica,sans-Serif" font-size="10.00">+ addToCart()</text>
<text text-anchor="start" x="8" y="-139.5" font-family="Helvetica,sans-Serif" font-size="10.00">+ askForHelp()</text>
<text text-anchor="start" x="8" y="-128.5" font-family="Helvetica,sans-Serif" font-size="10.00">+ browseInventory()</text>
<text text-anchor="start" x="8" y="-117.5" font-family="Helvetica,sans-Serif" font-size="10.00">+ clearUnavailableItems()</text>
<text text-anchor="start" x="8" y="-106.5" font-family="Helvetica,sans-Serif" font-size="10.00">+ getCartItemIds()</text>
<text text-anchor="start" x="8" y="-95.5" font-family="Helvetica,sans-Serif" font-size="10.00">+ getCartSize()</text>
<text text-anchor="start" x="8" y="-84.5" font-family="Helvetica,sans-Serif" font-size="10.00">+ getCartSummary()</text>
<text text-anchor="start" x="8" y="-73.5" font-family="Helvetica,sans-Serif" font-size="10.00">+ getID()</text>
<text text-anchor="start" x="8" y="-62.5" font-family="Helvetica,sans-Serif" font-size="10.00">+ notifyItemSold()</text>
<text text-anchor="start" x="8" y="-51.5" font-family="Helvetica,sans-Serif" font-size="10.00">+ receive()</text>
<text text-anchor="start" x="8" y="-40.5" font-family="Helvetica,sans-Serif" font-size="10.00">+ removeFromCart()</text>
<text text-anchor="start" x="8" y="-29.5" font-family="Helvetica,sans-Serif" font-size="10.00">+ removeFromCart()</text>
<text text-anchor="start" x="8" y="-18.5" font-family="Helvetica,sans-Serif" font-size="10.00">+ removeFromCartById()</text>
<text text-anchor="start" x="8" y="-7.5" font-family="Helvetica,sans-Serif" font-size="10.00">+ send()</text>
</a>
</g>
</g>
<!-- Node2 -->
<g id="node2" class="node">
<title>Node2</title>
<g id="a_node2"><a xlink:href="classColleague.html" target="_top" xlink:title=" ">
<polygon fill="none" stroke="black" points="27,-249.5 27,-350.5 119,-350.5 119,-249.5 27,-249.5"/>
<text text-anchor="middle" x="73" y="-338.5" font-family="Helvetica,sans-Serif" font-size="10.00">Colleague</text>
<polyline fill="none" stroke="black" points="27,-331.5 119,-331.5 "/>
<text text-anchor="middle" x="73" y="-319.5" font-family="Helvetica,sans-Serif" font-size="10.00"> </text>
<polyline fill="none" stroke="black" points="27,-312.5 119,-312.5 "/>
<text text-anchor="start" x="35" y="-300.5" font-family="Helvetica,sans-Serif" font-size="10.00">+ Colleague()</text>
<text text-anchor="start" x="35" y="-289.5" font-family="Helvetica,sans-Serif" font-size="10.00">+ ~Colleague()</text>
<text text-anchor="start" x="35" y="-278.5" font-family="Helvetica,sans-Serif" font-size="10.00">+ getID()</text>
<text text-anchor="start" x="35" y="-267.5" font-family="Helvetica,sans-Serif" font-size="10.00">+ receive()</text>
<text text-anchor="start" x="35" y="-256.5" font-family="Helvetica,sans-Serif" font-size="10.00">+ send()</text>
</a>
</g>
</g>
<!-- Node2&#45;&gt;Node1 -->
<g id="edge1" class="edge">
<title>Node2&#45;&gt;Node1</title>
<path fill="none" stroke="midnightblue" d="M73,-239.05C73,-230.33 73,-221.14 73,-211.84"/>
<polygon fill="none" stroke="midnightblue" points="69.5,-239.06 73,-249.06 76.5,-239.06 69.5,-239.06"/>
</g>
<!-- Node3 -->
<g id="node3" class="node">
<title>Node3</title>
<g id="a_node3"><a xlink:href="classFloorMediator.html" target="_top" xlink:title=" ">
<polygon fill="none" stroke="black" points="17,-398.5 17,-477.5 129,-477.5 129,-398.5 17,-398.5"/>
<text text-anchor="middle" x="73" y="-465.5" font-family="Helvetica,sans-Serif" font-size="10.00">FloorMediator</text>
<polyline fill="none" stroke="black" points="17,-458.5 129,-458.5 "/>
<text text-anchor="middle" x="73" y="-446.5" font-family="Helvetica,sans-Serif" font-size="10.00"> </text>
<polyline fill="none" stroke="black" points="17,-439.5 129,-439.5 "/>
<text text-anchor="start" x="25" y="-427.5" font-family="Helvetica,sans-Serif" font-size="10.00">+ ~FloorMediator()</text>
<text text-anchor="start" x="25" y="-416.5" font-family="Helvetica,sans-Serif" font-size="10.00">+ addColleague()</text>
<text text-anchor="start" x="25" y="-405.5" font-family="Helvetica,sans-Serif" font-size="10.00">+ distribute()</text>
</a>
</g>
</g>
<!-- Node3&#45;&gt;Node2 -->
<g id="edge2" class="edge">
<title>Node3&#45;&gt;Node2</title>
<path fill="none" stroke="#404040" d="M73,-398.39C73,-387.43 73,-375.22 73,-363.24"/>
<polygon fill="none" stroke="#404040" points="73,-362.91 69,-356.91 73,-350.91 77,-356.91 73,-362.91"/>
<text text-anchor="middle" x="101" y="-372" font-family="Helvetica,sans-Serif" font-size="10.00"> #mediator</text>
</g>
</g>
</svg>
