<?xml version="1.0" encoding="UTF-8" standalone="no"?>
<!DOCTYPE svg PUBLIC "-//W3C//DTD SVG 1.1//EN"
 "http://www.w3.org/Graphics/SVG/1.1/DTD/svg11.dtd">
<!-- Generated by graphviz version 2.43.0 (0)
 -->
<!-- Title: PlantInstance Pages: 1 -->
<svg width="294pt" height="548pt"
 viewBox="0.00 0.00 293.50 548.00" xmlns="http://www.w3.org/2000/svg" xmlns:xlink="http://www.w3.org/1999/xlink">
<g id="graph0" class="graph" transform="scale(1 1) rotate(0) translate(4 544)">
<title>PlantInstance</title>
<!-- Node1 -->
<g id="node1" class="node">
<title>Node1</title>
<g id="a_node1"><a xlink:title=" ">
<polygon fill="#bfbfbf" stroke="black" points="83.5,-0.5 83.5,-167.5 226.5,-167.5 226.5,-0.5 83.5,-0.5"/>
<text text-anchor="middle" x="155" y="-155.5" font-family="Helvetica,sans-Serif" font-size="10.00">PlantInstance</text>
<polyline fill="none" stroke="black" points="83.5,-148.5 226.5,-148.5 "/>
<text text-anchor="middle" x="155" y="-136.5" font-family="Helvetica,sans-Serif" font-size="10.00"> </text>
<polyline fill="none" stroke="black" points="83.5,-129.5 226.5,-129.5 "/>
<text text-anchor="start" x="91.5" y="-117.5" font-family="Helvetica,sans-Serif" font-size="10.00">+ PlantInstance()</text>
<text text-anchor="start" x="91.5" y="-106.5" font-family="Helvetica,sans-Serif" font-size="10.00">+ ~PlantInstance()</text>
<text text-anchor="start" x="91.5" y="-95.5" font-family="Helvetica,sans-Serif" font-size="10.00">+ applyFertilizeStrategy()</text>
<text text-anchor="start" x="91.5" y="-84.5" font-family="Helvetica,sans-Serif" font-size="10.00">+ applyGrowthTick()</text>
<text text-anchor="start" x="91.5" y="-73.5" font-family="Helvetica,sans-Serif" font-size="10.00">+ applyWaterStrategy()</text>
<text text-anchor="start" x="91.5" y="-62.5" font-family="Helvetica,sans-Serif" font-size="10.00">+ changeHealth()</text>
<text text-anchor="start" x="91.5" y="-51.5" font-family="Helvetica,sans-Serif" font-size="10.00">+ changeNutrientLevel()</text>
<text text-anchor="start" x="91.5" y="-40.5" font-family="Helvetica,sans-Serif" font-size="10.00">+ changeWaterLevel()</text>
<text text-anchor="start" x="91.5" y="-29.5" font-family="Helvetica,sans-Serif" font-size="10.00">+ getHealth()</text>
<text text-anchor="start" x="91.5" y="-18.5" font-family="Helvetica,sans-Serif" font-size="10.00">+ getNutrientLevel()</text>
<text text-anchor="start" x="91.5" y="-7.5" font-family="Helvetica,sans-Serif" font-size="10.00">and 17 more...</text>
</a>
</g>
</g>
<!-- Node2 -->
<g id="node2" class="node">
<title>Node2</title>
<g id="a_node2"><a xlink:href="classGreenhouseComponent.html" target="_top" xlink:title=" ">
<polygon fill="none" stroke="black" points="0,-205.5 0,-328.5 158,-328.5 158,-205.5 0,-205.5"/>
<text text-anchor="middle" x="79" y="-316.5" font-family="Helvetica,sans-Serif" font-size="10.00">GreenhouseComponent</text>
<polyline fill="none" stroke="black" points="0,-309.5 158,-309.5 "/>
<text text-anchor="middle" x="79" y="-297.5" font-family="Helvetica,sans-Serif" font-size="10.00"> </text>
<polyline fill="none" stroke="black" points="0,-290.5 158,-290.5 "/>
<text text-anchor="start" x="8" y="-278.5" font-family="Helvetica,sans-Serif" font-size="10.00">+ GreenhouseComponent()</text>
<text text-anchor="start" x="8" y="-267.5" font-family="Helvetica,sans-Serif" font-size="10.00">+ ~GreenhouseComponent()</text>
<text text-anchor="start" x="8" y="-256.5" font-family="Helvetica,sans-Serif" font-size="10.00">+ add()</text>
<text text-anchor="start" x="8" y="-245.5" font-family="Helvetica,sans-Serif" font-size="10.00">+ createIterator()</text>
<text text-anchor="start" x="8" y="-234.5" font-family="Helvetica,sans-Serif" font-size="10.00">+ getName()</text>
<text text-anchor="start" x="8" y="-223.5" font-family="Helvetica,sans-Serif" font-size="10.00">+ performCare()</text>
<text text-anchor="start" x="8" y="-212.5" font-family="Helvetica,sans-Serif" font-size="10.00">+ remove()</text>
</a>
</g>
</g>
<!-- Node2&#45;&gt;Node1 -->
<g id="edge1" class="edge">
<title>Node2&#45;&gt;Node1</title>
<path fill="none" stroke="midnightblue" d="M108.29,-196.25C112.21,-186.9 116.27,-177.23 120.28,-167.69"/>
<polygon fill="none" stroke="midnightblue" points="105.06,-194.9 104.41,-205.48 111.51,-197.61 105.06,-194.9"/>
</g>
<!-- Node3 -->
<g id="node3" class="node">
<title>Node3</title>
<g id="a_node3"><a xlink:title=" ">
<polygon fill="none" stroke="#bfbfbf" points="46.5,-376.5 46.5,-433.5 111.5,-433.5 111.5,-376.5 46.5,-376.5"/>
<text text-anchor="middle" x="79" y="-421.5" font-family="Helvetica,sans-Serif" font-size="10.00">std::string</text>
<polyline fill="none" stroke="#bfbfbf" points="46.5,-414.5 111.5,-414.5 "/>
<text text-anchor="middle" x="79" y="-402.5" font-family="Helvetica,sans-Serif" font-size="10.00"> </text>
<polyline fill="none" stroke="#bfbfbf" points="46.5,-395.5 111.5,-395.5 "/>
<text text-anchor="middle" x="79" y="-383.5" font-family="Helvetica,sans-Serif" font-size="10.00"> </text>
</a>
</g>
</g>
<!-- Node3&#45;&gt;Node2 -->
<g id="edge2" class="edge">
<title>Node3&#45;&gt;Node2</title>
<path fill="none" stroke="#404040" d="M79,-376.48C79,-366.01 79,-353.53 79,-340.82"/>
<polygon fill="none" stroke="#404040" points="79,-340.62 75,-334.62 79,-328.62 83,-334.62 79,-340.62"/>
<text text-anchor="middle" x="99" y="-350" font-family="Helvetica,sans-Serif" font-size="10.00"> #name</text>
</g>
<!-- Node4 -->
<g id="node4" class="node">
<title>Node4</title>
<g id="a_node4"><a xlink:title=" ">
<polygon fill="none" stroke="#bfbfbf" points="27,-471.5 27,-539.5 131,-539.5 131,-471.5 27,-471.5"/>
<text text-anchor="start" x="35" y="-527.5" font-family="Helvetica,sans-Serif" font-size="10.00">std::basic_string&lt;</text>
<text text-anchor="middle" x="79" y="-516.5" font-family="Helvetica,sans-Serif" font-size="10.00"> Char &gt;</text>
<polyline fill="none" stroke="#bfbfbf" points="27,-509.5 131,-509.5 "/>
<text text-anchor="middle" x="79" y="-497.5" font-family="Helvetica,sans-Serif" font-size="10.00"> </text>
<polyline fill="none" stroke="#bfbfbf" points="27,-490.5 131,-490.5 "/>
<text text-anchor="middle" x="79" y="-478.5" font-family="Helvetica,sans-Serif" font-size="10.00"> </text>
</a>
</g>
</g>
<!-- Node4&#45;&gt;Node3 -->
<g id="edge3" class="edge">
<title>Node4&#45;&gt;Node3</title>
<path fill="none" stroke="midnightblue" d="M79,-461.38C79,-451.94 79,-442.2 79,-433.57"/>
<polygon fill="none" stroke="midnightblue" points="75.5,-461.43 79,-471.43 82.5,-461.43 75.5,-461.43"/>
</g>
<!-- Node5 -->
<g id="node5" class="node">
<title>Node5</title>
<g id="a_node5"><a xlink:href="classSubject.html" target="_top" xlink:title=" ">
<polygon fill="none" stroke="black" points="176.5,-216.5 176.5,-317.5 285.5,-317.5 285.5,-216.5 176.5,-216.5"/>
<text text-anchor="middle" x="231" y="-305.5" font-family="Helvetica,sans-Serif" font-size="10.00">Subject</text>
<polyline fill="none" stroke="black" points="176.5,-298.5 285.5,-298.5 "/>
<text text-anchor="middle" x="231" y="-286.5" font-family="Helvetica,sans-Serif" font-size="10.00"> </text>
<polyline fill="none" stroke="black" points="176.5,-279.5 285.5,-279.5 "/>
<text text-anchor="start" x="184.5" y="-267.5" font-family="Helvetica,sans-Serif" font-size="10.00">+ ~Subject()</text>
<text text-anchor="start" x="184.5" y="-256.5" font-family="Helvetica,sans-Serif" font-size="10.00">+ attach()</text>
<text text-anchor="start" x="184.5" y="-245.5" font-family="Helvetica,sans-Serif" font-size="10.00">+ detach()</text>
<text text-anchor="start" x="184.5" y="-234.5" font-family="Helvetica,sans-Serif" font-size="10.00"># clearObservers()</text>
<text text-anchor="start" x="184.5" y="-223.5" font-family="Helvetica,sans-Serif" font-size="10.00"># notify()</text>
</a>
</g>
</g>
<!-- Node5&#45;&gt;Node1 -->
<g id="edge4" class="edge">
<title>Node5&#45;&gt;Node1</title>
<path fill="none" stroke="midnightblue" d="M206.11,-206.73C200.88,-194.28 195.28,-180.92 189.76,-167.79"/>
<polygon fill="none" stroke="midnightblue" points="202.93,-208.2 210.03,-216.06 209.39,-205.49 202.93,-208.2"/>
</g>
</g>
</svg>
