<?xml version="1.0" encoding="UTF-8" standalone="no"?>
<!DOCTYPE svg PUBLIC "-//W3C//DTD SVG 1.1//EN"
 "http://www.w3.org/Graphics/SVG/1.1/DTD/svg11.dtd">
<!-- Generated by graphviz version 2.43.0 (0)
 -->
<!-- Title: Staff Pages: 1 -->
<svg width="216pt" height="442pt"
 viewBox="0.00 0.00 216.00 442.00" xmlns="http://www.w3.org/2000/svg" xmlns:xlink="http://www.w3.org/1999/xlink">
<g id="graph0" class="graph" transform="scale(1 1) rotate(0) translate(4 438)">
<title>Staff</title>
<!-- Node1 -->
<g id="node1" class="node">
<title>Node1</title>
<g id="a_node1"><a xlink:title=" ">
<polygon fill="#bfbfbf" stroke="black" points="2.5,-0.5 2.5,-167.5 151.5,-167.5 151.5,-0.5 2.5,-0.5"/>
<text text-anchor="middle" x="77" y="-155.5" font-family="Helvetica,sans-Serif" font-size="10.00">Staff</text>
<polyline fill="none" stroke="black" points="2.5,-148.5 151.5,-148.5 "/>
<text text-anchor="middle" x="77" y="-136.5" font-family="Helvetica,sans-Serif" font-size="10.00"> </text>
<polyline fill="none" stroke="black" points="2.5,-129.5 151.5,-129.5 "/>
<text text-anchor="start" x="10.5" y="-117.5" font-family="Helvetica,sans-Serif" font-size="10.00">+ Staff()</text>
<text text-anchor="start" x="10.5" y="-106.5" font-family="Helvetica,sans-Serif" font-size="10.00">+ ~Staff()</text>
<text text-anchor="start" x="10.5" y="-95.5" font-family="Helvetica,sans-Serif" font-size="10.00">+ addCommandToQueue()</text>
<text text-anchor="start" x="10.5" y="-84.5" font-family="Helvetica,sans-Serif" font-size="10.00">+ assignToBed()</text>
<text text-anchor="start" x="10.5" y="-73.5" font-family="Helvetica,sans-Serif" font-size="10.00">+ checkOnPlants()</text>
<text text-anchor="start" x="10.5" y="-62.5" font-family="Helvetica,sans-Serif" font-size="10.00">+ getCareReminderCount()</text>
<text text-anchor="start" x="10.5" y="-51.5" font-family="Helvetica,sans-Serif" font-size="10.00">+ getCareReminders()</text>
<text text-anchor="start" x="10.5" y="-40.5" font-family="Helvetica,sans-Serif" font-size="10.00">+ getID()</text>
<text text-anchor="start" x="10.5" y="-29.5" font-family="Helvetica,sans-Serif" font-size="10.00">+ getTaskQueueSize()</text>
<text text-anchor="start" x="10.5" y="-18.5" font-family="Helvetica,sans-Serif" font-size="10.00">+ makeCareRequest()</text>
<text text-anchor="start" x="10.5" y="-7.5" font-family="Helvetica,sans-Serif" font-size="10.00">and 7 more...</text>
</a>
</g>
</g>
<!-- Node2 -->
<g id="node2" class="node">
<title>Node2</title>
<g id="a_node2"><a xlink:href="classObserver.html" target="_top" xlink:title="The &#39;Observer&#39; interface that reacts to Subject notifications.">
<polygon fill="none" stroke="black" points="0,-222 0,-290 88,-290 88,-222 0,-222"/>
<text text-anchor="middle" x="44" y="-278" font-family="Helvetica,sans-Serif" font-size="10.00">Observer</text>
<polyline fill="none" stroke="black" points="0,-271 88,-271 "/>
<text text-anchor="middle" x="44" y="-259" font-family="Helvetica,sans-Serif" font-size="10.00"> </text>
<polyline fill="none" stroke="black" points="0,-252 88,-252 "/>
<text text-anchor="start" x="8" y="-240" font-family="Helvetica,sans-Serif" font-size="10.00">+ ~Observer()</text>
<text text-anchor="start" x="8" y="-229" font-family="Helvetica,sans-Serif" font-size="10.00">+ update()</text>
</a>
</g>
</g>
<!-- Node2&#45;&gt;Node1 -->
<g id="edge1" class="edge">
<title>Node2&#45;&gt;Node1</title>
<path fill="none" stroke="midnightblue" d="M52.36,-211.91C54.98,-198.43 57.96,-183.07 60.93,-167.81"/>
<polygon fill="none" stroke="midnightblue" points="48.91,-211.33 50.44,-221.82 55.78,-212.67 48.91,-211.33"/>
</g>
<!-- Node3 -->
<g id="node3" class="node">
<title>Node3</title>
<g id="a_node3"><a xlink:href="classColleague.html" target="_top" xlink:title=" ">
<polygon fill="none" stroke="black" points="106,-205.5 106,-306.5 198,-306.5 198,-205.5 106,-205.5"/>
<text text-anchor="middle" x="152" y="-294.5" font-family="Helvetica,sans-Serif" font-size="10.00">Colleague</text>
<polyline fill="none" stroke="black" points="106,-287.5 198,-287.5 "/>
<text text-anchor="middle" x="152" y="-275.5" font-family="Helvetica,sans-Serif" font-size="10.00"> </text>
<polyline fill="none" stroke="black" points="106,-268.5 198,-268.5 "/>
<text text-anchor="start" x="114" y="-256.5" font-family="Helvetica,sans-Serif" font-size="10.00">+ Colleague()</text>
<text text-anchor="start" x="114" y="-245.5" font-family="Helvetica,sans-Serif" font-size="10.00">+ ~Colleague()</text>
<text text-anchor="start" x="114" y="-234.5" font-family="Helvetica,sans-Serif" font-size="10.00">+ getID()</text>
<text text-anchor="start" x="114" y="-223.5" font-family="Helvetica,sans-Serif" font-size="10.00">+ receive()</text>
<text text-anchor="start" x="114" y="-212.5" font-family="Helvetica,sans-Serif" font-size="10.00">+ send()</text>
</a>
</g>
</g>
<!-- Node3&#45;&gt;Node1 -->
<g id="edge2" class="edge">
<title>Node3&#45;&gt;Node1</title>
<path fill="none" stroke="midnightblue" d="M125.97,-196C121.92,-186.83 117.68,-177.21 113.46,-167.63"/>
<polygon fill="none" stroke="midnightblue" points="122.87,-197.64 130.11,-205.37 129.27,-194.81 122.87,-197.64"/>
</g>
<!-- Node4 -->
<g id="node4" class="node">
<title>Node4</title>
<g id="a_node4"><a xlink:href="classFloorMediator.html" target="_top" xlink:title=" ">
<polygon fill="none" stroke="black" points="96,-354.5 96,-433.5 208,-433.5 208,-354.5 96,-354.5"/>
<text text-anchor="middle" x="152" y="-421.5" font-family="Helvetica,sans-Serif" font-size="10.00">FloorMediator</text>
<polyline fill="none" stroke="black" points="96,-414.5 208,-414.5 "/>
<text text-anchor="middle" x="152" y="-402.5" font-family="Helvetica,sans-Serif" font-size="10.00"> </text>
<polyline fill="none" stroke="black" points="96,-395.5 208,-395.5 "/>
<text text-anchor="start" x="104" y="-383.5" font-family="Helvetica,sans-Serif" font-size="10.00">+ ~FloorMediator()</text>
<text text-anchor="start" x="104" y="-372.5" font-family="Helvetica,sans-Serif" font-size="10.00">+ addColleague()</text>
<text text-anchor="start" x="104" y="-361.5" font-family="Helvetica,sans-Serif" font-size="10.00">+ distribute()</text>
</a>
</g>
</g>
<!-- Node4&#45;&gt;Node3 -->
<g id="edge3" class="edge">
<title>Node4&#45;&gt;Node3</title>
<path fill="none" stroke="#404040" d="M152,-354.39C152,-343.43 152,-331.22 152,-319.24"/>
<polygon fill="none" stroke="#404040" points="152,-318.91 148,-312.91 152,-306.91 156,-312.91 152,-318.91"/>
<text text-anchor="middle" x="180" y="-328" font-family="Helvetica,sans-Serif" font-size="10.00"> #mediator</text>
</g>
</g>
</svg>
