<?xml version="1.0" encoding="UTF-8" standalone="no"?>
<!DOCTYPE svg PUBLIC "-//W3C//DTD SVG 1.1//EN"
 "http://www.w3.org/Graphics/SVG/1.1/DTD/svg11.dtd">
<!-- Generated by graphviz version 2.43.0 (0)
 -->
<!-- Title: GreenhouseComponent Pages: 1 -->
<svg width="166pt" height="343pt"
 viewBox="0.00 0.00 166.00 343.00" xmlns="http://www.w3.org/2000/svg" xmlns:xlink="http://www.w3.org/1999/xlink">
<g id="graph0" class="graph" transform="scale(1 1) rotate(0) translate(4 339)">
<title>GreenhouseComponent</title>
<!-- Node1 -->
<g id="node1" class="node">
<title>Node1</title>
<g id="a_node1"><a xlink:title=" ">
<polygon fill="#bfbfbf" stroke="black" points="0,-0.5 0,-123.5 158,-123.5 158,-0.5 0,-0.5"/>
<text text-anchor="middle" x="79" y="-111.5" font-family="Helvetica,sans-Serif" font-size="10.00">GreenhouseComponent</text>
<polyline fill="none" stroke="black" points="0,-104.5 158,-104.5 "/>
<text text-anchor="middle" x="79" y="-92.5" font-family="Helvetica,sans-Serif" font-size="10.00"> </text>
<polyline fill="none" stroke="black" points="0,-85.5 158,-85.5 "/>
<text text-anchor="start" x="8" y="-73.5" font-family="Helvetica,sans-Serif" font-size="10.00">+ GreenhouseComponent()</text>
<text text-anchor="start" x="8" y="-62.5" font-family="Helvetica,sans-Serif" font-size="10.00">+ ~GreenhouseComponent()</text>
<text text-anchor="start" x="8" y="-51.5" font-family="Helvetica,sans-Serif" font-size="10.00">+ add()</text>
<text text-anchor="start" x="8" y="-40.5" font-family="Helvetica,sans-Serif" font-size="10.00">+ createIterator()</text>
<text text-anchor="start" x="8" y="-29.5" font-family="Helvetica,sans-Serif" font-size="10.00">+ getName()</text>
<text text-anchor="start" x="8" y="-18.5" font-family="Helvetica,sans-Serif" font-size="10.00">+ performCare()</text>
<text text-anchor="start" x="8" y="-7.5" font-family="Helvetica,sans-Serif" font-size="10.00">+ remove()</text>
</a>
</g>
</g>
<!-- Node2 -->
<g id="node2" class="node">
<title>Node2</title>
<g id="a_node2"><a xlink:title=" ">
<polygon fill="none" stroke="#bfbfbf" points="46.5,-171.5 46.5,-228.5 111.5,-228.5 111.5,-171.5 46.5,-171.5"/>
<text text-anchor="middle" x="79" y="-216.5" font-family="Helvetica,sans-Serif" font-size="10.00">std::string</text>
<polyline fill="none" stroke="#bfbfbf" points="46.5,-209.5 111.5,-209.5 "/>
<text text-anchor="middle" x="79" y="-197.5" font-family="Helvetica,sans-Serif" font-size="10.00"> </text>
<polyline fill="none" stroke="#bfbfbf" points="46.5,-190.5 111.5,-190.5 "/>
<text text-anchor="middle" x="79" y="-178.5" font-family="Helvetica,sans-Serif" font-size="10.00"> </text>
</a>
</g>
</g>
<!-- Node2&#45;&gt;Node1 -->
<g id="edge1" class="edge">
<title>Node2&#45;&gt;Node1</title>
<path fill="none" stroke="#404040" d="M79,-171.48C79,-161.01 79,-148.53 79,-135.82"/>
<polygon fill="none" stroke="#404040" points="79,-135.62 75,-129.62 79,-123.62 83,-129.62 79,-135.62"/>
<text text-anchor="middle" x="99" y="-145" font-family="Helvetica,sans-Serif" font-size="10.00"> #name</text>
</g>
<!-- Node3 -->
<g id="node3" class="node">
<title>Node3</title>
<g id="a_node3"><a xlink:title=" ">
<polygon fill="none" stroke="#bfbfbf" points="27,-266.5 27,-334.5 131,-334.5 131,-266.5 27,-266.5"/>
<text text-anchor="start" x="35" y="-322.5" font-family="Helvetica,sans-Serif" font-size="10.00">std::basic_string&lt;</text>
<text text-anchor="middle" x="79" y="-311.5" font-family="Helvetica,sans-Serif" font-size="10.00"> Char &gt;</text>
<polyline fill="none" stroke="#bfbfbf" points="27,-304.5 131,-304.5 "/>
<text text-anchor="middle" x="79" y="-292.5" font-family="Helvetica,sans-Serif" font-size="10.00"> </text>
<polyline fill="none" stroke="#bfbfbf" points="27,-285.5 131,-285.5 "/>
<text text-anchor="middle" x="79" y="-273.5" font-family="Helvetica,sans-Serif" font-size="10.00"> </text>
</a>
</g>
</g>
<!-- Node3&#45;&gt;Node2 -->
<g id="edge2" class="edge">
<title>Node3&#45;&gt;Node2</title>
<path fill="none" stroke="midnightblue" d="M79,-256.38C79,-246.94 79,-237.2 79,-228.57"/>
<polygon fill="none" stroke="midnightblue" points="75.5,-256.43 79,-266.43 82.5,-256.43 75.5,-256.43"/>
</g>
</g>
</svg>
