<?xml version="1.0" encoding="UTF-8" standalone="no"?>
<!DOCTYPE svg PUBLIC "-//W3C//DTD SVG 1.1//EN"
 "http://www.w3.org/Graphics/SVG/1.1/DTD/svg11.dtd">
<!-- Generated by graphviz version 2.43.0 (0)
 -->
<!-- Title: PlantState Pages: 1 -->
<svg width="536pt" height="259pt"
 viewBox="0.00 0.00 535.50 259.00" xmlns="http://www.w3.org/2000/svg" xmlns:xlink="http://www.w3.org/1999/xlink">
<g id="graph0" class="graph" transform="scale(1 1) rotate(0) translate(4 255)">
<title>PlantState</title>
<!-- Node1 -->
<g id="node1" class="node">
<title>Node1</title>
<g id="a_node1"><a xlink:title=" ">
<polygon fill="#bfbfbf" stroke="black" points="208,-138.5 208,-250.5 316,-250.5 316,-138.5 208,-138.5"/>
<text text-anchor="middle" x="262" y="-238.5" font-family="Helvetica,sans-Serif" font-size="10.00">PlantState</text>
<polyline fill="none" stroke="black" points="208,-231.5 316,-231.5 "/>
<text text-anchor="middle" x="262" y="-219.5" font-family="Helvetica,sans-Serif" font-size="10.00"> </text>
<polyline fill="none" stroke="black" points="208,-212.5 316,-212.5 "/>
<text text-anchor="start" x="216" y="-200.5" font-family="Helvetica,sans-Serif" font-size="10.00">+ ~PlantState()</text>
<text text-anchor="start" x="216" y="-189.5" font-family="Helvetica,sans-Serif" font-size="10.00">+ getName()</text>
<text text-anchor="start" x="216" y="-178.5" font-family="Helvetica,sans-Serif" font-size="10.00">+ isMarketReady()</text>
<text text-anchor="start" x="216" y="-167.5" font-family="Helvetica,sans-Serif" font-size="10.00">+ onFertilize()</text>
<text text-anchor="start" x="216" y="-156.5" font-family="Helvetica,sans-Serif" font-size="10.00">+ onTick()</text>
<text text-anchor="start" x="216" y="-145.5" font-family="Helvetica,sans-Serif" font-size="10.00">+ onWater()</text>
</a>
</g>
</g>
<!-- Node2 -->
<g id="node2" class="node">
<title>Node2</title>
<g id="a_node2"><a xlink:href="classDeadState.html" target="_top" xlink:title=" ">
<polygon fill="none" stroke="black" points="0,-6 0,-96 86,-96 86,-6 0,-6"/>
<text text-anchor="middle" x="43" y="-84" font-family="Helvetica,sans-Serif" font-size="10.00">DeadState</text>
<polyline fill="none" stroke="black" points="0,-77 86,-77 "/>
<text text-anchor="middle" x="43" y="-65" font-family="Helvetica,sans-Serif" font-size="10.00"> </text>
<polyline fill="none" stroke="black" points="0,-58 86,-58 "/>
<text text-anchor="start" x="8" y="-46" font-family="Helvetica,sans-Serif" font-size="10.00">+ getName()</text>
<text text-anchor="start" x="8" y="-35" font-family="Helvetica,sans-Serif" font-size="10.00">+ onFertilize()</text>
<text text-anchor="start" x="8" y="-24" font-family="Helvetica,sans-Serif" font-size="10.00">+ onTick()</text>
<text text-anchor="start" x="8" y="-13" font-family="Helvetica,sans-Serif" font-size="10.00">+ onWater()</text>
</a>
</g>
</g>
<!-- Node1&#45;&gt;Node2 -->
<g id="edge1" class="edge">
<title>Node1&#45;&gt;Node2</title>
<path fill="none" stroke="midnightblue" d="M198.59,-163.78C166.34,-147.44 127.25,-125.69 95,-102 92.07,-99.85 89.14,-97.55 86.24,-95.15"/>
<polygon fill="none" stroke="midnightblue" points="197.42,-167.11 207.93,-168.46 200.56,-160.85 197.42,-167.11"/>
</g>
<!-- Node3 -->
<g id="node3" class="node">
<title>Node3</title>
<g id="a_node3"><a xlink:href="classGrowingState.html" target="_top" xlink:title=" ">
<polygon fill="none" stroke="black" points="104,-6 104,-96 190,-96 190,-6 104,-6"/>
<text text-anchor="middle" x="147" y="-84" font-family="Helvetica,sans-Serif" font-size="10.00">GrowingState</text>
<polyline fill="none" stroke="black" points="104,-77 190,-77 "/>
<text text-anchor="middle" x="147" y="-65" font-family="Helvetica,sans-Serif" font-size="10.00"> </text>
<polyline fill="none" stroke="black" points="104,-58 190,-58 "/>
<text text-anchor="start" x="112" y="-46" font-family="Helvetica,sans-Serif" font-size="10.00">+ getName()</text>
<text text-anchor="start" x="112" y="-35" font-family="Helvetica,sans-Serif" font-size="10.00">+ onFertilize()</text>
<text text-anchor="start" x="112" y="-24" font-family="Helvetica,sans-Serif" font-size="10.00">+ onTick()</text>
<text text-anchor="start" x="112" y="-13" font-family="Helvetica,sans-Serif" font-size="10.00">+ onWater()</text>
</a>
</g>
</g>
<!-- Node1&#45;&gt;Node3 -->
<g id="edge2" class="edge">
<title>Node1&#45;&gt;Node3</title>
<path fill="none" stroke="midnightblue" d="M210.76,-130.46C201.38,-118.91 191.77,-107.09 182.96,-96.24"/>
<polygon fill="none" stroke="midnightblue" points="208.19,-132.83 217.21,-138.39 213.62,-128.42 208.19,-132.83"/>
</g>
<!-- Node4 -->
<g id="node4" class="node">
<title>Node4</title>
<g id="a_node4"><a xlink:href="classMatureState.html" target="_top" xlink:title=" ">
<polygon fill="none" stroke="black" points="208,-0.5 208,-101.5 316,-101.5 316,-0.5 208,-0.5"/>
<text text-anchor="middle" x="262" y="-89.5" font-family="Helvetica,sans-Serif" font-size="10.00">MatureState</text>
<polyline fill="none" stroke="black" points="208,-82.5 316,-82.5 "/>
<text text-anchor="middle" x="262" y="-70.5" font-family="Helvetica,sans-Serif" font-size="10.00"> </text>
<polyline fill="none" stroke="black" points="208,-63.5 316,-63.5 "/>
<text text-anchor="start" x="216" y="-51.5" font-family="Helvetica,sans-Serif" font-size="10.00">+ getName()</text>
<text text-anchor="start" x="216" y="-40.5" font-family="Helvetica,sans-Serif" font-size="10.00">+ isMarketReady()</text>
<text text-anchor="start" x="216" y="-29.5" font-family="Helvetica,sans-Serif" font-size="10.00">+ onFertilize()</text>
<text text-anchor="start" x="216" y="-18.5" font-family="Helvetica,sans-Serif" font-size="10.00">+ onTick()</text>
<text text-anchor="start" x="216" y="-7.5" font-family="Helvetica,sans-Serif" font-size="10.00">+ onWater()</text>
</a>
</g>
</g>
<!-- Node1&#45;&gt;Node4 -->
<g id="edge3" class="edge">
<title>Node1&#45;&gt;Node4</title>
<path fill="none" stroke="midnightblue" d="M262,-128.34C262,-119.38 262,-110.29 262,-101.66"/>
<polygon fill="none" stroke="midnightblue" points="258.5,-128.39 262,-138.39 265.5,-128.39 258.5,-128.39"/>
</g>
<!-- Node5 -->
<g id="node5" class="node">
<title>Node5</title>
<g id="a_node5"><a xlink:href="classSeedState.html" target="_top" xlink:title=" ">
<polygon fill="none" stroke="black" points="334,-6 334,-96 420,-96 420,-6 334,-6"/>
<text text-anchor="middle" x="377" y="-84" font-family="Helvetica,sans-Serif" font-size="10.00">SeedState</text>
<polyline fill="none" stroke="black" points="334,-77 420,-77 "/>
<text text-anchor="middle" x="377" y="-65" font-family="Helvetica,sans-Serif" font-size="10.00"> </text>
<polyline fill="none" stroke="black" points="334,-58 420,-58 "/>
<text text-anchor="start" x="342" y="-46" font-family="Helvetica,sans-Serif" font-size="10.00">+ getName()</text>
<text text-anchor="start" x="342" y="-35" font-family="Helvetica,sans-Serif" font-size="10.00">+ onFertilize()</text>
<text text-anchor="start" x="342" y="-24" font-family="Helvetica,sans-Serif" font-size="10.00">+ onTick()</text>
<text text-anchor="start" x="342" y="-13" font-family="Helvetica,sans-Serif" font-size="10.00">+ onWater()</text>
</a>
</g>
</g>
<!-- Node1&#45;&gt;Node5 -->
<g id="edge4" class="edge">
<title>Node1&#45;&gt;Node5</title>
<path fill="none" stroke="midnightblue" d="M313.24,-130.46C322.62,-118.91 332.23,-107.09 341.04,-96.24"/>
<polygon fill="none" stroke="midnightblue" points="310.38,-128.42 306.79,-138.39 315.81,-132.83 310.38,-128.42"/>
</g>
<!-- Node6 -->
<g id="node6" class="node">
<title>Node6</title>
<g id="a_node6"><a xlink:href="classWitheringState.html" target="_top" xlink:title=" ">
<polygon fill="none" stroke="black" points="438.5,-6 438.5,-96 527.5,-96 527.5,-6 438.5,-6"/>
<text text-anchor="middle" x="483" y="-84" font-family="Helvetica,sans-Serif" font-size="10.00">WitheringState</text>
<polyline fill="none" stroke="black" points="438.5,-77 527.5,-77 "/>
<text text-anchor="middle" x="483" y="-65" font-family="Helvetica,sans-Serif" font-size="10.00"> </text>
<polyline fill="none" stroke="black" points="438.5,-58 527.5,-58 "/>
<text text-anchor="start" x="446.5" y="-46" font-family="Helvetica,sans-Serif" font-size="10.00">+ getName()</text>
<text text-anchor="start" x="446.5" y="-35" font-family="Helvetica,sans-Serif" font-size="10.00">+ onFertilize()</text>
<text text-anchor="start" x="446.5" y="-24" font-family="Helvetica,sans-Serif" font-size="10.00">+ onTick()</text>
<text text-anchor="start" x="446.5" y="-13" font-family="Helvetica,sans-Serif" font-size="10.00">+ onWater()</text>
</a>
</g>
</g>
<!-- Node1&#45;&gt;Node6 -->
<g id="edge5" class="edge">
<title>Node1&#45;&gt;Node6</title>
<path fill="none" stroke="midnightblue" d="M325.58,-163.34C357.72,-146.95 396.65,-125.3 429,-102 432.11,-99.76 435.23,-97.36 438.32,-94.86"/>
<polygon fill="none" stroke="midnightblue" points="323.63,-160.4 316.28,-168.03 326.78,-166.65 323.63,-160.4"/>
</g>
</g>
</svg>
