<?xml version="1.0" encoding="UTF-8" standalone="no"?>
<!DOCTYPE svg PUBLIC "-//W3C//DTD SVG 1.1//EN"
 "http://www.w3.org/Graphics/SVG/1.1/DTD/svg11.dtd">
<!-- Generated by graphviz version 2.43.0 (0)
 -->
<!-- Title: NurseryMediator Pages: 1 -->
<svg width="125pt" height="204pt"
 viewBox="0.00 0.00 125.00 204.00" xmlns="http://www.w3.org/2000/svg" xmlns:xlink="http://www.w3.org/1999/xlink">
<g id="graph0" class="graph" transform="scale(1 1) rotate(0) translate(4 200)">
<title>NurseryMediator</title>
<!-- Node1 -->
<g id="node1" class="node">
<title>Node1</title>
<g id="a_node1"><a xlink:title=" ">
<polygon fill="#bfbfbf" stroke="black" points="0,-0.5 0,-79.5 117,-79.5 117,-0.5 0,-0.5"/>
<text text-anchor="middle" x="58.5" y="-67.5" font-family="Helvetica,sans-Serif" font-size="10.00">NurseryMediator</text>
<polyline fill="none" stroke="black" points="0,-60.5 117,-60.5 "/>
<text text-anchor="middle" x="58.5" y="-48.5" font-family="Helvetica,sans-Serif" font-size="10.00"> </text>
<polyline fill="none" stroke="black" points="0,-41.5 117,-41.5 "/>
<text text-anchor="start" x="8" y="-29.5" font-family="Helvetica,sans-Serif" font-size="10.00">+ NurseryMediator()</text>
<text text-anchor="start" x="8" y="-18.5" font-family="Helvetica,sans-Serif" font-size="10.00">+ addColleague()</text>
<text text-anchor="start" x="8" y="-7.5" font-family="Helvetica,sans-Serif" font-size="10.00">+ distribute()</text>
</a>
</g>
</g>
<!-- Node2 -->
<g id="node2" class="node">
<title>Node2</title>
<g id="a_node2"><a xlink:href="classFloorMediator.html" target="_top" xlink:title=" ">
<polygon fill="none" stroke="black" points="2.5,-116.5 2.5,-195.5 114.5,-195.5 114.5,-116.5 2.5,-116.5"/>
<text text-anchor="middle" x="58.5" y="-183.5" font-family="Helvetica,sans-Serif" font-size="10.00">FloorMediator</text>
<polyline fill="none" stroke="black" points="2.5,-176.5 114.5,-176.5 "/>
<text text-anchor="middle" x="58.5" y="-164.5" font-family="Helvetica,sans-Serif" font-size="10.00"> </text>
<polyline fill="none" stroke="black" points="2.5,-157.5 114.5,-157.5 "/>
<text text-anchor="start" x="10.5" y="-145.5" font-family="Helvetica,sans-Serif" font-size="10.00">+ ~FloorMediator()</text>
<text text-anchor="start" x="10.5" y="-134.5" font-family="Helvetica,sans-Serif" font-size="10.00">+ addColleague()</text>
<text text-anchor="start" x="10.5" y="-123.5" font-family="Helvetica,sans-Serif" font-size="10.00">+ distribute()</text>
</a>
</g>
</g>
<!-- Node2&#45;&gt;Node1 -->
<g id="edge1" class="edge">
<title>Node2&#45;&gt;Node1</title>
<path fill="none" stroke="midnightblue" d="M58.5,-106.15C58.5,-97.26 58.5,-88.1 58.5,-79.56"/>
<polygon fill="none" stroke="midnightblue" points="55,-106.4 58.5,-116.4 62,-106.4 55,-106.4"/>
</g>
</g>
</svg>
