<?xml version="1.0" encoding="UTF-8" standalone="no"?>
<!DOCTYPE svg PUBLIC "-//W3C//DTD SVG 1.1//EN"
 "http://www.w3.org/Graphics/SVG/1.1/DTD/svg11.dtd">
<!-- Generated by graphviz version 2.43.0 (0)
 -->
<!-- Title: FileAdapter Pages: 1 -->
<svg width="236pt" height="215pt"
 viewBox="0.00 0.00 236.00 215.00" xmlns="http://www.w3.org/2000/svg" xmlns:xlink="http://www.w3.org/1999/xlink">
<g id="graph0" class="graph" transform="scale(1 1) rotate(0) translate(4 211)">
<title>FileAdapter</title>
<!-- Node1 -->
<g id="node1" class="node">
<title>Node1</title>
<g id="a_node1"><a xlink:title=" ">
<polygon fill="#bfbfbf" stroke="black" points="61,-127.5 61,-206.5 166,-206.5 166,-127.5 61,-127.5"/>
<text text-anchor="middle" x="113.5" y="-194.5" font-family="Helvetica,sans-Serif" font-size="10.00">FileAdapter</text>
<polyline fill="none" stroke="black" points="61,-187.5 166,-187.5 "/>
<text text-anchor="middle" x="113.5" y="-175.5" font-family="Helvetica,sans-Serif" font-size="10.00"> </text>
<polyline fill="none" stroke="black" points="61,-168.5 166,-168.5 "/>
<text text-anchor="start" x="69" y="-156.5" font-family="Helvetica,sans-Serif" font-size="10.00">+ ~FileAdapter()</text>
<text text-anchor="start" x="69" y="-145.5" font-family="Helvetica,sans-Serif" font-size="10.00">+ loadInventory()</text>
<text text-anchor="start" x="69" y="-134.5" font-family="Helvetica,sans-Serif" font-size="10.00">+ saveInventory()</text>
</a>
</g>
</g>
<!-- Node2 -->
<g id="node2" class="node">
<title>Node2</title>
<g id="a_node2"><a xlink:href="classCSVAdapter.html" target="_top" xlink:title=" ">
<polygon fill="none" stroke="black" points="0,-0.5 0,-90.5 105,-90.5 105,-0.5 0,-0.5"/>
<text text-anchor="middle" x="52.5" y="-78.5" font-family="Helvetica,sans-Serif" font-size="10.00">CSVAdapter</text>
<polyline fill="none" stroke="black" points="0,-71.5 105,-71.5 "/>
<text text-anchor="middle" x="52.5" y="-59.5" font-family="Helvetica,sans-Serif" font-size="10.00"> </text>
<polyline fill="none" stroke="black" points="0,-52.5 105,-52.5 "/>
<text text-anchor="start" x="8" y="-40.5" font-family="Helvetica,sans-Serif" font-size="10.00">+ CSVAdapter()</text>
<text text-anchor="start" x="8" y="-29.5" font-family="Helvetica,sans-Serif" font-size="10.00">+ ~CSVAdapter()</text>
<text text-anchor="start" x="8" y="-18.5" font-family="Helvetica,sans-Serif" font-size="10.00">+ loadInventory()</text>
<text text-anchor="start" x="8" y="-7.5" font-family="Helvetica,sans-Serif" font-size="10.00">+ saveInventory()</text>
</a>
</g>
</g>
<!-- Node1&#45;&gt;Node2 -->
<g id="edge1" class="edge">
<title>Node1&#45;&gt;Node2</title>
<path fill="none" stroke="midnightblue" d="M89.02,-118.04C84.44,-109.08 79.68,-99.76 75.17,-90.91"/>
<polygon fill="none" stroke="midnightblue" points="86.03,-119.89 93.7,-127.2 92.27,-116.7 86.03,-119.89"/>
</g>
<!-- Node3 -->
<g id="node3" class="node">
<title>Node3</title>
<g id="a_node3"><a xlink:href="classTXTAdapter.html" target="_top" xlink:title=" ">
<polygon fill="none" stroke="black" points="123,-0.5 123,-90.5 228,-90.5 228,-0.5 123,-0.5"/>
<text text-anchor="middle" x="175.5" y="-78.5" font-family="Helvetica,sans-Serif" font-size="10.00">TXTAdapter</text>
<polyline fill="none" stroke="black" points="123,-71.5 228,-71.5 "/>
<text text-anchor="middle" x="175.5" y="-59.5" font-family="Helvetica,sans-Serif" font-size="10.00"> </text>
<polyline fill="none" stroke="black" points="123,-52.5 228,-52.5 "/>
<text text-anchor="start" x="131" y="-40.5" font-family="Helvetica,sans-Serif" font-size="10.00">+ TXTAdapter()</text>
<text text-anchor="start" x="131" y="-29.5" font-family="Helvetica,sans-Serif" font-size="10.00">+ ~TXTAdapter()</text>
<text text-anchor="start" x="131" y="-18.5" font-family="Helvetica,sans-Serif" font-size="10.00">+ loadInventory()</text>
<text text-anchor="start" x="131" y="-7.5" font-family="Helvetica,sans-Serif" font-size="10.00">+ saveInventory()</text>
</a>
</g>
</g>
<!-- Node1&#45;&gt;Node3 -->
<g id="edge2" class="edge">
<title>Node1&#45;&gt;Node3</title>
<path fill="none" stroke="midnightblue" d="M138.24,-118.32C142.93,-109.28 147.82,-99.85 152.46,-90.91"/>
<polygon fill="none" stroke="midnightblue" points="135.13,-116.71 133.63,-127.2 141.34,-119.94 135.13,-116.71"/>
</g>
</g>
</svg>
