<?xml version="1.0" encoding="UTF-8" standalone="no"?>
<!DOCTYPE svg PUBLIC "-//W3C//DTD SVG 1.1//EN"
 "http://www.w3.org/Graphics/SVG/1.1/DTD/svg11.dtd">
<!-- Generated by graphviz version 2.43.0 (0)
 -->
<!-- Title: PlantCommand Pages: 1 -->
<svg width="242pt" height="193pt"
 viewBox="0.00 0.00 242.00 193.00" xmlns="http://www.w3.org/2000/svg" xmlns:xlink="http://www.w3.org/1999/xlink">
<g id="graph0" class="graph" transform="scale(1 1) rotate(0) translate(4 189)">
<title>PlantCommand</title>
<!-- Node1 -->
<g id="node1" class="node">
<title>Node1</title>
<g id="a_node1"><a xlink:title=" ">
<polygon fill="#bfbfbf" stroke="black" points="57.5,-105.5 57.5,-184.5 176.5,-184.5 176.5,-105.5 57.5,-105.5"/>
<text text-anchor="middle" x="117" y="-172.5" font-family="Helvetica,sans-Serif" font-size="10.00">PlantCommand</text>
<polyline fill="none" stroke="black" points="57.5,-165.5 176.5,-165.5 "/>
<text text-anchor="start" x="65.5" y="-153.5" font-family="Helvetica,sans-Serif" font-size="10.00"># plant</text>
<polyline fill="none" stroke="black" points="57.5,-146.5 176.5,-146.5 "/>
<text text-anchor="start" x="65.5" y="-134.5" font-family="Helvetica,sans-Serif" font-size="10.00">+ PlantCommand()</text>
<text text-anchor="start" x="65.5" y="-123.5" font-family="Helvetica,sans-Serif" font-size="10.00">+ ~PlantCommand()</text>
<text text-anchor="start" x="65.5" y="-112.5" font-family="Helvetica,sans-Serif" font-size="10.00">+ handleRequest()</text>
</a>
</g>
</g>
<!-- Node2 -->
<g id="node2" class="node">
<title>Node2</title>
<g id="a_node2"><a xlink:href="classFertilizePlant.html" target="_top" xlink:title=" ">
<polygon fill="none" stroke="black" points="0,-0.5 0,-68.5 108,-68.5 108,-0.5 0,-0.5"/>
<text text-anchor="middle" x="54" y="-56.5" font-family="Helvetica,sans-Serif" font-size="10.00">FertilizePlant</text>
<polyline fill="none" stroke="black" points="0,-49.5 108,-49.5 "/>
<text text-anchor="middle" x="54" y="-37.5" font-family="Helvetica,sans-Serif" font-size="10.00"> </text>
<polyline fill="none" stroke="black" points="0,-30.5 108,-30.5 "/>
<text text-anchor="start" x="8" y="-18.5" font-family="Helvetica,sans-Serif" font-size="10.00">+ FertilizePlant()</text>
<text text-anchor="start" x="8" y="-7.5" font-family="Helvetica,sans-Serif" font-size="10.00">+ handleRequest()</text>
</a>
</g>
</g>
<!-- Node1&#45;&gt;Node2 -->
<g id="edge1" class="edge">
<title>Node1&#45;&gt;Node2</title>
<path fill="none" stroke="midnightblue" d="M89.43,-96.52C83.95,-87.08 78.31,-77.37 73.19,-68.54"/>
<polygon fill="none" stroke="midnightblue" points="86.56,-98.55 94.61,-105.44 92.62,-95.04 86.56,-98.55"/>
</g>
<!-- Node3 -->
<g id="node3" class="node">
<title>Node3</title>
<g id="a_node3"><a xlink:href="classWaterPlant.html" target="_top" xlink:title=" ">
<polygon fill="none" stroke="black" points="126,-0.5 126,-68.5 234,-68.5 234,-0.5 126,-0.5"/>
<text text-anchor="middle" x="180" y="-56.5" font-family="Helvetica,sans-Serif" font-size="10.00">WaterPlant</text>
<polyline fill="none" stroke="black" points="126,-49.5 234,-49.5 "/>
<text text-anchor="middle" x="180" y="-37.5" font-family="Helvetica,sans-Serif" font-size="10.00"> </text>
<polyline fill="none" stroke="black" points="126,-30.5 234,-30.5 "/>
<text text-anchor="start" x="134" y="-18.5" font-family="Helvetica,sans-Serif" font-size="10.00">+ WaterPlant()</text>
<text text-anchor="start" x="134" y="-7.5" font-family="Helvetica,sans-Serif" font-size="10.00">+ handleRequest()</text>
</a>
</g>
</g>
<!-- Node1&#45;&gt;Node3 -->
<g id="edge2" class="edge">
<title>Node1&#45;&gt;Node3</title>
<path fill="none" stroke="midnightblue" d="M144.57,-96.52C150.05,-87.08 155.69,-77.37 160.81,-68.54"/>
<polygon fill="none" stroke="midnightblue" points="141.38,-95.04 139.39,-105.44 147.44,-98.55 141.38,-95.04"/>
</g>
</g>
</svg>
