<?xml version="1.0" encoding="UTF-8" standalone="no"?>
<!DOCTYPE svg PUBLIC "-//W3C//DTD SVG 1.1//EN"
 "http://www.w3.org/Graphics/SVG/1.1/DTD/svg11.dtd">
<!-- Generated by graphviz version 2.43.0 (0)
 -->
<!-- Title: Colleague.h Pages: 1 -->
<svg width="509pt" height="140pt"
 viewBox="0.00 0.00 508.50 140.00" xmlns="http://www.w3.org/2000/svg" xmlns:xlink="http://www.w3.org/1999/xlink">
<g id="graph0" class="graph" transform="scale(1 1) rotate(0) translate(4 136)">
<title>Colleague.h</title>
<!-- Node1 -->
<g id="node1" class="node">
<title>Node1</title>
<g id="a_node1"><a xlink:title="The &#39;Colleague&#39; interface.">
<polygon fill="#bfbfbf" stroke="black" points="241.5,-112.5 241.5,-131.5 315.5,-131.5 315.5,-112.5 241.5,-112.5"/>
<text text-anchor="middle" x="278.5" y="-119.5" font-family="Helvetica,sans-Serif" font-size="10.00">Colleague.h</text>
</a>
</g>
</g>
<!-- Node2 -->
<g id="node2" class="node">
<title>Node2</title>
<g id="a_node2"><a xlink:href="Customer_8h.html" target="_top" xlink:title="The &#39;ConcreteColleague&#39; for Customers.">
<polygon fill="none" stroke="black" points="113.5,-56.5 113.5,-75.5 185.5,-75.5 185.5,-56.5 113.5,-56.5"/>
<text text-anchor="middle" x="149.5" y="-63.5" font-family="Helvetica,sans-Serif" font-size="10.00">Customer.h</text>
</a>
</g>
</g>
<!-- Node1&#45;&gt;Node2 -->
<g id="edge1" class="edge">
<title>Node1&#45;&gt;Node2</title>
<path fill="none" stroke="midnightblue" d="M248.65,-108.5C224.46,-98.38 191.04,-84.39 169.84,-75.52"/>
<polygon fill="midnightblue" stroke="midnightblue" points="247.48,-111.81 258.06,-112.44 250.19,-105.35 247.48,-111.81"/>
</g>
<!-- Node5 -->
<g id="node5" class="node">
<title>Node5</title>
<g id="a_node5"><a xlink:href="Staff_8h.html" target="_top" xlink:title="Represents a staff member.">
<polygon fill="none" stroke="black" points="212.5,-56.5 212.5,-75.5 260.5,-75.5 260.5,-56.5 212.5,-56.5"/>
<text text-anchor="middle" x="236.5" y="-63.5" font-family="Helvetica,sans-Serif" font-size="10.00">Staff.h</text>
</a>
</g>
</g>
<!-- Node1&#45;&gt;Node5 -->
<g id="edge4" class="edge">
<title>Node1&#45;&gt;Node5</title>
<path fill="none" stroke="midnightblue" d="M265.39,-104.14C258.07,-94.74 249.26,-83.4 243.31,-75.75"/>
<polygon fill="midnightblue" stroke="midnightblue" points="262.66,-106.34 271.56,-112.08 268.19,-102.04 262.66,-106.34"/>
</g>
<!-- Node7 -->
<g id="node7" class="node">
<title>Node7</title>
<g id="a_node7"><a xlink:href="Colleague_8cpp.html" target="_top" xlink:title="Implements the Colleague behaviour defined in the corresponding header.">
<polygon fill="none" stroke="black" points="278.5,-56.5 278.5,-75.5 364.5,-75.5 364.5,-56.5 278.5,-56.5"/>
<text text-anchor="middle" x="321.5" y="-63.5" font-family="Helvetica,sans-Serif" font-size="10.00">Colleague.cpp</text>
</a>
</g>
</g>
<!-- Node1&#45;&gt;Node7 -->
<g id="edge6" class="edge">
<title>Node1&#45;&gt;Node7</title>
<path fill="none" stroke="midnightblue" d="M291.92,-104.14C299.41,-94.74 308.44,-83.4 314.53,-75.75"/>
<polygon fill="midnightblue" stroke="midnightblue" points="289.09,-102.08 285.6,-112.08 294.57,-106.44 289.09,-102.08"/>
</g>
<!-- Node8 -->
<g id="node8" class="node">
<title>Node8</title>
<g id="a_node8"><a xlink:href="NurseryMediator_8cpp.html" target="_top" xlink:title="Implements the NurseryMediator behaviour defined in the corresponding header.">
<polygon fill="none" stroke="black" points="382.5,-56.5 382.5,-75.5 500.5,-75.5 500.5,-56.5 382.5,-56.5"/>
<text text-anchor="middle" x="441.5" y="-63.5" font-family="Helvetica,sans-Serif" font-size="10.00">NurseryMediator.cpp</text>
</a>
</g>
</g>
<!-- Node1&#45;&gt;Node8 -->
<g id="edge7" class="edge">
<title>Node1&#45;&gt;Node8</title>
<path fill="none" stroke="midnightblue" d="M314.2,-109.17C344.9,-99 388.42,-84.59 415.79,-75.52"/>
<polygon fill="midnightblue" stroke="midnightblue" points="312.72,-105.98 304.33,-112.44 314.92,-112.62 312.72,-105.98"/>
</g>
<!-- Node3 -->
<g id="node3" class="node">
<title>Node3</title>
<g id="a_node3"><a xlink:href="Customer_8cpp.html" target="_top" xlink:title="Implements the Customer behaviour defined in the corresponding header.">
<polygon fill="none" stroke="black" points="0,-0.5 0,-19.5 83,-19.5 83,-0.5 0,-0.5"/>
<text text-anchor="middle" x="41.5" y="-7.5" font-family="Helvetica,sans-Serif" font-size="10.00">Customer.cpp</text>
</a>
</g>
</g>
<!-- Node2&#45;&gt;Node3 -->
<g id="edge2" class="edge">
<title>Node2&#45;&gt;Node3</title>
<path fill="none" stroke="midnightblue" d="M122.95,-51.73C102.95,-41.73 76.11,-28.31 58.81,-19.65"/>
<polygon fill="midnightblue" stroke="midnightblue" points="121.64,-54.98 132.15,-56.32 124.77,-48.72 121.64,-54.98"/>
</g>
<!-- Node4 -->
<g id="node4" class="node">
<title>Node4</title>
<g id="a_node4"><a xlink:href="SalesFacade_8cpp.html" target="_top" xlink:title="Implements the SalesFacade behaviour defined in the corresponding header.">
<polygon fill="none" stroke="black" points="101,-0.5 101,-19.5 198,-19.5 198,-0.5 101,-0.5"/>
<text text-anchor="middle" x="149.5" y="-7.5" font-family="Helvetica,sans-Serif" font-size="10.00">SalesFacade.cpp</text>
</a>
</g>
</g>
<!-- Node2&#45;&gt;Node4 -->
<g id="edge3" class="edge">
<title>Node2&#45;&gt;Node4</title>
<path fill="none" stroke="midnightblue" d="M149.5,-45.8C149.5,-36.91 149.5,-26.78 149.5,-19.75"/>
<polygon fill="midnightblue" stroke="midnightblue" points="146,-46.08 149.5,-56.08 153,-46.08 146,-46.08"/>
</g>
<!-- Node6 -->
<g id="node6" class="node">
<title>Node6</title>
<g id="a_node6"><a xlink:href="Staff_8cpp.html" target="_top" xlink:title="Implements the Staff behaviour defined in the corresponding header.">
<polygon fill="none" stroke="black" points="216,-0.5 216,-19.5 275,-19.5 275,-0.5 216,-0.5"/>
<text text-anchor="middle" x="245.5" y="-7.5" font-family="Helvetica,sans-Serif" font-size="10.00">Staff.cpp</text>
</a>
</g>
</g>
<!-- Node5&#45;&gt;Node6 -->
<g id="edge5" class="edge">
<title>Node5&#45;&gt;Node6</title>
<path fill="none" stroke="midnightblue" d="M239.65,-46.1C241.14,-37.14 242.86,-26.86 244.04,-19.75"/>
<polygon fill="midnightblue" stroke="midnightblue" points="236.18,-45.64 237.99,-56.08 243.08,-46.79 236.18,-45.64"/>
</g>
</g>
</svg>
