<?xml version="1.0" encoding="UTF-8" standalone="no"?>
<!DOCTYPE svg PUBLIC "-//W3C//DTD SVG 1.1//EN"
 "http://www.w3.org/Graphics/SVG/1.1/DTD/svg11.dtd">
<!-- Generated by graphviz version 2.43.0 (0)
 -->
<!-- Title: ConcreteGreenhouseIterator.cpp Pages: 1 -->
<!--zoomable 263 -->
<svg id="main" version="1.1" xmlns="http://www.w3.org/2000/svg" xmlns:xlink="http://www.w3.org/1999/xlink" xml:space="preserve" onload="init(evt)">
<style type="text/css"><![CDATA[
.edge:hover path { stroke: red; }
.edge:hover polygon { stroke: red; fill: red; }
]]></style>
<script type="text/javascript"><![CDATA[
var edges = document.getElementsByTagName('g');
if (edges && edges.length) {
  for (var i=0;i<edges.length;i++) {
    if (edges[i].id.substr(0,4)=='edge') {
      edges[i].setAttribute('class','edge');
    }
  }
}
]]></script>
        <defs>
                <circle id="rim" cx="0" cy="0" r="7"/>
                <circle id="rim2" cx="0" cy="0" r="3.5"/>
                <g id="zoomPlus">
                        <use xlink:href="#rim" fill="#404040">
                                <set attributeName="fill" to="#808080" begin="zoomplus.mouseover" end="zoomplus.mouseout"/>
                        </use>
                        <path d="M-4,0h8M0,-4v8" fill="none" stroke="white" stroke-width="1.5" pointer-events="none"/>
                </g>
                <g id="zoomMin">
                        <use xlink:href="#rim" fill="#404040">
                                <set attributeName="fill" to="#808080" begin="zoomminus.mouseover" end="zoomminus.mouseout"/>
                        </use>
                        <path d="M-4,0h8" fill="none" stroke="white" stroke-width="1.5" pointer-events="none"/>
                </g>
                <g id="dirArrow">
                        <path fill="none" stroke="white" stroke-width="1.5" d="M0,-3.0v7 M-2.5,-0.5L0,-3.0L2.5,-0.5"/>
                </g>
               <g id="resetDef">
                       <use xlink:href="#rim2" fill="#404040">
                               <set attributeName="fill" to="#808080" begin="reset.mouseover" end="reset.mouseout"/>
                       </use>
               </g>
        </defs>

<script type="text/javascript">
var viewWidth = 878;
var viewHeight = 263;
var sectionId = 'dynsection-0';
</script>
<script xlink:href="svgpan.js"/>
<svg id="graph" class="graph">
<g id="viewport">
<title>ConcreteGreenhouseIterator.cpp</title>
<!-- Node1 -->
<g id="node1" class="node">
<title>Node1</title>
<g id="a_node1"><a xlink:title="Implements the ConcreteGreenhouseIterator behaviour defined in the corresponding header.">
<polygon fill="#bfbfbf" stroke="black" points="341.5,-235.5 341.5,-254.5 515.5,-254.5 515.5,-235.5 341.5,-235.5"/>
<text text-anchor="middle" x="428.5" y="-242.5" font-family="Helvetica,sans-Serif" font-size="10.00">ConcreteGreenhouseIterator.cpp</text>
</a>
</g>
</g>
<!-- Node2 -->
<g id="node2" class="node">
<title>Node2</title>
<g id="a_node2"><a xlink:href="ConcreteGreenhouseIterator_8h.html" target="_top" xlink:title="Depth&#45;first iterator that traverses all plant instances inside a greenhouse bed.">
<polygon fill="none" stroke="black" points="66.5,-168.5 66.5,-198.5 232.5,-198.5 232.5,-168.5 66.5,-168.5"/>
<text text-anchor="start" x="74.5" y="-186.5" font-family="Helvetica,sans-Serif" font-size="10.00">../include/ConcreteGreenhouse</text>
<text text-anchor="middle" x="149.5" y="-175.5" font-family="Helvetica,sans-Serif" font-size="10.00">Iterator.h</text>
</a>
</g>
</g>
<!-- Node1&#45;&gt;Node2 -->
<g id="edge1" class="edge">
<title>Node1&#45;&gt;Node2</title>
<path fill="none" stroke="midnightblue" d="M388.53,-235.48C346.06,-226.42 277.92,-211.89 225.24,-200.65"/>
<polygon fill="midnightblue" stroke="midnightblue" points="225.76,-197.19 215.25,-198.52 224.3,-204.03 225.76,-197.19"/>
</g>
<!-- Node6 -->
<g id="node6" class="node">
<title>Node6</title>
<g id="a_node6"><a xlink:href="GreenhouseBed_8h.html" target="_top" xlink:title="The &#39;Composite&#39; class.">
<polygon fill="none" stroke="black" points="250.5,-174 250.5,-193 400.5,-193 400.5,-174 250.5,-174"/>
<text text-anchor="middle" x="325.5" y="-181" font-family="Helvetica,sans-Serif" font-size="10.00">../include/GreenhouseBed.h</text>
</a>
</g>
</g>
<!-- Node1&#45;&gt;Node6 -->
<g id="edge5" class="edge">
<title>Node1&#45;&gt;Node6</title>
<path fill="none" stroke="midnightblue" d="M413.74,-235.48C396.84,-225.71 368.92,-209.58 349.01,-198.08"/>
<polygon fill="midnightblue" stroke="midnightblue" points="350.64,-194.98 340.23,-193.01 347.14,-201.04 350.64,-194.98"/>
</g>
<!-- Node7 -->
<g id="node7" class="node">
<title>Node7</title>
<g id="a_node7"><a xlink:href="GreenhouseComponent_8h.html" target="_top" xlink:title="The abstract &#39;Component&#39; interface for the Composite pattern.">
<polygon fill="none" stroke="black" points="429.5,-112.5 429.5,-131.5 569.5,-131.5 569.5,-112.5 429.5,-112.5"/>
<text text-anchor="middle" x="499.5" y="-119.5" font-family="Helvetica,sans-Serif" font-size="10.00">GreenhouseComponent.h</text>
</a>
</g>
</g>
<!-- Node1&#45;&gt;Node7 -->
<g id="edge12" class="edge">
<title>Node1&#45;&gt;Node7</title>
<path fill="none" stroke="midnightblue" d="M433.61,-235.3C445.22,-215.5 473.81,-166.78 489.24,-140.49"/>
<polygon fill="midnightblue" stroke="midnightblue" points="492.4,-142.02 494.44,-131.62 486.36,-138.48 492.4,-142.02"/>
</g>
<!-- Node8 -->
<g id="node8" class="node">
<title>Node8</title>
<g id="a_node8"><a xlink:title=" ">
<polygon fill="none" stroke="#bfbfbf" points="417.5,-56.5 417.5,-75.5 475.5,-75.5 475.5,-56.5 417.5,-56.5"/>
<text text-anchor="middle" x="446.5" y="-63.5" font-family="Helvetica,sans-Serif" font-size="10.00">memory</text>
</a>
</g>
</g>
<!-- Node1&#45;&gt;Node8 -->
<g id="edge24" class="edge">
<title>Node1&#45;&gt;Node8</title>
<path fill="none" stroke="midnightblue" d="M426.14,-235.47C420.65,-214.2 408.37,-157.24 420.5,-112 423.15,-102.1 428.57,-92.13 433.77,-84.1"/>
<polygon fill="midnightblue" stroke="midnightblue" points="436.79,-85.89 439.61,-75.68 431.04,-81.91 436.79,-85.89"/>
</g>
<!-- Node10 -->
<g id="node10" class="node">
<title>Node10</title>
<g id="a_node10"><a xlink:href="PlantInstance_8h.html" target="_top" xlink:title="Represents a single, physical plant in the nursery.">
<polygon fill="none" stroke="black" points="547,-174 547,-193 686,-193 686,-174 547,-174"/>
<text text-anchor="middle" x="616.5" y="-181" font-family="Helvetica,sans-Serif" font-size="10.00">../include/PlantInstance.h</text>
</a>
</g>
</g>
<!-- Node1&#45;&gt;Node10 -->
<g id="edge13" class="edge">
<title>Node1&#45;&gt;Node10</title>
<path fill="none" stroke="midnightblue" d="M455.44,-235.48C488.1,-225.14 543.32,-207.66 579.84,-196.1"/>
<polygon fill="midnightblue" stroke="midnightblue" points="581.14,-199.36 589.61,-193.01 579.02,-192.69 581.14,-199.36"/>
</g>
<!-- Node3 -->
<g id="node3" class="node">
<title>Node3</title>
<g id="a_node3"><a xlink:href="GreenhouseIterator_8h.html" target="_top" xlink:title="Declares the iteration interface used to traverse nursery plants.">
<polygon fill="none" stroke="black" points="0,-112.5 0,-131.5 119,-131.5 119,-112.5 0,-112.5"/>
<text text-anchor="middle" x="59.5" y="-119.5" font-family="Helvetica,sans-Serif" font-size="10.00">GreenhouseIterator.h</text>
</a>
</g>
</g>
<!-- Node2&#45;&gt;Node3 -->
<g id="edge2" class="edge">
<title>Node2&#45;&gt;Node3</title>
<path fill="none" stroke="midnightblue" d="M128.17,-168.4C114.01,-159.04 95.49,-146.79 81.25,-137.38"/>
<polygon fill="midnightblue" stroke="midnightblue" points="82.87,-134.25 72.6,-131.66 79.01,-140.09 82.87,-134.25"/>
</g>
<!-- Node4 -->
<g id="node4" class="node">
<title>Node4</title>
<g id="a_node4"><a xlink:title=" ">
<polygon fill="none" stroke="#bfbfbf" points="137,-112.5 137,-131.5 190,-131.5 190,-112.5 137,-112.5"/>
<text text-anchor="middle" x="163.5" y="-119.5" font-family="Helvetica,sans-Serif" font-size="10.00">cstddef</text>
</a>
</g>
</g>
<!-- Node2&#45;&gt;Node4 -->
<g id="edge3" class="edge">
<title>Node2&#45;&gt;Node4</title>
<path fill="none" stroke="midnightblue" d="M152.82,-168.4C154.71,-160.38 157.09,-150.23 159.13,-141.57"/>
<polygon fill="midnightblue" stroke="midnightblue" points="162.58,-142.19 161.46,-131.66 155.77,-140.59 162.58,-142.19"/>
</g>
<!-- Node5 -->
<g id="node5" class="node">
<title>Node5</title>
<g id="a_node5"><a xlink:title=" ">
<polygon fill="none" stroke="#bfbfbf" points="236,-112.5 236,-131.5 283,-131.5 283,-112.5 236,-112.5"/>
<text text-anchor="middle" x="259.5" y="-119.5" font-family="Helvetica,sans-Serif" font-size="10.00">vector</text>
</a>
</g>
</g>
<!-- Node2&#45;&gt;Node5 -->
<g id="edge4" class="edge">
<title>Node2&#45;&gt;Node5</title>
<path fill="none" stroke="midnightblue" d="M175.57,-168.4C193.37,-158.77 216.81,-146.09 234.4,-136.58"/>
<polygon fill="midnightblue" stroke="midnightblue" points="236.36,-139.49 243.49,-131.66 233.03,-133.34 236.36,-139.49"/>
</g>
<!-- Node6&#45;&gt;Node5 -->
<g id="edge9" class="edge">
<title>Node6&#45;&gt;Node5</title>
<path fill="none" stroke="midnightblue" d="M316.04,-173.98C305.75,-164.7 289.08,-149.67 276.51,-138.33"/>
<polygon fill="midnightblue" stroke="midnightblue" points="278.71,-135.61 268.94,-131.51 274.02,-140.8 278.71,-135.61"/>
</g>
<!-- Node6&#45;&gt;Node7 -->
<g id="edge6" class="edge">
<title>Node6&#45;&gt;Node7</title>
<path fill="none" stroke="midnightblue" d="M350.43,-173.98C380.54,-163.68 431.33,-146.31 465.14,-134.75"/>
<polygon fill="midnightblue" stroke="midnightblue" points="466.29,-138.06 474.62,-131.51 464.02,-131.43 466.29,-138.06"/>
</g>
<!-- Node6&#45;&gt;Node8 -->
<g id="edge11" class="edge">
<title>Node6&#45;&gt;Node8</title>
<path fill="none" stroke="midnightblue" d="M332.25,-173.76C343.13,-159.93 365.57,-132.45 387.5,-112 399.36,-100.94 413.83,-89.87 425.47,-81.48"/>
<polygon fill="midnightblue" stroke="midnightblue" points="427.59,-84.27 433.73,-75.63 423.54,-78.56 427.59,-84.27"/>
</g>
<!-- Node9 -->
<g id="node9" class="node">
<title>Node9</title>
<g id="a_node9"><a xlink:title=" ">
<polygon fill="none" stroke="#bfbfbf" points="606.5,-0.5 606.5,-19.5 650.5,-19.5 650.5,-0.5 606.5,-0.5"/>
<text text-anchor="middle" x="628.5" y="-7.5" font-family="Helvetica,sans-Serif" font-size="10.00">string</text>
</a>
</g>
</g>
<!-- Node6&#45;&gt;Node9 -->
<g id="edge10" class="edge">
<title>Node6&#45;&gt;Node9</title>
<path fill="none" stroke="midnightblue" d="M328.27,-173.88C336.34,-150.37 362.18,-84.97 408.5,-56 467.41,-19.16 550.91,-11.81 596.22,-10.74"/>
<polygon fill="midnightblue" stroke="midnightblue" points="596.4,-14.23 606.35,-10.59 596.3,-7.23 596.4,-14.23"/>
</g>
<!-- Node7&#45;&gt;Node8 -->
<g id="edge7" class="edge">
<title>Node7&#45;&gt;Node8</title>
<path fill="none" stroke="midnightblue" d="M490.75,-112.08C483.03,-104.22 471.6,-92.57 462.28,-83.08"/>
<polygon fill="midnightblue" stroke="midnightblue" points="464.59,-80.44 455.09,-75.75 459.6,-85.34 464.59,-80.44"/>
</g>
<!-- Node7&#45;&gt;Node9 -->
<g id="edge8" class="edge">
<title>Node7&#45;&gt;Node9</title>
<path fill="none" stroke="midnightblue" d="M509.62,-112.37C531.48,-93.73 583.31,-49.53 610.75,-26.13"/>
<polygon fill="midnightblue" stroke="midnightblue" points="613.09,-28.74 618.42,-19.59 608.54,-23.42 613.09,-28.74"/>
</g>
<!-- Node10&#45;&gt;Node7 -->
<g id="edge14" class="edge">
<title>Node10&#45;&gt;Node7</title>
<path fill="none" stroke="midnightblue" d="M599.74,-173.98C580.28,-164.08 547.95,-147.64 525.29,-136.12"/>
<polygon fill="midnightblue" stroke="midnightblue" points="526.73,-132.92 516.23,-131.51 523.56,-139.16 526.73,-132.92"/>
</g>
<!-- Node10&#45;&gt;Node8 -->
<g id="edge22" class="edge">
<title>Node10&#45;&gt;Node8</title>
<path fill="none" stroke="midnightblue" d="M614.1,-173.79C609.59,-158.99 598.45,-128.89 578.5,-112 552.08,-89.64 514.01,-78.22 485.54,-72.49"/>
<polygon fill="midnightblue" stroke="midnightblue" points="485.99,-69.02 475.52,-70.63 484.71,-75.9 485.99,-69.02"/>
</g>
<!-- Node10&#45;&gt;Node9 -->
<g id="edge23" class="edge">
<title>Node10&#45;&gt;Node9</title>
<path fill="none" stroke="midnightblue" d="M617.11,-173.76C618.97,-147.15 624.6,-66.71 627.18,-29.84"/>
<polygon fill="midnightblue" stroke="midnightblue" points="630.7,-29.74 627.9,-19.52 623.71,-29.25 630.7,-29.74"/>
</g>
<!-- Node11 -->
<g id="node11" class="node">
<title>Node11</title>
<g id="a_node11"><a xlink:href="PlantState_8h.html" target="_top" xlink:title="Abstract base class describing the lifecycle state of a plant.">
<polygon fill="none" stroke="black" points="656.5,-56.5 656.5,-75.5 732.5,-75.5 732.5,-56.5 656.5,-56.5"/>
<text text-anchor="middle" x="694.5" y="-63.5" font-family="Helvetica,sans-Serif" font-size="10.00">PlantState.h</text>
</a>
</g>
</g>
<!-- Node10&#45;&gt;Node11 -->
<g id="edge15" class="edge">
<title>Node10&#45;&gt;Node11</title>
<path fill="none" stroke="midnightblue" d="M622.36,-173.82C635.18,-154.84 665.9,-109.35 682.82,-84.29"/>
<polygon fill="midnightblue" stroke="midnightblue" points="685.87,-86.03 688.57,-75.78 680.07,-82.11 685.87,-86.03"/>
</g>
<!-- Node12 -->
<g id="node12" class="node">
<title>Node12</title>
<g id="a_node12"><a xlink:href="Subject_8h.html" target="_top" xlink:title="Declares the Subject base that manages observer subscriptions.">
<polygon fill="none" stroke="black" points="735.5,-112.5 735.5,-131.5 797.5,-131.5 797.5,-112.5 735.5,-112.5"/>
<text text-anchor="middle" x="766.5" y="-119.5" font-family="Helvetica,sans-Serif" font-size="10.00">Subject.h</text>
</a>
</g>
</g>
<!-- Node10&#45;&gt;Node12 -->
<g id="edge17" class="edge">
<title>Node10&#45;&gt;Node12</title>
<path fill="none" stroke="midnightblue" d="M637.99,-173.98C663.61,-163.81 706.61,-146.76 735.74,-135.2"/>
<polygon fill="midnightblue" stroke="midnightblue" points="737.04,-138.45 745.05,-131.51 734.46,-131.94 737.04,-138.45"/>
</g>
<!-- Node11&#45;&gt;Node9 -->
<g id="edge16" class="edge">
<title>Node11&#45;&gt;Node9</title>
<path fill="none" stroke="midnightblue" d="M683.9,-56.32C674.04,-48.26 659.15,-36.08 647.28,-26.37"/>
<polygon fill="midnightblue" stroke="midnightblue" points="649.25,-23.46 639.3,-19.83 644.82,-28.88 649.25,-23.46"/>
</g>
<!-- Node13 -->
<g id="node13" class="node">
<title>Node13</title>
<g id="a_node13"><a xlink:title=" ">
<polygon fill="none" stroke="#bfbfbf" points="750.5,-56.5 750.5,-75.5 782.5,-75.5 782.5,-56.5 750.5,-56.5"/>
<text text-anchor="middle" x="766.5" y="-63.5" font-family="Helvetica,sans-Serif" font-size="10.00">list</text>
</a>
</g>
</g>
<!-- Node12&#45;&gt;Node13 -->
<g id="edge18" class="edge">
<title>Node12&#45;&gt;Node13</title>
<path fill="none" stroke="midnightblue" d="M766.5,-112.08C766.5,-105.01 766.5,-94.86 766.5,-85.99"/>
<polygon fill="midnightblue" stroke="midnightblue" points="770,-85.75 766.5,-75.75 763,-85.75 770,-85.75"/>
</g>
<!-- Node14 -->
<g id="node14" class="node">
<title>Node14</title>
<g id="a_node14"><a xlink:href="Observer_8h.html" target="_top" xlink:title="Declares the Observer contract and shared event payload.">
<polygon fill="none" stroke="black" points="801,-56.5 801,-75.5 870,-75.5 870,-56.5 801,-56.5"/>
<text text-anchor="middle" x="835.5" y="-63.5" font-family="Helvetica,sans-Serif" font-size="10.00">Observer.h</text>
</a>
</g>
</g>
<!-- Node12&#45;&gt;Node14 -->
<g id="edge19" class="edge">
<title>Node12&#45;&gt;Node14</title>
<path fill="none" stroke="midnightblue" d="M777.59,-112.32C787.99,-104.18 803.76,-91.84 816.22,-82.09"/>
<polygon fill="midnightblue" stroke="midnightblue" points="818.49,-84.75 824.21,-75.83 814.18,-79.24 818.49,-84.75"/>
</g>
<!-- Node14&#45;&gt;Node9 -->
<g id="edge21" class="edge">
<title>Node14&#45;&gt;Node9</title>
<path fill="none" stroke="midnightblue" d="M802.7,-56.44C763.67,-46.26 698.93,-29.37 660.33,-19.3"/>
<polygon fill="midnightblue" stroke="midnightblue" points="661.2,-15.91 650.64,-16.78 659.44,-22.69 661.2,-15.91"/>
</g>
<!-- Node15 -->
<g id="node15" class="node">
<title>Node15</title>
<g id="a_node15"><a xlink:title=" ">
<polygon fill="none" stroke="#bfbfbf" points="807.5,-0.5 807.5,-19.5 863.5,-19.5 863.5,-0.5 807.5,-0.5"/>
<text text-anchor="middle" x="835.5" y="-7.5" font-family="Helvetica,sans-Serif" font-size="10.00">optional</text>
</a>
</g>
</g>
<!-- Node14&#45;&gt;Node15 -->
<g id="edge20" class="edge">
<title>Node14&#45;&gt;Node15</title>
<path fill="none" stroke="midnightblue" d="M835.5,-56.08C835.5,-49.01 835.5,-38.86 835.5,-29.99"/>
<polygon fill="midnightblue" stroke="midnightblue" points="839,-29.75 835.5,-19.75 832,-29.75 839,-29.75"/>
</g>
</g>
</svg>
        <g id="navigator" transform="translate(0 0)" fill="#404254">
                <rect fill="#f2f5e9" fill-opacity="0.5" stroke="#606060" stroke-width=".5" x="0" y="0" width="60" height="60"/>
                <use id="zoomplus" xlink:href="#zoomPlus" x="17" y="9" onmousedown="handleZoom(evt,'in')"/>
                <use id="zoomminus" xlink:href="#zoomMin" x="42" y="9" onmousedown="handleZoom(evt,'out')"/>
                <use id="reset" xlink:href="#resetDef" x="30" y="36" onmousedown="handleReset()"/>
                <g id="arrowUp" xlink:href="#dirArrow" transform="translate(30 24)" onmousedown="handlePan(0,-1)">
                  <use xlink:href="#rim" fill="#404040">
                        <set attributeName="fill" to="#808080" begin="arrowUp.mouseover" end="arrowUp.mouseout"/>
                  </use>
                  <path fill="none" stroke="white" stroke-width="1.5" d="M0,-3.0v7 M-2.5,-0.5L0,-3.0L2.5,-0.5"/>
                </g>
                <g id="arrowRight" xlink:href="#dirArrow" transform="rotate(90) translate(36 -43)" onmousedown="handlePan(1,0)">
                  <use xlink:href="#rim" fill="#404040">
                        <set attributeName="fill" to="#808080" begin="arrowRight.mouseover" end="arrowRight.mouseout"/>
                  </use>
                  <path fill="none" stroke="white" stroke-width="1.5" d="M0,-3.0v7 M-2.5,-0.5L0,-3.0L2.5,-0.5"/>
                </g>
                <g id="arrowDown" xlink:href="#dirArrow" transform="rotate(180) translate(-30 -48)" onmousedown="handlePan(0,1)">
                  <use xlink:href="#rim" fill="#404040">
                        <set attributeName="fill" to="#808080" begin="arrowDown.mouseover" end="arrowDown.mouseout"/>
                  </use>
                  <path fill="none" stroke="white" stroke-width="1.5" d="M0,-3.0v7 M-2.5,-0.5L0,-3.0L2.5,-0.5"/>
                </g>
                <g id="arrowLeft" xlink:href="#dirArrow" transform="rotate(270) translate(-36 17)" onmousedown="handlePan(-1,0)">
                  <use xlink:href="#rim" fill="#404040">
                        <set attributeName="fill" to="#808080" begin="arrowLeft.mouseover" end="arrowLeft.mouseout"/>
                  </use>
                  <path fill="none" stroke="white" stroke-width="1.5" d="M0,-3.0v7 M-2.5,-0.5L0,-3.0L2.5,-0.5"/>
                </g>
        </g>
        <svg viewBox="0 0 15 15" width="100%" height="30px" preserveAspectRatio="xMaxYMin meet">
         <g id="arrow_out" transform="scale(0.3 0.3)">
          <a xlink:href="ConcreteGreenhouseIterator_8cpp__incl_org.svg" target="_base">
           <rect id="button" ry="5" rx="5" y="6" x="6" height="38" width="38"
                fill="#f2f5e9" fill-opacity="0.5" stroke="#606060" stroke-width="1.0"/>
           <path id="arrow"
             d="M 11.500037,31.436501 C 11.940474,20.09759 22.043105,11.32322 32.158766,21.979434 L 37.068811,17.246167 C 37.068811,17.246167 37.088388,32 37.088388,32 L 22.160133,31.978069 C 22.160133,31.978069 26.997745,27.140456 26.997745,27.140456 C 18.528582,18.264221 13.291696,25.230495 11.500037,31.436501 z"
             style="fill:#404040;"/>
          </a>
         </g>
        </svg>
</svg>
