<?xml version="1.0" encoding="UTF-8" standalone="no"?>
<!DOCTYPE svg PUBLIC "-//W3C//DTD SVG 1.1//EN"
 "http://www.w3.org/Graphics/SVG/1.1/DTD/svg11.dtd">
<!-- Generated by graphviz version 2.43.0 (0)
 -->
<!-- Title: ConcreteGreenhouseIterator.h Pages: 1 -->
<svg width="314pt" height="84pt"
 viewBox="0.00 0.00 314.00 84.00" xmlns="http://www.w3.org/2000/svg" xmlns:xlink="http://www.w3.org/1999/xlink">
<g id="graph0" class="graph" transform="scale(1 1) rotate(0) translate(4 80)">
<title>ConcreteGreenhouseIterator.h</title>
<!-- Node1 -->
<g id="node1" class="node">
<title>Node1</title>
<g id="a_node1"><a xlink:title="Depth&#45;first iterator that traverses all plant instances inside a greenhouse bed.">
<polygon fill="#bfbfbf" stroke="black" points="86.5,-56.5 86.5,-75.5 249.5,-75.5 249.5,-56.5 86.5,-56.5"/>
<text text-anchor="middle" x="168" y="-63.5" font-family="Helvetica,sans-Serif" font-size="10.00">ConcreteGreenhouseIterator.h</text>
</a>
</g>
</g>
<!-- Node2 -->
<g id="node2" class="node">
<title>Node2</title>
<g id="a_node2"><a xlink:href="ConcreteGreenhouseIterator_8cpp.html" target="_top" xlink:title="Implements the ConcreteGreenhouseIterator behaviour defined in the corresponding header.">
<polygon fill="none" stroke="black" points="0,-0.5 0,-19.5 174,-19.5 174,-0.5 0,-0.5"/>
<text text-anchor="middle" x="87" y="-7.5" font-family="Helvetica,sans-Serif" font-size="10.00">ConcreteGreenhouseIterator.cpp</text>
</a>
</g>
</g>
<!-- Node1&#45;&gt;Node2 -->
<g id="edge1" class="edge">
<title>Node1&#45;&gt;Node2</title>
<path fill="none" stroke="midnightblue" d="M146.43,-50.62C131.64,-40.76 112.49,-27.99 99.98,-19.65"/>
<polygon fill="midnightblue" stroke="midnightblue" points="144.72,-53.69 154.99,-56.32 148.61,-47.86 144.72,-53.69"/>
</g>
<!-- Node3 -->
<g id="node3" class="node">
<title>Node3</title>
<g id="a_node3"><a xlink:href="GreenhouseBed_8cpp.html" target="_top" xlink:title="Implements the GreenhouseBed behaviour defined in the corresponding header.">
<polygon fill="none" stroke="black" points="192,-0.5 192,-19.5 306,-19.5 306,-0.5 192,-0.5"/>
<text text-anchor="middle" x="249" y="-7.5" font-family="Helvetica,sans-Serif" font-size="10.00">GreenhouseBed.cpp</text>
</a>
</g>
</g>
<!-- Node1&#45;&gt;Node3 -->
<g id="edge2" class="edge">
<title>Node1&#45;&gt;Node3</title>
<path fill="none" stroke="midnightblue" d="M189.57,-50.62C204.36,-40.76 223.51,-27.99 236.02,-19.65"/>
<polygon fill="midnightblue" stroke="midnightblue" points="187.39,-47.86 181.01,-56.32 191.28,-53.69 187.39,-47.86"/>
</g>
</g>
</svg>
