<?xml version="1.0" encoding="UTF-8" standalone="no"?>
<!DOCTYPE svg PUBLIC "-//W3C//DTD SVG 1.1//EN"
 "http://www.w3.org/Graphics/SVG/1.1/DTD/svg11.dtd">
<!-- Generated by graphviz version 2.43.0 (0)
 -->
<!-- Title: ConcreteGreenhouseIterator.h Pages: 1 -->
<svg width="263pt" height="84pt"
 viewBox="0.00 0.00 263.00 84.00" xmlns="http://www.w3.org/2000/svg" xmlns:xlink="http://www.w3.org/1999/xlink">
<g id="graph0" class="graph" transform="scale(1 1) rotate(0) translate(4 80)">
<title>ConcreteGreenhouseIterator.h</title>
<!-- Node1 -->
<g id="node1" class="node">
<title>Node1</title>
<g id="a_node1"><a xlink:title="Depth&#45;first iterator that traverses all plant instances inside a greenhouse bed.">
<polygon fill="#bfbfbf" stroke="black" points="82,-56.5 82,-75.5 245,-75.5 245,-56.5 82,-56.5"/>
<text text-anchor="middle" x="163.5" y="-63.5" font-family="Helvetica,sans-Serif" font-size="10.00">ConcreteGreenhouseIterator.h</text>
</a>
</g>
</g>
<!-- Node2 -->
<g id="node2" class="node">
<title>Node2</title>
<g id="a_node2"><a xlink:href="GreenhouseIterator_8h.html" target="_top" xlink:title="Declares the iteration interface used to traverse nursery plants.">
<polygon fill="none" stroke="black" points="0,-0.5 0,-19.5 119,-19.5 119,-0.5 0,-0.5"/>
<text text-anchor="middle" x="59.5" y="-7.5" font-family="Helvetica,sans-Serif" font-size="10.00">GreenhouseIterator.h</text>
</a>
</g>
</g>
<!-- Node1&#45;&gt;Node2 -->
<g id="edge1" class="edge">
<title>Node1&#45;&gt;Node2</title>
<path fill="none" stroke="midnightblue" d="M146.79,-56.32C130.19,-47.7 104.5,-34.36 85.28,-24.39"/>
<polygon fill="midnightblue" stroke="midnightblue" points="86.66,-21.16 76.17,-19.65 83.43,-27.37 86.66,-21.16"/>
</g>
<!-- Node3 -->
<g id="node3" class="node">
<title>Node3</title>
<g id="a_node3"><a xlink:title=" ">
<polygon fill="none" stroke="#bfbfbf" points="137,-0.5 137,-19.5 190,-19.5 190,-0.5 137,-0.5"/>
<text text-anchor="middle" x="163.5" y="-7.5" font-family="Helvetica,sans-Serif" font-size="10.00">cstddef</text>
</a>
</g>
</g>
<!-- Node1&#45;&gt;Node3 -->
<g id="edge2" class="edge">
<title>Node1&#45;&gt;Node3</title>
<path fill="none" stroke="midnightblue" d="M163.5,-56.08C163.5,-49.01 163.5,-38.86 163.5,-29.99"/>
<polygon fill="midnightblue" stroke="midnightblue" points="167,-29.75 163.5,-19.75 160,-29.75 167,-29.75"/>
</g>
<!-- Node4 -->
<g id="node4" class="node">
<title>Node4</title>
<g id="a_node4"><a xlink:title=" ">
<polygon fill="none" stroke="#bfbfbf" points="208,-0.5 208,-19.5 255,-19.5 255,-0.5 208,-0.5"/>
<text text-anchor="middle" x="231.5" y="-7.5" font-family="Helvetica,sans-Serif" font-size="10.00">vector</text>
</a>
</g>
</g>
<!-- Node1&#45;&gt;Node4 -->
<g id="edge3" class="edge">
<title>Node1&#45;&gt;Node4</title>
<path fill="none" stroke="midnightblue" d="M174.43,-56.32C184.67,-48.18 200.22,-35.84 212.5,-26.09"/>
<polygon fill="midnightblue" stroke="midnightblue" points="214.72,-28.79 220.38,-19.83 210.37,-23.31 214.72,-28.79"/>
</g>
</g>
</svg>
