<?xml version="1.0" encoding="UTF-8" standalone="no"?>
<!DOCTYPE svg PUBLIC "-//W3C//DTD SVG 1.1//EN"
 "http://www.w3.org/Graphics/SVG/1.1/DTD/svg11.dtd">
<!-- Generated by graphviz version 2.43.0 (0)
 -->
<!-- Title: ConcreteInventoryIterator.cpp Pages: 1 -->
<svg width="1204pt" height="263pt"
 viewBox="0.00 0.00 1203.50 263.00" xmlns="http://www.w3.org/2000/svg" xmlns:xlink="http://www.w3.org/1999/xlink">
<g id="graph0" class="graph" transform="scale(1 1) rotate(0) translate(4 259)">
<title>ConcreteInventoryIterator.cpp</title>
<!-- Node1 -->
<g id="node1" class="node">
<title>Node1</title>
<g id="a_node1"><a xlink:title="Implements the ConcreteInventoryIterator behaviour defined in the corresponding header.">
<polygon fill="#bfbfbf" stroke="black" points="585.5,-235.5 585.5,-254.5 747.5,-254.5 747.5,-235.5 585.5,-235.5"/>
<text text-anchor="middle" x="666.5" y="-242.5" font-family="Helvetica,sans-Serif" font-size="10.00">ConcreteInventoryIterator.cpp</text>
</a>
</g>
</g>
<!-- Node2 -->
<g id="node2" class="node">
<title>Node2</title>
<g id="a_node2"><a xlink:href="ConcreteInventoryIterator_8h.html" target="_top" xlink:title="The &#39;ConcreteIterator&#39; for the Inventory.">
<polygon fill="none" stroke="black" points="176.5,-168.5 176.5,-198.5 330.5,-198.5 330.5,-168.5 176.5,-168.5"/>
<text text-anchor="start" x="184.5" y="-186.5" font-family="Helvetica,sans-Serif" font-size="10.00">../include/ConcreteInventory</text>
<text text-anchor="middle" x="253.5" y="-175.5" font-family="Helvetica,sans-Serif" font-size="10.00">Iterator.h</text>
</a>
</g>
</g>
<!-- Node1&#45;&gt;Node2 -->
<g id="edge1" class="edge">
<title>Node1&#45;&gt;Node2</title>
<path fill="none" stroke="midnightblue" d="M600.34,-235.49C536.48,-227.15 436.81,-213.76 340.99,-199.2"/>
<polygon fill="midnightblue" stroke="midnightblue" points="341.25,-195.7 330.84,-197.65 340.19,-202.62 341.25,-195.7"/>
</g>
<!-- Node5 -->
<g id="node5" class="node">
<title>Node5</title>
<g id="a_node5"><a xlink:href="Inventory_8h.html" target="_top" xlink:title="The &#39;ConcreteAggregate&#39; class.">
<polygon fill="none" stroke="black" points="348.5,-174 348.5,-193 466.5,-193 466.5,-174 348.5,-174"/>
<text text-anchor="middle" x="407.5" y="-181" font-family="Helvetica,sans-Serif" font-size="10.00">../include/Inventory.h</text>
</a>
</g>
</g>
<!-- Node1&#45;&gt;Node5 -->
<g id="edge4" class="edge">
<title>Node1&#45;&gt;Node5</title>
<path fill="none" stroke="midnightblue" d="M629.39,-235.48C583.33,-224.89 504.73,-206.84 454.5,-195.3"/>
<polygon fill="midnightblue" stroke="midnightblue" points="455.07,-191.84 444.54,-193.01 453.5,-198.66 455.07,-191.84"/>
</g>
<!-- Node10 -->
<g id="node10" class="node">
<title>Node10</title>
<g id="a_node10"><a xlink:title=" ">
<polygon fill="none" stroke="#bfbfbf" points="517.5,-112.5 517.5,-131.5 603.5,-131.5 603.5,-112.5 517.5,-112.5"/>
<text text-anchor="middle" x="560.5" y="-119.5" font-family="Helvetica,sans-Serif" font-size="10.00">unordered_set</text>
</a>
</g>
</g>
<!-- Node1&#45;&gt;Node10 -->
<g id="edge33" class="edge">
<title>Node1&#45;&gt;Node10</title>
<path fill="none" stroke="midnightblue" d="M638.57,-235.44C620.15,-228.44 596.86,-216.75 582.5,-199 569.16,-182.52 563.91,-158.28 561.84,-141.63"/>
<polygon fill="midnightblue" stroke="midnightblue" points="565.31,-141.12 560.86,-131.5 558.34,-141.8 565.31,-141.12"/>
</g>
<!-- Node11 -->
<g id="node11" class="node">
<title>Node11</title>
<g id="a_node11"><a xlink:href="StockItem_8h.html" target="_top" xlink:title="Represents an inventory entry and observes plant availability.">
<polygon fill="none" stroke="black" points="1073.5,-112.5 1073.5,-131.5 1195.5,-131.5 1195.5,-112.5 1073.5,-112.5"/>
<text text-anchor="middle" x="1134.5" y="-119.5" font-family="Helvetica,sans-Serif" font-size="10.00">../include/StockItem.h</text>
</a>
</g>
</g>
<!-- Node1&#45;&gt;Node11 -->
<g id="edge11" class="edge">
<title>Node1&#45;&gt;Node11</title>
<path fill="none" stroke="midnightblue" d="M747.6,-240.87C869.41,-235.43 1088.31,-222.5 1115.5,-199 1131.7,-184.99 1135.16,-159.45 1135.42,-141.87"/>
<polygon fill="midnightblue" stroke="midnightblue" points="1138.92,-141.61 1135.24,-131.67 1131.92,-141.74 1138.92,-141.61"/>
</g>
<!-- Node14 -->
<g id="node14" class="node">
<title>Node14</title>
<g id="a_node14"><a xlink:href="GreenhouseBed_8h.html" target="_top" xlink:title="The &#39;Composite&#39; class.">
<polygon fill="none" stroke="black" points="591.5,-174 591.5,-193 741.5,-193 741.5,-174 591.5,-174"/>
<text text-anchor="middle" x="666.5" y="-181" font-family="Helvetica,sans-Serif" font-size="10.00">../include/GreenhouseBed.h</text>
</a>
</g>
</g>
<!-- Node1&#45;&gt;Node14 -->
<g id="edge16" class="edge">
<title>Node1&#45;&gt;Node14</title>
<path fill="none" stroke="midnightblue" d="M666.5,-235.48C666.5,-227.08 666.5,-213.98 666.5,-203.16"/>
<polygon fill="midnightblue" stroke="midnightblue" points="670,-203.01 666.5,-193.01 663,-203.01 670,-203.01"/>
</g>
<!-- Node16 -->
<g id="node16" class="node">
<title>Node16</title>
<g id="a_node16"><a xlink:href="GreenhouseIterator_8h.html" target="_top" xlink:title="Declares the iteration interface used to traverse nursery plants.">
<polygon fill="none" stroke="black" points="940,-174 940,-193 1107,-193 1107,-174 940,-174"/>
<text text-anchor="middle" x="1023.5" y="-181" font-family="Helvetica,sans-Serif" font-size="10.00">../include/GreenhouseIterator.h</text>
</a>
</g>
</g>
<!-- Node1&#45;&gt;Node16 -->
<g id="edge23" class="edge">
<title>Node1&#45;&gt;Node16</title>
<path fill="none" stroke="midnightblue" d="M717.65,-235.48C782.33,-224.69 893.57,-206.15 962.58,-194.65"/>
<polygon fill="midnightblue" stroke="midnightblue" points="963.16,-198.11 972.45,-193.01 962.01,-191.2 963.16,-198.11"/>
</g>
<!-- Node17 -->
<g id="node17" class="node">
<title>Node17</title>
<g id="a_node17"><a xlink:href="PlantInstance_8h.html" target="_top" xlink:title="Represents a single, physical plant in the nursery.">
<polygon fill="none" stroke="black" points="783,-174 783,-193 922,-193 922,-174 783,-174"/>
<text text-anchor="middle" x="852.5" y="-181" font-family="Helvetica,sans-Serif" font-size="10.00">../include/PlantInstance.h</text>
</a>
</g>
</g>
<!-- Node1&#45;&gt;Node17 -->
<g id="edge24" class="edge">
<title>Node1&#45;&gt;Node17</title>
<path fill="none" stroke="midnightblue" d="M693.15,-235.48C725.47,-225.14 780.1,-207.66 816.23,-196.1"/>
<polygon fill="midnightblue" stroke="midnightblue" points="817.44,-199.39 825.9,-193.01 815.31,-192.72 817.44,-199.39"/>
</g>
<!-- Node3 -->
<g id="node3" class="node">
<title>Node3</title>
<g id="a_node3"><a xlink:href="InventoryIterator_8h.html" target="_top" xlink:title="The &#39;Iterator&#39; interface.">
<polygon fill="none" stroke="black" points="0,-112.5 0,-131.5 107,-131.5 107,-112.5 0,-112.5"/>
<text text-anchor="middle" x="53.5" y="-119.5" font-family="Helvetica,sans-Serif" font-size="10.00">InventoryIterator.h</text>
</a>
</g>
</g>
<!-- Node2&#45;&gt;Node3 -->
<g id="edge2" class="edge">
<title>Node2&#45;&gt;Node3</title>
<path fill="none" stroke="midnightblue" d="M206.36,-168.47C171.4,-158.08 124.35,-144.08 91.73,-134.37"/>
<polygon fill="midnightblue" stroke="midnightblue" points="92.68,-131 82.09,-131.51 90.68,-137.71 92.68,-131"/>
</g>
<!-- Node4 -->
<g id="node4" class="node">
<title>Node4</title>
<g id="a_node4"><a xlink:title=" ">
<polygon fill="none" stroke="#bfbfbf" points="236,-112.5 236,-131.5 283,-131.5 283,-112.5 236,-112.5"/>
<text text-anchor="middle" x="259.5" y="-119.5" font-family="Helvetica,sans-Serif" font-size="10.00">vector</text>
</a>
</g>
</g>
<!-- Node2&#45;&gt;Node4 -->
<g id="edge3" class="edge">
<title>Node2&#45;&gt;Node4</title>
<path fill="none" stroke="midnightblue" d="M254.92,-168.4C255.72,-160.47 256.73,-150.46 257.6,-141.86"/>
<polygon fill="midnightblue" stroke="midnightblue" points="261.11,-141.96 258.63,-131.66 254.14,-141.26 261.11,-141.96"/>
</g>
<!-- Node5&#45;&gt;Node4 -->
<g id="edge6" class="edge">
<title>Node5&#45;&gt;Node4</title>
<path fill="none" stroke="midnightblue" d="M386.3,-173.98C361.13,-163.86 318.96,-146.9 290.22,-135.35"/>
<polygon fill="midnightblue" stroke="midnightblue" points="291.25,-131.99 280.67,-131.51 288.64,-138.49 291.25,-131.99"/>
</g>
<!-- Node6 -->
<g id="node6" class="node">
<title>Node6</title>
<g id="a_node6"><a xlink:href="InventoryCollection_8h.html" target="_top" xlink:title="The &#39;Aggregate&#39; interface.">
<polygon fill="none" stroke="black" points="340,-112.5 340,-131.5 461,-131.5 461,-112.5 340,-112.5"/>
<text text-anchor="middle" x="400.5" y="-119.5" font-family="Helvetica,sans-Serif" font-size="10.00">InventoryCollection.h</text>
</a>
</g>
</g>
<!-- Node5&#45;&gt;Node6 -->
<g id="edge5" class="edge">
<title>Node5&#45;&gt;Node6</title>
<path fill="none" stroke="midnightblue" d="M406.5,-173.98C405.51,-165.58 403.97,-152.48 402.7,-141.66"/>
<polygon fill="midnightblue" stroke="midnightblue" points="406.15,-141.03 401.5,-131.51 399.19,-141.85 406.15,-141.03"/>
</g>
<!-- Node7 -->
<g id="node7" class="node">
<title>Node7</title>
<g id="a_node7"><a xlink:title=" ">
<polygon fill="none" stroke="#bfbfbf" points="853.5,-0.5 853.5,-19.5 897.5,-19.5 897.5,-0.5 853.5,-0.5"/>
<text text-anchor="middle" x="875.5" y="-7.5" font-family="Helvetica,sans-Serif" font-size="10.00">string</text>
</a>
</g>
</g>
<!-- Node5&#45;&gt;Node7 -->
<g id="edge7" class="edge">
<title>Node5&#45;&gt;Node7</title>
<path fill="none" stroke="midnightblue" d="M385.16,-173.97C355.67,-161.47 309.75,-136.94 330.5,-112 396.68,-32.43 736.45,-15.27 843.3,-11.82"/>
<polygon fill="midnightblue" stroke="midnightblue" points="843.57,-15.31 853.46,-11.51 843.36,-8.31 843.57,-15.31"/>
</g>
<!-- Node8 -->
<g id="node8" class="node">
<title>Node8</title>
<g id="a_node8"><a xlink:title=" ">
<polygon fill="none" stroke="#bfbfbf" points="699.5,-56.5 699.5,-75.5 757.5,-75.5 757.5,-56.5 699.5,-56.5"/>
<text text-anchor="middle" x="728.5" y="-63.5" font-family="Helvetica,sans-Serif" font-size="10.00">memory</text>
</a>
</g>
</g>
<!-- Node5&#45;&gt;Node8 -->
<g id="edge8" class="edge">
<title>Node5&#45;&gt;Node8</title>
<path fill="none" stroke="midnightblue" d="M417,-173.82C434.01,-158.77 471.36,-127.95 508.5,-112 568.49,-86.24 644.13,-74.93 689.28,-70.18"/>
<polygon fill="midnightblue" stroke="midnightblue" points="689.65,-73.66 699.25,-69.19 688.96,-66.7 689.65,-73.66"/>
</g>
<!-- Node9 -->
<g id="node9" class="node">
<title>Node9</title>
<g id="a_node9"><a xlink:title=" ">
<polygon fill="none" stroke="#bfbfbf" points="125,-112.5 125,-131.5 218,-131.5 218,-112.5 125,-112.5"/>
<text text-anchor="middle" x="171.5" y="-119.5" font-family="Helvetica,sans-Serif" font-size="10.00">unordered_map</text>
</a>
</g>
</g>
<!-- Node5&#45;&gt;Node9 -->
<g id="edge9" class="edge">
<title>Node5&#45;&gt;Node9</title>
<path fill="none" stroke="midnightblue" d="M373.69,-173.98C331.98,-163.46 260.99,-145.56 215.19,-134.01"/>
<polygon fill="midnightblue" stroke="midnightblue" points="215.8,-130.56 205.25,-131.51 214.09,-137.35 215.8,-130.56"/>
</g>
<!-- Node5&#45;&gt;Node10 -->
<g id="edge10" class="edge">
<title>Node5&#45;&gt;Node10</title>
<path fill="none" stroke="midnightblue" d="M429.42,-173.98C455.55,-163.81 499.41,-146.76 529.13,-135.2"/>
<polygon fill="midnightblue" stroke="midnightblue" points="530.57,-138.4 538.62,-131.51 528.03,-131.87 530.57,-138.4"/>
</g>
<!-- Node11&#45;&gt;Node7 -->
<g id="edge12" class="edge">
<title>Node11&#45;&gt;Node7</title>
<path fill="none" stroke="midnightblue" d="M1136.37,-112.07C1138.72,-98.13 1140.88,-71.19 1126.5,-56 1097.07,-24.91 968.87,-15.11 907.92,-12.18"/>
<polygon fill="midnightblue" stroke="midnightblue" points="907.85,-8.67 897.7,-11.72 907.54,-15.67 907.85,-8.67"/>
</g>
<!-- Node12 -->
<g id="node12" class="node">
<title>Node12</title>
<g id="a_node12"><a xlink:href="Observer_8h.html" target="_top" xlink:title="Declares the Observer contract and shared event payload.">
<polygon fill="none" stroke="black" points="1048,-56.5 1048,-75.5 1117,-75.5 1117,-56.5 1048,-56.5"/>
<text text-anchor="middle" x="1082.5" y="-63.5" font-family="Helvetica,sans-Serif" font-size="10.00">Observer.h</text>
</a>
</g>
</g>
<!-- Node11&#45;&gt;Node12 -->
<g id="edge13" class="edge">
<title>Node11&#45;&gt;Node12</title>
<path fill="none" stroke="midnightblue" d="M1125.91,-112.08C1118.34,-104.22 1107.12,-92.57 1097.99,-83.08"/>
<polygon fill="midnightblue" stroke="midnightblue" points="1100.38,-80.53 1090.93,-75.75 1095.34,-85.38 1100.38,-80.53"/>
</g>
<!-- Node12&#45;&gt;Node7 -->
<g id="edge15" class="edge">
<title>Node12&#45;&gt;Node7</title>
<path fill="none" stroke="midnightblue" d="M1049.7,-56.44C1010.67,-46.26 945.93,-29.37 907.33,-19.3"/>
<polygon fill="midnightblue" stroke="midnightblue" points="908.2,-15.91 897.64,-16.78 906.44,-22.69 908.2,-15.91"/>
</g>
<!-- Node13 -->
<g id="node13" class="node">
<title>Node13</title>
<g id="a_node13"><a xlink:title=" ">
<polygon fill="none" stroke="#bfbfbf" points="1054.5,-0.5 1054.5,-19.5 1110.5,-19.5 1110.5,-0.5 1054.5,-0.5"/>
<text text-anchor="middle" x="1082.5" y="-7.5" font-family="Helvetica,sans-Serif" font-size="10.00">optional</text>
</a>
</g>
</g>
<!-- Node12&#45;&gt;Node13 -->
<g id="edge14" class="edge">
<title>Node12&#45;&gt;Node13</title>
<path fill="none" stroke="midnightblue" d="M1082.5,-56.08C1082.5,-49.01 1082.5,-38.86 1082.5,-29.99"/>
<polygon fill="midnightblue" stroke="midnightblue" points="1086,-29.75 1082.5,-19.75 1079,-29.75 1086,-29.75"/>
</g>
<!-- Node14&#45;&gt;Node4 -->
<g id="edge20" class="edge">
<title>Node14&#45;&gt;Node4</title>
<path fill="none" stroke="midnightblue" d="M608.19,-173.98C521.84,-161.35 362.73,-138.09 293.34,-127.95"/>
<polygon fill="midnightblue" stroke="midnightblue" points="293.79,-124.48 283.39,-126.49 292.77,-131.4 293.79,-124.48"/>
</g>
<!-- Node14&#45;&gt;Node7 -->
<g id="edge21" class="edge">
<title>Node14&#45;&gt;Node7</title>
<path fill="none" stroke="midnightblue" d="M665.19,-173.96C662.24,-151.19 657.68,-88.61 690.5,-56 711.81,-34.83 796.11,-21.04 843.22,-14.82"/>
<polygon fill="midnightblue" stroke="midnightblue" points="843.75,-18.28 853.23,-13.54 842.86,-11.33 843.75,-18.28"/>
</g>
<!-- Node14&#45;&gt;Node8 -->
<g id="edge22" class="edge">
<title>Node14&#45;&gt;Node8</title>
<path fill="none" stroke="midnightblue" d="M667.99,-173.78C670.6,-159.97 676.89,-132.54 688.5,-112 694.52,-101.35 703.39,-91.04 711.25,-82.98"/>
<polygon fill="midnightblue" stroke="midnightblue" points="713.94,-85.24 718.63,-75.74 709.04,-80.24 713.94,-85.24"/>
</g>
<!-- Node15 -->
<g id="node15" class="node">
<title>Node15</title>
<g id="a_node15"><a xlink:href="GreenhouseComponent_8h.html" target="_top" xlink:title="The abstract &#39;Component&#39; interface for the Composite pattern.">
<polygon fill="none" stroke="black" points="697.5,-112.5 697.5,-131.5 837.5,-131.5 837.5,-112.5 697.5,-112.5"/>
<text text-anchor="middle" x="767.5" y="-119.5" font-family="Helvetica,sans-Serif" font-size="10.00">GreenhouseComponent.h</text>
</a>
</g>
</g>
<!-- Node14&#45;&gt;Node15 -->
<g id="edge17" class="edge">
<title>Node14&#45;&gt;Node15</title>
<path fill="none" stroke="midnightblue" d="M680.97,-173.98C697.47,-164.25 724.68,-148.23 744.18,-136.74"/>
<polygon fill="midnightblue" stroke="midnightblue" points="746.22,-139.6 753.06,-131.51 742.66,-133.57 746.22,-139.6"/>
</g>
<!-- Node15&#45;&gt;Node7 -->
<g id="edge19" class="edge">
<title>Node15&#45;&gt;Node7</title>
<path fill="none" stroke="midnightblue" d="M775.97,-112.37C794.11,-93.89 836.92,-50.29 860.04,-26.74"/>
<polygon fill="midnightblue" stroke="midnightblue" points="862.56,-29.18 867.06,-19.59 857.56,-24.28 862.56,-29.18"/>
</g>
<!-- Node15&#45;&gt;Node8 -->
<g id="edge18" class="edge">
<title>Node15&#45;&gt;Node8</title>
<path fill="none" stroke="midnightblue" d="M761.06,-112.08C755.55,-104.46 747.47,-93.26 740.74,-83.94"/>
<polygon fill="midnightblue" stroke="midnightblue" points="743.51,-81.81 734.82,-75.75 737.84,-85.91 743.51,-81.81"/>
</g>
<!-- Node17&#45;&gt;Node7 -->
<g id="edge32" class="edge">
<title>Node17&#45;&gt;Node7</title>
<path fill="none" stroke="midnightblue" d="M855.26,-173.66C858.28,-163.65 863,-146.82 865.5,-132 871.56,-96.1 873.99,-53.56 874.94,-29.68"/>
<polygon fill="midnightblue" stroke="midnightblue" points="878.44,-29.69 875.29,-19.57 871.44,-29.44 878.44,-29.69"/>
</g>
<!-- Node17&#45;&gt;Node8 -->
<g id="edge31" class="edge">
<title>Node17&#45;&gt;Node8</title>
<path fill="none" stroke="midnightblue" d="M854.48,-173.66C857.19,-159.2 860.25,-130.25 846.5,-112 828.04,-87.5 794.51,-76.34 767.89,-71.25"/>
<polygon fill="midnightblue" stroke="midnightblue" points="768.15,-67.75 757.71,-69.53 766.99,-74.65 768.15,-67.75"/>
</g>
<!-- Node17&#45;&gt;Node15 -->
<g id="edge25" class="edge">
<title>Node17&#45;&gt;Node15</title>
<path fill="none" stroke="midnightblue" d="M840.32,-173.98C826.69,-164.43 804.37,-148.81 788.03,-137.37"/>
<polygon fill="midnightblue" stroke="midnightblue" points="789.86,-134.38 779.66,-131.51 785.84,-140.11 789.86,-134.38"/>
</g>
<!-- Node18 -->
<g id="node18" class="node">
<title>Node18</title>
<g id="a_node18"><a xlink:href="PlantState_8h.html" target="_top" xlink:title="Abstract base class describing the lifecycle state of a plant.">
<polygon fill="none" stroke="black" points="903.5,-56.5 903.5,-75.5 979.5,-75.5 979.5,-56.5 903.5,-56.5"/>
<text text-anchor="middle" x="941.5" y="-63.5" font-family="Helvetica,sans-Serif" font-size="10.00">PlantState.h</text>
</a>
</g>
</g>
<!-- Node17&#45;&gt;Node18 -->
<g id="edge26" class="edge">
<title>Node17&#45;&gt;Node18</title>
<path fill="none" stroke="midnightblue" d="M867.92,-173.97C882.53,-165.18 904.16,-150.22 917.5,-132 927.71,-118.06 934.01,-99.31 937.59,-85.52"/>
<polygon fill="midnightblue" stroke="midnightblue" points="941.01,-86.26 939.89,-75.73 934.19,-84.66 941.01,-86.26"/>
</g>
<!-- Node19 -->
<g id="node19" class="node">
<title>Node19</title>
<g id="a_node19"><a xlink:href="Subject_8h.html" target="_top" xlink:title="Declares the Subject base that manages observer subscriptions.">
<polygon fill="none" stroke="black" points="982.5,-112.5 982.5,-131.5 1044.5,-131.5 1044.5,-112.5 982.5,-112.5"/>
<text text-anchor="middle" x="1013.5" y="-119.5" font-family="Helvetica,sans-Serif" font-size="10.00">Subject.h</text>
</a>
</g>
</g>
<!-- Node17&#45;&gt;Node19 -->
<g id="edge28" class="edge">
<title>Node17&#45;&gt;Node19</title>
<path fill="none" stroke="midnightblue" d="M875.57,-173.98C903.18,-163.77 949.62,-146.61 980.9,-135.05"/>
<polygon fill="midnightblue" stroke="midnightblue" points="982.31,-138.26 990.48,-131.51 979.88,-131.69 982.31,-138.26"/>
</g>
<!-- Node18&#45;&gt;Node7 -->
<g id="edge27" class="edge">
<title>Node18&#45;&gt;Node7</title>
<path fill="none" stroke="midnightblue" d="M930.9,-56.32C921.04,-48.26 906.15,-36.08 894.28,-26.37"/>
<polygon fill="midnightblue" stroke="midnightblue" points="896.25,-23.46 886.3,-19.83 891.82,-28.88 896.25,-23.46"/>
</g>
<!-- Node19&#45;&gt;Node12 -->
<g id="edge30" class="edge">
<title>Node19&#45;&gt;Node12</title>
<path fill="none" stroke="midnightblue" d="M1024.59,-112.32C1034.99,-104.18 1050.76,-91.84 1063.22,-82.09"/>
<polygon fill="midnightblue" stroke="midnightblue" points="1065.49,-84.75 1071.21,-75.83 1061.18,-79.24 1065.49,-84.75"/>
</g>
<!-- Node20 -->
<g id="node20" class="node">
<title>Node20</title>
<g id="a_node20"><a xlink:title=" ">
<polygon fill="none" stroke="#bfbfbf" points="997.5,-56.5 997.5,-75.5 1029.5,-75.5 1029.5,-56.5 997.5,-56.5"/>
<text text-anchor="middle" x="1013.5" y="-63.5" font-family="Helvetica,sans-Serif" font-size="10.00">list</text>
</a>
</g>
</g>
<!-- Node19&#45;&gt;Node20 -->
<g id="edge29" class="edge">
<title>Node19&#45;&gt;Node20</title>
<path fill="none" stroke="midnightblue" d="M1013.5,-112.08C1013.5,-105.01 1013.5,-94.86 1013.5,-85.99"/>
<polygon fill="midnightblue" stroke="midnightblue" points="1017,-85.75 1013.5,-75.75 1010,-85.75 1017,-85.75"/>
</g>
</g>
</svg>
