<?xml version="1.0" encoding="UTF-8" standalone="no"?>
<!DOCTYPE svg PUBLIC "-//W3C//DTD SVG 1.1//EN"
 "http://www.w3.org/Graphics/SVG/1.1/DTD/svg11.dtd">
<!-- Generated by graphviz version 2.43.0 (0)
 -->
<!-- Title: CSVAdapter.cpp Pages: 1 -->
<!--zoomable 263 -->
<svg id="main" version="1.1" xmlns="http://www.w3.org/2000/svg" xmlns:xlink="http://www.w3.org/1999/xlink" xml:space="preserve" onload="init(evt)">
<style type="text/css"><![CDATA[
.edge:hover path { stroke: red; }
.edge:hover polygon { stroke: red; fill: red; }
]]></style>
<script type="text/javascript"><![CDATA[
var edges = document.getElementsByTagName('g');
if (edges && edges.length) {
  for (var i=0;i<edges.length;i++) {
    if (edges[i].id.substr(0,4)=='edge') {
      edges[i].setAttribute('class','edge');
    }
  }
}
]]></script>
        <defs>
                <circle id="rim" cx="0" cy="0" r="7"/>
                <circle id="rim2" cx="0" cy="0" r="3.5"/>
                <g id="zoomPlus">
                        <use xlink:href="#rim" fill="#404040">
                                <set attributeName="fill" to="#808080" begin="zoomplus.mouseover" end="zoomplus.mouseout"/>
                        </use>
                        <path d="M-4,0h8M0,-4v8" fill="none" stroke="white" stroke-width="1.5" pointer-events="none"/>
                </g>
                <g id="zoomMin">
                        <use xlink:href="#rim" fill="#404040">
                                <set attributeName="fill" to="#808080" begin="zoomminus.mouseover" end="zoomminus.mouseout"/>
                        </use>
                        <path d="M-4,0h8" fill="none" stroke="white" stroke-width="1.5" pointer-events="none"/>
                </g>
                <g id="dirArrow">
                        <path fill="none" stroke="white" stroke-width="1.5" d="M0,-3.0v7 M-2.5,-0.5L0,-3.0L2.5,-0.5"/>
                </g>
               <g id="resetDef">
                       <use xlink:href="#rim2" fill="#404040">
                               <set attributeName="fill" to="#808080" begin="reset.mouseover" end="reset.mouseout"/>
                       </use>
               </g>
        </defs>

<script type="text/javascript">
var viewWidth = 1779;
var viewHeight = 263;
var sectionId = 'dynsection-0';
</script>
<script xlink:href="svgpan.js"/>
<svg id="graph" class="graph">
<g id="viewport">
<title>CSVAdapter.cpp</title>
<!-- Node1 -->
<g id="node1" class="node">
<title>Node1</title>
<g id="a_node1"><a xlink:title="Implements the CSVAdapter behaviour defined in the corresponding header.">
<polygon fill="#bfbfbf" stroke="black" points="854,-235.5 854,-254.5 947,-254.5 947,-235.5 854,-235.5"/>
<text text-anchor="middle" x="900.5" y="-242.5" font-family="Helvetica,sans-Serif" font-size="10.00">CSVAdapter.cpp</text>
</a>
</g>
</g>
<!-- Node2 -->
<g id="node2" class="node">
<title>Node2</title>
<g id="a_node2"><a xlink:href="CSVAdapter_8h.html" target="_top" xlink:title="&#39;Adapter&#39; class that adapts CSVReaderWriter to FileAdapter.">
<polygon fill="none" stroke="black" points="1148,-118 1148,-137 1277,-137 1277,-118 1148,-118"/>
<text text-anchor="middle" x="1212.5" y="-125" font-family="Helvetica,sans-Serif" font-size="10.00">../include/CSVAdapter.h</text>
</a>
</g>
</g>
<!-- Node1&#45;&gt;Node2 -->
<g id="edge1" class="edge">
<title>Node1&#45;&gt;Node2</title>
<path fill="none" stroke="midnightblue" d="M947.03,-242.26C995.79,-238.83 1073.5,-228.7 1133.5,-199 1160.15,-185.8 1184.67,-161.13 1199.11,-144.75"/>
<polygon fill="midnightblue" stroke="midnightblue" points="1201.86,-146.93 1205.7,-137.05 1196.54,-142.38 1201.86,-146.93"/>
</g>
<!-- Node5 -->
<g id="node5" class="node">
<title>Node5</title>
<g id="a_node5"><a xlink:title=" ">
<polygon fill="none" stroke="#bfbfbf" points="1030.5,-56.5 1030.5,-75.5 1088.5,-75.5 1088.5,-56.5 1030.5,-56.5"/>
<text text-anchor="middle" x="1059.5" y="-63.5" font-family="Helvetica,sans-Serif" font-size="10.00">memory</text>
</a>
</g>
</g>
<!-- Node1&#45;&gt;Node5 -->
<g id="edge55" class="edge">
<title>Node1&#45;&gt;Node5</title>
<path fill="none" stroke="midnightblue" d="M939.01,-235.48C983.02,-223.41 1052.66,-196.54 1081.5,-143 1091.53,-124.37 1081.53,-100.65 1071.97,-84.7"/>
<polygon fill="midnightblue" stroke="midnightblue" points="1074.63,-82.38 1066.25,-75.89 1068.76,-86.19 1074.63,-82.38"/>
</g>
<!-- Node6 -->
<g id="node6" class="node">
<title>Node6</title>
<g id="a_node6"><a xlink:href="CSVReaderWriter_8h.html" target="_top" xlink:title="The &#39;Adaptee&#39; class for reading/writing CSV files.">
<polygon fill="none" stroke="black" points="1295.5,-118 1295.5,-137 1451.5,-137 1451.5,-118 1295.5,-118"/>
<text text-anchor="middle" x="1373.5" y="-125" font-family="Helvetica,sans-Serif" font-size="10.00">../include/CSVReaderWriter.h</text>
</a>
</g>
</g>
<!-- Node1&#45;&gt;Node6 -->
<g id="edge6" class="edge">
<title>Node1&#45;&gt;Node6</title>
<path fill="none" stroke="midnightblue" d="M947.38,-238.36C1000.19,-231.45 1088.34,-218.23 1162.5,-199 1188.49,-192.26 1194.08,-187.63 1219.5,-179 1259.77,-165.33 1306.17,-150.2 1337.42,-140.1"/>
<polygon fill="midnightblue" stroke="midnightblue" points="1338.57,-143.41 1347.01,-137 1336.42,-136.74 1338.57,-143.41"/>
</g>
<!-- Node9 -->
<g id="node9" class="node">
<title>Node9</title>
<g id="a_node9"><a xlink:href="Inventory_8h.html" target="_top" xlink:title="The &#39;ConcreteAggregate&#39; class.">
<polygon fill="none" stroke="black" points="1469.5,-118 1469.5,-137 1587.5,-137 1587.5,-118 1469.5,-118"/>
<text text-anchor="middle" x="1528.5" y="-125" font-family="Helvetica,sans-Serif" font-size="10.00">../include/Inventory.h</text>
</a>
</g>
</g>
<!-- Node1&#45;&gt;Node9 -->
<g id="edge10" class="edge">
<title>Node1&#45;&gt;Node9</title>
<path fill="none" stroke="midnightblue" d="M947.23,-240.73C1007.73,-235.67 1116.02,-223.83 1205.5,-199 1227.77,-192.82 1231.31,-185.46 1253.5,-179 1343.15,-152.88 1368.82,-160.74 1460.5,-143 1466.72,-141.8 1473.25,-140.48 1479.7,-139.14"/>
<polygon fill="midnightblue" stroke="midnightblue" points="1480.65,-142.52 1489.72,-137.04 1479.21,-135.67 1480.65,-142.52"/>
</g>
<!-- Node13 -->
<g id="node13" class="node">
<title>Node13</title>
<g id="a_node13"><a xlink:href="StockItem_8h.html" target="_top" xlink:title="Represents an inventory entry and observes plant availability.">
<polygon fill="none" stroke="black" points="463.5,-118 463.5,-137 585.5,-137 585.5,-118 463.5,-118"/>
<text text-anchor="middle" x="524.5" y="-125" font-family="Helvetica,sans-Serif" font-size="10.00">../include/StockItem.h</text>
</a>
</g>
</g>
<!-- Node1&#45;&gt;Node13 -->
<g id="edge17" class="edge">
<title>Node1&#45;&gt;Node13</title>
<path fill="none" stroke="midnightblue" d="M853.75,-238.29C808.69,-231.88 739.06,-219.59 681.5,-199 663.53,-192.57 660.74,-187.18 643.5,-179 614.09,-165.05 579.82,-150.7 555.62,-140.88"/>
<polygon fill="midnightblue" stroke="midnightblue" points="556.82,-137.59 546.24,-137.09 554.2,-144.08 556.82,-137.59"/>
</g>
<!-- Node16 -->
<g id="node16" class="node">
<title>Node16</title>
<g id="a_node16"><a xlink:href="InventoryIterator_8h.html" target="_top" xlink:title="The &#39;Iterator&#39; interface.">
<polygon fill="none" stroke="black" points="1262,-179.5 1262,-198.5 1417,-198.5 1417,-179.5 1262,-179.5"/>
<text text-anchor="middle" x="1339.5" y="-186.5" font-family="Helvetica,sans-Serif" font-size="10.00">../include/InventoryIterator.h</text>
</a>
</g>
</g>
<!-- Node1&#45;&gt;Node16 -->
<g id="edge22" class="edge">
<title>Node1&#45;&gt;Node16</title>
<path fill="none" stroke="midnightblue" d="M947.07,-238.27C1021.61,-229.1 1168.64,-211.02 1260.04,-199.77"/>
<polygon fill="midnightblue" stroke="midnightblue" points="1260.58,-203.23 1270.08,-198.54 1259.73,-196.29 1260.58,-203.23"/>
</g>
<!-- Node17 -->
<g id="node17" class="node">
<title>Node17</title>
<g id="a_node17"><a xlink:href="PlantPrototypeRegistry_8h.html" target="_top" xlink:title="Manages a set of clonable plant prototypes.">
<polygon fill="none" stroke="black" points="917.5,-112.5 917.5,-142.5 1053.5,-142.5 1053.5,-112.5 917.5,-112.5"/>
<text text-anchor="start" x="925.5" y="-130.5" font-family="Helvetica,sans-Serif" font-size="10.00">../include/PlantPrototype</text>
<text text-anchor="middle" x="985.5" y="-119.5" font-family="Helvetica,sans-Serif" font-size="10.00">Registry.h</text>
</a>
</g>
</g>
<!-- Node1&#45;&gt;Node17 -->
<g id="edge23" class="edge">
<title>Node1&#45;&gt;Node17</title>
<path fill="none" stroke="midnightblue" d="M928.25,-235.38C945.68,-228.45 966.97,-216.86 978.5,-199 987.22,-185.5 988.86,-167.41 988.38,-152.93"/>
<polygon fill="midnightblue" stroke="midnightblue" points="991.85,-152.44 987.68,-142.7 984.87,-152.92 991.85,-152.44"/>
</g>
<!-- Node19 -->
<g id="node19" class="node">
<title>Node19</title>
<g id="a_node19"><a xlink:href="PlantInstance_8h.html" target="_top" xlink:title="Represents a single, physical plant in the nursery.">
<polygon fill="none" stroke="black" points="831,-179.5 831,-198.5 970,-198.5 970,-179.5 831,-179.5"/>
<text text-anchor="middle" x="900.5" y="-186.5" font-family="Helvetica,sans-Serif" font-size="10.00">../include/PlantInstance.h</text>
</a>
</g>
</g>
<!-- Node1&#45;&gt;Node19 -->
<g id="edge27" class="edge">
<title>Node1&#45;&gt;Node19</title>
<path fill="none" stroke="midnightblue" d="M900.5,-235.08C900.5,-228.01 900.5,-217.86 900.5,-208.99"/>
<polygon fill="midnightblue" stroke="midnightblue" points="904,-208.75 900.5,-198.75 897,-208.75 904,-208.75"/>
</g>
<!-- Node21 -->
<g id="node21" class="node">
<title>Node21</title>
<g id="a_node21"><a xlink:href="PlantState_8h.html" target="_top" xlink:title="Abstract base class describing the lifecycle state of a plant.">
<polygon fill="none" stroke="black" points="293.5,-118 293.5,-137 369.5,-137 369.5,-118 293.5,-118"/>
<text text-anchor="middle" x="331.5" y="-125" font-family="Helvetica,sans-Serif" font-size="10.00">PlantState.h</text>
</a>
</g>
</g>
<!-- Node1&#45;&gt;Node21 -->
<g id="edge38" class="edge">
<title>Node1&#45;&gt;Node21</title>
<path fill="none" stroke="midnightblue" d="M853.75,-243.66C725.24,-242.24 373.78,-235.09 337.5,-199 324.2,-185.77 324.63,-163.23 327.15,-147.2"/>
<polygon fill="midnightblue" stroke="midnightblue" points="330.59,-147.82 329.08,-137.33 323.72,-146.47 330.59,-147.82"/>
</g>
<!-- Node24 -->
<g id="node24" class="node">
<title>Node24</title>
<g id="a_node24"><a xlink:href="SeedState_8h.html" target="_top" xlink:title="Concrete state representing a seed.">
<polygon fill="none" stroke="black" points="690.5,-179.5 690.5,-198.5 812.5,-198.5 812.5,-179.5 690.5,-179.5"/>
<text text-anchor="middle" x="751.5" y="-186.5" font-family="Helvetica,sans-Serif" font-size="10.00">../include/SeedState.h</text>
</a>
</g>
</g>
<!-- Node1&#45;&gt;Node24 -->
<g id="edge39" class="edge">
<title>Node1&#45;&gt;Node24</title>
<path fill="none" stroke="midnightblue" d="M876.89,-235.44C852.04,-226.44 812.73,-212.19 784.75,-202.05"/>
<polygon fill="midnightblue" stroke="midnightblue" points="785.59,-198.63 775,-198.52 783.21,-205.21 785.59,-198.63"/>
</g>
<!-- Node25 -->
<g id="node25" class="node">
<title>Node25</title>
<g id="a_node25"><a xlink:href="GrowingState_8h.html" target="_top" xlink:title="Concrete state representing a growing plant.">
<polygon fill="none" stroke="black" points="0,-179.5 0,-198.5 139,-198.5 139,-179.5 0,-179.5"/>
<text text-anchor="middle" x="69.5" y="-186.5" font-family="Helvetica,sans-Serif" font-size="10.00">../include/GrowingState.h</text>
</a>
</g>
</g>
<!-- Node1&#45;&gt;Node25 -->
<g id="edge42" class="edge">
<title>Node1&#45;&gt;Node25</title>
<path fill="none" stroke="midnightblue" d="M853.73,-242.1C736.8,-237.17 422.11,-222.71 149.32,-199.12"/>
<polygon fill="midnightblue" stroke="midnightblue" points="149.49,-195.62 139.22,-198.24 148.88,-202.59 149.49,-195.62"/>
</g>
<!-- Node26 -->
<g id="node26" class="node">
<title>Node26</title>
<g id="a_node26"><a xlink:href="MatureState_8h.html" target="_top" xlink:title="Concrete state representing a mature plant (ready for sale).">
<polygon fill="none" stroke="black" points="157,-179.5 157,-198.5 290,-198.5 290,-179.5 157,-179.5"/>
<text text-anchor="middle" x="223.5" y="-186.5" font-family="Helvetica,sans-Serif" font-size="10.00">../include/MatureState.h</text>
</a>
</g>
</g>
<!-- Node1&#45;&gt;Node26 -->
<g id="edge45" class="edge">
<title>Node1&#45;&gt;Node26</title>
<path fill="none" stroke="midnightblue" d="M853.7,-241.03C753.11,-234.52 508.81,-218.06 304.5,-199 303.19,-198.88 301.87,-198.75 300.54,-198.63"/>
<polygon fill="midnightblue" stroke="midnightblue" points="300.52,-195.11 290.23,-197.6 299.83,-202.07 300.52,-195.11"/>
</g>
<!-- Node27 -->
<g id="node27" class="node">
<title>Node27</title>
<g id="a_node27"><a xlink:href="WitheringState_8h.html" target="_top" xlink:title="Concrete state representing a withering plant (needs care).">
<polygon fill="none" stroke="black" points="346.5,-179.5 346.5,-198.5 492.5,-198.5 492.5,-179.5 346.5,-179.5"/>
<text text-anchor="middle" x="419.5" y="-186.5" font-family="Helvetica,sans-Serif" font-size="10.00">../include/WitheringState.h</text>
</a>
</g>
</g>
<!-- Node1&#45;&gt;Node27 -->
<g id="edge48" class="edge">
<title>Node1&#45;&gt;Node27</title>
<path fill="none" stroke="midnightblue" d="M853.94,-238.77C772.8,-229.66 604.43,-210.76 502.77,-199.35"/>
<polygon fill="midnightblue" stroke="midnightblue" points="502.87,-195.84 492.54,-198.2 502.09,-202.79 502.87,-195.84"/>
</g>
<!-- Node28 -->
<g id="node28" class="node">
<title>Node28</title>
<g id="a_node28"><a xlink:href="DeadState_8h.html" target="_top" xlink:title="Concrete state representing a dead plant.">
<polygon fill="none" stroke="black" points="510.5,-179.5 510.5,-198.5 634.5,-198.5 634.5,-179.5 510.5,-179.5"/>
<text text-anchor="middle" x="572.5" y="-186.5" font-family="Helvetica,sans-Serif" font-size="10.00">../include/DeadState.h</text>
</a>
</g>
</g>
<!-- Node1&#45;&gt;Node28 -->
<g id="edge51" class="edge">
<title>Node1&#45;&gt;Node28</title>
<path fill="none" stroke="midnightblue" d="M853.85,-236.32C796.27,-226.84 698.15,-210.69 634.33,-200.18"/>
<polygon fill="midnightblue" stroke="midnightblue" points="634.83,-196.72 624.4,-198.54 633.7,-203.62 634.83,-196.72"/>
</g>
<!-- Node29 -->
<g id="node29" class="node">
<title>Node29</title>
<g id="a_node29"><a xlink:title=" ">
<polygon fill="none" stroke="#bfbfbf" points="1435.5,-179.5 1435.5,-198.5 1495.5,-198.5 1495.5,-179.5 1435.5,-179.5"/>
<text text-anchor="middle" x="1465.5" y="-186.5" font-family="Helvetica,sans-Serif" font-size="10.00">iostream</text>
</a>
</g>
</g>
<!-- Node1&#45;&gt;Node29 -->
<g id="edge54" class="edge">
<title>Node1&#45;&gt;Node29</title>
<path fill="none" stroke="midnightblue" d="M947.21,-242.22C1037.69,-238.3 1243.25,-227.05 1425.32,-198.97"/>
<polygon fill="midnightblue" stroke="midnightblue" points="1426.01,-202.4 1435.35,-197.4 1424.93,-195.49 1426.01,-202.4"/>
</g>
<!-- Node3 -->
<g id="node3" class="node">
<title>Node3</title>
<g id="a_node3"><a xlink:href="FileAdapter_8h.html" target="_top" xlink:title="The &#39;Target&#39; interface for the Adapter pattern.">
<polygon fill="none" stroke="black" points="1106.5,-56.5 1106.5,-75.5 1186.5,-75.5 1186.5,-56.5 1106.5,-56.5"/>
<text text-anchor="middle" x="1146.5" y="-63.5" font-family="Helvetica,sans-Serif" font-size="10.00">FileAdapter.h</text>
</a>
</g>
</g>
<!-- Node2&#45;&gt;Node3 -->
<g id="edge2" class="edge">
<title>Node2&#45;&gt;Node3</title>
<path fill="none" stroke="midnightblue" d="M1203.04,-117.98C1192.75,-108.7 1176.08,-93.67 1163.51,-82.33"/>
<polygon fill="midnightblue" stroke="midnightblue" points="1165.71,-79.61 1155.94,-75.51 1161.02,-84.8 1165.71,-79.61"/>
</g>
<!-- Node4 -->
<g id="node4" class="node">
<title>Node4</title>
<g id="a_node4"><a xlink:title=" ">
<polygon fill="none" stroke="#bfbfbf" points="671.5,-0.5 671.5,-19.5 715.5,-19.5 715.5,-0.5 671.5,-0.5"/>
<text text-anchor="middle" x="693.5" y="-7.5" font-family="Helvetica,sans-Serif" font-size="10.00">string</text>
</a>
</g>
</g>
<!-- Node2&#45;&gt;Node4 -->
<g id="edge4" class="edge">
<title>Node2&#45;&gt;Node4</title>
<path fill="none" stroke="midnightblue" d="M1213.3,-117.97C1214.2,-102.89 1213.61,-71.63 1195.5,-56 1159.95,-25.33 831.15,-14.46 725.81,-11.74"/>
<polygon fill="midnightblue" stroke="midnightblue" points="725.85,-8.24 715.77,-11.49 725.68,-15.24 725.85,-8.24"/>
</g>
<!-- Node2&#45;&gt;Node5 -->
<g id="edge5" class="edge">
<title>Node2&#45;&gt;Node5</title>
<path fill="none" stroke="midnightblue" d="M1190.58,-117.98C1164.45,-107.81 1120.59,-90.76 1090.87,-79.2"/>
<polygon fill="midnightblue" stroke="midnightblue" points="1091.97,-75.87 1081.38,-75.51 1089.43,-82.4 1091.97,-75.87"/>
</g>
<!-- Node3&#45;&gt;Node4 -->
<g id="edge3" class="edge">
<title>Node3&#45;&gt;Node4</title>
<path fill="none" stroke="midnightblue" d="M1106.43,-57.4C1103.41,-56.9 1100.41,-56.43 1097.5,-56 959.98,-35.74 794.92,-20.02 726.11,-13.84"/>
<polygon fill="midnightblue" stroke="midnightblue" points="726.18,-10.34 715.91,-12.94 725.56,-17.31 726.18,-10.34"/>
</g>
<!-- Node6&#45;&gt;Node4 -->
<g id="edge8" class="edge">
<title>Node6&#45;&gt;Node4</title>
<path fill="none" stroke="midnightblue" d="M1367.71,-117.83C1356.73,-102.23 1331.21,-69.75 1300.5,-56 1196.43,-9.4 836.44,-9.39 725.98,-10.53"/>
<polygon fill="midnightblue" stroke="midnightblue" points="725.76,-7.04 715.8,-10.65 725.84,-14.04 725.76,-7.04"/>
</g>
<!-- Node7 -->
<g id="node7" class="node">
<title>Node7</title>
<g id="a_node7"><a xlink:title=" ">
<polygon fill="none" stroke="#bfbfbf" points="1348,-56.5 1348,-75.5 1395,-75.5 1395,-56.5 1348,-56.5"/>
<text text-anchor="middle" x="1371.5" y="-63.5" font-family="Helvetica,sans-Serif" font-size="10.00">vector</text>
</a>
</g>
</g>
<!-- Node6&#45;&gt;Node7 -->
<g id="edge7" class="edge">
<title>Node6&#45;&gt;Node7</title>
<path fill="none" stroke="midnightblue" d="M1373.21,-117.98C1372.93,-109.58 1372.49,-96.48 1372.13,-85.66"/>
<polygon fill="midnightblue" stroke="midnightblue" points="1375.62,-85.39 1371.79,-75.51 1368.62,-85.62 1375.62,-85.39"/>
</g>
<!-- Node8 -->
<g id="node8" class="node">
<title>Node8</title>
<g id="a_node8"><a xlink:title=" ">
<polygon fill="none" stroke="#bfbfbf" points="1246,-56.5 1246,-75.5 1291,-75.5 1291,-56.5 1246,-56.5"/>
<text text-anchor="middle" x="1268.5" y="-63.5" font-family="Helvetica,sans-Serif" font-size="10.00">utility</text>
</a>
</g>
</g>
<!-- Node6&#45;&gt;Node8 -->
<g id="edge9" class="edge">
<title>Node6&#45;&gt;Node8</title>
<path fill="none" stroke="midnightblue" d="M1358.46,-117.98C1341.22,-108.21 1312.76,-92.08 1292.47,-80.58"/>
<polygon fill="midnightblue" stroke="midnightblue" points="1293.94,-77.39 1283.52,-75.51 1290.49,-83.48 1293.94,-77.39"/>
</g>
<!-- Node9&#45;&gt;Node4 -->
<g id="edge13" class="edge">
<title>Node9&#45;&gt;Node4</title>
<path fill="none" stroke="midnightblue" d="M1587.79,-126.06C1672.51,-123.55 1812.46,-111.24 1759.5,-56 1722.85,-17.77 900.84,-11.93 726.01,-11.12"/>
<polygon fill="midnightblue" stroke="midnightblue" points="725.9,-7.62 715.89,-11.08 725.87,-14.62 725.9,-7.62"/>
</g>
<!-- Node9&#45;&gt;Node5 -->
<g id="edge14" class="edge">
<title>Node9&#45;&gt;Node5</title>
<path fill="none" stroke="midnightblue" d="M1492.29,-118C1482.05,-115.81 1470.88,-113.62 1460.5,-112 1303.59,-87.57 1259.21,-102.12 1099.09,-76.06"/>
<polygon fill="midnightblue" stroke="midnightblue" points="1099.32,-72.55 1088.88,-74.37 1098.17,-79.45 1099.32,-72.55"/>
</g>
<!-- Node9&#45;&gt;Node7 -->
<g id="edge12" class="edge">
<title>Node9&#45;&gt;Node7</title>
<path fill="none" stroke="midnightblue" d="M1506.01,-117.98C1479.19,-107.81 1434.18,-90.76 1403.69,-79.2"/>
<polygon fill="midnightblue" stroke="midnightblue" points="1404.54,-75.78 1393.95,-75.51 1402.06,-82.33 1404.54,-75.78"/>
</g>
<!-- Node10 -->
<g id="node10" class="node">
<title>Node10</title>
<g id="a_node10"><a xlink:href="InventoryCollection_8h.html" target="_top" xlink:title="The &#39;Aggregate&#39; interface.">
<polygon fill="none" stroke="black" points="1629,-56.5 1629,-75.5 1750,-75.5 1750,-56.5 1629,-56.5"/>
<text text-anchor="middle" x="1689.5" y="-63.5" font-family="Helvetica,sans-Serif" font-size="10.00">InventoryCollection.h</text>
</a>
</g>
</g>
<!-- Node9&#45;&gt;Node10 -->
<g id="edge11" class="edge">
<title>Node9&#45;&gt;Node10</title>
<path fill="none" stroke="midnightblue" d="M1551.57,-117.98C1579.18,-107.77 1625.62,-90.61 1656.9,-79.05"/>
<polygon fill="midnightblue" stroke="midnightblue" points="1658.31,-82.26 1666.48,-75.51 1655.88,-75.69 1658.31,-82.26"/>
</g>
<!-- Node11 -->
<g id="node11" class="node">
<title>Node11</title>
<g id="a_node11"><a xlink:title=" ">
<polygon fill="none" stroke="#bfbfbf" points="1413,-56.5 1413,-75.5 1506,-75.5 1506,-56.5 1413,-56.5"/>
<text text-anchor="middle" x="1459.5" y="-63.5" font-family="Helvetica,sans-Serif" font-size="10.00">unordered_map</text>
</a>
</g>
</g>
<!-- Node9&#45;&gt;Node11 -->
<g id="edge15" class="edge">
<title>Node9&#45;&gt;Node11</title>
<path fill="none" stroke="midnightblue" d="M1518.61,-117.98C1507.85,-108.7 1490.43,-93.67 1477.28,-82.33"/>
<polygon fill="midnightblue" stroke="midnightblue" points="1479.23,-79.39 1469.37,-75.51 1474.66,-84.69 1479.23,-79.39"/>
</g>
<!-- Node12 -->
<g id="node12" class="node">
<title>Node12</title>
<g id="a_node12"><a xlink:title=" ">
<polygon fill="none" stroke="#bfbfbf" points="1524.5,-56.5 1524.5,-75.5 1610.5,-75.5 1610.5,-56.5 1524.5,-56.5"/>
<text text-anchor="middle" x="1567.5" y="-63.5" font-family="Helvetica,sans-Serif" font-size="10.00">unordered_set</text>
</a>
</g>
</g>
<!-- Node9&#45;&gt;Node12 -->
<g id="edge16" class="edge">
<title>Node9&#45;&gt;Node12</title>
<path fill="none" stroke="midnightblue" d="M1534.09,-117.98C1539.88,-109.14 1549.09,-95.09 1556.37,-83.98"/>
<polygon fill="midnightblue" stroke="midnightblue" points="1559.37,-85.79 1561.92,-75.51 1553.51,-81.95 1559.37,-85.79"/>
</g>
<!-- Node13&#45;&gt;Node4 -->
<g id="edge18" class="edge">
<title>Node13&#45;&gt;Node4</title>
<path fill="none" stroke="midnightblue" d="M523.29,-117.9C521.76,-103.26 520.93,-73.39 536.5,-56 553.07,-37.49 620.53,-23.23 661.43,-16.08"/>
<polygon fill="midnightblue" stroke="midnightblue" points="662.19,-19.5 671.46,-14.38 661.02,-12.6 662.19,-19.5"/>
</g>
<!-- Node14 -->
<g id="node14" class="node">
<title>Node14</title>
<g id="a_node14"><a xlink:href="Observer_8h.html" target="_top" xlink:title="Declares the Observer contract and shared event payload.">
<polygon fill="none" stroke="black" points="546,-56.5 546,-75.5 615,-75.5 615,-56.5 546,-56.5"/>
<text text-anchor="middle" x="580.5" y="-63.5" font-family="Helvetica,sans-Serif" font-size="10.00">Observer.h</text>
</a>
</g>
</g>
<!-- Node13&#45;&gt;Node14 -->
<g id="edge19" class="edge">
<title>Node13&#45;&gt;Node14</title>
<path fill="none" stroke="midnightblue" d="M532.52,-117.98C541.09,-108.87 554.86,-94.24 565.46,-82.98"/>
<polygon fill="midnightblue" stroke="midnightblue" points="568.19,-85.19 572.49,-75.51 563.09,-80.39 568.19,-85.19"/>
</g>
<!-- Node14&#45;&gt;Node4 -->
<g id="edge21" class="edge">
<title>Node14&#45;&gt;Node4</title>
<path fill="none" stroke="midnightblue" d="M598.41,-56.44C616.75,-47.68 645.51,-33.94 666.59,-23.86"/>
<polygon fill="midnightblue" stroke="midnightblue" points="668.17,-26.99 675.68,-19.52 665.15,-20.67 668.17,-26.99"/>
</g>
<!-- Node15 -->
<g id="node15" class="node">
<title>Node15</title>
<g id="a_node15"><a xlink:title=" ">
<polygon fill="none" stroke="#bfbfbf" points="552.5,-0.5 552.5,-19.5 608.5,-19.5 608.5,-0.5 552.5,-0.5"/>
<text text-anchor="middle" x="580.5" y="-7.5" font-family="Helvetica,sans-Serif" font-size="10.00">optional</text>
</a>
</g>
</g>
<!-- Node14&#45;&gt;Node15 -->
<g id="edge20" class="edge">
<title>Node14&#45;&gt;Node15</title>
<path fill="none" stroke="midnightblue" d="M580.5,-56.08C580.5,-49.01 580.5,-38.86 580.5,-29.99"/>
<polygon fill="midnightblue" stroke="midnightblue" points="584,-29.75 580.5,-19.75 577,-29.75 584,-29.75"/>
</g>
<!-- Node17&#45;&gt;Node4 -->
<g id="edge25" class="edge">
<title>Node17&#45;&gt;Node4</title>
<path fill="none" stroke="midnightblue" d="M985.91,-112.3C985.54,-96.18 982.29,-70.29 966.5,-56 931.58,-24.4 789.99,-14.81 725.62,-12.05"/>
<polygon fill="midnightblue" stroke="midnightblue" points="725.76,-8.55 715.62,-11.65 725.48,-15.55 725.76,-8.55"/>
</g>
<!-- Node17&#45;&gt;Node5 -->
<g id="edge26" class="edge">
<title>Node17&#45;&gt;Node5</title>
<path fill="none" stroke="midnightblue" d="M1003.04,-112.4C1014.34,-103.31 1029.04,-91.49 1040.61,-82.19"/>
<polygon fill="midnightblue" stroke="midnightblue" points="1043.13,-84.65 1048.73,-75.66 1038.75,-79.2 1043.13,-84.65"/>
</g>
<!-- Node18 -->
<g id="node18" class="node">
<title>Node18</title>
<g id="a_node18"><a xlink:title=" ">
<polygon fill="none" stroke="#bfbfbf" points="919.5,-56.5 919.5,-75.5 957.5,-75.5 957.5,-56.5 919.5,-56.5"/>
<text text-anchor="middle" x="938.5" y="-63.5" font-family="Helvetica,sans-Serif" font-size="10.00">map</text>
</a>
</g>
</g>
<!-- Node17&#45;&gt;Node18 -->
<g id="edge24" class="edge">
<title>Node17&#45;&gt;Node18</title>
<path fill="none" stroke="midnightblue" d="M974.36,-112.4C967.53,-103.75 958.76,-92.64 951.59,-83.58"/>
<polygon fill="midnightblue" stroke="midnightblue" points="954.28,-81.34 945.34,-75.66 948.79,-85.67 954.28,-81.34"/>
</g>
<!-- Node19&#45;&gt;Node4 -->
<g id="edge37" class="edge">
<title>Node19&#45;&gt;Node4</title>
<path fill="none" stroke="midnightblue" d="M830.82,-180.02C803.12,-173.79 772.64,-162.7 750.5,-143 749.35,-141.98 716.35,-64.68 701.1,-28.86"/>
<polygon fill="midnightblue" stroke="midnightblue" points="704.28,-27.41 697.15,-19.58 697.84,-30.15 704.28,-27.41"/>
</g>
<!-- Node19&#45;&gt;Node5 -->
<g id="edge36" class="edge">
<title>Node19&#45;&gt;Node5</title>
<path fill="none" stroke="midnightblue" d="M958.24,-179.46C999.42,-172.05 1049.69,-159.85 1062.5,-143 1074.95,-126.62 1071.13,-102.01 1066.24,-85.27"/>
<polygon fill="midnightblue" stroke="midnightblue" points="1069.49,-83.96 1063.02,-75.57 1062.84,-86.16 1069.49,-83.96"/>
</g>
<!-- Node20 -->
<g id="node20" class="node">
<title>Node20</title>
<g id="a_node20"><a xlink:href="GreenhouseComponent_8h.html" target="_top" xlink:title="The abstract &#39;Component&#39; interface for the Composite pattern.">
<polygon fill="none" stroke="black" points="759.5,-118 759.5,-137 899.5,-137 899.5,-118 759.5,-118"/>
<text text-anchor="middle" x="829.5" y="-125" font-family="Helvetica,sans-Serif" font-size="10.00">GreenhouseComponent.h</text>
</a>
</g>
</g>
<!-- Node19&#45;&gt;Node20 -->
<g id="edge28" class="edge">
<title>Node19&#45;&gt;Node20</title>
<path fill="none" stroke="midnightblue" d="M890.33,-179.48C879.15,-170.11 860.98,-154.88 847.41,-143.51"/>
<polygon fill="midnightblue" stroke="midnightblue" points="849.57,-140.75 839.65,-137.01 845.07,-146.11 849.57,-140.75"/>
</g>
<!-- Node19&#45;&gt;Node21 -->
<g id="edge31" class="edge">
<title>Node19&#45;&gt;Node21</title>
<path fill="none" stroke="midnightblue" d="M830.72,-179.99C827.6,-179.65 824.52,-179.32 821.5,-179 658.52,-161.72 617.45,-160.59 454.5,-143 429.84,-140.34 402.44,-137.13 379.76,-134.41"/>
<polygon fill="midnightblue" stroke="midnightblue" points="380.05,-130.92 369.71,-133.2 379.22,-137.87 380.05,-130.92"/>
</g>
<!-- Node22 -->
<g id="node22" class="node">
<title>Node22</title>
<g id="a_node22"><a xlink:href="Subject_8h.html" target="_top" xlink:title="Declares the Subject base that manages observer subscriptions.">
<polygon fill="none" stroke="black" points="603.5,-118 603.5,-137 665.5,-137 665.5,-118 603.5,-118"/>
<text text-anchor="middle" x="634.5" y="-125" font-family="Helvetica,sans-Serif" font-size="10.00">Subject.h</text>
</a>
</g>
</g>
<!-- Node19&#45;&gt;Node22 -->
<g id="edge33" class="edge">
<title>Node19&#45;&gt;Node22</title>
<path fill="none" stroke="midnightblue" d="M862.39,-179.48C812.93,-168.41 726.95,-149.18 675.92,-137.76"/>
<polygon fill="midnightblue" stroke="midnightblue" points="676.42,-134.29 665.89,-135.52 674.89,-141.12 676.42,-134.29"/>
</g>
<!-- Node20&#45;&gt;Node4 -->
<g id="edge30" class="edge">
<title>Node20&#45;&gt;Node4</title>
<path fill="none" stroke="midnightblue" d="M819.28,-117.82C796.34,-98.34 740.51,-50.92 711.57,-26.34"/>
<polygon fill="midnightblue" stroke="midnightblue" points="713.73,-23.59 703.84,-19.78 709.2,-28.92 713.73,-23.59"/>
</g>
<!-- Node20&#45;&gt;Node5 -->
<g id="edge29" class="edge">
<title>Node20&#45;&gt;Node5</title>
<path fill="none" stroke="midnightblue" d="M862.45,-117.98C904.17,-107.18 975.94,-88.62 1020.39,-77.12"/>
<polygon fill="midnightblue" stroke="midnightblue" points="1021.45,-80.46 1030.25,-74.57 1019.69,-73.68 1021.45,-80.46"/>
</g>
<!-- Node21&#45;&gt;Node4 -->
<g id="edge32" class="edge">
<title>Node21&#45;&gt;Node4</title>
<path fill="none" stroke="midnightblue" d="M335.14,-117.82C342.07,-102.49 358.71,-70.85 383.5,-56 395.36,-48.89 584.13,-24.66 661.15,-15.01"/>
<polygon fill="midnightblue" stroke="midnightblue" points="661.76,-18.47 671.25,-13.75 660.89,-11.52 661.76,-18.47"/>
</g>
<!-- Node22&#45;&gt;Node14 -->
<g id="edge35" class="edge">
<title>Node22&#45;&gt;Node14</title>
<path fill="none" stroke="midnightblue" d="M626.76,-117.98C618.5,-108.87 605.22,-94.24 595.01,-82.98"/>
<polygon fill="midnightblue" stroke="midnightblue" points="597.53,-80.56 588.22,-75.51 592.35,-85.27 597.53,-80.56"/>
</g>
<!-- Node23 -->
<g id="node23" class="node">
<title>Node23</title>
<g id="a_node23"><a xlink:title=" ">
<polygon fill="none" stroke="#bfbfbf" points="633.5,-56.5 633.5,-75.5 665.5,-75.5 665.5,-56.5 633.5,-56.5"/>
<text text-anchor="middle" x="649.5" y="-63.5" font-family="Helvetica,sans-Serif" font-size="10.00">list</text>
</a>
</g>
</g>
<!-- Node22&#45;&gt;Node23 -->
<g id="edge34" class="edge">
<title>Node22&#45;&gt;Node23</title>
<path fill="none" stroke="midnightblue" d="M636.65,-117.98C638.79,-109.49 642.14,-96.2 644.88,-85.32"/>
<polygon fill="midnightblue" stroke="midnightblue" points="648.3,-86.06 647.35,-75.51 641.52,-84.35 648.3,-86.06"/>
</g>
<!-- Node24&#45;&gt;Node4 -->
<g id="edge41" class="edge">
<title>Node24&#45;&gt;Node4</title>
<path fill="none" stroke="midnightblue" d="M743.1,-179.49C735.21,-170.99 723.72,-157.17 717.5,-143 700.87,-105.1 695.76,-56.21 694.2,-29.85"/>
<polygon fill="midnightblue" stroke="midnightblue" points="697.68,-29.56 693.71,-19.74 690.69,-29.9 697.68,-29.56"/>
</g>
<!-- Node24&#45;&gt;Node21 -->
<g id="edge40" class="edge">
<title>Node24&#45;&gt;Node21</title>
<path fill="none" stroke="midnightblue" d="M691.32,-179.48C607.32,-167.57 456.56,-146.22 379.58,-135.31"/>
<polygon fill="midnightblue" stroke="midnightblue" points="380.06,-131.85 369.67,-133.91 379.08,-138.78 380.06,-131.85"/>
</g>
<!-- Node25&#45;&gt;Node4 -->
<g id="edge44" class="edge">
<title>Node25&#45;&gt;Node4</title>
<path fill="none" stroke="midnightblue" d="M81.84,-179.38C117.13,-155.22 222.26,-86.62 320.5,-56 324.57,-54.73 571.18,-25.47 661.13,-14.83"/>
<polygon fill="midnightblue" stroke="midnightblue" points="661.77,-18.28 671.29,-13.63 660.95,-11.32 661.77,-18.28"/>
</g>
<!-- Node25&#45;&gt;Node21 -->
<g id="edge43" class="edge">
<title>Node25&#45;&gt;Node21</title>
<path fill="none" stroke="midnightblue" d="M107.04,-179.48C153.73,-168.87 233.48,-150.76 284.28,-139.22"/>
<polygon fill="midnightblue" stroke="midnightblue" points="285.05,-142.64 294.03,-137.01 283.5,-135.81 285.05,-142.64"/>
</g>
<!-- Node26&#45;&gt;Node4 -->
<g id="edge47" class="edge">
<title>Node26&#45;&gt;Node4</title>
<path fill="none" stroke="midnightblue" d="M228.84,-179.28C244.78,-154.24 294.85,-82.21 358.5,-56 372.44,-50.26 579.91,-24.73 661.19,-14.89"/>
<polygon fill="midnightblue" stroke="midnightblue" points="661.84,-18.34 671.34,-13.66 661,-11.39 661.84,-18.34"/>
</g>
<!-- Node26&#45;&gt;Node21 -->
<g id="edge46" class="edge">
<title>Node26&#45;&gt;Node21</title>
<path fill="none" stroke="midnightblue" d="M238.97,-179.48C256.78,-169.67 286.24,-153.43 307.13,-141.92"/>
<polygon fill="midnightblue" stroke="midnightblue" points="308.99,-144.9 316.05,-137.01 305.61,-138.77 308.99,-144.9"/>
</g>
<!-- Node27&#45;&gt;Node4 -->
<g id="edge50" class="edge">
<title>Node27&#45;&gt;Node4</title>
<path fill="none" stroke="midnightblue" d="M420.6,-179.33C424.19,-155.02 437.96,-86.07 481.5,-56 510.32,-36.1 609.35,-21.34 661.22,-14.78"/>
<polygon fill="midnightblue" stroke="midnightblue" points="661.74,-18.24 671.23,-13.54 660.88,-11.29 661.74,-18.24"/>
</g>
<!-- Node27&#45;&gt;Node21 -->
<g id="edge49" class="edge">
<title>Node27&#45;&gt;Node21</title>
<path fill="none" stroke="midnightblue" d="M406.89,-179.48C392.78,-169.93 369.67,-154.31 352.75,-142.87"/>
<polygon fill="midnightblue" stroke="midnightblue" points="354.33,-139.71 344.08,-137.01 350.41,-145.51 354.33,-139.71"/>
</g>
<!-- Node28&#45;&gt;Node4 -->
<g id="edge53" class="edge">
<title>Node28&#45;&gt;Node4</title>
<path fill="none" stroke="midnightblue" d="M512.02,-179.47C490.18,-173.14 467.68,-162.14 454.5,-143 446.68,-131.65 448.58,-124.44 454.5,-112 471.48,-76.34 488.29,-73.9 523.5,-56 568.27,-33.24 625.69,-21.15 661.02,-15.42"/>
<polygon fill="midnightblue" stroke="midnightblue" points="661.89,-18.82 671.24,-13.84 660.82,-11.91 661.89,-18.82"/>
</g>
<!-- Node28&#45;&gt;Node21 -->
<g id="edge52" class="edge">
<title>Node28&#45;&gt;Node21</title>
<path fill="none" stroke="midnightblue" d="M537.97,-179.48C495.29,-168.94 422.58,-150.99 375.82,-139.44"/>
<polygon fill="midnightblue" stroke="midnightblue" points="376.51,-136.01 365.97,-137.01 374.83,-142.8 376.51,-136.01"/>
</g>
</g>
</svg>
        <g id="navigator" transform="translate(0 0)" fill="#404254">
                <rect fill="#f2f5e9" fill-opacity="0.5" stroke="#606060" stroke-width=".5" x="0" y="0" width="60" height="60"/>
                <use id="zoomplus" xlink:href="#zoomPlus" x="17" y="9" onmousedown="handleZoom(evt,'in')"/>
                <use id="zoomminus" xlink:href="#zoomMin" x="42" y="9" onmousedown="handleZoom(evt,'out')"/>
                <use id="reset" xlink:href="#resetDef" x="30" y="36" onmousedown="handleReset()"/>
                <g id="arrowUp" xlink:href="#dirArrow" transform="translate(30 24)" onmousedown="handlePan(0,-1)">
                  <use xlink:href="#rim" fill="#404040">
                        <set attributeName="fill" to="#808080" begin="arrowUp.mouseover" end="arrowUp.mouseout"/>
                  </use>
                  <path fill="none" stroke="white" stroke-width="1.5" d="M0,-3.0v7 M-2.5,-0.5L0,-3.0L2.5,-0.5"/>
                </g>
                <g id="arrowRight" xlink:href="#dirArrow" transform="rotate(90) translate(36 -43)" onmousedown="handlePan(1,0)">
                  <use xlink:href="#rim" fill="#404040">
                        <set attributeName="fill" to="#808080" begin="arrowRight.mouseover" end="arrowRight.mouseout"/>
                  </use>
                  <path fill="none" stroke="white" stroke-width="1.5" d="M0,-3.0v7 M-2.5,-0.5L0,-3.0L2.5,-0.5"/>
                </g>
                <g id="arrowDown" xlink:href="#dirArrow" transform="rotate(180) translate(-30 -48)" onmousedown="handlePan(0,1)">
                  <use xlink:href="#rim" fill="#404040">
                        <set attributeName="fill" to="#808080" begin="arrowDown.mouseover" end="arrowDown.mouseout"/>
                  </use>
                  <path fill="none" stroke="white" stroke-width="1.5" d="M0,-3.0v7 M-2.5,-0.5L0,-3.0L2.5,-0.5"/>
                </g>
                <g id="arrowLeft" xlink:href="#dirArrow" transform="rotate(270) translate(-36 17)" onmousedown="handlePan(-1,0)">
                  <use xlink:href="#rim" fill="#404040">
                        <set attributeName="fill" to="#808080" begin="arrowLeft.mouseover" end="arrowLeft.mouseout"/>
                  </use>
                  <path fill="none" stroke="white" stroke-width="1.5" d="M0,-3.0v7 M-2.5,-0.5L0,-3.0L2.5,-0.5"/>
                </g>
        </g>
        <svg viewBox="0 0 15 15" width="100%" height="30px" preserveAspectRatio="xMaxYMin meet">
         <g id="arrow_out" transform="scale(0.3 0.3)">
          <a xlink:href="CSVAdapter_8cpp__incl_org.svg" target="_base">
           <rect id="button" ry="5" rx="5" y="6" x="6" height="38" width="38"
                fill="#f2f5e9" fill-opacity="0.5" stroke="#606060" stroke-width="1.0"/>
           <path id="arrow"
             d="M 11.500037,31.436501 C 11.940474,20.09759 22.043105,11.32322 32.158766,21.979434 L 37.068811,17.246167 C 37.068811,17.246167 37.088388,32 37.088388,32 L 22.160133,31.978069 C 22.160133,31.978069 26.997745,27.140456 26.997745,27.140456 C 18.528582,18.264221 13.291696,25.230495 11.500037,31.436501 z"
             style="fill:#404040;"/>
          </a>
         </g>
        </svg>
</svg>
