<?xml version="1.0" encoding="UTF-8" standalone="no"?>
<!DOCTYPE svg PUBLIC "-//W3C//DTD SVG 1.1//EN"
 "http://www.w3.org/Graphics/SVG/1.1/DTD/svg11.dtd">
<!-- Generated by graphviz version 2.43.0 (0)
 -->
<!-- Title: CSVAdapter.h Pages: 1 -->
<svg width="202pt" height="140pt"
 viewBox="0.00 0.00 202.00 140.00" xmlns="http://www.w3.org/2000/svg" xmlns:xlink="http://www.w3.org/1999/xlink">
<g id="graph0" class="graph" transform="scale(1 1) rotate(0) translate(4 136)">
<title>CSVAdapter.h</title>
<!-- Node1 -->
<g id="node1" class="node">
<title>Node1</title>
<g id="a_node1"><a xlink:title="&#39;Adapter&#39; class that adapts CSVReaderWriter to FileAdapter.">
<polygon fill="#bfbfbf" stroke="black" points="67,-112.5 67,-131.5 149,-131.5 149,-112.5 67,-112.5"/>
<text text-anchor="middle" x="108" y="-119.5" font-family="Helvetica,sans-Serif" font-size="10.00">CSVAdapter.h</text>
</a>
</g>
</g>
<!-- Node2 -->
<g id="node2" class="node">
<title>Node2</title>
<g id="a_node2"><a xlink:href="FileAdapter_8h.html" target="_top" xlink:title="The &#39;Target&#39; interface for the Adapter pattern.">
<polygon fill="none" stroke="black" points="0,-56.5 0,-75.5 80,-75.5 80,-56.5 0,-56.5"/>
<text text-anchor="middle" x="40" y="-63.5" font-family="Helvetica,sans-Serif" font-size="10.00">FileAdapter.h</text>
</a>
</g>
</g>
<!-- Node1&#45;&gt;Node2 -->
<g id="edge1" class="edge">
<title>Node1&#45;&gt;Node2</title>
<path fill="none" stroke="midnightblue" d="M97.07,-112.32C86.83,-104.18 71.28,-91.84 59,-82.09"/>
<polygon fill="midnightblue" stroke="midnightblue" points="61.13,-79.31 51.12,-75.83 56.78,-84.79 61.13,-79.31"/>
</g>
<!-- Node3 -->
<g id="node3" class="node">
<title>Node3</title>
<g id="a_node3"><a xlink:title=" ">
<polygon fill="none" stroke="#bfbfbf" points="52,-0.5 52,-19.5 96,-19.5 96,-0.5 52,-0.5"/>
<text text-anchor="middle" x="74" y="-7.5" font-family="Helvetica,sans-Serif" font-size="10.00">string</text>
</a>
</g>
</g>
<!-- Node1&#45;&gt;Node3 -->
<g id="edge3" class="edge">
<title>Node1&#45;&gt;Node3</title>
<path fill="none" stroke="midnightblue" d="M105.52,-112.14C101.99,-99.6 95.25,-75.97 89,-56 86.23,-47.15 83,-37.37 80.24,-29.2"/>
<polygon fill="midnightblue" stroke="midnightblue" points="83.51,-27.94 76.97,-19.6 76.88,-30.19 83.51,-27.94"/>
</g>
<!-- Node4 -->
<g id="node4" class="node">
<title>Node4</title>
<g id="a_node4"><a xlink:title=" ">
<polygon fill="none" stroke="#bfbfbf" points="136,-56.5 136,-75.5 194,-75.5 194,-56.5 136,-56.5"/>
<text text-anchor="middle" x="165" y="-63.5" font-family="Helvetica,sans-Serif" font-size="10.00">memory</text>
</a>
</g>
</g>
<!-- Node1&#45;&gt;Node4 -->
<g id="edge4" class="edge">
<title>Node1&#45;&gt;Node4</title>
<path fill="none" stroke="midnightblue" d="M117.16,-112.32C125.5,-104.42 138.03,-92.55 148.18,-82.94"/>
<polygon fill="midnightblue" stroke="midnightblue" points="150.82,-85.25 155.68,-75.83 146.01,-80.17 150.82,-85.25"/>
</g>
<!-- Node2&#45;&gt;Node3 -->
<g id="edge2" class="edge">
<title>Node2&#45;&gt;Node3</title>
<path fill="none" stroke="midnightblue" d="M45.61,-56.08C50.37,-48.53 57.32,-37.49 63.15,-28.23"/>
<polygon fill="midnightblue" stroke="midnightblue" points="66.12,-30.08 68.49,-19.75 60.2,-26.35 66.12,-30.08"/>
</g>
</g>
</svg>
