<?xml version="1.0" encoding="UTF-8" standalone="no"?>
<!DOCTYPE svg PUBLIC "-//W3C//DTD SVG 1.1//EN"
 "http://www.w3.org/Graphics/SVG/1.1/DTD/svg11.dtd">
<!-- Generated by graphviz version 2.43.0 (0)
 -->
<!-- Title: CSVReaderWriter.h Pages: 1 -->
<svg width="240pt" height="84pt"
 viewBox="0.00 0.00 239.50 84.00" xmlns="http://www.w3.org/2000/svg" xmlns:xlink="http://www.w3.org/1999/xlink">
<g id="graph0" class="graph" transform="scale(1 1) rotate(0) translate(4 80)">
<title>CSVReaderWriter.h</title>
<!-- Node1 -->
<g id="node1" class="node">
<title>Node1</title>
<g id="a_node1"><a xlink:title="The &#39;Adaptee&#39; class for reading/writing CSV files.">
<polygon fill="#bfbfbf" stroke="black" points="54,-56.5 54,-75.5 163,-75.5 163,-56.5 54,-56.5"/>
<text text-anchor="middle" x="108.5" y="-63.5" font-family="Helvetica,sans-Serif" font-size="10.00">CSVReaderWriter.h</text>
</a>
</g>
</g>
<!-- Node2 -->
<g id="node2" class="node">
<title>Node2</title>
<g id="a_node2"><a xlink:href="CSVAdapter_8cpp.html" target="_top" xlink:title="Implements the CSVAdapter behaviour defined in the corresponding header.">
<polygon fill="none" stroke="black" points="0,-0.5 0,-19.5 93,-19.5 93,-0.5 0,-0.5"/>
<text text-anchor="middle" x="46.5" y="-7.5" font-family="Helvetica,sans-Serif" font-size="10.00">CSVAdapter.cpp</text>
</a>
</g>
</g>
<!-- Node1&#45;&gt;Node2 -->
<g id="edge1" class="edge">
<title>Node1&#45;&gt;Node2</title>
<path fill="none" stroke="midnightblue" d="M90.75,-49.54C79.69,-39.91 65.87,-27.87 56.64,-19.83"/>
<polygon fill="midnightblue" stroke="midnightblue" points="88.7,-52.4 98.54,-56.32 93.3,-47.12 88.7,-52.4"/>
</g>
<!-- Node3 -->
<g id="node3" class="node">
<title>Node3</title>
<g id="a_node3"><a xlink:href="CSVReaderWriter_8cpp.html" target="_top" xlink:title="Implements the CSVReaderWriter behaviour defined in the corresponding header.">
<polygon fill="none" stroke="black" points="111.5,-0.5 111.5,-19.5 231.5,-19.5 231.5,-0.5 111.5,-0.5"/>
<text text-anchor="middle" x="171.5" y="-7.5" font-family="Helvetica,sans-Serif" font-size="10.00">CSVReaderWriter.cpp</text>
</a>
</g>
</g>
<!-- Node1&#45;&gt;Node3 -->
<g id="edge2" class="edge">
<title>Node1&#45;&gt;Node3</title>
<path fill="none" stroke="midnightblue" d="M126.54,-49.54C137.77,-39.91 151.82,-27.87 161.19,-19.83"/>
<polygon fill="midnightblue" stroke="midnightblue" points="123.94,-47.16 118.62,-56.32 128.49,-52.47 123.94,-47.16"/>
</g>
</g>
</svg>
