<?xml version="1.0" encoding="UTF-8" standalone="no"?>
<!DOCTYPE svg PUBLIC "-//W3C//DTD SVG 1.1//EN"
 "http://www.w3.org/Graphics/SVG/1.1/DTD/svg11.dtd">
<!-- Generated by graphviz version 2.43.0 (0)
 -->
<!-- Title: CSVReaderWriter.cpp Pages: 1 -->
<!--zoomable 252 -->
<svg id="main" version="1.1" xmlns="http://www.w3.org/2000/svg" xmlns:xlink="http://www.w3.org/1999/xlink" xml:space="preserve" onload="init(evt)">
<style type="text/css"><![CDATA[
.edge:hover path { stroke: red; }
.edge:hover polygon { stroke: red; fill: red; }
]]></style>
<script type="text/javascript"><![CDATA[
var edges = document.getElementsByTagName('g');
if (edges && edges.length) {
  for (var i=0;i<edges.length;i++) {
    if (edges[i].id.substr(0,4)=='edge') {
      edges[i].setAttribute('class','edge');
    }
  }
}
]]></script>
        <defs>
                <circle id="rim" cx="0" cy="0" r="7"/>
                <circle id="rim2" cx="0" cy="0" r="3.5"/>
                <g id="zoomPlus">
                        <use xlink:href="#rim" fill="#404040">
                                <set attributeName="fill" to="#808080" begin="zoomplus.mouseover" end="zoomplus.mouseout"/>
                        </use>
                        <path d="M-4,0h8M0,-4v8" fill="none" stroke="white" stroke-width="1.5" pointer-events="none"/>
                </g>
                <g id="zoomMin">
                        <use xlink:href="#rim" fill="#404040">
                                <set attributeName="fill" to="#808080" begin="zoomminus.mouseover" end="zoomminus.mouseout"/>
                        </use>
                        <path d="M-4,0h8" fill="none" stroke="white" stroke-width="1.5" pointer-events="none"/>
                </g>
                <g id="dirArrow">
                        <path fill="none" stroke="white" stroke-width="1.5" d="M0,-3.0v7 M-2.5,-0.5L0,-3.0L2.5,-0.5"/>
                </g>
               <g id="resetDef">
                       <use xlink:href="#rim2" fill="#404040">
                               <set attributeName="fill" to="#808080" begin="reset.mouseover" end="reset.mouseout"/>
                       </use>
               </g>
        </defs>

<script type="text/javascript">
var viewWidth = 805;
var viewHeight = 252;
var sectionId = 'dynsection-0';
</script>
<script xlink:href="svgpan.js"/>
<svg id="graph" class="graph">
<g id="viewport">
<title>CSVReaderWriter.cpp</title>
<!-- Node1 -->
<g id="node1" class="node">
<title>Node1</title>
<g id="a_node1"><a xlink:title="Implements the CSVReaderWriter behaviour defined in the corresponding header.">
<polygon fill="#bfbfbf" stroke="black" points="462.5,-224.5 462.5,-243.5 582.5,-243.5 582.5,-224.5 462.5,-224.5"/>
<text text-anchor="middle" x="522.5" y="-231.5" font-family="Helvetica,sans-Serif" font-size="10.00">CSVReaderWriter.cpp</text>
</a>
</g>
</g>
<!-- Node2 -->
<g id="node2" class="node">
<title>Node2</title>
<g id="a_node2"><a xlink:href="CSVReaderWriter_8h.html" target="_top" xlink:title="The &#39;Adaptee&#39; class for reading/writing CSV files.">
<polygon fill="none" stroke="black" points="30.5,-168.5 30.5,-187.5 186.5,-187.5 186.5,-168.5 30.5,-168.5"/>
<text text-anchor="middle" x="108.5" y="-175.5" font-family="Helvetica,sans-Serif" font-size="10.00">../include/CSVReaderWriter.h</text>
</a>
</g>
</g>
<!-- Node1&#45;&gt;Node2 -->
<g id="edge1" class="edge">
<title>Node1&#45;&gt;Node2</title>
<path fill="none" stroke="midnightblue" d="M462.3,-225.15C388.64,-215.54 263.89,-199.27 183.91,-188.84"/>
<polygon fill="midnightblue" stroke="midnightblue" points="184.27,-185.35 173.9,-187.53 183.36,-192.29 184.27,-185.35"/>
</g>
<!-- Node3 -->
<g id="node3" class="node">
<title>Node3</title>
<g id="a_node3"><a xlink:title=" ">
<polygon fill="none" stroke="#bfbfbf" points="0,-112.5 0,-131.5 47,-131.5 47,-112.5 0,-112.5"/>
<text text-anchor="middle" x="23.5" y="-119.5" font-family="Helvetica,sans-Serif" font-size="10.00">vector</text>
</a>
</g>
</g>
<!-- Node1&#45;&gt;Node3 -->
<g id="edge25" class="edge">
<title>Node1&#45;&gt;Node3</title>
<path fill="none" stroke="midnightblue" d="M462.45,-232.05C335.85,-229.42 50.74,-219.99 21.5,-188 10.33,-175.78 12.61,-156.24 16.6,-141.77"/>
<polygon fill="midnightblue" stroke="midnightblue" points="20.05,-142.49 19.79,-131.89 13.38,-140.33 20.05,-142.49"/>
</g>
<!-- Node4 -->
<g id="node4" class="node">
<title>Node4</title>
<g id="a_node4"><a xlink:title=" ">
<polygon fill="none" stroke="#bfbfbf" points="421.5,-0.5 421.5,-19.5 465.5,-19.5 465.5,-0.5 421.5,-0.5"/>
<text text-anchor="middle" x="443.5" y="-7.5" font-family="Helvetica,sans-Serif" font-size="10.00">string</text>
</a>
</g>
</g>
<!-- Node1&#45;&gt;Node4 -->
<g id="edge26" class="edge">
<title>Node1&#45;&gt;Node4</title>
<path fill="none" stroke="midnightblue" d="M462.44,-232.78C391.68,-228.81 277.55,-209.86 228.5,-132 182.68,-59.27 340.84,-26.21 411.32,-15.32"/>
<polygon fill="midnightblue" stroke="midnightblue" points="412.06,-18.75 421.44,-13.81 411.03,-11.82 412.06,-18.75"/>
</g>
<!-- Node6 -->
<g id="node6" class="node">
<title>Node6</title>
<g id="a_node6"><a xlink:href="StockItem_8h.html" target="_top" xlink:title="Represents an inventory entry and observes plant availability.">
<polygon fill="none" stroke="black" points="645.5,-112.5 645.5,-131.5 767.5,-131.5 767.5,-112.5 645.5,-112.5"/>
<text text-anchor="middle" x="706.5" y="-119.5" font-family="Helvetica,sans-Serif" font-size="10.00">../include/StockItem.h</text>
</a>
</g>
</g>
<!-- Node1&#45;&gt;Node6 -->
<g id="edge5" class="edge">
<title>Node1&#45;&gt;Node6</title>
<path fill="none" stroke="midnightblue" d="M528.21,-224.16C537.55,-210.32 557.42,-183.54 580.5,-168 603.78,-152.32 633.16,-141.42 657.7,-134.27"/>
<polygon fill="midnightblue" stroke="midnightblue" points="658.84,-137.59 667.53,-131.53 656.96,-130.85 658.84,-137.59"/>
</g>
<!-- Node9 -->
<g id="node9" class="node">
<title>Node9</title>
<g id="a_node9"><a xlink:href="PlantInstance_8h.html" target="_top" xlink:title="Represents a single, physical plant in the nursery.">
<polygon fill="none" stroke="black" points="355,-168.5 355,-187.5 494,-187.5 494,-168.5 355,-168.5"/>
<text text-anchor="middle" x="424.5" y="-175.5" font-family="Helvetica,sans-Serif" font-size="10.00">../include/PlantInstance.h</text>
</a>
</g>
</g>
<!-- Node1&#45;&gt;Node9 -->
<g id="edge10" class="edge">
<title>Node1&#45;&gt;Node9</title>
<path fill="none" stroke="midnightblue" d="M506.75,-224.32C491.18,-215.74 467.12,-202.49 449.04,-192.52"/>
<polygon fill="midnightblue" stroke="midnightblue" points="450.65,-189.42 440.21,-187.65 447.28,-195.55 450.65,-189.42"/>
</g>
<!-- Node12 -->
<g id="node12" class="node">
<title>Node12</title>
<g id="a_node12"><a xlink:href="PlantState_8h.html" target="_top" xlink:title="Abstract base class describing the lifecycle state of a plant.">
<polygon fill="none" stroke="black" points="551.5,-112.5 551.5,-131.5 627.5,-131.5 627.5,-112.5 551.5,-112.5"/>
<text text-anchor="middle" x="589.5" y="-119.5" font-family="Helvetica,sans-Serif" font-size="10.00">PlantState.h</text>
</a>
</g>
</g>
<!-- Node1&#45;&gt;Node12 -->
<g id="edge21" class="edge">
<title>Node1&#45;&gt;Node12</title>
<path fill="none" stroke="midnightblue" d="M524.56,-224.07C527.83,-211.04 535.03,-186.37 546.5,-168 553.27,-157.16 562.95,-146.74 571.42,-138.66"/>
<polygon fill="midnightblue" stroke="midnightblue" points="574.02,-141.02 579.03,-131.69 569.29,-135.86 574.02,-141.02"/>
</g>
<!-- Node15 -->
<g id="node15" class="node">
<title>Node15</title>
<g id="a_node15"><a xlink:title=" ">
<polygon fill="none" stroke="#bfbfbf" points="589,-168.5 589,-187.5 644,-187.5 644,-168.5 589,-168.5"/>
<text text-anchor="middle" x="616.5" y="-175.5" font-family="Helvetica,sans-Serif" font-size="10.00">fstream</text>
</a>
</g>
</g>
<!-- Node1&#45;&gt;Node15 -->
<g id="edge22" class="edge">
<title>Node1&#45;&gt;Node15</title>
<path fill="none" stroke="midnightblue" d="M537.6,-224.32C552.4,-215.82 575.19,-202.73 592.48,-192.8"/>
<polygon fill="midnightblue" stroke="midnightblue" points="594.51,-195.67 601.43,-187.65 591.02,-189.6 594.51,-195.67"/>
</g>
<!-- Node16 -->
<g id="node16" class="node">
<title>Node16</title>
<g id="a_node16"><a xlink:title=" ">
<polygon fill="none" stroke="#bfbfbf" points="662.5,-168.5 662.5,-187.5 718.5,-187.5 718.5,-168.5 662.5,-168.5"/>
<text text-anchor="middle" x="690.5" y="-175.5" font-family="Helvetica,sans-Serif" font-size="10.00">sstream</text>
</a>
</g>
</g>
<!-- Node1&#45;&gt;Node16 -->
<g id="edge23" class="edge">
<title>Node1&#45;&gt;Node16</title>
<path fill="none" stroke="midnightblue" d="M549.12,-224.44C577.51,-215.32 622.64,-200.81 654.25,-190.65"/>
<polygon fill="midnightblue" stroke="midnightblue" points="655.56,-193.91 664,-187.52 653.41,-187.24 655.56,-193.91"/>
</g>
<!-- Node17 -->
<g id="node17" class="node">
<title>Node17</title>
<g id="a_node17"><a xlink:title=" ">
<polygon fill="none" stroke="#bfbfbf" points="736.5,-168.5 736.5,-187.5 796.5,-187.5 796.5,-168.5 736.5,-168.5"/>
<text text-anchor="middle" x="766.5" y="-175.5" font-family="Helvetica,sans-Serif" font-size="10.00">iostream</text>
</a>
</g>
</g>
<!-- Node1&#45;&gt;Node17 -->
<g id="edge24" class="edge">
<title>Node1&#45;&gt;Node17</title>
<path fill="none" stroke="midnightblue" d="M561.83,-224.5C601.02,-216 663.19,-202.43 726.16,-188.28"/>
<polygon fill="midnightblue" stroke="midnightblue" points="727.29,-191.62 736.27,-186.01 725.75,-184.79 727.29,-191.62"/>
</g>
<!-- Node2&#45;&gt;Node3 -->
<g id="edge2" class="edge">
<title>Node2&#45;&gt;Node3</title>
<path fill="none" stroke="midnightblue" d="M94.84,-168.32C81.58,-159.9 61.23,-146.97 45.65,-137.07"/>
<polygon fill="midnightblue" stroke="midnightblue" points="47.44,-134.06 37.12,-131.65 43.69,-139.97 47.44,-134.06"/>
</g>
<!-- Node2&#45;&gt;Node4 -->
<g id="edge3" class="edge">
<title>Node2&#45;&gt;Node4</title>
<path fill="none" stroke="midnightblue" d="M114.55,-168.22C133.32,-141 189.68,-59.68 195.5,-56 230.94,-33.61 352.22,-19.53 411.02,-13.86"/>
<polygon fill="midnightblue" stroke="midnightblue" points="411.61,-17.32 421.24,-12.9 410.95,-10.35 411.61,-17.32"/>
</g>
<!-- Node5 -->
<g id="node5" class="node">
<title>Node5</title>
<g id="a_node5"><a xlink:title=" ">
<polygon fill="none" stroke="#bfbfbf" points="86,-112.5 86,-131.5 131,-131.5 131,-112.5 86,-112.5"/>
<text text-anchor="middle" x="108.5" y="-119.5" font-family="Helvetica,sans-Serif" font-size="10.00">utility</text>
</a>
</g>
</g>
<!-- Node2&#45;&gt;Node5 -->
<g id="edge4" class="edge">
<title>Node2&#45;&gt;Node5</title>
<path fill="none" stroke="midnightblue" d="M108.5,-168.08C108.5,-161.01 108.5,-150.86 108.5,-141.99"/>
<polygon fill="midnightblue" stroke="midnightblue" points="112,-141.75 108.5,-131.75 105,-141.75 112,-141.75"/>
</g>
<!-- Node6&#45;&gt;Node4 -->
<g id="edge6" class="edge">
<title>Node6&#45;&gt;Node4</title>
<path fill="none" stroke="midnightblue" d="M700.92,-112.28C691.38,-98.11 670.51,-70.26 645.5,-56 591.23,-25.06 517.5,-15.39 475.78,-12.37"/>
<polygon fill="midnightblue" stroke="midnightblue" points="475.85,-8.87 465.64,-11.72 475.4,-15.85 475.85,-8.87"/>
</g>
<!-- Node7 -->
<g id="node7" class="node">
<title>Node7</title>
<g id="a_node7"><a xlink:href="Observer_8h.html" target="_top" xlink:title="Declares the Observer contract and shared event payload.">
<polygon fill="none" stroke="black" points="567,-56.5 567,-75.5 636,-75.5 636,-56.5 567,-56.5"/>
<text text-anchor="middle" x="601.5" y="-63.5" font-family="Helvetica,sans-Serif" font-size="10.00">Observer.h</text>
</a>
</g>
</g>
<!-- Node6&#45;&gt;Node7 -->
<g id="edge7" class="edge">
<title>Node6&#45;&gt;Node7</title>
<path fill="none" stroke="midnightblue" d="M689.63,-112.32C672.79,-103.66 646.69,-90.24 627.26,-80.25"/>
<polygon fill="midnightblue" stroke="midnightblue" points="628.82,-77.12 618.33,-75.65 625.62,-83.34 628.82,-77.12"/>
</g>
<!-- Node7&#45;&gt;Node4 -->
<g id="edge9" class="edge">
<title>Node7&#45;&gt;Node4</title>
<path fill="none" stroke="midnightblue" d="M576.46,-56.44C549.02,-47.07 504.94,-32 475.13,-21.81"/>
<polygon fill="midnightblue" stroke="midnightblue" points="476.21,-18.48 465.61,-18.56 473.94,-25.1 476.21,-18.48"/>
</g>
<!-- Node8 -->
<g id="node8" class="node">
<title>Node8</title>
<g id="a_node8"><a xlink:title=" ">
<polygon fill="none" stroke="#bfbfbf" points="573.5,-0.5 573.5,-19.5 629.5,-19.5 629.5,-0.5 573.5,-0.5"/>
<text text-anchor="middle" x="601.5" y="-7.5" font-family="Helvetica,sans-Serif" font-size="10.00">optional</text>
</a>
</g>
</g>
<!-- Node7&#45;&gt;Node8 -->
<g id="edge8" class="edge">
<title>Node7&#45;&gt;Node8</title>
<path fill="none" stroke="midnightblue" d="M601.5,-56.08C601.5,-49.01 601.5,-38.86 601.5,-29.99"/>
<polygon fill="midnightblue" stroke="midnightblue" points="605,-29.75 601.5,-19.75 598,-29.75 605,-29.75"/>
</g>
<!-- Node9&#45;&gt;Node4 -->
<g id="edge20" class="edge">
<title>Node9&#45;&gt;Node4</title>
<path fill="none" stroke="midnightblue" d="M425.52,-168.08C428.51,-141.95 437.3,-65.21 441.37,-29.58"/>
<polygon fill="midnightblue" stroke="midnightblue" points="444.86,-29.9 442.52,-19.57 437.9,-29.11 444.86,-29.9"/>
</g>
<!-- Node10 -->
<g id="node10" class="node">
<title>Node10</title>
<g id="a_node10"><a xlink:href="GreenhouseComponent_8h.html" target="_top" xlink:title="The abstract &#39;Component&#39; interface for the Composite pattern.">
<polygon fill="none" stroke="black" points="237.5,-112.5 237.5,-131.5 377.5,-131.5 377.5,-112.5 237.5,-112.5"/>
<text text-anchor="middle" x="307.5" y="-119.5" font-family="Helvetica,sans-Serif" font-size="10.00">GreenhouseComponent.h</text>
</a>
</g>
</g>
<!-- Node9&#45;&gt;Node10 -->
<g id="edge11" class="edge">
<title>Node9&#45;&gt;Node10</title>
<path fill="none" stroke="midnightblue" d="M405.96,-168.44C386.88,-159.64 356.93,-145.81 335.06,-135.72"/>
<polygon fill="midnightblue" stroke="midnightblue" points="336.5,-132.53 325.95,-131.52 333.57,-138.88 336.5,-132.53"/>
</g>
<!-- Node11 -->
<g id="node11" class="node">
<title>Node11</title>
<g id="a_node11"><a xlink:title=" ">
<polygon fill="none" stroke="#bfbfbf" points="352.5,-56.5 352.5,-75.5 410.5,-75.5 410.5,-56.5 352.5,-56.5"/>
<text text-anchor="middle" x="381.5" y="-63.5" font-family="Helvetica,sans-Serif" font-size="10.00">memory</text>
</a>
</g>
</g>
<!-- Node9&#45;&gt;Node11 -->
<g id="edge19" class="edge">
<title>Node9&#45;&gt;Node11</title>
<path fill="none" stroke="midnightblue" d="M421.13,-168.37C414.12,-150.46 397.89,-108.92 388.52,-84.95"/>
<polygon fill="midnightblue" stroke="midnightblue" points="391.76,-83.63 384.86,-75.59 385.24,-86.18 391.76,-83.63"/>
</g>
<!-- Node9&#45;&gt;Node12 -->
<g id="edge14" class="edge">
<title>Node9&#45;&gt;Node12</title>
<path fill="none" stroke="midnightblue" d="M450.64,-168.44C478.52,-159.32 522.85,-144.81 553.9,-134.65"/>
<polygon fill="midnightblue" stroke="midnightblue" points="555.06,-137.95 563.48,-131.52 552.88,-131.3 555.06,-137.95"/>
</g>
<!-- Node13 -->
<g id="node13" class="node">
<title>Node13</title>
<g id="a_node13"><a xlink:href="Subject_8h.html" target="_top" xlink:title="Declares the Subject base that manages observer subscriptions.">
<polygon fill="none" stroke="black" points="471.5,-112.5 471.5,-131.5 533.5,-131.5 533.5,-112.5 471.5,-112.5"/>
<text text-anchor="middle" x="502.5" y="-119.5" font-family="Helvetica,sans-Serif" font-size="10.00">Subject.h</text>
</a>
</g>
</g>
<!-- Node9&#45;&gt;Node13 -->
<g id="edge16" class="edge">
<title>Node9&#45;&gt;Node13</title>
<path fill="none" stroke="midnightblue" d="M437.03,-168.32C449.09,-159.98 467.53,-147.21 481.77,-137.35"/>
<polygon fill="midnightblue" stroke="midnightblue" points="483.77,-140.22 490,-131.65 479.78,-134.47 483.77,-140.22"/>
</g>
<!-- Node10&#45;&gt;Node4 -->
<g id="edge13" class="edge">
<title>Node10&#45;&gt;Node4</title>
<path fill="none" stroke="midnightblue" d="M310.3,-112.28C315.08,-98.62 326.03,-72.07 343.5,-56 362.85,-38.19 390.43,-26.5 411.73,-19.51"/>
<polygon fill="midnightblue" stroke="midnightblue" points="412.8,-22.84 421.32,-16.54 410.73,-16.16 412.8,-22.84"/>
</g>
<!-- Node10&#45;&gt;Node11 -->
<g id="edge12" class="edge">
<title>Node10&#45;&gt;Node11</title>
<path fill="none" stroke="midnightblue" d="M319.39,-112.32C330.65,-104.11 347.79,-91.6 361.21,-81.81"/>
<polygon fill="midnightblue" stroke="midnightblue" points="363.38,-84.56 369.39,-75.83 359.25,-78.9 363.38,-84.56"/>
</g>
<!-- Node12&#45;&gt;Node4 -->
<g id="edge15" class="edge">
<title>Node12&#45;&gt;Node4</title>
<path fill="none" stroke="midnightblue" d="M581.4,-112.37C568.86,-99.29 543.68,-74.06 519.5,-56 503.53,-44.07 484.18,-32.65 469,-24.3"/>
<polygon fill="midnightblue" stroke="midnightblue" points="470.61,-21.2 460.15,-19.52 467.29,-27.35 470.61,-21.2"/>
</g>
<!-- Node13&#45;&gt;Node7 -->
<g id="edge18" class="edge">
<title>Node13&#45;&gt;Node7</title>
<path fill="none" stroke="midnightblue" d="M518.41,-112.32C534.14,-103.74 558.44,-90.49 576.71,-80.52"/>
<polygon fill="midnightblue" stroke="midnightblue" points="578.53,-83.52 585.63,-75.65 575.18,-77.37 578.53,-83.52"/>
</g>
<!-- Node14 -->
<g id="node14" class="node">
<title>Node14</title>
<g id="a_node14"><a xlink:title=" ">
<polygon fill="none" stroke="#bfbfbf" points="478.5,-56.5 478.5,-75.5 510.5,-75.5 510.5,-56.5 478.5,-56.5"/>
<text text-anchor="middle" x="494.5" y="-63.5" font-family="Helvetica,sans-Serif" font-size="10.00">list</text>
</a>
</g>
</g>
<!-- Node13&#45;&gt;Node14 -->
<g id="edge17" class="edge">
<title>Node13&#45;&gt;Node14</title>
<path fill="none" stroke="midnightblue" d="M501.18,-112.08C500.12,-104.93 498.59,-94.64 497.27,-85.69"/>
<polygon fill="midnightblue" stroke="midnightblue" points="500.72,-85.13 495.8,-75.75 493.8,-86.16 500.72,-85.13"/>
</g>
</g>
</svg>
        <g id="navigator" transform="translate(0 0)" fill="#404254">
                <rect fill="#f2f5e9" fill-opacity="0.5" stroke="#606060" stroke-width=".5" x="0" y="0" width="60" height="60"/>
                <use id="zoomplus" xlink:href="#zoomPlus" x="17" y="9" onmousedown="handleZoom(evt,'in')"/>
                <use id="zoomminus" xlink:href="#zoomMin" x="42" y="9" onmousedown="handleZoom(evt,'out')"/>
                <use id="reset" xlink:href="#resetDef" x="30" y="36" onmousedown="handleReset()"/>
                <g id="arrowUp" xlink:href="#dirArrow" transform="translate(30 24)" onmousedown="handlePan(0,-1)">
                  <use xlink:href="#rim" fill="#404040">
                        <set attributeName="fill" to="#808080" begin="arrowUp.mouseover" end="arrowUp.mouseout"/>
                  </use>
                  <path fill="none" stroke="white" stroke-width="1.5" d="M0,-3.0v7 M-2.5,-0.5L0,-3.0L2.5,-0.5"/>
                </g>
                <g id="arrowRight" xlink:href="#dirArrow" transform="rotate(90) translate(36 -43)" onmousedown="handlePan(1,0)">
                  <use xlink:href="#rim" fill="#404040">
                        <set attributeName="fill" to="#808080" begin="arrowRight.mouseover" end="arrowRight.mouseout"/>
                  </use>
                  <path fill="none" stroke="white" stroke-width="1.5" d="M0,-3.0v7 M-2.5,-0.5L0,-3.0L2.5,-0.5"/>
                </g>
                <g id="arrowDown" xlink:href="#dirArrow" transform="rotate(180) translate(-30 -48)" onmousedown="handlePan(0,1)">
                  <use xlink:href="#rim" fill="#404040">
                        <set attributeName="fill" to="#808080" begin="arrowDown.mouseover" end="arrowDown.mouseout"/>
                  </use>
                  <path fill="none" stroke="white" stroke-width="1.5" d="M0,-3.0v7 M-2.5,-0.5L0,-3.0L2.5,-0.5"/>
                </g>
                <g id="arrowLeft" xlink:href="#dirArrow" transform="rotate(270) translate(-36 17)" onmousedown="handlePan(-1,0)">
                  <use xlink:href="#rim" fill="#404040">
                        <set attributeName="fill" to="#808080" begin="arrowLeft.mouseover" end="arrowLeft.mouseout"/>
                  </use>
                  <path fill="none" stroke="white" stroke-width="1.5" d="M0,-3.0v7 M-2.5,-0.5L0,-3.0L2.5,-0.5"/>
                </g>
        </g>
        <svg viewBox="0 0 15 15" width="100%" height="30px" preserveAspectRatio="xMaxYMin meet">
         <g id="arrow_out" transform="scale(0.3 0.3)">
          <a xlink:href="CSVReaderWriter_8cpp__incl_org.svg" target="_base">
           <rect id="button" ry="5" rx="5" y="6" x="6" height="38" width="38"
                fill="#f2f5e9" fill-opacity="0.5" stroke="#606060" stroke-width="1.0"/>
           <path id="arrow"
             d="M 11.500037,31.436501 C 11.940474,20.09759 22.043105,11.32322 32.158766,21.979434 L 37.068811,17.246167 C 37.068811,17.246167 37.088388,32 37.088388,32 L 22.160133,31.978069 C 22.160133,31.978069 26.997745,27.140456 26.997745,27.140456 C 18.528582,18.264221 13.291696,25.230495 11.500037,31.436501 z"
             style="fill:#404040;"/>
          </a>
         </g>
        </svg>
</svg>
