<?xml version="1.0" encoding="UTF-8" standalone="no"?>
<!DOCTYPE svg PUBLIC "-//W3C//DTD SVG 1.1//EN"
 "http://www.w3.org/Graphics/SVG/1.1/DTD/svg11.dtd">
<!-- Generated by graphviz version 2.43.0 (0)
 -->
<!-- Title: CustomOrderBuilder.cpp Pages: 1 -->
<svg width="376pt" height="252pt"
 viewBox="0.00 0.00 376.00 252.00" xmlns="http://www.w3.org/2000/svg" xmlns:xlink="http://www.w3.org/1999/xlink">
<g id="graph0" class="graph" transform="scale(1 1) rotate(0) translate(4 248)">
<title>CustomOrderBuilder.cpp</title>
<!-- Node1 -->
<g id="node1" class="node">
<title>Node1</title>
<g id="a_node1"><a xlink:title="Implements the CustomOrderBuilder behaviour defined in the corresponding header.">
<polygon fill="#bfbfbf" stroke="black" points="184,-224.5 184,-243.5 319,-243.5 319,-224.5 184,-224.5"/>
<text text-anchor="middle" x="251.5" y="-231.5" font-family="Helvetica,sans-Serif" font-size="10.00">CustomOrderBuilder.cpp</text>
</a>
</g>
</g>
<!-- Node2 -->
<g id="node2" class="node">
<title>Node2</title>
<g id="a_node2"><a xlink:href="CustomOrderBuilder_8h.html" target="_top" xlink:title="The &#39;ConcreteBuilder&#39; implementation.">
<polygon fill="none" stroke="black" points="0,-112.5 0,-131.5 171,-131.5 171,-112.5 0,-112.5"/>
<text text-anchor="middle" x="85.5" y="-119.5" font-family="Helvetica,sans-Serif" font-size="10.00">../include/CustomOrderBuilder.h</text>
</a>
</g>
</g>
<!-- Node1&#45;&gt;Node2 -->
<g id="edge1" class="edge">
<title>Node1&#45;&gt;Node2</title>
<path fill="none" stroke="midnightblue" d="M238.47,-224.37C209.99,-205.49 141.92,-160.38 106.98,-137.24"/>
<polygon fill="midnightblue" stroke="midnightblue" points="108.73,-134.2 98.47,-131.59 104.87,-140.03 108.73,-134.2"/>
</g>
<!-- Node6 -->
<g id="node6" class="node">
<title>Node6</title>
<g id="a_node6"><a xlink:href="Order_8h.html" target="_top" xlink:title="The complex &#39;Product&#39; of the Builder pattern.">
<polygon fill="none" stroke="black" points="202,-168.5 202,-187.5 301,-187.5 301,-168.5 202,-168.5"/>
<text text-anchor="middle" x="251.5" y="-175.5" font-family="Helvetica,sans-Serif" font-size="10.00">../include/Order.h</text>
</a>
</g>
</g>
<!-- Node1&#45;&gt;Node6 -->
<g id="edge6" class="edge">
<title>Node1&#45;&gt;Node6</title>
<path fill="none" stroke="midnightblue" d="M251.5,-224.08C251.5,-217.01 251.5,-206.86 251.5,-197.99"/>
<polygon fill="midnightblue" stroke="midnightblue" points="255,-197.75 251.5,-187.75 248,-197.75 255,-197.75"/>
</g>
<!-- Node7 -->
<g id="node7" class="node">
<title>Node7</title>
<g id="a_node7"><a xlink:href="StockItem_8h.html" target="_top" xlink:title="Represents an inventory entry and observes plant availability.">
<polygon fill="none" stroke="black" points="293,-112.5 293,-131.5 368,-131.5 368,-112.5 293,-112.5"/>
<text text-anchor="middle" x="330.5" y="-119.5" font-family="Helvetica,sans-Serif" font-size="10.00">StockItem.h</text>
</a>
</g>
</g>
<!-- Node1&#45;&gt;Node7 -->
<g id="edge14" class="edge">
<title>Node1&#45;&gt;Node7</title>
<path fill="none" stroke="midnightblue" d="M267.79,-224.4C281.09,-216.58 299.45,-203.85 310.5,-188 320.1,-174.23 325.21,-155.7 327.85,-141.95"/>
<polygon fill="midnightblue" stroke="midnightblue" points="331.36,-142.17 329.53,-131.74 324.45,-141.03 331.36,-142.17"/>
</g>
<!-- Node3 -->
<g id="node3" class="node">
<title>Node3</title>
<g id="a_node3"><a xlink:href="OrderBuilder_8h.html" target="_top" xlink:title="The abstract &#39;Builder&#39; interface.">
<polygon fill="none" stroke="black" points="44.5,-56.5 44.5,-75.5 130.5,-75.5 130.5,-56.5 44.5,-56.5"/>
<text text-anchor="middle" x="87.5" y="-63.5" font-family="Helvetica,sans-Serif" font-size="10.00">OrderBuilder.h</text>
</a>
</g>
</g>
<!-- Node2&#45;&gt;Node3 -->
<g id="edge2" class="edge">
<title>Node2&#45;&gt;Node3</title>
<path fill="none" stroke="midnightblue" d="M85.83,-112.08C86.09,-105.01 86.47,-94.86 86.8,-85.99"/>
<polygon fill="midnightblue" stroke="midnightblue" points="90.3,-85.87 87.18,-75.75 83.31,-85.61 90.3,-85.87"/>
</g>
<!-- Node4 -->
<g id="node4" class="node">
<title>Node4</title>
<g id="a_node4"><a xlink:title=" ">
<polygon fill="none" stroke="#bfbfbf" points="177.5,-0.5 177.5,-19.5 221.5,-19.5 221.5,-0.5 177.5,-0.5"/>
<text text-anchor="middle" x="199.5" y="-7.5" font-family="Helvetica,sans-Serif" font-size="10.00">string</text>
</a>
</g>
</g>
<!-- Node2&#45;&gt;Node4 -->
<g id="edge5" class="edge">
<title>Node2&#45;&gt;Node4</title>
<path fill="none" stroke="midnightblue" d="M96.62,-112.44C107.79,-103.67 125.35,-89.45 139.5,-76 155.94,-60.38 173.37,-41.15 185.19,-27.68"/>
<polygon fill="midnightblue" stroke="midnightblue" points="188.16,-29.59 192.07,-19.75 182.87,-25 188.16,-29.59"/>
</g>
<!-- Node3&#45;&gt;Node4 -->
<g id="edge3" class="edge">
<title>Node3&#45;&gt;Node4</title>
<path fill="none" stroke="midnightblue" d="M105.49,-56.32C123.54,-47.62 151.55,-34.12 172.3,-24.11"/>
<polygon fill="midnightblue" stroke="midnightblue" points="174.06,-27.15 181.55,-19.65 171.02,-20.84 174.06,-27.15"/>
</g>
<!-- Node5 -->
<g id="node5" class="node">
<title>Node5</title>
<g id="a_node5"><a xlink:title=" ">
<polygon fill="none" stroke="#bfbfbf" points="58.5,-0.5 58.5,-19.5 116.5,-19.5 116.5,-0.5 58.5,-0.5"/>
<text text-anchor="middle" x="87.5" y="-7.5" font-family="Helvetica,sans-Serif" font-size="10.00">memory</text>
</a>
</g>
</g>
<!-- Node3&#45;&gt;Node5 -->
<g id="edge4" class="edge">
<title>Node3&#45;&gt;Node5</title>
<path fill="none" stroke="midnightblue" d="M87.5,-56.08C87.5,-49.01 87.5,-38.86 87.5,-29.99"/>
<polygon fill="midnightblue" stroke="midnightblue" points="91,-29.75 87.5,-19.75 84,-29.75 91,-29.75"/>
</g>
<!-- Node6&#45;&gt;Node4 -->
<g id="edge13" class="edge">
<title>Node6&#45;&gt;Node4</title>
<path fill="none" stroke="midnightblue" d="M243.28,-168.48C235.57,-159.96 224.38,-146.13 218.5,-132 204.26,-97.76 200.6,-54.02 199.72,-29.61"/>
<polygon fill="midnightblue" stroke="midnightblue" points="203.22,-29.5 199.48,-19.59 196.22,-29.67 203.22,-29.5"/>
</g>
<!-- Node6&#45;&gt;Node7 -->
<g id="edge7" class="edge">
<title>Node6&#45;&gt;Node7</title>
<path fill="none" stroke="midnightblue" d="M264.19,-168.32C276.4,-159.98 295.08,-147.21 309.5,-137.35"/>
<polygon fill="midnightblue" stroke="midnightblue" points="311.56,-140.19 317.84,-131.65 307.61,-134.41 311.56,-140.19"/>
</g>
<!-- Node10 -->
<g id="node10" class="node">
<title>Node10</title>
<g id="a_node10"><a xlink:title=" ">
<polygon fill="none" stroke="#bfbfbf" points="228,-112.5 228,-131.5 275,-131.5 275,-112.5 228,-112.5"/>
<text text-anchor="middle" x="251.5" y="-119.5" font-family="Helvetica,sans-Serif" font-size="10.00">vector</text>
</a>
</g>
</g>
<!-- Node6&#45;&gt;Node10 -->
<g id="edge12" class="edge">
<title>Node6&#45;&gt;Node10</title>
<path fill="none" stroke="midnightblue" d="M251.5,-168.08C251.5,-161.01 251.5,-150.86 251.5,-141.99"/>
<polygon fill="midnightblue" stroke="midnightblue" points="255,-141.75 251.5,-131.75 248,-141.75 255,-141.75"/>
</g>
<!-- Node7&#45;&gt;Node4 -->
<g id="edge8" class="edge">
<title>Node7&#45;&gt;Node4</title>
<path fill="none" stroke="midnightblue" d="M320.22,-112.37C298.03,-93.73 245.39,-49.53 217.52,-26.13"/>
<polygon fill="midnightblue" stroke="midnightblue" points="219.64,-23.34 209.73,-19.59 215.14,-28.7 219.64,-23.34"/>
</g>
<!-- Node8 -->
<g id="node8" class="node">
<title>Node8</title>
<g id="a_node8"><a xlink:href="Observer_8h.html" target="_top" xlink:title="Declares the Observer contract and shared event payload.">
<polygon fill="none" stroke="black" points="288,-56.5 288,-75.5 357,-75.5 357,-56.5 288,-56.5"/>
<text text-anchor="middle" x="322.5" y="-63.5" font-family="Helvetica,sans-Serif" font-size="10.00">Observer.h</text>
</a>
</g>
</g>
<!-- Node7&#45;&gt;Node8 -->
<g id="edge9" class="edge">
<title>Node7&#45;&gt;Node8</title>
<path fill="none" stroke="midnightblue" d="M329.18,-112.08C328.12,-104.93 326.59,-94.64 325.27,-85.69"/>
<polygon fill="midnightblue" stroke="midnightblue" points="328.72,-85.13 323.8,-75.75 321.8,-86.16 328.72,-85.13"/>
</g>
<!-- Node8&#45;&gt;Node4 -->
<g id="edge11" class="edge">
<title>Node8&#45;&gt;Node4</title>
<path fill="none" stroke="midnightblue" d="M303.01,-56.44C282.86,-47.6 251.18,-33.69 228.17,-23.59"/>
<polygon fill="midnightblue" stroke="midnightblue" points="229.46,-20.33 218.9,-19.52 226.65,-26.74 229.46,-20.33"/>
</g>
<!-- Node9 -->
<g id="node9" class="node">
<title>Node9</title>
<g id="a_node9"><a xlink:title=" ">
<polygon fill="none" stroke="#bfbfbf" points="294.5,-0.5 294.5,-19.5 350.5,-19.5 350.5,-0.5 294.5,-0.5"/>
<text text-anchor="middle" x="322.5" y="-7.5" font-family="Helvetica,sans-Serif" font-size="10.00">optional</text>
</a>
</g>
</g>
<!-- Node8&#45;&gt;Node9 -->
<g id="edge10" class="edge">
<title>Node8&#45;&gt;Node9</title>
<path fill="none" stroke="midnightblue" d="M322.5,-56.08C322.5,-49.01 322.5,-38.86 322.5,-29.99"/>
<polygon fill="midnightblue" stroke="midnightblue" points="326,-29.75 322.5,-19.75 319,-29.75 326,-29.75"/>
</g>
</g>
</svg>
