<?xml version="1.0" encoding="UTF-8" standalone="no"?>
<!DOCTYPE svg PUBLIC "-//W3C//DTD SVG 1.1//EN"
 "http://www.w3.org/Graphics/SVG/1.1/DTD/svg11.dtd">
<!-- Generated by graphviz version 2.43.0 (0)
 -->
<!-- Title: Customer.h Pages: 1 -->
<svg width="186pt" height="140pt"
 viewBox="0.00 0.00 185.50 140.00" xmlns="http://www.w3.org/2000/svg" xmlns:xlink="http://www.w3.org/1999/xlink">
<g id="graph0" class="graph" transform="scale(1 1) rotate(0) translate(4 136)">
<title>Customer.h</title>
<!-- Node1 -->
<g id="node1" class="node">
<title>Node1</title>
<g id="a_node1"><a xlink:title="The &#39;ConcreteColleague&#39; for Customers.">
<polygon fill="#bfbfbf" stroke="black" points="66,-112.5 66,-131.5 138,-131.5 138,-112.5 66,-112.5"/>
<text text-anchor="middle" x="102" y="-119.5" font-family="Helvetica,sans-Serif" font-size="10.00">Customer.h</text>
</a>
</g>
</g>
<!-- Node2 -->
<g id="node2" class="node">
<title>Node2</title>
<g id="a_node2"><a xlink:href="Colleague_8h.html" target="_top" xlink:title="The &#39;Colleague&#39; interface.">
<polygon fill="none" stroke="black" points="0,-56.5 0,-75.5 74,-75.5 74,-56.5 0,-56.5"/>
<text text-anchor="middle" x="37" y="-63.5" font-family="Helvetica,sans-Serif" font-size="10.00">Colleague.h</text>
</a>
</g>
</g>
<!-- Node1&#45;&gt;Node2 -->
<g id="edge1" class="edge">
<title>Node1&#45;&gt;Node2</title>
<path fill="none" stroke="midnightblue" d="M91.56,-112.32C81.85,-104.26 67.18,-92.08 55.5,-82.37"/>
<polygon fill="midnightblue" stroke="midnightblue" points="57.56,-79.53 47.63,-75.83 53.09,-84.92 57.56,-79.53"/>
</g>
<!-- Node3 -->
<g id="node3" class="node">
<title>Node3</title>
<g id="a_node3"><a xlink:title=" ">
<polygon fill="none" stroke="#bfbfbf" points="47,-0.5 47,-19.5 91,-19.5 91,-0.5 47,-0.5"/>
<text text-anchor="middle" x="69" y="-7.5" font-family="Helvetica,sans-Serif" font-size="10.00">string</text>
</a>
</g>
</g>
<!-- Node1&#45;&gt;Node3 -->
<g id="edge3" class="edge">
<title>Node1&#45;&gt;Node3</title>
<path fill="none" stroke="midnightblue" d="M99.47,-112.15C95.87,-99.63 89.04,-76.04 83,-56 80.34,-47.18 77.31,-37.41 74.75,-29.23"/>
<polygon fill="midnightblue" stroke="midnightblue" points="78.06,-28.1 71.73,-19.61 71.39,-30.2 78.06,-28.1"/>
</g>
<!-- Node4 -->
<g id="node4" class="node">
<title>Node4</title>
<g id="a_node4"><a xlink:title=" ">
<polygon fill="none" stroke="#bfbfbf" points="130.5,-56.5 130.5,-75.5 177.5,-75.5 177.5,-56.5 130.5,-56.5"/>
<text text-anchor="middle" x="154" y="-63.5" font-family="Helvetica,sans-Serif" font-size="10.00">vector</text>
</a>
</g>
</g>
<!-- Node1&#45;&gt;Node4 -->
<g id="edge4" class="edge">
<title>Node1&#45;&gt;Node4</title>
<path fill="none" stroke="midnightblue" d="M110.59,-112.08C118.16,-104.22 129.38,-92.57 138.51,-83.08"/>
<polygon fill="midnightblue" stroke="midnightblue" points="141.16,-85.38 145.57,-75.75 136.12,-80.53 141.16,-85.38"/>
</g>
<!-- Node2&#45;&gt;Node3 -->
<g id="edge2" class="edge">
<title>Node2&#45;&gt;Node3</title>
<path fill="none" stroke="midnightblue" d="M42.28,-56.08C46.71,-48.61 53.16,-37.72 58.62,-28.52"/>
<polygon fill="midnightblue" stroke="midnightblue" points="61.73,-30.14 63.81,-19.75 55.71,-26.57 61.73,-30.14"/>
</g>
</g>
</svg>
