<?xml version="1.0" encoding="UTF-8" standalone="no"?>
<!DOCTYPE svg PUBLIC "-//W3C//DTD SVG 1.1//EN"
 "http://www.w3.org/Graphics/SVG/1.1/DTD/svg11.dtd">
<!-- Generated by graphviz version 2.43.0 (0)
 -->
<!-- Title: Customer.cpp Pages: 1 -->
<svg width="599pt" height="196pt"
 viewBox="0.00 0.00 598.50 196.00" xmlns="http://www.w3.org/2000/svg" xmlns:xlink="http://www.w3.org/1999/xlink">
<g id="graph0" class="graph" transform="scale(1 1) rotate(0) translate(4 192)">
<title>Customer.cpp</title>
<!-- Node1 -->
<g id="node1" class="node">
<title>Node1</title>
<g id="a_node1"><a xlink:title="Implements the Customer behaviour defined in the corresponding header.">
<polygon fill="#bfbfbf" stroke="black" points="191.5,-168.5 191.5,-187.5 274.5,-187.5 274.5,-168.5 191.5,-168.5"/>
<text text-anchor="middle" x="233" y="-175.5" font-family="Helvetica,sans-Serif" font-size="10.00">Customer.cpp</text>
</a>
</g>
</g>
<!-- Node2 -->
<g id="node2" class="node">
<title>Node2</title>
<g id="a_node2"><a xlink:title=" ">
<polygon fill="none" stroke="#bfbfbf" points="0,-112.5 0,-131.5 64,-131.5 64,-112.5 0,-112.5"/>
<text text-anchor="middle" x="32" y="-119.5" font-family="Helvetica,sans-Serif" font-size="10.00">algorithm</text>
</a>
</g>
</g>
<!-- Node1&#45;&gt;Node2 -->
<g id="edge1" class="edge">
<title>Node1&#45;&gt;Node2</title>
<path fill="none" stroke="midnightblue" d="M201.15,-168.44C166.6,-159.16 111.32,-144.31 73.42,-134.13"/>
<polygon fill="midnightblue" stroke="midnightblue" points="74.27,-130.73 63.7,-131.52 72.45,-137.49 74.27,-130.73"/>
</g>
<!-- Node3 -->
<g id="node3" class="node">
<title>Node3</title>
<g id="a_node3"><a xlink:title=" ">
<polygon fill="none" stroke="#bfbfbf" points="82,-112.5 82,-131.5 142,-131.5 142,-112.5 82,-112.5"/>
<text text-anchor="middle" x="112" y="-119.5" font-family="Helvetica,sans-Serif" font-size="10.00">iostream</text>
</a>
</g>
</g>
<!-- Node1&#45;&gt;Node3 -->
<g id="edge2" class="edge">
<title>Node1&#45;&gt;Node3</title>
<path fill="none" stroke="midnightblue" d="M213.83,-168.44C194.09,-159.64 163.11,-145.81 140.51,-135.72"/>
<polygon fill="midnightblue" stroke="midnightblue" points="141.64,-132.4 131.08,-131.52 138.79,-138.79 141.64,-132.4"/>
</g>
<!-- Node4 -->
<g id="node4" class="node">
<title>Node4</title>
<g id="a_node4"><a xlink:title=" ">
<polygon fill="none" stroke="#bfbfbf" points="160.5,-112.5 160.5,-131.5 205.5,-131.5 205.5,-112.5 160.5,-112.5"/>
<text text-anchor="middle" x="183" y="-119.5" font-family="Helvetica,sans-Serif" font-size="10.00">utility</text>
</a>
</g>
</g>
<!-- Node1&#45;&gt;Node4 -->
<g id="edge3" class="edge">
<title>Node1&#45;&gt;Node4</title>
<path fill="none" stroke="midnightblue" d="M224.74,-168.08C217.54,-160.3 206.89,-148.8 198.15,-139.37"/>
<polygon fill="midnightblue" stroke="midnightblue" points="200.47,-136.71 191.1,-131.75 195.33,-141.47 200.47,-136.71"/>
</g>
<!-- Node5 -->
<g id="node5" class="node">
<title>Node5</title>
<g id="a_node5"><a xlink:href="Customer_8h.html" target="_top" xlink:title="The &#39;ConcreteColleague&#39; for Customers.">
<polygon fill="none" stroke="black" points="223.5,-112.5 223.5,-131.5 342.5,-131.5 342.5,-112.5 223.5,-112.5"/>
<text text-anchor="middle" x="283" y="-119.5" font-family="Helvetica,sans-Serif" font-size="10.00">../include/Customer.h</text>
</a>
</g>
</g>
<!-- Node1&#45;&gt;Node5 -->
<g id="edge4" class="edge">
<title>Node1&#45;&gt;Node5</title>
<path fill="none" stroke="midnightblue" d="M241.26,-168.08C248.46,-160.3 259.11,-148.8 267.85,-139.37"/>
<polygon fill="midnightblue" stroke="midnightblue" points="270.67,-141.47 274.9,-131.75 265.53,-136.71 270.67,-141.47"/>
</g>
<!-- Node9 -->
<g id="node9" class="node">
<title>Node9</title>
<g id="a_node9"><a xlink:href="FloorMediator_8h.html" target="_top" xlink:title="The &#39;Mediator&#39; interface.">
<polygon fill="none" stroke="black" points="325,-56.5 325,-75.5 465,-75.5 465,-56.5 325,-56.5"/>
<text text-anchor="middle" x="395" y="-63.5" font-family="Helvetica,sans-Serif" font-size="10.00">../include/FloorMediator.h</text>
</a>
</g>
</g>
<!-- Node1&#45;&gt;Node9 -->
<g id="edge9" class="edge">
<title>Node1&#45;&gt;Node9</title>
<path fill="none" stroke="midnightblue" d="M272.44,-168.44C296.95,-161.63 328.06,-150.18 351,-132 366.97,-119.35 379.29,-99.31 386.78,-84.82"/>
<polygon fill="midnightblue" stroke="midnightblue" points="389.93,-86.36 391.18,-75.84 383.64,-83.28 389.93,-86.36"/>
</g>
<!-- Node10 -->
<g id="node10" class="node">
<title>Node10</title>
<g id="a_node10"><a xlink:href="StockItem_8h.html" target="_top" xlink:title="Represents an inventory entry and observes plant availability.">
<polygon fill="none" stroke="black" points="432,-112.5 432,-131.5 554,-131.5 554,-112.5 432,-112.5"/>
<text text-anchor="middle" x="493" y="-119.5" font-family="Helvetica,sans-Serif" font-size="10.00">../include/StockItem.h</text>
</a>
</g>
</g>
<!-- Node1&#45;&gt;Node10 -->
<g id="edge11" class="edge">
<title>Node1&#45;&gt;Node10</title>
<path fill="none" stroke="midnightblue" d="M274.2,-168.44C319.65,-159 392.84,-143.8 441.91,-133.61"/>
<polygon fill="midnightblue" stroke="midnightblue" points="442.92,-136.98 451.99,-131.52 441.49,-130.12 442.92,-136.98"/>
</g>
<!-- Node6 -->
<g id="node6" class="node">
<title>Node6</title>
<g id="a_node6"><a xlink:href="Colleague_8h.html" target="_top" xlink:title="The &#39;Colleague&#39; interface.">
<polygon fill="none" stroke="black" points="129,-56.5 129,-75.5 203,-75.5 203,-56.5 129,-56.5"/>
<text text-anchor="middle" x="166" y="-63.5" font-family="Helvetica,sans-Serif" font-size="10.00">Colleague.h</text>
</a>
</g>
</g>
<!-- Node5&#45;&gt;Node6 -->
<g id="edge5" class="edge">
<title>Node5&#45;&gt;Node6</title>
<path fill="none" stroke="midnightblue" d="M264.46,-112.44C245.38,-103.64 215.43,-89.81 193.56,-79.72"/>
<polygon fill="midnightblue" stroke="midnightblue" points="195,-76.53 184.45,-75.52 192.07,-82.88 195,-76.53"/>
</g>
<!-- Node7 -->
<g id="node7" class="node">
<title>Node7</title>
<g id="a_node7"><a xlink:title=" ">
<polygon fill="none" stroke="#bfbfbf" points="373,-0.5 373,-19.5 417,-19.5 417,-0.5 373,-0.5"/>
<text text-anchor="middle" x="395" y="-7.5" font-family="Helvetica,sans-Serif" font-size="10.00">string</text>
</a>
</g>
</g>
<!-- Node5&#45;&gt;Node7 -->
<g id="edge7" class="edge">
<title>Node5&#45;&gt;Node7</title>
<path fill="none" stroke="midnightblue" d="M272.9,-112.49C258.78,-99.57 236.34,-74.54 250,-56 275.67,-21.15 328.08,-12.49 362.36,-10.77"/>
<polygon fill="midnightblue" stroke="midnightblue" points="362.91,-14.25 372.79,-10.42 362.68,-7.25 362.91,-14.25"/>
</g>
<!-- Node8 -->
<g id="node8" class="node">
<title>Node8</title>
<g id="a_node8"><a xlink:title=" ">
<polygon fill="none" stroke="#bfbfbf" points="259.5,-56.5 259.5,-75.5 306.5,-75.5 306.5,-56.5 259.5,-56.5"/>
<text text-anchor="middle" x="283" y="-63.5" font-family="Helvetica,sans-Serif" font-size="10.00">vector</text>
</a>
</g>
</g>
<!-- Node5&#45;&gt;Node8 -->
<g id="edge8" class="edge">
<title>Node5&#45;&gt;Node8</title>
<path fill="none" stroke="midnightblue" d="M283,-112.08C283,-105.01 283,-94.86 283,-85.99"/>
<polygon fill="midnightblue" stroke="midnightblue" points="286.5,-85.75 283,-75.75 279.5,-85.75 286.5,-85.75"/>
</g>
<!-- Node6&#45;&gt;Node7 -->
<g id="edge6" class="edge">
<title>Node6&#45;&gt;Node7</title>
<path fill="none" stroke="midnightblue" d="M202.29,-56.44C246.56,-46 320.72,-28.52 362.97,-18.55"/>
<polygon fill="midnightblue" stroke="midnightblue" points="363.8,-21.95 372.73,-16.25 362.2,-15.14 363.8,-21.95"/>
</g>
<!-- Node9&#45;&gt;Node7 -->
<g id="edge10" class="edge">
<title>Node9&#45;&gt;Node7</title>
<path fill="none" stroke="midnightblue" d="M395,-56.08C395,-49.01 395,-38.86 395,-29.99"/>
<polygon fill="midnightblue" stroke="midnightblue" points="398.5,-29.75 395,-19.75 391.5,-29.75 398.5,-29.75"/>
</g>
<!-- Node10&#45;&gt;Node7 -->
<g id="edge12" class="edge">
<title>Node10&#45;&gt;Node7</title>
<path fill="none" stroke="midnightblue" d="M492.52,-112.5C491.36,-99.13 487.41,-72.97 474,-56 461.81,-40.57 442.78,-29.51 426.45,-22.21"/>
<polygon fill="midnightblue" stroke="midnightblue" points="427.8,-18.98 417.22,-18.34 425.1,-25.43 427.8,-18.98"/>
</g>
<!-- Node11 -->
<g id="node11" class="node">
<title>Node11</title>
<g id="a_node11"><a xlink:href="Observer_8h.html" target="_top" xlink:title="Declares the Observer contract and shared event payload.">
<polygon fill="none" stroke="black" points="521.5,-56.5 521.5,-75.5 590.5,-75.5 590.5,-56.5 521.5,-56.5"/>
<text text-anchor="middle" x="556" y="-63.5" font-family="Helvetica,sans-Serif" font-size="10.00">Observer.h</text>
</a>
</g>
</g>
<!-- Node10&#45;&gt;Node11 -->
<g id="edge13" class="edge">
<title>Node10&#45;&gt;Node11</title>
<path fill="none" stroke="midnightblue" d="M503.12,-112.32C512.53,-104.26 526.74,-92.08 538.07,-82.37"/>
<polygon fill="midnightblue" stroke="midnightblue" points="540.38,-85 545.69,-75.83 535.82,-79.68 540.38,-85"/>
</g>
<!-- Node11&#45;&gt;Node7 -->
<g id="edge15" class="edge">
<title>Node11&#45;&gt;Node7</title>
<path fill="none" stroke="midnightblue" d="M530.49,-56.44C502.45,-47.04 457.36,-31.91 426.97,-21.72"/>
<polygon fill="midnightblue" stroke="midnightblue" points="427.87,-18.33 417.28,-18.47 425.65,-24.97 427.87,-18.33"/>
</g>
<!-- Node12 -->
<g id="node12" class="node">
<title>Node12</title>
<g id="a_node12"><a xlink:title=" ">
<polygon fill="none" stroke="#bfbfbf" points="528,-0.5 528,-19.5 584,-19.5 584,-0.5 528,-0.5"/>
<text text-anchor="middle" x="556" y="-7.5" font-family="Helvetica,sans-Serif" font-size="10.00">optional</text>
</a>
</g>
</g>
<!-- Node11&#45;&gt;Node12 -->
<g id="edge14" class="edge">
<title>Node11&#45;&gt;Node12</title>
<path fill="none" stroke="midnightblue" d="M556,-56.08C556,-49.01 556,-38.86 556,-29.99"/>
<polygon fill="midnightblue" stroke="midnightblue" points="559.5,-29.75 556,-19.75 552.5,-29.75 559.5,-29.75"/>
</g>
</g>
</svg>
