<?xml version="1.0" encoding="UTF-8" standalone="no"?>
<!DOCTYPE svg PUBLIC "-//W3C//DTD SVG 1.1//EN"
 "http://www.w3.org/Graphics/SVG/1.1/DTD/svg11.dtd">
<!-- Generated by graphviz version 2.43.0 (0)
 -->
<!-- Title: DeadState.cpp Pages: 1 -->
<svg width="426pt" height="252pt"
 viewBox="0.00 0.00 425.50 252.00" xmlns="http://www.w3.org/2000/svg" xmlns:xlink="http://www.w3.org/1999/xlink">
<g id="graph0" class="graph" transform="scale(1 1) rotate(0) translate(4 248)">
<title>DeadState.cpp</title>
<!-- Node1 -->
<g id="node1" class="node">
<title>Node1</title>
<g id="a_node1"><a xlink:title="Implements the DeadState behaviour defined in the corresponding header.">
<polygon fill="#bfbfbf" stroke="black" points="93,-224.5 93,-243.5 181,-243.5 181,-224.5 93,-224.5"/>
<text text-anchor="middle" x="137" y="-231.5" font-family="Helvetica,sans-Serif" font-size="10.00">DeadState.cpp</text>
</a>
</g>
</g>
<!-- Node2 -->
<g id="node2" class="node">
<title>Node2</title>
<g id="a_node2"><a xlink:href="DeadState_8h.html" target="_top" xlink:title="Concrete state representing a dead plant.">
<polygon fill="none" stroke="black" points="0,-168.5 0,-187.5 124,-187.5 124,-168.5 0,-168.5"/>
<text text-anchor="middle" x="62" y="-175.5" font-family="Helvetica,sans-Serif" font-size="10.00">../include/DeadState.h</text>
</a>
</g>
</g>
<!-- Node1&#45;&gt;Node2 -->
<g id="edge1" class="edge">
<title>Node1&#45;&gt;Node2</title>
<path fill="none" stroke="midnightblue" d="M124.95,-224.32C113.54,-216.11 96.17,-203.6 82.57,-193.81"/>
<polygon fill="midnightblue" stroke="midnightblue" points="84.43,-190.84 74.27,-187.83 80.34,-196.52 84.43,-190.84"/>
</g>
<!-- Node5 -->
<g id="node5" class="node">
<title>Node5</title>
<g id="a_node5"><a xlink:href="PlantInstance_8h.html" target="_top" xlink:title="Represents a single, physical plant in the nursery.">
<polygon fill="none" stroke="black" points="149.5,-168.5 149.5,-187.5 288.5,-187.5 288.5,-168.5 149.5,-168.5"/>
<text text-anchor="middle" x="219" y="-175.5" font-family="Helvetica,sans-Serif" font-size="10.00">../include/PlantInstance.h</text>
</a>
</g>
</g>
<!-- Node1&#45;&gt;Node5 -->
<g id="edge5" class="edge">
<title>Node1&#45;&gt;Node5</title>
<path fill="none" stroke="midnightblue" d="M150.17,-224.32C162.85,-215.98 182.23,-203.21 197.21,-193.35"/>
<polygon fill="midnightblue" stroke="midnightblue" points="199.43,-196.08 205.86,-187.65 195.58,-190.23 199.43,-196.08"/>
</g>
<!-- Node3 -->
<g id="node3" class="node">
<title>Node3</title>
<g id="a_node3"><a xlink:href="PlantState_8h.html" target="_top" xlink:title="Abstract base class describing the lifecycle state of a plant.">
<polygon fill="none" stroke="black" points="24,-112.5 24,-131.5 100,-131.5 100,-112.5 24,-112.5"/>
<text text-anchor="middle" x="62" y="-119.5" font-family="Helvetica,sans-Serif" font-size="10.00">PlantState.h</text>
</a>
</g>
</g>
<!-- Node2&#45;&gt;Node3 -->
<g id="edge2" class="edge">
<title>Node2&#45;&gt;Node3</title>
<path fill="none" stroke="midnightblue" d="M62,-168.08C62,-161.01 62,-150.86 62,-141.99"/>
<polygon fill="midnightblue" stroke="midnightblue" points="65.5,-141.75 62,-131.75 58.5,-141.75 65.5,-141.75"/>
</g>
<!-- Node4 -->
<g id="node4" class="node">
<title>Node4</title>
<g id="a_node4"><a xlink:title=" ">
<polygon fill="none" stroke="#bfbfbf" points="106,-0.5 106,-19.5 150,-19.5 150,-0.5 106,-0.5"/>
<text text-anchor="middle" x="128" y="-7.5" font-family="Helvetica,sans-Serif" font-size="10.00">string</text>
</a>
</g>
</g>
<!-- Node2&#45;&gt;Node4 -->
<g id="edge4" class="edge">
<title>Node2&#45;&gt;Node4</title>
<path fill="none" stroke="midnightblue" d="M48.17,-168.48C30.96,-156.71 4.99,-134.37 15,-112 32.96,-71.86 75.62,-41.09 103.08,-24.56"/>
<polygon fill="midnightblue" stroke="midnightblue" points="104.88,-27.56 111.76,-19.5 101.36,-21.51 104.88,-27.56"/>
</g>
<!-- Node3&#45;&gt;Node4 -->
<g id="edge3" class="edge">
<title>Node3&#45;&gt;Node4</title>
<path fill="none" stroke="midnightblue" d="M67.18,-112.37C78.02,-94.3 103.29,-52.18 117.62,-28.31"/>
<polygon fill="midnightblue" stroke="midnightblue" points="120.7,-29.97 122.85,-19.59 114.7,-26.37 120.7,-29.97"/>
</g>
<!-- Node5&#45;&gt;Node3 -->
<g id="edge9" class="edge">
<title>Node5&#45;&gt;Node3</title>
<path fill="none" stroke="midnightblue" d="M194.12,-168.44C167.71,-159.36 125.78,-144.94 96.26,-134.78"/>
<polygon fill="midnightblue" stroke="midnightblue" points="97.36,-131.46 86.76,-131.52 95.08,-138.08 97.36,-131.46"/>
</g>
<!-- Node5&#45;&gt;Node4 -->
<g id="edge16" class="edge">
<title>Node5&#45;&gt;Node4</title>
<path fill="none" stroke="midnightblue" d="M195.4,-168.41C179.14,-161.23 158.46,-149.34 147,-132 126.36,-100.77 125.12,-55.27 126.36,-29.9"/>
<polygon fill="midnightblue" stroke="midnightblue" points="129.86,-29.99 127.05,-19.78 122.88,-29.52 129.86,-29.99"/>
</g>
<!-- Node6 -->
<g id="node6" class="node">
<title>Node6</title>
<g id="a_node6"><a xlink:href="GreenhouseComponent_8h.html" target="_top" xlink:title="The abstract &#39;Component&#39; interface for the Composite pattern.">
<polygon fill="none" stroke="black" points="156,-112.5 156,-131.5 296,-131.5 296,-112.5 156,-112.5"/>
<text text-anchor="middle" x="226" y="-119.5" font-family="Helvetica,sans-Serif" font-size="10.00">GreenhouseComponent.h</text>
</a>
</g>
</g>
<!-- Node5&#45;&gt;Node6 -->
<g id="edge6" class="edge">
<title>Node5&#45;&gt;Node6</title>
<path fill="none" stroke="midnightblue" d="M220.16,-168.08C221.08,-160.93 222.42,-150.64 223.58,-141.69"/>
<polygon fill="midnightblue" stroke="midnightblue" points="227.05,-142.12 224.87,-131.75 220.11,-141.22 227.05,-142.12"/>
</g>
<!-- Node7 -->
<g id="node7" class="node">
<title>Node7</title>
<g id="a_node7"><a xlink:title=" ">
<polygon fill="none" stroke="#bfbfbf" points="209,-56.5 209,-75.5 267,-75.5 267,-56.5 209,-56.5"/>
<text text-anchor="middle" x="238" y="-63.5" font-family="Helvetica,sans-Serif" font-size="10.00">memory</text>
</a>
</g>
</g>
<!-- Node5&#45;&gt;Node7 -->
<g id="edge15" class="edge">
<title>Node5&#45;&gt;Node7</title>
<path fill="none" stroke="midnightblue" d="M253.18,-168.49C271.99,-161.88 293.74,-150.6 305,-132 317.82,-110.83 291.5,-91.78 268.17,-79.86"/>
<polygon fill="midnightblue" stroke="midnightblue" points="269.67,-76.7 259.14,-75.5 266.63,-83 269.67,-76.7"/>
</g>
<!-- Node8 -->
<g id="node8" class="node">
<title>Node8</title>
<g id="a_node8"><a xlink:href="Subject_8h.html" target="_top" xlink:title="Declares the Subject base that manages observer subscriptions.">
<polygon fill="none" stroke="black" points="352,-112.5 352,-131.5 414,-131.5 414,-112.5 352,-112.5"/>
<text text-anchor="middle" x="383" y="-119.5" font-family="Helvetica,sans-Serif" font-size="10.00">Subject.h</text>
</a>
</g>
</g>
<!-- Node5&#45;&gt;Node8 -->
<g id="edge10" class="edge">
<title>Node5&#45;&gt;Node8</title>
<path fill="none" stroke="midnightblue" d="M244.99,-168.44C272.7,-159.32 316.75,-144.81 347.62,-134.65"/>
<polygon fill="midnightblue" stroke="midnightblue" points="348.73,-137.97 357.14,-131.52 346.54,-131.32 348.73,-137.97"/>
</g>
<!-- Node6&#45;&gt;Node4 -->
<g id="edge8" class="edge">
<title>Node6&#45;&gt;Node4</title>
<path fill="none" stroke="midnightblue" d="M218.31,-112.37C201.99,-94.05 163.68,-51.05 142.58,-27.36"/>
<polygon fill="midnightblue" stroke="midnightblue" points="144.92,-24.73 135.65,-19.59 139.69,-29.39 144.92,-24.73"/>
</g>
<!-- Node6&#45;&gt;Node7 -->
<g id="edge7" class="edge">
<title>Node6&#45;&gt;Node7</title>
<path fill="none" stroke="midnightblue" d="M227.98,-112.08C229.57,-104.93 231.86,-94.64 233.85,-85.69"/>
<polygon fill="midnightblue" stroke="midnightblue" points="237.3,-86.27 236.06,-75.75 230.47,-84.75 237.3,-86.27"/>
</g>
<!-- Node9 -->
<g id="node9" class="node">
<title>Node9</title>
<g id="a_node9"><a xlink:title=" ">
<polygon fill="none" stroke="#bfbfbf" points="298,-56.5 298,-75.5 330,-75.5 330,-56.5 298,-56.5"/>
<text text-anchor="middle" x="314" y="-63.5" font-family="Helvetica,sans-Serif" font-size="10.00">list</text>
</a>
</g>
</g>
<!-- Node8&#45;&gt;Node9 -->
<g id="edge11" class="edge">
<title>Node8&#45;&gt;Node9</title>
<path fill="none" stroke="midnightblue" d="M371.91,-112.32C361.51,-104.18 345.74,-91.84 333.28,-82.09"/>
<polygon fill="midnightblue" stroke="midnightblue" points="335.32,-79.24 325.29,-75.83 331.01,-84.75 335.32,-79.24"/>
</g>
<!-- Node10 -->
<g id="node10" class="node">
<title>Node10</title>
<g id="a_node10"><a xlink:href="Observer_8h.html" target="_top" xlink:title="Declares the Observer contract and shared event payload.">
<polygon fill="none" stroke="black" points="348.5,-56.5 348.5,-75.5 417.5,-75.5 417.5,-56.5 348.5,-56.5"/>
<text text-anchor="middle" x="383" y="-63.5" font-family="Helvetica,sans-Serif" font-size="10.00">Observer.h</text>
</a>
</g>
</g>
<!-- Node8&#45;&gt;Node10 -->
<g id="edge12" class="edge">
<title>Node8&#45;&gt;Node10</title>
<path fill="none" stroke="midnightblue" d="M383,-112.08C383,-105.01 383,-94.86 383,-85.99"/>
<polygon fill="midnightblue" stroke="midnightblue" points="386.5,-85.75 383,-75.75 379.5,-85.75 386.5,-85.75"/>
</g>
<!-- Node10&#45;&gt;Node4 -->
<g id="edge14" class="edge">
<title>Node10&#45;&gt;Node4</title>
<path fill="none" stroke="midnightblue" d="M348.34,-57.66C298.74,-47.16 208.18,-27.98 160.06,-17.79"/>
<polygon fill="midnightblue" stroke="midnightblue" points="160.69,-14.34 150.18,-15.7 159.24,-21.19 160.69,-14.34"/>
</g>
<!-- Node11 -->
<g id="node11" class="node">
<title>Node11</title>
<g id="a_node11"><a xlink:title=" ">
<polygon fill="none" stroke="#bfbfbf" points="355,-0.5 355,-19.5 411,-19.5 411,-0.5 355,-0.5"/>
<text text-anchor="middle" x="383" y="-7.5" font-family="Helvetica,sans-Serif" font-size="10.00">optional</text>
</a>
</g>
</g>
<!-- Node10&#45;&gt;Node11 -->
<g id="edge13" class="edge">
<title>Node10&#45;&gt;Node11</title>
<path fill="none" stroke="midnightblue" d="M383,-56.08C383,-49.01 383,-38.86 383,-29.99"/>
<polygon fill="midnightblue" stroke="midnightblue" points="386.5,-29.75 383,-19.75 379.5,-29.75 386.5,-29.75"/>
</g>
</g>
</svg>
