<?xml version="1.0" encoding="UTF-8" standalone="no"?>
<!DOCTYPE svg PUBLIC "-//W3C//DTD SVG 1.1//EN"
 "http://www.w3.org/Graphics/SVG/1.1/DTD/svg11.dtd">
<!-- Generated by graphviz version 2.43.0 (0)
 -->
<!-- Title: FertilizePlant.cpp Pages: 1 -->
<svg width="542pt" height="252pt"
 viewBox="0.00 0.00 542.00 252.00" xmlns="http://www.w3.org/2000/svg" xmlns:xlink="http://www.w3.org/1999/xlink">
<g id="graph0" class="graph" transform="scale(1 1) rotate(0) translate(4 248)">
<title>FertilizePlant.cpp</title>
<!-- Node1 -->
<g id="node1" class="node">
<title>Node1</title>
<g id="a_node1"><a xlink:title="Implements the FertilizePlant behaviour defined in the corresponding header.">
<polygon fill="#bfbfbf" stroke="black" points="336.5,-224.5 336.5,-243.5 437.5,-243.5 437.5,-224.5 336.5,-224.5"/>
<text text-anchor="middle" x="387" y="-231.5" font-family="Helvetica,sans-Serif" font-size="10.00">FertilizePlant.cpp</text>
</a>
</g>
</g>
<!-- Node2 -->
<g id="node2" class="node">
<title>Node2</title>
<g id="a_node2"><a xlink:href="PlantInstance_8h.html" target="_top" xlink:title="Represents a single, physical plant in the nursery.">
<polygon fill="none" stroke="black" points="144.5,-168.5 144.5,-187.5 283.5,-187.5 283.5,-168.5 144.5,-168.5"/>
<text text-anchor="middle" x="214" y="-175.5" font-family="Helvetica,sans-Serif" font-size="10.00">../include/PlantInstance.h</text>
</a>
</g>
</g>
<!-- Node1&#45;&gt;Node2 -->
<g id="edge1" class="edge">
<title>Node1&#45;&gt;Node2</title>
<path fill="none" stroke="midnightblue" d="M359.59,-224.44C330.23,-215.28 283.48,-200.69 250.9,-190.52"/>
<polygon fill="midnightblue" stroke="midnightblue" points="251.87,-187.16 241.28,-187.52 249.79,-193.84 251.87,-187.16"/>
</g>
<!-- Node11 -->
<g id="node11" class="node">
<title>Node11</title>
<g id="a_node11"><a xlink:href="FertilizePlant_8h.html" target="_top" xlink:title="A &#39;ConcreteCommand&#39; to fertilize a plant.">
<polygon fill="none" stroke="black" points="318.5,-168.5 318.5,-187.5 455.5,-187.5 455.5,-168.5 318.5,-168.5"/>
<text text-anchor="middle" x="387" y="-175.5" font-family="Helvetica,sans-Serif" font-size="10.00">../include/FertilizePlant.h</text>
</a>
</g>
</g>
<!-- Node1&#45;&gt;Node11 -->
<g id="edge14" class="edge">
<title>Node1&#45;&gt;Node11</title>
<path fill="none" stroke="midnightblue" d="M387,-224.08C387,-217.01 387,-206.86 387,-197.99"/>
<polygon fill="midnightblue" stroke="midnightblue" points="390.5,-197.75 387,-187.75 383.5,-197.75 390.5,-197.75"/>
</g>
<!-- Node13 -->
<g id="node13" class="node">
<title>Node13</title>
<g id="a_node13"><a xlink:title=" ">
<polygon fill="none" stroke="#bfbfbf" points="474,-168.5 474,-187.5 534,-187.5 534,-168.5 474,-168.5"/>
<text text-anchor="middle" x="504" y="-175.5" font-family="Helvetica,sans-Serif" font-size="10.00">iostream</text>
</a>
</g>
</g>
<!-- Node1&#45;&gt;Node13 -->
<g id="edge16" class="edge">
<title>Node1&#45;&gt;Node13</title>
<path fill="none" stroke="midnightblue" d="M405.54,-224.44C424.62,-215.64 454.57,-201.81 476.44,-191.72"/>
<polygon fill="midnightblue" stroke="midnightblue" points="477.93,-194.88 485.55,-187.52 475,-188.53 477.93,-194.88"/>
</g>
<!-- Node3 -->
<g id="node3" class="node">
<title>Node3</title>
<g id="a_node3"><a xlink:href="GreenhouseComponent_8h.html" target="_top" xlink:title="The abstract &#39;Component&#39; interface for the Composite pattern.">
<polygon fill="none" stroke="black" points="27,-112.5 27,-131.5 167,-131.5 167,-112.5 27,-112.5"/>
<text text-anchor="middle" x="97" y="-119.5" font-family="Helvetica,sans-Serif" font-size="10.00">GreenhouseComponent.h</text>
</a>
</g>
</g>
<!-- Node2&#45;&gt;Node3 -->
<g id="edge2" class="edge">
<title>Node2&#45;&gt;Node3</title>
<path fill="none" stroke="midnightblue" d="M195.46,-168.44C176.38,-159.64 146.43,-145.81 124.56,-135.72"/>
<polygon fill="midnightblue" stroke="midnightblue" points="126,-132.53 115.45,-131.52 123.07,-138.88 126,-132.53"/>
</g>
<!-- Node4 -->
<g id="node4" class="node">
<title>Node4</title>
<g id="a_node4"><a xlink:title=" ">
<polygon fill="none" stroke="#bfbfbf" points="0,-56.5 0,-75.5 58,-75.5 58,-56.5 0,-56.5"/>
<text text-anchor="middle" x="29" y="-63.5" font-family="Helvetica,sans-Serif" font-size="10.00">memory</text>
</a>
</g>
</g>
<!-- Node2&#45;&gt;Node4 -->
<g id="edge12" class="edge">
<title>Node2&#45;&gt;Node4</title>
<path fill="none" stroke="midnightblue" d="M144.3,-170.12C94.55,-163.61 33.77,-151.8 18,-132 7.44,-118.74 12.78,-99.08 19.15,-84.85"/>
<polygon fill="midnightblue" stroke="midnightblue" points="22.42,-86.13 23.77,-75.62 16.16,-83 22.42,-86.13"/>
</g>
<!-- Node5 -->
<g id="node5" class="node">
<title>Node5</title>
<g id="a_node5"><a xlink:title=" ">
<polygon fill="none" stroke="#bfbfbf" points="198,-0.5 198,-19.5 242,-19.5 242,-0.5 198,-0.5"/>
<text text-anchor="middle" x="220" y="-7.5" font-family="Helvetica,sans-Serif" font-size="10.00">string</text>
</a>
</g>
</g>
<!-- Node2&#45;&gt;Node5 -->
<g id="edge13" class="edge">
<title>Node2&#45;&gt;Node5</title>
<path fill="none" stroke="midnightblue" d="M212.17,-168.44C208.2,-148.57 199.64,-97.84 206,-56 207.37,-47 210.19,-37.33 212.95,-29.26"/>
<polygon fill="midnightblue" stroke="midnightblue" points="216.27,-30.37 216.4,-19.78 209.69,-27.98 216.27,-30.37"/>
</g>
<!-- Node6 -->
<g id="node6" class="node">
<title>Node6</title>
<g id="a_node6"><a xlink:href="PlantState_8h.html" target="_top" xlink:title="Abstract base class describing the lifecycle state of a plant.">
<polygon fill="none" stroke="black" points="215,-56.5 215,-75.5 291,-75.5 291,-56.5 215,-56.5"/>
<text text-anchor="middle" x="253" y="-63.5" font-family="Helvetica,sans-Serif" font-size="10.00">PlantState.h</text>
</a>
</g>
</g>
<!-- Node2&#45;&gt;Node6 -->
<g id="edge5" class="edge">
<title>Node2&#45;&gt;Node6</title>
<path fill="none" stroke="midnightblue" d="M217.06,-168.37C223.38,-150.54 238,-109.3 246.52,-85.27"/>
<polygon fill="midnightblue" stroke="midnightblue" points="249.91,-86.19 249.95,-75.59 243.31,-83.85 249.91,-86.19"/>
</g>
<!-- Node7 -->
<g id="node7" class="node">
<title>Node7</title>
<g id="a_node7"><a xlink:href="Subject_8h.html" target="_top" xlink:title="Declares the Subject base that manages observer subscriptions.">
<polygon fill="none" stroke="black" points="284,-112.5 284,-131.5 346,-131.5 346,-112.5 284,-112.5"/>
<text text-anchor="middle" x="315" y="-119.5" font-family="Helvetica,sans-Serif" font-size="10.00">Subject.h</text>
</a>
</g>
</g>
<!-- Node2&#45;&gt;Node7 -->
<g id="edge7" class="edge">
<title>Node2&#45;&gt;Node7</title>
<path fill="none" stroke="midnightblue" d="M230.23,-168.32C246.35,-159.7 271.3,-146.36 289.96,-136.39"/>
<polygon fill="midnightblue" stroke="midnightblue" points="291.64,-139.46 298.81,-131.65 288.34,-133.28 291.64,-139.46"/>
</g>
<!-- Node3&#45;&gt;Node4 -->
<g id="edge3" class="edge">
<title>Node3&#45;&gt;Node4</title>
<path fill="none" stroke="midnightblue" d="M86.07,-112.32C75.83,-104.18 60.28,-91.84 48,-82.09"/>
<polygon fill="midnightblue" stroke="midnightblue" points="50.13,-79.31 40.12,-75.83 45.78,-84.79 50.13,-79.31"/>
</g>
<!-- Node3&#45;&gt;Node5 -->
<g id="edge4" class="edge">
<title>Node3&#45;&gt;Node5</title>
<path fill="none" stroke="midnightblue" d="M106.65,-112.37C127.4,-93.81 176.49,-49.91 202.74,-26.44"/>
<polygon fill="midnightblue" stroke="midnightblue" points="205.27,-28.87 210.39,-19.59 200.61,-23.65 205.27,-28.87"/>
</g>
<!-- Node6&#45;&gt;Node5 -->
<g id="edge6" class="edge">
<title>Node6&#45;&gt;Node5</title>
<path fill="none" stroke="midnightblue" d="M247.55,-56.08C242.99,-48.61 236.33,-37.72 230.71,-28.52"/>
<polygon fill="midnightblue" stroke="midnightblue" points="233.55,-26.46 225.35,-19.75 227.58,-30.11 233.55,-26.46"/>
</g>
<!-- Node8 -->
<g id="node8" class="node">
<title>Node8</title>
<g id="a_node8"><a xlink:title=" ">
<polygon fill="none" stroke="#bfbfbf" points="309,-56.5 309,-75.5 341,-75.5 341,-56.5 309,-56.5"/>
<text text-anchor="middle" x="325" y="-63.5" font-family="Helvetica,sans-Serif" font-size="10.00">list</text>
</a>
</g>
</g>
<!-- Node7&#45;&gt;Node8 -->
<g id="edge8" class="edge">
<title>Node7&#45;&gt;Node8</title>
<path fill="none" stroke="midnightblue" d="M316.65,-112.08C317.98,-104.93 319.88,-94.64 321.54,-85.69"/>
<polygon fill="midnightblue" stroke="midnightblue" points="325,-86.22 323.38,-75.75 318.12,-84.95 325,-86.22"/>
</g>
<!-- Node9 -->
<g id="node9" class="node">
<title>Node9</title>
<g id="a_node9"><a xlink:href="Observer_8h.html" target="_top" xlink:title="Declares the Observer contract and shared event payload.">
<polygon fill="none" stroke="black" points="359.5,-56.5 359.5,-75.5 428.5,-75.5 428.5,-56.5 359.5,-56.5"/>
<text text-anchor="middle" x="394" y="-63.5" font-family="Helvetica,sans-Serif" font-size="10.00">Observer.h</text>
</a>
</g>
</g>
<!-- Node7&#45;&gt;Node9 -->
<g id="edge9" class="edge">
<title>Node7&#45;&gt;Node9</title>
<path fill="none" stroke="midnightblue" d="M327.69,-112.32C339.9,-103.98 358.58,-91.21 373,-81.35"/>
<polygon fill="midnightblue" stroke="midnightblue" points="375.06,-84.19 381.34,-75.65 371.11,-78.41 375.06,-84.19"/>
</g>
<!-- Node9&#45;&gt;Node5 -->
<g id="edge11" class="edge">
<title>Node9&#45;&gt;Node5</title>
<path fill="none" stroke="midnightblue" d="M366.43,-56.44C335.25,-46.77 284.57,-31.04 251.76,-20.86"/>
<polygon fill="midnightblue" stroke="midnightblue" points="252.78,-17.51 242.2,-17.89 250.71,-24.2 252.78,-17.51"/>
</g>
<!-- Node10 -->
<g id="node10" class="node">
<title>Node10</title>
<g id="a_node10"><a xlink:title=" ">
<polygon fill="none" stroke="#bfbfbf" points="366,-0.5 366,-19.5 422,-19.5 422,-0.5 366,-0.5"/>
<text text-anchor="middle" x="394" y="-7.5" font-family="Helvetica,sans-Serif" font-size="10.00">optional</text>
</a>
</g>
</g>
<!-- Node9&#45;&gt;Node10 -->
<g id="edge10" class="edge">
<title>Node9&#45;&gt;Node10</title>
<path fill="none" stroke="midnightblue" d="M394,-56.08C394,-49.01 394,-38.86 394,-29.99"/>
<polygon fill="midnightblue" stroke="midnightblue" points="397.5,-29.75 394,-19.75 390.5,-29.75 397.5,-29.75"/>
</g>
<!-- Node12 -->
<g id="node12" class="node">
<title>Node12</title>
<g id="a_node12"><a xlink:href="PlantCommand_8h.html" target="_top" xlink:title="The &#39;Command&#39; interface.">
<polygon fill="none" stroke="black" points="364.5,-112.5 364.5,-131.5 465.5,-131.5 465.5,-112.5 364.5,-112.5"/>
<text text-anchor="middle" x="415" y="-119.5" font-family="Helvetica,sans-Serif" font-size="10.00">PlantCommand.h</text>
</a>
</g>
</g>
<!-- Node11&#45;&gt;Node12 -->
<g id="edge15" class="edge">
<title>Node11&#45;&gt;Node12</title>
<path fill="none" stroke="midnightblue" d="M391.62,-168.08C395.46,-160.69 401.02,-149.95 405.76,-140.81"/>
<polygon fill="midnightblue" stroke="midnightblue" points="408.97,-142.24 410.46,-131.75 402.75,-139.02 408.97,-142.24"/>
</g>
</g>
</svg>
