<?xml version="1.0" encoding="UTF-8" standalone="no"?>
<!DOCTYPE svg PUBLIC "-//W3C//DTD SVG 1.1//EN"
 "http://www.w3.org/Graphics/SVG/1.1/DTD/svg11.dtd">
<!-- Generated by graphviz version 2.43.0 (0)
 -->
<!-- Title: FertilizingHandler.h Pages: 1 -->
<svg width="171pt" height="140pt"
 viewBox="0.00 0.00 171.00 140.00" xmlns="http://www.w3.org/2000/svg" xmlns:xlink="http://www.w3.org/1999/xlink">
<g id="graph0" class="graph" transform="scale(1 1) rotate(0) translate(4 136)">
<title>FertilizingHandler.h</title>
<!-- Node1 -->
<g id="node1" class="node">
<title>Node1</title>
<g id="a_node1"><a xlink:title="A &#39;ConcreteHandler&#39; for fertilizing requests.">
<polygon fill="#bfbfbf" stroke="black" points="52,-112.5 52,-131.5 163,-131.5 163,-112.5 52,-112.5"/>
<text text-anchor="middle" x="107.5" y="-119.5" font-family="Helvetica,sans-Serif" font-size="10.00">FertilizingHandler.h</text>
</a>
</g>
</g>
<!-- Node2 -->
<g id="node2" class="node">
<title>Node2</title>
<g id="a_node2"><a xlink:href="CareRequestHandler_8h.html" target="_top" xlink:title="The &#39;Handler&#39; interface for the Chain of Responsibility.">
<polygon fill="none" stroke="black" points="0,-56.5 0,-75.5 125,-75.5 125,-56.5 0,-56.5"/>
<text text-anchor="middle" x="62.5" y="-63.5" font-family="Helvetica,sans-Serif" font-size="10.00">CareRequestHandler.h</text>
</a>
</g>
</g>
<!-- Node1&#45;&gt;Node2 -->
<g id="edge1" class="edge">
<title>Node1&#45;&gt;Node2</title>
<path fill="none" stroke="midnightblue" d="M100.07,-112.08C93.65,-104.38 84.19,-93.03 76.38,-83.65"/>
<polygon fill="midnightblue" stroke="midnightblue" points="78.88,-81.19 69.79,-75.75 73.51,-85.67 78.88,-81.19"/>
</g>
<!-- Node3 -->
<g id="node3" class="node">
<title>Node3</title>
<g id="a_node3"><a xlink:title=" ">
<polygon fill="none" stroke="#bfbfbf" points="85.5,-0.5 85.5,-19.5 129.5,-19.5 129.5,-0.5 85.5,-0.5"/>
<text text-anchor="middle" x="107.5" y="-7.5" font-family="Helvetica,sans-Serif" font-size="10.00">string</text>
</a>
</g>
</g>
<!-- Node1&#45;&gt;Node3 -->
<g id="edge3" class="edge">
<title>Node1&#45;&gt;Node3</title>
<path fill="none" stroke="midnightblue" d="M114.39,-112.32C120.77,-103.68 129.81,-89.77 133.5,-76 138.01,-59.19 129.33,-40.84 120.81,-27.94"/>
<polygon fill="midnightblue" stroke="midnightblue" points="123.51,-25.69 114.83,-19.61 117.82,-29.77 123.51,-25.69"/>
</g>
<!-- Node2&#45;&gt;Node3 -->
<g id="edge2" class="edge">
<title>Node2&#45;&gt;Node3</title>
<path fill="none" stroke="midnightblue" d="M69.93,-56.08C76.35,-48.38 85.81,-37.03 93.62,-27.65"/>
<polygon fill="midnightblue" stroke="midnightblue" points="96.49,-29.67 100.21,-19.75 91.12,-25.19 96.49,-29.67"/>
</g>
</g>
</svg>
