<?xml version="1.0" encoding="UTF-8" standalone="no"?>
<!DOCTYPE svg PUBLIC "-//W3C//DTD SVG 1.1//EN"
 "http://www.w3.org/Graphics/SVG/1.1/DTD/svg11.dtd">
<!-- Generated by graphviz version 2.43.0 (0)
 -->
<!-- Title: FertilizeStrategy.cpp Pages: 1 -->
<svg width="436pt" height="252pt"
 viewBox="0.00 0.00 435.50 252.00" xmlns="http://www.w3.org/2000/svg" xmlns:xlink="http://www.w3.org/1999/xlink">
<g id="graph0" class="graph" transform="scale(1 1) rotate(0) translate(4 248)">
<title>FertilizeStrategy.cpp</title>
<!-- Node1 -->
<g id="node1" class="node">
<title>Node1</title>
<g id="a_node1"><a xlink:title="Implements the FertilizeStrategy behaviour defined in the corresponding header.">
<polygon fill="#bfbfbf" stroke="black" points="100,-224.5 100,-243.5 216,-243.5 216,-224.5 100,-224.5"/>
<text text-anchor="middle" x="158" y="-231.5" font-family="Helvetica,sans-Serif" font-size="10.00">FertilizeStrategy.cpp</text>
</a>
</g>
</g>
<!-- Node2 -->
<g id="node2" class="node">
<title>Node2</title>
<g id="a_node2"><a xlink:href="FertilizeStrategy_8h.html" target="_top" xlink:title="Abstract &#39;Strategy&#39; interface for fertilizing.">
<polygon fill="none" stroke="black" points="0,-168.5 0,-187.5 152,-187.5 152,-168.5 0,-168.5"/>
<text text-anchor="middle" x="76" y="-175.5" font-family="Helvetica,sans-Serif" font-size="10.00">../include/FertilizeStrategy.h</text>
</a>
</g>
</g>
<!-- Node1&#45;&gt;Node2 -->
<g id="edge1" class="edge">
<title>Node1&#45;&gt;Node2</title>
<path fill="none" stroke="midnightblue" d="M144.83,-224.32C132.15,-215.98 112.77,-203.21 97.79,-193.35"/>
<polygon fill="midnightblue" stroke="midnightblue" points="99.42,-190.23 89.14,-187.65 95.57,-196.08 99.42,-190.23"/>
</g>
<!-- Node3 -->
<g id="node3" class="node">
<title>Node3</title>
<g id="a_node3"><a xlink:href="PlantInstance_8h.html" target="_top" xlink:title="Represents a single, physical plant in the nursery.">
<polygon fill="none" stroke="black" points="170.5,-168.5 170.5,-187.5 309.5,-187.5 309.5,-168.5 170.5,-168.5"/>
<text text-anchor="middle" x="240" y="-175.5" font-family="Helvetica,sans-Serif" font-size="10.00">../include/PlantInstance.h</text>
</a>
</g>
</g>
<!-- Node1&#45;&gt;Node3 -->
<g id="edge2" class="edge">
<title>Node1&#45;&gt;Node3</title>
<path fill="none" stroke="midnightblue" d="M171.17,-224.32C183.85,-215.98 203.23,-203.21 218.21,-193.35"/>
<polygon fill="midnightblue" stroke="midnightblue" points="220.43,-196.08 226.86,-187.65 216.58,-190.23 220.43,-196.08"/>
</g>
<!-- Node4 -->
<g id="node4" class="node">
<title>Node4</title>
<g id="a_node4"><a xlink:href="GreenhouseComponent_8h.html" target="_top" xlink:title="The abstract &#39;Component&#39; interface for the Composite pattern.">
<polygon fill="none" stroke="black" points="72,-112.5 72,-131.5 212,-131.5 212,-112.5 72,-112.5"/>
<text text-anchor="middle" x="142" y="-119.5" font-family="Helvetica,sans-Serif" font-size="10.00">GreenhouseComponent.h</text>
</a>
</g>
</g>
<!-- Node3&#45;&gt;Node4 -->
<g id="edge3" class="edge">
<title>Node3&#45;&gt;Node4</title>
<path fill="none" stroke="midnightblue" d="M224.25,-168.32C208.68,-159.74 184.62,-146.49 166.54,-136.52"/>
<polygon fill="midnightblue" stroke="midnightblue" points="168.15,-133.42 157.71,-131.65 164.78,-139.55 168.15,-133.42"/>
</g>
<!-- Node5 -->
<g id="node5" class="node">
<title>Node5</title>
<g id="a_node5"><a xlink:title=" ">
<polygon fill="none" stroke="#bfbfbf" points="64,-56.5 64,-75.5 122,-75.5 122,-56.5 64,-56.5"/>
<text text-anchor="middle" x="93" y="-63.5" font-family="Helvetica,sans-Serif" font-size="10.00">memory</text>
</a>
</g>
</g>
<!-- Node3&#45;&gt;Node5 -->
<g id="edge13" class="edge">
<title>Node3&#45;&gt;Node5</title>
<path fill="none" stroke="midnightblue" d="M172.3,-168.45C128.28,-161.34 76.62,-149.52 63,-132 51.39,-117.07 64.18,-96.93 76.46,-83.04"/>
<polygon fill="midnightblue" stroke="midnightblue" points="79.11,-85.34 83.45,-75.68 74.03,-80.52 79.11,-85.34"/>
</g>
<!-- Node6 -->
<g id="node6" class="node">
<title>Node6</title>
<g id="a_node6"><a xlink:title=" ">
<polygon fill="none" stroke="#bfbfbf" points="237,-0.5 237,-19.5 281,-19.5 281,-0.5 237,-0.5"/>
<text text-anchor="middle" x="259" y="-7.5" font-family="Helvetica,sans-Serif" font-size="10.00">string</text>
</a>
</g>
</g>
<!-- Node3&#45;&gt;Node6 -->
<g id="edge14" class="edge">
<title>Node3&#45;&gt;Node6</title>
<path fill="none" stroke="midnightblue" d="M241.02,-168.08C244.01,-141.95 252.8,-65.21 256.87,-29.58"/>
<polygon fill="midnightblue" stroke="midnightblue" points="260.36,-29.9 258.02,-19.57 253.4,-29.11 260.36,-29.9"/>
</g>
<!-- Node7 -->
<g id="node7" class="node">
<title>Node7</title>
<g id="a_node7"><a xlink:href="PlantState_8h.html" target="_top" xlink:title="Abstract base class describing the lifecycle state of a plant.">
<polygon fill="none" stroke="black" points="268,-112.5 268,-131.5 344,-131.5 344,-112.5 268,-112.5"/>
<text text-anchor="middle" x="306" y="-119.5" font-family="Helvetica,sans-Serif" font-size="10.00">PlantState.h</text>
</a>
</g>
</g>
<!-- Node3&#45;&gt;Node7 -->
<g id="edge6" class="edge">
<title>Node3&#45;&gt;Node7</title>
<path fill="none" stroke="midnightblue" d="M250.6,-168.32C260.46,-160.26 275.35,-148.08 287.22,-138.37"/>
<polygon fill="midnightblue" stroke="midnightblue" points="289.68,-140.88 295.2,-131.83 285.25,-135.46 289.68,-140.88"/>
</g>
<!-- Node8 -->
<g id="node8" class="node">
<title>Node8</title>
<g id="a_node8"><a xlink:href="Subject_8h.html" target="_top" xlink:title="Declares the Subject base that manages observer subscriptions.">
<polygon fill="none" stroke="black" points="362,-112.5 362,-131.5 424,-131.5 424,-112.5 362,-112.5"/>
<text text-anchor="middle" x="393" y="-119.5" font-family="Helvetica,sans-Serif" font-size="10.00">Subject.h</text>
</a>
</g>
</g>
<!-- Node3&#45;&gt;Node8 -->
<g id="edge8" class="edge">
<title>Node3&#45;&gt;Node8</title>
<path fill="none" stroke="midnightblue" d="M264.24,-168.44C289.87,-159.4 330.49,-145.06 359.24,-134.92"/>
<polygon fill="midnightblue" stroke="midnightblue" points="360.61,-138.15 368.87,-131.52 358.28,-131.54 360.61,-138.15"/>
</g>
<!-- Node4&#45;&gt;Node5 -->
<g id="edge4" class="edge">
<title>Node4&#45;&gt;Node5</title>
<path fill="none" stroke="midnightblue" d="M133.91,-112.08C126.84,-104.3 116.41,-92.8 107.85,-83.37"/>
<polygon fill="midnightblue" stroke="midnightblue" points="110.25,-80.8 100.94,-75.75 105.07,-85.51 110.25,-80.8"/>
</g>
<!-- Node4&#45;&gt;Node6 -->
<g id="edge5" class="edge">
<title>Node4&#45;&gt;Node6</title>
<path fill="none" stroke="midnightblue" d="M151.18,-112.37C170.83,-93.89 217.21,-50.29 242.25,-26.74"/>
<polygon fill="midnightblue" stroke="midnightblue" points="244.97,-28.99 249.86,-19.59 240.18,-23.89 244.97,-28.99"/>
</g>
<!-- Node7&#45;&gt;Node6 -->
<g id="edge7" class="edge">
<title>Node7&#45;&gt;Node6</title>
<path fill="none" stroke="midnightblue" d="M302.31,-112.37C294.66,-94.46 276.91,-52.92 266.67,-28.95"/>
<polygon fill="midnightblue" stroke="midnightblue" points="269.82,-27.41 262.67,-19.59 263.38,-30.16 269.82,-27.41"/>
</g>
<!-- Node9 -->
<g id="node9" class="node">
<title>Node9</title>
<g id="a_node9"><a xlink:title=" ">
<polygon fill="none" stroke="#bfbfbf" points="308,-56.5 308,-75.5 340,-75.5 340,-56.5 308,-56.5"/>
<text text-anchor="middle" x="324" y="-63.5" font-family="Helvetica,sans-Serif" font-size="10.00">list</text>
</a>
</g>
</g>
<!-- Node8&#45;&gt;Node9 -->
<g id="edge9" class="edge">
<title>Node8&#45;&gt;Node9</title>
<path fill="none" stroke="midnightblue" d="M381.91,-112.32C371.51,-104.18 355.74,-91.84 343.28,-82.09"/>
<polygon fill="midnightblue" stroke="midnightblue" points="345.32,-79.24 335.29,-75.83 341.01,-84.75 345.32,-79.24"/>
</g>
<!-- Node10 -->
<g id="node10" class="node">
<title>Node10</title>
<g id="a_node10"><a xlink:href="Observer_8h.html" target="_top" xlink:title="Declares the Observer contract and shared event payload.">
<polygon fill="none" stroke="black" points="358.5,-56.5 358.5,-75.5 427.5,-75.5 427.5,-56.5 358.5,-56.5"/>
<text text-anchor="middle" x="393" y="-63.5" font-family="Helvetica,sans-Serif" font-size="10.00">Observer.h</text>
</a>
</g>
</g>
<!-- Node8&#45;&gt;Node10 -->
<g id="edge10" class="edge">
<title>Node8&#45;&gt;Node10</title>
<path fill="none" stroke="midnightblue" d="M393,-112.08C393,-105.01 393,-94.86 393,-85.99"/>
<polygon fill="midnightblue" stroke="midnightblue" points="396.5,-85.75 393,-75.75 389.5,-85.75 396.5,-85.75"/>
</g>
<!-- Node10&#45;&gt;Node6 -->
<g id="edge12" class="edge">
<title>Node10&#45;&gt;Node6</title>
<path fill="none" stroke="midnightblue" d="M371.77,-56.44C349.62,-47.52 314.68,-33.44 289.56,-23.32"/>
<polygon fill="midnightblue" stroke="midnightblue" points="290.72,-20.01 280.13,-19.52 288.1,-26.5 290.72,-20.01"/>
</g>
<!-- Node11 -->
<g id="node11" class="node">
<title>Node11</title>
<g id="a_node11"><a xlink:title=" ">
<polygon fill="none" stroke="#bfbfbf" points="365,-0.5 365,-19.5 421,-19.5 421,-0.5 365,-0.5"/>
<text text-anchor="middle" x="393" y="-7.5" font-family="Helvetica,sans-Serif" font-size="10.00">optional</text>
</a>
</g>
</g>
<!-- Node10&#45;&gt;Node11 -->
<g id="edge11" class="edge">
<title>Node10&#45;&gt;Node11</title>
<path fill="none" stroke="midnightblue" d="M393,-56.08C393,-49.01 393,-38.86 393,-29.99"/>
<polygon fill="midnightblue" stroke="midnightblue" points="396.5,-29.75 393,-19.75 389.5,-29.75 396.5,-29.75"/>
</g>
</g>
</svg>
