<?xml version="1.0" encoding="UTF-8" standalone="no"?>
<!DOCTYPE svg PUBLIC "-//W3C//DTD SVG 1.1//EN"
 "http://www.w3.org/Graphics/SVG/1.1/DTD/svg11.dtd">
<!-- Generated by graphviz version 2.43.0 (0)
 -->
<!-- Title: FertilizingHandler.cpp Pages: 1 -->
<svg width="645pt" height="252pt"
 viewBox="0.00 0.00 644.50 252.00" xmlns="http://www.w3.org/2000/svg" xmlns:xlink="http://www.w3.org/1999/xlink">
<g id="graph0" class="graph" transform="scale(1 1) rotate(0) translate(4 248)">
<title>FertilizingHandler.cpp</title>
<!-- Node1 -->
<g id="node1" class="node">
<title>Node1</title>
<g id="a_node1"><a xlink:title="Implements the FertilizingHandler behaviour defined in the corresponding header.">
<polygon fill="#bfbfbf" stroke="black" points="397.5,-224.5 397.5,-243.5 519.5,-243.5 519.5,-224.5 397.5,-224.5"/>
<text text-anchor="middle" x="458.5" y="-231.5" font-family="Helvetica,sans-Serif" font-size="10.00">FertilizingHandler.cpp</text>
</a>
</g>
</g>
<!-- Node2 -->
<g id="node2" class="node">
<title>Node2</title>
<g id="a_node2"><a xlink:href="FertilizingHandler_8h.html" target="_top" xlink:title="A &#39;ConcreteHandler&#39; for fertilizing requests.">
<polygon fill="none" stroke="black" points="5.5,-112.5 5.5,-131.5 163.5,-131.5 163.5,-112.5 5.5,-112.5"/>
<text text-anchor="middle" x="84.5" y="-119.5" font-family="Helvetica,sans-Serif" font-size="10.00">../include/FertilizingHandler.h</text>
</a>
</g>
</g>
<!-- Node1&#45;&gt;Node2 -->
<g id="edge1" class="edge">
<title>Node1&#45;&gt;Node2</title>
<path fill="none" stroke="midnightblue" d="M412.61,-224.43C371.98,-216.42 311.28,-203.4 259.5,-188 207.62,-172.57 148.95,-149.61 114.43,-135.51"/>
<polygon fill="midnightblue" stroke="midnightblue" points="115.52,-132.17 104.94,-131.61 112.86,-138.65 115.52,-132.17"/>
</g>
<!-- Node5 -->
<g id="node5" class="node">
<title>Node5</title>
<g id="a_node5"><a xlink:href="PlantInstance_8h.html" target="_top" xlink:title="Represents a single, physical plant in the nursery.">
<polygon fill="none" stroke="black" points="269,-168.5 269,-187.5 408,-187.5 408,-168.5 269,-168.5"/>
<text text-anchor="middle" x="338.5" y="-175.5" font-family="Helvetica,sans-Serif" font-size="10.00">../include/PlantInstance.h</text>
</a>
</g>
</g>
<!-- Node1&#45;&gt;Node5 -->
<g id="edge5" class="edge">
<title>Node1&#45;&gt;Node5</title>
<path fill="none" stroke="midnightblue" d="M439.49,-224.44C419.91,-215.64 389.19,-201.81 366.77,-191.72"/>
<polygon fill="midnightblue" stroke="midnightblue" points="367.98,-188.43 357.43,-187.52 365.11,-194.81 367.98,-188.43"/>
</g>
<!-- Node13 -->
<g id="node13" class="node">
<title>Node13</title>
<g id="a_node13"><a xlink:title=" ">
<polygon fill="none" stroke="#bfbfbf" points="426.5,-168.5 426.5,-187.5 490.5,-187.5 490.5,-168.5 426.5,-168.5"/>
<text text-anchor="middle" x="458.5" y="-175.5" font-family="Helvetica,sans-Serif" font-size="10.00">algorithm</text>
</a>
</g>
</g>
<!-- Node1&#45;&gt;Node13 -->
<g id="edge18" class="edge">
<title>Node1&#45;&gt;Node13</title>
<path fill="none" stroke="midnightblue" d="M458.5,-224.08C458.5,-217.01 458.5,-206.86 458.5,-197.99"/>
<polygon fill="midnightblue" stroke="midnightblue" points="462,-197.75 458.5,-187.75 455,-197.75 462,-197.75"/>
</g>
<!-- Node14 -->
<g id="node14" class="node">
<title>Node14</title>
<g id="a_node14"><a xlink:title=" ">
<polygon fill="none" stroke="#bfbfbf" points="509,-168.5 509,-187.5 558,-187.5 558,-168.5 509,-168.5"/>
<text text-anchor="middle" x="533.5" y="-175.5" font-family="Helvetica,sans-Serif" font-size="10.00">cctype</text>
</a>
</g>
</g>
<!-- Node1&#45;&gt;Node14 -->
<g id="edge19" class="edge">
<title>Node1&#45;&gt;Node14</title>
<path fill="none" stroke="midnightblue" d="M470.55,-224.32C481.96,-216.11 499.33,-203.6 512.93,-193.81"/>
<polygon fill="midnightblue" stroke="midnightblue" points="515.16,-196.52 521.23,-187.83 511.07,-190.84 515.16,-196.52"/>
</g>
<!-- Node15 -->
<g id="node15" class="node">
<title>Node15</title>
<g id="a_node15"><a xlink:title=" ">
<polygon fill="none" stroke="#bfbfbf" points="576.5,-168.5 576.5,-187.5 636.5,-187.5 636.5,-168.5 576.5,-168.5"/>
<text text-anchor="middle" x="606.5" y="-175.5" font-family="Helvetica,sans-Serif" font-size="10.00">iostream</text>
</a>
</g>
</g>
<!-- Node1&#45;&gt;Node15 -->
<g id="edge20" class="edge">
<title>Node1&#45;&gt;Node15</title>
<path fill="none" stroke="midnightblue" d="M481.95,-224.44C506.63,-215.44 545.69,-201.19 573.48,-191.05"/>
<polygon fill="midnightblue" stroke="midnightblue" points="574.96,-194.23 583.16,-187.52 572.56,-187.66 574.96,-194.23"/>
</g>
<!-- Node3 -->
<g id="node3" class="node">
<title>Node3</title>
<g id="a_node3"><a xlink:href="CareRequestHandler_8h.html" target="_top" xlink:title="The &#39;Handler&#39; interface for the Chain of Responsibility.">
<polygon fill="none" stroke="black" points="0,-56.5 0,-75.5 125,-75.5 125,-56.5 0,-56.5"/>
<text text-anchor="middle" x="62.5" y="-63.5" font-family="Helvetica,sans-Serif" font-size="10.00">CareRequestHandler.h</text>
</a>
</g>
</g>
<!-- Node2&#45;&gt;Node3 -->
<g id="edge2" class="edge">
<title>Node2&#45;&gt;Node3</title>
<path fill="none" stroke="midnightblue" d="M80.87,-112.08C77.89,-104.77 73.57,-94.18 69.88,-85.1"/>
<polygon fill="midnightblue" stroke="midnightblue" points="73.08,-83.69 66.07,-75.75 66.6,-86.33 73.08,-83.69"/>
</g>
<!-- Node4 -->
<g id="node4" class="node">
<title>Node4</title>
<g id="a_node4"><a xlink:title=" ">
<polygon fill="none" stroke="#bfbfbf" points="203.5,-0.5 203.5,-19.5 247.5,-19.5 247.5,-0.5 203.5,-0.5"/>
<text text-anchor="middle" x="225.5" y="-7.5" font-family="Helvetica,sans-Serif" font-size="10.00">string</text>
</a>
</g>
</g>
<!-- Node2&#45;&gt;Node4 -->
<g id="edge4" class="edge">
<title>Node2&#45;&gt;Node4</title>
<path fill="none" stroke="midnightblue" d="M95.56,-112.37C119.55,-93.65 176.6,-49.15 206.49,-25.83"/>
<polygon fill="midnightblue" stroke="midnightblue" points="208.76,-28.5 214.49,-19.59 204.45,-22.98 208.76,-28.5"/>
</g>
<!-- Node3&#45;&gt;Node4 -->
<g id="edge3" class="edge">
<title>Node3&#45;&gt;Node4</title>
<path fill="none" stroke="midnightblue" d="M88.33,-56.44C116.88,-46.99 162.89,-31.74 193.65,-21.55"/>
<polygon fill="midnightblue" stroke="midnightblue" points="195.06,-24.77 203.45,-18.3 192.86,-18.13 195.06,-24.77"/>
</g>
<!-- Node5&#45;&gt;Node4 -->
<g id="edge17" class="edge">
<title>Node5&#45;&gt;Node4</title>
<path fill="none" stroke="midnightblue" d="M268.67,-168.55C246.4,-162.18 224.05,-151.12 210.5,-132 188.56,-101.03 204.71,-54.09 216.36,-28.74"/>
<polygon fill="midnightblue" stroke="midnightblue" points="219.58,-30.11 220.8,-19.59 213.29,-27.05 219.58,-30.11"/>
</g>
<!-- Node6 -->
<g id="node6" class="node">
<title>Node6</title>
<g id="a_node6"><a xlink:href="GreenhouseComponent_8h.html" target="_top" xlink:title="The abstract &#39;Component&#39; interface for the Composite pattern.">
<polygon fill="none" stroke="black" points="219.5,-112.5 219.5,-131.5 359.5,-131.5 359.5,-112.5 219.5,-112.5"/>
<text text-anchor="middle" x="289.5" y="-119.5" font-family="Helvetica,sans-Serif" font-size="10.00">GreenhouseComponent.h</text>
</a>
</g>
</g>
<!-- Node5&#45;&gt;Node6 -->
<g id="edge6" class="edge">
<title>Node5&#45;&gt;Node6</title>
<path fill="none" stroke="midnightblue" d="M330.41,-168.08C323.34,-160.3 312.91,-148.8 304.35,-139.37"/>
<polygon fill="midnightblue" stroke="midnightblue" points="306.75,-136.8 297.44,-131.75 301.57,-141.51 306.75,-136.8"/>
</g>
<!-- Node7 -->
<g id="node7" class="node">
<title>Node7</title>
<g id="a_node7"><a xlink:title=" ">
<polygon fill="none" stroke="#bfbfbf" points="301.5,-56.5 301.5,-75.5 359.5,-75.5 359.5,-56.5 301.5,-56.5"/>
<text text-anchor="middle" x="330.5" y="-63.5" font-family="Helvetica,sans-Serif" font-size="10.00">memory</text>
</a>
</g>
</g>
<!-- Node5&#45;&gt;Node7 -->
<g id="edge16" class="edge">
<title>Node5&#45;&gt;Node7</title>
<path fill="none" stroke="midnightblue" d="M347.27,-168.36C358.63,-156.09 376.1,-132.78 368.5,-112 364.44,-100.91 356.31,-90.67 348.61,-82.76"/>
<polygon fill="midnightblue" stroke="midnightblue" points="350.86,-80.07 341.21,-75.7 346.03,-85.14 350.86,-80.07"/>
</g>
<!-- Node8 -->
<g id="node8" class="node">
<title>Node8</title>
<g id="a_node8"><a xlink:href="PlantState_8h.html" target="_top" xlink:title="Abstract base class describing the lifecycle state of a plant.">
<polygon fill="none" stroke="black" points="415.5,-112.5 415.5,-131.5 491.5,-131.5 491.5,-112.5 415.5,-112.5"/>
<text text-anchor="middle" x="453.5" y="-119.5" font-family="Helvetica,sans-Serif" font-size="10.00">PlantState.h</text>
</a>
</g>
</g>
<!-- Node5&#45;&gt;Node8 -->
<g id="edge9" class="edge">
<title>Node5&#45;&gt;Node8</title>
<path fill="none" stroke="midnightblue" d="M356.72,-168.44C375.4,-159.68 404.66,-145.94 426.12,-135.86"/>
<polygon fill="midnightblue" stroke="midnightblue" points="427.8,-138.93 435.36,-131.52 424.82,-132.6 427.8,-138.93"/>
</g>
<!-- Node9 -->
<g id="node9" class="node">
<title>Node9</title>
<g id="a_node9"><a xlink:href="Subject_8h.html" target="_top" xlink:title="Declares the Subject base that manages observer subscriptions.">
<polygon fill="none" stroke="black" points="509.5,-112.5 509.5,-131.5 571.5,-131.5 571.5,-112.5 509.5,-112.5"/>
<text text-anchor="middle" x="540.5" y="-119.5" font-family="Helvetica,sans-Serif" font-size="10.00">Subject.h</text>
</a>
</g>
</g>
<!-- Node5&#45;&gt;Node9 -->
<g id="edge11" class="edge">
<title>Node5&#45;&gt;Node9</title>
<path fill="none" stroke="midnightblue" d="M370.51,-168.44C405.43,-159.11 461.44,-144.13 499.55,-133.95"/>
<polygon fill="midnightblue" stroke="midnightblue" points="500.55,-137.3 509.31,-131.34 498.74,-130.54 500.55,-137.3"/>
</g>
<!-- Node6&#45;&gt;Node4 -->
<g id="edge8" class="edge">
<title>Node6&#45;&gt;Node4</title>
<path fill="none" stroke="midnightblue" d="M284.48,-112.37C273.96,-94.3 249.46,-52.18 235.57,-28.31"/>
<polygon fill="midnightblue" stroke="midnightblue" points="238.55,-26.47 230.5,-19.59 232.5,-30 238.55,-26.47"/>
</g>
<!-- Node6&#45;&gt;Node7 -->
<g id="edge7" class="edge">
<title>Node6&#45;&gt;Node7</title>
<path fill="none" stroke="midnightblue" d="M296.27,-112.08C302.06,-104.46 310.56,-93.26 317.64,-83.94"/>
<polygon fill="midnightblue" stroke="midnightblue" points="320.6,-85.83 323.86,-75.75 315.02,-81.6 320.6,-85.83"/>
</g>
<!-- Node8&#45;&gt;Node4 -->
<g id="edge10" class="edge">
<title>Node8&#45;&gt;Node4</title>
<path fill="none" stroke="midnightblue" d="M444.31,-112.2C429.48,-98.44 398.84,-71.75 368.5,-56 332.55,-37.33 287.45,-24.73 257.62,-17.72"/>
<polygon fill="midnightblue" stroke="midnightblue" points="258.27,-14.28 247.75,-15.47 256.72,-21.1 258.27,-14.28"/>
</g>
<!-- Node10 -->
<g id="node10" class="node">
<title>Node10</title>
<g id="a_node10"><a xlink:title=" ">
<polygon fill="none" stroke="#bfbfbf" points="455.5,-56.5 455.5,-75.5 487.5,-75.5 487.5,-56.5 455.5,-56.5"/>
<text text-anchor="middle" x="471.5" y="-63.5" font-family="Helvetica,sans-Serif" font-size="10.00">list</text>
</a>
</g>
</g>
<!-- Node9&#45;&gt;Node10 -->
<g id="edge12" class="edge">
<title>Node9&#45;&gt;Node10</title>
<path fill="none" stroke="midnightblue" d="M529.41,-112.32C519.01,-104.18 503.24,-91.84 490.78,-82.09"/>
<polygon fill="midnightblue" stroke="midnightblue" points="492.82,-79.24 482.79,-75.83 488.51,-84.75 492.82,-79.24"/>
</g>
<!-- Node11 -->
<g id="node11" class="node">
<title>Node11</title>
<g id="a_node11"><a xlink:href="Observer_8h.html" target="_top" xlink:title="Declares the Observer contract and shared event payload.">
<polygon fill="none" stroke="black" points="506,-56.5 506,-75.5 575,-75.5 575,-56.5 506,-56.5"/>
<text text-anchor="middle" x="540.5" y="-63.5" font-family="Helvetica,sans-Serif" font-size="10.00">Observer.h</text>
</a>
</g>
</g>
<!-- Node9&#45;&gt;Node11 -->
<g id="edge13" class="edge">
<title>Node9&#45;&gt;Node11</title>
<path fill="none" stroke="midnightblue" d="M540.5,-112.08C540.5,-105.01 540.5,-94.86 540.5,-85.99"/>
<polygon fill="midnightblue" stroke="midnightblue" points="544,-85.75 540.5,-75.75 537,-85.75 544,-85.75"/>
</g>
<!-- Node11&#45;&gt;Node4 -->
<g id="edge15" class="edge">
<title>Node11&#45;&gt;Node4</title>
<path fill="none" stroke="midnightblue" d="M505.94,-57.8C502.75,-57.18 499.57,-56.57 496.5,-56 410.47,-40.06 308.57,-23.86 257.73,-15.95"/>
<polygon fill="midnightblue" stroke="midnightblue" points="258.1,-12.47 247.68,-14.4 257.03,-19.39 258.1,-12.47"/>
</g>
<!-- Node12 -->
<g id="node12" class="node">
<title>Node12</title>
<g id="a_node12"><a xlink:title=" ">
<polygon fill="none" stroke="#bfbfbf" points="512.5,-0.5 512.5,-19.5 568.5,-19.5 568.5,-0.5 512.5,-0.5"/>
<text text-anchor="middle" x="540.5" y="-7.5" font-family="Helvetica,sans-Serif" font-size="10.00">optional</text>
</a>
</g>
</g>
<!-- Node11&#45;&gt;Node12 -->
<g id="edge14" class="edge">
<title>Node11&#45;&gt;Node12</title>
<path fill="none" stroke="midnightblue" d="M540.5,-56.08C540.5,-49.01 540.5,-38.86 540.5,-29.99"/>
<polygon fill="midnightblue" stroke="midnightblue" points="544,-29.75 540.5,-19.75 537,-29.75 544,-29.75"/>
</g>
</g>
</svg>
