<?xml version="1.0" encoding="UTF-8" standalone="no"?>
<!DOCTYPE svg PUBLIC "-//W3C//DTD SVG 1.1//EN"
 "http://www.w3.org/Graphics/SVG/1.1/DTD/svg11.dtd">
<!-- Generated by graphviz version 2.43.0 (0)
 -->
<!-- Title: FertilizeStrategy.h Pages: 1 -->
<!--zoomable 140 -->
<svg id="main" version="1.1" xmlns="http://www.w3.org/2000/svg" xmlns:xlink="http://www.w3.org/1999/xlink" xml:space="preserve" onload="init(evt)">
<style type="text/css"><![CDATA[
.edge:hover path { stroke: red; }
.edge:hover polygon { stroke: red; fill: red; }
]]></style>
<script type="text/javascript"><![CDATA[
var edges = document.getElementsByTagName('g');
if (edges && edges.length) {
  for (var i=0;i<edges.length;i++) {
    if (edges[i].id.substr(0,4)=='edge') {
      edges[i].setAttribute('class','edge');
    }
  }
}
]]></script>
        <defs>
                <circle id="rim" cx="0" cy="0" r="7"/>
                <circle id="rim2" cx="0" cy="0" r="3.5"/>
                <g id="zoomPlus">
                        <use xlink:href="#rim" fill="#404040">
                                <set attributeName="fill" to="#808080" begin="zoomplus.mouseover" end="zoomplus.mouseout"/>
                        </use>
                        <path d="M-4,0h8M0,-4v8" fill="none" stroke="white" stroke-width="1.5" pointer-events="none"/>
                </g>
                <g id="zoomMin">
                        <use xlink:href="#rim" fill="#404040">
                                <set attributeName="fill" to="#808080" begin="zoomminus.mouseover" end="zoomminus.mouseout"/>
                        </use>
                        <path d="M-4,0h8" fill="none" stroke="white" stroke-width="1.5" pointer-events="none"/>
                </g>
                <g id="dirArrow">
                        <path fill="none" stroke="white" stroke-width="1.5" d="M0,-3.0v7 M-2.5,-0.5L0,-3.0L2.5,-0.5"/>
                </g>
               <g id="resetDef">
                       <use xlink:href="#rim2" fill="#404040">
                               <set attributeName="fill" to="#808080" begin="reset.mouseover" end="reset.mouseout"/>
                       </use>
               </g>
        </defs>

<script type="text/javascript">
var viewWidth = 993;
var viewHeight = 140;
var sectionId = 'dynsection-0';
</script>
<script xlink:href="svgpan.js"/>
<svg id="graph" class="graph">
<g id="viewport">
<title>FertilizeStrategy.h</title>
<!-- Node1 -->
<g id="node1" class="node">
<title>Node1</title>
<g id="a_node1"><a xlink:title="Abstract &#39;Strategy&#39; interface for fertilizing.">
<polygon fill="#bfbfbf" stroke="black" points="436,-112.5 436,-131.5 540,-131.5 540,-112.5 436,-112.5"/>
<text text-anchor="middle" x="488" y="-119.5" font-family="Helvetica,sans-Serif" font-size="10.00">FertilizeStrategy.h</text>
</a>
</g>
</g>
<!-- Node2 -->
<g id="node2" class="node">
<title>Node2</title>
<g id="a_node2"><a xlink:href="LiquidFertilizer_8h.html" target="_top" xlink:title="Concrete strategy for liquid fertilizing.">
<polygon fill="none" stroke="black" points="147.5,-56.5 147.5,-75.5 244.5,-75.5 244.5,-56.5 147.5,-56.5"/>
<text text-anchor="middle" x="196" y="-63.5" font-family="Helvetica,sans-Serif" font-size="10.00">LiquidFertilizer.h</text>
</a>
</g>
</g>
<!-- Node1&#45;&gt;Node2 -->
<g id="edge1" class="edge">
<title>Node1&#45;&gt;Node2</title>
<path fill="none" stroke="midnightblue" d="M431.77,-110.6C376.58,-100.4 293.44,-85.02 242.05,-75.52"/>
<polygon fill="midnightblue" stroke="midnightblue" points="431.26,-114.07 441.73,-112.44 432.53,-107.18 431.26,-114.07"/>
</g>
<!-- Node5 -->
<g id="node5" class="node">
<title>Node5</title>
<g id="a_node5"><a xlink:href="OrganicFertilizer_8h.html" target="_top" xlink:title="Concrete strategy for organic fertilizing.">
<polygon fill="none" stroke="black" points="262.5,-56.5 262.5,-75.5 367.5,-75.5 367.5,-56.5 262.5,-56.5"/>
<text text-anchor="middle" x="315" y="-63.5" font-family="Helvetica,sans-Serif" font-size="10.00">OrganicFertilizer.h</text>
</a>
</g>
</g>
<!-- Node1&#45;&gt;Node5 -->
<g id="edge4" class="edge">
<title>Node1&#45;&gt;Node5</title>
<path fill="none" stroke="midnightblue" d="M450.95,-109.44C418.34,-99.26 371.59,-84.66 342.28,-75.52"/>
<polygon fill="midnightblue" stroke="midnightblue" points="450,-112.8 460.59,-112.44 452.08,-106.12 450,-112.8"/>
</g>
<!-- Node7 -->
<g id="node7" class="node">
<title>Node7</title>
<g id="a_node7"><a xlink:href="Plant_8h.html" target="_top" xlink:title="Abstract &#39;Prototype&#39; interface for all plant types.">
<polygon fill="none" stroke="black" points="437,-56.5 437,-75.5 487,-75.5 487,-56.5 437,-56.5"/>
<text text-anchor="middle" x="462" y="-63.5" font-family="Helvetica,sans-Serif" font-size="10.00">Plant.h</text>
</a>
</g>
</g>
<!-- Node1&#45;&gt;Node7 -->
<g id="edge7" class="edge">
<title>Node1&#45;&gt;Node7</title>
<path fill="none" stroke="midnightblue" d="M479.33,-102.98C474.91,-93.82 469.75,-83.09 466.21,-75.75"/>
<polygon fill="midnightblue" stroke="midnightblue" points="476.21,-104.59 483.71,-112.08 482.52,-101.55 476.21,-104.59"/>
</g>
<!-- Node10 -->
<g id="node10" class="node">
<title>Node10</title>
<g id="a_node10"><a xlink:href="PlantInstance_8cpp.html" target="_top" xlink:title="Implements the PlantInstance behaviour defined in the corresponding header.">
<polygon fill="none" stroke="black" points="722.5,-0.5 722.5,-19.5 825.5,-19.5 825.5,-0.5 722.5,-0.5"/>
<text text-anchor="middle" x="774" y="-7.5" font-family="Helvetica,sans-Serif" font-size="10.00">PlantInstance.cpp</text>
</a>
</g>
</g>
<!-- Node1&#45;&gt;Node10 -->
<g id="edge17" class="edge">
<title>Node1&#45;&gt;Node10</title>
<path fill="none" stroke="midnightblue" d="M495.98,-102.89C503.56,-87.89 516.41,-67.28 534,-56 549.66,-45.96 656.64,-28.54 722.38,-18.57"/>
<polygon fill="midnightblue" stroke="midnightblue" points="492.69,-101.65 491.58,-112.19 499.02,-104.65 492.69,-101.65"/>
</g>
<!-- Node12 -->
<g id="node12" class="node">
<title>Node12</title>
<g id="a_node12"><a xlink:href="SlowReleaseFertilizer_8h.html" target="_top" xlink:title="Concrete strategy for slow&#45;release fertilizing.">
<polygon fill="none" stroke="black" points="543,-56.5 543,-75.5 673,-75.5 673,-56.5 543,-56.5"/>
<text text-anchor="middle" x="608" y="-63.5" font-family="Helvetica,sans-Serif" font-size="10.00">SlowReleaseFertilizer.h</text>
</a>
</g>
</g>
<!-- Node1&#45;&gt;Node12 -->
<g id="edge13" class="edge">
<title>Node1&#45;&gt;Node12</title>
<path fill="none" stroke="midnightblue" d="M516.37,-108.23C538.82,-98.13 569.54,-84.31 589.07,-75.52"/>
<polygon fill="midnightblue" stroke="midnightblue" points="514.7,-105.15 507.01,-112.44 517.57,-111.53 514.7,-105.15"/>
</g>
<!-- Node14 -->
<g id="node14" class="node">
<title>Node14</title>
<g id="a_node14"><a xlink:href="FertilizeStrategy_8cpp.html" target="_top" xlink:title="Implements the FertilizeStrategy behaviour defined in the corresponding header.">
<polygon fill="none" stroke="black" points="691,-56.5 691,-75.5 807,-75.5 807,-56.5 691,-56.5"/>
<text text-anchor="middle" x="749" y="-63.5" font-family="Helvetica,sans-Serif" font-size="10.00">FertilizeStrategy.cpp</text>
</a>
</g>
</g>
<!-- Node1&#45;&gt;Node14 -->
<g id="edge16" class="edge">
<title>Node1&#45;&gt;Node14</title>
<path fill="none" stroke="midnightblue" d="M539.19,-110.41C588.51,-100.2 662.19,-84.96 707.84,-75.52"/>
<polygon fill="midnightblue" stroke="midnightblue" points="538.44,-106.99 529.36,-112.44 539.86,-113.84 538.44,-106.99"/>
</g>
<!-- Node3 -->
<g id="node3" class="node">
<title>Node3</title>
<g id="a_node3"><a xlink:href="LiquidFertilizer_8cpp.html" target="_top" xlink:title="Implements the LiquidFertilizer behaviour defined in the corresponding header.">
<polygon fill="none" stroke="black" points="0,-0.5 0,-19.5 108,-19.5 108,-0.5 0,-0.5"/>
<text text-anchor="middle" x="54" y="-7.5" font-family="Helvetica,sans-Serif" font-size="10.00">LiquidFertilizer.cpp</text>
</a>
</g>
</g>
<!-- Node2&#45;&gt;Node3 -->
<g id="edge2" class="edge">
<title>Node2&#45;&gt;Node3</title>
<path fill="none" stroke="midnightblue" d="M163.84,-52.77C137.17,-42.63 99.93,-28.47 76.4,-19.52"/>
<polygon fill="midnightblue" stroke="midnightblue" points="162.91,-56.16 173.5,-56.44 165.4,-49.62 162.91,-56.16"/>
</g>
<!-- Node4 -->
<g id="node4" class="node">
<title>Node4</title>
<g id="a_node4"><a xlink:href="SalesFacade_8cpp.html" target="_top" xlink:title="Implements the SalesFacade behaviour defined in the corresponding header.">
<polygon fill="none" stroke="black" points="260.5,-0.5 260.5,-19.5 357.5,-19.5 357.5,-0.5 260.5,-0.5"/>
<text text-anchor="middle" x="309" y="-7.5" font-family="Helvetica,sans-Serif" font-size="10.00">SalesFacade.cpp</text>
</a>
</g>
</g>
<!-- Node2&#45;&gt;Node4 -->
<g id="edge3" class="edge">
<title>Node2&#45;&gt;Node4</title>
<path fill="none" stroke="midnightblue" d="M223,-52.1C244.11,-42.01 272.86,-28.27 291.18,-19.52"/>
<polygon fill="midnightblue" stroke="midnightblue" points="221.42,-48.97 213.91,-56.44 224.44,-55.29 221.42,-48.97"/>
</g>
<!-- Node5&#45;&gt;Node4 -->
<g id="edge6" class="edge">
<title>Node5&#45;&gt;Node4</title>
<path fill="none" stroke="midnightblue" d="M312.9,-46.1C311.9,-37.14 310.76,-26.86 309.97,-19.75"/>
<polygon fill="midnightblue" stroke="midnightblue" points="309.43,-46.53 314.01,-56.08 316.38,-45.76 309.43,-46.53"/>
</g>
<!-- Node6 -->
<g id="node6" class="node">
<title>Node6</title>
<g id="a_node6"><a xlink:href="OrganicFertilizer_8cpp.html" target="_top" xlink:title="Implements the OrganicFertilizer behaviour defined in the corresponding header.">
<polygon fill="none" stroke="black" points="126,-0.5 126,-19.5 242,-19.5 242,-0.5 126,-0.5"/>
<text text-anchor="middle" x="184" y="-7.5" font-family="Helvetica,sans-Serif" font-size="10.00">OrganicFertilizer.cpp</text>
</a>
</g>
</g>
<!-- Node5&#45;&gt;Node6 -->
<g id="edge5" class="edge">
<title>Node5&#45;&gt;Node6</title>
<path fill="none" stroke="midnightblue" d="M284.68,-52.5C260.12,-42.38 226.18,-28.39 204.66,-19.52"/>
<polygon fill="midnightblue" stroke="midnightblue" points="283.66,-55.87 294.24,-56.44 286.33,-49.4 283.66,-55.87"/>
</g>
<!-- Node7&#45;&gt;Node4 -->
<g id="edge12" class="edge">
<title>Node7&#45;&gt;Node4</title>
<path fill="none" stroke="midnightblue" d="M428.11,-53.04C399.32,-42.88 358.71,-28.55 333.13,-19.52"/>
<polygon fill="midnightblue" stroke="midnightblue" points="427.16,-56.42 437.76,-56.44 429.49,-49.81 427.16,-56.42"/>
</g>
<!-- Node8 -->
<g id="node8" class="node">
<title>Node8</title>
<g id="a_node8"><a xlink:href="Inventory_8cpp.html" target="_top" xlink:title="Implements the Inventory behaviour defined in the corresponding header.">
<polygon fill="none" stroke="black" points="376,-0.5 376,-19.5 458,-19.5 458,-0.5 376,-0.5"/>
<text text-anchor="middle" x="417" y="-7.5" font-family="Helvetica,sans-Serif" font-size="10.00">Inventory.cpp</text>
</a>
</g>
</g>
<!-- Node7&#45;&gt;Node8 -->
<g id="edge8" class="edge">
<title>Node7&#45;&gt;Node8</title>
<path fill="none" stroke="midnightblue" d="M447.95,-48.14C440.11,-38.74 430.67,-27.4 424.29,-19.75"/>
<polygon fill="midnightblue" stroke="midnightblue" points="445.48,-50.64 454.57,-56.08 450.86,-46.16 445.48,-50.64"/>
</g>
<!-- Node9 -->
<g id="node9" class="node">
<title>Node9</title>
<g id="a_node9"><a xlink:href="Plant_8cpp.html" target="_top" xlink:title="Implements the Plant behaviour defined in the corresponding header.">
<polygon fill="none" stroke="black" points="476,-0.5 476,-19.5 538,-19.5 538,-0.5 476,-0.5"/>
<text text-anchor="middle" x="507" y="-7.5" font-family="Helvetica,sans-Serif" font-size="10.00">Plant.cpp</text>
</a>
</g>
</g>
<!-- Node7&#45;&gt;Node9 -->
<g id="edge9" class="edge">
<title>Node7&#45;&gt;Node9</title>
<path fill="none" stroke="midnightblue" d="M476.05,-48.14C483.89,-38.74 493.33,-27.4 499.71,-19.75"/>
<polygon fill="midnightblue" stroke="midnightblue" points="473.14,-46.16 469.43,-56.08 478.52,-50.64 473.14,-46.16"/>
</g>
<!-- Node7&#45;&gt;Node10 -->
<g id="edge10" class="edge">
<title>Node7&#45;&gt;Node10</title>
<path fill="none" stroke="midnightblue" d="M497.15,-56.78C498.45,-56.51 499.73,-56.25 501,-56 542.35,-47.83 655.31,-29.71 722.26,-19.13"/>
<polygon fill="midnightblue" stroke="midnightblue" points="496.16,-53.41 487.12,-58.96 497.64,-60.26 496.16,-53.41"/>
</g>
<!-- Node11 -->
<g id="node11" class="node">
<title>Node11</title>
<g id="a_node11"><a xlink:href="PlantPrototypeRegistry_8cpp.html" target="_top" xlink:title="Implements the PlantPrototypeRegistry behaviour defined in the corresponding header.">
<polygon fill="none" stroke="black" points="556,-0.5 556,-19.5 704,-19.5 704,-0.5 556,-0.5"/>
<text text-anchor="middle" x="630" y="-7.5" font-family="Helvetica,sans-Serif" font-size="10.00">PlantPrototypeRegistry.cpp</text>
</a>
</g>
</g>
<!-- Node7&#45;&gt;Node11 -->
<g id="edge11" class="edge">
<title>Node7&#45;&gt;Node11</title>
<path fill="none" stroke="midnightblue" d="M496.88,-53.79C528.52,-43.62 574.48,-28.84 603.29,-19.59"/>
<polygon fill="midnightblue" stroke="midnightblue" points="495.6,-50.52 487.15,-56.92 497.74,-57.19 495.6,-50.52"/>
</g>
<!-- Node12&#45;&gt;Node4 -->
<g id="edge14" class="edge">
<title>Node12&#45;&gt;Node4</title>
<path fill="none" stroke="midnightblue" d="M550.77,-54.66C494.26,-44.46 408.88,-29.04 356.16,-19.52"/>
<polygon fill="midnightblue" stroke="midnightblue" points="550.16,-58.11 560.62,-56.44 551.4,-51.22 550.16,-58.11"/>
</g>
<!-- Node13 -->
<g id="node13" class="node">
<title>Node13</title>
<g id="a_node13"><a xlink:href="SlowReleaseFertilizer_8cpp.html" target="_top" xlink:title="Implements the SlowReleaseFertilizer behaviour defined in the corresponding header.">
<polygon fill="none" stroke="black" points="843.5,-0.5 843.5,-19.5 984.5,-19.5 984.5,-0.5 843.5,-0.5"/>
<text text-anchor="middle" x="914" y="-7.5" font-family="Helvetica,sans-Serif" font-size="10.00">SlowReleaseFertilizer.cpp</text>
</a>
</g>
</g>
<!-- Node12&#45;&gt;Node13 -->
<g id="edge15" class="edge">
<title>Node12&#45;&gt;Node13</title>
<path fill="none" stroke="midnightblue" d="M666.57,-54.66C724.4,-44.46 811.78,-29.04 865.74,-19.52"/>
<polygon fill="midnightblue" stroke="midnightblue" points="665.73,-51.26 656.49,-56.44 666.94,-58.15 665.73,-51.26"/>
</g>
</g>
</svg>
        <g id="navigator" transform="translate(0 0)" fill="#404254">
                <rect fill="#f2f5e9" fill-opacity="0.5" stroke="#606060" stroke-width=".5" x="0" y="0" width="60" height="60"/>
                <use id="zoomplus" xlink:href="#zoomPlus" x="17" y="9" onmousedown="handleZoom(evt,'in')"/>
                <use id="zoomminus" xlink:href="#zoomMin" x="42" y="9" onmousedown="handleZoom(evt,'out')"/>
                <use id="reset" xlink:href="#resetDef" x="30" y="36" onmousedown="handleReset()"/>
                <g id="arrowUp" xlink:href="#dirArrow" transform="translate(30 24)" onmousedown="handlePan(0,-1)">
                  <use xlink:href="#rim" fill="#404040">
                        <set attributeName="fill" to="#808080" begin="arrowUp.mouseover" end="arrowUp.mouseout"/>
                  </use>
                  <path fill="none" stroke="white" stroke-width="1.5" d="M0,-3.0v7 M-2.5,-0.5L0,-3.0L2.5,-0.5"/>
                </g>
                <g id="arrowRight" xlink:href="#dirArrow" transform="rotate(90) translate(36 -43)" onmousedown="handlePan(1,0)">
                  <use xlink:href="#rim" fill="#404040">
                        <set attributeName="fill" to="#808080" begin="arrowRight.mouseover" end="arrowRight.mouseout"/>
                  </use>
                  <path fill="none" stroke="white" stroke-width="1.5" d="M0,-3.0v7 M-2.5,-0.5L0,-3.0L2.5,-0.5"/>
                </g>
                <g id="arrowDown" xlink:href="#dirArrow" transform="rotate(180) translate(-30 -48)" onmousedown="handlePan(0,1)">
                  <use xlink:href="#rim" fill="#404040">
                        <set attributeName="fill" to="#808080" begin="arrowDown.mouseover" end="arrowDown.mouseout"/>
                  </use>
                  <path fill="none" stroke="white" stroke-width="1.5" d="M0,-3.0v7 M-2.5,-0.5L0,-3.0L2.5,-0.5"/>
                </g>
                <g id="arrowLeft" xlink:href="#dirArrow" transform="rotate(270) translate(-36 17)" onmousedown="handlePan(-1,0)">
                  <use xlink:href="#rim" fill="#404040">
                        <set attributeName="fill" to="#808080" begin="arrowLeft.mouseover" end="arrowLeft.mouseout"/>
                  </use>
                  <path fill="none" stroke="white" stroke-width="1.5" d="M0,-3.0v7 M-2.5,-0.5L0,-3.0L2.5,-0.5"/>
                </g>
        </g>
        <svg viewBox="0 0 15 15" width="100%" height="30px" preserveAspectRatio="xMaxYMin meet">
         <g id="arrow_out" transform="scale(0.3 0.3)">
          <a xlink:href="FertilizeStrategy_8h__dep__incl_org.svg" target="_base">
           <rect id="button" ry="5" rx="5" y="6" x="6" height="38" width="38"
                fill="#f2f5e9" fill-opacity="0.5" stroke="#606060" stroke-width="1.0"/>
           <path id="arrow"
             d="M 11.500037,31.436501 C 11.940474,20.09759 22.043105,11.32322 32.158766,21.979434 L 37.068811,17.246167 C 37.068811,17.246167 37.088388,32 37.088388,32 L 22.160133,31.978069 C 22.160133,31.978069 26.997745,27.140456 26.997745,27.140456 C 18.528582,18.264221 13.291696,25.230495 11.500037,31.436501 z"
             style="fill:#404040;"/>
          </a>
         </g>
        </svg>
</svg>
