<?xml version="1.0" encoding="UTF-8" standalone="no"?>
<!DOCTYPE svg PUBLIC "-//W3C//DTD SVG 1.1//EN"
 "http://www.w3.org/Graphics/SVG/1.1/DTD/svg11.dtd">
<!-- Generated by graphviz version 2.43.0 (0)
 -->
<!-- Title: FileAdapter.h Pages: 1 -->
<svg width="414pt" height="140pt"
 viewBox="0.00 0.00 413.50 140.00" xmlns="http://www.w3.org/2000/svg" xmlns:xlink="http://www.w3.org/1999/xlink">
<g id="graph0" class="graph" transform="scale(1 1) rotate(0) translate(4 136)">
<title>FileAdapter.h</title>
<!-- Node1 -->
<g id="node1" class="node">
<title>Node1</title>
<g id="a_node1"><a xlink:title="The &#39;Target&#39; interface for the Adapter pattern.">
<polygon fill="#bfbfbf" stroke="black" points="166.5,-112.5 166.5,-131.5 246.5,-131.5 246.5,-112.5 166.5,-112.5"/>
<text text-anchor="middle" x="206.5" y="-119.5" font-family="Helvetica,sans-Serif" font-size="10.00">FileAdapter.h</text>
</a>
</g>
</g>
<!-- Node2 -->
<g id="node2" class="node">
<title>Node2</title>
<g id="a_node2"><a xlink:href="CSVAdapter_8h.html" target="_top" xlink:title="&#39;Adapter&#39; class that adapts CSVReaderWriter to FileAdapter.">
<polygon fill="none" stroke="black" points="10.5,-56.5 10.5,-75.5 92.5,-75.5 92.5,-56.5 10.5,-56.5"/>
<text text-anchor="middle" x="51.5" y="-63.5" font-family="Helvetica,sans-Serif" font-size="10.00">CSVAdapter.h</text>
</a>
</g>
</g>
<!-- Node1&#45;&gt;Node2 -->
<g id="edge1" class="edge">
<title>Node1&#45;&gt;Node2</title>
<path fill="none" stroke="midnightblue" d="M172.17,-109.04C143,-98.88 101.86,-84.55 75.95,-75.52"/>
<polygon fill="midnightblue" stroke="midnightblue" points="171.34,-112.46 181.94,-112.44 173.65,-105.85 171.34,-112.46"/>
</g>
<!-- Node4 -->
<g id="node4" class="node">
<title>Node4</title>
<g id="a_node4"><a xlink:href="TXTAdapter_8h.html" target="_top" xlink:title="&#39;Adapter&#39; class that adapts TXTReaderWriter to FileAdapter.">
<polygon fill="none" stroke="black" points="114,-56.5 114,-75.5 195,-75.5 195,-56.5 114,-56.5"/>
<text text-anchor="middle" x="154.5" y="-63.5" font-family="Helvetica,sans-Serif" font-size="10.00">TXTAdapter.h</text>
</a>
</g>
</g>
<!-- Node1&#45;&gt;Node4 -->
<g id="edge3" class="edge">
<title>Node1&#45;&gt;Node4</title>
<path fill="none" stroke="midnightblue" d="M190.82,-104.72C181.66,-95.2 170.45,-83.56 162.93,-75.75"/>
<polygon fill="midnightblue" stroke="midnightblue" points="188.46,-107.31 197.91,-112.08 193.5,-102.45 188.46,-107.31"/>
</g>
<!-- Node6 -->
<g id="node6" class="node">
<title>Node6</title>
<g id="a_node6"><a xlink:href="FileAdapter_8cpp.html" target="_top" xlink:title="Implements the FileAdapter behaviour defined in the corresponding header.">
<polygon fill="none" stroke="black" points="213.5,-56.5 213.5,-75.5 305.5,-75.5 305.5,-56.5 213.5,-56.5"/>
<text text-anchor="middle" x="259.5" y="-63.5" font-family="Helvetica,sans-Serif" font-size="10.00">FileAdapter.cpp</text>
</a>
</g>
</g>
<!-- Node1&#45;&gt;Node6 -->
<g id="edge5" class="edge">
<title>Node1&#45;&gt;Node6</title>
<path fill="none" stroke="midnightblue" d="M222.48,-104.72C231.82,-95.2 243.25,-83.56 250.91,-75.75"/>
<polygon fill="midnightblue" stroke="midnightblue" points="219.76,-102.49 215.25,-112.08 224.75,-107.4 219.76,-102.49"/>
</g>
<!-- Node7 -->
<g id="node7" class="node">
<title>Node7</title>
<g id="a_node7"><a xlink:href="Inventory_8cpp.html" target="_top" xlink:title="Implements the Inventory behaviour defined in the corresponding header.">
<polygon fill="none" stroke="black" points="323.5,-56.5 323.5,-75.5 405.5,-75.5 405.5,-56.5 323.5,-56.5"/>
<text text-anchor="middle" x="364.5" y="-63.5" font-family="Helvetica,sans-Serif" font-size="10.00">Inventory.cpp</text>
</a>
</g>
</g>
<!-- Node1&#45;&gt;Node7 -->
<g id="edge6" class="edge">
<title>Node1&#45;&gt;Node7</title>
<path fill="none" stroke="midnightblue" d="M241.11,-109.17C270.86,-99 313.05,-84.59 339.58,-75.52"/>
<polygon fill="midnightblue" stroke="midnightblue" points="239.87,-105.9 231.54,-112.44 242.13,-112.52 239.87,-105.9"/>
</g>
<!-- Node3 -->
<g id="node3" class="node">
<title>Node3</title>
<g id="a_node3"><a xlink:href="CSVAdapter_8cpp.html" target="_top" xlink:title="Implements the CSVAdapter behaviour defined in the corresponding header.">
<polygon fill="none" stroke="black" points="0,-0.5 0,-19.5 93,-19.5 93,-0.5 0,-0.5"/>
<text text-anchor="middle" x="46.5" y="-7.5" font-family="Helvetica,sans-Serif" font-size="10.00">CSVAdapter.cpp</text>
</a>
</g>
</g>
<!-- Node2&#45;&gt;Node3 -->
<g id="edge2" class="edge">
<title>Node2&#45;&gt;Node3</title>
<path fill="none" stroke="midnightblue" d="M49.75,-46.1C48.92,-37.14 47.97,-26.86 47.31,-19.75"/>
<polygon fill="midnightblue" stroke="midnightblue" points="46.27,-46.45 50.67,-56.08 53.24,-45.8 46.27,-46.45"/>
</g>
<!-- Node5 -->
<g id="node5" class="node">
<title>Node5</title>
<g id="a_node5"><a xlink:href="TXTAdapter_8cpp.html" target="_top" xlink:title="Implements the TXTAdapter behaviour defined in the corresponding header.">
<polygon fill="none" stroke="black" points="111.5,-0.5 111.5,-19.5 203.5,-19.5 203.5,-0.5 111.5,-0.5"/>
<text text-anchor="middle" x="157.5" y="-7.5" font-family="Helvetica,sans-Serif" font-size="10.00">TXTAdapter.cpp</text>
</a>
</g>
</g>
<!-- Node4&#45;&gt;Node5 -->
<g id="edge4" class="edge">
<title>Node4&#45;&gt;Node5</title>
<path fill="none" stroke="midnightblue" d="M155.57,-45.8C156.06,-36.91 156.62,-26.78 157.01,-19.75"/>
<polygon fill="midnightblue" stroke="midnightblue" points="152.06,-45.9 155,-56.08 159.04,-46.29 152.06,-45.9"/>
</g>
</g>
</svg>
