<?xml version="1.0" encoding="UTF-8" standalone="no"?>
<!DOCTYPE svg PUBLIC "-//W3C//DTD SVG 1.1//EN"
 "http://www.w3.org/Graphics/SVG/1.1/DTD/svg11.dtd">
<!-- Generated by graphviz version 2.43.0 (0)
 -->
<!-- Title: FloorMediator.h Pages: 1 -->
<svg width="404pt" height="140pt"
 viewBox="0.00 0.00 403.50 140.00" xmlns="http://www.w3.org/2000/svg" xmlns:xlink="http://www.w3.org/1999/xlink">
<g id="graph0" class="graph" transform="scale(1 1) rotate(0) translate(4 136)">
<title>FloorMediator.h</title>
<!-- Node1 -->
<g id="node1" class="node">
<title>Node1</title>
<g id="a_node1"><a xlink:title="The &#39;Mediator&#39; interface.">
<polygon fill="#bfbfbf" stroke="black" points="178.5,-112.5 178.5,-131.5 271.5,-131.5 271.5,-112.5 178.5,-112.5"/>
<text text-anchor="middle" x="225" y="-119.5" font-family="Helvetica,sans-Serif" font-size="10.00">FloorMediator.h</text>
</a>
</g>
</g>
<!-- Node2 -->
<g id="node2" class="node">
<title>Node2</title>
<g id="a_node2"><a xlink:href="NurseryMediator_8h.html" target="_top" xlink:title="The &#39;ConcreteMediator&#39; implementation.">
<polygon fill="none" stroke="black" points="5.5,-56.5 5.5,-75.5 112.5,-75.5 112.5,-56.5 5.5,-56.5"/>
<text text-anchor="middle" x="59" y="-63.5" font-family="Helvetica,sans-Serif" font-size="10.00">NurseryMediator.h</text>
</a>
</g>
</g>
<!-- Node1&#45;&gt;Node2 -->
<g id="edge1" class="edge">
<title>Node1&#45;&gt;Node2</title>
<path fill="none" stroke="midnightblue" d="M189.05,-109.3C157.77,-99.13 113.18,-84.62 85.18,-75.52"/>
<polygon fill="midnightblue" stroke="midnightblue" points="188.1,-112.68 198.7,-112.44 190.27,-106.02 188.1,-112.68"/>
</g>
<!-- Node4 -->
<g id="node4" class="node">
<title>Node4</title>
<g id="a_node4"><a xlink:href="Colleague_8cpp.html" target="_top" xlink:title="Implements the Colleague behaviour defined in the corresponding header.">
<polygon fill="none" stroke="black" points="131,-56.5 131,-75.5 217,-75.5 217,-56.5 131,-56.5"/>
<text text-anchor="middle" x="174" y="-63.5" font-family="Helvetica,sans-Serif" font-size="10.00">Colleague.cpp</text>
</a>
</g>
</g>
<!-- Node1&#45;&gt;Node4 -->
<g id="edge3" class="edge">
<title>Node1&#45;&gt;Node4</title>
<path fill="none" stroke="midnightblue" d="M209.62,-104.72C200.63,-95.2 189.64,-83.56 182.26,-75.75"/>
<polygon fill="midnightblue" stroke="midnightblue" points="207.17,-107.22 216.58,-112.08 212.26,-102.41 207.17,-107.22"/>
</g>
<!-- Node5 -->
<g id="node5" class="node">
<title>Node5</title>
<g id="a_node5"><a xlink:href="Customer_8cpp.html" target="_top" xlink:title="Implements the Customer behaviour defined in the corresponding header.">
<polygon fill="none" stroke="black" points="235.5,-56.5 235.5,-75.5 318.5,-75.5 318.5,-56.5 235.5,-56.5"/>
<text text-anchor="middle" x="277" y="-63.5" font-family="Helvetica,sans-Serif" font-size="10.00">Customer.cpp</text>
</a>
</g>
</g>
<!-- Node1&#45;&gt;Node5 -->
<g id="edge4" class="edge">
<title>Node1&#45;&gt;Node5</title>
<path fill="none" stroke="midnightblue" d="M240.68,-104.72C249.84,-95.2 261.05,-83.56 268.57,-75.75"/>
<polygon fill="midnightblue" stroke="midnightblue" points="238,-102.45 233.59,-112.08 243.04,-107.31 238,-102.45"/>
</g>
<!-- Node6 -->
<g id="node6" class="node">
<title>Node6</title>
<g id="a_node6"><a xlink:href="Staff_8cpp.html" target="_top" xlink:title="Implements the Staff behaviour defined in the corresponding header.">
<polygon fill="none" stroke="black" points="336.5,-56.5 336.5,-75.5 395.5,-75.5 395.5,-56.5 336.5,-56.5"/>
<text text-anchor="middle" x="366" y="-63.5" font-family="Helvetica,sans-Serif" font-size="10.00">Staff.cpp</text>
</a>
</g>
</g>
<!-- Node1&#45;&gt;Node6 -->
<g id="edge5" class="edge">
<title>Node1&#45;&gt;Node6</title>
<path fill="none" stroke="midnightblue" d="M256.93,-108.77C283.41,-98.63 320.39,-84.47 343.76,-75.52"/>
<polygon fill="midnightblue" stroke="midnightblue" points="255.43,-105.6 247.34,-112.44 257.93,-112.14 255.43,-105.6"/>
</g>
<!-- Node3 -->
<g id="node3" class="node">
<title>Node3</title>
<g id="a_node3"><a xlink:href="NurseryMediator_8cpp.html" target="_top" xlink:title="Implements the NurseryMediator behaviour defined in the corresponding header.">
<polygon fill="none" stroke="black" points="0,-0.5 0,-19.5 118,-19.5 118,-0.5 0,-0.5"/>
<text text-anchor="middle" x="59" y="-7.5" font-family="Helvetica,sans-Serif" font-size="10.00">NurseryMediator.cpp</text>
</a>
</g>
</g>
<!-- Node2&#45;&gt;Node3 -->
<g id="edge2" class="edge">
<title>Node2&#45;&gt;Node3</title>
<path fill="none" stroke="midnightblue" d="M59,-45.8C59,-36.91 59,-26.78 59,-19.75"/>
<polygon fill="midnightblue" stroke="midnightblue" points="55.5,-46.08 59,-56.08 62.5,-46.08 55.5,-46.08"/>
</g>
</g>
</svg>
