<?xml version="1.0" encoding="UTF-8" standalone="no"?>
<!DOCTYPE svg PUBLIC "-//W3C//DTD SVG 1.1//EN"
 "http://www.w3.org/Graphics/SVG/1.1/DTD/svg11.dtd">
<!-- Generated by graphviz version 2.43.0 (0)
 -->
<!-- Title: GreenhouseController.cpp Pages: 1 -->
<svg width="564pt" height="252pt"
 viewBox="0.00 0.00 563.77 252.00" xmlns="http://www.w3.org/2000/svg" xmlns:xlink="http://www.w3.org/1999/xlink">
<g id="graph0" class="graph" transform="scale(1 1) rotate(0) translate(4 248)">
<title>GreenhouseController.cpp</title>
<!-- Node1 -->
<g id="node1" class="node">
<title>Node1</title>
<g id="a_node1"><a xlink:title="Implements the GreenhouseController behaviour defined in the corresponding header.">
<polygon fill="#bfbfbf" stroke="black" points="128.77,-224.5 128.77,-243.5 271.77,-243.5 271.77,-224.5 128.77,-224.5"/>
<text text-anchor="middle" x="200.27" y="-231.5" font-family="Helvetica,sans-Serif" font-size="10.00">GreenhouseController.cpp</text>
</a>
</g>
</g>
<!-- Node2 -->
<g id="node2" class="node">
<title>Node2</title>
<g id="a_node2"><a xlink:href="GreenhouseController_8h.html" target="_top" xlink:title="The controller responsible for applying periodic care to the nursery.">
<polygon fill="none" stroke="black" points="22.77,-168.5 22.77,-187.5 201.77,-187.5 201.77,-168.5 22.77,-168.5"/>
<text text-anchor="middle" x="112.27" y="-175.5" font-family="Helvetica,sans-Serif" font-size="10.00">../include/GreenhouseController.h</text>
</a>
</g>
</g>
<!-- Node1&#45;&gt;Node2 -->
<g id="edge1" class="edge">
<title>Node1&#45;&gt;Node2</title>
<path fill="none" stroke="midnightblue" d="M186.13,-224.32C172.4,-215.9 151.33,-202.97 135.2,-193.07"/>
<polygon fill="midnightblue" stroke="midnightblue" points="136.72,-189.9 126.37,-187.65 133.06,-195.87 136.72,-189.9"/>
</g>
<!-- Node5 -->
<g id="node5" class="node">
<title>Node5</title>
<g id="a_node5"><a xlink:title=" ">
<polygon fill="none" stroke="#bfbfbf" points="55.27,-0.5 55.27,-19.5 113.27,-19.5 113.27,-0.5 55.27,-0.5"/>
<text text-anchor="middle" x="84.27" y="-7.5" font-family="Helvetica,sans-Serif" font-size="10.00">memory</text>
</a>
</g>
</g>
<!-- Node1&#45;&gt;Node5 -->
<g id="edge21" class="edge">
<title>Node1&#45;&gt;Node5</title>
<path fill="none" stroke="midnightblue" d="M128.29,-224.89C81.91,-218.01 27.68,-206.29 13.27,-188 -26.97,-136.93 36.29,-60.07 67.95,-27.03"/>
<polygon fill="midnightblue" stroke="midnightblue" points="70.72,-29.2 75.24,-19.62 65.73,-24.29 70.72,-29.2"/>
</g>
<!-- Node8 -->
<g id="node8" class="node">
<title>Node8</title>
<g id="a_node8"><a xlink:href="GreenhouseIterator_8h.html" target="_top" xlink:title="Declares the iteration interface used to traverse nursery plants.">
<polygon fill="none" stroke="black" points="376.77,-168.5 376.77,-187.5 543.77,-187.5 543.77,-168.5 376.77,-168.5"/>
<text text-anchor="middle" x="460.27" y="-175.5" font-family="Helvetica,sans-Serif" font-size="10.00">../include/GreenhouseIterator.h</text>
</a>
</g>
</g>
<!-- Node1&#45;&gt;Node8 -->
<g id="edge9" class="edge">
<title>Node1&#45;&gt;Node8</title>
<path fill="none" stroke="midnightblue" d="M241.46,-224.44C286.91,-215 360.11,-199.8 409.18,-189.61"/>
<polygon fill="midnightblue" stroke="midnightblue" points="410.18,-192.98 419.26,-187.52 408.76,-186.12 410.18,-192.98"/>
</g>
<!-- Node9 -->
<g id="node9" class="node">
<title>Node9</title>
<g id="a_node9"><a xlink:href="PlantInstance_8h.html" target="_top" xlink:title="Represents a single, physical plant in the nursery.">
<polygon fill="none" stroke="black" points="219.77,-168.5 219.77,-187.5 358.77,-187.5 358.77,-168.5 219.77,-168.5"/>
<text text-anchor="middle" x="289.27" y="-175.5" font-family="Helvetica,sans-Serif" font-size="10.00">../include/PlantInstance.h</text>
</a>
</g>
</g>
<!-- Node1&#45;&gt;Node9 -->
<g id="edge10" class="edge">
<title>Node1&#45;&gt;Node9</title>
<path fill="none" stroke="midnightblue" d="M214.57,-224.32C228.45,-215.9 249.76,-202.97 266.07,-193.07"/>
<polygon fill="midnightblue" stroke="midnightblue" points="268.27,-195.83 275,-187.65 264.64,-189.85 268.27,-195.83"/>
</g>
<!-- Node3 -->
<g id="node3" class="node">
<title>Node3</title>
<g id="a_node3"><a xlink:href="GreenhouseBed_8h.html" target="_top" xlink:title="The &#39;Composite&#39; class.">
<polygon fill="none" stroke="black" points="27.77,-112.5 27.77,-131.5 130.77,-131.5 130.77,-112.5 27.77,-112.5"/>
<text text-anchor="middle" x="79.27" y="-119.5" font-family="Helvetica,sans-Serif" font-size="10.00">GreenhouseBed.h</text>
</a>
</g>
</g>
<!-- Node2&#45;&gt;Node3 -->
<g id="edge2" class="edge">
<title>Node2&#45;&gt;Node3</title>
<path fill="none" stroke="midnightblue" d="M106.82,-168.08C102.25,-160.61 95.6,-149.72 89.97,-140.52"/>
<polygon fill="midnightblue" stroke="midnightblue" points="92.81,-138.46 84.61,-131.75 86.84,-142.11 92.81,-138.46"/>
</g>
<!-- Node4 -->
<g id="node4" class="node">
<title>Node4</title>
<g id="a_node4"><a xlink:href="GreenhouseComponent_8h.html" target="_top" xlink:title="The abstract &#39;Component&#39; interface for the Composite pattern.">
<polygon fill="none" stroke="black" points="202.27,-56.5 202.27,-75.5 342.27,-75.5 342.27,-56.5 202.27,-56.5"/>
<text text-anchor="middle" x="272.27" y="-63.5" font-family="Helvetica,sans-Serif" font-size="10.00">GreenhouseComponent.h</text>
</a>
</g>
</g>
<!-- Node3&#45;&gt;Node4 -->
<g id="edge3" class="edge">
<title>Node3&#45;&gt;Node4</title>
<path fill="none" stroke="midnightblue" d="M109.85,-112.44C142.88,-103.2 195.65,-88.44 232.03,-78.26"/>
<polygon fill="midnightblue" stroke="midnightblue" points="233.14,-81.58 241.83,-75.52 231.25,-74.84 233.14,-81.58"/>
</g>
<!-- Node3&#45;&gt;Node5 -->
<g id="edge8" class="edge">
<title>Node3&#45;&gt;Node5</title>
<path fill="none" stroke="midnightblue" d="M71.16,-112.36C60.66,-100.09 44.46,-76.79 51.27,-56 54.76,-45.34 61.84,-35.12 68.55,-27.12"/>
<polygon fill="midnightblue" stroke="midnightblue" points="71.17,-29.44 75.25,-19.66 65.96,-24.76 71.17,-29.44"/>
</g>
<!-- Node6 -->
<g id="node6" class="node">
<title>Node6</title>
<g id="a_node6"><a xlink:title=" ">
<polygon fill="none" stroke="#bfbfbf" points="348.27,-0.5 348.27,-19.5 392.27,-19.5 392.27,-0.5 348.27,-0.5"/>
<text text-anchor="middle" x="370.27" y="-7.5" font-family="Helvetica,sans-Serif" font-size="10.00">string</text>
</a>
</g>
</g>
<!-- Node3&#45;&gt;Node6 -->
<g id="edge7" class="edge">
<title>Node3&#45;&gt;Node6</title>
<path fill="none" stroke="midnightblue" d="M91.69,-112.41C112.05,-98.69 154.18,-71.77 193.27,-56 242.1,-36.29 302.08,-23.21 338.18,-16.46"/>
<polygon fill="midnightblue" stroke="midnightblue" points="338.93,-19.88 348.14,-14.64 337.68,-12.99 338.93,-19.88"/>
</g>
<!-- Node7 -->
<g id="node7" class="node">
<title>Node7</title>
<g id="a_node7"><a xlink:title=" ">
<polygon fill="none" stroke="#bfbfbf" points="60.77,-56.5 60.77,-75.5 107.77,-75.5 107.77,-56.5 60.77,-56.5"/>
<text text-anchor="middle" x="84.27" y="-63.5" font-family="Helvetica,sans-Serif" font-size="10.00">vector</text>
</a>
</g>
</g>
<!-- Node3&#45;&gt;Node7 -->
<g id="edge6" class="edge">
<title>Node3&#45;&gt;Node7</title>
<path fill="none" stroke="midnightblue" d="M80.09,-112.08C80.75,-105.01 81.69,-94.86 82.51,-85.99"/>
<polygon fill="midnightblue" stroke="midnightblue" points="86.02,-86.03 83.46,-75.75 79.05,-85.39 86.02,-86.03"/>
</g>
<!-- Node4&#45;&gt;Node5 -->
<g id="edge4" class="edge">
<title>Node4&#45;&gt;Node5</title>
<path fill="none" stroke="midnightblue" d="M242.48,-56.44C210.25,-47.19 158.73,-32.39 123.29,-22.21"/>
<polygon fill="midnightblue" stroke="midnightblue" points="123.88,-18.74 113.3,-19.34 121.94,-25.46 123.88,-18.74"/>
</g>
<!-- Node4&#45;&gt;Node6 -->
<g id="edge5" class="edge">
<title>Node4&#45;&gt;Node6</title>
<path fill="none" stroke="midnightblue" d="M288.01,-56.32C303.58,-47.74 327.64,-34.49 345.73,-24.52"/>
<polygon fill="midnightblue" stroke="midnightblue" points="347.49,-27.55 354.56,-19.65 344.11,-21.42 347.49,-27.55"/>
</g>
<!-- Node9&#45;&gt;Node4 -->
<g id="edge11" class="edge">
<title>Node9&#45;&gt;Node4</title>
<path fill="none" stroke="midnightblue" d="M287.93,-168.37C285.19,-150.62 278.86,-109.67 275.14,-85.6"/>
<polygon fill="midnightblue" stroke="midnightblue" points="278.58,-84.94 273.59,-75.59 271.66,-86.01 278.58,-84.94"/>
</g>
<!-- Node9&#45;&gt;Node5 -->
<g id="edge19" class="edge">
<title>Node9&#45;&gt;Node5</title>
<path fill="none" stroke="midnightblue" d="M278.53,-168.31C245.46,-141.53 144.82,-60.03 102.9,-26.09"/>
<polygon fill="midnightblue" stroke="midnightblue" points="104.87,-23.18 94.89,-19.61 100.46,-28.62 104.87,-23.18"/>
</g>
<!-- Node9&#45;&gt;Node6 -->
<g id="edge20" class="edge">
<title>Node9&#45;&gt;Node6</title>
<path fill="none" stroke="midnightblue" d="M295.76,-168.26C308.1,-151.27 335.17,-112.3 351.27,-76 357.97,-60.89 363.04,-42.76 366.25,-29.5"/>
<polygon fill="midnightblue" stroke="midnightblue" points="369.68,-30.2 368.51,-19.67 362.86,-28.63 369.68,-30.2"/>
</g>
<!-- Node10 -->
<g id="node10" class="node">
<title>Node10</title>
<g id="a_node10"><a xlink:href="PlantState_8h.html" target="_top" xlink:title="Abstract base class describing the lifecycle state of a plant.">
<polygon fill="none" stroke="black" points="383.27,-112.5 383.27,-131.5 459.27,-131.5 459.27,-112.5 383.27,-112.5"/>
<text text-anchor="middle" x="421.27" y="-119.5" font-family="Helvetica,sans-Serif" font-size="10.00">PlantState.h</text>
</a>
</g>
</g>
<!-- Node9&#45;&gt;Node10 -->
<g id="edge12" class="edge">
<title>Node9&#45;&gt;Node10</title>
<path fill="none" stroke="midnightblue" d="M310.18,-168.44C332,-159.52 366.42,-145.44 391.16,-135.32"/>
<polygon fill="midnightblue" stroke="midnightblue" points="392.52,-138.54 400.45,-131.52 389.87,-132.06 392.52,-138.54"/>
</g>
<!-- Node11 -->
<g id="node11" class="node">
<title>Node11</title>
<g id="a_node11"><a xlink:href="Subject_8h.html" target="_top" xlink:title="Declares the Subject base that manages observer subscriptions.">
<polygon fill="none" stroke="black" points="477.27,-112.5 477.27,-131.5 539.27,-131.5 539.27,-112.5 477.27,-112.5"/>
<text text-anchor="middle" x="508.27" y="-119.5" font-family="Helvetica,sans-Serif" font-size="10.00">Subject.h</text>
</a>
</g>
</g>
<!-- Node9&#45;&gt;Node11 -->
<g id="edge14" class="edge">
<title>Node9&#45;&gt;Node11</title>
<path fill="none" stroke="midnightblue" d="M323.97,-168.44C362.85,-158.86 425.85,-143.32 467.17,-133.13"/>
<polygon fill="midnightblue" stroke="midnightblue" points="468.05,-136.52 476.92,-130.73 466.37,-129.72 468.05,-136.52"/>
</g>
<!-- Node10&#45;&gt;Node6 -->
<g id="edge13" class="edge">
<title>Node10&#45;&gt;Node6</title>
<path fill="none" stroke="midnightblue" d="M417.26,-112.37C408.96,-94.46 389.7,-52.92 378.59,-28.95"/>
<polygon fill="midnightblue" stroke="midnightblue" points="381.63,-27.19 374.25,-19.59 375.28,-30.14 381.63,-27.19"/>
</g>
<!-- Node12 -->
<g id="node12" class="node">
<title>Node12</title>
<g id="a_node12"><a xlink:title=" ">
<polygon fill="none" stroke="#bfbfbf" points="436.27,-56.5 436.27,-75.5 468.27,-75.5 468.27,-56.5 436.27,-56.5"/>
<text text-anchor="middle" x="452.27" y="-63.5" font-family="Helvetica,sans-Serif" font-size="10.00">list</text>
</a>
</g>
</g>
<!-- Node11&#45;&gt;Node12 -->
<g id="edge15" class="edge">
<title>Node11&#45;&gt;Node12</title>
<path fill="none" stroke="midnightblue" d="M499.27,-112.32C491.07,-104.42 478.76,-92.55 468.79,-82.94"/>
<polygon fill="midnightblue" stroke="midnightblue" points="471.05,-80.26 461.43,-75.83 466.2,-85.29 471.05,-80.26"/>
</g>
<!-- Node13 -->
<g id="node13" class="node">
<title>Node13</title>
<g id="a_node13"><a xlink:href="Observer_8h.html" target="_top" xlink:title="Declares the Observer contract and shared event payload.">
<polygon fill="none" stroke="black" points="486.77,-56.5 486.77,-75.5 555.77,-75.5 555.77,-56.5 486.77,-56.5"/>
<text text-anchor="middle" x="521.27" y="-63.5" font-family="Helvetica,sans-Serif" font-size="10.00">Observer.h</text>
</a>
</g>
</g>
<!-- Node11&#45;&gt;Node13 -->
<g id="edge16" class="edge">
<title>Node11&#45;&gt;Node13</title>
<path fill="none" stroke="midnightblue" d="M510.41,-112.08C512.14,-104.93 514.61,-94.64 516.77,-85.69"/>
<polygon fill="midnightblue" stroke="midnightblue" points="520.22,-86.29 519.16,-75.75 513.42,-84.65 520.22,-86.29"/>
</g>
<!-- Node13&#45;&gt;Node6 -->
<g id="edge18" class="edge">
<title>Node13&#45;&gt;Node6</title>
<path fill="none" stroke="midnightblue" d="M497.34,-56.44C471.6,-47.24 430.54,-32.56 402.09,-22.38"/>
<polygon fill="midnightblue" stroke="midnightblue" points="403.2,-19.06 392.6,-18.99 400.84,-25.65 403.2,-19.06"/>
</g>
<!-- Node14 -->
<g id="node14" class="node">
<title>Node14</title>
<g id="a_node14"><a xlink:title=" ">
<polygon fill="none" stroke="#bfbfbf" points="493.27,-0.5 493.27,-19.5 549.27,-19.5 549.27,-0.5 493.27,-0.5"/>
<text text-anchor="middle" x="521.27" y="-7.5" font-family="Helvetica,sans-Serif" font-size="10.00">optional</text>
</a>
</g>
</g>
<!-- Node13&#45;&gt;Node14 -->
<g id="edge17" class="edge">
<title>Node13&#45;&gt;Node14</title>
<path fill="none" stroke="midnightblue" d="M521.27,-56.08C521.27,-49.01 521.27,-38.86 521.27,-29.99"/>
<polygon fill="midnightblue" stroke="midnightblue" points="524.77,-29.75 521.27,-19.75 517.77,-29.75 524.77,-29.75"/>
</g>
</g>
</svg>
