<?xml version="1.0" encoding="UTF-8" standalone="no"?>
<!DOCTYPE svg PUBLIC "-//W3C//DTD SVG 1.1//EN"
 "http://www.w3.org/Graphics/SVG/1.1/DTD/svg11.dtd">
<!-- Generated by graphviz version 2.43.0 (0)
 -->
<!-- Title: GreenhouseBed.cpp Pages: 1 -->
<!--zoomable 263 -->
<svg id="main" version="1.1" xmlns="http://www.w3.org/2000/svg" xmlns:xlink="http://www.w3.org/1999/xlink" xml:space="preserve" onload="init(evt)">
<style type="text/css"><![CDATA[
.edge:hover path { stroke: red; }
.edge:hover polygon { stroke: red; fill: red; }
]]></style>
<script type="text/javascript"><![CDATA[
var edges = document.getElementsByTagName('g');
if (edges && edges.length) {
  for (var i=0;i<edges.length;i++) {
    if (edges[i].id.substr(0,4)=='edge') {
      edges[i].setAttribute('class','edge');
    }
  }
}
]]></script>
        <defs>
                <circle id="rim" cx="0" cy="0" r="7"/>
                <circle id="rim2" cx="0" cy="0" r="3.5"/>
                <g id="zoomPlus">
                        <use xlink:href="#rim" fill="#404040">
                                <set attributeName="fill" to="#808080" begin="zoomplus.mouseover" end="zoomplus.mouseout"/>
                        </use>
                        <path d="M-4,0h8M0,-4v8" fill="none" stroke="white" stroke-width="1.5" pointer-events="none"/>
                </g>
                <g id="zoomMin">
                        <use xlink:href="#rim" fill="#404040">
                                <set attributeName="fill" to="#808080" begin="zoomminus.mouseover" end="zoomminus.mouseout"/>
                        </use>
                        <path d="M-4,0h8" fill="none" stroke="white" stroke-width="1.5" pointer-events="none"/>
                </g>
                <g id="dirArrow">
                        <path fill="none" stroke="white" stroke-width="1.5" d="M0,-3.0v7 M-2.5,-0.5L0,-3.0L2.5,-0.5"/>
                </g>
               <g id="resetDef">
                       <use xlink:href="#rim2" fill="#404040">
                               <set attributeName="fill" to="#808080" begin="reset.mouseover" end="reset.mouseout"/>
                       </use>
               </g>
        </defs>

<script type="text/javascript">
var viewWidth = 956;
var viewHeight = 263;
var sectionId = 'dynsection-0';
</script>
<script xlink:href="svgpan.js"/>
<svg id="graph" class="graph">
<g id="viewport">
<title>GreenhouseBed.cpp</title>
<!-- Node1 -->
<g id="node1" class="node">
<title>Node1</title>
<g id="a_node1"><a xlink:title="Implements the GreenhouseBed behaviour defined in the corresponding header.">
<polygon fill="#bfbfbf" stroke="black" points="536.5,-235.5 536.5,-254.5 650.5,-254.5 650.5,-235.5 536.5,-235.5"/>
<text text-anchor="middle" x="593.5" y="-242.5" font-family="Helvetica,sans-Serif" font-size="10.00">GreenhouseBed.cpp</text>
</a>
</g>
</g>
<!-- Node2 -->
<g id="node2" class="node">
<title>Node2</title>
<g id="a_node2"><a xlink:href="GreenhouseBed_8h.html" target="_top" xlink:title="The &#39;Composite&#39; class.">
<polygon fill="none" stroke="black" points="430.5,-174 430.5,-193 580.5,-193 580.5,-174 430.5,-174"/>
<text text-anchor="middle" x="505.5" y="-181" font-family="Helvetica,sans-Serif" font-size="10.00">../include/GreenhouseBed.h</text>
</a>
</g>
</g>
<!-- Node1&#45;&gt;Node2 -->
<g id="edge1" class="edge">
<title>Node1&#45;&gt;Node2</title>
<path fill="none" stroke="midnightblue" d="M580.89,-235.48C566.78,-225.93 543.67,-210.31 526.75,-198.87"/>
<polygon fill="midnightblue" stroke="midnightblue" points="528.33,-195.71 518.08,-193.01 524.41,-201.51 528.33,-195.71"/>
</g>
<!-- Node3 -->
<g id="node3" class="node">
<title>Node3</title>
<g id="a_node3"><a xlink:href="GreenhouseComponent_8h.html" target="_top" xlink:title="The abstract &#39;Component&#39; interface for the Composite pattern.">
<polygon fill="none" stroke="black" points="338.5,-112.5 338.5,-131.5 478.5,-131.5 478.5,-112.5 338.5,-112.5"/>
<text text-anchor="middle" x="408.5" y="-119.5" font-family="Helvetica,sans-Serif" font-size="10.00">GreenhouseComponent.h</text>
</a>
</g>
</g>
<!-- Node1&#45;&gt;Node3 -->
<g id="edge8" class="edge">
<title>Node1&#45;&gt;Node3</title>
<path fill="none" stroke="midnightblue" d="M536.18,-235.79C492.39,-228.33 436.99,-215.89 421.5,-199 407.46,-183.69 405.66,-159.01 406.43,-141.95"/>
<polygon fill="midnightblue" stroke="midnightblue" points="409.95,-141.81 407.25,-131.57 402.97,-141.26 409.95,-141.81"/>
</g>
<!-- Node4 -->
<g id="node4" class="node">
<title>Node4</title>
<g id="a_node4"><a xlink:title=" ">
<polygon fill="none" stroke="#bfbfbf" points="292.5,-56.5 292.5,-75.5 350.5,-75.5 350.5,-56.5 292.5,-56.5"/>
<text text-anchor="middle" x="321.5" y="-63.5" font-family="Helvetica,sans-Serif" font-size="10.00">memory</text>
</a>
</g>
</g>
<!-- Node1&#45;&gt;Node4 -->
<g id="edge26" class="edge">
<title>Node1&#45;&gt;Node4</title>
<path fill="none" stroke="midnightblue" d="M536.35,-237.87C497.45,-231.95 445.76,-220.55 404.5,-199 364.88,-178.3 350.22,-171.6 329.5,-132 322,-117.68 320.37,-99.21 320.39,-85.63"/>
<polygon fill="midnightblue" stroke="midnightblue" points="323.89,-85.66 320.71,-75.56 316.9,-85.44 323.89,-85.66"/>
</g>
<!-- Node7 -->
<g id="node7" class="node">
<title>Node7</title>
<g id="a_node7"><a xlink:href="GreenhouseIterator_8h.html" target="_top" xlink:title="Declares the iteration interface used to traverse nursery plants.">
<polygon fill="none" stroke="black" points="709,-112.5 709,-131.5 876,-131.5 876,-112.5 709,-112.5"/>
<text text-anchor="middle" x="792.5" y="-119.5" font-family="Helvetica,sans-Serif" font-size="10.00">../include/GreenhouseIterator.h</text>
</a>
</g>
</g>
<!-- Node1&#45;&gt;Node7 -->
<g id="edge9" class="edge">
<title>Node1&#45;&gt;Node7</title>
<path fill="none" stroke="midnightblue" d="M650.82,-236.18C696.77,-228.76 756.3,-216.2 773.5,-199 788.42,-184.08 792.24,-159.32 792.92,-142.13"/>
<polygon fill="midnightblue" stroke="midnightblue" points="796.43,-141.68 793,-131.66 789.43,-141.63 796.43,-141.68"/>
</g>
<!-- Node8 -->
<g id="node8" class="node">
<title>Node8</title>
<g id="a_node8"><a xlink:href="ConcreteGreenhouseIterator_8h.html" target="_top" xlink:title="Depth&#45;first iterator that traverses all plant instances inside a greenhouse bed.">
<polygon fill="none" stroke="black" points="598.5,-168.5 598.5,-198.5 764.5,-198.5 764.5,-168.5 598.5,-168.5"/>
<text text-anchor="start" x="606.5" y="-186.5" font-family="Helvetica,sans-Serif" font-size="10.00">../include/ConcreteGreenhouse</text>
<text text-anchor="middle" x="681.5" y="-175.5" font-family="Helvetica,sans-Serif" font-size="10.00">Iterator.h</text>
</a>
</g>
</g>
<!-- Node1&#45;&gt;Node8 -->
<g id="edge10" class="edge">
<title>Node1&#45;&gt;Node8</title>
<path fill="none" stroke="midnightblue" d="M606.11,-235.48C618.14,-227.34 636.7,-214.79 652.4,-204.18"/>
<polygon fill="midnightblue" stroke="midnightblue" points="654.44,-207.02 660.76,-198.52 650.52,-201.22 654.44,-207.02"/>
</g>
<!-- Node10 -->
<g id="node10" class="node">
<title>Node10</title>
<g id="a_node10"><a xlink:href="PlantInstance_8h.html" target="_top" xlink:title="Represents a single, physical plant in the nursery.">
<polygon fill="none" stroke="black" points="143,-174 143,-193 282,-193 282,-174 143,-174"/>
<text text-anchor="middle" x="212.5" y="-181" font-family="Helvetica,sans-Serif" font-size="10.00">../include/PlantInstance.h</text>
</a>
</g>
</g>
<!-- Node1&#45;&gt;Node10 -->
<g id="edge14" class="edge">
<title>Node1&#45;&gt;Node10</title>
<path fill="none" stroke="midnightblue" d="M536.23,-235.68C476.38,-226.9 379.77,-212.49 296.5,-199 288.21,-197.66 279.46,-196.19 270.87,-194.73"/>
<polygon fill="midnightblue" stroke="midnightblue" points="271.34,-191.26 260.89,-193.03 270.16,-198.16 271.34,-191.26"/>
</g>
<!-- Node16 -->
<g id="node16" class="node">
<title>Node16</title>
<g id="a_node16"><a xlink:title=" ">
<polygon fill="none" stroke="#bfbfbf" points="820.5,-174 820.5,-193 884.5,-193 884.5,-174 820.5,-174"/>
<text text-anchor="middle" x="852.5" y="-181" font-family="Helvetica,sans-Serif" font-size="10.00">algorithm</text>
</a>
</g>
</g>
<!-- Node1&#45;&gt;Node16 -->
<g id="edge25" class="edge">
<title>Node1&#45;&gt;Node16</title>
<path fill="none" stroke="midnightblue" d="M640.34,-235.46C683.71,-227.24 749.84,-213.88 806.5,-199 809.92,-198.1 813.47,-197.1 817.01,-196.06"/>
<polygon fill="midnightblue" stroke="midnightblue" points="818.29,-199.33 826.84,-193.07 816.25,-192.64 818.29,-199.33"/>
</g>
<!-- Node17 -->
<g id="node17" class="node">
<title>Node17</title>
<g id="a_node17"><a xlink:title=" ">
<polygon fill="none" stroke="#bfbfbf" points="903,-174 903,-193 948,-193 948,-174 903,-174"/>
<text text-anchor="middle" x="925.5" y="-181" font-family="Helvetica,sans-Serif" font-size="10.00">utility</text>
</a>
</g>
</g>
<!-- Node1&#45;&gt;Node17 -->
<g id="edge27" class="edge">
<title>Node1&#45;&gt;Node17</title>
<path fill="none" stroke="midnightblue" d="M650.63,-240.15C711.75,-234.95 811.04,-223.35 893.5,-199 895.43,-198.43 897.39,-197.77 899.35,-197.04"/>
<polygon fill="midnightblue" stroke="midnightblue" points="901.01,-200.14 908.89,-193.07 898.32,-193.68 901.01,-200.14"/>
</g>
<!-- Node2&#45;&gt;Node3 -->
<g id="edge2" class="edge">
<title>Node2&#45;&gt;Node3</title>
<path fill="none" stroke="midnightblue" d="M491.6,-173.98C475.83,-164.3 449.86,-148.37 431.15,-136.89"/>
<polygon fill="midnightblue" stroke="midnightblue" points="432.73,-133.75 422.37,-131.51 429.07,-139.72 432.73,-133.75"/>
</g>
<!-- Node2&#45;&gt;Node4 -->
<g id="edge7" class="edge">
<title>Node2&#45;&gt;Node4</title>
<path fill="none" stroke="midnightblue" d="M505.89,-173.8C506.06,-159.01 504.17,-128.92 487.5,-112 454.26,-78.27 398.5,-69.06 360.88,-66.94"/>
<polygon fill="midnightblue" stroke="midnightblue" points="360.92,-63.44 350.78,-66.51 360.62,-70.43 360.92,-63.44"/>
</g>
<!-- Node5 -->
<g id="node5" class="node">
<title>Node5</title>
<g id="a_node5"><a xlink:title=" ">
<polygon fill="none" stroke="#bfbfbf" points="219.5,-0.5 219.5,-19.5 263.5,-19.5 263.5,-0.5 219.5,-0.5"/>
<text text-anchor="middle" x="241.5" y="-7.5" font-family="Helvetica,sans-Serif" font-size="10.00">string</text>
</a>
</g>
</g>
<!-- Node2&#45;&gt;Node5 -->
<g id="edge6" class="edge">
<title>Node2&#45;&gt;Node5</title>
<path fill="none" stroke="midnightblue" d="M508.83,-173.86C513.69,-159.68 520.89,-131.12 508.5,-112 456.88,-32.31 332.99,-15.33 273.91,-11.83"/>
<polygon fill="midnightblue" stroke="midnightblue" points="273.83,-8.32 263.66,-11.32 273.48,-15.31 273.83,-8.32"/>
</g>
<!-- Node6 -->
<g id="node6" class="node">
<title>Node6</title>
<g id="a_node6"><a xlink:title=" ">
<polygon fill="none" stroke="#bfbfbf" points="573,-112.5 573,-131.5 620,-131.5 620,-112.5 573,-112.5"/>
<text text-anchor="middle" x="596.5" y="-119.5" font-family="Helvetica,sans-Serif" font-size="10.00">vector</text>
</a>
</g>
</g>
<!-- Node2&#45;&gt;Node6 -->
<g id="edge5" class="edge">
<title>Node2&#45;&gt;Node6</title>
<path fill="none" stroke="midnightblue" d="M518.54,-173.98C533.27,-164.34 557.47,-148.52 575.01,-137.05"/>
<polygon fill="midnightblue" stroke="midnightblue" points="577.03,-139.91 583.49,-131.51 573.2,-134.05 577.03,-139.91"/>
</g>
<!-- Node3&#45;&gt;Node4 -->
<g id="edge3" class="edge">
<title>Node3&#45;&gt;Node4</title>
<path fill="none" stroke="midnightblue" d="M394.52,-112.32C380.95,-103.9 360.12,-90.97 344.18,-81.07"/>
<polygon fill="midnightblue" stroke="midnightblue" points="345.79,-77.95 335.44,-75.65 342.09,-83.9 345.79,-77.95"/>
</g>
<!-- Node3&#45;&gt;Node5 -->
<g id="edge4" class="edge">
<title>Node3&#45;&gt;Node5</title>
<path fill="none" stroke="midnightblue" d="M403.98,-112.18C396.51,-98.37 380.29,-71.62 359.5,-56 333.78,-36.66 298.76,-24.71 273.56,-18.02"/>
<polygon fill="midnightblue" stroke="midnightblue" points="274.31,-14.6 263.76,-15.56 272.6,-21.39 274.31,-14.6"/>
</g>
<!-- Node8&#45;&gt;Node6 -->
<g id="edge13" class="edge">
<title>Node8&#45;&gt;Node6</title>
<path fill="none" stroke="midnightblue" d="M661.36,-168.4C648.11,-159.13 630.82,-147.03 617.42,-137.65"/>
<polygon fill="midnightblue" stroke="midnightblue" points="619.07,-134.53 608.87,-131.66 615.05,-140.26 619.07,-134.53"/>
</g>
<!-- Node8&#45;&gt;Node7 -->
<g id="edge11" class="edge">
<title>Node8&#45;&gt;Node7</title>
<path fill="none" stroke="midnightblue" d="M707.81,-168.4C725.76,-158.77 749.42,-146.09 767.17,-136.58"/>
<polygon fill="midnightblue" stroke="midnightblue" points="769.19,-139.47 776.35,-131.66 765.88,-133.3 769.19,-139.47"/>
</g>
<!-- Node9 -->
<g id="node9" class="node">
<title>Node9</title>
<g id="a_node9"><a xlink:title=" ">
<polygon fill="none" stroke="#bfbfbf" points="638,-112.5 638,-131.5 691,-131.5 691,-112.5 638,-112.5"/>
<text text-anchor="middle" x="664.5" y="-119.5" font-family="Helvetica,sans-Serif" font-size="10.00">cstddef</text>
</a>
</g>
</g>
<!-- Node8&#45;&gt;Node9 -->
<g id="edge12" class="edge">
<title>Node8&#45;&gt;Node9</title>
<path fill="none" stroke="midnightblue" d="M677.47,-168.4C675.15,-160.29 672.22,-150.01 669.72,-141.28"/>
<polygon fill="midnightblue" stroke="midnightblue" points="673.09,-140.31 666.97,-131.66 666.36,-142.23 673.09,-140.31"/>
</g>
<!-- Node10&#45;&gt;Node3 -->
<g id="edge15" class="edge">
<title>Node10&#45;&gt;Node3</title>
<path fill="none" stroke="midnightblue" d="M240.58,-173.98C274.79,-163.59 332.7,-146.01 370.77,-134.45"/>
<polygon fill="midnightblue" stroke="midnightblue" points="371.92,-137.76 380.47,-131.51 369.88,-131.06 371.92,-137.76"/>
</g>
<!-- Node10&#45;&gt;Node4 -->
<g id="edge23" class="edge">
<title>Node10&#45;&gt;Node4</title>
<path fill="none" stroke="midnightblue" d="M220.69,-173.82C238.84,-154.59 282.67,-108.14 306.11,-83.31"/>
<polygon fill="midnightblue" stroke="midnightblue" points="308.89,-85.46 313.21,-75.78 303.8,-80.65 308.89,-85.46"/>
</g>
<!-- Node10&#45;&gt;Node5 -->
<g id="edge24" class="edge">
<title>Node10&#45;&gt;Node5</title>
<path fill="none" stroke="midnightblue" d="M213.98,-173.76C218.48,-147.15 232.08,-66.71 238.31,-29.84"/>
<polygon fill="midnightblue" stroke="midnightblue" points="241.84,-29.96 240.06,-19.52 234.94,-28.8 241.84,-29.96"/>
</g>
<!-- Node11 -->
<g id="node11" class="node">
<title>Node11</title>
<g id="a_node11"><a xlink:href="PlantState_8h.html" target="_top" xlink:title="Abstract base class describing the lifecycle state of a plant.">
<polygon fill="none" stroke="black" points="137.5,-56.5 137.5,-75.5 213.5,-75.5 213.5,-56.5 137.5,-56.5"/>
<text text-anchor="middle" x="175.5" y="-63.5" font-family="Helvetica,sans-Serif" font-size="10.00">PlantState.h</text>
</a>
</g>
</g>
<!-- Node10&#45;&gt;Node11 -->
<g id="edge16" class="edge">
<title>Node10&#45;&gt;Node11</title>
<path fill="none" stroke="midnightblue" d="M209.72,-173.82C203.75,-155.17 189.58,-110.94 181.47,-85.63"/>
<polygon fill="midnightblue" stroke="midnightblue" points="184.7,-84.24 178.31,-75.78 178.03,-86.37 184.7,-84.24"/>
</g>
<!-- Node12 -->
<g id="node12" class="node">
<title>Node12</title>
<g id="a_node12"><a xlink:href="Subject_8h.html" target="_top" xlink:title="Declares the Subject base that manages observer subscriptions.">
<polygon fill="none" stroke="black" points="72.5,-112.5 72.5,-131.5 134.5,-131.5 134.5,-112.5 72.5,-112.5"/>
<text text-anchor="middle" x="103.5" y="-119.5" font-family="Helvetica,sans-Serif" font-size="10.00">Subject.h</text>
</a>
</g>
</g>
<!-- Node10&#45;&gt;Node12 -->
<g id="edge18" class="edge">
<title>Node10&#45;&gt;Node12</title>
<path fill="none" stroke="midnightblue" d="M196.88,-173.98C178.91,-164.17 149.18,-147.93 128.09,-136.42"/>
<polygon fill="midnightblue" stroke="midnightblue" points="129.54,-133.23 119.09,-131.51 126.19,-139.37 129.54,-133.23"/>
</g>
<!-- Node11&#45;&gt;Node5 -->
<g id="edge17" class="edge">
<title>Node11&#45;&gt;Node5</title>
<path fill="none" stroke="midnightblue" d="M186.1,-56.32C195.96,-48.26 210.85,-36.08 222.72,-26.37"/>
<polygon fill="midnightblue" stroke="midnightblue" points="225.18,-28.88 230.7,-19.83 220.75,-23.46 225.18,-28.88"/>
</g>
<!-- Node13 -->
<g id="node13" class="node">
<title>Node13</title>
<g id="a_node13"><a xlink:title=" ">
<polygon fill="none" stroke="#bfbfbf" points="87.5,-56.5 87.5,-75.5 119.5,-75.5 119.5,-56.5 87.5,-56.5"/>
<text text-anchor="middle" x="103.5" y="-63.5" font-family="Helvetica,sans-Serif" font-size="10.00">list</text>
</a>
</g>
</g>
<!-- Node12&#45;&gt;Node13 -->
<g id="edge19" class="edge">
<title>Node12&#45;&gt;Node13</title>
<path fill="none" stroke="midnightblue" d="M103.5,-112.08C103.5,-105.01 103.5,-94.86 103.5,-85.99"/>
<polygon fill="midnightblue" stroke="midnightblue" points="107,-85.75 103.5,-75.75 100,-85.75 107,-85.75"/>
</g>
<!-- Node14 -->
<g id="node14" class="node">
<title>Node14</title>
<g id="a_node14"><a xlink:href="Observer_8h.html" target="_top" xlink:title="Declares the Observer contract and shared event payload.">
<polygon fill="none" stroke="black" points="0,-56.5 0,-75.5 69,-75.5 69,-56.5 0,-56.5"/>
<text text-anchor="middle" x="34.5" y="-63.5" font-family="Helvetica,sans-Serif" font-size="10.00">Observer.h</text>
</a>
</g>
</g>
<!-- Node12&#45;&gt;Node14 -->
<g id="edge20" class="edge">
<title>Node12&#45;&gt;Node14</title>
<path fill="none" stroke="midnightblue" d="M92.41,-112.32C82.01,-104.18 66.24,-91.84 53.78,-82.09"/>
<polygon fill="midnightblue" stroke="midnightblue" points="55.82,-79.24 45.79,-75.83 51.51,-84.75 55.82,-79.24"/>
</g>
<!-- Node14&#45;&gt;Node5 -->
<g id="edge22" class="edge">
<title>Node14&#45;&gt;Node5</title>
<path fill="none" stroke="midnightblue" d="M67.3,-56.44C106.33,-46.26 171.07,-29.37 209.67,-19.3"/>
<polygon fill="midnightblue" stroke="midnightblue" points="210.56,-22.69 219.36,-16.78 208.8,-15.91 210.56,-22.69"/>
</g>
<!-- Node15 -->
<g id="node15" class="node">
<title>Node15</title>
<g id="a_node15"><a xlink:title=" ">
<polygon fill="none" stroke="#bfbfbf" points="6.5,-0.5 6.5,-19.5 62.5,-19.5 62.5,-0.5 6.5,-0.5"/>
<text text-anchor="middle" x="34.5" y="-7.5" font-family="Helvetica,sans-Serif" font-size="10.00">optional</text>
</a>
</g>
</g>
<!-- Node14&#45;&gt;Node15 -->
<g id="edge21" class="edge">
<title>Node14&#45;&gt;Node15</title>
<path fill="none" stroke="midnightblue" d="M34.5,-56.08C34.5,-49.01 34.5,-38.86 34.5,-29.99"/>
<polygon fill="midnightblue" stroke="midnightblue" points="38,-29.75 34.5,-19.75 31,-29.75 38,-29.75"/>
</g>
</g>
</svg>
        <g id="navigator" transform="translate(0 0)" fill="#404254">
                <rect fill="#f2f5e9" fill-opacity="0.5" stroke="#606060" stroke-width=".5" x="0" y="0" width="60" height="60"/>
                <use id="zoomplus" xlink:href="#zoomPlus" x="17" y="9" onmousedown="handleZoom(evt,'in')"/>
                <use id="zoomminus" xlink:href="#zoomMin" x="42" y="9" onmousedown="handleZoom(evt,'out')"/>
                <use id="reset" xlink:href="#resetDef" x="30" y="36" onmousedown="handleReset()"/>
                <g id="arrowUp" xlink:href="#dirArrow" transform="translate(30 24)" onmousedown="handlePan(0,-1)">
                  <use xlink:href="#rim" fill="#404040">
                        <set attributeName="fill" to="#808080" begin="arrowUp.mouseover" end="arrowUp.mouseout"/>
                  </use>
                  <path fill="none" stroke="white" stroke-width="1.5" d="M0,-3.0v7 M-2.5,-0.5L0,-3.0L2.5,-0.5"/>
                </g>
                <g id="arrowRight" xlink:href="#dirArrow" transform="rotate(90) translate(36 -43)" onmousedown="handlePan(1,0)">
                  <use xlink:href="#rim" fill="#404040">
                        <set attributeName="fill" to="#808080" begin="arrowRight.mouseover" end="arrowRight.mouseout"/>
                  </use>
                  <path fill="none" stroke="white" stroke-width="1.5" d="M0,-3.0v7 M-2.5,-0.5L0,-3.0L2.5,-0.5"/>
                </g>
                <g id="arrowDown" xlink:href="#dirArrow" transform="rotate(180) translate(-30 -48)" onmousedown="handlePan(0,1)">
                  <use xlink:href="#rim" fill="#404040">
                        <set attributeName="fill" to="#808080" begin="arrowDown.mouseover" end="arrowDown.mouseout"/>
                  </use>
                  <path fill="none" stroke="white" stroke-width="1.5" d="M0,-3.0v7 M-2.5,-0.5L0,-3.0L2.5,-0.5"/>
                </g>
                <g id="arrowLeft" xlink:href="#dirArrow" transform="rotate(270) translate(-36 17)" onmousedown="handlePan(-1,0)">
                  <use xlink:href="#rim" fill="#404040">
                        <set attributeName="fill" to="#808080" begin="arrowLeft.mouseover" end="arrowLeft.mouseout"/>
                  </use>
                  <path fill="none" stroke="white" stroke-width="1.5" d="M0,-3.0v7 M-2.5,-0.5L0,-3.0L2.5,-0.5"/>
                </g>
        </g>
        <svg viewBox="0 0 15 15" width="100%" height="30px" preserveAspectRatio="xMaxYMin meet">
         <g id="arrow_out" transform="scale(0.3 0.3)">
          <a xlink:href="GreenhouseBed_8cpp__incl_org.svg" target="_base">
           <rect id="button" ry="5" rx="5" y="6" x="6" height="38" width="38"
                fill="#f2f5e9" fill-opacity="0.5" stroke="#606060" stroke-width="1.0"/>
           <path id="arrow"
             d="M 11.500037,31.436501 C 11.940474,20.09759 22.043105,11.32322 32.158766,21.979434 L 37.068811,17.246167 C 37.068811,17.246167 37.088388,32 37.088388,32 L 22.160133,31.978069 C 22.160133,31.978069 26.997745,27.140456 26.997745,27.140456 C 18.528582,18.264221 13.291696,25.230495 11.500037,31.436501 z"
             style="fill:#404040;"/>
          </a>
         </g>
        </svg>
</svg>
