<?xml version="1.0" encoding="UTF-8" standalone="no"?>
<!DOCTYPE svg PUBLIC "-//W3C//DTD SVG 1.1//EN"
 "http://www.w3.org/Graphics/SVG/1.1/DTD/svg11.dtd">
<!-- Generated by graphviz version 2.43.0 (0)
 -->
<!-- Title: GreenhouseBed.h Pages: 1 -->
<svg width="942pt" height="140pt"
 viewBox="0.00 0.00 942.00 140.00" xmlns="http://www.w3.org/2000/svg" xmlns:xlink="http://www.w3.org/1999/xlink">
<g id="graph0" class="graph" transform="scale(1 1) rotate(0) translate(4 136)">
<title>GreenhouseBed.h</title>
<!-- Node1 -->
<g id="node1" class="node">
<title>Node1</title>
<g id="a_node1"><a xlink:title="The &#39;Composite&#39; class.">
<polygon fill="#bfbfbf" stroke="black" points="533,-112.5 533,-131.5 636,-131.5 636,-112.5 533,-112.5"/>
<text text-anchor="middle" x="584.5" y="-119.5" font-family="Helvetica,sans-Serif" font-size="10.00">GreenhouseBed.h</text>
</a>
</g>
</g>
<!-- Node2 -->
<g id="node2" class="node">
<title>Node2</title>
<g id="a_node2"><a xlink:href="GreenhouseController_8h.html" target="_top" xlink:title="The controller responsible for applying periodic care to the nursery.">
<polygon fill="none" stroke="black" points="6,-56.5 6,-75.5 137,-75.5 137,-56.5 6,-56.5"/>
<text text-anchor="middle" x="71.5" y="-63.5" font-family="Helvetica,sans-Serif" font-size="10.00">GreenhouseController.h</text>
</a>
</g>
</g>
<!-- Node1&#45;&gt;Node2 -->
<g id="edge1" class="edge">
<title>Node1&#45;&gt;Node2</title>
<path fill="none" stroke="midnightblue" d="M522.91,-115.01C438.11,-106.68 280.65,-90.94 146.5,-76 143.5,-75.67 140.44,-75.32 137.34,-74.97"/>
<polygon fill="midnightblue" stroke="midnightblue" points="522.59,-118.49 532.89,-115.98 523.28,-111.53 522.59,-118.49"/>
</g>
<!-- Node4 -->
<g id="node4" class="node">
<title>Node4</title>
<g id="a_node4"><a xlink:href="ConcreteGreenhouseIterator_8cpp.html" target="_top" xlink:title="Implements the ConcreteGreenhouseIterator behaviour defined in the corresponding header.">
<polygon fill="none" stroke="black" points="155.5,-56.5 155.5,-75.5 329.5,-75.5 329.5,-56.5 155.5,-56.5"/>
<text text-anchor="middle" x="242.5" y="-63.5" font-family="Helvetica,sans-Serif" font-size="10.00">ConcreteGreenhouseIterator.cpp</text>
</a>
</g>
</g>
<!-- Node1&#45;&gt;Node4 -->
<g id="edge3" class="edge">
<title>Node1&#45;&gt;Node4</title>
<path fill="none" stroke="midnightblue" d="M522.89,-111.27C458.35,-101.08 357.99,-85.24 296.47,-75.52"/>
<polygon fill="midnightblue" stroke="midnightblue" points="522.51,-114.75 532.93,-112.86 523.6,-107.84 522.51,-114.75"/>
</g>
<!-- Node5 -->
<g id="node5" class="node">
<title>Node5</title>
<g id="a_node5"><a xlink:href="ConcreteInventoryIterator_8cpp.html" target="_top" xlink:title="Implements the ConcreteInventoryIterator behaviour defined in the corresponding header.">
<polygon fill="none" stroke="black" points="347.5,-56.5 347.5,-75.5 509.5,-75.5 509.5,-56.5 347.5,-56.5"/>
<text text-anchor="middle" x="428.5" y="-63.5" font-family="Helvetica,sans-Serif" font-size="10.00">ConcreteInventoryIterator.cpp</text>
</a>
</g>
</g>
<!-- Node1&#45;&gt;Node5 -->
<g id="edge4" class="edge">
<title>Node1&#45;&gt;Node5</title>
<path fill="none" stroke="midnightblue" d="M550.33,-109.17C520.96,-99 479.3,-84.59 453.1,-75.52"/>
<polygon fill="midnightblue" stroke="midnightblue" points="549.19,-112.48 559.78,-112.44 551.48,-105.86 549.19,-112.48"/>
</g>
<!-- Node6 -->
<g id="node6" class="node">
<title>Node6</title>
<g id="a_node6"><a xlink:href="GreenhouseBed_8cpp.html" target="_top" xlink:title="Implements the GreenhouseBed behaviour defined in the corresponding header.">
<polygon fill="none" stroke="black" points="527.5,-56.5 527.5,-75.5 641.5,-75.5 641.5,-56.5 527.5,-56.5"/>
<text text-anchor="middle" x="584.5" y="-63.5" font-family="Helvetica,sans-Serif" font-size="10.00">GreenhouseBed.cpp</text>
</a>
</g>
</g>
<!-- Node1&#45;&gt;Node6 -->
<g id="edge5" class="edge">
<title>Node1&#45;&gt;Node6</title>
<path fill="none" stroke="midnightblue" d="M584.5,-101.8C584.5,-92.91 584.5,-82.78 584.5,-75.75"/>
<polygon fill="midnightblue" stroke="midnightblue" points="581,-102.08 584.5,-112.08 588,-102.08 581,-102.08"/>
</g>
<!-- Node7 -->
<g id="node7" class="node">
<title>Node7</title>
<g id="a_node7"><a xlink:href="Inventory_8cpp.html" target="_top" xlink:title="Implements the Inventory behaviour defined in the corresponding header.">
<polygon fill="none" stroke="black" points="659.5,-56.5 659.5,-75.5 741.5,-75.5 741.5,-56.5 659.5,-56.5"/>
<text text-anchor="middle" x="700.5" y="-63.5" font-family="Helvetica,sans-Serif" font-size="10.00">Inventory.cpp</text>
</a>
</g>
</g>
<!-- Node1&#45;&gt;Node7 -->
<g id="edge6" class="edge">
<title>Node1&#45;&gt;Node7</title>
<path fill="none" stroke="midnightblue" d="M612.22,-108.1C633.89,-98.01 663.4,-84.27 682.21,-75.52"/>
<polygon fill="midnightblue" stroke="midnightblue" points="610.47,-105.05 602.88,-112.44 613.42,-111.4 610.47,-105.05"/>
</g>
<!-- Node8 -->
<g id="node8" class="node">
<title>Node8</title>
<g id="a_node8"><a xlink:href="SalesFacade_8cpp.html" target="_top" xlink:title="Implements the SalesFacade behaviour defined in the corresponding header.">
<polygon fill="none" stroke="black" points="760,-56.5 760,-75.5 857,-75.5 857,-56.5 760,-56.5"/>
<text text-anchor="middle" x="808.5" y="-63.5" font-family="Helvetica,sans-Serif" font-size="10.00">SalesFacade.cpp</text>
</a>
</g>
</g>
<!-- Node1&#45;&gt;Node8 -->
<g id="edge7" class="edge">
<title>Node1&#45;&gt;Node8</title>
<path fill="none" stroke="midnightblue" d="M629.76,-110.09C672.08,-99.89 734.41,-84.86 773.17,-75.52"/>
<polygon fill="midnightblue" stroke="midnightblue" points="628.89,-106.7 619.99,-112.44 630.54,-113.5 628.89,-106.7"/>
</g>
<!-- Node9 -->
<g id="node9" class="node">
<title>Node9</title>
<g id="a_node9"><a xlink:href="Staff_8cpp.html" target="_top" xlink:title="Implements the Staff behaviour defined in the corresponding header.">
<polygon fill="none" stroke="black" points="875,-56.5 875,-75.5 934,-75.5 934,-56.5 875,-56.5"/>
<text text-anchor="middle" x="904.5" y="-63.5" font-family="Helvetica,sans-Serif" font-size="10.00">Staff.cpp</text>
</a>
</g>
</g>
<!-- Node1&#45;&gt;Node9 -->
<g id="edge8" class="edge">
<title>Node1&#45;&gt;Node9</title>
<path fill="none" stroke="midnightblue" d="M646.14,-112.51C703.43,-104.3 791.03,-90.94 866.5,-76 869.16,-75.47 871.92,-74.89 874.67,-74.28"/>
<polygon fill="midnightblue" stroke="midnightblue" points="645.57,-109.06 636.16,-113.93 646.56,-115.99 645.57,-109.06"/>
</g>
<!-- Node3 -->
<g id="node3" class="node">
<title>Node3</title>
<g id="a_node3"><a xlink:href="GreenhouseController_8cpp.html" target="_top" xlink:title="Implements the GreenhouseController behaviour defined in the corresponding header.">
<polygon fill="none" stroke="black" points="0,-0.5 0,-19.5 143,-19.5 143,-0.5 0,-0.5"/>
<text text-anchor="middle" x="71.5" y="-7.5" font-family="Helvetica,sans-Serif" font-size="10.00">GreenhouseController.cpp</text>
</a>
</g>
</g>
<!-- Node2&#45;&gt;Node3 -->
<g id="edge2" class="edge">
<title>Node2&#45;&gt;Node3</title>
<path fill="none" stroke="midnightblue" d="M71.5,-45.8C71.5,-36.91 71.5,-26.78 71.5,-19.75"/>
<polygon fill="midnightblue" stroke="midnightblue" points="68,-46.08 71.5,-56.08 75,-46.08 68,-46.08"/>
</g>
</g>
</svg>
