<?xml version="1.0" encoding="UTF-8" standalone="no"?>
<!DOCTYPE svg PUBLIC "-//W3C//DTD SVG 1.1//EN"
 "http://www.w3.org/Graphics/SVG/1.1/DTD/svg11.dtd">
<!-- Generated by graphviz version 2.43.0 (0)
 -->
<!-- Title: GreenhouseIterator.h Pages: 1 -->
<svg width="779pt" height="140pt"
 viewBox="0.00 0.00 778.50 140.00" xmlns="http://www.w3.org/2000/svg" xmlns:xlink="http://www.w3.org/1999/xlink">
<g id="graph0" class="graph" transform="scale(1 1) rotate(0) translate(4 136)">
<title>GreenhouseIterator.h</title>
<!-- Node1 -->
<g id="node1" class="node">
<title>Node1</title>
<g id="a_node1"><a xlink:title="Declares the iteration interface used to traverse nursery plants.">
<polygon fill="#bfbfbf" stroke="black" points="298.5,-112.5 298.5,-131.5 417.5,-131.5 417.5,-112.5 298.5,-112.5"/>
<text text-anchor="middle" x="358" y="-119.5" font-family="Helvetica,sans-Serif" font-size="10.00">GreenhouseIterator.h</text>
</a>
</g>
</g>
<!-- Node2 -->
<g id="node2" class="node">
<title>Node2</title>
<g id="a_node2"><a xlink:href="ConcreteGreenhouseIterator_8h.html" target="_top" xlink:title="Depth&#45;first iterator that traverses all plant instances inside a greenhouse bed.">
<polygon fill="none" stroke="black" points="57.5,-56.5 57.5,-75.5 220.5,-75.5 220.5,-56.5 57.5,-56.5"/>
<text text-anchor="middle" x="139" y="-63.5" font-family="Helvetica,sans-Serif" font-size="10.00">ConcreteGreenhouseIterator.h</text>
</a>
</g>
</g>
<!-- Node1&#45;&gt;Node2 -->
<g id="edge1" class="edge">
<title>Node1&#45;&gt;Node2</title>
<path fill="none" stroke="midnightblue" d="M313.49,-110.02C272.12,-99.82 211.36,-84.84 173.54,-75.52"/>
<polygon fill="midnightblue" stroke="midnightblue" points="312.75,-113.45 323.3,-112.44 314.43,-106.65 312.75,-113.45"/>
</g>
<!-- Node4 -->
<g id="node4" class="node">
<title>Node4</title>
<g id="a_node4"><a xlink:href="GreenhouseBed_8cpp.html" target="_top" xlink:title="Implements the GreenhouseBed behaviour defined in the corresponding header.">
<polygon fill="none" stroke="black" points="192,-0.5 192,-19.5 306,-19.5 306,-0.5 192,-0.5"/>
<text text-anchor="middle" x="249" y="-7.5" font-family="Helvetica,sans-Serif" font-size="10.00">GreenhouseBed.cpp</text>
</a>
</g>
</g>
<!-- Node1&#45;&gt;Node4 -->
<g id="edge5" class="edge">
<title>Node1&#45;&gt;Node4</title>
<path fill="none" stroke="midnightblue" d="M317.39,-108.92C299.98,-101.86 280.75,-91.27 268,-76 254.13,-59.4 250.38,-33.08 249.37,-19.59"/>
<polygon fill="midnightblue" stroke="midnightblue" points="316.23,-112.22 326.82,-112.48 318.7,-105.67 316.23,-112.22"/>
</g>
<!-- Node5 -->
<g id="node5" class="node">
<title>Node5</title>
<g id="a_node5"><a xlink:href="ConcreteInventoryIterator_8cpp.html" target="_top" xlink:title="Implements the ConcreteInventoryIterator behaviour defined in the corresponding header.">
<polygon fill="none" stroke="black" points="277,-56.5 277,-75.5 439,-75.5 439,-56.5 277,-56.5"/>
<text text-anchor="middle" x="358" y="-63.5" font-family="Helvetica,sans-Serif" font-size="10.00">ConcreteInventoryIterator.cpp</text>
</a>
</g>
</g>
<!-- Node1&#45;&gt;Node5 -->
<g id="edge4" class="edge">
<title>Node1&#45;&gt;Node5</title>
<path fill="none" stroke="midnightblue" d="M358,-101.8C358,-92.91 358,-82.78 358,-75.75"/>
<polygon fill="midnightblue" stroke="midnightblue" points="354.5,-102.08 358,-112.08 361.5,-102.08 354.5,-102.08"/>
</g>
<!-- Node6 -->
<g id="node6" class="node">
<title>Node6</title>
<g id="a_node6"><a xlink:href="GreenhouseComponent_8cpp.html" target="_top" xlink:title="Implements the GreenhouseComponent behaviour defined in the corresponding header.">
<polygon fill="none" stroke="black" points="457,-56.5 457,-75.5 609,-75.5 609,-56.5 457,-56.5"/>
<text text-anchor="middle" x="533" y="-63.5" font-family="Helvetica,sans-Serif" font-size="10.00">GreenhouseComponent.cpp</text>
</a>
</g>
</g>
<!-- Node1&#45;&gt;Node6 -->
<g id="edge6" class="edge">
<title>Node1&#45;&gt;Node6</title>
<path fill="none" stroke="midnightblue" d="M395.47,-109.44C428.47,-99.26 475.76,-84.66 505.4,-75.52"/>
<polygon fill="midnightblue" stroke="midnightblue" points="394.25,-106.15 385.73,-112.44 396.32,-112.84 394.25,-106.15"/>
</g>
<!-- Node7 -->
<g id="node7" class="node">
<title>Node7</title>
<g id="a_node7"><a xlink:href="GreenhouseController_8cpp.html" target="_top" xlink:title="Implements the GreenhouseController behaviour defined in the corresponding header.">
<polygon fill="none" stroke="black" points="627.5,-56.5 627.5,-75.5 770.5,-75.5 770.5,-56.5 627.5,-56.5"/>
<text text-anchor="middle" x="699" y="-63.5" font-family="Helvetica,sans-Serif" font-size="10.00">GreenhouseController.cpp</text>
</a>
</g>
</g>
<!-- Node1&#45;&gt;Node7 -->
<g id="edge7" class="edge">
<title>Node1&#45;&gt;Node7</title>
<path fill="none" stroke="midnightblue" d="M422.07,-110.85C486.5,-100.65 584.72,-85.1 645.22,-75.52"/>
<polygon fill="midnightblue" stroke="midnightblue" points="421.36,-107.42 412.03,-112.44 422.46,-114.34 421.36,-107.42"/>
</g>
<!-- Node3 -->
<g id="node3" class="node">
<title>Node3</title>
<g id="a_node3"><a xlink:href="ConcreteGreenhouseIterator_8cpp.html" target="_top" xlink:title="Implements the ConcreteGreenhouseIterator behaviour defined in the corresponding header.">
<polygon fill="none" stroke="black" points="0,-0.5 0,-19.5 174,-19.5 174,-0.5 0,-0.5"/>
<text text-anchor="middle" x="87" y="-7.5" font-family="Helvetica,sans-Serif" font-size="10.00">ConcreteGreenhouseIterator.cpp</text>
</a>
</g>
</g>
<!-- Node2&#45;&gt;Node3 -->
<g id="edge2" class="edge">
<title>Node2&#45;&gt;Node3</title>
<path fill="none" stroke="midnightblue" d="M123.32,-48.72C114.16,-39.2 102.95,-27.56 95.43,-19.75"/>
<polygon fill="midnightblue" stroke="midnightblue" points="120.96,-51.31 130.41,-56.08 126,-46.45 120.96,-51.31"/>
</g>
<!-- Node2&#45;&gt;Node4 -->
<g id="edge3" class="edge">
<title>Node2&#45;&gt;Node4</title>
<path fill="none" stroke="midnightblue" d="M165.76,-51.86C186.16,-41.85 213.67,-28.35 231.37,-19.65"/>
<polygon fill="midnightblue" stroke="midnightblue" points="164.11,-48.78 156.67,-56.32 167.19,-55.06 164.11,-48.78"/>
</g>
</g>
</svg>
