<?xml version="1.0" encoding="UTF-8" standalone="no"?>
<!DOCTYPE svg PUBLIC "-//W3C//DTD SVG 1.1//EN"
 "http://www.w3.org/Graphics/SVG/1.1/DTD/svg11.dtd">
<!-- Generated by graphviz version 2.43.0 (0)
 -->
<!-- Title: GreenhouseBed.h Pages: 1 -->
<svg width="265pt" height="140pt"
 viewBox="0.00 0.00 264.55 140.00" xmlns="http://www.w3.org/2000/svg" xmlns:xlink="http://www.w3.org/1999/xlink">
<g id="graph0" class="graph" transform="scale(1 1) rotate(0) translate(4 136)">
<title>GreenhouseBed.h</title>
<!-- Node1 -->
<g id="node1" class="node">
<title>Node1</title>
<g id="a_node1"><a xlink:title="The &#39;Composite&#39; class.">
<polygon fill="#bfbfbf" stroke="black" points="80.55,-112.5 80.55,-131.5 183.55,-131.5 183.55,-112.5 80.55,-112.5"/>
<text text-anchor="middle" x="132.05" y="-119.5" font-family="Helvetica,sans-Serif" font-size="10.00">GreenhouseBed.h</text>
</a>
</g>
</g>
<!-- Node2 -->
<g id="node2" class="node">
<title>Node2</title>
<g id="a_node2"><a xlink:href="GreenhouseComponent_8h.html" target="_top" xlink:title="The abstract &#39;Component&#39; interface for the Composite pattern.">
<polygon fill="none" stroke="black" points="13.05,-56.5 13.05,-75.5 153.05,-75.5 153.05,-56.5 13.05,-56.5"/>
<text text-anchor="middle" x="83.05" y="-63.5" font-family="Helvetica,sans-Serif" font-size="10.00">GreenhouseComponent.h</text>
</a>
</g>
</g>
<!-- Node1&#45;&gt;Node2 -->
<g id="edge1" class="edge">
<title>Node1&#45;&gt;Node2</title>
<path fill="none" stroke="midnightblue" d="M123.96,-112.08C116.9,-104.3 106.47,-92.8 97.91,-83.37"/>
<polygon fill="midnightblue" stroke="midnightblue" points="100.31,-80.8 90.99,-75.75 95.12,-85.51 100.31,-80.8"/>
</g>
<!-- Node3 -->
<g id="node3" class="node">
<title>Node3</title>
<g id="a_node3"><a xlink:title=" ">
<polygon fill="none" stroke="#bfbfbf" points="12.05,-0.5 12.05,-19.5 70.05,-19.5 70.05,-0.5 12.05,-0.5"/>
<text text-anchor="middle" x="41.05" y="-7.5" font-family="Helvetica,sans-Serif" font-size="10.00">memory</text>
</a>
</g>
</g>
<!-- Node1&#45;&gt;Node3 -->
<g id="edge6" class="edge">
<title>Node1&#45;&gt;Node3</title>
<path fill="none" stroke="midnightblue" d="M80.48,-116.83C52.98,-111.68 21.35,-100.41 4.05,-76 -7.41,-59.82 7.97,-39.81 22.25,-26.3"/>
<polygon fill="midnightblue" stroke="midnightblue" points="24.73,-28.78 29.89,-19.53 20.08,-23.54 24.73,-28.78"/>
</g>
<!-- Node4 -->
<g id="node4" class="node">
<title>Node4</title>
<g id="a_node4"><a xlink:title=" ">
<polygon fill="none" stroke="#bfbfbf" points="102.05,-0.5 102.05,-19.5 146.05,-19.5 146.05,-0.5 102.05,-0.5"/>
<text text-anchor="middle" x="124.05" y="-7.5" font-family="Helvetica,sans-Serif" font-size="10.00">string</text>
</a>
</g>
</g>
<!-- Node1&#45;&gt;Node4 -->
<g id="edge5" class="edge">
<title>Node1&#45;&gt;Node4</title>
<path fill="none" stroke="midnightblue" d="M140.83,-112.36C152.18,-100.09 169.65,-76.78 162.05,-56 158,-44.91 149.87,-34.67 142.16,-26.76"/>
<polygon fill="midnightblue" stroke="midnightblue" points="144.42,-24.07 134.77,-19.7 139.58,-29.14 144.42,-24.07"/>
</g>
<!-- Node5 -->
<g id="node5" class="node">
<title>Node5</title>
<g id="a_node5"><a xlink:title=" ">
<polygon fill="none" stroke="#bfbfbf" points="209.55,-56.5 209.55,-75.5 256.55,-75.5 256.55,-56.5 209.55,-56.5"/>
<text text-anchor="middle" x="233.05" y="-63.5" font-family="Helvetica,sans-Serif" font-size="10.00">vector</text>
</a>
</g>
</g>
<!-- Node1&#45;&gt;Node5 -->
<g id="edge4" class="edge">
<title>Node1&#45;&gt;Node5</title>
<path fill="none" stroke="midnightblue" d="M148.28,-112.32C164.4,-103.7 189.35,-90.36 208.02,-80.39"/>
<polygon fill="midnightblue" stroke="midnightblue" points="209.7,-83.46 216.87,-75.65 206.4,-77.28 209.7,-83.46"/>
</g>
<!-- Node2&#45;&gt;Node3 -->
<g id="edge2" class="edge">
<title>Node2&#45;&gt;Node3</title>
<path fill="none" stroke="midnightblue" d="M76.12,-56.08C70.12,-48.38 61.3,-37.03 54.01,-27.65"/>
<polygon fill="midnightblue" stroke="midnightblue" points="56.76,-25.5 47.86,-19.75 51.24,-29.79 56.76,-25.5"/>
</g>
<!-- Node2&#45;&gt;Node4 -->
<g id="edge3" class="edge">
<title>Node2&#45;&gt;Node4</title>
<path fill="none" stroke="midnightblue" d="M89.82,-56.08C95.62,-48.46 104.11,-37.26 111.19,-27.94"/>
<polygon fill="midnightblue" stroke="midnightblue" points="114.15,-29.83 117.41,-19.75 108.57,-25.6 114.15,-29.83"/>
</g>
</g>
</svg>
