<?xml version="1.0" encoding="UTF-8" standalone="no"?>
<!DOCTYPE svg PUBLIC "-//W3C//DTD SVG 1.1//EN"
 "http://www.w3.org/Graphics/SVG/1.1/DTD/svg11.dtd">
<!-- Generated by graphviz version 2.43.0 (0)
 -->
<!-- Title: GreenhouseComponent.h Pages: 1 -->
<!--zoomable 196 -->
<svg id="main" version="1.1" xmlns="http://www.w3.org/2000/svg" xmlns:xlink="http://www.w3.org/1999/xlink" xml:space="preserve" onload="init(evt)">
<style type="text/css"><![CDATA[
.edge:hover path { stroke: red; }
.edge:hover polygon { stroke: red; fill: red; }
]]></style>
<script type="text/javascript"><![CDATA[
var edges = document.getElementsByTagName('g');
if (edges && edges.length) {
  for (var i=0;i<edges.length;i++) {
    if (edges[i].id.substr(0,4)=='edge') {
      edges[i].setAttribute('class','edge');
    }
  }
}
]]></script>
        <defs>
                <circle id="rim" cx="0" cy="0" r="7"/>
                <circle id="rim2" cx="0" cy="0" r="3.5"/>
                <g id="zoomPlus">
                        <use xlink:href="#rim" fill="#404040">
                                <set attributeName="fill" to="#808080" begin="zoomplus.mouseover" end="zoomplus.mouseout"/>
                        </use>
                        <path d="M-4,0h8M0,-4v8" fill="none" stroke="white" stroke-width="1.5" pointer-events="none"/>
                </g>
                <g id="zoomMin">
                        <use xlink:href="#rim" fill="#404040">
                                <set attributeName="fill" to="#808080" begin="zoomminus.mouseover" end="zoomminus.mouseout"/>
                        </use>
                        <path d="M-4,0h8" fill="none" stroke="white" stroke-width="1.5" pointer-events="none"/>
                </g>
                <g id="dirArrow">
                        <path fill="none" stroke="white" stroke-width="1.5" d="M0,-3.0v7 M-2.5,-0.5L0,-3.0L2.5,-0.5"/>
                </g>
               <g id="resetDef">
                       <use xlink:href="#rim2" fill="#404040">
                               <set attributeName="fill" to="#808080" begin="reset.mouseover" end="reset.mouseout"/>
                       </use>
               </g>
        </defs>

<script type="text/javascript">
var viewWidth = 3787;
var viewHeight = 196;
var sectionId = 'dynsection-1';
</script>
<script xlink:href="svgpan.js"/>
<svg id="graph" class="graph">
<g id="viewport">
<title>GreenhouseComponent.h</title>
<!-- Node1 -->
<g id="node1" class="node">
<title>Node1</title>
<g id="a_node1"><a xlink:title="The abstract &#39;Component&#39; interface for the Composite pattern.">
<polygon fill="#bfbfbf" stroke="black" points="543.5,-168.5 543.5,-187.5 683.5,-187.5 683.5,-168.5 543.5,-168.5"/>
<text text-anchor="middle" x="613.5" y="-175.5" font-family="Helvetica,sans-Serif" font-size="10.00">GreenhouseComponent.h</text>
</a>
</g>
</g>
<!-- Node2 -->
<g id="node2" class="node">
<title>Node2</title>
<g id="a_node2"><a xlink:href="GreenhouseBed_8h.html" target="_top" xlink:title="The &#39;Composite&#39; class.">
<polygon fill="none" stroke="black" points="464,-112.5 464,-131.5 567,-131.5 567,-112.5 464,-112.5"/>
<text text-anchor="middle" x="515.5" y="-119.5" font-family="Helvetica,sans-Serif" font-size="10.00">GreenhouseBed.h</text>
</a>
</g>
</g>
<!-- Node1&#45;&gt;Node2 -->
<g id="edge1" class="edge">
<title>Node1&#45;&gt;Node2</title>
<path fill="none" stroke="midnightblue" d="M588.91,-163.45C570.82,-153.48 546.77,-140.23 531.21,-131.65"/>
<polygon fill="midnightblue" stroke="midnightblue" points="587.31,-166.56 597.75,-168.32 590.69,-160.43 587.31,-166.56"/>
</g>
<!-- Node5 -->
<g id="node5" class="node">
<title>Node5</title>
<g id="a_node5"><a xlink:href="ConcreteGreenhouseIterator_8cpp.html" target="_top" xlink:title="Implements the ConcreteGreenhouseIterator behaviour defined in the corresponding header.">
<polygon fill="none" stroke="black" points="264.5,-56.5 264.5,-75.5 438.5,-75.5 438.5,-56.5 264.5,-56.5"/>
<text text-anchor="middle" x="351.5" y="-63.5" font-family="Helvetica,sans-Serif" font-size="10.00">ConcreteGreenhouseIterator.cpp</text>
</a>
</g>
</g>
<!-- Node1&#45;&gt;Node5 -->
<g id="edge46" class="edge">
<title>Node1&#45;&gt;Node5</title>
<path fill="none" stroke="midnightblue" d="M560.9,-166.13C529.27,-158.62 488.66,-147.23 454.5,-132 418.77,-116.07 380.89,-89.22 362.63,-75.55"/>
<polygon fill="midnightblue" stroke="midnightblue" points="560.3,-169.58 570.83,-168.43 561.88,-162.77 560.3,-169.58"/>
</g>
<!-- Node7 -->
<g id="node7" class="node">
<title>Node7</title>
<g id="a_node7"><a xlink:href="GreenhouseBed_8cpp.html" target="_top" xlink:title="Implements the GreenhouseBed behaviour defined in the corresponding header.">
<polygon fill="none" stroke="black" points="556.5,-56.5 556.5,-75.5 670.5,-75.5 670.5,-56.5 556.5,-56.5"/>
<text text-anchor="middle" x="613.5" y="-63.5" font-family="Helvetica,sans-Serif" font-size="10.00">GreenhouseBed.cpp</text>
</a>
</g>
</g>
<!-- Node1&#45;&gt;Node7 -->
<g id="edge47" class="edge">
<title>Node1&#45;&gt;Node7</title>
<path fill="none" stroke="midnightblue" d="M613.5,-158.35C613.5,-134.25 613.5,-93.31 613.5,-75.59"/>
<polygon fill="midnightblue" stroke="midnightblue" points="610,-158.37 613.5,-168.37 617,-158.37 610,-158.37"/>
</g>
<!-- Node11 -->
<g id="node11" class="node">
<title>Node11</title>
<g id="a_node11"><a xlink:href="PlantInstance_8h.html" target="_top" xlink:title="Represents a single, physical plant in the nursery.">
<polygon fill="none" stroke="black" points="1781.5,-112.5 1781.5,-131.5 1873.5,-131.5 1873.5,-112.5 1781.5,-112.5"/>
<text text-anchor="middle" x="1827.5" y="-119.5" font-family="Helvetica,sans-Serif" font-size="10.00">PlantInstance.h</text>
</a>
</g>
</g>
<!-- Node1&#45;&gt;Node11 -->
<g id="edge10" class="edge">
<title>Node1&#45;&gt;Node11</title>
<path fill="none" stroke="midnightblue" d="M693.67,-173.43C926.73,-163.07 1599.05,-133.16 1781.4,-125.05"/>
<polygon fill="midnightblue" stroke="midnightblue" points="693.41,-169.94 683.57,-173.88 693.72,-176.94 693.41,-169.94"/>
</g>
<!-- Node37 -->
<g id="node37" class="node">
<title>Node37</title>
<g id="a_node37"><a xlink:href="GreenhouseComponent_8cpp.html" target="_top" xlink:title="Implements the GreenhouseComponent behaviour defined in the corresponding header.">
<polygon fill="none" stroke="black" points="1891.5,-112.5 1891.5,-131.5 2043.5,-131.5 2043.5,-112.5 1891.5,-112.5"/>
<text text-anchor="middle" x="1967.5" y="-119.5" font-family="Helvetica,sans-Serif" font-size="10.00">GreenhouseComponent.cpp</text>
</a>
</g>
</g>
<!-- Node1&#45;&gt;Node37 -->
<g id="edge48" class="edge">
<title>Node1&#45;&gt;Node37</title>
<path fill="none" stroke="midnightblue" d="M693.91,-176.1C894.67,-173.43 1434,-163.66 1882.5,-132 1885.31,-131.8 1888.18,-131.58 1891.07,-131.35"/>
<polygon fill="midnightblue" stroke="midnightblue" points="693.7,-172.6 683.75,-176.23 693.8,-179.6 693.7,-172.6"/>
</g>
<!-- Node3 -->
<g id="node3" class="node">
<title>Node3</title>
<g id="a_node3"><a xlink:href="GreenhouseController_8h.html" target="_top" xlink:title="The controller responsible for applying periodic care to the nursery.">
<polygon fill="none" stroke="black" points="115,-56.5 115,-75.5 246,-75.5 246,-56.5 115,-56.5"/>
<text text-anchor="middle" x="180.5" y="-63.5" font-family="Helvetica,sans-Serif" font-size="10.00">GreenhouseController.h</text>
</a>
</g>
</g>
<!-- Node2&#45;&gt;Node3 -->
<g id="edge2" class="edge">
<title>Node2&#45;&gt;Node3</title>
<path fill="none" stroke="midnightblue" d="M453.65,-111.03C390.35,-100.83 293.05,-85.14 233.27,-75.51"/>
<polygon fill="midnightblue" stroke="midnightblue" points="453.46,-114.54 463.89,-112.68 454.57,-107.63 453.46,-114.54"/>
</g>
<!-- Node2&#45;&gt;Node5 -->
<g id="edge4" class="edge">
<title>Node2&#45;&gt;Node5</title>
<path fill="none" stroke="midnightblue" d="M479.98,-109.3C449.08,-99.13 405.03,-84.62 377.36,-75.52"/>
<polygon fill="midnightblue" stroke="midnightblue" points="478.92,-112.64 489.51,-112.44 481.11,-105.99 478.92,-112.64"/>
</g>
<!-- Node6 -->
<g id="node6" class="node">
<title>Node6</title>
<g id="a_node6"><a xlink:href="ConcreteInventoryIterator_8cpp.html" target="_top" xlink:title="Implements the ConcreteInventoryIterator behaviour defined in the corresponding header.">
<polygon fill="none" stroke="black" points="766.5,-56.5 766.5,-75.5 928.5,-75.5 928.5,-56.5 766.5,-56.5"/>
<text text-anchor="middle" x="847.5" y="-63.5" font-family="Helvetica,sans-Serif" font-size="10.00">ConcreteInventoryIterator.cpp</text>
</a>
</g>
</g>
<!-- Node2&#45;&gt;Node6 -->
<g id="edge5" class="edge">
<title>Node2&#45;&gt;Node6</title>
<path fill="none" stroke="midnightblue" d="M577.16,-110.97C639.84,-100.78 735.9,-85.15 795.05,-75.53"/>
<polygon fill="midnightblue" stroke="midnightblue" points="576.32,-107.56 567.01,-112.62 577.44,-114.47 576.32,-107.56"/>
</g>
<!-- Node2&#45;&gt;Node7 -->
<g id="edge6" class="edge">
<title>Node2&#45;&gt;Node7</title>
<path fill="none" stroke="midnightblue" d="M540.09,-107.45C558.18,-97.48 582.23,-84.23 597.79,-75.65"/>
<polygon fill="midnightblue" stroke="midnightblue" points="538.31,-104.43 531.25,-112.32 541.69,-110.56 538.31,-104.43"/>
</g>
<!-- Node8 -->
<g id="node8" class="node">
<title>Node8</title>
<g id="a_node8"><a xlink:href="Inventory_8cpp.html" target="_top" xlink:title="Implements the Inventory behaviour defined in the corresponding header.">
<polygon fill="none" stroke="black" points="456.5,-56.5 456.5,-75.5 538.5,-75.5 538.5,-56.5 456.5,-56.5"/>
<text text-anchor="middle" x="497.5" y="-63.5" font-family="Helvetica,sans-Serif" font-size="10.00">Inventory.cpp</text>
</a>
</g>
</g>
<!-- Node2&#45;&gt;Node8 -->
<g id="edge7" class="edge">
<title>Node2&#45;&gt;Node8</title>
<path fill="none" stroke="midnightblue" d="M509.3,-102.4C506.29,-93.36 502.81,-82.94 500.42,-75.75"/>
<polygon fill="midnightblue" stroke="midnightblue" points="506.04,-103.7 512.53,-112.08 512.69,-101.49 506.04,-103.7"/>
</g>
<!-- Node9 -->
<g id="node9" class="node">
<title>Node9</title>
<g id="a_node9"><a xlink:href="SalesFacade_8cpp.html" target="_top" xlink:title="Implements the SalesFacade behaviour defined in the corresponding header.">
<polygon fill="none" stroke="black" points="0,-56.5 0,-75.5 97,-75.5 97,-56.5 0,-56.5"/>
<text text-anchor="middle" x="48.5" y="-63.5" font-family="Helvetica,sans-Serif" font-size="10.00">SalesFacade.cpp</text>
</a>
</g>
</g>
<!-- Node2&#45;&gt;Node9 -->
<g id="edge8" class="edge">
<title>Node2&#45;&gt;Node9</title>
<path fill="none" stroke="midnightblue" d="M453.52,-115.12C373.13,-107.28 228.62,-92.47 105.5,-76 102.82,-75.64 100.07,-75.26 97.3,-74.86"/>
<polygon fill="midnightblue" stroke="midnightblue" points="453.66,-118.65 463.95,-116.13 454.33,-111.68 453.66,-118.65"/>
</g>
<!-- Node10 -->
<g id="node10" class="node">
<title>Node10</title>
<g id="a_node10"><a xlink:href="Staff_8cpp.html" target="_top" xlink:title="Implements the Staff behaviour defined in the corresponding header.">
<polygon fill="none" stroke="black" points="689,-56.5 689,-75.5 748,-75.5 748,-56.5 689,-56.5"/>
<text text-anchor="middle" x="718.5" y="-63.5" font-family="Helvetica,sans-Serif" font-size="10.00">Staff.cpp</text>
</a>
</g>
</g>
<!-- Node2&#45;&gt;Node10 -->
<g id="edge9" class="edge">
<title>Node2&#45;&gt;Node10</title>
<path fill="none" stroke="midnightblue" d="M557.46,-109.84C596.65,-99.41 654.15,-84.12 688.8,-74.9"/>
<polygon fill="midnightblue" stroke="midnightblue" points="556.43,-106.49 547.67,-112.44 558.23,-113.26 556.43,-106.49"/>
</g>
<!-- Node4 -->
<g id="node4" class="node">
<title>Node4</title>
<g id="a_node4"><a xlink:href="GreenhouseController_8cpp.html" target="_top" xlink:title="Implements the GreenhouseController behaviour defined in the corresponding header.">
<polygon fill="none" stroke="black" points="497,-0.5 497,-19.5 640,-19.5 640,-0.5 497,-0.5"/>
<text text-anchor="middle" x="568.5" y="-7.5" font-family="Helvetica,sans-Serif" font-size="10.00">GreenhouseController.cpp</text>
</a>
</g>
</g>
<!-- Node3&#45;&gt;Node4 -->
<g id="edge3" class="edge">
<title>Node3&#45;&gt;Node4</title>
<path fill="none" stroke="midnightblue" d="M252.05,-55.04C325.33,-44.84 438.04,-29.16 507.31,-19.52"/>
<polygon fill="midnightblue" stroke="midnightblue" points="251.4,-51.6 241.98,-56.44 252.37,-58.53 251.4,-51.6"/>
</g>
<!-- Node11&#45;&gt;Node4 -->
<g id="edge26" class="edge">
<title>Node11&#45;&gt;Node4</title>
<path fill="none" stroke="midnightblue" d="M1770.86,-121.16C1605.56,-121.14 1125.9,-117.4 975.5,-76 957.1,-70.93 955.72,-61.69 937.5,-56 837.4,-24.72 715.7,-15.02 640.16,-12.1"/>
<polygon fill="midnightblue" stroke="midnightblue" points="1771.29,-124.66 1781.29,-121.16 1771.29,-117.66 1771.29,-124.66"/>
</g>
<!-- Node11&#45;&gt;Node5 -->
<g id="edge16" class="edge">
<title>Node11&#45;&gt;Node5</title>
<path fill="none" stroke="midnightblue" d="M1771.1,-120.39C1583.12,-118.1 960.82,-108.4 447.5,-76 444.58,-75.82 441.6,-75.61 438.6,-75.4"/>
<polygon fill="midnightblue" stroke="midnightblue" points="1771.25,-123.89 1781.29,-120.51 1771.33,-116.89 1771.25,-123.89"/>
</g>
<!-- Node11&#45;&gt;Node6 -->
<g id="edge17" class="edge">
<title>Node11&#45;&gt;Node6</title>
<path fill="none" stroke="midnightblue" d="M1771.32,-119C1631.27,-113.81 1255.36,-98.76 942.5,-76 937.96,-75.67 933.29,-75.31 928.59,-74.92"/>
<polygon fill="midnightblue" stroke="midnightblue" points="1771.27,-122.5 1781.39,-119.37 1771.53,-115.5 1771.27,-122.5"/>
</g>
<!-- Node11&#45;&gt;Node7 -->
<g id="edge25" class="edge">
<title>Node11&#45;&gt;Node7</title>
<path fill="none" stroke="midnightblue" d="M1771.45,-120.71C1604.8,-119.45 1097.94,-112.65 679.5,-76 676.62,-75.75 673.67,-75.46 670.7,-75.14"/>
<polygon fill="midnightblue" stroke="midnightblue" points="1771.44,-124.21 1781.47,-120.79 1771.49,-117.21 1771.44,-124.21"/>
</g>
<!-- Node11&#45;&gt;Node8 -->
<g id="edge28" class="edge">
<title>Node11&#45;&gt;Node8</title>
<path fill="none" stroke="midnightblue" d="M1771.38,-120.1C1557.06,-116.48 790.05,-101.96 547.5,-76 544.61,-75.69 541.63,-75.31 538.63,-74.88"/>
<polygon fill="midnightblue" stroke="midnightblue" points="1771.41,-123.6 1781.46,-120.26 1771.52,-116.6 1771.41,-123.6"/>
</g>
<!-- Node11&#45;&gt;Node10 -->
<g id="edge38" class="edge">
<title>Node11&#45;&gt;Node10</title>
<path fill="none" stroke="midnightblue" d="M1771.29,-120.01C1580.16,-116.42 956.29,-102.88 757.5,-76 754.47,-75.59 751.33,-75.06 748.21,-74.45"/>
<polygon fill="midnightblue" stroke="midnightblue" points="1771.33,-123.51 1781.39,-120.2 1771.46,-116.51 1771.33,-123.51"/>
</g>
<!-- Node12 -->
<g id="node12" class="node">
<title>Node12</title>
<g id="a_node12"><a xlink:href="PlantStateUtils_8h.html" target="_top" xlink:title="Common helper functions shared by lifecycle state implementations.">
<polygon fill="none" stroke="black" points="1778.5,-56.5 1778.5,-75.5 1876.5,-75.5 1876.5,-56.5 1778.5,-56.5"/>
<text text-anchor="middle" x="1827.5" y="-63.5" font-family="Helvetica,sans-Serif" font-size="10.00">PlantStateUtils.h</text>
</a>
</g>
</g>
<!-- Node11&#45;&gt;Node12 -->
<g id="edge11" class="edge">
<title>Node11&#45;&gt;Node12</title>
<path fill="none" stroke="midnightblue" d="M1827.5,-101.8C1827.5,-92.91 1827.5,-82.78 1827.5,-75.75"/>
<polygon fill="midnightblue" stroke="midnightblue" points="1824,-102.08 1827.5,-112.08 1831,-102.08 1824,-102.08"/>
</g>
<!-- Node13 -->
<g id="node13" class="node">
<title>Node13</title>
<g id="a_node13"><a xlink:href="GrowingState_8cpp.html" target="_top" xlink:title="Implements the GrowingState behaviour defined in the corresponding header.">
<polygon fill="none" stroke="black" points="1633,-0.5 1633,-19.5 1736,-19.5 1736,-0.5 1633,-0.5"/>
<text text-anchor="middle" x="1684.5" y="-7.5" font-family="Helvetica,sans-Serif" font-size="10.00">GrowingState.cpp</text>
</a>
</g>
</g>
<!-- Node11&#45;&gt;Node13 -->
<g id="edge27" class="edge">
<title>Node11&#45;&gt;Node13</title>
<path fill="none" stroke="midnightblue" d="M1806.1,-106.55C1793.52,-97.91 1777.41,-86.59 1763.5,-76 1738.06,-56.64 1709.34,-32.37 1694.53,-19.66"/>
<polygon fill="midnightblue" stroke="midnightblue" points="1804.31,-109.57 1814.55,-112.32 1808.26,-103.79 1804.31,-109.57"/>
</g>
<!-- Node14 -->
<g id="node14" class="node">
<title>Node14</title>
<g id="a_node14"><a xlink:href="MatureState_8cpp.html" target="_top" xlink:title="Implements the MatureState behaviour defined in the corresponding header.">
<polygon fill="none" stroke="black" points="1754,-0.5 1754,-19.5 1851,-19.5 1851,-0.5 1754,-0.5"/>
<text text-anchor="middle" x="1802.5" y="-7.5" font-family="Helvetica,sans-Serif" font-size="10.00">MatureState.cpp</text>
</a>
</g>
</g>
<!-- Node11&#45;&gt;Node14 -->
<g id="edge30" class="edge">
<title>Node11&#45;&gt;Node14</title>
<path fill="none" stroke="midnightblue" d="M1800.37,-107.32C1788.6,-99.82 1776.02,-89.32 1769.5,-76 1759.59,-55.77 1779.42,-32.25 1792.42,-19.79"/>
<polygon fill="midnightblue" stroke="midnightblue" points="1798.72,-110.41 1809.11,-112.47 1802.27,-104.38 1798.72,-110.41"/>
</g>
<!-- Node15 -->
<g id="node15" class="node">
<title>Node15</title>
<g id="a_node15"><a xlink:href="SeedState_8cpp.html" target="_top" xlink:title="Implements the SeedState behaviour defined in the corresponding header.">
<polygon fill="none" stroke="black" points="1869.5,-0.5 1869.5,-19.5 1955.5,-19.5 1955.5,-0.5 1869.5,-0.5"/>
<text text-anchor="middle" x="1912.5" y="-7.5" font-family="Helvetica,sans-Serif" font-size="10.00">SeedState.cpp</text>
</a>
</g>
</g>
<!-- Node11&#45;&gt;Node15 -->
<g id="edge35" class="edge">
<title>Node11&#45;&gt;Node15</title>
<path fill="none" stroke="midnightblue" d="M1851.03,-106.9C1862.64,-99 1876.13,-88.27 1885.5,-76 1899,-58.33 1906.95,-32.93 1910.42,-19.72"/>
<polygon fill="midnightblue" stroke="midnightblue" points="1849.09,-103.99 1842.62,-112.38 1852.91,-109.86 1849.09,-103.99"/>
</g>
<!-- Node16 -->
<g id="node16" class="node">
<title>Node16</title>
<g id="a_node16"><a xlink:href="WitheringState_8cpp.html" target="_top" xlink:title="Implements the WitheringState behaviour defined in the corresponding header.">
<polygon fill="none" stroke="black" points="1990.5,-0.5 1990.5,-19.5 2100.5,-19.5 2100.5,-0.5 1990.5,-0.5"/>
<text text-anchor="middle" x="2045.5" y="-7.5" font-family="Helvetica,sans-Serif" font-size="10.00">WitheringState.cpp</text>
</a>
</g>
</g>
<!-- Node11&#45;&gt;Node16 -->
<g id="edge45" class="edge">
<title>Node11&#45;&gt;Node16</title>
<path fill="none" stroke="midnightblue" d="M1883.18,-110.57C1942.98,-99.12 2030.2,-81.63 2035.5,-76 2049.9,-60.7 2048.77,-33.82 2046.99,-19.9"/>
<polygon fill="midnightblue" stroke="midnightblue" points="1882.27,-107.18 1873.1,-112.49 1883.58,-114.05 1882.27,-107.18"/>
</g>
<!-- Node17 -->
<g id="node17" class="node">
<title>Node17</title>
<g id="a_node17"><a xlink:href="CSVAdapter_8cpp.html" target="_top" xlink:title="Implements the CSVAdapter behaviour defined in the corresponding header.">
<polygon fill="none" stroke="black" points="1933,-56.5 1933,-75.5 2026,-75.5 2026,-56.5 1933,-56.5"/>
<text text-anchor="middle" x="1979.5" y="-63.5" font-family="Helvetica,sans-Serif" font-size="10.00">CSVAdapter.cpp</text>
</a>
</g>
</g>
<!-- Node11&#45;&gt;Node17 -->
<g id="edge18" class="edge">
<title>Node11&#45;&gt;Node17</title>
<path fill="none" stroke="midnightblue" d="M1861.17,-109.04C1889.77,-98.88 1930.11,-84.55 1955.53,-75.52"/>
<polygon fill="midnightblue" stroke="midnightblue" points="1859.84,-105.8 1851.58,-112.44 1862.18,-112.39 1859.84,-105.8"/>
</g>
<!-- Node18 -->
<g id="node18" class="node">
<title>Node18</title>
<g id="a_node18"><a xlink:href="CSVReaderWriter_8cpp.html" target="_top" xlink:title="Implements the CSVReaderWriter behaviour defined in the corresponding header.">
<polygon fill="none" stroke="black" points="2082.5,-56.5 2082.5,-75.5 2202.5,-75.5 2202.5,-56.5 2082.5,-56.5"/>
<text text-anchor="middle" x="2142.5" y="-63.5" font-family="Helvetica,sans-Serif" font-size="10.00">CSVReaderWriter.cpp</text>
</a>
</g>
</g>
<!-- Node11&#45;&gt;Node18 -->
<g id="edge19" class="edge">
<title>Node11&#45;&gt;Node18</title>
<path fill="none" stroke="midnightblue" d="M1883.61,-111.38C1943.05,-101.19 2035.99,-85.26 2092.86,-75.51"/>
<polygon fill="midnightblue" stroke="midnightblue" points="1882.91,-107.95 1873.64,-113.09 1884.09,-114.85 1882.91,-107.95"/>
</g>
<!-- Node19 -->
<g id="node19" class="node">
<title>Node19</title>
<g id="a_node19"><a xlink:href="DeadState_8cpp.html" target="_top" xlink:title="Implements the DeadState behaviour defined in the corresponding header.">
<polygon fill="none" stroke="black" points="2220.5,-56.5 2220.5,-75.5 2308.5,-75.5 2308.5,-56.5 2220.5,-56.5"/>
<text text-anchor="middle" x="2264.5" y="-63.5" font-family="Helvetica,sans-Serif" font-size="10.00">DeadState.cpp</text>
</a>
</g>
</g>
<!-- Node11&#45;&gt;Node19 -->
<g id="edge20" class="edge">
<title>Node11&#45;&gt;Node19</title>
<path fill="none" stroke="midnightblue" d="M1883.93,-111.87C2029.99,-92.29 2069.09,-95.87 2211.5,-76 2214.37,-75.6 2217.31,-75.17 2220.28,-74.71"/>
<polygon fill="midnightblue" stroke="midnightblue" points="1883.13,-108.45 1873.69,-113.26 1884.07,-115.39 1883.13,-108.45"/>
</g>
<!-- Node20 -->
<g id="node20" class="node">
<title>Node20</title>
<g id="a_node20"><a xlink:href="FertilizePlant_8cpp.html" target="_top" xlink:title="Implements the FertilizePlant behaviour defined in the corresponding header.">
<polygon fill="none" stroke="black" points="2327,-56.5 2327,-75.5 2428,-75.5 2428,-56.5 2327,-56.5"/>
<text text-anchor="middle" x="2377.5" y="-63.5" font-family="Helvetica,sans-Serif" font-size="10.00">FertilizePlant.cpp</text>
</a>
</g>
</g>
<!-- Node11&#45;&gt;Node20 -->
<g id="edge21" class="edge">
<title>Node11&#45;&gt;Node20</title>
<path fill="none" stroke="midnightblue" d="M1883.87,-111.93C2076.79,-88.65 2128.1,-98.02 2317.5,-76 2320.53,-75.65 2323.65,-75.26 2326.79,-74.85"/>
<polygon fill="midnightblue" stroke="midnightblue" points="1883.18,-108.48 1873.68,-113.17 1884.03,-115.43 1883.18,-108.48"/>
</g>
<!-- Node21 -->
<g id="node21" class="node">
<title>Node21</title>
<g id="a_node21"><a xlink:href="FertilizeStrategy_8cpp.html" target="_top" xlink:title="Implements the FertilizeStrategy behaviour defined in the corresponding header.">
<polygon fill="none" stroke="black" points="2446.5,-56.5 2446.5,-75.5 2562.5,-75.5 2562.5,-56.5 2446.5,-56.5"/>
<text text-anchor="middle" x="2504.5" y="-63.5" font-family="Helvetica,sans-Serif" font-size="10.00">FertilizeStrategy.cpp</text>
</a>
</g>
</g>
<!-- Node11&#45;&gt;Node21 -->
<g id="edge22" class="edge">
<title>Node11&#45;&gt;Node21</title>
<path fill="none" stroke="midnightblue" d="M1883.63,-111.98C2129.8,-84.43 2194.77,-100.15 2437.5,-76 2440.42,-75.71 2443.41,-75.39 2446.42,-75.05"/>
<polygon fill="midnightblue" stroke="midnightblue" points="1883.21,-108.51 1873.67,-113.11 1884,-115.46 1883.21,-108.51"/>
</g>
<!-- Node22 -->
<g id="node22" class="node">
<title>Node22</title>
<g id="a_node22"><a xlink:href="FertilizingHandler_8cpp.html" target="_top" xlink:title="Implements the FertilizingHandler behaviour defined in the corresponding header.">
<polygon fill="none" stroke="black" points="2580.5,-56.5 2580.5,-75.5 2702.5,-75.5 2702.5,-56.5 2580.5,-56.5"/>
<text text-anchor="middle" x="2641.5" y="-63.5" font-family="Helvetica,sans-Serif" font-size="10.00">FertilizingHandler.cpp</text>
</a>
</g>
</g>
<!-- Node11&#45;&gt;Node22 -->
<g id="edge23" class="edge">
<title>Node11&#45;&gt;Node22</title>
<path fill="none" stroke="midnightblue" d="M1883.69,-112C2189.1,-79.71 2269.38,-103.28 2571.5,-76 2574.43,-75.74 2577.42,-75.44 2580.45,-75.13"/>
<polygon fill="midnightblue" stroke="midnightblue" points="1883.23,-108.53 1873.66,-113.07 1883.98,-115.49 1883.23,-108.53"/>
</g>
<!-- Node23 -->
<g id="node23" class="node">
<title>Node23</title>
<g id="a_node23"><a xlink:href="FrequentWatering_8cpp.html" target="_top" xlink:title="Implements the FrequentWatering behaviour defined in the corresponding header.">
<polygon fill="none" stroke="black" points="2721,-56.5 2721,-75.5 2844,-75.5 2844,-56.5 2721,-56.5"/>
<text text-anchor="middle" x="2782.5" y="-63.5" font-family="Helvetica,sans-Serif" font-size="10.00">FrequentWatering.cpp</text>
</a>
</g>
</g>
<!-- Node11&#45;&gt;Node23 -->
<g id="edge24" class="edge">
<title>Node11&#45;&gt;Node23</title>
<path fill="none" stroke="midnightblue" d="M1883.77,-112C2251.08,-74.75 2347.35,-106.93 2711.5,-76 2714.6,-75.74 2717.76,-75.44 2720.96,-75.12"/>
<polygon fill="midnightblue" stroke="midnightblue" points="1883.25,-108.54 1873.66,-113.04 1883.96,-115.5 1883.25,-108.54"/>
</g>
<!-- Node24 -->
<g id="node24" class="node">
<title>Node24</title>
<g id="a_node24"><a xlink:href="LiquidFertilizer_8cpp.html" target="_top" xlink:title="Implements the LiquidFertilizer behaviour defined in the corresponding header.">
<polygon fill="none" stroke="black" points="2862.5,-56.5 2862.5,-75.5 2970.5,-75.5 2970.5,-56.5 2862.5,-56.5"/>
<text text-anchor="middle" x="2916.5" y="-63.5" font-family="Helvetica,sans-Serif" font-size="10.00">LiquidFertilizer.cpp</text>
</a>
</g>
</g>
<!-- Node11&#45;&gt;Node24 -->
<g id="edge29" class="edge">
<title>Node11&#45;&gt;Node24</title>
<path fill="none" stroke="midnightblue" d="M1883.88,-112C2313.97,-69.75 2426.74,-114.29 2853.5,-76 2856.36,-75.74 2859.29,-75.45 2862.25,-75.12"/>
<polygon fill="midnightblue" stroke="midnightblue" points="1883.26,-108.55 1873.66,-113.02 1883.95,-115.51 1883.26,-108.55"/>
</g>
<!-- Node25 -->
<g id="node25" class="node">
<title>Node25</title>
<g id="a_node25"><a xlink:href="OrderDirector_8cpp.html" target="_top" xlink:title="Implements the OrderDirector behaviour defined in the corresponding header.">
<polygon fill="none" stroke="black" points="2988.5,-56.5 2988.5,-75.5 3090.5,-75.5 3090.5,-56.5 2988.5,-56.5"/>
<text text-anchor="middle" x="3039.5" y="-63.5" font-family="Helvetica,sans-Serif" font-size="10.00">OrderDirector.cpp</text>
</a>
</g>
</g>
<!-- Node11&#45;&gt;Node25 -->
<g id="edge31" class="edge">
<title>Node11&#45;&gt;Node25</title>
<path fill="none" stroke="midnightblue" d="M1883.74,-112.02C2369.74,-65.27 2497.01,-119.95 2979.5,-76 2982.44,-75.73 2985.45,-75.42 2988.49,-75.06"/>
<polygon fill="midnightblue" stroke="midnightblue" points="1883.27,-108.55 1873.66,-113 1883.95,-115.52 1883.27,-108.55"/>
</g>
<!-- Node26 -->
<g id="node26" class="node">
<title>Node26</title>
<g id="a_node26"><a xlink:href="OrganicFertilizer_8cpp.html" target="_top" xlink:title="Implements the OrganicFertilizer behaviour defined in the corresponding header.">
<polygon fill="none" stroke="black" points="3108.5,-56.5 3108.5,-75.5 3224.5,-75.5 3224.5,-56.5 3108.5,-56.5"/>
<text text-anchor="middle" x="3166.5" y="-63.5" font-family="Helvetica,sans-Serif" font-size="10.00">OrganicFertilizer.cpp</text>
</a>
</g>
</g>
<!-- Node11&#45;&gt;Node26 -->
<g id="edge32" class="edge">
<title>Node11&#45;&gt;Node26</title>
<path fill="none" stroke="midnightblue" d="M1883.63,-112.04C2422.85,-60.92 2563.46,-119.81 3099.5,-76 3102.42,-75.76 3105.42,-75.48 3108.44,-75.18"/>
<polygon fill="midnightblue" stroke="midnightblue" points="1883.28,-108.56 1873.66,-112.99 1883.94,-115.52 1883.28,-108.56"/>
</g>
<!-- Node27 -->
<g id="node27" class="node">
<title>Node27</title>
<g id="a_node27"><a xlink:href="PlantInstance_8cpp.html" target="_top" xlink:title="Implements the PlantInstance behaviour defined in the corresponding header.">
<polygon fill="none" stroke="black" points="3243,-56.5 3243,-75.5 3346,-75.5 3346,-56.5 3243,-56.5"/>
<text text-anchor="middle" x="3294.5" y="-63.5" font-family="Helvetica,sans-Serif" font-size="10.00">PlantInstance.cpp</text>
</a>
</g>
</g>
<!-- Node11&#45;&gt;Node27 -->
<g id="edge33" class="edge">
<title>Node11&#45;&gt;Node27</title>
<path fill="none" stroke="midnightblue" d="M1883.83,-112.02C2482.23,-56.18 2638.45,-127.64 3233.5,-76 3236.59,-75.73 3239.77,-75.41 3242.97,-75.05"/>
<polygon fill="midnightblue" stroke="midnightblue" points="1883.28,-108.56 1873.65,-112.98 1883.94,-115.53 1883.28,-108.56"/>
</g>
<!-- Node28 -->
<g id="node28" class="node">
<title>Node28</title>
<g id="a_node28"><a xlink:href="SeasonalWatering_8cpp.html" target="_top" xlink:title="Implements the SeasonalWatering behaviour defined in the corresponding header.">
<polygon fill="none" stroke="black" points="3364,-56.5 3364,-75.5 3489,-75.5 3489,-56.5 3364,-56.5"/>
<text text-anchor="middle" x="3426.5" y="-63.5" font-family="Helvetica,sans-Serif" font-size="10.00">SeasonalWatering.cpp</text>
</a>
</g>
</g>
<!-- Node11&#45;&gt;Node28 -->
<g id="edge34" class="edge">
<title>Node11&#45;&gt;Node28</title>
<path fill="none" stroke="midnightblue" d="M1883.78,-112.03C2536.25,-51.74 2705.84,-124.99 3355.5,-76 3358.23,-75.79 3361.01,-75.56 3363.82,-75.3"/>
<polygon fill="midnightblue" stroke="midnightblue" points="1883.29,-108.56 1873.65,-112.97 1883.94,-115.53 1883.29,-108.56"/>
</g>
<!-- Node29 -->
<g id="node29" class="node">
<title>Node29</title>
<g id="a_node29"><a xlink:href="SlowReleaseFertilizer_8cpp.html" target="_top" xlink:title="Implements the SlowReleaseFertilizer behaviour defined in the corresponding header.">
<polygon fill="none" stroke="black" points="3507,-56.5 3507,-75.5 3648,-75.5 3648,-56.5 3507,-56.5"/>
<text text-anchor="middle" x="3577.5" y="-63.5" font-family="Helvetica,sans-Serif" font-size="10.00">SlowReleaseFertilizer.cpp</text>
</a>
</g>
</g>
<!-- Node11&#45;&gt;Node29 -->
<g id="edge36" class="edge">
<title>Node11&#45;&gt;Node29</title>
<path fill="none" stroke="midnightblue" d="M1883.7,-112.04C2599.56,-46.56 2785.08,-124.48 3498.5,-76 3501.25,-75.81 3504.06,-75.6 3506.89,-75.37"/>
<polygon fill="midnightblue" stroke="midnightblue" points="1883.29,-108.56 1873.65,-112.97 1883.93,-115.54 1883.29,-108.56"/>
</g>
<!-- Node30 -->
<g id="node30" class="node">
<title>Node30</title>
<g id="a_node30"><a xlink:href="SparseWatering_8cpp.html" target="_top" xlink:title="Implements the SparseWatering behaviour defined in the corresponding header.">
<polygon fill="none" stroke="black" points="3666,-56.5 3666,-75.5 3779,-75.5 3779,-56.5 3666,-56.5"/>
<text text-anchor="middle" x="3722.5" y="-63.5" font-family="Helvetica,sans-Serif" font-size="10.00">SparseWatering.cpp</text>
</a>
</g>
</g>
<!-- Node11&#45;&gt;Node30 -->
<g id="edge37" class="edge">
<title>Node11&#45;&gt;Node30</title>
<path fill="none" stroke="midnightblue" d="M1883.81,-112.04C2670.01,-40.94 2874.27,-137.95 3657.5,-76 3660.23,-75.78 3663.01,-75.53 3665.82,-75.25"/>
<polygon fill="midnightblue" stroke="midnightblue" points="1883.29,-108.57 1873.65,-112.96 1883.93,-115.54 1883.29,-108.57"/>
</g>
<!-- Node31 -->
<g id="node31" class="node">
<title>Node31</title>
<g id="a_node31"><a xlink:href="StockItem_8cpp.html" target="_top" xlink:title="Implements the StockItem behaviour defined in the corresponding header.">
<polygon fill="none" stroke="black" points="984.5,-56.5 984.5,-75.5 1070.5,-75.5 1070.5,-56.5 984.5,-56.5"/>
<text text-anchor="middle" x="1027.5" y="-63.5" font-family="Helvetica,sans-Serif" font-size="10.00">StockItem.cpp</text>
</a>
</g>
</g>
<!-- Node11&#45;&gt;Node31 -->
<g id="edge39" class="edge">
<title>Node11&#45;&gt;Node31</title>
<path fill="none" stroke="midnightblue" d="M1771.3,-119.75C1646.48,-116.52 1336.85,-105.92 1079.5,-76 1076.59,-75.66 1073.59,-75.27 1070.58,-74.84"/>
<polygon fill="midnightblue" stroke="midnightblue" points="1771.29,-123.26 1781.38,-120.01 1771.47,-116.26 1771.29,-123.26"/>
</g>
<!-- Node32 -->
<g id="node32" class="node">
<title>Node32</title>
<g id="a_node32"><a xlink:href="TXTAdapter_8cpp.html" target="_top" xlink:title="Implements the TXTAdapter behaviour defined in the corresponding header.">
<polygon fill="none" stroke="black" points="1088.5,-56.5 1088.5,-75.5 1180.5,-75.5 1180.5,-56.5 1088.5,-56.5"/>
<text text-anchor="middle" x="1134.5" y="-63.5" font-family="Helvetica,sans-Serif" font-size="10.00">TXTAdapter.cpp</text>
</a>
</g>
</g>
<!-- Node11&#45;&gt;Node32 -->
<g id="edge40" class="edge">
<title>Node11&#45;&gt;Node32</title>
<path fill="none" stroke="midnightblue" d="M1771.33,-118.77C1660.02,-113.98 1403.67,-101.02 1189.5,-76 1186.62,-75.66 1183.65,-75.28 1180.67,-74.87"/>
<polygon fill="midnightblue" stroke="midnightblue" points="1771.19,-122.27 1781.33,-119.2 1771.49,-115.28 1771.19,-122.27"/>
</g>
<!-- Node33 -->
<g id="node33" class="node">
<title>Node33</title>
<g id="a_node33"><a xlink:href="TXTReaderWriter_8cpp.html" target="_top" xlink:title="Implements the TXTReaderWriter behaviour defined in the corresponding header.">
<polygon fill="none" stroke="black" points="1199,-56.5 1199,-75.5 1318,-75.5 1318,-56.5 1199,-56.5"/>
<text text-anchor="middle" x="1258.5" y="-63.5" font-family="Helvetica,sans-Serif" font-size="10.00">TXTReaderWriter.cpp</text>
</a>
</g>
</g>
<!-- Node11&#45;&gt;Node33 -->
<g id="edge41" class="edge">
<title>Node11&#45;&gt;Node33</title>
<path fill="none" stroke="midnightblue" d="M1771.26,-116.67C1678.63,-109.39 1488.24,-93.71 1327.5,-76 1324.5,-75.67 1321.42,-75.32 1318.32,-74.95"/>
<polygon fill="midnightblue" stroke="midnightblue" points="1771.01,-120.17 1781.25,-117.46 1771.56,-113.19 1771.01,-120.17"/>
</g>
<!-- Node34 -->
<g id="node34" class="node">
<title>Node34</title>
<g id="a_node34"><a xlink:href="WateringHandler_8cpp.html" target="_top" xlink:title="Implements the WateringHandler behaviour defined in the corresponding header.">
<polygon fill="none" stroke="black" points="1336.5,-56.5 1336.5,-75.5 1454.5,-75.5 1454.5,-56.5 1336.5,-56.5"/>
<text text-anchor="middle" x="1395.5" y="-63.5" font-family="Helvetica,sans-Serif" font-size="10.00">WateringHandler.cpp</text>
</a>
</g>
</g>
<!-- Node11&#45;&gt;Node34 -->
<g id="edge42" class="edge">
<title>Node11&#45;&gt;Node34</title>
<path fill="none" stroke="midnightblue" d="M1771.08,-114.18C1699.52,-105.49 1572.31,-89.93 1463.5,-76 1460.67,-75.64 1457.76,-75.26 1454.83,-74.88"/>
<polygon fill="midnightblue" stroke="midnightblue" points="1770.88,-117.68 1781.23,-115.41 1771.72,-110.73 1770.88,-117.68"/>
</g>
<!-- Node35 -->
<g id="node35" class="node">
<title>Node35</title>
<g id="a_node35"><a xlink:href="WaterPlant_8cpp.html" target="_top" xlink:title="Implements the WaterPlant behaviour defined in the corresponding header.">
<polygon fill="none" stroke="black" points="1472.5,-56.5 1472.5,-75.5 1562.5,-75.5 1562.5,-56.5 1472.5,-56.5"/>
<text text-anchor="middle" x="1517.5" y="-63.5" font-family="Helvetica,sans-Serif" font-size="10.00">WaterPlant.cpp</text>
</a>
</g>
</g>
<!-- Node11&#45;&gt;Node35 -->
<g id="edge43" class="edge">
<title>Node11&#45;&gt;Node35</title>
<path fill="none" stroke="midnightblue" d="M1771.39,-111.23C1711.51,-100.8 1617.83,-84.48 1562.57,-74.85"/>
<polygon fill="midnightblue" stroke="midnightblue" points="1770.97,-114.71 1781.42,-112.97 1772.17,-107.81 1770.97,-114.71"/>
</g>
<!-- Node36 -->
<g id="node36" class="node">
<title>Node36</title>
<g id="a_node36"><a xlink:href="waterStrategy_8cpp.html" target="_top" xlink:title="Implements the waterStrategy behaviour defined in the corresponding header.">
<polygon fill="none" stroke="black" points="1580.5,-56.5 1580.5,-75.5 1684.5,-75.5 1684.5,-56.5 1580.5,-56.5"/>
<text text-anchor="middle" x="1632.5" y="-63.5" font-family="Helvetica,sans-Serif" font-size="10.00">waterStrategy.cpp</text>
</a>
</g>
</g>
<!-- Node11&#45;&gt;Node36 -->
<g id="edge44" class="edge">
<title>Node11&#45;&gt;Node36</title>
<path fill="none" stroke="midnightblue" d="M1786.69,-109.7C1749.89,-99.51 1696.57,-84.74 1663.25,-75.52"/>
<polygon fill="midnightblue" stroke="midnightblue" points="1786.03,-113.15 1796.6,-112.44 1787.9,-106.4 1786.03,-113.15"/>
</g>
<!-- Node12&#45;&gt;Node13 -->
<g id="edge12" class="edge">
<title>Node12&#45;&gt;Node13</title>
<path fill="none" stroke="midnightblue" d="M1795.47,-52.91C1768.59,-42.75 1730.86,-28.51 1707.05,-19.52"/>
<polygon fill="midnightblue" stroke="midnightblue" points="1794.25,-56.19 1804.84,-56.44 1796.72,-49.64 1794.25,-56.19"/>
</g>
<!-- Node12&#45;&gt;Node14 -->
<g id="edge13" class="edge">
<title>Node12&#45;&gt;Node14</title>
<path fill="none" stroke="midnightblue" d="M1819.16,-46.98C1814.92,-37.82 1809.95,-27.09 1806.55,-19.75"/>
<polygon fill="midnightblue" stroke="midnightblue" points="1815.99,-48.48 1823.37,-56.08 1822.35,-45.54 1815.99,-48.48"/>
</g>
<!-- Node12&#45;&gt;Node15 -->
<g id="edge14" class="edge">
<title>Node12&#45;&gt;Node15</title>
<path fill="none" stroke="midnightblue" d="M1849.69,-50.9C1865.28,-41 1885.63,-28.07 1898.88,-19.65"/>
<polygon fill="midnightblue" stroke="midnightblue" points="1847.72,-48.01 1841.16,-56.32 1851.47,-53.92 1847.72,-48.01"/>
</g>
<!-- Node12&#45;&gt;Node16 -->
<g id="edge15" class="edge">
<title>Node12&#45;&gt;Node16</title>
<path fill="none" stroke="midnightblue" d="M1871.81,-54.02C1912.99,-43.82 1973.47,-28.84 2011.12,-19.52"/>
<polygon fill="midnightblue" stroke="midnightblue" points="1870.91,-50.64 1862.04,-56.44 1872.59,-57.44 1870.91,-50.64"/>
</g>
</g>
</svg>
        <g id="navigator" transform="translate(0 0)" fill="#404254">
                <rect fill="#f2f5e9" fill-opacity="0.5" stroke="#606060" stroke-width=".5" x="0" y="0" width="60" height="60"/>
                <use id="zoomplus" xlink:href="#zoomPlus" x="17" y="9" onmousedown="handleZoom(evt,'in')"/>
                <use id="zoomminus" xlink:href="#zoomMin" x="42" y="9" onmousedown="handleZoom(evt,'out')"/>
                <use id="reset" xlink:href="#resetDef" x="30" y="36" onmousedown="handleReset()"/>
                <g id="arrowUp" xlink:href="#dirArrow" transform="translate(30 24)" onmousedown="handlePan(0,-1)">
                  <use xlink:href="#rim" fill="#404040">
                        <set attributeName="fill" to="#808080" begin="arrowUp.mouseover" end="arrowUp.mouseout"/>
                  </use>
                  <path fill="none" stroke="white" stroke-width="1.5" d="M0,-3.0v7 M-2.5,-0.5L0,-3.0L2.5,-0.5"/>
                </g>
                <g id="arrowRight" xlink:href="#dirArrow" transform="rotate(90) translate(36 -43)" onmousedown="handlePan(1,0)">
                  <use xlink:href="#rim" fill="#404040">
                        <set attributeName="fill" to="#808080" begin="arrowRight.mouseover" end="arrowRight.mouseout"/>
                  </use>
                  <path fill="none" stroke="white" stroke-width="1.5" d="M0,-3.0v7 M-2.5,-0.5L0,-3.0L2.5,-0.5"/>
                </g>
                <g id="arrowDown" xlink:href="#dirArrow" transform="rotate(180) translate(-30 -48)" onmousedown="handlePan(0,1)">
                  <use xlink:href="#rim" fill="#404040">
                        <set attributeName="fill" to="#808080" begin="arrowDown.mouseover" end="arrowDown.mouseout"/>
                  </use>
                  <path fill="none" stroke="white" stroke-width="1.5" d="M0,-3.0v7 M-2.5,-0.5L0,-3.0L2.5,-0.5"/>
                </g>
                <g id="arrowLeft" xlink:href="#dirArrow" transform="rotate(270) translate(-36 17)" onmousedown="handlePan(-1,0)">
                  <use xlink:href="#rim" fill="#404040">
                        <set attributeName="fill" to="#808080" begin="arrowLeft.mouseover" end="arrowLeft.mouseout"/>
                  </use>
                  <path fill="none" stroke="white" stroke-width="1.5" d="M0,-3.0v7 M-2.5,-0.5L0,-3.0L2.5,-0.5"/>
                </g>
        </g>
        <svg viewBox="0 0 15 15" width="100%" height="30px" preserveAspectRatio="xMaxYMin meet">
         <g id="arrow_out" transform="scale(0.3 0.3)">
          <a xlink:href="GreenhouseComponent_8h__dep__incl_org.svg" target="_base">
           <rect id="button" ry="5" rx="5" y="6" x="6" height="38" width="38"
                fill="#f2f5e9" fill-opacity="0.5" stroke="#606060" stroke-width="1.0"/>
           <path id="arrow"
             d="M 11.500037,31.436501 C 11.940474,20.09759 22.043105,11.32322 32.158766,21.979434 L 37.068811,17.246167 C 37.068811,17.246167 37.088388,32 37.088388,32 L 22.160133,31.978069 C 22.160133,31.978069 26.997745,27.140456 26.997745,27.140456 C 18.528582,18.264221 13.291696,25.230495 11.500037,31.436501 z"
             style="fill:#404040;"/>
          </a>
         </g>
        </svg>
</svg>
