<?xml version="1.0" encoding="UTF-8" standalone="no"?>
<!DOCTYPE svg PUBLIC "-//W3C//DTD SVG 1.1//EN"
 "http://www.w3.org/Graphics/SVG/1.1/DTD/svg11.dtd">
<!-- Generated by graphviz version 2.43.0 (0)
 -->
<!-- Title: GrowingState.cpp Pages: 1 -->
<svg width="995pt" height="308pt"
 viewBox="0.00 0.00 994.50 308.00" xmlns="http://www.w3.org/2000/svg" xmlns:xlink="http://www.w3.org/1999/xlink">
<g id="graph0" class="graph" transform="scale(1 1) rotate(0) translate(4 304)">
<title>GrowingState.cpp</title>
<!-- Node1 -->
<g id="node1" class="node">
<title>Node1</title>
<g id="a_node1"><a xlink:title="Implements the GrowingState behaviour defined in the corresponding header.">
<polygon fill="#bfbfbf" stroke="black" points="503,-280.5 503,-299.5 606,-299.5 606,-280.5 503,-280.5"/>
<text text-anchor="middle" x="554.5" y="-287.5" font-family="Helvetica,sans-Serif" font-size="10.00">GrowingState.cpp</text>
</a>
</g>
</g>
<!-- Node2 -->
<g id="node2" class="node">
<title>Node2</title>
<g id="a_node2"><a xlink:href="GrowingState_8h.html" target="_top" xlink:title="Concrete state representing a growing plant.">
<polygon fill="none" stroke="black" points="0,-168.5 0,-187.5 139,-187.5 139,-168.5 0,-168.5"/>
<text text-anchor="middle" x="69.5" y="-175.5" font-family="Helvetica,sans-Serif" font-size="10.00">../include/GrowingState.h</text>
</a>
</g>
</g>
<!-- Node1&#45;&gt;Node2 -->
<g id="edge1" class="edge">
<title>Node1&#45;&gt;Node2</title>
<path fill="none" stroke="midnightblue" d="M515.95,-280.43C475.48,-271.41 410,-256.79 353.5,-244 270.14,-225.13 173.08,-202.85 116.74,-189.88"/>
<polygon fill="midnightblue" stroke="midnightblue" points="117.23,-186.41 106.7,-187.57 115.66,-193.23 117.23,-186.41"/>
</g>
<!-- Node5 -->
<g id="node5" class="node">
<title>Node5</title>
<g id="a_node5"><a xlink:href="DeadState_8h.html" target="_top" xlink:title="Concrete state representing a dead plant.">
<polygon fill="none" stroke="black" points="157.5,-168.5 157.5,-187.5 281.5,-187.5 281.5,-168.5 157.5,-168.5"/>
<text text-anchor="middle" x="219.5" y="-175.5" font-family="Helvetica,sans-Serif" font-size="10.00">../include/DeadState.h</text>
</a>
</g>
</g>
<!-- Node1&#45;&gt;Node5 -->
<g id="edge5" class="edge">
<title>Node1&#45;&gt;Node5</title>
<path fill="none" stroke="midnightblue" d="M528.49,-280.46C469.13,-260.97 323.53,-213.16 255.56,-190.84"/>
<polygon fill="midnightblue" stroke="midnightblue" points="256.32,-187.4 245.72,-187.61 254.13,-194.06 256.32,-187.4"/>
</g>
<!-- Node6 -->
<g id="node6" class="node">
<title>Node6</title>
<g id="a_node6"><a xlink:href="MatureState_8h.html" target="_top" xlink:title="Concrete state representing a mature plant (ready for sale).">
<polygon fill="none" stroke="black" points="300,-168.5 300,-187.5 433,-187.5 433,-168.5 300,-168.5"/>
<text text-anchor="middle" x="366.5" y="-175.5" font-family="Helvetica,sans-Serif" font-size="10.00">../include/MatureState.h</text>
</a>
</g>
</g>
<!-- Node1&#45;&gt;Node6 -->
<g id="edge8" class="edge">
<title>Node1&#45;&gt;Node6</title>
<path fill="none" stroke="midnightblue" d="M539.75,-280.37C507.21,-261.33 429.08,-215.62 389.83,-192.65"/>
<polygon fill="midnightblue" stroke="midnightblue" points="391.58,-189.62 381.18,-187.59 388.05,-195.66 391.58,-189.62"/>
</g>
<!-- Node7 -->
<g id="node7" class="node">
<title>Node7</title>
<g id="a_node7"><a xlink:href="PlantInstance_8h.html" target="_top" xlink:title="Represents a single, physical plant in the nursery.">
<polygon fill="none" stroke="black" points="451,-168.5 451,-187.5 590,-187.5 590,-168.5 451,-168.5"/>
<text text-anchor="middle" x="520.5" y="-175.5" font-family="Helvetica,sans-Serif" font-size="10.00">../include/PlantInstance.h</text>
</a>
</g>
</g>
<!-- Node1&#45;&gt;Node7 -->
<g id="edge11" class="edge">
<title>Node1&#45;&gt;Node7</title>
<path fill="none" stroke="midnightblue" d="M551.83,-280.37C546.32,-262.54 533.57,-221.3 526.15,-197.27"/>
<polygon fill="midnightblue" stroke="midnightblue" points="529.45,-196.11 523.16,-187.59 522.76,-198.18 529.45,-196.11"/>
</g>
<!-- Node9 -->
<g id="node9" class="node">
<title>Node9</title>
<g id="a_node9"><a xlink:title=" ">
<polygon fill="none" stroke="#bfbfbf" points="533.5,-56.5 533.5,-75.5 591.5,-75.5 591.5,-56.5 533.5,-56.5"/>
<text text-anchor="middle" x="562.5" y="-63.5" font-family="Helvetica,sans-Serif" font-size="10.00">memory</text>
</a>
</g>
</g>
<!-- Node1&#45;&gt;Node9 -->
<g id="edge30" class="edge">
<title>Node1&#45;&gt;Node9</title>
<path fill="none" stroke="midnightblue" d="M559.66,-280.49C569.57,-263.6 590.93,-224.33 598.5,-188 606.32,-150.45 586.63,-107.7 573.38,-84.4"/>
<polygon fill="midnightblue" stroke="midnightblue" points="576.32,-82.48 568.2,-75.68 570.3,-86.06 576.32,-82.48"/>
</g>
<!-- Node14 -->
<g id="node14" class="node">
<title>Node14</title>
<g id="a_node14"><a xlink:href="PlantStateThresholds_8h.html" target="_top" xlink:title="Centralised constants describing lifecycle transition boundaries.">
<polygon fill="none" stroke="black" points="646.5,-168.5 646.5,-187.5 822.5,-187.5 822.5,-168.5 646.5,-168.5"/>
<text text-anchor="middle" x="734.5" y="-175.5" font-family="Helvetica,sans-Serif" font-size="10.00">../include/PlantStateThresholds.h</text>
</a>
</g>
</g>
<!-- Node1&#45;&gt;Node14 -->
<g id="edge23" class="edge">
<title>Node1&#45;&gt;Node14</title>
<path fill="none" stroke="midnightblue" d="M606.06,-286.42C667.32,-282.15 764.08,-271.18 786.5,-244 800.84,-226.62 778.42,-206.29 758.7,-193.06"/>
<polygon fill="midnightblue" stroke="midnightblue" points="760.57,-190.1 750.25,-187.69 756.81,-196.01 760.57,-190.1"/>
</g>
<!-- Node15 -->
<g id="node15" class="node">
<title>Node15</title>
<g id="a_node15"><a xlink:href="PlantStateUtils_8h.html" target="_top" xlink:title="Common helper functions shared by lifecycle state implementations.">
<polygon fill="none" stroke="black" points="631.5,-224.5 631.5,-243.5 777.5,-243.5 777.5,-224.5 631.5,-224.5"/>
<text text-anchor="middle" x="704.5" y="-231.5" font-family="Helvetica,sans-Serif" font-size="10.00">../include/PlantStateUtils.h</text>
</a>
</g>
</g>
<!-- Node1&#45;&gt;Node15 -->
<g id="edge24" class="edge">
<title>Node1&#45;&gt;Node15</title>
<path fill="none" stroke="midnightblue" d="M578.27,-280.44C603.39,-271.4 643.21,-257.06 671.4,-246.92"/>
<polygon fill="midnightblue" stroke="midnightblue" points="672.62,-250.2 680.84,-243.52 670.25,-243.61 672.62,-250.2"/>
</g>
<!-- Node16 -->
<g id="node16" class="node">
<title>Node16</title>
<g id="a_node16"><a xlink:href="WitheringState_8h.html" target="_top" xlink:title="Concrete state representing a withering plant (needs care).">
<polygon fill="none" stroke="black" points="840.5,-168.5 840.5,-187.5 986.5,-187.5 986.5,-168.5 840.5,-168.5"/>
<text text-anchor="middle" x="913.5" y="-175.5" font-family="Helvetica,sans-Serif" font-size="10.00">../include/WitheringState.h</text>
</a>
</g>
</g>
<!-- Node1&#45;&gt;Node16 -->
<g id="edge27" class="edge">
<title>Node1&#45;&gt;Node16</title>
<path fill="none" stroke="midnightblue" d="M606.46,-285.01C657.84,-279.82 738.04,-268.36 803.5,-244 837.33,-231.41 872.61,-208.56 893.82,-193.58"/>
<polygon fill="midnightblue" stroke="midnightblue" points="895.92,-196.37 902,-187.69 891.84,-190.69 895.92,-196.37"/>
</g>
<!-- Node3 -->
<g id="node3" class="node">
<title>Node3</title>
<g id="a_node3"><a xlink:href="PlantState_8h.html" target="_top" xlink:title="Abstract base class describing the lifecycle state of a plant.">
<polygon fill="none" stroke="black" points="242.5,-112.5 242.5,-131.5 318.5,-131.5 318.5,-112.5 242.5,-112.5"/>
<text text-anchor="middle" x="280.5" y="-119.5" font-family="Helvetica,sans-Serif" font-size="10.00">PlantState.h</text>
</a>
</g>
</g>
<!-- Node2&#45;&gt;Node3 -->
<g id="edge2" class="edge">
<title>Node2&#45;&gt;Node3</title>
<path fill="none" stroke="midnightblue" d="M102.93,-168.44C139.36,-159.12 197.73,-144.18 237.53,-134"/>
<polygon fill="midnightblue" stroke="midnightblue" points="238.4,-137.39 247.22,-131.52 236.67,-130.61 238.4,-137.39"/>
</g>
<!-- Node4 -->
<g id="node4" class="node">
<title>Node4</title>
<g id="a_node4"><a xlink:title=" ">
<polygon fill="none" stroke="#bfbfbf" points="343.5,-0.5 343.5,-19.5 387.5,-19.5 387.5,-0.5 343.5,-0.5"/>
<text text-anchor="middle" x="365.5" y="-7.5" font-family="Helvetica,sans-Serif" font-size="10.00">string</text>
</a>
</g>
</g>
<!-- Node2&#45;&gt;Node4 -->
<g id="edge4" class="edge">
<title>Node2&#45;&gt;Node4</title>
<path fill="none" stroke="midnightblue" d="M81.68,-168.39C111.48,-147.53 190.75,-93.31 261.5,-56 285.08,-43.56 312.85,-31.68 333.75,-23.25"/>
<polygon fill="midnightblue" stroke="midnightblue" points="335.13,-26.47 343.13,-19.52 332.54,-19.97 335.13,-26.47"/>
</g>
<!-- Node3&#45;&gt;Node4 -->
<g id="edge3" class="edge">
<title>Node3&#45;&gt;Node4</title>
<path fill="none" stroke="midnightblue" d="M287.17,-112.37C301.26,-94.14 334.26,-51.43 352.61,-27.68"/>
<polygon fill="midnightblue" stroke="midnightblue" points="355.52,-29.64 358.86,-19.59 349.98,-25.36 355.52,-29.64"/>
</g>
<!-- Node5&#45;&gt;Node3 -->
<g id="edge6" class="edge">
<title>Node5&#45;&gt;Node3</title>
<path fill="none" stroke="midnightblue" d="M229.3,-168.32C238.32,-160.34 251.91,-148.31 262.82,-138.65"/>
<polygon fill="midnightblue" stroke="midnightblue" points="265.35,-141.08 270.52,-131.83 260.71,-135.84 265.35,-141.08"/>
</g>
<!-- Node5&#45;&gt;Node4 -->
<g id="edge7" class="edge">
<title>Node5&#45;&gt;Node4</title>
<path fill="none" stroke="midnightblue" d="M219.51,-168.29C219.92,-155.11 222.25,-129.75 233.5,-112 259.29,-71.31 307.57,-40.74 338.05,-24.4"/>
<polygon fill="midnightblue" stroke="midnightblue" points="340.02,-27.32 347.27,-19.59 336.78,-21.11 340.02,-27.32"/>
</g>
<!-- Node6&#45;&gt;Node3 -->
<g id="edge9" class="edge">
<title>Node6&#45;&gt;Node3</title>
<path fill="none" stroke="midnightblue" d="M352.68,-168.32C339.27,-159.9 318.68,-146.97 302.91,-137.07"/>
<polygon fill="midnightblue" stroke="midnightblue" points="304.61,-134.01 294.28,-131.65 300.89,-139.94 304.61,-134.01"/>
</g>
<!-- Node6&#45;&gt;Node4 -->
<g id="edge10" class="edge">
<title>Node6&#45;&gt;Node4</title>
<path fill="none" stroke="midnightblue" d="M366.45,-168.08C366.29,-141.95 365.83,-65.21 365.61,-29.58"/>
<polygon fill="midnightblue" stroke="midnightblue" points="369.11,-29.55 365.55,-19.57 362.11,-29.59 369.11,-29.55"/>
</g>
<!-- Node7&#45;&gt;Node3 -->
<g id="edge15" class="edge">
<title>Node7&#45;&gt;Node3</title>
<path fill="none" stroke="midnightblue" d="M482.47,-168.44C440.69,-159.04 373.52,-143.93 328.23,-133.74"/>
<polygon fill="midnightblue" stroke="midnightblue" points="328.88,-130.3 318.35,-131.52 327.34,-137.13 328.88,-130.3"/>
</g>
<!-- Node7&#45;&gt;Node4 -->
<g id="edge22" class="edge">
<title>Node7&#45;&gt;Node4</title>
<path fill="none" stroke="midnightblue" d="M471.37,-168.43C447.98,-162.02 421.3,-150.96 403.5,-132 389.47,-117.06 375.74,-59.83 369.3,-29.74"/>
<polygon fill="midnightblue" stroke="midnightblue" points="372.67,-28.76 367.21,-19.68 365.82,-30.19 372.67,-28.76"/>
</g>
<!-- Node8 -->
<g id="node8" class="node">
<title>Node8</title>
<g id="a_node8"><a xlink:href="GreenhouseComponent_8h.html" target="_top" xlink:title="The abstract &#39;Component&#39; interface for the Composite pattern.">
<polygon fill="none" stroke="black" points="412.5,-112.5 412.5,-131.5 552.5,-131.5 552.5,-112.5 412.5,-112.5"/>
<text text-anchor="middle" x="482.5" y="-119.5" font-family="Helvetica,sans-Serif" font-size="10.00">GreenhouseComponent.h</text>
</a>
</g>
</g>
<!-- Node7&#45;&gt;Node8 -->
<g id="edge12" class="edge">
<title>Node7&#45;&gt;Node8</title>
<path fill="none" stroke="midnightblue" d="M514.23,-168.08C508.86,-160.46 500.98,-149.26 494.42,-139.94"/>
<polygon fill="midnightblue" stroke="midnightblue" points="497.28,-137.91 488.66,-131.75 491.55,-141.94 497.28,-137.91"/>
</g>
<!-- Node7&#45;&gt;Node9 -->
<g id="edge21" class="edge">
<title>Node7&#45;&gt;Node9</title>
<path fill="none" stroke="midnightblue" d="M531.99,-168.47C541.89,-160.34 555.51,-147.13 561.5,-132 567.34,-117.24 567.07,-99.09 565.64,-85.72"/>
<polygon fill="midnightblue" stroke="midnightblue" points="569.1,-85.22 564.27,-75.79 562.17,-86.18 569.1,-85.22"/>
</g>
<!-- Node10 -->
<g id="node10" class="node">
<title>Node10</title>
<g id="a_node10"><a xlink:href="Subject_8h.html" target="_top" xlink:title="Declares the Subject base that manages observer subscriptions.">
<polygon fill="none" stroke="black" points="646.5,-112.5 646.5,-131.5 708.5,-131.5 708.5,-112.5 646.5,-112.5"/>
<text text-anchor="middle" x="677.5" y="-119.5" font-family="Helvetica,sans-Serif" font-size="10.00">Subject.h</text>
</a>
</g>
</g>
<!-- Node7&#45;&gt;Node10 -->
<g id="edge16" class="edge">
<title>Node7&#45;&gt;Node10</title>
<path fill="none" stroke="midnightblue" d="M545.38,-168.44C571.79,-159.36 613.72,-144.94 643.24,-134.78"/>
<polygon fill="midnightblue" stroke="midnightblue" points="644.42,-138.08 652.74,-131.52 642.14,-131.46 644.42,-138.08"/>
</g>
<!-- Node8&#45;&gt;Node4 -->
<g id="edge14" class="edge">
<title>Node8&#45;&gt;Node4</title>
<path fill="none" stroke="midnightblue" d="M473.32,-112.37C453.67,-93.89 407.29,-50.29 382.25,-26.74"/>
<polygon fill="midnightblue" stroke="midnightblue" points="384.32,-23.89 374.64,-19.59 379.53,-28.99 384.32,-23.89"/>
</g>
<!-- Node8&#45;&gt;Node9 -->
<g id="edge13" class="edge">
<title>Node8&#45;&gt;Node9</title>
<path fill="none" stroke="midnightblue" d="M495.35,-112.32C507.72,-103.98 526.63,-91.21 541.24,-81.35"/>
<polygon fill="midnightblue" stroke="midnightblue" points="543.35,-84.15 549.68,-75.65 539.43,-78.35 543.35,-84.15"/>
</g>
<!-- Node11 -->
<g id="node11" class="node">
<title>Node11</title>
<g id="a_node11"><a xlink:title=" ">
<polygon fill="none" stroke="#bfbfbf" points="609.5,-56.5 609.5,-75.5 641.5,-75.5 641.5,-56.5 609.5,-56.5"/>
<text text-anchor="middle" x="625.5" y="-63.5" font-family="Helvetica,sans-Serif" font-size="10.00">list</text>
</a>
</g>
</g>
<!-- Node10&#45;&gt;Node11 -->
<g id="edge17" class="edge">
<title>Node10&#45;&gt;Node11</title>
<path fill="none" stroke="midnightblue" d="M668.91,-112.08C661.34,-104.22 650.12,-92.57 640.99,-83.08"/>
<polygon fill="midnightblue" stroke="midnightblue" points="643.38,-80.53 633.93,-75.75 638.34,-85.38 643.38,-80.53"/>
</g>
<!-- Node12 -->
<g id="node12" class="node">
<title>Node12</title>
<g id="a_node12"><a xlink:href="Observer_8h.html" target="_top" xlink:title="Declares the Observer contract and shared event payload.">
<polygon fill="none" stroke="black" points="660,-56.5 660,-75.5 729,-75.5 729,-56.5 660,-56.5"/>
<text text-anchor="middle" x="694.5" y="-63.5" font-family="Helvetica,sans-Serif" font-size="10.00">Observer.h</text>
</a>
</g>
</g>
<!-- Node10&#45;&gt;Node12 -->
<g id="edge18" class="edge">
<title>Node10&#45;&gt;Node12</title>
<path fill="none" stroke="midnightblue" d="M680.31,-112.08C682.58,-104.85 685.87,-94.41 688.71,-85.4"/>
<polygon fill="midnightblue" stroke="midnightblue" points="692.08,-86.34 691.75,-75.75 685.4,-84.24 692.08,-86.34"/>
</g>
<!-- Node12&#45;&gt;Node4 -->
<g id="edge20" class="edge">
<title>Node12&#45;&gt;Node4</title>
<path fill="none" stroke="midnightblue" d="M659.94,-57.78C656.75,-57.16 653.57,-56.56 650.5,-56 559.2,-39.46 450.8,-23.3 397.86,-15.62"/>
<polygon fill="midnightblue" stroke="midnightblue" points="398.13,-12.13 387.73,-14.16 397.13,-19.05 398.13,-12.13"/>
</g>
<!-- Node13 -->
<g id="node13" class="node">
<title>Node13</title>
<g id="a_node13"><a xlink:title=" ">
<polygon fill="none" stroke="#bfbfbf" points="666.5,-0.5 666.5,-19.5 722.5,-19.5 722.5,-0.5 666.5,-0.5"/>
<text text-anchor="middle" x="694.5" y="-7.5" font-family="Helvetica,sans-Serif" font-size="10.00">optional</text>
</a>
</g>
</g>
<!-- Node12&#45;&gt;Node13 -->
<g id="edge19" class="edge">
<title>Node12&#45;&gt;Node13</title>
<path fill="none" stroke="midnightblue" d="M694.5,-56.08C694.5,-49.01 694.5,-38.86 694.5,-29.99"/>
<polygon fill="midnightblue" stroke="midnightblue" points="698,-29.75 694.5,-19.75 691,-29.75 698,-29.75"/>
</g>
<!-- Node15&#45;&gt;Node7 -->
<g id="edge26" class="edge">
<title>Node15&#45;&gt;Node7</title>
<path fill="none" stroke="midnightblue" d="M675.34,-224.44C643.99,-215.24 593.97,-200.56 559.3,-190.39"/>
<polygon fill="midnightblue" stroke="midnightblue" points="560.1,-186.97 549.52,-187.52 558.13,-193.69 560.1,-186.97"/>
</g>
<!-- Node15&#45;&gt;Node14 -->
<g id="edge25" class="edge">
<title>Node15&#45;&gt;Node14</title>
<path fill="none" stroke="midnightblue" d="M709.45,-224.08C713.6,-216.61 719.65,-205.72 724.77,-196.52"/>
<polygon fill="midnightblue" stroke="midnightblue" points="727.84,-198.19 729.64,-187.75 721.72,-194.79 727.84,-198.19"/>
</g>
<!-- Node16&#45;&gt;Node3 -->
<g id="edge28" class="edge">
<title>Node16&#45;&gt;Node3</title>
<path fill="none" stroke="midnightblue" d="M840.19,-168.85C837.26,-168.56 834.35,-168.27 831.5,-168 645.94,-150.24 424.79,-133.53 328.86,-126.49"/>
<polygon fill="midnightblue" stroke="midnightblue" points="328.84,-122.98 318.61,-125.75 328.33,-129.97 328.84,-122.98"/>
</g>
<!-- Node16&#45;&gt;Node4 -->
<g id="edge29" class="edge">
<title>Node16&#45;&gt;Node4</title>
<path fill="none" stroke="midnightblue" d="M904.52,-168.38C880.06,-145.5 809.3,-83.13 737.5,-56 675.6,-32.61 477.17,-17.98 398.29,-12.95"/>
<polygon fill="midnightblue" stroke="midnightblue" points="398.17,-9.44 387.98,-12.31 397.74,-16.43 398.17,-9.44"/>
</g>
</g>
</svg>
