<?xml version="1.0" encoding="UTF-8" standalone="no"?>
<!DOCTYPE svg PUBLIC "-//W3C//DTD SVG 1.1//EN"
 "http://www.w3.org/Graphics/SVG/1.1/DTD/svg11.dtd">
<!-- Generated by graphviz version 2.43.0 (0)
 -->
<!-- Title: Graphical Class Hierarchy Pages: 1 -->
<svg width="264pt" height="66pt"
 viewBox="0.00 0.00 264.00 66.00" xmlns="http://www.w3.org/2000/svg" xmlns:xlink="http://www.w3.org/1999/xlink">
<g id="graph0" class="graph" transform="scale(1 1) rotate(0) translate(4 62)">
<title>Graphical Class Hierarchy</title>
<!-- Node0 -->
<g id="node1" class="node">
<title>Node0</title>
<g id="a_node1"><a xlink:href="classCareRequestHandler.html" target="_top" xlink:title=" ">
<polygon fill="none" stroke="black" points="0,-19.5 0,-38.5 117,-38.5 117,-19.5 0,-19.5"/>
<text text-anchor="middle" x="58.5" y="-26.5" font-family="Helvetica,sans-Serif" font-size="10.00">CareRequestHandler</text>
</a>
</g>
</g>
<!-- Node1 -->
<g id="node2" class="node">
<title>Node1</title>
<g id="a_node2"><a xlink:href="classFertilizingHandler.html" target="_top" xlink:title=" ">
<polygon fill="none" stroke="black" points="153,-38.5 153,-57.5 256,-57.5 256,-38.5 153,-38.5"/>
<text text-anchor="middle" x="204.5" y="-45.5" font-family="Helvetica,sans-Serif" font-size="10.00">FertilizingHandler</text>
</a>
</g>
</g>
<!-- Node0&#45;&gt;Node1 -->
<g id="edge1" class="edge">
<title>Node0&#45;&gt;Node1</title>
<path fill="none" stroke="midnightblue" d="M127.24,-37.94C135.81,-39.07 144.47,-40.21 152.72,-41.3"/>
<polygon fill="midnightblue" stroke="midnightblue" points="127.61,-34.46 117.24,-36.62 126.7,-41.4 127.61,-34.46"/>
</g>
<!-- Node2 -->
<g id="node3" class="node">
<title>Node2</title>
<g id="a_node3"><a xlink:href="classWateringHandler.html" target="_top" xlink:title=" ">
<polygon fill="none" stroke="black" points="155.5,-0.5 155.5,-19.5 253.5,-19.5 253.5,-0.5 155.5,-0.5"/>
<text text-anchor="middle" x="204.5" y="-7.5" font-family="Helvetica,sans-Serif" font-size="10.00">WateringHandler</text>
</a>
</g>
</g>
<!-- Node0&#45;&gt;Node2 -->
<g id="edge2" class="edge">
<title>Node0&#45;&gt;Node2</title>
<path fill="none" stroke="midnightblue" d="M127.44,-20.04C136.9,-18.79 146.46,-17.53 155.45,-16.34"/>
<polygon fill="midnightblue" stroke="midnightblue" points="126.7,-16.6 117.24,-21.38 127.61,-23.54 126.7,-16.6"/>
</g>
</g>
</svg>
