<?xml version="1.0" encoding="UTF-8" standalone="no"?>
<!DOCTYPE svg PUBLIC "-//W3C//DTD SVG 1.1//EN"
 "http://www.w3.org/Graphics/SVG/1.1/DTD/svg11.dtd">
<!-- Generated by graphviz version 2.43.0 (0)
 -->
<!-- Title: Graphical Class Hierarchy Pages: 1 -->
<svg width="175pt" height="104pt"
 viewBox="0.00 0.00 175.00 104.00" xmlns="http://www.w3.org/2000/svg" xmlns:xlink="http://www.w3.org/1999/xlink">
<g id="graph0" class="graph" transform="scale(1 1) rotate(0) translate(4 100)">
<title>Graphical Class Hierarchy</title>
<!-- Node0 -->
<g id="node1" class="node">
<title>Node0</title>
<g id="a_node1"><a xlink:href="classColleague.html" target="_top" xlink:title=" ">
<polygon fill="none" stroke="black" points="0,-66.5 0,-85.5 65,-85.5 65,-66.5 0,-66.5"/>
<text text-anchor="middle" x="32.5" y="-73.5" font-family="Helvetica,sans-Serif" font-size="10.00">Colleague</text>
</a>
</g>
</g>
<!-- Node1 -->
<g id="node2" class="node">
<title>Node1</title>
<g id="a_node2"><a xlink:href="classCustomer.html" target="_top" xlink:title=" ">
<polygon fill="none" stroke="black" points="102,-76.5 102,-95.5 166,-95.5 166,-76.5 102,-76.5"/>
<text text-anchor="middle" x="134" y="-83.5" font-family="Helvetica,sans-Serif" font-size="10.00">Customer</text>
</a>
</g>
</g>
<!-- Node0&#45;&gt;Node1 -->
<g id="edge1" class="edge">
<title>Node0&#45;&gt;Node1</title>
<path fill="none" stroke="midnightblue" d="M75.44,-80.21C84.3,-81.11 93.51,-82.03 101.89,-82.87"/>
<polygon fill="midnightblue" stroke="midnightblue" points="75.56,-76.71 65.26,-79.19 74.86,-83.67 75.56,-76.71"/>
</g>
<!-- Node2 -->
<g id="node3" class="node">
<title>Node2</title>
<g id="a_node3"><a xlink:href="classStaff.html" target="_top" xlink:title=" ">
<polygon fill="none" stroke="black" points="114.5,-38.5 114.5,-57.5 153.5,-57.5 153.5,-38.5 114.5,-38.5"/>
<text text-anchor="middle" x="134" y="-45.5" font-family="Helvetica,sans-Serif" font-size="10.00">Staff</text>
</a>
</g>
</g>
<!-- Node0&#45;&gt;Node2 -->
<g id="edge2" class="edge">
<title>Node0&#45;&gt;Node2</title>
<path fill="none" stroke="midnightblue" d="M74.99,-64.32C88.66,-60.48 103.18,-56.39 114.27,-53.27"/>
<polygon fill="midnightblue" stroke="midnightblue" points="73.93,-60.99 65.26,-67.06 75.83,-67.72 73.93,-60.99"/>
</g>
<!-- Node27 -->
<g id="node4" class="node">
<title>Node27</title>
<g id="a_node4"><a xlink:href="classObserver.html" target="_top" xlink:title="The &#39;Observer&#39; interface that reacts to Subject notifications.">
<polygon fill="none" stroke="black" points="2,-19.5 2,-38.5 63,-38.5 63,-19.5 2,-19.5"/>
<text text-anchor="middle" x="32.5" y="-26.5" font-family="Helvetica,sans-Serif" font-size="10.00">Observer</text>
</a>
</g>
</g>
<!-- Node27&#45;&gt;Node2 -->
<g id="edge3" class="edge">
<title>Node27&#45;&gt;Node2</title>
<path fill="none" stroke="midnightblue" d="M73.16,-36.57C87.37,-39.29 102.74,-42.22 114.33,-44.44"/>
<polygon fill="midnightblue" stroke="midnightblue" points="73.56,-33.09 63.08,-34.65 72.25,-39.96 73.56,-33.09"/>
</g>
<!-- Node28 -->
<g id="node5" class="node">
<title>Node28</title>
<g id="a_node5"><a xlink:href="classStockItem.html" target="_top" xlink:title=" ">
<polygon fill="none" stroke="black" points="101,-0.5 101,-19.5 167,-19.5 167,-0.5 101,-0.5"/>
<text text-anchor="middle" x="134" y="-7.5" font-family="Helvetica,sans-Serif" font-size="10.00">StockItem</text>
</a>
</g>
</g>
<!-- Node27&#45;&gt;Node28 -->
<g id="edge4" class="edge">
<title>Node27&#45;&gt;Node28</title>
<path fill="none" stroke="midnightblue" d="M72.91,-21.48C82.2,-19.7 92,-17.83 100.93,-16.12"/>
<polygon fill="midnightblue" stroke="midnightblue" points="72.25,-18.04 63.08,-23.35 73.56,-24.91 72.25,-18.04"/>
</g>
</g>
</svg>
