<?xml version="1.0" encoding="UTF-8" standalone="no"?>
<!DOCTYPE svg PUBLIC "-//W3C//DTD SVG 1.1//EN"
 "http://www.w3.org/Graphics/SVG/1.1/DTD/svg11.dtd">
<!-- Generated by graphviz version 2.43.0 (0)
 -->
<!-- Title: Graphical Class Hierarchy Pages: 1 -->
<svg width="234pt" height="104pt"
 viewBox="0.00 0.00 234.00 104.00" xmlns="http://www.w3.org/2000/svg" xmlns:xlink="http://www.w3.org/1999/xlink">
<g id="graph0" class="graph" transform="scale(1 1) rotate(0) translate(4 100)">
<title>Graphical Class Hierarchy</title>
<!-- Node0 -->
<g id="node1" class="node">
<title>Node0</title>
<g id="a_node1"><a xlink:href="classWaterStrategy.html" target="_top" xlink:title=" ">
<polygon fill="none" stroke="black" points="0,-38.5 0,-57.5 86,-57.5 86,-38.5 0,-38.5"/>
<text text-anchor="middle" x="43" y="-45.5" font-family="Helvetica,sans-Serif" font-size="10.00">WaterStrategy</text>
</a>
</g>
</g>
<!-- Node1 -->
<g id="node2" class="node">
<title>Node1</title>
<g id="a_node2"><a xlink:href="classFrequentWatering.html" target="_top" xlink:title=" ">
<polygon fill="none" stroke="black" points="122.5,-76.5 122.5,-95.5 225.5,-95.5 225.5,-76.5 122.5,-76.5"/>
<text text-anchor="middle" x="174" y="-83.5" font-family="Helvetica,sans-Serif" font-size="10.00">FrequentWatering</text>
</a>
</g>
</g>
<!-- Node0&#45;&gt;Node1 -->
<g id="edge1" class="edge">
<title>Node0&#45;&gt;Node1</title>
<path fill="none" stroke="midnightblue" d="M86.55,-60.54C104.1,-65.7 124.11,-71.6 140.46,-76.41"/>
<polygon fill="midnightblue" stroke="midnightblue" points="87.13,-57.06 76.55,-57.59 85.16,-63.77 87.13,-57.06"/>
</g>
<!-- Node2 -->
<g id="node3" class="node">
<title>Node2</title>
<g id="a_node3"><a xlink:href="classSeasonalWatering.html" target="_top" xlink:title=" ">
<polygon fill="none" stroke="black" points="122,-38.5 122,-57.5 226,-57.5 226,-38.5 122,-38.5"/>
<text text-anchor="middle" x="174" y="-45.5" font-family="Helvetica,sans-Serif" font-size="10.00">SeasonalWatering</text>
</a>
</g>
</g>
<!-- Node0&#45;&gt;Node2 -->
<g id="edge2" class="edge">
<title>Node0&#45;&gt;Node2</title>
<path fill="none" stroke="midnightblue" d="M96.27,-48C104.65,-48 113.31,-48 121.66,-48"/>
<polygon fill="midnightblue" stroke="midnightblue" points="96.24,-44.5 86.24,-48 96.24,-51.5 96.24,-44.5"/>
</g>
<!-- Node3 -->
<g id="node4" class="node">
<title>Node3</title>
<g id="a_node4"><a xlink:href="classSparseWatering.html" target="_top" xlink:title=" ">
<polygon fill="none" stroke="black" points="127.5,-0.5 127.5,-19.5 220.5,-19.5 220.5,-0.5 127.5,-0.5"/>
<text text-anchor="middle" x="174" y="-7.5" font-family="Helvetica,sans-Serif" font-size="10.00">SparseWatering</text>
</a>
</g>
</g>
<!-- Node0&#45;&gt;Node3 -->
<g id="edge3" class="edge">
<title>Node0&#45;&gt;Node3</title>
<path fill="none" stroke="midnightblue" d="M86.55,-35.46C104.1,-30.3 124.11,-24.4 140.46,-19.59"/>
<polygon fill="midnightblue" stroke="midnightblue" points="85.16,-32.23 76.55,-38.41 87.13,-38.94 85.16,-32.23"/>
</g>
</g>
</svg>
