<?xml version="1.0" encoding="UTF-8" standalone="no"?>
<!DOCTYPE svg PUBLIC "-//W3C//DTD SVG 1.1//EN"
 "http://www.w3.org/Graphics/SVG/1.1/DTD/svg11.dtd">
<!-- Generated by graphviz version 2.43.0 (0)
 -->
<!-- Title: Graphical Class Hierarchy Pages: 1 -->
<svg width="200pt" height="180pt"
 viewBox="0.00 0.00 200.00 180.00" xmlns="http://www.w3.org/2000/svg" xmlns:xlink="http://www.w3.org/1999/xlink">
<g id="graph0" class="graph" transform="scale(1 1) rotate(0) translate(4 176)">
<title>Graphical Class Hierarchy</title>
<!-- Node0 -->
<g id="node1" class="node">
<title>Node0</title>
<g id="a_node1"><a xlink:href="classPlantState.html" target="_top" xlink:title=" ">
<polygon fill="none" stroke="black" points="0,-76.5 0,-95.5 67,-95.5 67,-76.5 0,-76.5"/>
<text text-anchor="middle" x="33.5" y="-83.5" font-family="Helvetica,sans-Serif" font-size="10.00">PlantState</text>
</a>
</g>
</g>
<!-- Node1 -->
<g id="node2" class="node">
<title>Node1</title>
<g id="a_node2"><a xlink:href="classDeadState.html" target="_top" xlink:title=" ">
<polygon fill="none" stroke="black" points="113.5,-152.5 113.5,-171.5 181.5,-171.5 181.5,-152.5 113.5,-152.5"/>
<text text-anchor="middle" x="147.5" y="-159.5" font-family="Helvetica,sans-Serif" font-size="10.00">DeadState</text>
</a>
</g>
</g>
<!-- Node0&#45;&gt;Node1 -->
<g id="edge1" class="edge">
<title>Node0&#45;&gt;Node1</title>
<path fill="none" stroke="midnightblue" d="M51.91,-102.87C65.16,-115.09 84.25,-131.43 103,-143 108.61,-146.46 114.96,-149.62 121.04,-152.32"/>
<polygon fill="midnightblue" stroke="midnightblue" points="54.15,-100.17 44.47,-95.87 49.36,-105.27 54.15,-100.17"/>
</g>
<!-- Node2 -->
<g id="node3" class="node">
<title>Node2</title>
<g id="a_node3"><a xlink:href="classGrowingState.html" target="_top" xlink:title=" ">
<polygon fill="none" stroke="black" points="106,-114.5 106,-133.5 189,-133.5 189,-114.5 106,-114.5"/>
<text text-anchor="middle" x="147.5" y="-121.5" font-family="Helvetica,sans-Serif" font-size="10.00">GrowingState</text>
</a>
</g>
</g>
<!-- Node0&#45;&gt;Node2 -->
<g id="edge2" class="edge">
<title>Node0&#45;&gt;Node2</title>
<path fill="none" stroke="midnightblue" d="M72.3,-98.83C87.33,-103.92 104.32,-109.69 118.25,-114.41"/>
<polygon fill="midnightblue" stroke="midnightblue" points="73.36,-95.49 62.76,-95.59 71.11,-102.12 73.36,-95.49"/>
</g>
<!-- Node3 -->
<g id="node4" class="node">
<title>Node3</title>
<g id="a_node4"><a xlink:href="classMatureState.html" target="_top" xlink:title=" ">
<polygon fill="none" stroke="black" points="109,-76.5 109,-95.5 186,-95.5 186,-76.5 109,-76.5"/>
<text text-anchor="middle" x="147.5" y="-83.5" font-family="Helvetica,sans-Serif" font-size="10.00">MatureState</text>
</a>
</g>
</g>
<!-- Node0&#45;&gt;Node3 -->
<g id="edge3" class="edge">
<title>Node0&#45;&gt;Node3</title>
<path fill="none" stroke="midnightblue" d="M77.31,-86C87.69,-86 98.71,-86 108.83,-86"/>
<polygon fill="midnightblue" stroke="midnightblue" points="77.2,-82.5 67.2,-86 77.2,-89.5 77.2,-82.5"/>
</g>
<!-- Node4 -->
<g id="node5" class="node">
<title>Node4</title>
<g id="a_node5"><a xlink:href="classSeedState.html" target="_top" xlink:title=" ">
<polygon fill="none" stroke="black" points="114.5,-38.5 114.5,-57.5 180.5,-57.5 180.5,-38.5 114.5,-38.5"/>
<text text-anchor="middle" x="147.5" y="-45.5" font-family="Helvetica,sans-Serif" font-size="10.00">SeedState</text>
</a>
</g>
</g>
<!-- Node0&#45;&gt;Node4 -->
<g id="edge4" class="edge">
<title>Node0&#45;&gt;Node4</title>
<path fill="none" stroke="midnightblue" d="M72.3,-73.17C87.33,-68.08 104.32,-62.31 118.25,-57.59"/>
<polygon fill="midnightblue" stroke="midnightblue" points="71.11,-69.88 62.76,-76.41 73.36,-76.51 71.11,-69.88"/>
</g>
<!-- Node5 -->
<g id="node6" class="node">
<title>Node5</title>
<g id="a_node6"><a xlink:href="classWitheringState.html" target="_top" xlink:title=" ">
<polygon fill="none" stroke="black" points="103,-0.5 103,-19.5 192,-19.5 192,-0.5 103,-0.5"/>
<text text-anchor="middle" x="147.5" y="-7.5" font-family="Helvetica,sans-Serif" font-size="10.00">WitheringState</text>
</a>
</g>
</g>
<!-- Node0&#45;&gt;Node5 -->
<g id="edge5" class="edge">
<title>Node0&#45;&gt;Node5</title>
<path fill="none" stroke="midnightblue" d="M51.91,-69.13C65.16,-56.91 84.25,-40.57 103,-29 108.61,-25.54 114.96,-22.38 121.04,-19.68"/>
<polygon fill="midnightblue" stroke="midnightblue" points="49.36,-66.73 44.47,-76.13 54.15,-71.83 49.36,-66.73"/>
</g>
</g>
</svg>
