<?xml version="1.0" encoding="UTF-8" standalone="no"?>
<!DOCTYPE svg PUBLIC "-//W3C//DTD SVG 1.1//EN"
 "http://www.w3.org/Graphics/SVG/1.1/DTD/svg11.dtd">
<!-- Generated by graphviz version 2.43.0 (0)
 -->
<!-- Title: Inventory.cpp Pages: 1 -->
<!--zoomable 274 -->
<svg id="main" version="1.1" xmlns="http://www.w3.org/2000/svg" xmlns:xlink="http://www.w3.org/1999/xlink" xml:space="preserve" onload="init(evt)">
<style type="text/css"><![CDATA[
.edge:hover path { stroke: red; }
.edge:hover polygon { stroke: red; fill: red; }
]]></style>
<script type="text/javascript"><![CDATA[
var edges = document.getElementsByTagName('g');
if (edges && edges.length) {
  for (var i=0;i<edges.length;i++) {
    if (edges[i].id.substr(0,4)=='edge') {
      edges[i].setAttribute('class','edge');
    }
  }
}
]]></script>
        <defs>
                <circle id="rim" cx="0" cy="0" r="7"/>
                <circle id="rim2" cx="0" cy="0" r="3.5"/>
                <g id="zoomPlus">
                        <use xlink:href="#rim" fill="#404040">
                                <set attributeName="fill" to="#808080" begin="zoomplus.mouseover" end="zoomplus.mouseout"/>
                        </use>
                        <path d="M-4,0h8M0,-4v8" fill="none" stroke="white" stroke-width="1.5" pointer-events="none"/>
                </g>
                <g id="zoomMin">
                        <use xlink:href="#rim" fill="#404040">
                                <set attributeName="fill" to="#808080" begin="zoomminus.mouseover" end="zoomminus.mouseout"/>
                        </use>
                        <path d="M-4,0h8" fill="none" stroke="white" stroke-width="1.5" pointer-events="none"/>
                </g>
                <g id="dirArrow">
                        <path fill="none" stroke="white" stroke-width="1.5" d="M0,-3.0v7 M-2.5,-0.5L0,-3.0L2.5,-0.5"/>
                </g>
               <g id="resetDef">
                       <use xlink:href="#rim2" fill="#404040">
                               <set attributeName="fill" to="#808080" begin="reset.mouseover" end="reset.mouseout"/>
                       </use>
               </g>
        </defs>

<script type="text/javascript">
var viewWidth = 1663;
var viewHeight = 274;
var sectionId = 'dynsection-0';
</script>
<script xlink:href="svgpan.js"/>
<svg id="graph" class="graph">
<g id="viewport">
<title>Inventory.cpp</title>
<!-- Node1 -->
<g id="node1" class="node">
<title>Node1</title>
<g id="a_node1"><a xlink:title="Implements the Inventory behaviour defined in the corresponding header.">
<polygon fill="#bfbfbf" stroke="black" points="921,-246.5 921,-265.5 1003,-265.5 1003,-246.5 921,-246.5"/>
<text text-anchor="middle" x="962" y="-253.5" font-family="Helvetica,sans-Serif" font-size="10.00">Inventory.cpp</text>
</a>
</g>
</g>
<!-- Node2 -->
<g id="node2" class="node">
<title>Node2</title>
<g id="a_node2"><a xlink:href="Inventory_8h.html" target="_top" xlink:title="The &#39;ConcreteAggregate&#39; class.">
<polygon fill="none" stroke="black" points="416,-185 416,-204 534,-204 534,-185 416,-185"/>
<text text-anchor="middle" x="475" y="-192" font-family="Helvetica,sans-Serif" font-size="10.00">../include/Inventory.h</text>
</a>
</g>
</g>
<!-- Node1&#45;&gt;Node2 -->
<g id="edge1" class="edge">
<title>Node1&#45;&gt;Node2</title>
<path fill="none" stroke="midnightblue" d="M920.9,-249.98C837.34,-239.77 646.89,-216.5 544,-203.93"/>
<polygon fill="midnightblue" stroke="midnightblue" points="544.37,-200.45 534.02,-202.71 543.52,-207.4 544.37,-200.45"/>
</g>
<!-- Node9 -->
<g id="node9" class="node">
<title>Node9</title>
<g id="a_node9"><a xlink:href="ConcreteInventoryIterator_8h.html" target="_top" xlink:title="The &#39;ConcreteIterator&#39; for the Inventory.">
<polygon fill="none" stroke="black" points="244,-179.5 244,-209.5 398,-209.5 398,-179.5 244,-179.5"/>
<text text-anchor="start" x="252" y="-197.5" font-family="Helvetica,sans-Serif" font-size="10.00">../include/ConcreteInventory</text>
<text text-anchor="middle" x="321" y="-186.5" font-family="Helvetica,sans-Serif" font-size="10.00">Iterator.h</text>
</a>
</g>
</g>
<!-- Node1&#45;&gt;Node9 -->
<g id="edge8" class="edge">
<title>Node1&#45;&gt;Node9</title>
<path fill="none" stroke="midnightblue" d="M920.8,-252.88C830.06,-247.94 605.98,-234.31 408.3,-210.09"/>
<polygon fill="midnightblue" stroke="midnightblue" points="408.66,-206.61 398.31,-208.86 407.8,-213.56 408.66,-206.61"/>
</g>
<!-- Node11 -->
<g id="node11" class="node">
<title>Node11</title>
<g id="a_node11"><a xlink:href="StockItem_8h.html" target="_top" xlink:title="Represents an inventory entry and observes plant availability.">
<polygon fill="none" stroke="black" points="1261,-118 1261,-137 1383,-137 1383,-118 1261,-118"/>
<text text-anchor="middle" x="1322" y="-125" font-family="Helvetica,sans-Serif" font-size="10.00">../include/StockItem.h</text>
</a>
</g>
</g>
<!-- Node1&#45;&gt;Node11 -->
<g id="edge11" class="edge">
<title>Node1&#45;&gt;Node11</title>
<path fill="none" stroke="midnightblue" d="M1003.12,-248.38C1043.14,-241.27 1105.3,-228.45 1157,-210 1209.63,-191.22 1267.37,-160.06 1298.66,-142.2"/>
<polygon fill="midnightblue" stroke="midnightblue" points="1300.57,-145.14 1307.49,-137.11 1297.08,-139.07 1300.57,-145.14"/>
</g>
<!-- Node14 -->
<g id="node14" class="node">
<title>Node14</title>
<g id="a_node14"><a xlink:href="FileAdapter_8h.html" target="_top" xlink:title="The &#39;Target&#39; interface for the Adapter pattern.">
<polygon fill="none" stroke="black" points="0,-56.5 0,-75.5 128,-75.5 128,-56.5 0,-56.5"/>
<text text-anchor="middle" x="64" y="-63.5" font-family="Helvetica,sans-Serif" font-size="10.00">../include/FileAdapter.h</text>
</a>
</g>
</g>
<!-- Node1&#45;&gt;Node14 -->
<g id="edge16" class="edge">
<title>Node1&#45;&gt;Node14</title>
<path fill="none" stroke="midnightblue" d="M920.89,-253.97C787.5,-250.39 367.71,-237.19 235,-210 148.1,-192.2 98.12,-215.49 47,-143 34.75,-125.64 43.95,-100.95 52.88,-84.47"/>
<polygon fill="midnightblue" stroke="midnightblue" points="55.9,-86.24 57.94,-75.84 49.86,-82.7 55.9,-86.24"/>
</g>
<!-- Node15 -->
<g id="node15" class="node">
<title>Node15</title>
<g id="a_node15"><a xlink:href="GreenhouseBed_8h.html" target="_top" xlink:title="The &#39;Composite&#39; class.">
<polygon fill="none" stroke="black" points="806,-185 806,-204 956,-204 956,-185 806,-185"/>
<text text-anchor="middle" x="881" y="-192" font-family="Helvetica,sans-Serif" font-size="10.00">../include/GreenhouseBed.h</text>
</a>
</g>
</g>
<!-- Node1&#45;&gt;Node15 -->
<g id="edge18" class="edge">
<title>Node1&#45;&gt;Node15</title>
<path fill="none" stroke="midnightblue" d="M950.39,-246.48C937.52,-237.02 916.53,-221.6 900.99,-210.19"/>
<polygon fill="midnightblue" stroke="midnightblue" points="902.72,-207.11 892.58,-204.01 898.57,-212.75 902.72,-207.11"/>
</g>
<!-- Node17 -->
<g id="node17" class="node">
<title>Node17</title>
<g id="a_node17"><a xlink:href="PlantPrototypeRegistry_8h.html" target="_top" xlink:title="Manages a set of clonable plant prototypes.">
<polygon fill="none" stroke="black" points="641,-112.5 641,-142.5 777,-142.5 777,-112.5 641,-112.5"/>
<text text-anchor="start" x="649" y="-130.5" font-family="Helvetica,sans-Serif" font-size="10.00">../include/PlantPrototype</text>
<text text-anchor="middle" x="709" y="-119.5" font-family="Helvetica,sans-Serif" font-size="10.00">Registry.h</text>
</a>
</g>
</g>
<!-- Node1&#45;&gt;Node17 -->
<g id="edge25" class="edge">
<title>Node1&#45;&gt;Node17</title>
<path fill="none" stroke="midnightblue" d="M920.94,-249.42C886.23,-243.43 836.07,-231.68 797,-210 769.24,-194.6 743.34,-168.64 726.92,-150.16"/>
<polygon fill="midnightblue" stroke="midnightblue" points="729.48,-147.76 720.29,-142.5 724.19,-152.35 729.48,-147.76"/>
</g>
<!-- Node19 -->
<g id="node19" class="node">
<title>Node19</title>
<g id="a_node19"><a xlink:href="PlantInstance_8h.html" target="_top" xlink:title="Represents a single, physical plant in the nursery.">
<polygon fill="none" stroke="black" points="1009.5,-185 1009.5,-204 1148.5,-204 1148.5,-185 1009.5,-185"/>
<text text-anchor="middle" x="1079" y="-192" font-family="Helvetica,sans-Serif" font-size="10.00">../include/PlantInstance.h</text>
</a>
</g>
</g>
<!-- Node1&#45;&gt;Node19 -->
<g id="edge29" class="edge">
<title>Node1&#45;&gt;Node19</title>
<path fill="none" stroke="midnightblue" d="M978.76,-246.48C998.22,-236.58 1030.55,-220.14 1053.21,-208.62"/>
<polygon fill="midnightblue" stroke="midnightblue" points="1054.94,-211.66 1062.27,-204.01 1051.77,-205.42 1054.94,-211.66"/>
</g>
<!-- Node23 -->
<g id="node23" class="node">
<title>Node23</title>
<g id="a_node23"><a xlink:href="Plant_8h.html" target="_top" xlink:title="Abstract &#39;Prototype&#39; interface for all plant types.">
<polygon fill="none" stroke="black" points="1319,-185 1319,-204 1417,-204 1417,-185 1319,-185"/>
<text text-anchor="middle" x="1368" y="-192" font-family="Helvetica,sans-Serif" font-size="10.00">../include/Plant.h</text>
</a>
</g>
</g>
<!-- Node1&#45;&gt;Node23 -->
<g id="edge38" class="edge">
<title>Node1&#45;&gt;Node23</title>
<path fill="none" stroke="midnightblue" d="M1003.16,-248.97C1075.44,-238.37 1225.41,-216.4 1308.8,-204.18"/>
<polygon fill="midnightblue" stroke="midnightblue" points="1309.5,-207.61 1318.88,-202.7 1308.48,-200.69 1309.5,-207.61"/>
</g>
<!-- Node26 -->
<g id="node26" class="node">
<title>Node26</title>
<g id="a_node26"><a xlink:title=" ">
<polygon fill="none" stroke="#bfbfbf" points="1435,-185 1435,-204 1499,-204 1499,-185 1435,-185"/>
<text text-anchor="middle" x="1467" y="-192" font-family="Helvetica,sans-Serif" font-size="10.00">algorithm</text>
</a>
</g>
</g>
<!-- Node1&#45;&gt;Node26 -->
<g id="edge42" class="edge">
<title>Node1&#45;&gt;Node26</title>
<path fill="none" stroke="midnightblue" d="M1003.18,-254.35C1084.8,-252.34 1272.52,-244.05 1426,-210 1429.42,-209.24 1432.95,-208.28 1436.43,-207.22"/>
<polygon fill="midnightblue" stroke="midnightblue" points="1437.63,-210.51 1446.01,-204.03 1435.41,-203.87 1437.63,-210.51"/>
</g>
<!-- Node27 -->
<g id="node27" class="node">
<title>Node27</title>
<g id="a_node27"><a xlink:title=" ">
<polygon fill="none" stroke="#bfbfbf" points="1517,-185 1517,-204 1577,-204 1577,-185 1517,-185"/>
<text text-anchor="middle" x="1547" y="-192" font-family="Helvetica,sans-Serif" font-size="10.00">iostream</text>
</a>
</g>
</g>
<!-- Node1&#45;&gt;Node27 -->
<g id="edge43" class="edge">
<title>Node1&#45;&gt;Node27</title>
<path fill="none" stroke="midnightblue" d="M1003.33,-255.42C1095.23,-255.52 1323.02,-251.19 1508,-210 1511.07,-209.32 1514.23,-208.44 1517.36,-207.47"/>
<polygon fill="midnightblue" stroke="midnightblue" points="1518.77,-210.68 1527.08,-204.1 1516.48,-204.07 1518.77,-210.68"/>
</g>
<!-- Node3 -->
<g id="node3" class="node">
<title>Node3</title>
<g id="a_node3"><a xlink:href="InventoryCollection_8h.html" target="_top" xlink:title="The &#39;Aggregate&#39; interface.">
<polygon fill="none" stroke="black" points="501.5,-118 501.5,-137 622.5,-137 622.5,-118 501.5,-118"/>
<text text-anchor="middle" x="562" y="-125" font-family="Helvetica,sans-Serif" font-size="10.00">InventoryCollection.h</text>
</a>
</g>
</g>
<!-- Node2&#45;&gt;Node3 -->
<g id="edge2" class="edge">
<title>Node2&#45;&gt;Node3</title>
<path fill="none" stroke="midnightblue" d="M486.73,-184.73C500.95,-174.11 525.13,-156.05 542.24,-143.26"/>
<polygon fill="midnightblue" stroke="midnightblue" points="544.54,-145.92 550.45,-137.13 540.35,-140.31 544.54,-145.92"/>
</g>
<!-- Node4 -->
<g id="node4" class="node">
<title>Node4</title>
<g id="a_node4"><a xlink:title=" ">
<polygon fill="none" stroke="#bfbfbf" points="331.5,-118 331.5,-137 378.5,-137 378.5,-118 331.5,-118"/>
<text text-anchor="middle" x="355" y="-125" font-family="Helvetica,sans-Serif" font-size="10.00">vector</text>
</a>
</g>
</g>
<!-- Node2&#45;&gt;Node4 -->
<g id="edge3" class="edge">
<title>Node2&#45;&gt;Node4</title>
<path fill="none" stroke="midnightblue" d="M458.82,-184.73C438.57,-173.77 403.7,-154.88 380.01,-142.05"/>
<polygon fill="midnightblue" stroke="midnightblue" points="381.39,-138.81 370.93,-137.13 378.05,-144.97 381.39,-138.81"/>
</g>
<!-- Node5 -->
<g id="node5" class="node">
<title>Node5</title>
<g id="a_node5"><a xlink:title=" ">
<polygon fill="none" stroke="#bfbfbf" points="1033,-0.5 1033,-19.5 1077,-19.5 1077,-0.5 1033,-0.5"/>
<text text-anchor="middle" x="1055" y="-7.5" font-family="Helvetica,sans-Serif" font-size="10.00">string</text>
</a>
</g>
</g>
<!-- Node2&#45;&gt;Node5 -->
<g id="edge4" class="edge">
<title>Node2&#45;&gt;Node5</title>
<path fill="none" stroke="midnightblue" d="M435.84,-184.95C426.41,-182.95 416.35,-180.86 407,-179 316.7,-161.08 149.89,-180.86 211,-112 266.01,-50.02 874.3,-19.05 1022.56,-12.39"/>
<polygon fill="midnightblue" stroke="midnightblue" points="1022.98,-15.87 1032.81,-11.93 1022.67,-8.88 1022.98,-15.87"/>
</g>
<!-- Node6 -->
<g id="node6" class="node">
<title>Node6</title>
<g id="a_node6"><a xlink:title=" ">
<polygon fill="none" stroke="#bfbfbf" points="795,-56.5 795,-75.5 853,-75.5 853,-56.5 795,-56.5"/>
<text text-anchor="middle" x="824" y="-63.5" font-family="Helvetica,sans-Serif" font-size="10.00">memory</text>
</a>
</g>
</g>
<!-- Node2&#45;&gt;Node6 -->
<g id="edge5" class="edge">
<title>Node2&#45;&gt;Node6</title>
<path fill="none" stroke="midnightblue" d="M534.1,-190.26C612.88,-184.88 746.94,-171.72 786,-143 804.9,-129.1 814.98,-103.15 819.91,-85.48"/>
<polygon fill="midnightblue" stroke="midnightblue" points="823.31,-86.28 822.34,-75.73 816.52,-84.58 823.31,-86.28"/>
</g>
<!-- Node7 -->
<g id="node7" class="node">
<title>Node7</title>
<g id="a_node7"><a xlink:title=" ">
<polygon fill="none" stroke="#bfbfbf" points="220.5,-118 220.5,-137 313.5,-137 313.5,-118 220.5,-118"/>
<text text-anchor="middle" x="267" y="-125" font-family="Helvetica,sans-Serif" font-size="10.00">unordered_map</text>
</a>
</g>
</g>
<!-- Node2&#45;&gt;Node7 -->
<g id="edge6" class="edge">
<title>Node2&#45;&gt;Node7</title>
<path fill="none" stroke="midnightblue" d="M447.38,-184.87C410.52,-173.35 345.15,-152.92 304.05,-140.08"/>
<polygon fill="midnightblue" stroke="midnightblue" points="304.99,-136.71 294.4,-137.06 302.9,-143.39 304.99,-136.71"/>
</g>
<!-- Node8 -->
<g id="node8" class="node">
<title>Node8</title>
<g id="a_node8"><a xlink:title=" ">
<polygon fill="none" stroke="#bfbfbf" points="397,-118 397,-137 483,-137 483,-118 397,-118"/>
<text text-anchor="middle" x="440" y="-125" font-family="Helvetica,sans-Serif" font-size="10.00">unordered_set</text>
</a>
</g>
</g>
<!-- Node2&#45;&gt;Node8 -->
<g id="edge7" class="edge">
<title>Node2&#45;&gt;Node8</title>
<path fill="none" stroke="midnightblue" d="M470.28,-184.73C464.98,-174.89 456.24,-158.66 449.51,-146.16"/>
<polygon fill="midnightblue" stroke="midnightblue" points="452.47,-144.27 444.65,-137.13 446.3,-147.59 452.47,-144.27"/>
</g>
<!-- Node9&#45;&gt;Node4 -->
<g id="edge10" class="edge">
<title>Node9&#45;&gt;Node4</title>
<path fill="none" stroke="midnightblue" d="M328.38,-179.4C333.47,-169.66 340.28,-156.65 345.73,-146.21"/>
<polygon fill="midnightblue" stroke="midnightblue" points="348.92,-147.68 350.45,-137.19 342.72,-144.43 348.92,-147.68"/>
</g>
<!-- Node10 -->
<g id="node10" class="node">
<title>Node10</title>
<g id="a_node10"><a xlink:href="InventoryIterator_8h.html" target="_top" xlink:title="The &#39;Iterator&#39; interface.">
<polygon fill="none" stroke="black" points="56.5,-118 56.5,-137 163.5,-137 163.5,-118 56.5,-118"/>
<text text-anchor="middle" x="110" y="-125" font-family="Helvetica,sans-Serif" font-size="10.00">InventoryIterator.h</text>
</a>
</g>
</g>
<!-- Node9&#45;&gt;Node10 -->
<g id="edge9" class="edge">
<title>Node9&#45;&gt;Node10</title>
<path fill="none" stroke="midnightblue" d="M275.48,-179.48C237.16,-167.67 183.04,-151 147.26,-139.98"/>
<polygon fill="midnightblue" stroke="midnightblue" points="148.27,-136.63 137.69,-137.03 146.21,-143.32 148.27,-136.63"/>
</g>
<!-- Node11&#45;&gt;Node5 -->
<g id="edge12" class="edge">
<title>Node11&#45;&gt;Node5</title>
<path fill="none" stroke="midnightblue" d="M1325.5,-117.94C1330.82,-103.35 1338.87,-73.57 1324,-56 1294,-20.57 1152.14,-13.01 1087.38,-11.42"/>
<polygon fill="midnightblue" stroke="midnightblue" points="1087.38,-7.92 1077.31,-11.2 1087.24,-14.92 1087.38,-7.92"/>
</g>
<!-- Node12 -->
<g id="node12" class="node">
<title>Node12</title>
<g id="a_node12"><a xlink:href="Observer_8h.html" target="_top" xlink:title="Declares the Observer contract and shared event payload.">
<polygon fill="none" stroke="black" points="1246.5,-56.5 1246.5,-75.5 1315.5,-75.5 1315.5,-56.5 1246.5,-56.5"/>
<text text-anchor="middle" x="1281" y="-63.5" font-family="Helvetica,sans-Serif" font-size="10.00">Observer.h</text>
</a>
</g>
</g>
<!-- Node11&#45;&gt;Node12 -->
<g id="edge13" class="edge">
<title>Node11&#45;&gt;Node12</title>
<path fill="none" stroke="midnightblue" d="M1316.13,-117.98C1310.04,-109.14 1300.36,-95.09 1292.7,-83.98"/>
<polygon fill="midnightblue" stroke="midnightblue" points="1295.42,-81.76 1286.86,-75.51 1289.66,-85.73 1295.42,-81.76"/>
</g>
<!-- Node12&#45;&gt;Node5 -->
<g id="edge15" class="edge">
<title>Node12&#45;&gt;Node5</title>
<path fill="none" stroke="midnightblue" d="M1246.18,-56.68C1202.81,-46.32 1129.29,-28.75 1087.18,-18.69"/>
<polygon fill="midnightblue" stroke="midnightblue" points="1087.73,-15.22 1077.19,-16.3 1086.1,-22.03 1087.73,-15.22"/>
</g>
<!-- Node13 -->
<g id="node13" class="node">
<title>Node13</title>
<g id="a_node13"><a xlink:title=" ">
<polygon fill="none" stroke="#bfbfbf" points="1253,-0.5 1253,-19.5 1309,-19.5 1309,-0.5 1253,-0.5"/>
<text text-anchor="middle" x="1281" y="-7.5" font-family="Helvetica,sans-Serif" font-size="10.00">optional</text>
</a>
</g>
</g>
<!-- Node12&#45;&gt;Node13 -->
<g id="edge14" class="edge">
<title>Node12&#45;&gt;Node13</title>
<path fill="none" stroke="midnightblue" d="M1281,-56.08C1281,-49.01 1281,-38.86 1281,-29.99"/>
<polygon fill="midnightblue" stroke="midnightblue" points="1284.5,-29.75 1281,-19.75 1277.5,-29.75 1284.5,-29.75"/>
</g>
<!-- Node14&#45;&gt;Node5 -->
<g id="edge17" class="edge">
<title>Node14&#45;&gt;Node5</title>
<path fill="none" stroke="midnightblue" d="M128.19,-59.62C144.43,-58.35 161.85,-57.05 178,-56 507.76,-34.53 907.84,-17.16 1022.74,-12.33"/>
<polygon fill="midnightblue" stroke="midnightblue" points="1023.11,-15.82 1032.96,-11.91 1022.82,-8.83 1023.11,-15.82"/>
</g>
<!-- Node15&#45;&gt;Node4 -->
<g id="edge22" class="edge">
<title>Node15&#45;&gt;Node4</title>
<path fill="none" stroke="midnightblue" d="M805.79,-193.02C707.98,-190.78 532.54,-181.15 388,-143 385.7,-142.39 383.36,-141.65 381.04,-140.82"/>
<polygon fill="midnightblue" stroke="midnightblue" points="382.35,-137.57 371.76,-137.07 379.72,-144.06 382.35,-137.57"/>
</g>
<!-- Node15&#45;&gt;Node5 -->
<g id="edge23" class="edge">
<title>Node15&#45;&gt;Node5</title>
<path fill="none" stroke="midnightblue" d="M886.03,-184.9C895.26,-169.45 916.01,-136.35 938,-112 968.75,-77.94 1010.63,-44.32 1035.04,-25.75"/>
<polygon fill="midnightblue" stroke="midnightblue" points="1037.31,-28.42 1043.19,-19.61 1033.1,-22.83 1037.31,-28.42"/>
</g>
<!-- Node15&#45;&gt;Node6 -->
<g id="edge24" class="edge">
<title>Node15&#45;&gt;Node6</title>
<path fill="none" stroke="midnightblue" d="M877.08,-184.81C867.85,-164.31 844.57,-112.65 832.13,-85.04"/>
<polygon fill="midnightblue" stroke="midnightblue" points="835.24,-83.44 827.95,-75.76 828.86,-86.31 835.24,-83.44"/>
</g>
<!-- Node16 -->
<g id="node16" class="node">
<title>Node16</title>
<g id="a_node16"><a xlink:href="GreenhouseComponent_8h.html" target="_top" xlink:title="The abstract &#39;Component&#39; interface for the Composite pattern.">
<polygon fill="none" stroke="black" points="947,-118 947,-137 1087,-137 1087,-118 947,-118"/>
<text text-anchor="middle" x="1017" y="-125" font-family="Helvetica,sans-Serif" font-size="10.00">GreenhouseComponent.h</text>
</a>
</g>
</g>
<!-- Node15&#45;&gt;Node16 -->
<g id="edge19" class="edge">
<title>Node15&#45;&gt;Node16</title>
<path fill="none" stroke="midnightblue" d="M899.06,-184.87C922.23,-173.8 962.63,-154.49 989.6,-141.6"/>
<polygon fill="midnightblue" stroke="midnightblue" points="991.35,-144.64 998.87,-137.17 988.33,-138.32 991.35,-144.64"/>
</g>
<!-- Node16&#45;&gt;Node5 -->
<g id="edge21" class="edge">
<title>Node16&#45;&gt;Node5</title>
<path fill="none" stroke="midnightblue" d="M1019.86,-117.82C1026.02,-99.09 1040.67,-54.55 1048.98,-29.29"/>
<polygon fill="midnightblue" stroke="midnightblue" points="1052.31,-30.37 1052.11,-19.78 1045.66,-28.19 1052.31,-30.37"/>
</g>
<!-- Node16&#45;&gt;Node6 -->
<g id="edge20" class="edge">
<title>Node16&#45;&gt;Node6</title>
<path fill="none" stroke="midnightblue" d="M989.35,-117.98C955.81,-107.64 899.13,-90.16 861.63,-78.6"/>
<polygon fill="midnightblue" stroke="midnightblue" points="862.19,-75.11 851.6,-75.51 860.13,-81.8 862.19,-75.11"/>
</g>
<!-- Node17&#45;&gt;Node5 -->
<g id="edge27" class="edge">
<title>Node17&#45;&gt;Node5</title>
<path fill="none" stroke="midnightblue" d="M708.53,-112.23C708.83,-96.04 712.02,-70.08 728,-56 771.34,-17.82 949.19,-11.87 1022.83,-11.06"/>
<polygon fill="midnightblue" stroke="midnightblue" points="1022.94,-14.56 1032.92,-10.98 1022.89,-7.56 1022.94,-14.56"/>
</g>
<!-- Node17&#45;&gt;Node6 -->
<g id="edge28" class="edge">
<title>Node17&#45;&gt;Node6</title>
<path fill="none" stroke="midnightblue" d="M736.25,-112.4C755.03,-102.68 779.83,-89.86 798.27,-80.31"/>
<polygon fill="midnightblue" stroke="midnightblue" points="799.99,-83.36 807.27,-75.66 796.78,-77.14 799.99,-83.36"/>
</g>
<!-- Node18 -->
<g id="node18" class="node">
<title>Node18</title>
<g id="a_node18"><a xlink:title=" ">
<polygon fill="none" stroke="#bfbfbf" points="737,-56.5 737,-75.5 775,-75.5 775,-56.5 737,-56.5"/>
<text text-anchor="middle" x="756" y="-63.5" font-family="Helvetica,sans-Serif" font-size="10.00">map</text>
</a>
</g>
</g>
<!-- Node17&#45;&gt;Node18 -->
<g id="edge26" class="edge">
<title>Node17&#45;&gt;Node18</title>
<path fill="none" stroke="midnightblue" d="M720.14,-112.4C726.97,-103.75 735.74,-92.64 742.91,-83.58"/>
<polygon fill="midnightblue" stroke="midnightblue" points="745.71,-85.67 749.16,-75.66 740.22,-81.34 745.71,-85.67"/>
</g>
<!-- Node19&#45;&gt;Node5 -->
<g id="edge37" class="edge">
<title>Node19&#45;&gt;Node5</title>
<path fill="none" stroke="midnightblue" d="M1082.91,-184.78C1087.11,-174.89 1093.52,-158.15 1096,-143 1098.23,-129.4 1098.64,-125.52 1096,-112 1090.01,-81.32 1074.68,-48.17 1064.55,-28.52"/>
<polygon fill="midnightblue" stroke="midnightblue" points="1067.58,-26.76 1059.81,-19.56 1061.4,-30.04 1067.58,-26.76"/>
</g>
<!-- Node19&#45;&gt;Node6 -->
<g id="edge36" class="edge">
<title>Node19&#45;&gt;Node6</title>
<path fill="none" stroke="midnightblue" d="M1048.69,-185C1019.53,-176.27 974.59,-161.4 938,-143 902.51,-125.15 864.81,-98.25 842.89,-81.7"/>
<polygon fill="midnightblue" stroke="midnightblue" points="844.85,-78.79 834.77,-75.5 840.6,-84.35 844.85,-78.79"/>
</g>
<!-- Node19&#45;&gt;Node16 -->
<g id="edge30" class="edge">
<title>Node19&#45;&gt;Node16</title>
<path fill="none" stroke="midnightblue" d="M1070.64,-184.73C1060.88,-174.5 1044.53,-157.36 1032.45,-144.69"/>
<polygon fill="midnightblue" stroke="midnightblue" points="1034.66,-141.95 1025.23,-137.13 1029.6,-146.78 1034.66,-141.95"/>
</g>
<!-- Node20 -->
<g id="node20" class="node">
<title>Node20</title>
<g id="a_node20"><a xlink:href="PlantState_8h.html" target="_top" xlink:title="Abstract base class describing the lifecycle state of a plant.">
<polygon fill="none" stroke="black" points="1102,-56.5 1102,-75.5 1178,-75.5 1178,-56.5 1102,-56.5"/>
<text text-anchor="middle" x="1140" y="-63.5" font-family="Helvetica,sans-Serif" font-size="10.00">PlantState.h</text>
</a>
</g>
</g>
<!-- Node19&#45;&gt;Node20 -->
<g id="edge31" class="edge">
<title>Node19&#45;&gt;Node20</title>
<path fill="none" stroke="midnightblue" d="M1091.11,-184.98C1102.87,-175.98 1120.2,-160.67 1129,-143 1137.9,-125.14 1140.15,-102.18 1140.49,-86.2"/>
<polygon fill="midnightblue" stroke="midnightblue" points="1143.99,-85.95 1140.46,-75.96 1136.99,-85.97 1143.99,-85.95"/>
</g>
<!-- Node21 -->
<g id="node21" class="node">
<title>Node21</title>
<g id="a_node21"><a xlink:href="Subject_8h.html" target="_top" xlink:title="Declares the Subject base that manages observer subscriptions.">
<polygon fill="none" stroke="black" points="1181,-118 1181,-137 1243,-137 1243,-118 1181,-118"/>
<text text-anchor="middle" x="1212" y="-125" font-family="Helvetica,sans-Serif" font-size="10.00">Subject.h</text>
</a>
</g>
</g>
<!-- Node19&#45;&gt;Node21 -->
<g id="edge33" class="edge">
<title>Node19&#45;&gt;Node21</title>
<path fill="none" stroke="midnightblue" d="M1096.66,-184.87C1119.32,-173.8 1158.83,-154.49 1185.2,-141.6"/>
<polygon fill="midnightblue" stroke="midnightblue" points="1186.82,-144.7 1194.27,-137.17 1183.74,-138.41 1186.82,-144.7"/>
</g>
<!-- Node20&#45;&gt;Node5 -->
<g id="edge32" class="edge">
<title>Node20&#45;&gt;Node5</title>
<path fill="none" stroke="midnightblue" d="M1126.34,-56.32C1113.08,-47.9 1092.73,-34.97 1077.15,-25.07"/>
<polygon fill="midnightblue" stroke="midnightblue" points="1078.94,-22.06 1068.62,-19.65 1075.19,-27.97 1078.94,-22.06"/>
</g>
<!-- Node21&#45;&gt;Node12 -->
<g id="edge35" class="edge">
<title>Node21&#45;&gt;Node12</title>
<path fill="none" stroke="midnightblue" d="M1221.89,-117.98C1232.65,-108.7 1250.07,-93.67 1263.22,-82.33"/>
<polygon fill="midnightblue" stroke="midnightblue" points="1265.84,-84.69 1271.13,-75.51 1261.27,-79.39 1265.84,-84.69"/>
</g>
<!-- Node22 -->
<g id="node22" class="node">
<title>Node22</title>
<g id="a_node22"><a xlink:title=" ">
<polygon fill="none" stroke="#bfbfbf" points="1196,-56.5 1196,-75.5 1228,-75.5 1228,-56.5 1196,-56.5"/>
<text text-anchor="middle" x="1212" y="-63.5" font-family="Helvetica,sans-Serif" font-size="10.00">list</text>
</a>
</g>
</g>
<!-- Node21&#45;&gt;Node22 -->
<g id="edge34" class="edge">
<title>Node21&#45;&gt;Node22</title>
<path fill="none" stroke="midnightblue" d="M1212,-117.98C1212,-109.58 1212,-96.48 1212,-85.66"/>
<polygon fill="midnightblue" stroke="midnightblue" points="1215.5,-85.51 1212,-75.51 1208.5,-85.51 1215.5,-85.51"/>
</g>
<!-- Node23&#45;&gt;Node5 -->
<g id="edge39" class="edge">
<title>Node23&#45;&gt;Node5</title>
<path fill="none" stroke="midnightblue" d="M1374.27,-184.79C1384.31,-169.72 1401.88,-137.91 1392,-112 1380.11,-80.83 1371.3,-71.96 1342,-56 1298.47,-32.29 1152.59,-18.46 1087.19,-13.32"/>
<polygon fill="midnightblue" stroke="midnightblue" points="1087.29,-9.81 1077.05,-12.54 1086.75,-16.79 1087.29,-9.81"/>
</g>
<!-- Node24 -->
<g id="node24" class="node">
<title>Node24</title>
<g id="a_node24"><a xlink:href="WaterStrategy_8h.html" target="_top" xlink:title="Abstract &#39;Strategy&#39; interface for watering.">
<polygon fill="none" stroke="black" points="1561,-118 1561,-137 1655,-137 1655,-118 1561,-118"/>
<text text-anchor="middle" x="1608" y="-125" font-family="Helvetica,sans-Serif" font-size="10.00">WaterStrategy.h</text>
</a>
</g>
</g>
<!-- Node23&#45;&gt;Node24 -->
<g id="edge40" class="edge">
<title>Node23&#45;&gt;Node24</title>
<path fill="none" stroke="midnightblue" d="M1399.87,-184.87C1442.75,-173.25 1519.11,-152.58 1566.45,-139.75"/>
<polygon fill="midnightblue" stroke="midnightblue" points="1567.64,-143.06 1576.38,-137.06 1565.81,-136.3 1567.64,-143.06"/>
</g>
<!-- Node25 -->
<g id="node25" class="node">
<title>Node25</title>
<g id="a_node25"><a xlink:href="FertilizeStrategy_8h.html" target="_top" xlink:title="Abstract &#39;Strategy&#39; interface for fertilizing.">
<polygon fill="none" stroke="black" points="1439,-118 1439,-137 1543,-137 1543,-118 1439,-118"/>
<text text-anchor="middle" x="1491" y="-125" font-family="Helvetica,sans-Serif" font-size="10.00">FertilizeStrategy.h</text>
</a>
</g>
</g>
<!-- Node23&#45;&gt;Node25 -->
<g id="edge41" class="edge">
<title>Node23&#45;&gt;Node25</title>
<path fill="none" stroke="midnightblue" d="M1384.33,-184.87C1405.1,-173.89 1441.19,-154.82 1465.57,-141.94"/>
<polygon fill="midnightblue" stroke="midnightblue" points="1467.39,-144.93 1474.6,-137.17 1464.12,-138.75 1467.39,-144.93"/>
</g>
</g>
</svg>
        <g id="navigator" transform="translate(0 0)" fill="#404254">
                <rect fill="#f2f5e9" fill-opacity="0.5" stroke="#606060" stroke-width=".5" x="0" y="0" width="60" height="60"/>
                <use id="zoomplus" xlink:href="#zoomPlus" x="17" y="9" onmousedown="handleZoom(evt,'in')"/>
                <use id="zoomminus" xlink:href="#zoomMin" x="42" y="9" onmousedown="handleZoom(evt,'out')"/>
                <use id="reset" xlink:href="#resetDef" x="30" y="36" onmousedown="handleReset()"/>
                <g id="arrowUp" xlink:href="#dirArrow" transform="translate(30 24)" onmousedown="handlePan(0,-1)">
                  <use xlink:href="#rim" fill="#404040">
                        <set attributeName="fill" to="#808080" begin="arrowUp.mouseover" end="arrowUp.mouseout"/>
                  </use>
                  <path fill="none" stroke="white" stroke-width="1.5" d="M0,-3.0v7 M-2.5,-0.5L0,-3.0L2.5,-0.5"/>
                </g>
                <g id="arrowRight" xlink:href="#dirArrow" transform="rotate(90) translate(36 -43)" onmousedown="handlePan(1,0)">
                  <use xlink:href="#rim" fill="#404040">
                        <set attributeName="fill" to="#808080" begin="arrowRight.mouseover" end="arrowRight.mouseout"/>
                  </use>
                  <path fill="none" stroke="white" stroke-width="1.5" d="M0,-3.0v7 M-2.5,-0.5L0,-3.0L2.5,-0.5"/>
                </g>
                <g id="arrowDown" xlink:href="#dirArrow" transform="rotate(180) translate(-30 -48)" onmousedown="handlePan(0,1)">
                  <use xlink:href="#rim" fill="#404040">
                        <set attributeName="fill" to="#808080" begin="arrowDown.mouseover" end="arrowDown.mouseout"/>
                  </use>
                  <path fill="none" stroke="white" stroke-width="1.5" d="M0,-3.0v7 M-2.5,-0.5L0,-3.0L2.5,-0.5"/>
                </g>
                <g id="arrowLeft" xlink:href="#dirArrow" transform="rotate(270) translate(-36 17)" onmousedown="handlePan(-1,0)">
                  <use xlink:href="#rim" fill="#404040">
                        <set attributeName="fill" to="#808080" begin="arrowLeft.mouseover" end="arrowLeft.mouseout"/>
                  </use>
                  <path fill="none" stroke="white" stroke-width="1.5" d="M0,-3.0v7 M-2.5,-0.5L0,-3.0L2.5,-0.5"/>
                </g>
        </g>
        <svg viewBox="0 0 15 15" width="100%" height="30px" preserveAspectRatio="xMaxYMin meet">
         <g id="arrow_out" transform="scale(0.3 0.3)">
          <a xlink:href="Inventory_8cpp__incl_org.svg" target="_base">
           <rect id="button" ry="5" rx="5" y="6" x="6" height="38" width="38"
                fill="#f2f5e9" fill-opacity="0.5" stroke="#606060" stroke-width="1.0"/>
           <path id="arrow"
             d="M 11.500037,31.436501 C 11.940474,20.09759 22.043105,11.32322 32.158766,21.979434 L 37.068811,17.246167 C 37.068811,17.246167 37.088388,32 37.088388,32 L 22.160133,31.978069 C 22.160133,31.978069 26.997745,27.140456 26.997745,27.140456 C 18.528582,18.264221 13.291696,25.230495 11.500037,31.436501 z"
             style="fill:#404040;"/>
          </a>
         </g>
        </svg>
</svg>
