<?xml version="1.0" encoding="UTF-8" standalone="no"?>
<!DOCTYPE svg PUBLIC "-//W3C//DTD SVG 1.1//EN"
 "http://www.w3.org/Graphics/SVG/1.1/DTD/svg11.dtd">
<!-- Generated by graphviz version 2.43.0 (0)
 -->
<!-- Title: Inventory.h Pages: 1 -->
<svg width="549pt" height="84pt"
 viewBox="0.00 0.00 548.50 84.00" xmlns="http://www.w3.org/2000/svg" xmlns:xlink="http://www.w3.org/1999/xlink">
<g id="graph0" class="graph" transform="scale(1 1) rotate(0) translate(4 80)">
<title>Inventory.h</title>
<!-- Node1 -->
<g id="node1" class="node">
<title>Node1</title>
<g id="a_node1"><a xlink:title="The &#39;ConcreteAggregate&#39; class.">
<polygon fill="#bfbfbf" stroke="black" points="225,-56.5 225,-75.5 296,-75.5 296,-56.5 225,-56.5"/>
<text text-anchor="middle" x="260.5" y="-63.5" font-family="Helvetica,sans-Serif" font-size="10.00">Inventory.h</text>
</a>
</g>
</g>
<!-- Node2 -->
<g id="node2" class="node">
<title>Node2</title>
<g id="a_node2"><a xlink:href="InventoryCollection_8h.html" target="_top" xlink:title="The &#39;Aggregate&#39; interface.">
<polygon fill="none" stroke="black" points="0,-0.5 0,-19.5 121,-19.5 121,-0.5 0,-0.5"/>
<text text-anchor="middle" x="60.5" y="-7.5" font-family="Helvetica,sans-Serif" font-size="10.00">InventoryCollection.h</text>
</a>
</g>
</g>
<!-- Node1&#45;&gt;Node2 -->
<g id="edge1" class="edge">
<title>Node1&#45;&gt;Node2</title>
<path fill="none" stroke="midnightblue" d="M228.81,-56.44C194.43,-47.16 139.42,-32.31 101.71,-22.13"/>
<polygon fill="midnightblue" stroke="midnightblue" points="102.61,-18.74 92.04,-19.52 100.78,-25.5 102.61,-18.74"/>
</g>
<!-- Node3 -->
<g id="node3" class="node">
<title>Node3</title>
<g id="a_node3"><a xlink:title=" ">
<polygon fill="none" stroke="#bfbfbf" points="139,-0.5 139,-19.5 186,-19.5 186,-0.5 139,-0.5"/>
<text text-anchor="middle" x="162.5" y="-7.5" font-family="Helvetica,sans-Serif" font-size="10.00">vector</text>
</a>
</g>
</g>
<!-- Node1&#45;&gt;Node3 -->
<g id="edge2" class="edge">
<title>Node1&#45;&gt;Node3</title>
<path fill="none" stroke="midnightblue" d="M244.75,-56.32C229.18,-47.74 205.12,-34.49 187.04,-24.52"/>
<polygon fill="midnightblue" stroke="midnightblue" points="188.65,-21.42 178.21,-19.65 185.28,-27.55 188.65,-21.42"/>
</g>
<!-- Node4 -->
<g id="node4" class="node">
<title>Node4</title>
<g id="a_node4"><a xlink:title=" ">
<polygon fill="none" stroke="#bfbfbf" points="204.5,-0.5 204.5,-19.5 248.5,-19.5 248.5,-0.5 204.5,-0.5"/>
<text text-anchor="middle" x="226.5" y="-7.5" font-family="Helvetica,sans-Serif" font-size="10.00">string</text>
</a>
</g>
</g>
<!-- Node1&#45;&gt;Node4 -->
<g id="edge3" class="edge">
<title>Node1&#45;&gt;Node4</title>
<path fill="none" stroke="midnightblue" d="M254.89,-56.08C250.13,-48.53 243.18,-37.49 237.35,-28.23"/>
<polygon fill="midnightblue" stroke="midnightblue" points="240.3,-26.35 232.01,-19.75 234.38,-30.08 240.3,-26.35"/>
</g>
<!-- Node5 -->
<g id="node5" class="node">
<title>Node5</title>
<g id="a_node5"><a xlink:title=" ">
<polygon fill="none" stroke="#bfbfbf" points="266.5,-0.5 266.5,-19.5 324.5,-19.5 324.5,-0.5 266.5,-0.5"/>
<text text-anchor="middle" x="295.5" y="-7.5" font-family="Helvetica,sans-Serif" font-size="10.00">memory</text>
</a>
</g>
</g>
<!-- Node1&#45;&gt;Node5 -->
<g id="edge4" class="edge">
<title>Node1&#45;&gt;Node5</title>
<path fill="none" stroke="midnightblue" d="M266.28,-56.08C271.17,-48.53 278.33,-37.49 284.33,-28.23"/>
<polygon fill="midnightblue" stroke="midnightblue" points="287.33,-30.05 289.83,-19.75 281.45,-26.24 287.33,-30.05"/>
</g>
<!-- Node6 -->
<g id="node6" class="node">
<title>Node6</title>
<g id="a_node6"><a xlink:title=" ">
<polygon fill="none" stroke="#bfbfbf" points="343,-0.5 343,-19.5 436,-19.5 436,-0.5 343,-0.5"/>
<text text-anchor="middle" x="389.5" y="-7.5" font-family="Helvetica,sans-Serif" font-size="10.00">unordered_map</text>
</a>
</g>
</g>
<!-- Node1&#45;&gt;Node6 -->
<g id="edge5" class="edge">
<title>Node1&#45;&gt;Node6</title>
<path fill="none" stroke="midnightblue" d="M280.94,-56.44C302.17,-47.56 335.6,-33.56 359.75,-23.45"/>
<polygon fill="midnightblue" stroke="midnightblue" points="361.28,-26.61 369.16,-19.52 358.58,-20.15 361.28,-26.61"/>
</g>
<!-- Node7 -->
<g id="node7" class="node">
<title>Node7</title>
<g id="a_node7"><a xlink:title=" ">
<polygon fill="none" stroke="#bfbfbf" points="454.5,-0.5 454.5,-19.5 540.5,-19.5 540.5,-0.5 454.5,-0.5"/>
<text text-anchor="middle" x="497.5" y="-7.5" font-family="Helvetica,sans-Serif" font-size="10.00">unordered_set</text>
</a>
</g>
</g>
<!-- Node1&#45;&gt;Node7 -->
<g id="edge6" class="edge">
<title>Node1&#45;&gt;Node7</title>
<path fill="none" stroke="midnightblue" d="M296.24,-56.86C337.23,-47.52 404.62,-32.16 450,-21.82"/>
<polygon fill="midnightblue" stroke="midnightblue" points="450.93,-25.2 459.9,-19.57 449.37,-18.38 450.93,-25.2"/>
</g>
</g>
</svg>
