<?xml version="1.0" encoding="UTF-8" standalone="no"?>
<!DOCTYPE svg PUBLIC "-//W3C//DTD SVG 1.1//EN"
 "http://www.w3.org/Graphics/SVG/1.1/DTD/svg11.dtd">
<!-- Generated by graphviz version 2.43.0 (0)
 -->
<!-- Title: InventoryIterator.h Pages: 1 -->
<svg width="593pt" height="140pt"
 viewBox="0.00 0.00 593.00 140.00" xmlns="http://www.w3.org/2000/svg" xmlns:xlink="http://www.w3.org/1999/xlink">
<g id="graph0" class="graph" transform="scale(1 1) rotate(0) translate(4 136)">
<title>InventoryIterator.h</title>
<!-- Node1 -->
<g id="node1" class="node">
<title>Node1</title>
<g id="a_node1"><a xlink:title="The &#39;Iterator&#39; interface.">
<polygon fill="#bfbfbf" stroke="black" points="299.5,-112.5 299.5,-131.5 406.5,-131.5 406.5,-112.5 299.5,-112.5"/>
<text text-anchor="middle" x="353" y="-119.5" font-family="Helvetica,sans-Serif" font-size="10.00">InventoryIterator.h</text>
</a>
</g>
</g>
<!-- Node2 -->
<g id="node2" class="node">
<title>Node2</title>
<g id="a_node2"><a xlink:href="ConcreteInventoryIterator_8h.html" target="_top" xlink:title="The &#39;ConcreteIterator&#39; for the Inventory.">
<polygon fill="none" stroke="black" points="75.5,-56.5 75.5,-75.5 226.5,-75.5 226.5,-56.5 75.5,-56.5"/>
<text text-anchor="middle" x="151" y="-63.5" font-family="Helvetica,sans-Serif" font-size="10.00">ConcreteInventoryIterator.h</text>
</a>
</g>
</g>
<!-- Node1&#45;&gt;Node2 -->
<g id="edge1" class="edge">
<title>Node1&#45;&gt;Node2</title>
<path fill="none" stroke="midnightblue" d="M311.21,-109.83C273.07,-99.63 217.52,-84.78 182.86,-75.52"/>
<polygon fill="midnightblue" stroke="midnightblue" points="310.43,-113.24 320.99,-112.44 312.24,-106.48 310.43,-113.24"/>
</g>
<!-- Node5 -->
<g id="node5" class="node">
<title>Node5</title>
<g id="a_node5"><a xlink:href="CSVAdapter_8cpp.html" target="_top" xlink:title="Implements the CSVAdapter behaviour defined in the corresponding header.">
<polygon fill="none" stroke="black" points="244.5,-56.5 244.5,-75.5 337.5,-75.5 337.5,-56.5 244.5,-56.5"/>
<text text-anchor="middle" x="291" y="-63.5" font-family="Helvetica,sans-Serif" font-size="10.00">CSVAdapter.cpp</text>
</a>
</g>
</g>
<!-- Node1&#45;&gt;Node5 -->
<g id="edge4" class="edge">
<title>Node1&#45;&gt;Node5</title>
<path fill="none" stroke="midnightblue" d="M335.25,-105.54C324.19,-95.91 310.37,-83.87 301.14,-75.83"/>
<polygon fill="midnightblue" stroke="midnightblue" points="333.2,-108.4 343.04,-112.32 337.8,-103.12 333.2,-108.4"/>
</g>
<!-- Node6 -->
<g id="node6" class="node">
<title>Node6</title>
<g id="a_node6"><a xlink:href="InventoryIterator_8cpp.html" target="_top" xlink:title="Implements the InventoryIterator behaviour defined in the corresponding header.">
<polygon fill="none" stroke="black" points="355.5,-56.5 355.5,-75.5 474.5,-75.5 474.5,-56.5 355.5,-56.5"/>
<text text-anchor="middle" x="415" y="-63.5" font-family="Helvetica,sans-Serif" font-size="10.00">InventoryIterator.cpp</text>
</a>
</g>
</g>
<!-- Node1&#45;&gt;Node6 -->
<g id="edge5" class="edge">
<title>Node1&#45;&gt;Node6</title>
<path fill="none" stroke="midnightblue" d="M370.75,-105.54C381.81,-95.91 395.63,-83.87 404.86,-75.83"/>
<polygon fill="midnightblue" stroke="midnightblue" points="368.2,-103.12 362.96,-112.32 372.8,-108.4 368.2,-103.12"/>
</g>
<!-- Node7 -->
<g id="node7" class="node">
<title>Node7</title>
<g id="a_node7"><a xlink:href="TXTAdapter_8cpp.html" target="_top" xlink:title="Implements the TXTAdapter behaviour defined in the corresponding header.">
<polygon fill="none" stroke="black" points="493,-56.5 493,-75.5 585,-75.5 585,-56.5 493,-56.5"/>
<text text-anchor="middle" x="539" y="-63.5" font-family="Helvetica,sans-Serif" font-size="10.00">TXTAdapter.cpp</text>
</a>
</g>
</g>
<!-- Node1&#45;&gt;Node7 -->
<g id="edge6" class="edge">
<title>Node1&#45;&gt;Node7</title>
<path fill="none" stroke="midnightblue" d="M392.38,-109.57C427.47,-99.38 478.02,-84.7 509.67,-75.52"/>
<polygon fill="midnightblue" stroke="midnightblue" points="391.1,-106.29 382.47,-112.44 393.05,-113.02 391.1,-106.29"/>
</g>
<!-- Node3 -->
<g id="node3" class="node">
<title>Node3</title>
<g id="a_node3"><a xlink:href="ConcreteInventoryIterator_8cpp.html" target="_top" xlink:title="Implements the ConcreteInventoryIterator behaviour defined in the corresponding header.">
<polygon fill="none" stroke="black" points="0,-0.5 0,-19.5 162,-19.5 162,-0.5 0,-0.5"/>
<text text-anchor="middle" x="81" y="-7.5" font-family="Helvetica,sans-Serif" font-size="10.00">ConcreteInventoryIterator.cpp</text>
</a>
</g>
</g>
<!-- Node2&#45;&gt;Node3 -->
<g id="edge2" class="edge">
<title>Node2&#45;&gt;Node3</title>
<path fill="none" stroke="midnightblue" d="M131.69,-50.1C119.09,-40.38 103.07,-28.03 92.45,-19.83"/>
<polygon fill="midnightblue" stroke="midnightblue" points="129.7,-52.99 139.75,-56.32 133.97,-47.44 129.7,-52.99"/>
</g>
<!-- Node4 -->
<g id="node4" class="node">
<title>Node4</title>
<g id="a_node4"><a xlink:href="Inventory_8cpp.html" target="_top" xlink:title="Implements the Inventory behaviour defined in the corresponding header.">
<polygon fill="none" stroke="black" points="180,-0.5 180,-19.5 262,-19.5 262,-0.5 180,-0.5"/>
<text text-anchor="middle" x="221" y="-7.5" font-family="Helvetica,sans-Serif" font-size="10.00">Inventory.cpp</text>
</a>
</g>
</g>
<!-- Node2&#45;&gt;Node4 -->
<g id="edge3" class="edge">
<title>Node2&#45;&gt;Node4</title>
<path fill="none" stroke="midnightblue" d="M170.31,-50.1C182.91,-40.38 198.93,-28.03 209.55,-19.83"/>
<polygon fill="midnightblue" stroke="midnightblue" points="168.03,-47.44 162.25,-56.32 172.3,-52.99 168.03,-47.44"/>
</g>
</g>
</svg>
