<?xml version="1.0" encoding="UTF-8" standalone="no"?>
<!DOCTYPE svg PUBLIC "-//W3C//DTD SVG 1.1//EN"
 "http://www.w3.org/Graphics/SVG/1.1/DTD/svg11.dtd">
<!-- Generated by graphviz version 2.43.0 (0)
 -->
<!-- Title: LiquidFertilizer.h Pages: 1 -->
<svg width="232pt" height="84pt"
 viewBox="0.00 0.00 231.50 84.00" xmlns="http://www.w3.org/2000/svg" xmlns:xlink="http://www.w3.org/1999/xlink">
<g id="graph0" class="graph" transform="scale(1 1) rotate(0) translate(4 80)">
<title>LiquidFertilizer.h</title>
<!-- Node1 -->
<g id="node1" class="node">
<title>Node1</title>
<g id="a_node1"><a xlink:title="Concrete strategy for liquid fertilizing.">
<polygon fill="#bfbfbf" stroke="black" points="65.5,-56.5 65.5,-75.5 162.5,-75.5 162.5,-56.5 65.5,-56.5"/>
<text text-anchor="middle" x="114" y="-63.5" font-family="Helvetica,sans-Serif" font-size="10.00">LiquidFertilizer.h</text>
</a>
</g>
</g>
<!-- Node2 -->
<g id="node2" class="node">
<title>Node2</title>
<g id="a_node2"><a xlink:href="LiquidFertilizer_8cpp.html" target="_top" xlink:title="Implements the LiquidFertilizer behaviour defined in the corresponding header.">
<polygon fill="none" stroke="black" points="0,-0.5 0,-19.5 108,-19.5 108,-0.5 0,-0.5"/>
<text text-anchor="middle" x="54" y="-7.5" font-family="Helvetica,sans-Serif" font-size="10.00">LiquidFertilizer.cpp</text>
</a>
</g>
</g>
<!-- Node1&#45;&gt;Node2 -->
<g id="edge1" class="edge">
<title>Node1&#45;&gt;Node2</title>
<path fill="none" stroke="midnightblue" d="M96.82,-49.54C86.12,-39.91 72.74,-27.87 63.82,-19.83"/>
<polygon fill="midnightblue" stroke="midnightblue" points="94.59,-52.24 104.36,-56.32 99.27,-47.03 94.59,-52.24"/>
</g>
<!-- Node3 -->
<g id="node3" class="node">
<title>Node3</title>
<g id="a_node3"><a xlink:href="SalesFacade_8cpp.html" target="_top" xlink:title="Implements the SalesFacade behaviour defined in the corresponding header.">
<polygon fill="none" stroke="black" points="126.5,-0.5 126.5,-19.5 223.5,-19.5 223.5,-0.5 126.5,-0.5"/>
<text text-anchor="middle" x="175" y="-7.5" font-family="Helvetica,sans-Serif" font-size="10.00">SalesFacade.cpp</text>
</a>
</g>
</g>
<!-- Node1&#45;&gt;Node3 -->
<g id="edge2" class="edge">
<title>Node1&#45;&gt;Node3</title>
<path fill="none" stroke="midnightblue" d="M131.47,-49.54C142.34,-39.91 155.94,-27.87 165.02,-19.83"/>
<polygon fill="midnightblue" stroke="midnightblue" points="128.97,-47.07 123.8,-56.32 133.61,-52.32 128.97,-47.07"/>
</g>
</g>
</svg>
