<?xml version="1.0" encoding="UTF-8" standalone="no"?>
<!DOCTYPE svg PUBLIC "-//W3C//DTD SVG 1.1//EN"
 "http://www.w3.org/Graphics/SVG/1.1/DTD/svg11.dtd">
<!-- Generated by graphviz version 2.43.0 (0)
 -->
<!-- Title: MatureState.cpp Pages: 1 -->
<!--zoomable 308 -->
<svg id="main" version="1.1" xmlns="http://www.w3.org/2000/svg" xmlns:xlink="http://www.w3.org/1999/xlink" xml:space="preserve" onload="init(evt)">
<style type="text/css"><![CDATA[
.edge:hover path { stroke: red; }
.edge:hover polygon { stroke: red; fill: red; }
]]></style>
<script type="text/javascript"><![CDATA[
var edges = document.getElementsByTagName('g');
if (edges && edges.length) {
  for (var i=0;i<edges.length;i++) {
    if (edges[i].id.substr(0,4)=='edge') {
      edges[i].setAttribute('class','edge');
    }
  }
}
]]></script>
        <defs>
                <circle id="rim" cx="0" cy="0" r="7"/>
                <circle id="rim2" cx="0" cy="0" r="3.5"/>
                <g id="zoomPlus">
                        <use xlink:href="#rim" fill="#404040">
                                <set attributeName="fill" to="#808080" begin="zoomplus.mouseover" end="zoomplus.mouseout"/>
                        </use>
                        <path d="M-4,0h8M0,-4v8" fill="none" stroke="white" stroke-width="1.5" pointer-events="none"/>
                </g>
                <g id="zoomMin">
                        <use xlink:href="#rim" fill="#404040">
                                <set attributeName="fill" to="#808080" begin="zoomminus.mouseover" end="zoomminus.mouseout"/>
                        </use>
                        <path d="M-4,0h8" fill="none" stroke="white" stroke-width="1.5" pointer-events="none"/>
                </g>
                <g id="dirArrow">
                        <path fill="none" stroke="white" stroke-width="1.5" d="M0,-3.0v7 M-2.5,-0.5L0,-3.0L2.5,-0.5"/>
                </g>
               <g id="resetDef">
                       <use xlink:href="#rim2" fill="#404040">
                               <set attributeName="fill" to="#808080" begin="reset.mouseover" end="reset.mouseout"/>
                       </use>
               </g>
        </defs>

<script type="text/javascript">
var viewWidth = 816;
var viewHeight = 308;
var sectionId = 'dynsection-0';
</script>
<script xlink:href="svgpan.js"/>
<svg id="graph" class="graph">
<g id="viewport">
<title>MatureState.cpp</title>
<!-- Node1 -->
<g id="node1" class="node">
<title>Node1</title>
<g id="a_node1"><a xlink:title="Implements the MatureState behaviour defined in the corresponding header.">
<polygon fill="#bfbfbf" stroke="black" points="396.5,-280.5 396.5,-299.5 493.5,-299.5 493.5,-280.5 396.5,-280.5"/>
<text text-anchor="middle" x="445" y="-287.5" font-family="Helvetica,sans-Serif" font-size="10.00">MatureState.cpp</text>
</a>
</g>
</g>
<!-- Node2 -->
<g id="node2" class="node">
<title>Node2</title>
<g id="a_node2"><a xlink:href="MatureState_8h.html" target="_top" xlink:title="Concrete state representing a mature plant (ready for sale).">
<polygon fill="none" stroke="black" points="306.5,-168.5 306.5,-187.5 439.5,-187.5 439.5,-168.5 306.5,-168.5"/>
<text text-anchor="middle" x="373" y="-175.5" font-family="Helvetica,sans-Serif" font-size="10.00">../include/MatureState.h</text>
</a>
</g>
</g>
<!-- Node1&#45;&gt;Node2 -->
<g id="edge1" class="edge">
<title>Node1&#45;&gt;Node2</title>
<path fill="none" stroke="midnightblue" d="M439.35,-280.37C427.47,-262.22 399.71,-219.8 384.12,-195.99"/>
<polygon fill="midnightblue" stroke="midnightblue" points="387.03,-194.04 378.62,-187.59 381.17,-197.88 387.03,-194.04"/>
</g>
<!-- Node5 -->
<g id="node5" class="node">
<title>Node5</title>
<g id="a_node5"><a xlink:href="DeadState_8h.html" target="_top" xlink:title="Concrete state representing a dead plant.">
<polygon fill="none" stroke="black" points="164,-168.5 164,-187.5 288,-187.5 288,-168.5 164,-168.5"/>
<text text-anchor="middle" x="226" y="-175.5" font-family="Helvetica,sans-Serif" font-size="10.00">../include/DeadState.h</text>
</a>
</g>
</g>
<!-- Node1&#45;&gt;Node5 -->
<g id="edge5" class="edge">
<title>Node1&#45;&gt;Node5</title>
<path fill="none" stroke="midnightblue" d="M427.82,-280.37C389.68,-261.21 297.74,-215.04 252.31,-192.22"/>
<polygon fill="midnightblue" stroke="midnightblue" points="253.61,-188.95 243.1,-187.59 250.47,-195.21 253.61,-188.95"/>
</g>
<!-- Node6 -->
<g id="node6" class="node">
<title>Node6</title>
<g id="a_node6"><a xlink:href="PlantInstance_8h.html" target="_top" xlink:title="Represents a single, physical plant in the nursery.">
<polygon fill="none" stroke="black" points="457.5,-168.5 457.5,-187.5 596.5,-187.5 596.5,-168.5 457.5,-168.5"/>
<text text-anchor="middle" x="527" y="-175.5" font-family="Helvetica,sans-Serif" font-size="10.00">../include/PlantInstance.h</text>
</a>
</g>
</g>
<!-- Node1&#45;&gt;Node6 -->
<g id="edge8" class="edge">
<title>Node1&#45;&gt;Node6</title>
<path fill="none" stroke="midnightblue" d="M445.74,-280.22C447.23,-266.94 451.61,-241.45 464,-224 473.27,-210.95 487.55,-200.3 500.17,-192.65"/>
<polygon fill="midnightblue" stroke="midnightblue" points="502.03,-195.61 508.97,-187.61 498.55,-189.54 502.03,-195.61"/>
</g>
<!-- Node8 -->
<g id="node8" class="node">
<title>Node8</title>
<g id="a_node8"><a xlink:title=" ">
<polygon fill="none" stroke="#bfbfbf" points="651,-56.5 651,-75.5 709,-75.5 709,-56.5 651,-56.5"/>
<text text-anchor="middle" x="680" y="-63.5" font-family="Helvetica,sans-Serif" font-size="10.00">memory</text>
</a>
</g>
</g>
<!-- Node1&#45;&gt;Node8 -->
<g id="edge27" class="edge">
<title>Node1&#45;&gt;Node8</title>
<path fill="none" stroke="midnightblue" d="M493.61,-282.79C582.47,-270.28 765.22,-238.84 800,-188 830.74,-143.07 755.3,-100.22 710.43,-79.67"/>
<polygon fill="midnightblue" stroke="midnightblue" points="711.66,-76.38 701.1,-75.51 708.81,-82.78 711.66,-76.38"/>
</g>
<!-- Node13 -->
<g id="node13" class="node">
<title>Node13</title>
<g id="a_node13"><a xlink:href="PlantStateThresholds_8h.html" target="_top" xlink:title="Centralised constants describing lifecycle transition boundaries.">
<polygon fill="none" stroke="black" points="615,-168.5 615,-187.5 791,-187.5 791,-168.5 615,-168.5"/>
<text text-anchor="middle" x="703" y="-175.5" font-family="Helvetica,sans-Serif" font-size="10.00">../include/PlantStateThresholds.h</text>
</a>
</g>
</g>
<!-- Node1&#45;&gt;Node13 -->
<g id="edge20" class="edge">
<title>Node1&#45;&gt;Node13</title>
<path fill="none" stroke="midnightblue" d="M493.83,-283.38C532.02,-277.51 585.58,-265.96 628,-244 652.02,-231.57 674.77,-209.95 688.79,-195.08"/>
<polygon fill="midnightblue" stroke="midnightblue" points="691.45,-197.36 695.63,-187.62 686.29,-192.63 691.45,-197.36"/>
</g>
<!-- Node14 -->
<g id="node14" class="node">
<title>Node14</title>
<g id="a_node14"><a xlink:href="PlantStateUtils_8h.html" target="_top" xlink:title="Common helper functions shared by lifecycle state implementations.">
<polygon fill="none" stroke="black" points="473,-224.5 473,-243.5 619,-243.5 619,-224.5 473,-224.5"/>
<text text-anchor="middle" x="546" y="-231.5" font-family="Helvetica,sans-Serif" font-size="10.00">../include/PlantStateUtils.h</text>
</a>
</g>
</g>
<!-- Node1&#45;&gt;Node14 -->
<g id="edge21" class="edge">
<title>Node1&#45;&gt;Node14</title>
<path fill="none" stroke="midnightblue" d="M461.23,-280.32C477.35,-271.7 502.3,-258.36 520.96,-248.39"/>
<polygon fill="midnightblue" stroke="midnightblue" points="522.64,-251.46 529.81,-243.65 519.34,-245.28 522.64,-251.46"/>
</g>
<!-- Node15 -->
<g id="node15" class="node">
<title>Node15</title>
<g id="a_node15"><a xlink:href="WitheringState_8h.html" target="_top" xlink:title="Concrete state representing a withering plant (needs care).">
<polygon fill="none" stroke="black" points="0,-168.5 0,-187.5 146,-187.5 146,-168.5 0,-168.5"/>
<text text-anchor="middle" x="73" y="-175.5" font-family="Helvetica,sans-Serif" font-size="10.00">../include/WitheringState.h</text>
</a>
</g>
</g>
<!-- Node1&#45;&gt;Node15 -->
<g id="edge24" class="edge">
<title>Node1&#45;&gt;Node15</title>
<path fill="none" stroke="midnightblue" d="M416.12,-280.46C349.84,-260.86 186.79,-212.65 111.83,-190.48"/>
<polygon fill="midnightblue" stroke="midnightblue" points="112.44,-187.01 101.86,-187.53 110.46,-193.73 112.44,-187.01"/>
</g>
<!-- Node3 -->
<g id="node3" class="node">
<title>Node3</title>
<g id="a_node3"><a xlink:href="PlantState_8h.html" target="_top" xlink:title="Abstract base class describing the lifecycle state of a plant.">
<polygon fill="none" stroke="black" points="262,-112.5 262,-131.5 338,-131.5 338,-112.5 262,-112.5"/>
<text text-anchor="middle" x="300" y="-119.5" font-family="Helvetica,sans-Serif" font-size="10.00">PlantState.h</text>
</a>
</g>
</g>
<!-- Node2&#45;&gt;Node3 -->
<g id="edge2" class="edge">
<title>Node2&#45;&gt;Node3</title>
<path fill="none" stroke="midnightblue" d="M361.27,-168.32C350.16,-160.11 333.26,-147.6 320.02,-137.81"/>
<polygon fill="midnightblue" stroke="midnightblue" points="322.06,-134.97 311.94,-131.83 317.9,-140.59 322.06,-134.97"/>
</g>
<!-- Node4 -->
<g id="node4" class="node">
<title>Node4</title>
<g id="a_node4"><a xlink:title=" ">
<polygon fill="none" stroke="#bfbfbf" points="344,-0.5 344,-19.5 388,-19.5 388,-0.5 344,-0.5"/>
<text text-anchor="middle" x="366" y="-7.5" font-family="Helvetica,sans-Serif" font-size="10.00">string</text>
</a>
</g>
</g>
<!-- Node2&#45;&gt;Node4 -->
<g id="edge4" class="edge">
<title>Node2&#45;&gt;Node4</title>
<path fill="none" stroke="midnightblue" d="M372.62,-168.08C371.52,-141.95 368.29,-65.21 366.78,-29.58"/>
<polygon fill="midnightblue" stroke="midnightblue" points="370.28,-29.41 366.36,-19.57 363.29,-29.71 370.28,-29.41"/>
</g>
<!-- Node3&#45;&gt;Node4 -->
<g id="edge3" class="edge">
<title>Node3&#45;&gt;Node4</title>
<path fill="none" stroke="midnightblue" d="M305.18,-112.37C316.02,-94.3 341.29,-52.18 355.62,-28.31"/>
<polygon fill="midnightblue" stroke="midnightblue" points="358.7,-29.97 360.85,-19.59 352.7,-26.37 358.7,-29.97"/>
</g>
<!-- Node5&#45;&gt;Node3 -->
<g id="edge6" class="edge">
<title>Node5&#45;&gt;Node3</title>
<path fill="none" stroke="midnightblue" d="M237.89,-168.32C249.15,-160.11 266.29,-147.6 279.71,-137.81"/>
<polygon fill="midnightblue" stroke="midnightblue" points="281.88,-140.56 287.89,-131.83 277.75,-134.9 281.88,-140.56"/>
</g>
<!-- Node5&#45;&gt;Node4 -->
<g id="edge7" class="edge">
<title>Node5&#45;&gt;Node4</title>
<path fill="none" stroke="midnightblue" d="M228.24,-168.39C231.91,-155.34 240.12,-130.13 253,-112 278.78,-75.7 319.85,-43.26 344.74,-25.44"/>
<polygon fill="midnightblue" stroke="midnightblue" points="346.94,-28.16 353.11,-19.55 342.92,-22.44 346.94,-28.16"/>
</g>
<!-- Node6&#45;&gt;Node3 -->
<g id="edge12" class="edge">
<title>Node6&#45;&gt;Node3</title>
<path fill="none" stroke="midnightblue" d="M491.03,-168.44C451.68,-159.08 388.51,-144.06 345.69,-133.87"/>
<polygon fill="midnightblue" stroke="midnightblue" points="346.34,-130.43 335.8,-131.52 344.72,-137.24 346.34,-130.43"/>
</g>
<!-- Node6&#45;&gt;Node4 -->
<g id="edge19" class="edge">
<title>Node6&#45;&gt;Node4</title>
<path fill="none" stroke="midnightblue" d="M491.06,-168.43C469.13,-161.64 441.79,-150.2 423,-132 407.4,-116.89 384.17,-59.27 372.79,-29.33"/>
<polygon fill="midnightblue" stroke="midnightblue" points="375.95,-27.81 369.16,-19.67 369.4,-30.27 375.95,-27.81"/>
</g>
<!-- Node7 -->
<g id="node7" class="node">
<title>Node7</title>
<g id="a_node7"><a xlink:href="GreenhouseComponent_8h.html" target="_top" xlink:title="The abstract &#39;Component&#39; interface for the Composite pattern.">
<polygon fill="none" stroke="black" points="512,-112.5 512,-131.5 652,-131.5 652,-112.5 512,-112.5"/>
<text text-anchor="middle" x="582" y="-119.5" font-family="Helvetica,sans-Serif" font-size="10.00">GreenhouseComponent.h</text>
</a>
</g>
</g>
<!-- Node6&#45;&gt;Node7 -->
<g id="edge9" class="edge">
<title>Node6&#45;&gt;Node7</title>
<path fill="none" stroke="midnightblue" d="M536.08,-168.08C544.17,-160.14 556.2,-148.34 565.91,-138.8"/>
<polygon fill="midnightblue" stroke="midnightblue" points="568.4,-141.25 573.09,-131.75 563.5,-136.26 568.4,-141.25"/>
</g>
<!-- Node6&#45;&gt;Node8 -->
<g id="edge18" class="edge">
<title>Node6&#45;&gt;Node8</title>
<path fill="none" stroke="midnightblue" d="M591.16,-168.43C615.91,-162.1 642.63,-151.11 661,-132 672.83,-119.69 677.35,-100.44 679.05,-86.08"/>
<polygon fill="midnightblue" stroke="midnightblue" points="682.56,-86.08 679.89,-75.83 675.59,-85.51 682.56,-86.08"/>
</g>
<!-- Node9 -->
<g id="node9" class="node">
<title>Node9</title>
<g id="a_node9"><a xlink:href="Subject_8h.html" target="_top" xlink:title="Declares the Subject base that manages observer subscriptions.">
<polygon fill="none" stroke="black" points="432,-112.5 432,-131.5 494,-131.5 494,-112.5 432,-112.5"/>
<text text-anchor="middle" x="463" y="-119.5" font-family="Helvetica,sans-Serif" font-size="10.00">Subject.h</text>
</a>
</g>
</g>
<!-- Node6&#45;&gt;Node9 -->
<g id="edge13" class="edge">
<title>Node6&#45;&gt;Node9</title>
<path fill="none" stroke="midnightblue" d="M516.72,-168.32C507.16,-160.26 492.72,-148.08 481.22,-138.37"/>
<polygon fill="midnightblue" stroke="midnightblue" points="483.37,-135.61 473.47,-131.83 478.86,-140.96 483.37,-135.61"/>
</g>
<!-- Node7&#45;&gt;Node4 -->
<g id="edge11" class="edge">
<title>Node7&#45;&gt;Node4</title>
<path fill="none" stroke="midnightblue" d="M581.79,-112.42C580.97,-98.47 577.25,-70.91 561,-56 537.51,-34.44 447.47,-20.67 398.38,-14.59"/>
<polygon fill="midnightblue" stroke="midnightblue" points="398.63,-11.1 388.28,-13.38 397.79,-18.05 398.63,-11.1"/>
</g>
<!-- Node7&#45;&gt;Node8 -->
<g id="edge10" class="edge">
<title>Node7&#45;&gt;Node8</title>
<path fill="none" stroke="midnightblue" d="M597.75,-112.32C613.32,-103.74 637.38,-90.49 655.46,-80.52"/>
<polygon fill="midnightblue" stroke="midnightblue" points="657.22,-83.55 664.29,-75.65 653.85,-77.42 657.22,-83.55"/>
</g>
<!-- Node10 -->
<g id="node10" class="node">
<title>Node10</title>
<g id="a_node10"><a xlink:title=" ">
<polygon fill="none" stroke="#bfbfbf" points="432,-56.5 432,-75.5 464,-75.5 464,-56.5 432,-56.5"/>
<text text-anchor="middle" x="448" y="-63.5" font-family="Helvetica,sans-Serif" font-size="10.00">list</text>
</a>
</g>
</g>
<!-- Node9&#45;&gt;Node10 -->
<g id="edge14" class="edge">
<title>Node9&#45;&gt;Node10</title>
<path fill="none" stroke="midnightblue" d="M460.52,-112.08C458.51,-104.85 455.61,-94.41 453.11,-85.4"/>
<polygon fill="midnightblue" stroke="midnightblue" points="456.48,-84.45 450.43,-75.75 449.74,-86.32 456.48,-84.45"/>
</g>
<!-- Node11 -->
<g id="node11" class="node">
<title>Node11</title>
<g id="a_node11"><a xlink:href="Observer_8h.html" target="_top" xlink:title="Declares the Observer contract and shared event payload.">
<polygon fill="none" stroke="black" points="482.5,-56.5 482.5,-75.5 551.5,-75.5 551.5,-56.5 482.5,-56.5"/>
<text text-anchor="middle" x="517" y="-63.5" font-family="Helvetica,sans-Serif" font-size="10.00">Observer.h</text>
</a>
</g>
</g>
<!-- Node9&#45;&gt;Node11 -->
<g id="edge15" class="edge">
<title>Node9&#45;&gt;Node11</title>
<path fill="none" stroke="midnightblue" d="M471.92,-112.08C479.78,-104.22 491.43,-92.57 500.92,-83.08"/>
<polygon fill="midnightblue" stroke="midnightblue" points="503.65,-85.3 508.25,-75.75 498.7,-80.35 503.65,-85.3"/>
</g>
<!-- Node11&#45;&gt;Node4 -->
<g id="edge17" class="edge">
<title>Node11&#45;&gt;Node4</title>
<path fill="none" stroke="midnightblue" d="M493.07,-56.44C467.33,-47.24 426.28,-32.56 397.83,-22.38"/>
<polygon fill="midnightblue" stroke="midnightblue" points="398.93,-19.06 388.34,-18.99 396.58,-25.65 398.93,-19.06"/>
</g>
<!-- Node12 -->
<g id="node12" class="node">
<title>Node12</title>
<g id="a_node12"><a xlink:title=" ">
<polygon fill="none" stroke="#bfbfbf" points="489,-0.5 489,-19.5 545,-19.5 545,-0.5 489,-0.5"/>
<text text-anchor="middle" x="517" y="-7.5" font-family="Helvetica,sans-Serif" font-size="10.00">optional</text>
</a>
</g>
</g>
<!-- Node11&#45;&gt;Node12 -->
<g id="edge16" class="edge">
<title>Node11&#45;&gt;Node12</title>
<path fill="none" stroke="midnightblue" d="M517,-56.08C517,-49.01 517,-38.86 517,-29.99"/>
<polygon fill="midnightblue" stroke="midnightblue" points="520.5,-29.75 517,-19.75 513.5,-29.75 520.5,-29.75"/>
</g>
<!-- Node14&#45;&gt;Node6 -->
<g id="edge23" class="edge">
<title>Node14&#45;&gt;Node6</title>
<path fill="none" stroke="midnightblue" d="M542.86,-224.08C540.32,-216.85 536.64,-206.41 533.47,-197.4"/>
<polygon fill="midnightblue" stroke="midnightblue" points="536.7,-196.02 530.08,-187.75 530.1,-198.35 536.7,-196.02"/>
</g>
<!-- Node14&#45;&gt;Node13 -->
<g id="edge22" class="edge">
<title>Node14&#45;&gt;Node13</title>
<path fill="none" stroke="midnightblue" d="M570.88,-224.44C597.29,-215.36 639.22,-200.94 668.74,-190.78"/>
<polygon fill="midnightblue" stroke="midnightblue" points="669.92,-194.08 678.24,-187.52 667.64,-187.46 669.92,-194.08"/>
</g>
<!-- Node15&#45;&gt;Node3 -->
<g id="edge25" class="edge">
<title>Node15&#45;&gt;Node3</title>
<path fill="none" stroke="midnightblue" d="M108.97,-168.44C148.32,-159.08 211.49,-144.06 254.31,-133.87"/>
<polygon fill="midnightblue" stroke="midnightblue" points="255.28,-137.24 264.2,-131.52 253.66,-130.43 255.28,-137.24"/>
</g>
<!-- Node15&#45;&gt;Node4 -->
<g id="edge26" class="edge">
<title>Node15&#45;&gt;Node4</title>
<path fill="none" stroke="midnightblue" d="M87.69,-168.36C121.82,-148.33 209.18,-97.27 283,-56 302.38,-45.17 324.48,-33.2 341,-24.34"/>
<polygon fill="midnightblue" stroke="midnightblue" points="342.86,-27.31 350.02,-19.5 339.55,-21.14 342.86,-27.31"/>
</g>
</g>
</svg>
        <g id="navigator" transform="translate(0 0)" fill="#404254">
                <rect fill="#f2f5e9" fill-opacity="0.5" stroke="#606060" stroke-width=".5" x="0" y="0" width="60" height="60"/>
                <use id="zoomplus" xlink:href="#zoomPlus" x="17" y="9" onmousedown="handleZoom(evt,'in')"/>
                <use id="zoomminus" xlink:href="#zoomMin" x="42" y="9" onmousedown="handleZoom(evt,'out')"/>
                <use id="reset" xlink:href="#resetDef" x="30" y="36" onmousedown="handleReset()"/>
                <g id="arrowUp" xlink:href="#dirArrow" transform="translate(30 24)" onmousedown="handlePan(0,-1)">
                  <use xlink:href="#rim" fill="#404040">
                        <set attributeName="fill" to="#808080" begin="arrowUp.mouseover" end="arrowUp.mouseout"/>
                  </use>
                  <path fill="none" stroke="white" stroke-width="1.5" d="M0,-3.0v7 M-2.5,-0.5L0,-3.0L2.5,-0.5"/>
                </g>
                <g id="arrowRight" xlink:href="#dirArrow" transform="rotate(90) translate(36 -43)" onmousedown="handlePan(1,0)">
                  <use xlink:href="#rim" fill="#404040">
                        <set attributeName="fill" to="#808080" begin="arrowRight.mouseover" end="arrowRight.mouseout"/>
                  </use>
                  <path fill="none" stroke="white" stroke-width="1.5" d="M0,-3.0v7 M-2.5,-0.5L0,-3.0L2.5,-0.5"/>
                </g>
                <g id="arrowDown" xlink:href="#dirArrow" transform="rotate(180) translate(-30 -48)" onmousedown="handlePan(0,1)">
                  <use xlink:href="#rim" fill="#404040">
                        <set attributeName="fill" to="#808080" begin="arrowDown.mouseover" end="arrowDown.mouseout"/>
                  </use>
                  <path fill="none" stroke="white" stroke-width="1.5" d="M0,-3.0v7 M-2.5,-0.5L0,-3.0L2.5,-0.5"/>
                </g>
                <g id="arrowLeft" xlink:href="#dirArrow" transform="rotate(270) translate(-36 17)" onmousedown="handlePan(-1,0)">
                  <use xlink:href="#rim" fill="#404040">
                        <set attributeName="fill" to="#808080" begin="arrowLeft.mouseover" end="arrowLeft.mouseout"/>
                  </use>
                  <path fill="none" stroke="white" stroke-width="1.5" d="M0,-3.0v7 M-2.5,-0.5L0,-3.0L2.5,-0.5"/>
                </g>
        </g>
        <svg viewBox="0 0 15 15" width="100%" height="30px" preserveAspectRatio="xMaxYMin meet">
         <g id="arrow_out" transform="scale(0.3 0.3)">
          <a xlink:href="MatureState_8cpp__incl_org.svg" target="_base">
           <rect id="button" ry="5" rx="5" y="6" x="6" height="38" width="38"
                fill="#f2f5e9" fill-opacity="0.5" stroke="#606060" stroke-width="1.0"/>
           <path id="arrow"
             d="M 11.500037,31.436501 C 11.940474,20.09759 22.043105,11.32322 32.158766,21.979434 L 37.068811,17.246167 C 37.068811,17.246167 37.088388,32 37.088388,32 L 22.160133,31.978069 C 22.160133,31.978069 26.997745,27.140456 26.997745,27.140456 C 18.528582,18.264221 13.291696,25.230495 11.500037,31.436501 z"
             style="fill:#404040;"/>
          </a>
         </g>
        </svg>
</svg>
