<?xml version="1.0" encoding="UTF-8" standalone="no"?>
<!DOCTYPE svg PUBLIC "-//W3C//DTD SVG 1.1//EN"
 "http://www.w3.org/Graphics/SVG/1.1/DTD/svg11.dtd">
<!-- Generated by graphviz version 2.43.0 (0)
 -->
<!-- Title: NurseryMediator.h Pages: 1 -->
<svg width="205pt" height="140pt"
 viewBox="0.00 0.00 205.00 140.00" xmlns="http://www.w3.org/2000/svg" xmlns:xlink="http://www.w3.org/1999/xlink">
<g id="graph0" class="graph" transform="scale(1 1) rotate(0) translate(4 136)">
<title>NurseryMediator.h</title>
<!-- Node1 -->
<g id="node1" class="node">
<title>Node1</title>
<g id="a_node1"><a xlink:title="The &#39;ConcreteMediator&#39; implementation.">
<polygon fill="#bfbfbf" stroke="black" points="68,-112.5 68,-131.5 175,-131.5 175,-112.5 68,-112.5"/>
<text text-anchor="middle" x="121.5" y="-119.5" font-family="Helvetica,sans-Serif" font-size="10.00">NurseryMediator.h</text>
</a>
</g>
</g>
<!-- Node2 -->
<g id="node2" class="node">
<title>Node2</title>
<g id="a_node2"><a xlink:href="FloorMediator_8h.html" target="_top" xlink:title="The &#39;Mediator&#39; interface.">
<polygon fill="none" stroke="black" points="0,-56.5 0,-75.5 93,-75.5 93,-56.5 0,-56.5"/>
<text text-anchor="middle" x="46.5" y="-63.5" font-family="Helvetica,sans-Serif" font-size="10.00">FloorMediator.h</text>
</a>
</g>
</g>
<!-- Node1&#45;&gt;Node2 -->
<g id="edge1" class="edge">
<title>Node1&#45;&gt;Node2</title>
<path fill="none" stroke="midnightblue" d="M109.45,-112.32C98.04,-104.11 80.67,-91.6 67.07,-81.81"/>
<polygon fill="midnightblue" stroke="midnightblue" points="68.93,-78.84 58.77,-75.83 64.84,-84.52 68.93,-78.84"/>
</g>
<!-- Node3 -->
<g id="node3" class="node">
<title>Node3</title>
<g id="a_node3"><a xlink:title=" ">
<polygon fill="none" stroke="#bfbfbf" points="61.5,-0.5 61.5,-19.5 105.5,-19.5 105.5,-0.5 61.5,-0.5"/>
<text text-anchor="middle" x="83.5" y="-7.5" font-family="Helvetica,sans-Serif" font-size="10.00">string</text>
</a>
</g>
</g>
<!-- Node1&#45;&gt;Node3 -->
<g id="edge4" class="edge">
<title>Node1&#45;&gt;Node3</title>
<path fill="none" stroke="midnightblue" d="M119.01,-112.09C115.43,-99.5 108.5,-75.82 101.5,-56 98.31,-46.96 94.39,-37.06 91.03,-28.85"/>
<polygon fill="midnightblue" stroke="midnightblue" points="94.23,-27.44 87.16,-19.55 87.77,-30.12 94.23,-27.44"/>
</g>
<!-- Node4 -->
<g id="node4" class="node">
<title>Node4</title>
<g id="a_node4"><a xlink:title=" ">
<polygon fill="none" stroke="#bfbfbf" points="150,-56.5 150,-75.5 197,-75.5 197,-56.5 150,-56.5"/>
<text text-anchor="middle" x="173.5" y="-63.5" font-family="Helvetica,sans-Serif" font-size="10.00">vector</text>
</a>
</g>
</g>
<!-- Node1&#45;&gt;Node4 -->
<g id="edge3" class="edge">
<title>Node1&#45;&gt;Node4</title>
<path fill="none" stroke="midnightblue" d="M130.09,-112.08C137.66,-104.22 148.88,-92.57 158.01,-83.08"/>
<polygon fill="midnightblue" stroke="midnightblue" points="160.66,-85.38 165.07,-75.75 155.62,-80.53 160.66,-85.38"/>
</g>
<!-- Node2&#45;&gt;Node3 -->
<g id="edge2" class="edge">
<title>Node2&#45;&gt;Node3</title>
<path fill="none" stroke="midnightblue" d="M52.61,-56.08C57.78,-48.53 65.35,-37.49 71.69,-28.23"/>
<polygon fill="midnightblue" stroke="midnightblue" points="74.74,-29.98 77.5,-19.75 68.96,-26.02 74.74,-29.98"/>
</g>
</g>
</svg>
