<?xml version="1.0" encoding="UTF-8" standalone="no"?>
<!DOCTYPE svg PUBLIC "-//W3C//DTD SVG 1.1//EN"
 "http://www.w3.org/Graphics/SVG/1.1/DTD/svg11.dtd">
<!-- Generated by graphviz version 2.43.0 (0)
 -->
<!-- Title: NurseryMediator.cpp Pages: 1 -->
<svg width="360pt" height="196pt"
 viewBox="0.00 0.00 359.50 196.00" xmlns="http://www.w3.org/2000/svg" xmlns:xlink="http://www.w3.org/1999/xlink">
<g id="graph0" class="graph" transform="scale(1 1) rotate(0) translate(4 192)">
<title>NurseryMediator.cpp</title>
<!-- Node1 -->
<g id="node1" class="node">
<title>Node1</title>
<g id="a_node1"><a xlink:title="Implements the NurseryMediator behaviour defined in the corresponding header.">
<polygon fill="#bfbfbf" stroke="black" points="204.5,-168.5 204.5,-187.5 322.5,-187.5 322.5,-168.5 204.5,-168.5"/>
<text text-anchor="middle" x="263.5" y="-175.5" font-family="Helvetica,sans-Serif" font-size="10.00">NurseryMediator.cpp</text>
</a>
</g>
</g>
<!-- Node2 -->
<g id="node2" class="node">
<title>Node2</title>
<g id="a_node2"><a xlink:href="NurseryMediator_8h.html" target="_top" xlink:title="The &#39;ConcreteMediator&#39; implementation.">
<polygon fill="none" stroke="black" points="69.5,-112.5 69.5,-131.5 223.5,-131.5 223.5,-112.5 69.5,-112.5"/>
<text text-anchor="middle" x="146.5" y="-119.5" font-family="Helvetica,sans-Serif" font-size="10.00">../include/NurseryMediator.h</text>
</a>
</g>
</g>
<!-- Node1&#45;&gt;Node2 -->
<g id="edge1" class="edge">
<title>Node1&#45;&gt;Node2</title>
<path fill="none" stroke="midnightblue" d="M244.96,-168.44C225.88,-159.64 195.93,-145.81 174.06,-135.72"/>
<polygon fill="midnightblue" stroke="midnightblue" points="175.5,-132.53 164.95,-131.52 172.57,-138.88 175.5,-132.53"/>
</g>
<!-- Node6 -->
<g id="node6" class="node">
<title>Node6</title>
<g id="a_node6"><a xlink:href="Colleague_8h.html" target="_top" xlink:title="The &#39;Colleague&#39; interface.">
<polygon fill="none" stroke="black" points="215.5,-56.5 215.5,-75.5 337.5,-75.5 337.5,-56.5 215.5,-56.5"/>
<text text-anchor="middle" x="276.5" y="-63.5" font-family="Helvetica,sans-Serif" font-size="10.00">../include/Colleague.h</text>
</a>
</g>
</g>
<!-- Node1&#45;&gt;Node6 -->
<g id="edge6" class="edge">
<title>Node1&#45;&gt;Node6</title>
<path fill="none" stroke="midnightblue" d="M264.52,-168.37C266.62,-150.62 271.46,-109.67 274.3,-85.6"/>
<polygon fill="midnightblue" stroke="midnightblue" points="277.79,-85.93 275.48,-75.59 270.84,-85.11 277.79,-85.93"/>
</g>
<!-- Node7 -->
<g id="node7" class="node">
<title>Node7</title>
<g id="a_node7"><a xlink:title=" ">
<polygon fill="none" stroke="#bfbfbf" points="291.5,-112.5 291.5,-131.5 351.5,-131.5 351.5,-112.5 291.5,-112.5"/>
<text text-anchor="middle" x="321.5" y="-119.5" font-family="Helvetica,sans-Serif" font-size="10.00">iostream</text>
</a>
</g>
</g>
<!-- Node1&#45;&gt;Node7 -->
<g id="edge8" class="edge">
<title>Node1&#45;&gt;Node7</title>
<path fill="none" stroke="midnightblue" d="M272.82,-168.32C281.39,-160.34 294.31,-148.31 304.69,-138.65"/>
<polygon fill="midnightblue" stroke="midnightblue" points="307.08,-141.21 312.01,-131.83 302.31,-136.09 307.08,-141.21"/>
</g>
<!-- Node3 -->
<g id="node3" class="node">
<title>Node3</title>
<g id="a_node3"><a xlink:href="FloorMediator_8h.html" target="_top" xlink:title="The &#39;Mediator&#39; interface.">
<polygon fill="none" stroke="black" points="0,-56.5 0,-75.5 93,-75.5 93,-56.5 0,-56.5"/>
<text text-anchor="middle" x="46.5" y="-63.5" font-family="Helvetica,sans-Serif" font-size="10.00">FloorMediator.h</text>
</a>
</g>
</g>
<!-- Node2&#45;&gt;Node3 -->
<g id="edge2" class="edge">
<title>Node2&#45;&gt;Node3</title>
<path fill="none" stroke="midnightblue" d="M130.43,-112.32C114.54,-103.74 89.99,-90.49 71.54,-80.52"/>
<polygon fill="midnightblue" stroke="midnightblue" points="72.99,-77.33 62.53,-75.65 69.66,-83.49 72.99,-77.33"/>
</g>
<!-- Node4 -->
<g id="node4" class="node">
<title>Node4</title>
<g id="a_node4"><a xlink:title=" ">
<polygon fill="none" stroke="#bfbfbf" points="99.5,-0.5 99.5,-19.5 143.5,-19.5 143.5,-0.5 99.5,-0.5"/>
<text text-anchor="middle" x="121.5" y="-7.5" font-family="Helvetica,sans-Serif" font-size="10.00">string</text>
</a>
</g>
</g>
<!-- Node2&#45;&gt;Node4 -->
<g id="edge5" class="edge">
<title>Node2&#45;&gt;Node4</title>
<path fill="none" stroke="midnightblue" d="M144.54,-112.37C140.5,-94.62 131.2,-53.67 125.73,-29.6"/>
<polygon fill="midnightblue" stroke="midnightblue" points="129.08,-28.57 123.45,-19.59 122.26,-30.12 129.08,-28.57"/>
</g>
<!-- Node5 -->
<g id="node5" class="node">
<title>Node5</title>
<g id="a_node5"><a xlink:title=" ">
<polygon fill="none" stroke="#bfbfbf" points="150,-56.5 150,-75.5 197,-75.5 197,-56.5 150,-56.5"/>
<text text-anchor="middle" x="173.5" y="-63.5" font-family="Helvetica,sans-Serif" font-size="10.00">vector</text>
</a>
</g>
</g>
<!-- Node2&#45;&gt;Node5 -->
<g id="edge4" class="edge">
<title>Node2&#45;&gt;Node5</title>
<path fill="none" stroke="midnightblue" d="M150.96,-112.08C154.65,-104.69 160.02,-93.95 164.59,-84.81"/>
<polygon fill="midnightblue" stroke="midnightblue" points="167.78,-86.26 169.12,-75.75 161.52,-83.13 167.78,-86.26"/>
</g>
<!-- Node3&#45;&gt;Node4 -->
<g id="edge3" class="edge">
<title>Node3&#45;&gt;Node4</title>
<path fill="none" stroke="midnightblue" d="M58.55,-56.32C69.96,-48.11 87.33,-35.6 100.93,-25.81"/>
<polygon fill="midnightblue" stroke="midnightblue" points="103.16,-28.52 109.23,-19.83 99.07,-22.84 103.16,-28.52"/>
</g>
<!-- Node6&#45;&gt;Node4 -->
<g id="edge7" class="edge">
<title>Node6&#45;&gt;Node4</title>
<path fill="none" stroke="midnightblue" d="M251.94,-56.44C225.37,-47.19 182.89,-32.39 153.67,-22.21"/>
<polygon fill="midnightblue" stroke="midnightblue" points="154.53,-18.8 143.93,-18.82 152.22,-25.41 154.53,-18.8"/>
</g>
</g>
</svg>
