<?xml version="1.0" encoding="UTF-8" standalone="no"?>
<!DOCTYPE svg PUBLIC "-//W3C//DTD SVG 1.1//EN"
 "http://www.w3.org/Graphics/SVG/1.1/DTD/svg11.dtd">
<!-- Generated by graphviz version 2.43.0 (0)
 -->
<!-- Title: Observer.h Pages: 1 -->
<svg width="3953pt" height="252pt"
 viewBox="0.00 0.00 3952.50 252.00" xmlns="http://www.w3.org/2000/svg" xmlns:xlink="http://www.w3.org/1999/xlink">
<g id="graph0" class="graph" transform="scale(1 1) rotate(0) translate(4 248)">
<title>Observer.h</title>
<!-- Node1 -->
<g id="node1" class="node">
<title>Node1</title>
<g id="a_node1"><a xlink:title="Declares the Observer contract and shared event payload.">
<polygon fill="#bfbfbf" stroke="black" points="551,-224.5 551,-243.5 620,-243.5 620,-224.5 551,-224.5"/>
<text text-anchor="middle" x="585.5" y="-231.5" font-family="Helvetica,sans-Serif" font-size="10.00">Observer.h</text>
</a>
</g>
</g>
<!-- Node2 -->
<g id="node2" class="node">
<title>Node2</title>
<g id="a_node2"><a xlink:href="Staff_8h.html" target="_top" xlink:title="Represents a staff member.">
<polygon fill="none" stroke="black" points="502.5,-168.5 502.5,-187.5 550.5,-187.5 550.5,-168.5 502.5,-168.5"/>
<text text-anchor="middle" x="526.5" y="-175.5" font-family="Helvetica,sans-Serif" font-size="10.00">Staff.h</text>
</a>
</g>
</g>
<!-- Node1&#45;&gt;Node2 -->
<g id="edge1" class="edge">
<title>Node1&#45;&gt;Node2</title>
<path fill="none" stroke="midnightblue" d="M568.61,-217.54C558.09,-207.91 544.93,-195.87 536.15,-187.83"/>
<polygon fill="midnightblue" stroke="midnightblue" points="566.28,-220.15 576.02,-224.32 571.01,-214.99 566.28,-220.15"/>
</g>
<!-- Node4 -->
<g id="node4" class="node">
<title>Node4</title>
<g id="a_node4"><a xlink:href="StockItem_8h.html" target="_top" xlink:title="Represents an inventory entry and observes plant availability.">
<polygon fill="none" stroke="black" points="548,-112.5 548,-131.5 623,-131.5 623,-112.5 548,-112.5"/>
<text text-anchor="middle" x="585.5" y="-119.5" font-family="Helvetica,sans-Serif" font-size="10.00">StockItem.h</text>
</a>
</g>
</g>
<!-- Node1&#45;&gt;Node4 -->
<g id="edge3" class="edge">
<title>Node1&#45;&gt;Node4</title>
<path fill="none" stroke="midnightblue" d="M585.5,-214.35C585.5,-190.25 585.5,-149.31 585.5,-131.59"/>
<polygon fill="midnightblue" stroke="midnightblue" points="582,-214.37 585.5,-224.37 589,-214.37 582,-214.37"/>
</g>
<!-- Node19 -->
<g id="node19" class="node">
<title>Node19</title>
<g id="a_node19"><a xlink:href="Subject_8h.html" target="_top" xlink:title="Declares the Subject base that manages observer subscriptions.">
<polygon fill="none" stroke="black" points="2243.5,-168.5 2243.5,-187.5 2305.5,-187.5 2305.5,-168.5 2243.5,-168.5"/>
<text text-anchor="middle" x="2274.5" y="-175.5" font-family="Helvetica,sans-Serif" font-size="10.00">Subject.h</text>
</a>
</g>
</g>
<!-- Node1&#45;&gt;Node19 -->
<g id="edge21" class="edge">
<title>Node1&#45;&gt;Node19</title>
<path fill="none" stroke="midnightblue" d="M630.26,-231.57C874.01,-223.78 2038.03,-186.56 2243.48,-179.99"/>
<polygon fill="midnightblue" stroke="midnightblue" points="629.89,-228.08 620,-231.9 630.11,-235.08 629.89,-228.08"/>
</g>
<!-- Node3 -->
<g id="node3" class="node">
<title>Node3</title>
<g id="a_node3"><a xlink:href="Staff_8cpp.html" target="_top" xlink:title="Implements the Staff behaviour defined in the corresponding header.">
<polygon fill="none" stroke="black" points="312,-56.5 312,-75.5 371,-75.5 371,-56.5 312,-56.5"/>
<text text-anchor="middle" x="341.5" y="-63.5" font-family="Helvetica,sans-Serif" font-size="10.00">Staff.cpp</text>
</a>
</g>
</g>
<!-- Node2&#45;&gt;Node3 -->
<g id="edge2" class="edge">
<title>Node2&#45;&gt;Node3</title>
<path fill="none" stroke="midnightblue" d="M502.97,-163.01C464.14,-139.92 387.77,-94.51 355.95,-75.59"/>
<polygon fill="midnightblue" stroke="midnightblue" points="501.6,-166.27 511.98,-168.37 505.18,-160.25 501.6,-166.27"/>
</g>
<!-- Node5 -->
<g id="node5" class="node">
<title>Node5</title>
<g id="a_node5"><a xlink:href="Order_8h.html" target="_top" xlink:title="The complex &#39;Product&#39; of the Builder pattern.">
<polygon fill="none" stroke="black" points="241.5,-56.5 241.5,-75.5 293.5,-75.5 293.5,-56.5 241.5,-56.5"/>
<text text-anchor="middle" x="267.5" y="-63.5" font-family="Helvetica,sans-Serif" font-size="10.00">Order.h</text>
</a>
</g>
</g>
<!-- Node4&#45;&gt;Node5 -->
<g id="edge4" class="edge">
<title>Node4&#45;&gt;Node5</title>
<path fill="none" stroke="midnightblue" d="M537.69,-114.8C481.23,-107.15 384.58,-93.04 302.5,-76 299.67,-75.41 296.73,-74.75 293.81,-74.05"/>
<polygon fill="midnightblue" stroke="midnightblue" points="537.38,-118.29 547.76,-116.15 538.31,-111.35 537.38,-118.29"/>
</g>
<!-- Node6 -->
<g id="node6" class="node">
<title>Node6</title>
<g id="a_node6"><a xlink:href="CustomOrderBuilder_8cpp.html" target="_top" xlink:title="Implements the CustomOrderBuilder behaviour defined in the corresponding header.">
<polygon fill="none" stroke="black" points="0,-0.5 0,-19.5 135,-19.5 135,-0.5 0,-0.5"/>
<text text-anchor="middle" x="67.5" y="-7.5" font-family="Helvetica,sans-Serif" font-size="10.00">CustomOrderBuilder.cpp</text>
</a>
</g>
</g>
<!-- Node4&#45;&gt;Node6 -->
<g id="edge14" class="edge">
<title>Node4&#45;&gt;Node6</title>
<path fill="none" stroke="midnightblue" d="M537.64,-120.12C468.72,-117.69 338.17,-108.73 232.5,-76 213.89,-70.24 211.38,-63.74 193.5,-56 160.24,-41.61 120.73,-28.05 94.93,-19.65"/>
<polygon fill="midnightblue" stroke="midnightblue" points="537.65,-123.62 547.76,-120.44 537.88,-116.62 537.65,-123.62"/>
</g>
<!-- Node9 -->
<g id="node9" class="node">
<title>Node9</title>
<g id="a_node9"><a xlink:href="OrderDirector_8cpp.html" target="_top" xlink:title="Implements the OrderDirector behaviour defined in the corresponding header.">
<polygon fill="none" stroke="black" points="466.5,-0.5 466.5,-19.5 568.5,-19.5 568.5,-0.5 466.5,-0.5"/>
<text text-anchor="middle" x="517.5" y="-7.5" font-family="Helvetica,sans-Serif" font-size="10.00">OrderDirector.cpp</text>
</a>
</g>
</g>
<!-- Node4&#45;&gt;Node9 -->
<g id="edge16" class="edge">
<title>Node4&#45;&gt;Node9</title>
<path fill="none" stroke="midnightblue" d="M537.52,-117.65C508.95,-112.89 474.79,-101.75 456.5,-76 440.73,-53.79 475.47,-31.4 498.73,-19.57"/>
<polygon fill="midnightblue" stroke="midnightblue" points="537.36,-121.16 547.76,-119.13 538.36,-114.23 537.36,-121.16"/>
</g>
<!-- Node10 -->
<g id="node10" class="node">
<title>Node10</title>
<g id="a_node10"><a xlink:href="SalesFacade_8cpp.html" target="_top" xlink:title="Implements the SalesFacade behaviour defined in the corresponding header.">
<polygon fill="none" stroke="black" points="351,-0.5 351,-19.5 448,-19.5 448,-0.5 351,-0.5"/>
<text text-anchor="middle" x="399.5" y="-7.5" font-family="Helvetica,sans-Serif" font-size="10.00">SalesFacade.cpp</text>
</a>
</g>
</g>
<!-- Node4&#45;&gt;Node10 -->
<g id="edge17" class="edge">
<title>Node4&#45;&gt;Node10</title>
<path fill="none" stroke="midnightblue" d="M537.99,-112.57C510.3,-105.95 475.78,-94.66 449.5,-76 428.14,-60.84 411.65,-33.89 404.07,-19.93"/>
<polygon fill="midnightblue" stroke="midnightblue" points="537.33,-116 547.85,-114.79 538.87,-109.18 537.33,-116"/>
</g>
<!-- Node11 -->
<g id="node11" class="node">
<title>Node11</title>
<g id="a_node11"><a xlink:href="ConcreteInventoryIterator_8cpp.html" target="_top" xlink:title="Implements the ConcreteInventoryIterator behaviour defined in the corresponding header.">
<polygon fill="none" stroke="black" points="1055.5,-56.5 1055.5,-75.5 1217.5,-75.5 1217.5,-56.5 1055.5,-56.5"/>
<text text-anchor="middle" x="1136.5" y="-63.5" font-family="Helvetica,sans-Serif" font-size="10.00">ConcreteInventoryIterator.cpp</text>
</a>
</g>
</g>
<!-- Node4&#45;&gt;Node11 -->
<g id="edge10" class="edge">
<title>Node4&#45;&gt;Node11</title>
<path fill="none" stroke="midnightblue" d="M633.26,-116.34C716.83,-108.2 895.02,-90.8 1045.5,-76 1048.66,-75.69 1051.88,-75.37 1055.14,-75.05"/>
<polygon fill="midnightblue" stroke="midnightblue" points="632.68,-112.88 623.07,-117.34 633.36,-119.85 632.68,-112.88"/>
</g>
<!-- Node12 -->
<g id="node12" class="node">
<title>Node12</title>
<g id="a_node12"><a xlink:href="CSVAdapter_8cpp.html" target="_top" xlink:title="Implements the CSVAdapter behaviour defined in the corresponding header.">
<polygon fill="none" stroke="black" points="1236,-56.5 1236,-75.5 1329,-75.5 1329,-56.5 1236,-56.5"/>
<text text-anchor="middle" x="1282.5" y="-63.5" font-family="Helvetica,sans-Serif" font-size="10.00">CSVAdapter.cpp</text>
</a>
</g>
</g>
<!-- Node4&#45;&gt;Node12 -->
<g id="edge11" class="edge">
<title>Node4&#45;&gt;Node12</title>
<path fill="none" stroke="midnightblue" d="M633.3,-119.11C739.99,-114.56 1005.56,-101.46 1226.5,-76 1229.53,-75.65 1232.65,-75.25 1235.79,-74.83"/>
<polygon fill="midnightblue" stroke="midnightblue" points="633.02,-115.61 623.18,-119.53 633.32,-122.61 633.02,-115.61"/>
</g>
<!-- Node13 -->
<g id="node13" class="node">
<title>Node13</title>
<g id="a_node13"><a xlink:href="CSVReaderWriter_8cpp.html" target="_top" xlink:title="Implements the CSVReaderWriter behaviour defined in the corresponding header.">
<polygon fill="none" stroke="black" points="465.5,-56.5 465.5,-75.5 585.5,-75.5 585.5,-56.5 465.5,-56.5"/>
<text text-anchor="middle" x="525.5" y="-63.5" font-family="Helvetica,sans-Serif" font-size="10.00">CSVReaderWriter.cpp</text>
</a>
</g>
</g>
<!-- Node4&#45;&gt;Node13 -->
<g id="edge12" class="edge">
<title>Node4&#45;&gt;Node13</title>
<path fill="none" stroke="midnightblue" d="M568.32,-105.54C557.62,-95.91 544.24,-83.87 535.32,-75.83"/>
<polygon fill="midnightblue" stroke="midnightblue" points="566.09,-108.24 575.86,-112.32 570.77,-103.03 566.09,-108.24"/>
</g>
<!-- Node14 -->
<g id="node14" class="node">
<title>Node14</title>
<g id="a_node14"><a xlink:href="Customer_8cpp.html" target="_top" xlink:title="Implements the Customer behaviour defined in the corresponding header.">
<polygon fill="none" stroke="black" points="102,-56.5 102,-75.5 185,-75.5 185,-56.5 102,-56.5"/>
<text text-anchor="middle" x="143.5" y="-63.5" font-family="Helvetica,sans-Serif" font-size="10.00">Customer.cpp</text>
</a>
</g>
</g>
<!-- Node4&#45;&gt;Node14 -->
<g id="edge13" class="edge">
<title>Node4&#45;&gt;Node14</title>
<path fill="none" stroke="midnightblue" d="M537.65,-116.09C464.61,-108.46 321,-92.84 199.5,-76 194.82,-75.35 189.92,-74.63 185.06,-73.88"/>
<polygon fill="midnightblue" stroke="midnightblue" points="537.59,-119.61 547.9,-117.16 538.31,-112.65 537.59,-119.61"/>
</g>
<!-- Node15 -->
<g id="node15" class="node">
<title>Node15</title>
<g id="a_node15"><a xlink:href="Inventory_8cpp.html" target="_top" xlink:title="Implements the Inventory behaviour defined in the corresponding header.">
<polygon fill="none" stroke="black" points="603.5,-56.5 603.5,-75.5 685.5,-75.5 685.5,-56.5 603.5,-56.5"/>
<text text-anchor="middle" x="644.5" y="-63.5" font-family="Helvetica,sans-Serif" font-size="10.00">Inventory.cpp</text>
</a>
</g>
</g>
<!-- Node4&#45;&gt;Node15 -->
<g id="edge15" class="edge">
<title>Node4&#45;&gt;Node15</title>
<path fill="none" stroke="midnightblue" d="M602.39,-105.54C612.91,-95.91 626.07,-83.87 634.85,-75.83"/>
<polygon fill="midnightblue" stroke="midnightblue" points="599.99,-102.99 594.98,-112.32 604.72,-108.15 599.99,-102.99"/>
</g>
<!-- Node16 -->
<g id="node16" class="node">
<title>Node16</title>
<g id="a_node16"><a xlink:href="StockItem_8cpp.html" target="_top" xlink:title="Implements the StockItem behaviour defined in the corresponding header.">
<polygon fill="none" stroke="black" points="703.5,-56.5 703.5,-75.5 789.5,-75.5 789.5,-56.5 703.5,-56.5"/>
<text text-anchor="middle" x="746.5" y="-63.5" font-family="Helvetica,sans-Serif" font-size="10.00">StockItem.cpp</text>
</a>
</g>
</g>
<!-- Node4&#45;&gt;Node16 -->
<g id="edge18" class="edge">
<title>Node4&#45;&gt;Node16</title>
<path fill="none" stroke="midnightblue" d="M620.76,-109.17C651.08,-99 694.07,-84.59 721.11,-75.52"/>
<polygon fill="midnightblue" stroke="midnightblue" points="619.38,-105.95 611.01,-112.44 621.6,-112.58 619.38,-105.95"/>
</g>
<!-- Node17 -->
<g id="node17" class="node">
<title>Node17</title>
<g id="a_node17"><a xlink:href="TXTAdapter_8cpp.html" target="_top" xlink:title="Implements the TXTAdapter behaviour defined in the corresponding header.">
<polygon fill="none" stroke="black" points="807.5,-56.5 807.5,-75.5 899.5,-75.5 899.5,-56.5 807.5,-56.5"/>
<text text-anchor="middle" x="853.5" y="-63.5" font-family="Helvetica,sans-Serif" font-size="10.00">TXTAdapter.cpp</text>
</a>
</g>
</g>
<!-- Node4&#45;&gt;Node17 -->
<g id="edge19" class="edge">
<title>Node4&#45;&gt;Node17</title>
<path fill="none" stroke="midnightblue" d="M633.05,-111.42C683.48,-101.26 762.43,-85.35 810.9,-75.58"/>
<polygon fill="midnightblue" stroke="midnightblue" points="632.16,-108.03 623.05,-113.43 633.54,-114.89 632.16,-108.03"/>
</g>
<!-- Node18 -->
<g id="node18" class="node">
<title>Node18</title>
<g id="a_node18"><a xlink:href="TXTReaderWriter_8cpp.html" target="_top" xlink:title="Implements the TXTReaderWriter behaviour defined in the corresponding header.">
<polygon fill="none" stroke="black" points="918,-56.5 918,-75.5 1037,-75.5 1037,-56.5 918,-56.5"/>
<text text-anchor="middle" x="977.5" y="-63.5" font-family="Helvetica,sans-Serif" font-size="10.00">TXTReaderWriter.cpp</text>
</a>
</g>
</g>
<!-- Node4&#45;&gt;Node18 -->
<g id="edge20" class="edge">
<title>Node4&#45;&gt;Node18</title>
<path fill="none" stroke="midnightblue" d="M633.17,-114.43C704.73,-104.57 839.84,-85.96 917.84,-75.22"/>
<polygon fill="midnightblue" stroke="midnightblue" points="632.52,-110.99 623.09,-115.82 633.47,-117.92 632.52,-110.99"/>
</g>
<!-- Node5&#45;&gt;Node6 -->
<g id="edge5" class="edge">
<title>Node5&#45;&gt;Node6</title>
<path fill="none" stroke="midnightblue" d="M231.31,-55.23C193.64,-45.06 135.21,-29.28 99.26,-19.58"/>
<polygon fill="midnightblue" stroke="midnightblue" points="230.79,-58.71 241.35,-57.94 232.61,-51.95 230.79,-58.71"/>
</g>
<!-- Node7 -->
<g id="node7" class="node">
<title>Node7</title>
<g id="a_node7"><a xlink:href="Order_8cpp.html" target="_top" xlink:title="Implements the Order behaviour defined in the corresponding header.">
<polygon fill="none" stroke="black" points="153,-0.5 153,-19.5 216,-19.5 216,-0.5 153,-0.5"/>
<text text-anchor="middle" x="184.5" y="-7.5" font-family="Helvetica,sans-Serif" font-size="10.00">Order.cpp</text>
</a>
</g>
</g>
<!-- Node5&#45;&gt;Node7 -->
<g id="edge6" class="edge">
<title>Node5&#45;&gt;Node7</title>
<path fill="none" stroke="midnightblue" d="M245.4,-50.62C230.24,-40.76 210.62,-27.99 197.8,-19.65"/>
<polygon fill="midnightblue" stroke="midnightblue" points="243.87,-53.8 254.16,-56.32 247.69,-47.94 243.87,-53.8"/>
</g>
<!-- Node8 -->
<g id="node8" class="node">
<title>Node8</title>
<g id="a_node8"><a xlink:href="OrderBuilder_8cpp.html" target="_top" xlink:title="Implements the OrderBuilder behaviour defined in the corresponding header.">
<polygon fill="none" stroke="black" points="234.5,-0.5 234.5,-19.5 332.5,-19.5 332.5,-0.5 234.5,-0.5"/>
<text text-anchor="middle" x="283.5" y="-7.5" font-family="Helvetica,sans-Serif" font-size="10.00">OrderBuilder.cpp</text>
</a>
</g>
</g>
<!-- Node5&#45;&gt;Node8 -->
<g id="edge7" class="edge">
<title>Node5&#45;&gt;Node8</title>
<path fill="none" stroke="midnightblue" d="M273.01,-46.4C275.69,-37.36 278.78,-26.94 280.91,-19.75"/>
<polygon fill="midnightblue" stroke="midnightblue" points="269.63,-45.5 270.14,-56.08 276.34,-47.49 269.63,-45.5"/>
</g>
<!-- Node5&#45;&gt;Node9 -->
<g id="edge8" class="edge">
<title>Node5&#45;&gt;Node9</title>
<path fill="none" stroke="midnightblue" d="M303.76,-55.78C368.19,-40.88 432.31,-27.79 473.72,-19.56"/>
<polygon fill="midnightblue" stroke="midnightblue" points="302.79,-52.41 293.84,-58.09 304.37,-59.23 302.79,-52.41"/>
</g>
<!-- Node5&#45;&gt;Node10 -->
<g id="edge9" class="edge">
<title>Node5&#45;&gt;Node10</title>
<path fill="none" stroke="midnightblue" d="M297.72,-52.64C322.49,-42.5 356.9,-28.43 378.68,-19.52"/>
<polygon fill="midnightblue" stroke="midnightblue" points="296.35,-49.42 288.42,-56.44 299,-55.9 296.35,-49.42"/>
</g>
<!-- Node20 -->
<g id="node20" class="node">
<title>Node20</title>
<g id="a_node20"><a xlink:href="PlantInstance_8h.html" target="_top" xlink:title="Represents a single, physical plant in the nursery.">
<polygon fill="none" stroke="black" points="2228.5,-112.5 2228.5,-131.5 2320.5,-131.5 2320.5,-112.5 2228.5,-112.5"/>
<text text-anchor="middle" x="2274.5" y="-119.5" font-family="Helvetica,sans-Serif" font-size="10.00">PlantInstance.h</text>
</a>
</g>
</g>
<!-- Node19&#45;&gt;Node20 -->
<g id="edge22" class="edge">
<title>Node19&#45;&gt;Node20</title>
<path fill="none" stroke="midnightblue" d="M2274.5,-157.8C2274.5,-148.91 2274.5,-138.78 2274.5,-131.75"/>
<polygon fill="midnightblue" stroke="midnightblue" points="2271,-158.08 2274.5,-168.08 2278,-158.08 2271,-158.08"/>
</g>
<!-- Node43 -->
<g id="node43" class="node">
<title>Node43</title>
<g id="a_node43"><a xlink:href="Subject_8cpp.html" target="_top" xlink:title="Implements the Subject behaviour defined in the corresponding header.">
<polygon fill="none" stroke="black" points="2339,-112.5 2339,-131.5 2412,-131.5 2412,-112.5 2339,-112.5"/>
<text text-anchor="middle" x="2375.5" y="-119.5" font-family="Helvetica,sans-Serif" font-size="10.00">Subject.cpp</text>
</a>
</g>
</g>
<!-- Node19&#45;&gt;Node43 -->
<g id="edge58" class="edge">
<title>Node19&#45;&gt;Node43</title>
<path fill="none" stroke="midnightblue" d="M2299.58,-163.59C2318.26,-153.61 2343.2,-140.27 2359.31,-131.65"/>
<polygon fill="midnightblue" stroke="midnightblue" points="2297.9,-160.52 2290.73,-168.32 2301.2,-166.7 2297.9,-160.52"/>
</g>
<!-- Node20&#45;&gt;Node3 -->
<g id="edge50" class="edge">
<title>Node20&#45;&gt;Node3</title>
<path fill="none" stroke="midnightblue" d="M2218.31,-120.7C1995.24,-119.28 1150.58,-111.72 456.5,-76 427.5,-74.51 394.46,-71.82 371.26,-69.77"/>
<polygon fill="midnightblue" stroke="midnightblue" points="2218.44,-124.2 2228.46,-120.76 2218.48,-117.2 2218.44,-124.2"/>
</g>
<!-- Node20&#45;&gt;Node9 -->
<g id="edge43" class="edge">
<title>Node20&#45;&gt;Node9</title>
<path fill="none" stroke="midnightblue" d="M2330.36,-110.08C2372.25,-99.57 2418.39,-81.5 2393.5,-56 2360.71,-22.42 866.09,-12.83 568.66,-11.25"/>
<polygon fill="midnightblue" stroke="midnightblue" points="2329.32,-106.73 2320.41,-112.46 2330.95,-113.54 2329.32,-106.73"/>
</g>
<!-- Node20&#45;&gt;Node11 -->
<g id="edge29" class="edge">
<title>Node20&#45;&gt;Node11</title>
<path fill="none" stroke="midnightblue" d="M2218.12,-119.7C2060.98,-115.85 1604.72,-103.01 1226.5,-76 1223.68,-75.8 1220.81,-75.58 1217.92,-75.35"/>
<polygon fill="midnightblue" stroke="midnightblue" points="2218.4,-123.21 2228.48,-119.96 2218.57,-116.21 2218.4,-123.21"/>
</g>
<!-- Node20&#45;&gt;Node12 -->
<g id="edge30" class="edge">
<title>Node20&#45;&gt;Node12</title>
<path fill="none" stroke="midnightblue" d="M2218.04,-120.47C2072.14,-118.64 1670.74,-110.58 1338.5,-76 1335.46,-75.68 1332.34,-75.31 1329.2,-74.9"/>
<polygon fill="midnightblue" stroke="midnightblue" points="2218.06,-123.97 2228.1,-120.59 2218.14,-116.97 2218.06,-123.97"/>
</g>
<!-- Node20&#45;&gt;Node13 -->
<g id="edge31" class="edge">
<title>Node20&#45;&gt;Node13</title>
<path fill="none" stroke="midnightblue" d="M2218.07,-120.27C1963.53,-116.86 920.49,-101.56 594.5,-76 591.61,-75.77 588.65,-75.51 585.67,-75.22"/>
<polygon fill="midnightblue" stroke="midnightblue" points="2218.15,-123.77 2228.2,-120.41 2218.25,-116.77 2218.15,-123.77"/>
</g>
<!-- Node20&#45;&gt;Node15 -->
<g id="edge40" class="edge">
<title>Node20&#45;&gt;Node15</title>
<path fill="none" stroke="midnightblue" d="M2218.24,-120.53C1973.35,-118.3 999.08,-107.57 694.5,-76 691.6,-75.7 688.63,-75.33 685.63,-74.91"/>
<polygon fill="midnightblue" stroke="midnightblue" points="2218.3,-124.03 2228.33,-120.62 2218.36,-117.03 2218.3,-124.03"/>
</g>
<!-- Node20&#45;&gt;Node16 -->
<g id="edge51" class="edge">
<title>Node20&#45;&gt;Node16</title>
<path fill="none" stroke="midnightblue" d="M2218.13,-120.34C1983.27,-117.45 1081.56,-104.67 798.5,-76 795.58,-75.7 792.58,-75.34 789.57,-74.93"/>
<polygon fill="midnightblue" stroke="midnightblue" points="2218.12,-123.84 2228.16,-120.47 2218.21,-116.85 2218.12,-123.84"/>
</g>
<!-- Node20&#45;&gt;Node17 -->
<g id="edge52" class="edge">
<title>Node20&#45;&gt;Node17</title>
<path fill="none" stroke="midnightblue" d="M2218,-120.11C1994.13,-116.45 1168.86,-101.48 908.5,-76 905.61,-75.72 902.64,-75.38 899.66,-75"/>
<polygon fill="midnightblue" stroke="midnightblue" points="2218.15,-123.62 2228.2,-120.28 2218.26,-116.62 2218.15,-123.62"/>
</g>
<!-- Node20&#45;&gt;Node18 -->
<g id="edge53" class="edge">
<title>Node20&#45;&gt;Node18</title>
<path fill="none" stroke="midnightblue" d="M2218.19,-120.8C2043.81,-119.78 1497.3,-113.58 1046.5,-76 1043.49,-75.75 1040.41,-75.46 1037.3,-75.15"/>
<polygon fill="midnightblue" stroke="midnightblue" points="2218.39,-124.3 2228.41,-120.86 2218.43,-117.3 2218.39,-124.3"/>
</g>
<!-- Node21 -->
<g id="node21" class="node">
<title>Node21</title>
<g id="a_node21"><a xlink:href="PlantStateUtils_8h.html" target="_top" xlink:title="Common helper functions shared by lifecycle state implementations.">
<polygon fill="none" stroke="black" points="2516.5,-56.5 2516.5,-75.5 2614.5,-75.5 2614.5,-56.5 2516.5,-56.5"/>
<text text-anchor="middle" x="2565.5" y="-63.5" font-family="Helvetica,sans-Serif" font-size="10.00">PlantStateUtils.h</text>
</a>
</g>
</g>
<!-- Node20&#45;&gt;Node21 -->
<g id="edge23" class="edge">
<title>Node20&#45;&gt;Node21</title>
<path fill="none" stroke="midnightblue" d="M2330.54,-110.6C2385.54,-100.4 2468.4,-85.02 2519.61,-75.52"/>
<polygon fill="midnightblue" stroke="midnightblue" points="2329.8,-107.18 2320.61,-112.44 2331.08,-114.06 2329.8,-107.18"/>
</g>
<!-- Node22 -->
<g id="node22" class="node">
<title>Node22</title>
<g id="a_node22"><a xlink:href="GrowingState_8cpp.html" target="_top" xlink:title="Implements the GrowingState behaviour defined in the corresponding header.">
<polygon fill="none" stroke="black" points="2379,-0.5 2379,-19.5 2482,-19.5 2482,-0.5 2379,-0.5"/>
<text text-anchor="middle" x="2430.5" y="-7.5" font-family="Helvetica,sans-Serif" font-size="10.00">GrowingState.cpp</text>
</a>
</g>
</g>
<!-- Node20&#45;&gt;Node22 -->
<g id="edge39" class="edge">
<title>Node20&#45;&gt;Node22</title>
<path fill="none" stroke="midnightblue" d="M2330.61,-111.32C2368.71,-103.51 2414.31,-91.32 2426.5,-76 2439.45,-59.72 2435.85,-33.26 2432.8,-19.67"/>
<polygon fill="midnightblue" stroke="midnightblue" points="2329.73,-107.93 2320.61,-113.31 2331.1,-114.79 2329.73,-107.93"/>
</g>
<!-- Node23 -->
<g id="node23" class="node">
<title>Node23</title>
<g id="a_node23"><a xlink:href="MatureState_8cpp.html" target="_top" xlink:title="Implements the MatureState behaviour defined in the corresponding header.">
<polygon fill="none" stroke="black" points="2500,-0.5 2500,-19.5 2597,-19.5 2597,-0.5 2500,-0.5"/>
<text text-anchor="middle" x="2548.5" y="-7.5" font-family="Helvetica,sans-Serif" font-size="10.00">MatureState.cpp</text>
</a>
</g>
</g>
<!-- Node20&#45;&gt;Node23 -->
<g id="edge42" class="edge">
<title>Node20&#45;&gt;Node23</title>
<path fill="none" stroke="midnightblue" d="M2331,-110.5C2364.78,-103.14 2408.07,-91.78 2444.5,-76 2480.65,-60.35 2518.86,-33.37 2537.28,-19.61"/>
<polygon fill="midnightblue" stroke="midnightblue" points="2329.9,-107.15 2320.84,-112.65 2331.35,-114 2329.9,-107.15"/>
</g>
<!-- Node24 -->
<g id="node24" class="node">
<title>Node24</title>
<g id="a_node24"><a xlink:href="SeedState_8cpp.html" target="_top" xlink:title="Implements the SeedState behaviour defined in the corresponding header.">
<polygon fill="none" stroke="black" points="2615.5,-0.5 2615.5,-19.5 2701.5,-19.5 2701.5,-0.5 2615.5,-0.5"/>
<text text-anchor="middle" x="2658.5" y="-7.5" font-family="Helvetica,sans-Serif" font-size="10.00">SeedState.cpp</text>
</a>
</g>
</g>
<!-- Node20&#45;&gt;Node24 -->
<g id="edge47" class="edge">
<title>Node20&#45;&gt;Node24</title>
<path fill="none" stroke="midnightblue" d="M2330.8,-112.19C2410.17,-103.59 2571.67,-111.43 2623.5,-76 2643.18,-62.55 2652.74,-34.33 2656.5,-19.9"/>
<polygon fill="midnightblue" stroke="midnightblue" points="2330.12,-108.74 2320.62,-113.45 2330.98,-115.69 2330.12,-108.74"/>
</g>
<!-- Node25 -->
<g id="node25" class="node">
<title>Node25</title>
<g id="a_node25"><a xlink:href="WitheringState_8cpp.html" target="_top" xlink:title="Implements the WitheringState behaviour defined in the corresponding header.">
<polygon fill="none" stroke="black" points="3163.5,-0.5 3163.5,-19.5 3273.5,-19.5 3273.5,-0.5 3163.5,-0.5"/>
<text text-anchor="middle" x="3218.5" y="-7.5" font-family="Helvetica,sans-Serif" font-size="10.00">WitheringState.cpp</text>
</a>
</g>
</g>
<!-- Node20&#45;&gt;Node25 -->
<g id="edge57" class="edge">
<title>Node20&#45;&gt;Node25</title>
<path fill="none" stroke="midnightblue" d="M2330.95,-112.47C2472.38,-106.56 3578.76,-126.11 3627.5,-76 3677.94,-24.14 3396.31,-13.65 3273.54,-11.53"/>
<polygon fill="midnightblue" stroke="midnightblue" points="2330.35,-109 2320.58,-113.1 2330.78,-115.99 2330.35,-109"/>
</g>
<!-- Node26 -->
<g id="node26" class="node">
<title>Node26</title>
<g id="a_node26"><a xlink:href="ConcreteGreenhouseIterator_8cpp.html" target="_top" xlink:title="Implements the ConcreteGreenhouseIterator behaviour defined in the corresponding header.">
<polygon fill="none" stroke="black" points="2670.5,-56.5 2670.5,-75.5 2844.5,-75.5 2844.5,-56.5 2670.5,-56.5"/>
<text text-anchor="middle" x="2757.5" y="-63.5" font-family="Helvetica,sans-Serif" font-size="10.00">ConcreteGreenhouseIterator.cpp</text>
</a>
</g>
</g>
<!-- Node20&#45;&gt;Node26 -->
<g id="edge28" class="edge">
<title>Node20&#45;&gt;Node26</title>
<path fill="none" stroke="midnightblue" d="M2330.69,-112.05C2454.94,-95.69 2586.1,-82.63 2670.24,-74.8"/>
<polygon fill="midnightblue" stroke="midnightblue" points="2330.07,-108.6 2320.62,-113.38 2330.99,-115.54 2330.07,-108.6"/>
</g>
<!-- Node27 -->
<g id="node27" class="node">
<title>Node27</title>
<g id="a_node27"><a xlink:href="DeadState_8cpp.html" target="_top" xlink:title="Implements the DeadState behaviour defined in the corresponding header.">
<polygon fill="none" stroke="black" points="2862.5,-56.5 2862.5,-75.5 2950.5,-75.5 2950.5,-56.5 2862.5,-56.5"/>
<text text-anchor="middle" x="2906.5" y="-63.5" font-family="Helvetica,sans-Serif" font-size="10.00">DeadState.cpp</text>
</a>
</g>
</g>
<!-- Node20&#45;&gt;Node27 -->
<g id="edge32" class="edge">
<title>Node20&#45;&gt;Node27</title>
<path fill="none" stroke="midnightblue" d="M2330.75,-112.1C2563.72,-85.99 2625.41,-103.15 2853.5,-76 2856.37,-75.66 2859.33,-75.27 2862.3,-74.84"/>
<polygon fill="midnightblue" stroke="midnightblue" points="2330.14,-108.65 2320.6,-113.25 2330.93,-115.6 2330.14,-108.65"/>
</g>
<!-- Node28 -->
<g id="node28" class="node">
<title>Node28</title>
<g id="a_node28"><a xlink:href="FertilizePlant_8cpp.html" target="_top" xlink:title="Implements the FertilizePlant behaviour defined in the corresponding header.">
<polygon fill="none" stroke="black" points="2969,-56.5 2969,-75.5 3070,-75.5 3070,-56.5 2969,-56.5"/>
<text text-anchor="middle" x="3019.5" y="-63.5" font-family="Helvetica,sans-Serif" font-size="10.00">FertilizePlant.cpp</text>
</a>
</g>
</g>
<!-- Node20&#45;&gt;Node28 -->
<g id="edge33" class="edge">
<title>Node20&#45;&gt;Node28</title>
<path fill="none" stroke="midnightblue" d="M2330.64,-112.13C2610.59,-82.28 2684.24,-104.46 2959.5,-76 2962.54,-75.69 2965.66,-75.33 2968.8,-74.94"/>
<polygon fill="midnightblue" stroke="midnightblue" points="2330.16,-108.66 2320.59,-113.21 2330.91,-115.62 2330.16,-108.66"/>
</g>
<!-- Node29 -->
<g id="node29" class="node">
<title>Node29</title>
<g id="a_node29"><a xlink:href="FertilizeStrategy_8cpp.html" target="_top" xlink:title="Implements the FertilizeStrategy behaviour defined in the corresponding header.">
<polygon fill="none" stroke="black" points="3088.5,-56.5 3088.5,-75.5 3204.5,-75.5 3204.5,-56.5 3088.5,-56.5"/>
<text text-anchor="middle" x="3146.5" y="-63.5" font-family="Helvetica,sans-Serif" font-size="10.00">FertilizeStrategy.cpp</text>
</a>
</g>
</g>
<!-- Node20&#45;&gt;Node29 -->
<g id="edge34" class="edge">
<title>Node20&#45;&gt;Node29</title>
<path fill="none" stroke="midnightblue" d="M2331.01,-112.1C2663.76,-78.09 2751,-105.9 3079.5,-76 3082.42,-75.73 3085.41,-75.43 3088.43,-75.11"/>
<polygon fill="midnightblue" stroke="midnightblue" points="2330.18,-108.67 2320.59,-113.18 2330.9,-115.63 2330.18,-108.67"/>
</g>
<!-- Node30 -->
<g id="node30" class="node">
<title>Node30</title>
<g id="a_node30"><a xlink:href="FertilizingHandler_8cpp.html" target="_top" xlink:title="Implements the FertilizingHandler behaviour defined in the corresponding header.">
<polygon fill="none" stroke="black" points="3222.5,-56.5 3222.5,-75.5 3344.5,-75.5 3344.5,-56.5 3222.5,-56.5"/>
<text text-anchor="middle" x="3283.5" y="-63.5" font-family="Helvetica,sans-Serif" font-size="10.00">FertilizingHandler.cpp</text>
</a>
</g>
</g>
<!-- Node20&#45;&gt;Node30 -->
<g id="edge35" class="edge">
<title>Node20&#45;&gt;Node30</title>
<path fill="none" stroke="midnightblue" d="M2330.8,-112.13C2723.05,-73.38 2825.47,-108.79 3213.5,-76 3216.43,-75.75 3219.43,-75.47 3222.45,-75.17"/>
<polygon fill="midnightblue" stroke="midnightblue" points="2330.19,-108.67 2320.59,-113.15 2330.89,-115.64 2330.19,-108.67"/>
</g>
<!-- Node31 -->
<g id="node31" class="node">
<title>Node31</title>
<g id="a_node31"><a xlink:href="FrequentWatering_8cpp.html" target="_top" xlink:title="Implements the FrequentWatering behaviour defined in the corresponding header.">
<polygon fill="none" stroke="black" points="3363,-56.5 3363,-75.5 3486,-75.5 3486,-56.5 3363,-56.5"/>
<text text-anchor="middle" x="3424.5" y="-63.5" font-family="Helvetica,sans-Serif" font-size="10.00">FrequentWatering.cpp</text>
</a>
</g>
</g>
<!-- Node20&#45;&gt;Node31 -->
<g id="edge36" class="edge">
<title>Node20&#45;&gt;Node31</title>
<path fill="none" stroke="midnightblue" d="M2330.7,-112.15C2785.03,-68.47 2903.35,-112.38 3353.5,-76 3356.6,-75.75 3359.76,-75.46 3362.96,-75.15"/>
<polygon fill="midnightblue" stroke="midnightblue" points="2330.2,-108.68 2320.59,-113.13 2330.88,-115.65 2330.2,-108.68"/>
</g>
<!-- Node32 -->
<g id="node32" class="node">
<title>Node32</title>
<g id="a_node32"><a xlink:href="GreenhouseBed_8cpp.html" target="_top" xlink:title="Implements the GreenhouseBed behaviour defined in the corresponding header.">
<polygon fill="none" stroke="black" points="3504.5,-56.5 3504.5,-75.5 3618.5,-75.5 3618.5,-56.5 3504.5,-56.5"/>
<text text-anchor="middle" x="3561.5" y="-63.5" font-family="Helvetica,sans-Serif" font-size="10.00">GreenhouseBed.cpp</text>
</a>
</g>
</g>
<!-- Node20&#45;&gt;Node32 -->
<g id="edge37" class="edge">
<title>Node20&#45;&gt;Node32</title>
<path fill="none" stroke="midnightblue" d="M2330.55,-112.17C2847.89,-63.51 2982.54,-118.78 3495.5,-76 3498.38,-75.76 3501.33,-75.48 3504.3,-75.17"/>
<polygon fill="midnightblue" stroke="midnightblue" points="2330.21,-108.68 2320.58,-113.11 2330.87,-115.65 2330.21,-108.68"/>
</g>
<!-- Node33 -->
<g id="node33" class="node">
<title>Node33</title>
<g id="a_node33"><a xlink:href="GreenhouseController_8cpp.html" target="_top" xlink:title="Implements the GreenhouseController behaviour defined in the corresponding header.">
<polygon fill="none" stroke="black" points="3675,-56.5 3675,-75.5 3818,-75.5 3818,-56.5 3675,-56.5"/>
<text text-anchor="middle" x="3746.5" y="-63.5" font-family="Helvetica,sans-Serif" font-size="10.00">GreenhouseController.cpp</text>
</a>
</g>
</g>
<!-- Node20&#45;&gt;Node33 -->
<g id="edge38" class="edge">
<title>Node20&#45;&gt;Node33</title>
<path fill="none" stroke="midnightblue" d="M2330.63,-112.16C2920.97,-57.61 3073.76,-114.58 3660.5,-76 3665.14,-75.69 3669.92,-75.33 3674.74,-74.93"/>
<polygon fill="midnightblue" stroke="midnightblue" points="2330.22,-108.69 2320.58,-113.1 2330.86,-115.66 2330.22,-108.69"/>
</g>
<!-- Node34 -->
<g id="node34" class="node">
<title>Node34</title>
<g id="a_node34"><a xlink:href="LiquidFertilizer_8cpp.html" target="_top" xlink:title="Implements the LiquidFertilizer behaviour defined in the corresponding header.">
<polygon fill="none" stroke="black" points="3836.5,-56.5 3836.5,-75.5 3944.5,-75.5 3944.5,-56.5 3836.5,-56.5"/>
<text text-anchor="middle" x="3890.5" y="-63.5" font-family="Helvetica,sans-Serif" font-size="10.00">LiquidFertilizer.cpp</text>
</a>
</g>
</g>
<!-- Node20&#45;&gt;Node34 -->
<g id="edge41" class="edge">
<title>Node20&#45;&gt;Node34</title>
<path fill="none" stroke="midnightblue" d="M2330.89,-112.14C2995,-51.88 3167.66,-130.87 3827.5,-76 3830.36,-75.76 3833.29,-75.48 3836.25,-75.16"/>
<polygon fill="midnightblue" stroke="midnightblue" points="2330.22,-108.69 2320.58,-113.09 2330.86,-115.66 2330.22,-108.69"/>
</g>
<!-- Node35 -->
<g id="node35" class="node">
<title>Node35</title>
<g id="a_node35"><a xlink:href="OrganicFertilizer_8cpp.html" target="_top" xlink:title="Implements the OrganicFertilizer behaviour defined in the corresponding header.">
<polygon fill="none" stroke="black" points="1347.5,-56.5 1347.5,-75.5 1463.5,-75.5 1463.5,-56.5 1347.5,-56.5"/>
<text text-anchor="middle" x="1405.5" y="-63.5" font-family="Helvetica,sans-Serif" font-size="10.00">OrganicFertilizer.cpp</text>
</a>
</g>
</g>
<!-- Node20&#45;&gt;Node35 -->
<g id="edge44" class="edge">
<title>Node20&#45;&gt;Node35</title>
<path fill="none" stroke="midnightblue" d="M2218.1,-119.34C2087,-115.15 1751.62,-102.54 1472.5,-76 1469.58,-75.72 1466.59,-75.41 1463.57,-75.08"/>
<polygon fill="midnightblue" stroke="midnightblue" points="2218.19,-122.84 2228.3,-119.66 2218.41,-115.85 2218.19,-122.84"/>
</g>
<!-- Node36 -->
<g id="node36" class="node">
<title>Node36</title>
<g id="a_node36"><a xlink:href="PlantInstance_8cpp.html" target="_top" xlink:title="Implements the PlantInstance behaviour defined in the corresponding header.">
<polygon fill="none" stroke="black" points="1482,-56.5 1482,-75.5 1585,-75.5 1585,-56.5 1482,-56.5"/>
<text text-anchor="middle" x="1533.5" y="-63.5" font-family="Helvetica,sans-Serif" font-size="10.00">PlantInstance.cpp</text>
</a>
</g>
</g>
<!-- Node20&#45;&gt;Node36 -->
<g id="edge45" class="edge">
<title>Node20&#45;&gt;Node36</title>
<path fill="none" stroke="midnightblue" d="M2218.01,-118.85C2101.15,-114.06 1824.49,-100.91 1593.5,-76 1590.78,-75.71 1587.99,-75.38 1585.18,-75.03"/>
<polygon fill="midnightblue" stroke="midnightblue" points="2218.01,-122.36 2228.14,-119.26 2218.29,-115.36 2218.01,-122.36"/>
</g>
<!-- Node37 -->
<g id="node37" class="node">
<title>Node37</title>
<g id="a_node37"><a xlink:href="SeasonalWatering_8cpp.html" target="_top" xlink:title="Implements the SeasonalWatering behaviour defined in the corresponding header.">
<polygon fill="none" stroke="black" points="1603,-56.5 1603,-75.5 1728,-75.5 1728,-56.5 1603,-56.5"/>
<text text-anchor="middle" x="1665.5" y="-63.5" font-family="Helvetica,sans-Serif" font-size="10.00">SeasonalWatering.cpp</text>
</a>
</g>
</g>
<!-- Node20&#45;&gt;Node37 -->
<g id="edge46" class="edge">
<title>Node20&#45;&gt;Node37</title>
<path fill="none" stroke="midnightblue" d="M2218.11,-117.08C2120.07,-110.08 1911.88,-94.44 1736.5,-76 1733.78,-75.71 1731.01,-75.41 1728.2,-75.1"/>
<polygon fill="midnightblue" stroke="midnightblue" points="2218.16,-120.59 2228.38,-117.81 2218.65,-113.61 2218.16,-120.59"/>
</g>
<!-- Node38 -->
<g id="node38" class="node">
<title>Node38</title>
<g id="a_node38"><a xlink:href="SlowReleaseFertilizer_8cpp.html" target="_top" xlink:title="Implements the SlowReleaseFertilizer behaviour defined in the corresponding header.">
<polygon fill="none" stroke="black" points="1746,-56.5 1746,-75.5 1887,-75.5 1887,-56.5 1746,-56.5"/>
<text text-anchor="middle" x="1816.5" y="-63.5" font-family="Helvetica,sans-Serif" font-size="10.00">SlowReleaseFertilizer.cpp</text>
</a>
</g>
</g>
<!-- Node20&#45;&gt;Node38 -->
<g id="edge48" class="edge">
<title>Node20&#45;&gt;Node38</title>
<path fill="none" stroke="midnightblue" d="M2218.44,-114.39C2134.99,-104.55 1978.18,-86.06 1887.05,-75.32"/>
<polygon fill="midnightblue" stroke="midnightblue" points="2218.15,-117.88 2228.49,-115.58 2218.97,-110.93 2218.15,-117.88"/>
</g>
<!-- Node39 -->
<g id="node39" class="node">
<title>Node39</title>
<g id="a_node39"><a xlink:href="SparseWatering_8cpp.html" target="_top" xlink:title="Implements the SparseWatering behaviour defined in the corresponding header.">
<polygon fill="none" stroke="black" points="1905,-56.5 1905,-75.5 2018,-75.5 2018,-56.5 1905,-56.5"/>
<text text-anchor="middle" x="1961.5" y="-63.5" font-family="Helvetica,sans-Serif" font-size="10.00">SparseWatering.cpp</text>
</a>
</g>
</g>
<!-- Node20&#45;&gt;Node39 -->
<g id="edge49" class="edge">
<title>Node20&#45;&gt;Node39</title>
<path fill="none" stroke="midnightblue" d="M2218.42,-111.32C2159.39,-101.14 2067.38,-85.27 2010.98,-75.54"/>
<polygon fill="midnightblue" stroke="midnightblue" points="2217.87,-114.78 2228.32,-113.03 2219.06,-107.88 2217.87,-114.78"/>
</g>
<!-- Node40 -->
<g id="node40" class="node">
<title>Node40</title>
<g id="a_node40"><a xlink:href="WateringHandler_8cpp.html" target="_top" xlink:title="Implements the WateringHandler behaviour defined in the corresponding header.">
<polygon fill="none" stroke="black" points="2036.5,-56.5 2036.5,-75.5 2154.5,-75.5 2154.5,-56.5 2036.5,-56.5"/>
<text text-anchor="middle" x="2095.5" y="-63.5" font-family="Helvetica,sans-Serif" font-size="10.00">WateringHandler.cpp</text>
</a>
</g>
</g>
<!-- Node20&#45;&gt;Node40 -->
<g id="edge54" class="edge">
<title>Node20&#45;&gt;Node40</title>
<path fill="none" stroke="midnightblue" d="M2236.17,-109.44C2202.42,-99.26 2154.05,-84.66 2123.73,-75.52"/>
<polygon fill="midnightblue" stroke="midnightblue" points="2235.55,-112.91 2246.14,-112.44 2237.57,-106.2 2235.55,-112.91"/>
</g>
<!-- Node41 -->
<g id="node41" class="node">
<title>Node41</title>
<g id="a_node41"><a xlink:href="WaterPlant_8cpp.html" target="_top" xlink:title="Implements the WaterPlant behaviour defined in the corresponding header.">
<polygon fill="none" stroke="black" points="2172.5,-56.5 2172.5,-75.5 2262.5,-75.5 2262.5,-56.5 2172.5,-56.5"/>
<text text-anchor="middle" x="2217.5" y="-63.5" font-family="Helvetica,sans-Serif" font-size="10.00">WaterPlant.cpp</text>
</a>
</g>
</g>
<!-- Node20&#45;&gt;Node41 -->
<g id="edge55" class="edge">
<title>Node20&#45;&gt;Node41</title>
<path fill="none" stroke="midnightblue" d="M2257.88,-105.25C2247.77,-95.67 2235.22,-83.79 2226.82,-75.83"/>
<polygon fill="midnightblue" stroke="midnightblue" points="2255.68,-107.99 2265.34,-112.32 2260.49,-102.91 2255.68,-107.99"/>
</g>
<!-- Node42 -->
<g id="node42" class="node">
<title>Node42</title>
<g id="a_node42"><a xlink:href="waterStrategy_8cpp.html" target="_top" xlink:title="Implements the waterStrategy behaviour defined in the corresponding header.">
<polygon fill="none" stroke="black" points="2280.5,-56.5 2280.5,-75.5 2384.5,-75.5 2384.5,-56.5 2280.5,-56.5"/>
<text text-anchor="middle" x="2332.5" y="-63.5" font-family="Helvetica,sans-Serif" font-size="10.00">waterStrategy.cpp</text>
</a>
</g>
</g>
<!-- Node20&#45;&gt;Node42 -->
<g id="edge56" class="edge">
<title>Node20&#45;&gt;Node42</title>
<path fill="none" stroke="midnightblue" d="M2291.41,-105.25C2301.7,-95.67 2314.47,-83.79 2323.01,-75.83"/>
<polygon fill="midnightblue" stroke="midnightblue" points="2288.75,-102.95 2283.82,-112.32 2293.52,-108.07 2288.75,-102.95"/>
</g>
<!-- Node21&#45;&gt;Node22 -->
<g id="edge24" class="edge">
<title>Node21&#45;&gt;Node22</title>
<path fill="none" stroke="midnightblue" d="M2534.59,-52.64C2509.26,-42.5 2474.07,-28.43 2451.79,-19.52"/>
<polygon fill="midnightblue" stroke="midnightblue" points="2533.52,-55.98 2544.11,-56.44 2536.12,-49.48 2533.52,-55.98"/>
</g>
<!-- Node21&#45;&gt;Node23 -->
<g id="edge25" class="edge">
<title>Node21&#45;&gt;Node23</title>
<path fill="none" stroke="midnightblue" d="M2559.64,-46.4C2556.8,-37.36 2553.52,-26.94 2551.25,-19.75"/>
<polygon fill="midnightblue" stroke="midnightblue" points="2556.35,-47.6 2562.69,-56.08 2563.03,-45.49 2556.35,-47.6"/>
</g>
<!-- Node21&#45;&gt;Node24 -->
<g id="edge26" class="edge">
<title>Node21&#45;&gt;Node24</title>
<path fill="none" stroke="midnightblue" d="M2589.31,-51.18C2606.42,-41.24 2628.97,-28.15 2643.6,-19.65"/>
<polygon fill="midnightblue" stroke="midnightblue" points="2587.33,-48.28 2580.44,-56.32 2590.85,-54.33 2587.33,-48.28"/>
</g>
<!-- Node21&#45;&gt;Node25 -->
<g id="edge27" class="edge">
<title>Node21&#45;&gt;Node25</title>
<path fill="none" stroke="midnightblue" d="M2624.85,-59.32C2636.97,-58.19 2649.64,-57.03 2661.5,-56 2845.13,-39.97 3063.01,-22.95 3163.14,-15.24"/>
<polygon fill="midnightblue" stroke="midnightblue" points="2624.45,-55.84 2614.82,-60.25 2625.1,-62.81 2624.45,-55.84"/>
</g>
</g>
</svg>
