<?xml version="1.0" encoding="UTF-8" standalone="no"?>
<!DOCTYPE svg PUBLIC "-//W3C//DTD SVG 1.1//EN"
 "http://www.w3.org/Graphics/SVG/1.1/DTD/svg11.dtd">
<!-- Generated by graphviz version 2.43.0 (0)
 -->
<!-- Title: OrderBuilder.h Pages: 1 -->
<svg width="437pt" height="140pt"
 viewBox="0.00 0.00 437.00 140.00" xmlns="http://www.w3.org/2000/svg" xmlns:xlink="http://www.w3.org/1999/xlink">
<g id="graph0" class="graph" transform="scale(1 1) rotate(0) translate(4 136)">
<title>OrderBuilder.h</title>
<!-- Node1 -->
<g id="node1" class="node">
<title>Node1</title>
<g id="a_node1"><a xlink:title="The abstract &#39;Builder&#39; interface.">
<polygon fill="#bfbfbf" stroke="black" points="221.5,-112.5 221.5,-131.5 307.5,-131.5 307.5,-112.5 221.5,-112.5"/>
<text text-anchor="middle" x="264.5" y="-119.5" font-family="Helvetica,sans-Serif" font-size="10.00">OrderBuilder.h</text>
</a>
</g>
</g>
<!-- Node2 -->
<g id="node2" class="node">
<title>Node2</title>
<g id="a_node2"><a xlink:href="CustomOrderBuilder_8h.html" target="_top" xlink:title="The &#39;ConcreteBuilder&#39; implementation.">
<polygon fill="none" stroke="black" points="73.5,-56.5 73.5,-75.5 197.5,-75.5 197.5,-56.5 73.5,-56.5"/>
<text text-anchor="middle" x="135.5" y="-63.5" font-family="Helvetica,sans-Serif" font-size="10.00">CustomOrderBuilder.h</text>
</a>
</g>
</g>
<!-- Node1&#45;&gt;Node2 -->
<g id="edge1" class="edge">
<title>Node1&#45;&gt;Node2</title>
<path fill="none" stroke="midnightblue" d="M234.65,-108.5C210.46,-98.38 177.04,-84.39 155.84,-75.52"/>
<polygon fill="midnightblue" stroke="midnightblue" points="233.48,-111.81 244.06,-112.44 236.19,-105.35 233.48,-111.81"/>
</g>
<!-- Node5 -->
<g id="node5" class="node">
<title>Node5</title>
<g id="a_node5"><a xlink:href="OrderBuilder_8cpp.html" target="_top" xlink:title="Implements the OrderBuilder behaviour defined in the corresponding header.">
<polygon fill="none" stroke="black" points="215.5,-56.5 215.5,-75.5 313.5,-75.5 313.5,-56.5 215.5,-56.5"/>
<text text-anchor="middle" x="264.5" y="-63.5" font-family="Helvetica,sans-Serif" font-size="10.00">OrderBuilder.cpp</text>
</a>
</g>
</g>
<!-- Node1&#45;&gt;Node5 -->
<g id="edge4" class="edge">
<title>Node1&#45;&gt;Node5</title>
<path fill="none" stroke="midnightblue" d="M264.5,-101.8C264.5,-92.91 264.5,-82.78 264.5,-75.75"/>
<polygon fill="midnightblue" stroke="midnightblue" points="261,-102.08 264.5,-112.08 268,-102.08 261,-102.08"/>
</g>
<!-- Node6 -->
<g id="node6" class="node">
<title>Node6</title>
<g id="a_node6"><a xlink:href="SalesFacade_8cpp.html" target="_top" xlink:title="Implements the SalesFacade behaviour defined in the corresponding header.">
<polygon fill="none" stroke="black" points="332,-56.5 332,-75.5 429,-75.5 429,-56.5 332,-56.5"/>
<text text-anchor="middle" x="380.5" y="-63.5" font-family="Helvetica,sans-Serif" font-size="10.00">SalesFacade.cpp</text>
</a>
</g>
</g>
<!-- Node1&#45;&gt;Node6 -->
<g id="edge5" class="edge">
<title>Node1&#45;&gt;Node6</title>
<path fill="none" stroke="midnightblue" d="M292.22,-108.1C313.89,-98.01 343.4,-84.27 362.21,-75.52"/>
<polygon fill="midnightblue" stroke="midnightblue" points="290.47,-105.05 282.88,-112.44 293.42,-111.4 290.47,-105.05"/>
</g>
<!-- Node3 -->
<g id="node3" class="node">
<title>Node3</title>
<g id="a_node3"><a xlink:href="CustomOrderBuilder_8cpp.html" target="_top" xlink:title="Implements the CustomOrderBuilder behaviour defined in the corresponding header.">
<polygon fill="none" stroke="black" points="0,-0.5 0,-19.5 135,-19.5 135,-0.5 0,-0.5"/>
<text text-anchor="middle" x="67.5" y="-7.5" font-family="Helvetica,sans-Serif" font-size="10.00">CustomOrderBuilder.cpp</text>
</a>
</g>
</g>
<!-- Node2&#45;&gt;Node3 -->
<g id="edge2" class="edge">
<title>Node2&#45;&gt;Node3</title>
<path fill="none" stroke="midnightblue" d="M116.74,-50.1C104.5,-40.38 88.94,-28.03 78.62,-19.83"/>
<polygon fill="midnightblue" stroke="midnightblue" points="114.57,-52.85 124.57,-56.32 118.92,-47.36 114.57,-52.85"/>
</g>
<!-- Node4 -->
<g id="node4" class="node">
<title>Node4</title>
<g id="a_node4"><a xlink:href="OrderDirector_8cpp.html" target="_top" xlink:title="Implements the OrderDirector behaviour defined in the corresponding header.">
<polygon fill="none" stroke="black" points="153.5,-0.5 153.5,-19.5 255.5,-19.5 255.5,-0.5 153.5,-0.5"/>
<text text-anchor="middle" x="204.5" y="-7.5" font-family="Helvetica,sans-Serif" font-size="10.00">OrderDirector.cpp</text>
</a>
</g>
</g>
<!-- Node2&#45;&gt;Node4 -->
<g id="edge3" class="edge">
<title>Node2&#45;&gt;Node4</title>
<path fill="none" stroke="midnightblue" d="M154.54,-50.1C166.96,-40.38 182.74,-28.03 193.21,-19.83"/>
<polygon fill="midnightblue" stroke="midnightblue" points="152.3,-47.4 146.59,-56.32 156.62,-52.92 152.3,-47.4"/>
</g>
</g>
</svg>
