<?xml version="1.0" encoding="UTF-8" standalone="no"?>
<!DOCTYPE svg PUBLIC "-//W3C//DTD SVG 1.1//EN"
 "http://www.w3.org/Graphics/SVG/1.1/DTD/svg11.dtd">
<!-- Generated by graphviz version 2.43.0 (0)
 -->
<!-- Title: OrderBuilder.cpp Pages: 1 -->
<svg width="313pt" height="252pt"
 viewBox="0.00 0.00 312.50 252.00" xmlns="http://www.w3.org/2000/svg" xmlns:xlink="http://www.w3.org/1999/xlink">
<g id="graph0" class="graph" transform="scale(1 1) rotate(0) translate(4 248)">
<title>OrderBuilder.cpp</title>
<!-- Node1 -->
<g id="node1" class="node">
<title>Node1</title>
<g id="a_node1"><a xlink:title="Implements the OrderBuilder behaviour defined in the corresponding header.">
<polygon fill="#bfbfbf" stroke="black" points="85,-224.5 85,-243.5 183,-243.5 183,-224.5 85,-224.5"/>
<text text-anchor="middle" x="134" y="-231.5" font-family="Helvetica,sans-Serif" font-size="10.00">OrderBuilder.cpp</text>
</a>
</g>
</g>
<!-- Node2 -->
<g id="node2" class="node">
<title>Node2</title>
<g id="a_node2"><a xlink:href="OrderBuilder_8h.html" target="_top" xlink:title="The abstract &#39;Builder&#39; interface.">
<polygon fill="none" stroke="black" points="0,-168.5 0,-187.5 134,-187.5 134,-168.5 0,-168.5"/>
<text text-anchor="middle" x="67" y="-175.5" font-family="Helvetica,sans-Serif" font-size="10.00">../include/OrderBuilder.h</text>
</a>
</g>
</g>
<!-- Node1&#45;&gt;Node2 -->
<g id="edge1" class="edge">
<title>Node1&#45;&gt;Node2</title>
<path fill="none" stroke="midnightblue" d="M123.24,-224.32C113.23,-216.26 98.11,-204.08 86.07,-194.37"/>
<polygon fill="midnightblue" stroke="midnightblue" points="87.94,-191.38 77.96,-187.83 83.55,-196.83 87.94,-191.38"/>
</g>
<!-- Node5 -->
<g id="node5" class="node">
<title>Node5</title>
<g id="a_node5"><a xlink:href="Order_8h.html" target="_top" xlink:title="The complex &#39;Product&#39; of the Builder pattern.">
<polygon fill="none" stroke="black" points="152.5,-168.5 152.5,-187.5 251.5,-187.5 251.5,-168.5 152.5,-168.5"/>
<text text-anchor="middle" x="202" y="-175.5" font-family="Helvetica,sans-Serif" font-size="10.00">../include/Order.h</text>
</a>
</g>
</g>
<!-- Node1&#45;&gt;Node5 -->
<g id="edge4" class="edge">
<title>Node1&#45;&gt;Node5</title>
<path fill="none" stroke="midnightblue" d="M144.93,-224.32C155.17,-216.18 170.72,-203.84 183,-194.09"/>
<polygon fill="midnightblue" stroke="midnightblue" points="185.22,-196.79 190.88,-187.83 180.87,-191.31 185.22,-196.79"/>
</g>
<!-- Node3 -->
<g id="node3" class="node">
<title>Node3</title>
<g id="a_node3"><a xlink:title=" ">
<polygon fill="none" stroke="#bfbfbf" points="131,-0.5 131,-19.5 175,-19.5 175,-0.5 131,-0.5"/>
<text text-anchor="middle" x="153" y="-7.5" font-family="Helvetica,sans-Serif" font-size="10.00">string</text>
</a>
</g>
</g>
<!-- Node2&#45;&gt;Node3 -->
<g id="edge2" class="edge">
<title>Node2&#45;&gt;Node3</title>
<path fill="none" stroke="midnightblue" d="M58.78,-168.08C48.21,-155.47 32.21,-131.77 41,-112 58.7,-72.2 100.71,-41.47 127.94,-24.83"/>
<polygon fill="midnightblue" stroke="midnightblue" points="130.07,-27.64 136.9,-19.54 126.51,-21.62 130.07,-27.64"/>
</g>
<!-- Node4 -->
<g id="node4" class="node">
<title>Node4</title>
<g id="a_node4"><a xlink:title=" ">
<polygon fill="none" stroke="#bfbfbf" points="50,-112.5 50,-131.5 108,-131.5 108,-112.5 50,-112.5"/>
<text text-anchor="middle" x="79" y="-119.5" font-family="Helvetica,sans-Serif" font-size="10.00">memory</text>
</a>
</g>
</g>
<!-- Node2&#45;&gt;Node4 -->
<g id="edge3" class="edge">
<title>Node2&#45;&gt;Node4</title>
<path fill="none" stroke="midnightblue" d="M68.98,-168.08C70.57,-160.93 72.86,-150.64 74.85,-141.69"/>
<polygon fill="midnightblue" stroke="midnightblue" points="78.3,-142.27 77.06,-131.75 71.47,-140.75 78.3,-142.27"/>
</g>
<!-- Node5&#45;&gt;Node3 -->
<g id="edge11" class="edge">
<title>Node5&#45;&gt;Node3</title>
<path fill="none" stroke="midnightblue" d="M188.75,-168.46C177.72,-160.51 162.78,-147.57 156,-132 141.37,-98.4 145.28,-54.43 149.26,-29.81"/>
<polygon fill="midnightblue" stroke="midnightblue" points="152.76,-30.15 151.08,-19.69 145.87,-28.91 152.76,-30.15"/>
</g>
<!-- Node6 -->
<g id="node6" class="node">
<title>Node6</title>
<g id="a_node6"><a xlink:href="StockItem_8h.html" target="_top" xlink:title="Represents an inventory entry and observes plant availability.">
<polygon fill="none" stroke="black" points="164.5,-112.5 164.5,-131.5 239.5,-131.5 239.5,-112.5 164.5,-112.5"/>
<text text-anchor="middle" x="202" y="-119.5" font-family="Helvetica,sans-Serif" font-size="10.00">StockItem.h</text>
</a>
</g>
</g>
<!-- Node5&#45;&gt;Node6 -->
<g id="edge5" class="edge">
<title>Node5&#45;&gt;Node6</title>
<path fill="none" stroke="midnightblue" d="M202,-168.08C202,-161.01 202,-150.86 202,-141.99"/>
<polygon fill="midnightblue" stroke="midnightblue" points="205.5,-141.75 202,-131.75 198.5,-141.75 205.5,-141.75"/>
</g>
<!-- Node9 -->
<g id="node9" class="node">
<title>Node9</title>
<g id="a_node9"><a xlink:title=" ">
<polygon fill="none" stroke="#bfbfbf" points="257.5,-112.5 257.5,-131.5 304.5,-131.5 304.5,-112.5 257.5,-112.5"/>
<text text-anchor="middle" x="281" y="-119.5" font-family="Helvetica,sans-Serif" font-size="10.00">vector</text>
</a>
</g>
</g>
<!-- Node5&#45;&gt;Node9 -->
<g id="edge10" class="edge">
<title>Node5&#45;&gt;Node9</title>
<path fill="none" stroke="midnightblue" d="M214.69,-168.32C226.9,-159.98 245.58,-147.21 260,-137.35"/>
<polygon fill="midnightblue" stroke="midnightblue" points="262.06,-140.19 268.34,-131.65 258.11,-134.41 262.06,-140.19"/>
</g>
<!-- Node6&#45;&gt;Node3 -->
<g id="edge6" class="edge">
<title>Node6&#45;&gt;Node3</title>
<path fill="none" stroke="midnightblue" d="M198.16,-112.37C190.18,-94.46 171.67,-52.92 161,-28.95"/>
<polygon fill="midnightblue" stroke="midnightblue" points="164.09,-27.3 156.83,-19.59 157.7,-30.15 164.09,-27.3"/>
</g>
<!-- Node7 -->
<g id="node7" class="node">
<title>Node7</title>
<g id="a_node7"><a xlink:href="Observer_8h.html" target="_top" xlink:title="Declares the Observer contract and shared event payload.">
<polygon fill="none" stroke="black" points="202.5,-56.5 202.5,-75.5 271.5,-75.5 271.5,-56.5 202.5,-56.5"/>
<text text-anchor="middle" x="237" y="-63.5" font-family="Helvetica,sans-Serif" font-size="10.00">Observer.h</text>
</a>
</g>
</g>
<!-- Node6&#45;&gt;Node7 -->
<g id="edge7" class="edge">
<title>Node6&#45;&gt;Node7</title>
<path fill="none" stroke="midnightblue" d="M207.78,-112.08C212.67,-104.53 219.83,-93.49 225.83,-84.23"/>
<polygon fill="midnightblue" stroke="midnightblue" points="228.83,-86.05 231.33,-75.75 222.95,-82.24 228.83,-86.05"/>
</g>
<!-- Node7&#45;&gt;Node3 -->
<g id="edge9" class="edge">
<title>Node7&#45;&gt;Node3</title>
<path fill="none" stroke="midnightblue" d="M223.5,-56.32C210.4,-47.9 190.29,-34.97 174.89,-25.07"/>
<polygon fill="midnightblue" stroke="midnightblue" points="176.77,-22.12 166.46,-19.65 172.98,-28.01 176.77,-22.12"/>
</g>
<!-- Node8 -->
<g id="node8" class="node">
<title>Node8</title>
<g id="a_node8"><a xlink:title=" ">
<polygon fill="none" stroke="#bfbfbf" points="209,-0.5 209,-19.5 265,-19.5 265,-0.5 209,-0.5"/>
<text text-anchor="middle" x="237" y="-7.5" font-family="Helvetica,sans-Serif" font-size="10.00">optional</text>
</a>
</g>
</g>
<!-- Node7&#45;&gt;Node8 -->
<g id="edge8" class="edge">
<title>Node7&#45;&gt;Node8</title>
<path fill="none" stroke="midnightblue" d="M237,-56.08C237,-49.01 237,-38.86 237,-29.99"/>
<polygon fill="midnightblue" stroke="midnightblue" points="240.5,-29.75 237,-19.75 233.5,-29.75 240.5,-29.75"/>
</g>
</g>
</svg>
