<?xml version="1.0" encoding="UTF-8" standalone="no"?>
<!DOCTYPE svg PUBLIC "-//W3C//DTD SVG 1.1//EN"
 "http://www.w3.org/Graphics/SVG/1.1/DTD/svg11.dtd">
<!-- Generated by graphviz version 2.43.0 (0)
 -->
<!-- Title: Order.cpp Pages: 1 -->
<svg width="272pt" height="252pt"
 viewBox="0.00 0.00 271.50 252.00" xmlns="http://www.w3.org/2000/svg" xmlns:xlink="http://www.w3.org/1999/xlink">
<g id="graph0" class="graph" transform="scale(1 1) rotate(0) translate(4 248)">
<title>Order.cpp</title>
<!-- Node1 -->
<g id="node1" class="node">
<title>Node1</title>
<g id="a_node1"><a xlink:title="Implements the Order behaviour defined in the corresponding header.">
<polygon fill="#bfbfbf" stroke="black" points="153,-224.5 153,-243.5 216,-243.5 216,-224.5 153,-224.5"/>
<text text-anchor="middle" x="184.5" y="-231.5" font-family="Helvetica,sans-Serif" font-size="10.00">Order.cpp</text>
</a>
</g>
</g>
<!-- Node2 -->
<g id="node2" class="node">
<title>Node2</title>
<g id="a_node2"><a xlink:href="Order_8h.html" target="_top" xlink:title="The complex &#39;Product&#39; of the Builder pattern.">
<polygon fill="none" stroke="black" points="86,-168.5 86,-187.5 185,-187.5 185,-168.5 86,-168.5"/>
<text text-anchor="middle" x="135.5" y="-175.5" font-family="Helvetica,sans-Serif" font-size="10.00">../include/Order.h</text>
</a>
</g>
</g>
<!-- Node1&#45;&gt;Node2 -->
<g id="edge1" class="edge">
<title>Node1&#45;&gt;Node2</title>
<path fill="none" stroke="midnightblue" d="M176.41,-224.08C169.34,-216.3 158.91,-204.8 150.35,-195.37"/>
<polygon fill="midnightblue" stroke="midnightblue" points="152.75,-192.8 143.44,-187.75 147.57,-197.51 152.75,-192.8"/>
</g>
<!-- Node8 -->
<g id="node8" class="node">
<title>Node8</title>
<g id="a_node8"><a xlink:title=" ">
<polygon fill="none" stroke="#bfbfbf" points="203.5,-168.5 203.5,-187.5 263.5,-187.5 263.5,-168.5 203.5,-168.5"/>
<text text-anchor="middle" x="233.5" y="-175.5" font-family="Helvetica,sans-Serif" font-size="10.00">iostream</text>
</a>
</g>
</g>
<!-- Node1&#45;&gt;Node8 -->
<g id="edge9" class="edge">
<title>Node1&#45;&gt;Node8</title>
<path fill="none" stroke="midnightblue" d="M192.59,-224.08C199.66,-216.3 210.09,-204.8 218.65,-195.37"/>
<polygon fill="midnightblue" stroke="midnightblue" points="221.43,-197.51 225.56,-187.75 216.25,-192.8 221.43,-197.51"/>
</g>
<!-- Node3 -->
<g id="node3" class="node">
<title>Node3</title>
<g id="a_node3"><a xlink:href="StockItem_8h.html" target="_top" xlink:title="Represents an inventory entry and observes plant availability.">
<polygon fill="none" stroke="black" points="32,-112.5 32,-131.5 107,-131.5 107,-112.5 32,-112.5"/>
<text text-anchor="middle" x="69.5" y="-119.5" font-family="Helvetica,sans-Serif" font-size="10.00">StockItem.h</text>
</a>
</g>
</g>
<!-- Node2&#45;&gt;Node3 -->
<g id="edge2" class="edge">
<title>Node2&#45;&gt;Node3</title>
<path fill="none" stroke="midnightblue" d="M124.9,-168.32C115.04,-160.26 100.15,-148.08 88.28,-138.37"/>
<polygon fill="midnightblue" stroke="midnightblue" points="90.25,-135.46 80.3,-131.83 85.82,-140.88 90.25,-135.46"/>
</g>
<!-- Node4 -->
<g id="node4" class="node">
<title>Node4</title>
<g id="a_node4"><a xlink:title=" ">
<polygon fill="none" stroke="#bfbfbf" points="78.5,-0.5 78.5,-19.5 122.5,-19.5 122.5,-0.5 78.5,-0.5"/>
<text text-anchor="middle" x="100.5" y="-7.5" font-family="Helvetica,sans-Serif" font-size="10.00">string</text>
</a>
</g>
</g>
<!-- Node2&#45;&gt;Node4 -->
<g id="edge8" class="edge">
<title>Node2&#45;&gt;Node4</title>
<path fill="none" stroke="midnightblue" d="M133.62,-168.08C128.11,-141.95 111.93,-65.21 104.42,-29.58"/>
<polygon fill="midnightblue" stroke="midnightblue" points="107.79,-28.63 102.31,-19.57 100.94,-30.08 107.79,-28.63"/>
</g>
<!-- Node7 -->
<g id="node7" class="node">
<title>Node7</title>
<g id="a_node7"><a xlink:title=" ">
<polygon fill="none" stroke="#bfbfbf" points="164,-112.5 164,-131.5 211,-131.5 211,-112.5 164,-112.5"/>
<text text-anchor="middle" x="187.5" y="-119.5" font-family="Helvetica,sans-Serif" font-size="10.00">vector</text>
</a>
</g>
</g>
<!-- Node2&#45;&gt;Node7 -->
<g id="edge7" class="edge">
<title>Node2&#45;&gt;Node7</title>
<path fill="none" stroke="midnightblue" d="M144.09,-168.08C151.66,-160.22 162.88,-148.57 172.01,-139.08"/>
<polygon fill="midnightblue" stroke="midnightblue" points="174.66,-141.38 179.07,-131.75 169.62,-136.53 174.66,-141.38"/>
</g>
<!-- Node3&#45;&gt;Node4 -->
<g id="edge3" class="edge">
<title>Node3&#45;&gt;Node4</title>
<path fill="none" stroke="midnightblue" d="M71.93,-112.37C76.96,-94.54 88.58,-53.3 95.35,-29.27"/>
<polygon fill="midnightblue" stroke="midnightblue" points="98.73,-30.17 98.08,-19.59 92,-28.27 98.73,-30.17"/>
</g>
<!-- Node5 -->
<g id="node5" class="node">
<title>Node5</title>
<g id="a_node5"><a xlink:href="Observer_8h.html" target="_top" xlink:title="Declares the Observer contract and shared event payload.">
<polygon fill="none" stroke="black" points="0,-56.5 0,-75.5 69,-75.5 69,-56.5 0,-56.5"/>
<text text-anchor="middle" x="34.5" y="-63.5" font-family="Helvetica,sans-Serif" font-size="10.00">Observer.h</text>
</a>
</g>
</g>
<!-- Node3&#45;&gt;Node5 -->
<g id="edge4" class="edge">
<title>Node3&#45;&gt;Node5</title>
<path fill="none" stroke="midnightblue" d="M63.72,-112.08C58.83,-104.53 51.67,-93.49 45.67,-84.23"/>
<polygon fill="midnightblue" stroke="midnightblue" points="48.55,-82.24 40.17,-75.75 42.67,-86.05 48.55,-82.24"/>
</g>
<!-- Node5&#45;&gt;Node4 -->
<g id="edge6" class="edge">
<title>Node5&#45;&gt;Node4</title>
<path fill="none" stroke="midnightblue" d="M45.1,-56.32C54.96,-48.26 69.85,-36.08 81.72,-26.37"/>
<polygon fill="midnightblue" stroke="midnightblue" points="84.18,-28.88 89.7,-19.83 79.75,-23.46 84.18,-28.88"/>
</g>
<!-- Node6 -->
<g id="node6" class="node">
<title>Node6</title>
<g id="a_node6"><a xlink:title=" ">
<polygon fill="none" stroke="#bfbfbf" points="4.5,-0.5 4.5,-19.5 60.5,-19.5 60.5,-0.5 4.5,-0.5"/>
<text text-anchor="middle" x="32.5" y="-7.5" font-family="Helvetica,sans-Serif" font-size="10.00">optional</text>
</a>
</g>
</g>
<!-- Node5&#45;&gt;Node6 -->
<g id="edge5" class="edge">
<title>Node5&#45;&gt;Node6</title>
<path fill="none" stroke="midnightblue" d="M34.17,-56.08C33.91,-49.01 33.53,-38.86 33.2,-29.99"/>
<polygon fill="midnightblue" stroke="midnightblue" points="36.69,-29.61 32.82,-19.75 29.7,-29.87 36.69,-29.61"/>
</g>
</g>
</svg>
