<?xml version="1.0" encoding="UTF-8" standalone="no"?>
<!DOCTYPE svg PUBLIC "-//W3C//DTD SVG 1.1//EN"
 "http://www.w3.org/Graphics/SVG/1.1/DTD/svg11.dtd">
<!-- Generated by graphviz version 2.43.0 (0)
 -->
<!-- Title: OrderDirector.cpp Pages: 1 -->
<!--zoomable 252 -->
<svg id="main" version="1.1" xmlns="http://www.w3.org/2000/svg" xmlns:xlink="http://www.w3.org/1999/xlink" xml:space="preserve" onload="init(evt)">
<style type="text/css"><![CDATA[
.edge:hover path { stroke: red; }
.edge:hover polygon { stroke: red; fill: red; }
]]></style>
<script type="text/javascript"><![CDATA[
var edges = document.getElementsByTagName('g');
if (edges && edges.length) {
  for (var i=0;i<edges.length;i++) {
    if (edges[i].id.substr(0,4)=='edge') {
      edges[i].setAttribute('class','edge');
    }
  }
}
]]></script>
        <defs>
                <circle id="rim" cx="0" cy="0" r="7"/>
                <circle id="rim2" cx="0" cy="0" r="3.5"/>
                <g id="zoomPlus">
                        <use xlink:href="#rim" fill="#404040">
                                <set attributeName="fill" to="#808080" begin="zoomplus.mouseover" end="zoomplus.mouseout"/>
                        </use>
                        <path d="M-4,0h8M0,-4v8" fill="none" stroke="white" stroke-width="1.5" pointer-events="none"/>
                </g>
                <g id="zoomMin">
                        <use xlink:href="#rim" fill="#404040">
                                <set attributeName="fill" to="#808080" begin="zoomminus.mouseover" end="zoomminus.mouseout"/>
                        </use>
                        <path d="M-4,0h8" fill="none" stroke="white" stroke-width="1.5" pointer-events="none"/>
                </g>
                <g id="dirArrow">
                        <path fill="none" stroke="white" stroke-width="1.5" d="M0,-3.0v7 M-2.5,-0.5L0,-3.0L2.5,-0.5"/>
                </g>
               <g id="resetDef">
                       <use xlink:href="#rim2" fill="#404040">
                               <set attributeName="fill" to="#808080" begin="reset.mouseover" end="reset.mouseout"/>
                       </use>
               </g>
        </defs>

<script type="text/javascript">
var viewWidth = 866;
var viewHeight = 252;
var sectionId = 'dynsection-0';
</script>
<script xlink:href="svgpan.js"/>
<svg id="graph" class="graph">
<g id="viewport">
<title>OrderDirector.cpp</title>
<!-- Node1 -->
<g id="node1" class="node">
<title>Node1</title>
<g id="a_node1"><a xlink:title="Implements the OrderDirector behaviour defined in the corresponding header.">
<polygon fill="#bfbfbf" stroke="black" points="269,-224.5 269,-243.5 371,-243.5 371,-224.5 269,-224.5"/>
<text text-anchor="middle" x="320" y="-231.5" font-family="Helvetica,sans-Serif" font-size="10.00">OrderDirector.cpp</text>
</a>
</g>
</g>
<!-- Node2 -->
<g id="node2" class="node">
<title>Node2</title>
<g id="a_node2"><a xlink:href="OrderDirector_8h.html" target="_top" xlink:title="The &#39;Director&#39; for the Builder pattern.">
<polygon fill="none" stroke="black" points="0,-168.5 0,-187.5 138,-187.5 138,-168.5 0,-168.5"/>
<text text-anchor="middle" x="69" y="-175.5" font-family="Helvetica,sans-Serif" font-size="10.00">../include/OrderDirector.h</text>
</a>
</g>
</g>
<!-- Node1&#45;&gt;Node2 -->
<g id="edge1" class="edge">
<title>Node1&#45;&gt;Node2</title>
<path fill="none" stroke="midnightblue" d="M280.23,-224.44C236.44,-215.02 165.99,-199.87 118.62,-189.68"/>
<polygon fill="midnightblue" stroke="midnightblue" points="119.1,-186.2 108.59,-187.52 117.63,-193.04 119.1,-186.2"/>
</g>
<!-- Node3 -->
<g id="node3" class="node">
<title>Node3</title>
<g id="a_node3"><a xlink:href="CustomOrderBuilder_8h.html" target="_top" xlink:title="The &#39;ConcreteBuilder&#39; implementation.">
<polygon fill="none" stroke="black" points="311.5,-168.5 311.5,-187.5 482.5,-187.5 482.5,-168.5 311.5,-168.5"/>
<text text-anchor="middle" x="397" y="-175.5" font-family="Helvetica,sans-Serif" font-size="10.00">../include/CustomOrderBuilder.h</text>
</a>
</g>
</g>
<!-- Node1&#45;&gt;Node3 -->
<g id="edge2" class="edge">
<title>Node1&#45;&gt;Node3</title>
<path fill="none" stroke="midnightblue" d="M332.37,-224.32C344.16,-216.06 362.13,-203.45 376.14,-193.63"/>
<polygon fill="midnightblue" stroke="midnightblue" points="378.48,-196.26 384.66,-187.65 374.46,-190.53 378.48,-196.26"/>
</g>
<!-- Node7 -->
<g id="node7" class="node">
<title>Node7</title>
<g id="a_node7"><a xlink:href="Order_8h.html" target="_top" xlink:title="The complex &#39;Product&#39; of the Builder pattern.">
<polygon fill="none" stroke="black" points="194.5,-168.5 194.5,-187.5 293.5,-187.5 293.5,-168.5 194.5,-168.5"/>
<text text-anchor="middle" x="244" y="-175.5" font-family="Helvetica,sans-Serif" font-size="10.00">../include/Order.h</text>
</a>
</g>
</g>
<!-- Node1&#45;&gt;Node7 -->
<g id="edge7" class="edge">
<title>Node1&#45;&gt;Node7</title>
<path fill="none" stroke="midnightblue" d="M307.79,-224.32C296.22,-216.11 278.62,-203.6 264.84,-193.81"/>
<polygon fill="midnightblue" stroke="midnightblue" points="266.61,-190.77 256.43,-187.83 262.56,-196.48 266.61,-190.77"/>
</g>
<!-- Node8 -->
<g id="node8" class="node">
<title>Node8</title>
<g id="a_node8"><a xlink:href="StockItem_8h.html" target="_top" xlink:title="Represents an inventory entry and observes plant availability.">
<polygon fill="none" stroke="black" points="128.5,-112.5 128.5,-131.5 203.5,-131.5 203.5,-112.5 128.5,-112.5"/>
<text text-anchor="middle" x="166" y="-119.5" font-family="Helvetica,sans-Serif" font-size="10.00">StockItem.h</text>
</a>
</g>
</g>
<!-- Node1&#45;&gt;Node8 -->
<g id="edge15" class="edge">
<title>Node1&#45;&gt;Node8</title>
<path fill="none" stroke="midnightblue" d="M268.95,-227.58C240.69,-222.02 206.94,-210.77 185,-188 173.16,-175.71 168.64,-156.45 166.94,-142.08"/>
<polygon fill="midnightblue" stroke="midnightblue" points="170.41,-141.52 166.1,-131.84 163.43,-142.09 170.41,-141.52"/>
</g>
<!-- Node12 -->
<g id="node12" class="node">
<title>Node12</title>
<g id="a_node12"><a xlink:href="PlantInstance_8h.html" target="_top" xlink:title="Represents a single, physical plant in the nursery.">
<polygon fill="none" stroke="black" points="500.5,-168.5 500.5,-187.5 639.5,-187.5 639.5,-168.5 500.5,-168.5"/>
<text text-anchor="middle" x="570" y="-175.5" font-family="Helvetica,sans-Serif" font-size="10.00">../include/PlantInstance.h</text>
</a>
</g>
</g>
<!-- Node1&#45;&gt;Node12 -->
<g id="edge16" class="edge">
<title>Node1&#45;&gt;Node12</title>
<path fill="none" stroke="midnightblue" d="M359.61,-224.44C403.23,-215.02 473.4,-199.87 520.58,-189.68"/>
<polygon fill="midnightblue" stroke="midnightblue" points="521.54,-193.05 530.57,-187.52 520.06,-186.21 521.54,-193.05"/>
</g>
<!-- Node17 -->
<g id="node17" class="node">
<title>Node17</title>
<g id="a_node17"><a xlink:title=" ">
<polygon fill="none" stroke="#bfbfbf" points="658,-168.5 658,-187.5 718,-187.5 718,-168.5 658,-168.5"/>
<text text-anchor="middle" x="688" y="-175.5" font-family="Helvetica,sans-Serif" font-size="10.00">iostream</text>
</a>
</g>
</g>
<!-- Node1&#45;&gt;Node17 -->
<g id="edge27" class="edge">
<title>Node1&#45;&gt;Node17</title>
<path fill="none" stroke="midnightblue" d="M371.24,-227.45C434.12,-220.32 544.18,-206.79 647.82,-188.08"/>
<polygon fill="midnightblue" stroke="midnightblue" points="648.61,-191.49 657.82,-186.25 647.36,-184.6 648.61,-191.49"/>
</g>
<!-- Node4 -->
<g id="node4" class="node">
<title>Node4</title>
<g id="a_node4"><a xlink:href="OrderBuilder_8h.html" target="_top" xlink:title="The abstract &#39;Builder&#39; interface.">
<polygon fill="none" stroke="black" points="444,-112.5 444,-131.5 530,-131.5 530,-112.5 444,-112.5"/>
<text text-anchor="middle" x="487" y="-119.5" font-family="Helvetica,sans-Serif" font-size="10.00">OrderBuilder.h</text>
</a>
</g>
</g>
<!-- Node3&#45;&gt;Node4 -->
<g id="edge3" class="edge">
<title>Node3&#45;&gt;Node4</title>
<path fill="none" stroke="midnightblue" d="M411.46,-168.32C425.5,-159.9 447.05,-146.97 463.54,-137.07"/>
<polygon fill="midnightblue" stroke="midnightblue" points="465.8,-139.8 472.58,-131.65 462.2,-133.8 465.8,-139.8"/>
</g>
<!-- Node5 -->
<g id="node5" class="node">
<title>Node5</title>
<g id="a_node5"><a xlink:title=" ">
<polygon fill="none" stroke="#bfbfbf" points="377,-0.5 377,-19.5 421,-19.5 421,-0.5 377,-0.5"/>
<text text-anchor="middle" x="399" y="-7.5" font-family="Helvetica,sans-Serif" font-size="10.00">string</text>
</a>
</g>
</g>
<!-- Node3&#45;&gt;Node5 -->
<g id="edge6" class="edge">
<title>Node3&#45;&gt;Node5</title>
<path fill="none" stroke="midnightblue" d="M384.79,-168.24C374.65,-160.14 360.96,-147.11 355,-132 340.39,-94.94 367.45,-50.83 385.24,-27.45"/>
<polygon fill="midnightblue" stroke="midnightblue" points="388.02,-29.58 391.5,-19.57 382.54,-25.23 388.02,-29.58"/>
</g>
<!-- Node4&#45;&gt;Node5 -->
<g id="edge4" class="edge">
<title>Node4&#45;&gt;Node5</title>
<path fill="none" stroke="midnightblue" d="M480.09,-112.37C465.51,-94.14 431.34,-51.43 412.34,-27.68"/>
<polygon fill="midnightblue" stroke="midnightblue" points="414.85,-25.21 405.87,-19.59 409.39,-29.59 414.85,-25.21"/>
</g>
<!-- Node6 -->
<g id="node6" class="node">
<title>Node6</title>
<g id="a_node6"><a xlink:title=" ">
<polygon fill="none" stroke="#bfbfbf" points="529,-56.5 529,-75.5 587,-75.5 587,-56.5 529,-56.5"/>
<text text-anchor="middle" x="558" y="-63.5" font-family="Helvetica,sans-Serif" font-size="10.00">memory</text>
</a>
</g>
</g>
<!-- Node4&#45;&gt;Node6 -->
<g id="edge5" class="edge">
<title>Node4&#45;&gt;Node6</title>
<path fill="none" stroke="midnightblue" d="M498.41,-112.32C509.11,-104.18 525.34,-91.84 538.16,-82.09"/>
<polygon fill="midnightblue" stroke="midnightblue" points="540.54,-84.67 546.39,-75.83 536.31,-79.1 540.54,-84.67"/>
</g>
<!-- Node7&#45;&gt;Node5 -->
<g id="edge14" class="edge">
<title>Node7&#45;&gt;Node5</title>
<path fill="none" stroke="midnightblue" d="M242.93,-168.28C241.75,-155.08 241.26,-129.69 252,-112 278.69,-68.04 332.63,-38.6 367.22,-23.35"/>
<polygon fill="midnightblue" stroke="midnightblue" points="369.03,-26.39 376.86,-19.25 366.29,-19.95 369.03,-26.39"/>
</g>
<!-- Node7&#45;&gt;Node8 -->
<g id="edge8" class="edge">
<title>Node7&#45;&gt;Node8</title>
<path fill="none" stroke="midnightblue" d="M231.47,-168.32C219.41,-159.98 200.97,-147.21 186.73,-137.35"/>
<polygon fill="midnightblue" stroke="midnightblue" points="188.72,-134.47 178.5,-131.65 184.73,-140.22 188.72,-134.47"/>
</g>
<!-- Node11 -->
<g id="node11" class="node">
<title>Node11</title>
<g id="a_node11"><a xlink:title=" ">
<polygon fill="none" stroke="#bfbfbf" points="260.5,-112.5 260.5,-131.5 307.5,-131.5 307.5,-112.5 260.5,-112.5"/>
<text text-anchor="middle" x="284" y="-119.5" font-family="Helvetica,sans-Serif" font-size="10.00">vector</text>
</a>
</g>
</g>
<!-- Node7&#45;&gt;Node11 -->
<g id="edge13" class="edge">
<title>Node7&#45;&gt;Node11</title>
<path fill="none" stroke="midnightblue" d="M250.61,-168.08C256.26,-160.46 264.54,-149.26 271.45,-139.94"/>
<polygon fill="midnightblue" stroke="midnightblue" points="274.38,-141.87 277.52,-131.75 268.75,-137.7 274.38,-141.87"/>
</g>
<!-- Node8&#45;&gt;Node5 -->
<g id="edge9" class="edge">
<title>Node8&#45;&gt;Node5</title>
<path fill="none" stroke="midnightblue" d="M172.8,-112.45C184.32,-98.53 209.06,-71.03 236,-56 277.94,-32.6 332.83,-20.73 367,-15.21"/>
<polygon fill="midnightblue" stroke="midnightblue" points="367.55,-18.67 376.9,-13.7 366.49,-11.75 367.55,-18.67"/>
</g>
<!-- Node9 -->
<g id="node9" class="node">
<title>Node9</title>
<g id="a_node9"><a xlink:href="Observer_8h.html" target="_top" xlink:title="Declares the Observer contract and shared event payload.">
<polygon fill="none" stroke="black" points="114.5,-56.5 114.5,-75.5 183.5,-75.5 183.5,-56.5 114.5,-56.5"/>
<text text-anchor="middle" x="149" y="-63.5" font-family="Helvetica,sans-Serif" font-size="10.00">Observer.h</text>
</a>
</g>
</g>
<!-- Node8&#45;&gt;Node9 -->
<g id="edge10" class="edge">
<title>Node8&#45;&gt;Node9</title>
<path fill="none" stroke="midnightblue" d="M163.19,-112.08C160.92,-104.85 157.63,-94.41 154.79,-85.4"/>
<polygon fill="midnightblue" stroke="midnightblue" points="158.1,-84.24 151.75,-75.75 151.42,-86.34 158.1,-84.24"/>
</g>
<!-- Node9&#45;&gt;Node5 -->
<g id="edge12" class="edge">
<title>Node9&#45;&gt;Node5</title>
<path fill="none" stroke="midnightblue" d="M183.76,-57.49C232.28,-47.01 319.65,-28.14 366.77,-17.96"/>
<polygon fill="midnightblue" stroke="midnightblue" points="367.7,-21.34 376.74,-15.81 366.23,-14.5 367.7,-21.34"/>
</g>
<!-- Node10 -->
<g id="node10" class="node">
<title>Node10</title>
<g id="a_node10"><a xlink:title=" ">
<polygon fill="none" stroke="#bfbfbf" points="121,-0.5 121,-19.5 177,-19.5 177,-0.5 121,-0.5"/>
<text text-anchor="middle" x="149" y="-7.5" font-family="Helvetica,sans-Serif" font-size="10.00">optional</text>
</a>
</g>
</g>
<!-- Node9&#45;&gt;Node10 -->
<g id="edge11" class="edge">
<title>Node9&#45;&gt;Node10</title>
<path fill="none" stroke="midnightblue" d="M149,-56.08C149,-49.01 149,-38.86 149,-29.99"/>
<polygon fill="midnightblue" stroke="midnightblue" points="152.5,-29.75 149,-19.75 145.5,-29.75 152.5,-29.75"/>
</g>
<!-- Node12&#45;&gt;Node5 -->
<g id="edge26" class="edge">
<title>Node12&#45;&gt;Node5</title>
<path fill="none" stroke="midnightblue" d="M629.66,-168.45C671.44,-161.1 722.02,-148.99 735,-132 740.4,-124.94 739.69,-119.55 735,-112 702.33,-59.35 509.41,-26.6 431.55,-15.37"/>
<polygon fill="midnightblue" stroke="midnightblue" points="431.75,-11.86 421.36,-13.93 430.77,-18.79 431.75,-11.86"/>
</g>
<!-- Node12&#45;&gt;Node6 -->
<g id="edge25" class="edge">
<title>Node12&#45;&gt;Node6</title>
<path fill="none" stroke="midnightblue" d="M569.06,-168.37C567.12,-150.62 562.65,-109.67 560.03,-85.6"/>
<polygon fill="midnightblue" stroke="midnightblue" points="563.5,-85.15 558.94,-75.59 556.54,-85.91 563.5,-85.15"/>
</g>
<!-- Node13 -->
<g id="node13" class="node">
<title>Node13</title>
<g id="a_node13"><a xlink:href="GreenhouseComponent_8h.html" target="_top" xlink:title="The abstract &#39;Component&#39; interface for the Composite pattern.">
<polygon fill="none" stroke="black" points="586,-112.5 586,-131.5 726,-131.5 726,-112.5 586,-112.5"/>
<text text-anchor="middle" x="656" y="-119.5" font-family="Helvetica,sans-Serif" font-size="10.00">GreenhouseComponent.h</text>
</a>
</g>
</g>
<!-- Node12&#45;&gt;Node13 -->
<g id="edge17" class="edge">
<title>Node12&#45;&gt;Node13</title>
<path fill="none" stroke="midnightblue" d="M583.82,-168.32C597.23,-159.9 617.82,-146.97 633.59,-137.07"/>
<polygon fill="midnightblue" stroke="midnightblue" points="635.61,-139.94 642.22,-131.65 631.89,-134.01 635.61,-139.94"/>
</g>
<!-- Node14 -->
<g id="node14" class="node">
<title>Node14</title>
<g id="a_node14"><a xlink:href="PlantState_8h.html" target="_top" xlink:title="Abstract base class describing the lifecycle state of a plant.">
<polygon fill="none" stroke="black" points="782,-56.5 782,-75.5 858,-75.5 858,-56.5 782,-56.5"/>
<text text-anchor="middle" x="820" y="-63.5" font-family="Helvetica,sans-Serif" font-size="10.00">PlantState.h</text>
</a>
</g>
</g>
<!-- Node12&#45;&gt;Node14 -->
<g id="edge20" class="edge">
<title>Node12&#45;&gt;Node14</title>
<path fill="none" stroke="midnightblue" d="M626.37,-168.45C676.27,-160.12 744.7,-146.6 768,-132 786.68,-120.29 801.57,-99.45 810.55,-84.52"/>
<polygon fill="midnightblue" stroke="midnightblue" points="813.65,-86.14 815.57,-75.72 807.57,-82.67 813.65,-86.14"/>
</g>
<!-- Node15 -->
<g id="node15" class="node">
<title>Node15</title>
<g id="a_node15"><a xlink:href="Subject_8h.html" target="_top" xlink:title="Declares the Subject base that manages observer subscriptions.">
<polygon fill="none" stroke="black" points="364,-112.5 364,-131.5 426,-131.5 426,-112.5 364,-112.5"/>
<text text-anchor="middle" x="395" y="-119.5" font-family="Helvetica,sans-Serif" font-size="10.00">Subject.h</text>
</a>
</g>
</g>
<!-- Node12&#45;&gt;Node15 -->
<g id="edge22" class="edge">
<title>Node12&#45;&gt;Node15</title>
<path fill="none" stroke="midnightblue" d="M542.27,-168.44C512.57,-159.28 465.28,-144.69 432.33,-134.52"/>
<polygon fill="midnightblue" stroke="midnightblue" points="433.19,-131.12 422.6,-131.52 431.12,-137.81 433.19,-131.12"/>
</g>
<!-- Node13&#45;&gt;Node5 -->
<g id="edge19" class="edge">
<title>Node13&#45;&gt;Node5</title>
<path fill="none" stroke="midnightblue" d="M650.54,-112.29C641.19,-98.14 620.72,-70.32 596,-56 543.61,-25.66 472.33,-15.77 431.43,-12.55"/>
<polygon fill="midnightblue" stroke="midnightblue" points="431.45,-9.05 421.23,-11.84 430.97,-16.03 431.45,-9.05"/>
</g>
<!-- Node13&#45;&gt;Node6 -->
<g id="edge18" class="edge">
<title>Node13&#45;&gt;Node6</title>
<path fill="none" stroke="midnightblue" d="M640.25,-112.32C624.68,-103.74 600.62,-90.49 582.54,-80.52"/>
<polygon fill="midnightblue" stroke="midnightblue" points="584.15,-77.42 573.71,-75.65 580.78,-83.55 584.15,-77.42"/>
</g>
<!-- Node14&#45;&gt;Node5 -->
<g id="edge21" class="edge">
<title>Node14&#45;&gt;Node5</title>
<path fill="none" stroke="midnightblue" d="M781.98,-58.19C777.28,-57.42 772.53,-56.67 768,-56 643.97,-37.72 495.69,-21.27 431.39,-14.4"/>
<polygon fill="midnightblue" stroke="midnightblue" points="431.41,-10.88 421.1,-13.3 430.67,-17.84 431.41,-10.88"/>
</g>
<!-- Node15&#45;&gt;Node9 -->
<g id="edge24" class="edge">
<title>Node15&#45;&gt;Node9</title>
<path fill="none" stroke="midnightblue" d="M363.84,-114.16C320.87,-104.73 243.16,-87.67 193.92,-76.86"/>
<polygon fill="midnightblue" stroke="midnightblue" points="194.38,-73.38 183.86,-74.65 192.88,-80.22 194.38,-73.38"/>
</g>
<!-- Node16 -->
<g id="node16" class="node">
<title>Node16</title>
<g id="a_node16"><a xlink:title=" ">
<polygon fill="none" stroke="#bfbfbf" points="379,-56.5 379,-75.5 411,-75.5 411,-56.5 379,-56.5"/>
<text text-anchor="middle" x="395" y="-63.5" font-family="Helvetica,sans-Serif" font-size="10.00">list</text>
</a>
</g>
</g>
<!-- Node15&#45;&gt;Node16 -->
<g id="edge23" class="edge">
<title>Node15&#45;&gt;Node16</title>
<path fill="none" stroke="midnightblue" d="M395,-112.08C395,-105.01 395,-94.86 395,-85.99"/>
<polygon fill="midnightblue" stroke="midnightblue" points="398.5,-85.75 395,-75.75 391.5,-85.75 398.5,-85.75"/>
</g>
</g>
</svg>
        <g id="navigator" transform="translate(0 0)" fill="#404254">
                <rect fill="#f2f5e9" fill-opacity="0.5" stroke="#606060" stroke-width=".5" x="0" y="0" width="60" height="60"/>
                <use id="zoomplus" xlink:href="#zoomPlus" x="17" y="9" onmousedown="handleZoom(evt,'in')"/>
                <use id="zoomminus" xlink:href="#zoomMin" x="42" y="9" onmousedown="handleZoom(evt,'out')"/>
                <use id="reset" xlink:href="#resetDef" x="30" y="36" onmousedown="handleReset()"/>
                <g id="arrowUp" xlink:href="#dirArrow" transform="translate(30 24)" onmousedown="handlePan(0,-1)">
                  <use xlink:href="#rim" fill="#404040">
                        <set attributeName="fill" to="#808080" begin="arrowUp.mouseover" end="arrowUp.mouseout"/>
                  </use>
                  <path fill="none" stroke="white" stroke-width="1.5" d="M0,-3.0v7 M-2.5,-0.5L0,-3.0L2.5,-0.5"/>
                </g>
                <g id="arrowRight" xlink:href="#dirArrow" transform="rotate(90) translate(36 -43)" onmousedown="handlePan(1,0)">
                  <use xlink:href="#rim" fill="#404040">
                        <set attributeName="fill" to="#808080" begin="arrowRight.mouseover" end="arrowRight.mouseout"/>
                  </use>
                  <path fill="none" stroke="white" stroke-width="1.5" d="M0,-3.0v7 M-2.5,-0.5L0,-3.0L2.5,-0.5"/>
                </g>
                <g id="arrowDown" xlink:href="#dirArrow" transform="rotate(180) translate(-30 -48)" onmousedown="handlePan(0,1)">
                  <use xlink:href="#rim" fill="#404040">
                        <set attributeName="fill" to="#808080" begin="arrowDown.mouseover" end="arrowDown.mouseout"/>
                  </use>
                  <path fill="none" stroke="white" stroke-width="1.5" d="M0,-3.0v7 M-2.5,-0.5L0,-3.0L2.5,-0.5"/>
                </g>
                <g id="arrowLeft" xlink:href="#dirArrow" transform="rotate(270) translate(-36 17)" onmousedown="handlePan(-1,0)">
                  <use xlink:href="#rim" fill="#404040">
                        <set attributeName="fill" to="#808080" begin="arrowLeft.mouseover" end="arrowLeft.mouseout"/>
                  </use>
                  <path fill="none" stroke="white" stroke-width="1.5" d="M0,-3.0v7 M-2.5,-0.5L0,-3.0L2.5,-0.5"/>
                </g>
        </g>
        <svg viewBox="0 0 15 15" width="100%" height="30px" preserveAspectRatio="xMaxYMin meet">
         <g id="arrow_out" transform="scale(0.3 0.3)">
          <a xlink:href="OrderDirector_8cpp__incl_org.svg" target="_base">
           <rect id="button" ry="5" rx="5" y="6" x="6" height="38" width="38"
                fill="#f2f5e9" fill-opacity="0.5" stroke="#606060" stroke-width="1.0"/>
           <path id="arrow"
             d="M 11.500037,31.436501 C 11.940474,20.09759 22.043105,11.32322 32.158766,21.979434 L 37.068811,17.246167 C 37.068811,17.246167 37.088388,32 37.088388,32 L 22.160133,31.978069 C 22.160133,31.978069 26.997745,27.140456 26.997745,27.140456 C 18.528582,18.264221 13.291696,25.230495 11.500037,31.436501 z"
             style="fill:#404040;"/>
          </a>
         </g>
        </svg>
</svg>
