<?xml version="1.0" encoding="UTF-8" standalone="no"?>
<!DOCTYPE svg PUBLIC "-//W3C//DTD SVG 1.1//EN"
 "http://www.w3.org/Graphics/SVG/1.1/DTD/svg11.dtd">
<!-- Generated by graphviz version 2.43.0 (0)
 -->
<!-- Title: Order.h Pages: 1 -->
<svg width="576pt" height="84pt"
 viewBox="0.00 0.00 576.00 84.00" xmlns="http://www.w3.org/2000/svg" xmlns:xlink="http://www.w3.org/1999/xlink">
<g id="graph0" class="graph" transform="scale(1 1) rotate(0) translate(4 80)">
<title>Order.h</title>
<!-- Node1 -->
<g id="node1" class="node">
<title>Node1</title>
<g id="a_node1"><a xlink:title="The complex &#39;Product&#39; of the Builder pattern.">
<polygon fill="#bfbfbf" stroke="black" points="257.5,-56.5 257.5,-75.5 309.5,-75.5 309.5,-56.5 257.5,-56.5"/>
<text text-anchor="middle" x="283.5" y="-63.5" font-family="Helvetica,sans-Serif" font-size="10.00">Order.h</text>
</a>
</g>
</g>
<!-- Node2 -->
<g id="node2" class="node">
<title>Node2</title>
<g id="a_node2"><a xlink:href="CustomOrderBuilder_8cpp.html" target="_top" xlink:title="Implements the CustomOrderBuilder behaviour defined in the corresponding header.">
<polygon fill="none" stroke="black" points="0,-0.5 0,-19.5 135,-19.5 135,-0.5 0,-0.5"/>
<text text-anchor="middle" x="67.5" y="-7.5" font-family="Helvetica,sans-Serif" font-size="10.00">CustomOrderBuilder.cpp</text>
</a>
</g>
</g>
<!-- Node1&#45;&gt;Node2 -->
<g id="edge1" class="edge">
<title>Node1&#45;&gt;Node2</title>
<path fill="none" stroke="midnightblue" d="M247.72,-56.05C207.22,-45.93 141.72,-29.56 101.83,-19.58"/>
<polygon fill="midnightblue" stroke="midnightblue" points="246.9,-59.46 257.45,-58.49 248.59,-52.67 246.9,-59.46"/>
</g>
<!-- Node3 -->
<g id="node3" class="node">
<title>Node3</title>
<g id="a_node3"><a xlink:href="Order_8cpp.html" target="_top" xlink:title="Implements the Order behaviour defined in the corresponding header.">
<polygon fill="none" stroke="black" points="153,-0.5 153,-19.5 216,-19.5 216,-0.5 153,-0.5"/>
<text text-anchor="middle" x="184.5" y="-7.5" font-family="Helvetica,sans-Serif" font-size="10.00">Order.cpp</text>
</a>
</g>
</g>
<!-- Node1&#45;&gt;Node3 -->
<g id="edge2" class="edge">
<title>Node1&#45;&gt;Node3</title>
<path fill="none" stroke="midnightblue" d="M258.66,-51.45C240.39,-41.48 216.08,-28.23 200.37,-19.65"/>
<polygon fill="midnightblue" stroke="midnightblue" points="257.14,-54.61 267.59,-56.32 260.49,-48.46 257.14,-54.61"/>
</g>
<!-- Node4 -->
<g id="node4" class="node">
<title>Node4</title>
<g id="a_node4"><a xlink:href="OrderBuilder_8cpp.html" target="_top" xlink:title="Implements the OrderBuilder behaviour defined in the corresponding header.">
<polygon fill="none" stroke="black" points="234.5,-0.5 234.5,-19.5 332.5,-19.5 332.5,-0.5 234.5,-0.5"/>
<text text-anchor="middle" x="283.5" y="-7.5" font-family="Helvetica,sans-Serif" font-size="10.00">OrderBuilder.cpp</text>
</a>
</g>
</g>
<!-- Node1&#45;&gt;Node4 -->
<g id="edge3" class="edge">
<title>Node1&#45;&gt;Node4</title>
<path fill="none" stroke="midnightblue" d="M283.5,-45.8C283.5,-36.91 283.5,-26.78 283.5,-19.75"/>
<polygon fill="midnightblue" stroke="midnightblue" points="280,-46.08 283.5,-56.08 287,-46.08 280,-46.08"/>
</g>
<!-- Node5 -->
<g id="node5" class="node">
<title>Node5</title>
<g id="a_node5"><a xlink:href="OrderDirector_8cpp.html" target="_top" xlink:title="Implements the OrderDirector behaviour defined in the corresponding header.">
<polygon fill="none" stroke="black" points="350.5,-0.5 350.5,-19.5 452.5,-19.5 452.5,-0.5 350.5,-0.5"/>
<text text-anchor="middle" x="401.5" y="-7.5" font-family="Helvetica,sans-Serif" font-size="10.00">OrderDirector.cpp</text>
</a>
</g>
</g>
<!-- Node1&#45;&gt;Node5 -->
<g id="edge4" class="edge">
<title>Node1&#45;&gt;Node5</title>
<path fill="none" stroke="midnightblue" d="M311.4,-52.23C333.47,-42.13 363.68,-28.31 382.89,-19.52"/>
<polygon fill="midnightblue" stroke="midnightblue" points="309.83,-49.1 302.2,-56.44 312.75,-55.46 309.83,-49.1"/>
</g>
<!-- Node6 -->
<g id="node6" class="node">
<title>Node6</title>
<g id="a_node6"><a xlink:href="SalesFacade_8cpp.html" target="_top" xlink:title="Implements the SalesFacade behaviour defined in the corresponding header.">
<polygon fill="none" stroke="black" points="471,-0.5 471,-19.5 568,-19.5 568,-0.5 471,-0.5"/>
<text text-anchor="middle" x="519.5" y="-7.5" font-family="Helvetica,sans-Serif" font-size="10.00">SalesFacade.cpp</text>
</a>
</g>
</g>
<!-- Node1&#45;&gt;Node6 -->
<g id="edge5" class="edge">
<title>Node1&#45;&gt;Node6</title>
<path fill="none" stroke="midnightblue" d="M319.62,-56.74C363.57,-46.68 437.4,-29.79 481.97,-19.59"/>
<polygon fill="midnightblue" stroke="midnightblue" points="318.63,-53.37 309.66,-59.01 320.19,-60.2 318.63,-53.37"/>
</g>
</g>
</svg>
