<?xml version="1.0" encoding="UTF-8" standalone="no"?>
<!DOCTYPE svg PUBLIC "-//W3C//DTD SVG 1.1//EN"
 "http://www.w3.org/Graphics/SVG/1.1/DTD/svg11.dtd">
<!-- Generated by graphviz version 2.43.0 (0)
 -->
<!-- Title: OrganicFertilizer.cpp Pages: 1 -->
<svg width="578pt" height="252pt"
 viewBox="0.00 0.00 577.50 252.00" xmlns="http://www.w3.org/2000/svg" xmlns:xlink="http://www.w3.org/1999/xlink">
<g id="graph0" class="graph" transform="scale(1 1) rotate(0) translate(4 248)">
<title>OrganicFertilizer.cpp</title>
<!-- Node1 -->
<g id="node1" class="node">
<title>Node1</title>
<g id="a_node1"><a xlink:title="Implements the OrganicFertilizer behaviour defined in the corresponding header.">
<polygon fill="#bfbfbf" stroke="black" points="221,-224.5 221,-243.5 337,-243.5 337,-224.5 221,-224.5"/>
<text text-anchor="middle" x="279" y="-231.5" font-family="Helvetica,sans-Serif" font-size="10.00">OrganicFertilizer.cpp</text>
</a>
</g>
</g>
<!-- Node2 -->
<g id="node2" class="node">
<title>Node2</title>
<g id="a_node2"><a xlink:href="OrganicFertilizer_8h.html" target="_top" xlink:title="Concrete strategy for organic fertilizing.">
<polygon fill="none" stroke="black" points="32,-168.5 32,-187.5 184,-187.5 184,-168.5 32,-168.5"/>
<text text-anchor="middle" x="108" y="-175.5" font-family="Helvetica,sans-Serif" font-size="10.00">../include/OrganicFertilizer.h</text>
</a>
</g>
</g>
<!-- Node1&#45;&gt;Node2 -->
<g id="edge1" class="edge">
<title>Node1&#45;&gt;Node2</title>
<path fill="none" stroke="midnightblue" d="M251.9,-224.44C223.01,-215.32 177.08,-200.81 144.89,-190.65"/>
<polygon fill="midnightblue" stroke="midnightblue" points="145.56,-187.19 134.97,-187.52 143.45,-193.87 145.56,-187.19"/>
</g>
<!-- Node4 -->
<g id="node4" class="node">
<title>Node4</title>
<g id="a_node4"><a xlink:href="PlantInstance_8h.html" target="_top" xlink:title="Represents a single, physical plant in the nursery.">
<polygon fill="none" stroke="black" points="209.5,-168.5 209.5,-187.5 348.5,-187.5 348.5,-168.5 209.5,-168.5"/>
<text text-anchor="middle" x="279" y="-175.5" font-family="Helvetica,sans-Serif" font-size="10.00">../include/PlantInstance.h</text>
</a>
</g>
</g>
<!-- Node1&#45;&gt;Node4 -->
<g id="edge3" class="edge">
<title>Node1&#45;&gt;Node4</title>
<path fill="none" stroke="midnightblue" d="M279,-224.08C279,-217.01 279,-206.86 279,-197.99"/>
<polygon fill="midnightblue" stroke="midnightblue" points="282.5,-197.75 279,-187.75 275.5,-197.75 282.5,-197.75"/>
</g>
<!-- Node13 -->
<g id="node13" class="node">
<title>Node13</title>
<g id="a_node13"><a xlink:title=" ">
<polygon fill="none" stroke="#bfbfbf" points="367,-168.5 367,-187.5 427,-187.5 427,-168.5 367,-168.5"/>
<text text-anchor="middle" x="397" y="-175.5" font-family="Helvetica,sans-Serif" font-size="10.00">iostream</text>
</a>
</g>
</g>
<!-- Node1&#45;&gt;Node13 -->
<g id="edge16" class="edge">
<title>Node1&#45;&gt;Node13</title>
<path fill="none" stroke="midnightblue" d="M297.7,-224.44C316.94,-215.64 347.15,-201.81 369.2,-191.72"/>
<polygon fill="midnightblue" stroke="midnightblue" points="370.75,-194.86 378.39,-187.52 367.84,-188.5 370.75,-194.86"/>
</g>
<!-- Node3 -->
<g id="node3" class="node">
<title>Node3</title>
<g id="a_node3"><a xlink:href="FertilizeStrategy_8h.html" target="_top" xlink:title="Abstract &#39;Strategy&#39; interface for fertilizing.">
<polygon fill="none" stroke="black" points="0,-112.5 0,-131.5 104,-131.5 104,-112.5 0,-112.5"/>
<text text-anchor="middle" x="52" y="-119.5" font-family="Helvetica,sans-Serif" font-size="10.00">FertilizeStrategy.h</text>
</a>
</g>
</g>
<!-- Node2&#45;&gt;Node3 -->
<g id="edge2" class="edge">
<title>Node2&#45;&gt;Node3</title>
<path fill="none" stroke="midnightblue" d="M99,-168.32C90.81,-160.42 78.49,-148.55 68.53,-138.94"/>
<polygon fill="midnightblue" stroke="midnightblue" points="70.79,-136.26 61.16,-131.83 65.93,-141.29 70.79,-136.26"/>
</g>
<!-- Node5 -->
<g id="node5" class="node">
<title>Node5</title>
<g id="a_node5"><a xlink:href="GreenhouseComponent_8h.html" target="_top" xlink:title="The abstract &#39;Component&#39; interface for the Composite pattern.">
<polygon fill="none" stroke="black" points="160,-112.5 160,-131.5 300,-131.5 300,-112.5 160,-112.5"/>
<text text-anchor="middle" x="230" y="-119.5" font-family="Helvetica,sans-Serif" font-size="10.00">GreenhouseComponent.h</text>
</a>
</g>
</g>
<!-- Node4&#45;&gt;Node5 -->
<g id="edge4" class="edge">
<title>Node4&#45;&gt;Node5</title>
<path fill="none" stroke="midnightblue" d="M270.91,-168.08C263.84,-160.3 253.41,-148.8 244.85,-139.37"/>
<polygon fill="midnightblue" stroke="midnightblue" points="247.25,-136.8 237.94,-131.75 242.07,-141.51 247.25,-136.8"/>
</g>
<!-- Node6 -->
<g id="node6" class="node">
<title>Node6</title>
<g id="a_node6"><a xlink:title=" ">
<polygon fill="none" stroke="#bfbfbf" points="152,-56.5 152,-75.5 210,-75.5 210,-56.5 152,-56.5"/>
<text text-anchor="middle" x="181" y="-63.5" font-family="Helvetica,sans-Serif" font-size="10.00">memory</text>
</a>
</g>
</g>
<!-- Node4&#45;&gt;Node6 -->
<g id="edge14" class="edge">
<title>Node4&#45;&gt;Node6</title>
<path fill="none" stroke="midnightblue" d="M209.17,-168.55C186.9,-162.18 164.55,-151.12 151,-132 140.17,-116.71 152.49,-96.9 164.46,-83.18"/>
<polygon fill="midnightblue" stroke="midnightblue" points="167.35,-85.21 171.65,-75.53 162.25,-80.42 167.35,-85.21"/>
</g>
<!-- Node7 -->
<g id="node7" class="node">
<title>Node7</title>
<g id="a_node7"><a xlink:title=" ">
<polygon fill="none" stroke="#bfbfbf" points="339,-0.5 339,-19.5 383,-19.5 383,-0.5 339,-0.5"/>
<text text-anchor="middle" x="361" y="-7.5" font-family="Helvetica,sans-Serif" font-size="10.00">string</text>
</a>
</g>
</g>
<!-- Node4&#45;&gt;Node7 -->
<g id="edge15" class="edge">
<title>Node4&#45;&gt;Node7</title>
<path fill="none" stroke="midnightblue" d="M285.47,-168.33C291.91,-159.48 301.84,-145.21 309,-132 328,-96.97 345.23,-53.55 354.3,-29.4"/>
<polygon fill="midnightblue" stroke="midnightblue" points="357.68,-30.35 357.86,-19.76 351.11,-27.92 357.68,-30.35"/>
</g>
<!-- Node8 -->
<g id="node8" class="node">
<title>Node8</title>
<g id="a_node8"><a xlink:href="PlantState_8h.html" target="_top" xlink:title="Abstract base class describing the lifecycle state of a plant.">
<polygon fill="none" stroke="black" points="356,-56.5 356,-75.5 432,-75.5 432,-56.5 356,-56.5"/>
<text text-anchor="middle" x="394" y="-63.5" font-family="Helvetica,sans-Serif" font-size="10.00">PlantState.h</text>
</a>
</g>
</g>
<!-- Node4&#45;&gt;Node8 -->
<g id="edge7" class="edge">
<title>Node4&#45;&gt;Node8</title>
<path fill="none" stroke="midnightblue" d="M293.36,-168.36C306.71,-159.97 326.77,-146.42 342,-132 357.52,-117.31 372.46,-97.9 382.31,-84.13"/>
<polygon fill="midnightblue" stroke="midnightblue" points="385.4,-85.82 388.26,-75.62 379.66,-81.81 385.4,-85.82"/>
</g>
<!-- Node9 -->
<g id="node9" class="node">
<title>Node9</title>
<g id="a_node9"><a xlink:href="Subject_8h.html" target="_top" xlink:title="Declares the Subject base that manages observer subscriptions.">
<polygon fill="none" stroke="black" points="435,-112.5 435,-131.5 497,-131.5 497,-112.5 435,-112.5"/>
<text text-anchor="middle" x="466" y="-119.5" font-family="Helvetica,sans-Serif" font-size="10.00">Subject.h</text>
</a>
</g>
</g>
<!-- Node4&#45;&gt;Node9 -->
<g id="edge9" class="edge">
<title>Node4&#45;&gt;Node9</title>
<path fill="none" stroke="midnightblue" d="M308.63,-168.44C340.5,-159.24 391.33,-144.56 426.56,-134.39"/>
<polygon fill="midnightblue" stroke="midnightblue" points="427.87,-137.65 436.51,-131.52 425.93,-130.93 427.87,-137.65"/>
</g>
<!-- Node5&#45;&gt;Node6 -->
<g id="edge5" class="edge">
<title>Node5&#45;&gt;Node6</title>
<path fill="none" stroke="midnightblue" d="M221.91,-112.08C214.84,-104.3 204.41,-92.8 195.85,-83.37"/>
<polygon fill="midnightblue" stroke="midnightblue" points="198.25,-80.8 188.94,-75.75 193.07,-85.51 198.25,-80.8"/>
</g>
<!-- Node5&#45;&gt;Node7 -->
<g id="edge6" class="edge">
<title>Node5&#45;&gt;Node7</title>
<path fill="none" stroke="midnightblue" d="M240.28,-112.37C262.47,-93.73 315.11,-49.53 342.98,-26.13"/>
<polygon fill="midnightblue" stroke="midnightblue" points="345.36,-28.7 350.77,-19.59 340.86,-23.34 345.36,-28.7"/>
</g>
<!-- Node8&#45;&gt;Node7 -->
<g id="edge8" class="edge">
<title>Node8&#45;&gt;Node7</title>
<path fill="none" stroke="midnightblue" d="M388.55,-56.08C383.99,-48.61 377.33,-37.72 371.71,-28.52"/>
<polygon fill="midnightblue" stroke="midnightblue" points="374.55,-26.46 366.35,-19.75 368.58,-30.11 374.55,-26.46"/>
</g>
<!-- Node10 -->
<g id="node10" class="node">
<title>Node10</title>
<g id="a_node10"><a xlink:title=" ">
<polygon fill="none" stroke="#bfbfbf" points="450,-56.5 450,-75.5 482,-75.5 482,-56.5 450,-56.5"/>
<text text-anchor="middle" x="466" y="-63.5" font-family="Helvetica,sans-Serif" font-size="10.00">list</text>
</a>
</g>
</g>
<!-- Node9&#45;&gt;Node10 -->
<g id="edge10" class="edge">
<title>Node9&#45;&gt;Node10</title>
<path fill="none" stroke="midnightblue" d="M466,-112.08C466,-105.01 466,-94.86 466,-85.99"/>
<polygon fill="midnightblue" stroke="midnightblue" points="469.5,-85.75 466,-75.75 462.5,-85.75 469.5,-85.75"/>
</g>
<!-- Node11 -->
<g id="node11" class="node">
<title>Node11</title>
<g id="a_node11"><a xlink:href="Observer_8h.html" target="_top" xlink:title="Declares the Observer contract and shared event payload.">
<polygon fill="none" stroke="black" points="500.5,-56.5 500.5,-75.5 569.5,-75.5 569.5,-56.5 500.5,-56.5"/>
<text text-anchor="middle" x="535" y="-63.5" font-family="Helvetica,sans-Serif" font-size="10.00">Observer.h</text>
</a>
</g>
</g>
<!-- Node9&#45;&gt;Node11 -->
<g id="edge11" class="edge">
<title>Node9&#45;&gt;Node11</title>
<path fill="none" stroke="midnightblue" d="M477.09,-112.32C487.49,-104.18 503.26,-91.84 515.72,-82.09"/>
<polygon fill="midnightblue" stroke="midnightblue" points="517.99,-84.75 523.71,-75.83 513.68,-79.24 517.99,-84.75"/>
</g>
<!-- Node11&#45;&gt;Node7 -->
<g id="edge13" class="edge">
<title>Node11&#45;&gt;Node7</title>
<path fill="none" stroke="midnightblue" d="M507.43,-56.44C476.25,-46.77 425.57,-31.04 392.76,-20.86"/>
<polygon fill="midnightblue" stroke="midnightblue" points="393.78,-17.51 383.2,-17.89 391.71,-24.2 393.78,-17.51"/>
</g>
<!-- Node12 -->
<g id="node12" class="node">
<title>Node12</title>
<g id="a_node12"><a xlink:title=" ">
<polygon fill="none" stroke="#bfbfbf" points="507,-0.5 507,-19.5 563,-19.5 563,-0.5 507,-0.5"/>
<text text-anchor="middle" x="535" y="-7.5" font-family="Helvetica,sans-Serif" font-size="10.00">optional</text>
</a>
</g>
</g>
<!-- Node11&#45;&gt;Node12 -->
<g id="edge12" class="edge">
<title>Node11&#45;&gt;Node12</title>
<path fill="none" stroke="midnightblue" d="M535,-56.08C535,-49.01 535,-38.86 535,-29.99"/>
<polygon fill="midnightblue" stroke="midnightblue" points="538.5,-29.75 535,-19.75 531.5,-29.75 538.5,-29.75"/>
</g>
</g>
</svg>
