<?xml version="1.0" encoding="UTF-8" standalone="no"?>
<!DOCTYPE svg PUBLIC "-//W3C//DTD SVG 1.1//EN"
 "http://www.w3.org/Graphics/SVG/1.1/DTD/svg11.dtd">
<!-- Generated by graphviz version 2.43.0 (0)
 -->
<!-- Title: PaymentProcessor.h Pages: 1 -->
<svg width="250pt" height="84pt"
 viewBox="0.00 0.00 249.50 84.00" xmlns="http://www.w3.org/2000/svg" xmlns:xlink="http://www.w3.org/1999/xlink">
<g id="graph0" class="graph" transform="scale(1 1) rotate(0) translate(4 80)">
<title>PaymentProcessor.h</title>
<!-- Node1 -->
<g id="node1" class="node">
<title>Node1</title>
<g id="a_node1"><a xlink:title="A complex subsystem class used by the Facade.">
<polygon fill="#bfbfbf" stroke="black" points="70.5,-56.5 70.5,-75.5 185.5,-75.5 185.5,-56.5 70.5,-56.5"/>
<text text-anchor="middle" x="128" y="-63.5" font-family="Helvetica,sans-Serif" font-size="10.00">PaymentProcessor.h</text>
</a>
</g>
</g>
<!-- Node2 -->
<g id="node2" class="node">
<title>Node2</title>
<g id="a_node2"><a xlink:href="PaymentProcessor_8cpp.html" target="_top" xlink:title="Implements the PaymentProcessor behaviour defined in the corresponding header.">
<polygon fill="none" stroke="black" points="0,-0.5 0,-19.5 126,-19.5 126,-0.5 0,-0.5"/>
<text text-anchor="middle" x="63" y="-7.5" font-family="Helvetica,sans-Serif" font-size="10.00">PaymentProcessor.cpp</text>
</a>
</g>
</g>
<!-- Node1&#45;&gt;Node2 -->
<g id="edge1" class="edge">
<title>Node1&#45;&gt;Node2</title>
<path fill="none" stroke="midnightblue" d="M109.73,-49.82C98.08,-40.15 83.4,-27.95 73.63,-19.83"/>
<polygon fill="midnightblue" stroke="midnightblue" points="107.63,-52.63 117.56,-56.32 112.1,-47.24 107.63,-52.63"/>
</g>
<!-- Node3 -->
<g id="node3" class="node">
<title>Node3</title>
<g id="a_node3"><a xlink:href="SalesFacade_8cpp.html" target="_top" xlink:title="Implements the SalesFacade behaviour defined in the corresponding header.">
<polygon fill="none" stroke="black" points="144.5,-0.5 144.5,-19.5 241.5,-19.5 241.5,-0.5 144.5,-0.5"/>
<text text-anchor="middle" x="193" y="-7.5" font-family="Helvetica,sans-Serif" font-size="10.00">SalesFacade.cpp</text>
</a>
</g>
</g>
<!-- Node1&#45;&gt;Node3 -->
<g id="edge2" class="edge">
<title>Node1&#45;&gt;Node3</title>
<path fill="none" stroke="midnightblue" d="M146.27,-49.82C157.92,-40.15 172.6,-27.95 182.37,-19.83"/>
<polygon fill="midnightblue" stroke="midnightblue" points="143.9,-47.24 138.44,-56.32 148.37,-52.63 143.9,-47.24"/>
</g>
</g>
</svg>
