<?xml version="1.0" encoding="UTF-8" standalone="no"?>
<!DOCTYPE svg PUBLIC "-//W3C//DTD SVG 1.1//EN"
 "http://www.w3.org/Graphics/SVG/1.1/DTD/svg11.dtd">
<!-- Generated by graphviz version 2.43.0 (0)
 -->
<!-- Title: PlantCommand.h Pages: 1 -->
<svg width="416pt" height="140pt"
 viewBox="0.00 0.00 416.00 140.00" xmlns="http://www.w3.org/2000/svg" xmlns:xlink="http://www.w3.org/1999/xlink">
<g id="graph0" class="graph" transform="scale(1 1) rotate(0) translate(4 136)">
<title>PlantCommand.h</title>
<!-- Node1 -->
<g id="node1" class="node">
<title>Node1</title>
<g id="a_node1"><a xlink:title="The &#39;Command&#39; interface.">
<polygon fill="#bfbfbf" stroke="black" points="167,-112.5 167,-131.5 268,-131.5 268,-112.5 167,-112.5"/>
<text text-anchor="middle" x="217.5" y="-119.5" font-family="Helvetica,sans-Serif" font-size="10.00">PlantCommand.h</text>
</a>
</g>
</g>
<!-- Node2 -->
<g id="node2" class="node">
<title>Node2</title>
<g id="a_node2"><a xlink:href="FertilizePlant_8h.html" target="_top" xlink:title="A &#39;ConcreteCommand&#39; to fertilize a plant.">
<polygon fill="none" stroke="black" points="12,-56.5 12,-75.5 101,-75.5 101,-56.5 12,-56.5"/>
<text text-anchor="middle" x="56.5" y="-63.5" font-family="Helvetica,sans-Serif" font-size="10.00">FertilizePlant.h</text>
</a>
</g>
</g>
<!-- Node1&#45;&gt;Node2 -->
<g id="edge1" class="edge">
<title>Node1&#45;&gt;Node2</title>
<path fill="none" stroke="midnightblue" d="M182.24,-109.17C151.92,-99 108.93,-84.59 81.89,-75.52"/>
<polygon fill="midnightblue" stroke="midnightblue" points="181.4,-112.58 191.99,-112.44 183.62,-105.95 181.4,-112.58"/>
</g>
<!-- Node4 -->
<g id="node4" class="node">
<title>Node4</title>
<g id="a_node4"><a xlink:href="WaterPlant_8h.html" target="_top" xlink:title="A &#39;ConcreteCommand&#39; to water a plant.">
<polygon fill="none" stroke="black" points="122,-56.5 122,-75.5 201,-75.5 201,-56.5 122,-56.5"/>
<text text-anchor="middle" x="161.5" y="-63.5" font-family="Helvetica,sans-Serif" font-size="10.00">WaterPlant.h</text>
</a>
</g>
</g>
<!-- Node1&#45;&gt;Node4 -->
<g id="edge3" class="edge">
<title>Node1&#45;&gt;Node4</title>
<path fill="none" stroke="midnightblue" d="M201.17,-105.25C191.24,-95.67 178.91,-83.79 170.66,-75.83"/>
<polygon fill="midnightblue" stroke="midnightblue" points="198.87,-107.9 208.5,-112.32 203.73,-102.86 198.87,-107.9"/>
</g>
<!-- Node6 -->
<g id="node6" class="node">
<title>Node6</title>
<g id="a_node6"><a xlink:href="PlantCommand_8cpp.html" target="_top" xlink:title="Implements the PlantCommand behaviour defined in the corresponding header.">
<polygon fill="none" stroke="black" points="218.5,-56.5 218.5,-75.5 330.5,-75.5 330.5,-56.5 218.5,-56.5"/>
<text text-anchor="middle" x="274.5" y="-63.5" font-family="Helvetica,sans-Serif" font-size="10.00">PlantCommand.cpp</text>
</a>
</g>
</g>
<!-- Node1&#45;&gt;Node6 -->
<g id="edge5" class="edge">
<title>Node1&#45;&gt;Node6</title>
<path fill="none" stroke="midnightblue" d="M234.12,-105.25C244.23,-95.67 256.78,-83.79 265.18,-75.83"/>
<polygon fill="midnightblue" stroke="midnightblue" points="231.51,-102.91 226.66,-112.32 236.32,-107.99 231.51,-102.91"/>
</g>
<!-- Node7 -->
<g id="node7" class="node">
<title>Node7</title>
<g id="a_node7"><a xlink:href="Staff_8cpp.html" target="_top" xlink:title="Implements the Staff behaviour defined in the corresponding header.">
<polygon fill="none" stroke="black" points="349,-56.5 349,-75.5 408,-75.5 408,-56.5 349,-56.5"/>
<text text-anchor="middle" x="378.5" y="-63.5" font-family="Helvetica,sans-Serif" font-size="10.00">Staff.cpp</text>
</a>
</g>
</g>
<!-- Node1&#45;&gt;Node7 -->
<g id="edge6" class="edge">
<title>Node1&#45;&gt;Node7</title>
<path fill="none" stroke="midnightblue" d="M252.76,-109.17C283.08,-99 326.07,-84.59 353.11,-75.52"/>
<polygon fill="midnightblue" stroke="midnightblue" points="251.38,-105.95 243.01,-112.44 253.6,-112.58 251.38,-105.95"/>
</g>
<!-- Node3 -->
<g id="node3" class="node">
<title>Node3</title>
<g id="a_node3"><a xlink:href="FertilizePlant_8cpp.html" target="_top" xlink:title="Implements the FertilizePlant behaviour defined in the corresponding header.">
<polygon fill="none" stroke="black" points="0,-0.5 0,-19.5 101,-19.5 101,-0.5 0,-0.5"/>
<text text-anchor="middle" x="50.5" y="-7.5" font-family="Helvetica,sans-Serif" font-size="10.00">FertilizePlant.cpp</text>
</a>
</g>
</g>
<!-- Node2&#45;&gt;Node3 -->
<g id="edge2" class="edge">
<title>Node2&#45;&gt;Node3</title>
<path fill="none" stroke="midnightblue" d="M54.4,-46.1C53.4,-37.14 52.26,-26.86 51.47,-19.75"/>
<polygon fill="midnightblue" stroke="midnightblue" points="50.93,-46.53 55.51,-56.08 57.88,-45.76 50.93,-46.53"/>
</g>
<!-- Node5 -->
<g id="node5" class="node">
<title>Node5</title>
<g id="a_node5"><a xlink:href="WaterPlant_8cpp.html" target="_top" xlink:title="Implements the WaterPlant behaviour defined in the corresponding header.">
<polygon fill="none" stroke="black" points="119.5,-0.5 119.5,-19.5 209.5,-19.5 209.5,-0.5 119.5,-0.5"/>
<text text-anchor="middle" x="164.5" y="-7.5" font-family="Helvetica,sans-Serif" font-size="10.00">WaterPlant.cpp</text>
</a>
</g>
</g>
<!-- Node4&#45;&gt;Node5 -->
<g id="edge4" class="edge">
<title>Node4&#45;&gt;Node5</title>
<path fill="none" stroke="midnightblue" d="M162.57,-45.8C163.06,-36.91 163.62,-26.78 164.01,-19.75"/>
<polygon fill="midnightblue" stroke="midnightblue" points="159.06,-45.9 162,-56.08 166.04,-46.29 159.06,-45.9"/>
</g>
</g>
</svg>
