<?xml version="1.0" encoding="UTF-8" standalone="no"?>
<!DOCTYPE svg PUBLIC "-//W3C//DTD SVG 1.1//EN"
 "http://www.w3.org/Graphics/SVG/1.1/DTD/svg11.dtd">
<!-- Generated by graphviz version 2.43.0 (0)
 -->
<!-- Title: PlantStateUtils.h Pages: 1 -->
<svg width="389pt" height="252pt"
 viewBox="0.00 0.00 389.00 252.00" xmlns="http://www.w3.org/2000/svg" xmlns:xlink="http://www.w3.org/1999/xlink">
<g id="graph0" class="graph" transform="scale(1 1) rotate(0) translate(4 248)">
<title>PlantStateUtils.h</title>
<!-- Node1 -->
<g id="node1" class="node">
<title>Node1</title>
<g id="a_node1"><a xlink:title="Common helper functions shared by lifecycle state implementations.">
<polygon fill="#bfbfbf" stroke="black" points="79.5,-224.5 79.5,-243.5 177.5,-243.5 177.5,-224.5 79.5,-224.5"/>
<text text-anchor="middle" x="128.5" y="-231.5" font-family="Helvetica,sans-Serif" font-size="10.00">PlantStateUtils.h</text>
</a>
</g>
</g>
<!-- Node2 -->
<g id="node2" class="node">
<title>Node2</title>
<g id="a_node2"><a xlink:href="PlantStateThresholds_8h.html" target="_top" xlink:title="Centralised constants describing lifecycle transition boundaries.">
<polygon fill="none" stroke="black" points="0,-168.5 0,-187.5 129,-187.5 129,-168.5 0,-168.5"/>
<text text-anchor="middle" x="64.5" y="-175.5" font-family="Helvetica,sans-Serif" font-size="10.00">PlantStateThresholds.h</text>
</a>
</g>
</g>
<!-- Node1&#45;&gt;Node2 -->
<g id="edge1" class="edge">
<title>Node1&#45;&gt;Node2</title>
<path fill="none" stroke="midnightblue" d="M118.22,-224.32C108.66,-216.26 94.22,-204.08 82.72,-194.37"/>
<polygon fill="midnightblue" stroke="midnightblue" points="84.87,-191.61 74.97,-187.83 80.36,-196.96 84.87,-191.61"/>
</g>
<!-- Node3 -->
<g id="node3" class="node">
<title>Node3</title>
<g id="a_node3"><a xlink:href="PlantInstance_8h.html" target="_top" xlink:title="Represents a single, physical plant in the nursery.">
<polygon fill="none" stroke="black" points="147.5,-168.5 147.5,-187.5 239.5,-187.5 239.5,-168.5 147.5,-168.5"/>
<text text-anchor="middle" x="193.5" y="-175.5" font-family="Helvetica,sans-Serif" font-size="10.00">PlantInstance.h</text>
</a>
</g>
</g>
<!-- Node1&#45;&gt;Node3 -->
<g id="edge2" class="edge">
<title>Node1&#45;&gt;Node3</title>
<path fill="none" stroke="midnightblue" d="M138.94,-224.32C148.65,-216.26 163.32,-204.08 175,-194.37"/>
<polygon fill="midnightblue" stroke="midnightblue" points="177.41,-196.92 182.87,-187.83 172.94,-191.53 177.41,-196.92"/>
</g>
<!-- Node4 -->
<g id="node4" class="node">
<title>Node4</title>
<g id="a_node4"><a xlink:href="GreenhouseComponent_8h.html" target="_top" xlink:title="The abstract &#39;Component&#39; interface for the Composite pattern.">
<polygon fill="none" stroke="black" points="25.5,-112.5 25.5,-131.5 165.5,-131.5 165.5,-112.5 25.5,-112.5"/>
<text text-anchor="middle" x="95.5" y="-119.5" font-family="Helvetica,sans-Serif" font-size="10.00">GreenhouseComponent.h</text>
</a>
</g>
</g>
<!-- Node3&#45;&gt;Node4 -->
<g id="edge3" class="edge">
<title>Node3&#45;&gt;Node4</title>
<path fill="none" stroke="midnightblue" d="M177.75,-168.32C162.18,-159.74 138.12,-146.49 120.04,-136.52"/>
<polygon fill="midnightblue" stroke="midnightblue" points="121.65,-133.42 111.21,-131.65 118.28,-139.55 121.65,-133.42"/>
</g>
<!-- Node5 -->
<g id="node5" class="node">
<title>Node5</title>
<g id="a_node5"><a xlink:title=" ">
<polygon fill="none" stroke="#bfbfbf" points="17.5,-56.5 17.5,-75.5 75.5,-75.5 75.5,-56.5 17.5,-56.5"/>
<text text-anchor="middle" x="46.5" y="-63.5" font-family="Helvetica,sans-Serif" font-size="10.00">memory</text>
</a>
</g>
</g>
<!-- Node3&#45;&gt;Node5 -->
<g id="edge13" class="edge">
<title>Node3&#45;&gt;Node5</title>
<path fill="none" stroke="midnightblue" d="M148.03,-168.43C98.35,-158.61 24.67,-142.51 16.5,-132 4.89,-117.07 17.68,-96.93 29.96,-83.04"/>
<polygon fill="midnightblue" stroke="midnightblue" points="32.61,-85.34 36.95,-75.68 27.53,-80.52 32.61,-85.34"/>
</g>
<!-- Node6 -->
<g id="node6" class="node">
<title>Node6</title>
<g id="a_node6"><a xlink:title=" ">
<polygon fill="none" stroke="#bfbfbf" points="190.5,-0.5 190.5,-19.5 234.5,-19.5 234.5,-0.5 190.5,-0.5"/>
<text text-anchor="middle" x="212.5" y="-7.5" font-family="Helvetica,sans-Serif" font-size="10.00">string</text>
</a>
</g>
</g>
<!-- Node3&#45;&gt;Node6 -->
<g id="edge14" class="edge">
<title>Node3&#45;&gt;Node6</title>
<path fill="none" stroke="midnightblue" d="M194.52,-168.08C197.51,-141.95 206.3,-65.21 210.37,-29.58"/>
<polygon fill="midnightblue" stroke="midnightblue" points="213.86,-29.9 211.52,-19.57 206.9,-29.11 213.86,-29.9"/>
</g>
<!-- Node7 -->
<g id="node7" class="node">
<title>Node7</title>
<g id="a_node7"><a xlink:href="PlantState_8h.html" target="_top" xlink:title="Abstract base class describing the lifecycle state of a plant.">
<polygon fill="none" stroke="black" points="221.5,-112.5 221.5,-131.5 297.5,-131.5 297.5,-112.5 221.5,-112.5"/>
<text text-anchor="middle" x="259.5" y="-119.5" font-family="Helvetica,sans-Serif" font-size="10.00">PlantState.h</text>
</a>
</g>
</g>
<!-- Node3&#45;&gt;Node7 -->
<g id="edge6" class="edge">
<title>Node3&#45;&gt;Node7</title>
<path fill="none" stroke="midnightblue" d="M204.1,-168.32C213.96,-160.26 228.85,-148.08 240.72,-138.37"/>
<polygon fill="midnightblue" stroke="midnightblue" points="243.18,-140.88 248.7,-131.83 238.75,-135.46 243.18,-140.88"/>
</g>
<!-- Node8 -->
<g id="node8" class="node">
<title>Node8</title>
<g id="a_node8"><a xlink:href="Subject_8h.html" target="_top" xlink:title="Declares the Subject base that manages observer subscriptions.">
<polygon fill="none" stroke="black" points="315.5,-112.5 315.5,-131.5 377.5,-131.5 377.5,-112.5 315.5,-112.5"/>
<text text-anchor="middle" x="346.5" y="-119.5" font-family="Helvetica,sans-Serif" font-size="10.00">Subject.h</text>
</a>
</g>
</g>
<!-- Node3&#45;&gt;Node8 -->
<g id="edge8" class="edge">
<title>Node3&#45;&gt;Node8</title>
<path fill="none" stroke="midnightblue" d="M217.74,-168.44C243.37,-159.4 283.99,-145.06 312.74,-134.92"/>
<polygon fill="midnightblue" stroke="midnightblue" points="314.11,-138.15 322.37,-131.52 311.78,-131.54 314.11,-138.15"/>
</g>
<!-- Node4&#45;&gt;Node5 -->
<g id="edge4" class="edge">
<title>Node4&#45;&gt;Node5</title>
<path fill="none" stroke="midnightblue" d="M87.41,-112.08C80.34,-104.3 69.91,-92.8 61.35,-83.37"/>
<polygon fill="midnightblue" stroke="midnightblue" points="63.75,-80.8 54.44,-75.75 58.57,-85.51 63.75,-80.8"/>
</g>
<!-- Node4&#45;&gt;Node6 -->
<g id="edge5" class="edge">
<title>Node4&#45;&gt;Node6</title>
<path fill="none" stroke="midnightblue" d="M104.68,-112.37C124.33,-93.89 170.71,-50.29 195.75,-26.74"/>
<polygon fill="midnightblue" stroke="midnightblue" points="198.47,-28.99 203.36,-19.59 193.68,-23.89 198.47,-28.99"/>
</g>
<!-- Node7&#45;&gt;Node6 -->
<g id="edge7" class="edge">
<title>Node7&#45;&gt;Node6</title>
<path fill="none" stroke="midnightblue" d="M255.81,-112.37C248.16,-94.46 230.41,-52.92 220.17,-28.95"/>
<polygon fill="midnightblue" stroke="midnightblue" points="223.32,-27.41 216.17,-19.59 216.88,-30.16 223.32,-27.41"/>
</g>
<!-- Node9 -->
<g id="node9" class="node">
<title>Node9</title>
<g id="a_node9"><a xlink:title=" ">
<polygon fill="none" stroke="#bfbfbf" points="261.5,-56.5 261.5,-75.5 293.5,-75.5 293.5,-56.5 261.5,-56.5"/>
<text text-anchor="middle" x="277.5" y="-63.5" font-family="Helvetica,sans-Serif" font-size="10.00">list</text>
</a>
</g>
</g>
<!-- Node8&#45;&gt;Node9 -->
<g id="edge9" class="edge">
<title>Node8&#45;&gt;Node9</title>
<path fill="none" stroke="midnightblue" d="M335.41,-112.32C325.01,-104.18 309.24,-91.84 296.78,-82.09"/>
<polygon fill="midnightblue" stroke="midnightblue" points="298.82,-79.24 288.79,-75.83 294.51,-84.75 298.82,-79.24"/>
</g>
<!-- Node10 -->
<g id="node10" class="node">
<title>Node10</title>
<g id="a_node10"><a xlink:href="Observer_8h.html" target="_top" xlink:title="Declares the Observer contract and shared event payload.">
<polygon fill="none" stroke="black" points="312,-56.5 312,-75.5 381,-75.5 381,-56.5 312,-56.5"/>
<text text-anchor="middle" x="346.5" y="-63.5" font-family="Helvetica,sans-Serif" font-size="10.00">Observer.h</text>
</a>
</g>
</g>
<!-- Node8&#45;&gt;Node10 -->
<g id="edge10" class="edge">
<title>Node8&#45;&gt;Node10</title>
<path fill="none" stroke="midnightblue" d="M346.5,-112.08C346.5,-105.01 346.5,-94.86 346.5,-85.99"/>
<polygon fill="midnightblue" stroke="midnightblue" points="350,-85.75 346.5,-75.75 343,-85.75 350,-85.75"/>
</g>
<!-- Node10&#45;&gt;Node6 -->
<g id="edge12" class="edge">
<title>Node10&#45;&gt;Node6</title>
<path fill="none" stroke="midnightblue" d="M325.27,-56.44C303.12,-47.52 268.18,-33.44 243.06,-23.32"/>
<polygon fill="midnightblue" stroke="midnightblue" points="244.22,-20.01 233.63,-19.52 241.6,-26.5 244.22,-20.01"/>
</g>
<!-- Node11 -->
<g id="node11" class="node">
<title>Node11</title>
<g id="a_node11"><a xlink:title=" ">
<polygon fill="none" stroke="#bfbfbf" points="318.5,-0.5 318.5,-19.5 374.5,-19.5 374.5,-0.5 318.5,-0.5"/>
<text text-anchor="middle" x="346.5" y="-7.5" font-family="Helvetica,sans-Serif" font-size="10.00">optional</text>
</a>
</g>
</g>
<!-- Node10&#45;&gt;Node11 -->
<g id="edge11" class="edge">
<title>Node10&#45;&gt;Node11</title>
<path fill="none" stroke="midnightblue" d="M346.5,-56.08C346.5,-49.01 346.5,-38.86 346.5,-29.99"/>
<polygon fill="midnightblue" stroke="midnightblue" points="350,-29.75 346.5,-19.75 343,-29.75 350,-29.75"/>
</g>
</g>
</svg>
