<?xml version="1.0" encoding="UTF-8" standalone="no"?>
<!DOCTYPE svg PUBLIC "-//W3C//DTD SVG 1.1//EN"
 "http://www.w3.org/Graphics/SVG/1.1/DTD/svg11.dtd">
<!-- Generated by graphviz version 2.43.0 (0)
 -->
<!-- Title: PlantStateUtils.h Pages: 1 -->
<svg width="459pt" height="84pt"
 viewBox="0.00 0.00 458.50 84.00" xmlns="http://www.w3.org/2000/svg" xmlns:xlink="http://www.w3.org/1999/xlink">
<g id="graph0" class="graph" transform="scale(1 1) rotate(0) translate(4 80)">
<title>PlantStateUtils.h</title>
<!-- Node1 -->
<g id="node1" class="node">
<title>Node1</title>
<g id="a_node1"><a xlink:title="Common helper functions shared by lifecycle state implementations.">
<polygon fill="#bfbfbf" stroke="black" points="175.5,-56.5 175.5,-75.5 273.5,-75.5 273.5,-56.5 175.5,-56.5"/>
<text text-anchor="middle" x="224.5" y="-63.5" font-family="Helvetica,sans-Serif" font-size="10.00">PlantStateUtils.h</text>
</a>
</g>
</g>
<!-- Node2 -->
<g id="node2" class="node">
<title>Node2</title>
<g id="a_node2"><a xlink:href="GrowingState_8cpp.html" target="_top" xlink:title="Implements the GrowingState behaviour defined in the corresponding header.">
<polygon fill="none" stroke="black" points="0,-0.5 0,-19.5 103,-19.5 103,-0.5 0,-0.5"/>
<text text-anchor="middle" x="51.5" y="-7.5" font-family="Helvetica,sans-Serif" font-size="10.00">GrowingState.cpp</text>
</a>
</g>
</g>
<!-- Node1&#45;&gt;Node2 -->
<g id="edge1" class="edge">
<title>Node1&#45;&gt;Node2</title>
<path fill="none" stroke="midnightblue" d="M187.45,-53.44C154.84,-43.26 108.09,-28.66 78.78,-19.52"/>
<polygon fill="midnightblue" stroke="midnightblue" points="186.5,-56.8 197.09,-56.44 188.58,-50.12 186.5,-56.8"/>
</g>
<!-- Node3 -->
<g id="node3" class="node">
<title>Node3</title>
<g id="a_node3"><a xlink:href="MatureState_8cpp.html" target="_top" xlink:title="Implements the MatureState behaviour defined in the corresponding header.">
<polygon fill="none" stroke="black" points="121,-0.5 121,-19.5 218,-19.5 218,-0.5 121,-0.5"/>
<text text-anchor="middle" x="169.5" y="-7.5" font-family="Helvetica,sans-Serif" font-size="10.00">MatureState.cpp</text>
</a>
</g>
</g>
<!-- Node1&#45;&gt;Node3 -->
<g id="edge2" class="edge">
<title>Node1&#45;&gt;Node3</title>
<path fill="none" stroke="midnightblue" d="M208.21,-49C198.46,-39.43 186.45,-27.64 178.41,-19.75"/>
<polygon fill="midnightblue" stroke="midnightblue" points="205.83,-51.57 215.42,-56.08 210.73,-46.58 205.83,-51.57"/>
</g>
<!-- Node4 -->
<g id="node4" class="node">
<title>Node4</title>
<g id="a_node4"><a xlink:href="SeedState_8cpp.html" target="_top" xlink:title="Implements the SeedState behaviour defined in the corresponding header.">
<polygon fill="none" stroke="black" points="236.5,-0.5 236.5,-19.5 322.5,-19.5 322.5,-0.5 236.5,-0.5"/>
<text text-anchor="middle" x="279.5" y="-7.5" font-family="Helvetica,sans-Serif" font-size="10.00">SeedState.cpp</text>
</a>
</g>
</g>
<!-- Node1&#45;&gt;Node4 -->
<g id="edge3" class="edge">
<title>Node1&#45;&gt;Node4</title>
<path fill="none" stroke="midnightblue" d="M240.79,-49C250.54,-39.43 262.55,-27.64 270.59,-19.75"/>
<polygon fill="midnightblue" stroke="midnightblue" points="238.27,-46.58 233.58,-56.08 243.17,-51.57 238.27,-46.58"/>
</g>
<!-- Node5 -->
<g id="node5" class="node">
<title>Node5</title>
<g id="a_node5"><a xlink:href="WitheringState_8cpp.html" target="_top" xlink:title="Implements the WitheringState behaviour defined in the corresponding header.">
<polygon fill="none" stroke="black" points="340.5,-0.5 340.5,-19.5 450.5,-19.5 450.5,-0.5 340.5,-0.5"/>
<text text-anchor="middle" x="395.5" y="-7.5" font-family="Helvetica,sans-Serif" font-size="10.00">WitheringState.cpp</text>
</a>
</g>
</g>
<!-- Node1&#45;&gt;Node5 -->
<g id="edge4" class="edge">
<title>Node1&#45;&gt;Node5</title>
<path fill="none" stroke="midnightblue" d="M261.54,-53.3C293.76,-43.13 339.69,-28.62 368.53,-19.52"/>
<polygon fill="midnightblue" stroke="midnightblue" points="260.08,-50.09 251.6,-56.44 262.19,-56.77 260.08,-50.09"/>
</g>
</g>
</svg>
