<?xml version="1.0" encoding="UTF-8" standalone="no"?>
<!DOCTYPE svg PUBLIC "-//W3C//DTD SVG 1.1//EN"
 "http://www.w3.org/Graphics/SVG/1.1/DTD/svg11.dtd">
<!-- Generated by graphviz version 2.43.0 (0)
 -->
<!-- Title: PlantInstance.h Pages: 1 -->
<!--zoomable 140 -->
<svg id="main" version="1.1" xmlns="http://www.w3.org/2000/svg" xmlns:xlink="http://www.w3.org/1999/xlink" xml:space="preserve" onload="init(evt)">
<style type="text/css"><![CDATA[
.edge:hover path { stroke: red; }
.edge:hover polygon { stroke: red; fill: red; }
]]></style>
<script type="text/javascript"><![CDATA[
var edges = document.getElementsByTagName('g');
if (edges && edges.length) {
  for (var i=0;i<edges.length;i++) {
    if (edges[i].id.substr(0,4)=='edge') {
      edges[i].setAttribute('class','edge');
    }
  }
}
]]></script>
        <defs>
                <circle id="rim" cx="0" cy="0" r="7"/>
                <circle id="rim2" cx="0" cy="0" r="3.5"/>
                <g id="zoomPlus">
                        <use xlink:href="#rim" fill="#404040">
                                <set attributeName="fill" to="#808080" begin="zoomplus.mouseover" end="zoomplus.mouseout"/>
                        </use>
                        <path d="M-4,0h8M0,-4v8" fill="none" stroke="white" stroke-width="1.5" pointer-events="none"/>
                </g>
                <g id="zoomMin">
                        <use xlink:href="#rim" fill="#404040">
                                <set attributeName="fill" to="#808080" begin="zoomminus.mouseover" end="zoomminus.mouseout"/>
                        </use>
                        <path d="M-4,0h8" fill="none" stroke="white" stroke-width="1.5" pointer-events="none"/>
                </g>
                <g id="dirArrow">
                        <path fill="none" stroke="white" stroke-width="1.5" d="M0,-3.0v7 M-2.5,-0.5L0,-3.0L2.5,-0.5"/>
                </g>
               <g id="resetDef">
                       <use xlink:href="#rim2" fill="#404040">
                               <set attributeName="fill" to="#808080" begin="reset.mouseover" end="reset.mouseout"/>
                       </use>
               </g>
        </defs>

<script type="text/javascript">
var viewWidth = 3746;
var viewHeight = 140;
var sectionId = 'dynsection-1';
</script>
<script xlink:href="svgpan.js"/>
<svg id="graph" class="graph">
<g id="viewport">
<title>PlantInstance.h</title>
<!-- Node1 -->
<g id="node1" class="node">
<title>Node1</title>
<g id="a_node1"><a xlink:title="Represents a single, physical plant in the nursery.">
<polygon fill="#bfbfbf" stroke="black" points="1789.5,-112.5 1789.5,-131.5 1881.5,-131.5 1881.5,-112.5 1789.5,-112.5"/>
<text text-anchor="middle" x="1835.5" y="-119.5" font-family="Helvetica,sans-Serif" font-size="10.00">PlantInstance.h</text>
</a>
</g>
</g>
<!-- Node2 -->
<g id="node2" class="node">
<title>Node2</title>
<g id="a_node2"><a xlink:href="PlantStateUtils_8h.html" target="_top" xlink:title="Common helper functions shared by lifecycle state implementations.">
<polygon fill="none" stroke="black" points="175.5,-56.5 175.5,-75.5 273.5,-75.5 273.5,-56.5 175.5,-56.5"/>
<text text-anchor="middle" x="224.5" y="-63.5" font-family="Helvetica,sans-Serif" font-size="10.00">PlantStateUtils.h</text>
</a>
</g>
</g>
<!-- Node1&#45;&gt;Node2 -->
<g id="edge1" class="edge">
<title>Node1&#45;&gt;Node2</title>
<path fill="none" stroke="midnightblue" d="M1778.84,-120.21C1536.48,-116.7 585.77,-101.56 287.5,-76 282.99,-75.61 278.3,-75.12 273.62,-74.56"/>
<polygon fill="midnightblue" stroke="midnightblue" points="1779.13,-123.72 1789.18,-120.36 1779.23,-116.72 1779.13,-123.72"/>
</g>
<!-- Node3 -->
<g id="node3" class="node">
<title>Node3</title>
<g id="a_node3"><a xlink:href="GrowingState_8cpp.html" target="_top" xlink:title="Implements the GrowingState behaviour defined in the corresponding header.">
<polygon fill="none" stroke="black" points="0,-0.5 0,-19.5 103,-19.5 103,-0.5 0,-0.5"/>
<text text-anchor="middle" x="51.5" y="-7.5" font-family="Helvetica,sans-Serif" font-size="10.00">GrowingState.cpp</text>
</a>
</g>
</g>
<!-- Node1&#45;&gt;Node3 -->
<g id="edge17" class="edge">
<title>Node1&#45;&gt;Node3</title>
<path fill="none" stroke="midnightblue" d="M1778.95,-121.26C1503.87,-122.3 312.48,-123.98 154.5,-76 116.26,-64.39 78.34,-34.49 61.11,-19.64"/>
<polygon fill="midnightblue" stroke="midnightblue" points="1779.12,-124.76 1789.1,-121.22 1779.09,-117.76 1779.12,-124.76"/>
</g>
<!-- Node4 -->
<g id="node4" class="node">
<title>Node4</title>
<g id="a_node4"><a xlink:href="MatureState_8cpp.html" target="_top" xlink:title="Implements the MatureState behaviour defined in the corresponding header.">
<polygon fill="none" stroke="black" points="121,-0.5 121,-19.5 218,-19.5 218,-0.5 121,-0.5"/>
<text text-anchor="middle" x="169.5" y="-7.5" font-family="Helvetica,sans-Serif" font-size="10.00">MatureState.cpp</text>
</a>
</g>
</g>
<!-- Node1&#45;&gt;Node4 -->
<g id="edge20" class="edge">
<title>Node1&#45;&gt;Node4</title>
<path fill="none" stroke="midnightblue" d="M1778.89,-120.55C1490.28,-118.11 195.24,-105.53 166.5,-76 151.84,-60.94 160.07,-33.45 165.66,-19.54"/>
<polygon fill="midnightblue" stroke="midnightblue" points="1779.09,-124.05 1789.12,-120.63 1779.15,-117.05 1779.09,-124.05"/>
</g>
<!-- Node5 -->
<g id="node5" class="node">
<title>Node5</title>
<g id="a_node5"><a xlink:href="SeedState_8cpp.html" target="_top" xlink:title="Implements the SeedState behaviour defined in the corresponding header.">
<polygon fill="none" stroke="black" points="236.5,-0.5 236.5,-19.5 322.5,-19.5 322.5,-0.5 236.5,-0.5"/>
<text text-anchor="middle" x="279.5" y="-7.5" font-family="Helvetica,sans-Serif" font-size="10.00">SeedState.cpp</text>
</a>
</g>
</g>
<!-- Node1&#45;&gt;Node5 -->
<g id="edge25" class="edge">
<title>Node1&#45;&gt;Node5</title>
<path fill="none" stroke="midnightblue" d="M1779.17,-120.41C1515.78,-117.53 415.68,-103.84 348.5,-76 319.92,-64.15 296.1,-34.65 285.47,-19.81"/>
<polygon fill="midnightblue" stroke="midnightblue" points="1779.23,-123.91 1789.27,-120.52 1779.31,-116.91 1779.23,-123.91"/>
</g>
<!-- Node6 -->
<g id="node6" class="node">
<title>Node6</title>
<g id="a_node6"><a xlink:href="WitheringState_8cpp.html" target="_top" xlink:title="Implements the WitheringState behaviour defined in the corresponding header.">
<polygon fill="none" stroke="black" points="340.5,-0.5 340.5,-19.5 450.5,-19.5 450.5,-0.5 340.5,-0.5"/>
<text text-anchor="middle" x="395.5" y="-7.5" font-family="Helvetica,sans-Serif" font-size="10.00">WitheringState.cpp</text>
</a>
</g>
</g>
<!-- Node1&#45;&gt;Node6 -->
<g id="edge35" class="edge">
<title>Node1&#45;&gt;Node6</title>
<path fill="none" stroke="midnightblue" d="M1779.07,-120.35C1511.63,-117.12 383.69,-101.97 358.5,-76 341.96,-58.94 367.97,-33.06 384.15,-19.68"/>
<polygon fill="midnightblue" stroke="midnightblue" points="1779.28,-123.85 1789.32,-120.47 1779.36,-116.85 1779.28,-123.85"/>
</g>
<!-- Node7 -->
<g id="node7" class="node">
<title>Node7</title>
<g id="a_node7"><a xlink:href="ConcreteGreenhouseIterator_8cpp.html" target="_top" xlink:title="Implements the ConcreteGreenhouseIterator behaviour defined in the corresponding header.">
<polygon fill="none" stroke="black" points="367.5,-56.5 367.5,-75.5 541.5,-75.5 541.5,-56.5 367.5,-56.5"/>
<text text-anchor="middle" x="454.5" y="-63.5" font-family="Helvetica,sans-Serif" font-size="10.00">ConcreteGreenhouseIterator.cpp</text>
</a>
</g>
</g>
<!-- Node1&#45;&gt;Node7 -->
<g id="edge6" class="edge">
<title>Node1&#45;&gt;Node7</title>
<path fill="none" stroke="midnightblue" d="M1779.09,-120.2C1599.51,-117.41 1025.01,-106.52 550.5,-76 547.58,-75.81 544.6,-75.61 541.6,-75.39"/>
<polygon fill="midnightblue" stroke="midnightblue" points="1779.3,-123.7 1789.35,-120.36 1779.41,-116.71 1779.3,-123.7"/>
</g>
<!-- Node8 -->
<g id="node8" class="node">
<title>Node8</title>
<g id="a_node8"><a xlink:href="ConcreteInventoryIterator_8cpp.html" target="_top" xlink:title="Implements the ConcreteInventoryIterator behaviour defined in the corresponding header.">
<polygon fill="none" stroke="black" points="559.5,-56.5 559.5,-75.5 721.5,-75.5 721.5,-56.5 559.5,-56.5"/>
<text text-anchor="middle" x="640.5" y="-63.5" font-family="Helvetica,sans-Serif" font-size="10.00">ConcreteInventoryIterator.cpp</text>
</a>
</g>
</g>
<!-- Node1&#45;&gt;Node8 -->
<g id="edge7" class="edge">
<title>Node1&#45;&gt;Node8</title>
<path fill="none" stroke="midnightblue" d="M1779.2,-119.86C1616.62,-116.3 1132.45,-103.98 731.5,-76 728.33,-75.78 725.1,-75.54 721.84,-75.28"/>
<polygon fill="midnightblue" stroke="midnightblue" points="1779.36,-123.36 1789.44,-120.08 1779.51,-116.36 1779.36,-123.36"/>
</g>
<!-- Node9 -->
<g id="node9" class="node">
<title>Node9</title>
<g id="a_node9"><a xlink:href="CSVAdapter_8cpp.html" target="_top" xlink:title="Implements the CSVAdapter behaviour defined in the corresponding header.">
<polygon fill="none" stroke="black" points="740,-56.5 740,-75.5 833,-75.5 833,-56.5 740,-56.5"/>
<text text-anchor="middle" x="786.5" y="-63.5" font-family="Helvetica,sans-Serif" font-size="10.00">CSVAdapter.cpp</text>
</a>
</g>
</g>
<!-- Node1&#45;&gt;Node9 -->
<g id="edge8" class="edge">
<title>Node1&#45;&gt;Node9</title>
<path fill="none" stroke="midnightblue" d="M1779.33,-120.7C1627.76,-119.39 1197.85,-112.49 842.5,-76 839.46,-75.69 836.34,-75.32 833.2,-74.91"/>
<polygon fill="midnightblue" stroke="midnightblue" points="1779.31,-124.2 1789.33,-120.78 1779.36,-117.2 1779.31,-124.2"/>
</g>
<!-- Node10 -->
<g id="node10" class="node">
<title>Node10</title>
<g id="a_node10"><a xlink:href="CSVReaderWriter_8cpp.html" target="_top" xlink:title="Implements the CSVReaderWriter behaviour defined in the corresponding header.">
<polygon fill="none" stroke="black" points="851.5,-56.5 851.5,-75.5 971.5,-75.5 971.5,-56.5 851.5,-56.5"/>
<text text-anchor="middle" x="911.5" y="-63.5" font-family="Helvetica,sans-Serif" font-size="10.00">CSVReaderWriter.cpp</text>
</a>
</g>
</g>
<!-- Node1&#45;&gt;Node10 -->
<g id="edge9" class="edge">
<title>Node1&#45;&gt;Node10</title>
<path fill="none" stroke="midnightblue" d="M1778.8,-119.53C1641.54,-115.63 1280.58,-103.43 980.5,-76 977.61,-75.74 974.66,-75.44 971.68,-75.13"/>
<polygon fill="midnightblue" stroke="midnightblue" points="1778.98,-123.03 1789.07,-119.82 1779.17,-116.04 1778.98,-123.03"/>
</g>
<!-- Node11 -->
<g id="node11" class="node">
<title>Node11</title>
<g id="a_node11"><a xlink:href="DeadState_8cpp.html" target="_top" xlink:title="Implements the DeadState behaviour defined in the corresponding header.">
<polygon fill="none" stroke="black" points="989.5,-56.5 989.5,-75.5 1077.5,-75.5 1077.5,-56.5 989.5,-56.5"/>
<text text-anchor="middle" x="1033.5" y="-63.5" font-family="Helvetica,sans-Serif" font-size="10.00">DeadState.cpp</text>
</a>
</g>
</g>
<!-- Node1&#45;&gt;Node11 -->
<g id="edge10" class="edge">
<title>Node1&#45;&gt;Node11</title>
<path fill="none" stroke="midnightblue" d="M1779.31,-119.64C1654.52,-116.16 1344.95,-105.12 1087.5,-76 1084.29,-75.64 1080.98,-75.21 1077.65,-74.75"/>
<polygon fill="midnightblue" stroke="midnightblue" points="1779.3,-123.14 1789.39,-119.91 1779.49,-116.14 1779.3,-123.14"/>
</g>
<!-- Node12 -->
<g id="node12" class="node">
<title>Node12</title>
<g id="a_node12"><a xlink:href="FertilizePlant_8cpp.html" target="_top" xlink:title="Implements the FertilizePlant behaviour defined in the corresponding header.">
<polygon fill="none" stroke="black" points="1096,-56.5 1096,-75.5 1197,-75.5 1197,-56.5 1096,-56.5"/>
<text text-anchor="middle" x="1146.5" y="-63.5" font-family="Helvetica,sans-Serif" font-size="10.00">FertilizePlant.cpp</text>
</a>
</g>
</g>
<!-- Node1&#45;&gt;Node12 -->
<g id="edge11" class="edge">
<title>Node1&#45;&gt;Node12</title>
<path fill="none" stroke="midnightblue" d="M1779,-118.43C1668.7,-113.08 1417.07,-99.29 1206.5,-76 1203.46,-75.66 1200.35,-75.29 1197.2,-74.89"/>
<polygon fill="midnightblue" stroke="midnightblue" points="1779.07,-121.94 1789.22,-118.92 1779.4,-114.94 1779.07,-121.94"/>
</g>
<!-- Node13 -->
<g id="node13" class="node">
<title>Node13</title>
<g id="a_node13"><a xlink:href="FertilizeStrategy_8cpp.html" target="_top" xlink:title="Implements the FertilizeStrategy behaviour defined in the corresponding header.">
<polygon fill="none" stroke="black" points="1215.5,-56.5 1215.5,-75.5 1331.5,-75.5 1331.5,-56.5 1215.5,-56.5"/>
<text text-anchor="middle" x="1273.5" y="-63.5" font-family="Helvetica,sans-Serif" font-size="10.00">FertilizeStrategy.cpp</text>
</a>
</g>
</g>
<!-- Node1&#45;&gt;Node13 -->
<g id="edge12" class="edge">
<title>Node1&#45;&gt;Node13</title>
<path fill="none" stroke="midnightblue" d="M1779.17,-116.67C1687.23,-109.43 1499.24,-93.87 1340.5,-76 1337.58,-75.67 1334.6,-75.32 1331.59,-74.96"/>
<polygon fill="midnightblue" stroke="midnightblue" points="1779.13,-120.18 1789.37,-117.47 1779.67,-113.2 1779.13,-120.18"/>
</g>
<!-- Node14 -->
<g id="node14" class="node">
<title>Node14</title>
<g id="a_node14"><a xlink:href="FertilizingHandler_8cpp.html" target="_top" xlink:title="Implements the FertilizingHandler behaviour defined in the corresponding header.">
<polygon fill="none" stroke="black" points="1349.5,-56.5 1349.5,-75.5 1471.5,-75.5 1471.5,-56.5 1349.5,-56.5"/>
<text text-anchor="middle" x="1410.5" y="-63.5" font-family="Helvetica,sans-Serif" font-size="10.00">FertilizingHandler.cpp</text>
</a>
</g>
</g>
<!-- Node1&#45;&gt;Node14 -->
<g id="edge13" class="edge">
<title>Node1&#45;&gt;Node14</title>
<path fill="none" stroke="midnightblue" d="M1778.86,-113.8C1699.04,-103.66 1554.03,-85.24 1471.77,-74.78"/>
<polygon fill="midnightblue" stroke="midnightblue" points="1778.85,-117.33 1789.21,-115.12 1779.73,-110.39 1778.85,-117.33"/>
</g>
<!-- Node15 -->
<g id="node15" class="node">
<title>Node15</title>
<g id="a_node15"><a xlink:href="FrequentWatering_8cpp.html" target="_top" xlink:title="Implements the FrequentWatering behaviour defined in the corresponding header.">
<polygon fill="none" stroke="black" points="1490,-56.5 1490,-75.5 1613,-75.5 1613,-56.5 1490,-56.5"/>
<text text-anchor="middle" x="1551.5" y="-63.5" font-family="Helvetica,sans-Serif" font-size="10.00">FrequentWatering.cpp</text>
</a>
</g>
</g>
<!-- Node1&#45;&gt;Node15 -->
<g id="edge14" class="edge">
<title>Node1&#45;&gt;Node15</title>
<path fill="none" stroke="midnightblue" d="M1780.47,-110.54C1726.8,-100.33 1646.16,-85 1596.29,-75.52"/>
<polygon fill="midnightblue" stroke="midnightblue" points="1780.02,-114.01 1790.5,-112.44 1781.33,-107.14 1780.02,-114.01"/>
</g>
<!-- Node16 -->
<g id="node16" class="node">
<title>Node16</title>
<g id="a_node16"><a xlink:href="GreenhouseBed_8cpp.html" target="_top" xlink:title="Implements the GreenhouseBed behaviour defined in the corresponding header.">
<polygon fill="none" stroke="black" points="1631.5,-56.5 1631.5,-75.5 1745.5,-75.5 1745.5,-56.5 1631.5,-56.5"/>
<text text-anchor="middle" x="1688.5" y="-63.5" font-family="Helvetica,sans-Serif" font-size="10.00">GreenhouseBed.cpp</text>
</a>
</g>
</g>
<!-- Node1&#45;&gt;Node16 -->
<g id="edge15" class="edge">
<title>Node1&#45;&gt;Node16</title>
<path fill="none" stroke="midnightblue" d="M1802.58,-108.91C1774.94,-98.75 1736.16,-84.51 1711.68,-75.52"/>
<polygon fill="midnightblue" stroke="midnightblue" points="1801.61,-112.28 1812.21,-112.44 1804.03,-105.71 1801.61,-112.28"/>
</g>
<!-- Node17 -->
<g id="node17" class="node">
<title>Node17</title>
<g id="a_node17"><a xlink:href="GreenhouseController_8cpp.html" target="_top" xlink:title="Implements the GreenhouseController behaviour defined in the corresponding header.">
<polygon fill="none" stroke="black" points="1764,-56.5 1764,-75.5 1907,-75.5 1907,-56.5 1764,-56.5"/>
<text text-anchor="middle" x="1835.5" y="-63.5" font-family="Helvetica,sans-Serif" font-size="10.00">GreenhouseController.cpp</text>
</a>
</g>
</g>
<!-- Node1&#45;&gt;Node17 -->
<g id="edge16" class="edge">
<title>Node1&#45;&gt;Node17</title>
<path fill="none" stroke="midnightblue" d="M1835.5,-101.8C1835.5,-92.91 1835.5,-82.78 1835.5,-75.75"/>
<polygon fill="midnightblue" stroke="midnightblue" points="1832,-102.08 1835.5,-112.08 1839,-102.08 1832,-102.08"/>
</g>
<!-- Node18 -->
<g id="node18" class="node">
<title>Node18</title>
<g id="a_node18"><a xlink:href="Inventory_8cpp.html" target="_top" xlink:title="Implements the Inventory behaviour defined in the corresponding header.">
<polygon fill="none" stroke="black" points="1925.5,-56.5 1925.5,-75.5 2007.5,-75.5 2007.5,-56.5 1925.5,-56.5"/>
<text text-anchor="middle" x="1966.5" y="-63.5" font-family="Helvetica,sans-Serif" font-size="10.00">Inventory.cpp</text>
</a>
</g>
</g>
<!-- Node1&#45;&gt;Node18 -->
<g id="edge18" class="edge">
<title>Node1&#45;&gt;Node18</title>
<path fill="none" stroke="midnightblue" d="M1865.82,-108.5C1890.38,-98.38 1924.32,-84.39 1945.84,-75.52"/>
<polygon fill="midnightblue" stroke="midnightblue" points="1864.17,-105.4 1856.26,-112.44 1866.84,-111.87 1864.17,-105.4"/>
</g>
<!-- Node19 -->
<g id="node19" class="node">
<title>Node19</title>
<g id="a_node19"><a xlink:href="LiquidFertilizer_8cpp.html" target="_top" xlink:title="Implements the LiquidFertilizer behaviour defined in the corresponding header.">
<polygon fill="none" stroke="black" points="2025.5,-56.5 2025.5,-75.5 2133.5,-75.5 2133.5,-56.5 2025.5,-56.5"/>
<text text-anchor="middle" x="2079.5" y="-63.5" font-family="Helvetica,sans-Serif" font-size="10.00">LiquidFertilizer.cpp</text>
</a>
</g>
</g>
<!-- Node1&#45;&gt;Node19 -->
<g id="edge19" class="edge">
<title>Node1&#45;&gt;Node19</title>
<path fill="none" stroke="midnightblue" d="M1883.93,-110.28C1930.04,-100.08 1998.53,-84.92 2041.02,-75.52"/>
<polygon fill="midnightblue" stroke="midnightblue" points="1883.17,-106.87 1874.16,-112.44 1884.68,-113.7 1883.17,-106.87"/>
</g>
<!-- Node20 -->
<g id="node20" class="node">
<title>Node20</title>
<g id="a_node20"><a xlink:href="OrderDirector_8cpp.html" target="_top" xlink:title="Implements the OrderDirector behaviour defined in the corresponding header.">
<polygon fill="none" stroke="black" points="2151.5,-56.5 2151.5,-75.5 2253.5,-75.5 2253.5,-56.5 2151.5,-56.5"/>
<text text-anchor="middle" x="2202.5" y="-63.5" font-family="Helvetica,sans-Serif" font-size="10.00">OrderDirector.cpp</text>
</a>
</g>
</g>
<!-- Node1&#45;&gt;Node20 -->
<g id="edge21" class="edge">
<title>Node1&#45;&gt;Node20</title>
<path fill="none" stroke="midnightblue" d="M1891.81,-112.8C1953.39,-103.83 2054.98,-88.98 2142.5,-76 2145.42,-75.57 2148.41,-75.12 2151.44,-74.67"/>
<polygon fill="midnightblue" stroke="midnightblue" points="1890.93,-109.4 1881.54,-114.3 1891.94,-116.32 1890.93,-109.4"/>
</g>
<!-- Node21 -->
<g id="node21" class="node">
<title>Node21</title>
<g id="a_node21"><a xlink:href="OrganicFertilizer_8cpp.html" target="_top" xlink:title="Implements the OrganicFertilizer behaviour defined in the corresponding header.">
<polygon fill="none" stroke="black" points="2271.5,-56.5 2271.5,-75.5 2387.5,-75.5 2387.5,-56.5 2271.5,-56.5"/>
<text text-anchor="middle" x="2329.5" y="-63.5" font-family="Helvetica,sans-Serif" font-size="10.00">OrganicFertilizer.cpp</text>
</a>
</g>
</g>
<!-- Node1&#45;&gt;Node21 -->
<g id="edge22" class="edge">
<title>Node1&#45;&gt;Node21</title>
<path fill="none" stroke="midnightblue" d="M1891.74,-115.59C1973.46,-107.61 2129.77,-91.91 2262.5,-76 2265.41,-75.65 2268.4,-75.28 2271.41,-74.91"/>
<polygon fill="midnightblue" stroke="midnightblue" points="1891.29,-112.12 1881.68,-116.57 1891.97,-119.08 1891.29,-112.12"/>
</g>
<!-- Node22 -->
<g id="node22" class="node">
<title>Node22</title>
<g id="a_node22"><a xlink:href="PlantInstance_8cpp.html" target="_top" xlink:title="Implements the PlantInstance behaviour defined in the corresponding header.">
<polygon fill="none" stroke="black" points="2406,-56.5 2406,-75.5 2509,-75.5 2509,-56.5 2406,-56.5"/>
<text text-anchor="middle" x="2457.5" y="-63.5" font-family="Helvetica,sans-Serif" font-size="10.00">PlantInstance.cpp</text>
</a>
</g>
</g>
<!-- Node1&#45;&gt;Node22 -->
<g id="edge23" class="edge">
<title>Node1&#45;&gt;Node22</title>
<path fill="none" stroke="midnightblue" d="M1891.78,-117.73C1992.98,-111.57 2212.3,-96.95 2396.5,-76 2399.58,-75.65 2402.75,-75.26 2405.95,-74.85"/>
<polygon fill="midnightblue" stroke="midnightblue" points="1891.55,-114.23 1881.78,-118.33 1891.97,-121.22 1891.55,-114.23"/>
</g>
<!-- Node23 -->
<g id="node23" class="node">
<title>Node23</title>
<g id="a_node23"><a xlink:href="SeasonalWatering_8cpp.html" target="_top" xlink:title="Implements the SeasonalWatering behaviour defined in the corresponding header.">
<polygon fill="none" stroke="black" points="2527,-56.5 2527,-75.5 2652,-75.5 2652,-56.5 2527,-56.5"/>
<text text-anchor="middle" x="2589.5" y="-63.5" font-family="Helvetica,sans-Serif" font-size="10.00">SeasonalWatering.cpp</text>
</a>
</g>
</g>
<!-- Node1&#45;&gt;Node23 -->
<g id="edge24" class="edge">
<title>Node1&#45;&gt;Node23</title>
<path fill="none" stroke="midnightblue" d="M1891.68,-118.45C2008.54,-112.88 2286.27,-98.35 2518.5,-76 2521.22,-75.74 2524,-75.45 2526.8,-75.16"/>
<polygon fill="midnightblue" stroke="midnightblue" points="1891.37,-114.96 1881.54,-118.93 1891.7,-121.95 1891.37,-114.96"/>
</g>
<!-- Node24 -->
<g id="node24" class="node">
<title>Node24</title>
<g id="a_node24"><a xlink:href="SlowReleaseFertilizer_8cpp.html" target="_top" xlink:title="Implements the SlowReleaseFertilizer behaviour defined in the corresponding header.">
<polygon fill="none" stroke="black" points="2670,-56.5 2670,-75.5 2811,-75.5 2811,-56.5 2670,-56.5"/>
<text text-anchor="middle" x="2740.5" y="-63.5" font-family="Helvetica,sans-Serif" font-size="10.00">SlowReleaseFertilizer.cpp</text>
</a>
</g>
</g>
<!-- Node1&#45;&gt;Node24 -->
<g id="edge26" class="edge">
<title>Node1&#45;&gt;Node24</title>
<path fill="none" stroke="midnightblue" d="M1891.69,-119.08C2025.3,-114.28 2372.44,-100.32 2661.5,-76 2664.25,-75.77 2667.05,-75.52 2669.89,-75.25"/>
<polygon fill="midnightblue" stroke="midnightblue" points="1891.55,-115.59 1881.69,-119.44 1891.8,-122.58 1891.55,-115.59"/>
</g>
<!-- Node25 -->
<g id="node25" class="node">
<title>Node25</title>
<g id="a_node25"><a xlink:href="SparseWatering_8cpp.html" target="_top" xlink:title="Implements the SparseWatering behaviour defined in the corresponding header.">
<polygon fill="none" stroke="black" points="2829,-56.5 2829,-75.5 2942,-75.5 2942,-56.5 2829,-56.5"/>
<text text-anchor="middle" x="2885.5" y="-63.5" font-family="Helvetica,sans-Serif" font-size="10.00">SparseWatering.cpp</text>
</a>
</g>
</g>
<!-- Node1&#45;&gt;Node25 -->
<g id="edge27" class="edge">
<title>Node1&#45;&gt;Node25</title>
<path fill="none" stroke="midnightblue" d="M1892.16,-120.23C2043.28,-117.79 2468.41,-108.35 2820.5,-76 2823.22,-75.75 2826.01,-75.47 2828.82,-75.16"/>
<polygon fill="midnightblue" stroke="midnightblue" points="1891.7,-116.74 1881.76,-120.4 1891.81,-123.74 1891.7,-116.74"/>
</g>
<!-- Node26 -->
<g id="node26" class="node">
<title>Node26</title>
<g id="a_node26"><a xlink:href="Staff_8cpp.html" target="_top" xlink:title="Implements the Staff behaviour defined in the corresponding header.">
<polygon fill="none" stroke="black" points="2960,-56.5 2960,-75.5 3019,-75.5 3019,-56.5 2960,-56.5"/>
<text text-anchor="middle" x="2989.5" y="-63.5" font-family="Helvetica,sans-Serif" font-size="10.00">Staff.cpp</text>
</a>
</g>
</g>
<!-- Node1&#45;&gt;Node26 -->
<g id="edge28" class="edge">
<title>Node1&#45;&gt;Node26</title>
<path fill="none" stroke="midnightblue" d="M1891.82,-120.16C2088.4,-117.01 2743.43,-104.56 2951.5,-76 2954.19,-75.63 2956.96,-75.16 2959.73,-74.62"/>
<polygon fill="midnightblue" stroke="midnightblue" points="1891.65,-116.66 1881.71,-120.32 1891.77,-123.66 1891.65,-116.66"/>
</g>
<!-- Node27 -->
<g id="node27" class="node">
<title>Node27</title>
<g id="a_node27"><a xlink:href="StockItem_8cpp.html" target="_top" xlink:title="Implements the StockItem behaviour defined in the corresponding header.">
<polygon fill="none" stroke="black" points="3037.5,-56.5 3037.5,-75.5 3123.5,-75.5 3123.5,-56.5 3037.5,-56.5"/>
<text text-anchor="middle" x="3080.5" y="-63.5" font-family="Helvetica,sans-Serif" font-size="10.00">StockItem.cpp</text>
</a>
</g>
</g>
<!-- Node1&#45;&gt;Node27 -->
<g id="edge29" class="edge">
<title>Node1&#45;&gt;Node27</title>
<path fill="none" stroke="midnightblue" d="M1891.76,-121.54C2062.98,-122.62 2592.67,-121.73 3028.5,-76 3031.42,-75.69 3034.42,-75.32 3037.43,-74.91"/>
<polygon fill="midnightblue" stroke="midnightblue" points="1891.74,-118.04 1881.72,-121.47 1891.69,-125.04 1891.74,-118.04"/>
</g>
<!-- Node28 -->
<g id="node28" class="node">
<title>Node28</title>
<g id="a_node28"><a xlink:href="TXTAdapter_8cpp.html" target="_top" xlink:title="Implements the TXTAdapter behaviour defined in the corresponding header.">
<polygon fill="none" stroke="black" points="3141.5,-56.5 3141.5,-75.5 3233.5,-75.5 3233.5,-56.5 3141.5,-56.5"/>
<text text-anchor="middle" x="3187.5" y="-63.5" font-family="Helvetica,sans-Serif" font-size="10.00">TXTAdapter.cpp</text>
</a>
</g>
</g>
<!-- Node1&#45;&gt;Node28 -->
<g id="edge30" class="edge">
<title>Node1&#45;&gt;Node28</title>
<path fill="none" stroke="midnightblue" d="M1891.65,-121.6C2072.23,-123 2654.11,-123.25 3132.5,-76 3135.39,-75.71 3138.36,-75.37 3141.34,-74.99"/>
<polygon fill="midnightblue" stroke="midnightblue" points="1891.62,-118.1 1881.59,-121.52 1891.56,-125.1 1891.62,-118.1"/>
</g>
<!-- Node29 -->
<g id="node29" class="node">
<title>Node29</title>
<g id="a_node29"><a xlink:href="TXTReaderWriter_8cpp.html" target="_top" xlink:title="Implements the TXTReaderWriter behaviour defined in the corresponding header.">
<polygon fill="none" stroke="black" points="3252,-56.5 3252,-75.5 3371,-75.5 3371,-56.5 3252,-56.5"/>
<text text-anchor="middle" x="3311.5" y="-63.5" font-family="Helvetica,sans-Serif" font-size="10.00">TXTReaderWriter.cpp</text>
</a>
</g>
</g>
<!-- Node1&#45;&gt;Node29 -->
<g id="edge31" class="edge">
<title>Node1&#45;&gt;Node29</title>
<path fill="none" stroke="midnightblue" d="M1891.79,-121.17C2082.07,-121.33 2718.66,-118.44 3242.5,-76 3245.51,-75.76 3248.59,-75.47 3251.7,-75.16"/>
<polygon fill="midnightblue" stroke="midnightblue" points="1891.75,-117.67 1881.75,-121.16 1891.74,-124.67 1891.75,-117.67"/>
</g>
<!-- Node30 -->
<g id="node30" class="node">
<title>Node30</title>
<g id="a_node30"><a xlink:href="WateringHandler_8cpp.html" target="_top" xlink:title="Implements the WateringHandler behaviour defined in the corresponding header.">
<polygon fill="none" stroke="black" points="3389.5,-56.5 3389.5,-75.5 3507.5,-75.5 3507.5,-56.5 3389.5,-56.5"/>
<text text-anchor="middle" x="3448.5" y="-63.5" font-family="Helvetica,sans-Serif" font-size="10.00">WateringHandler.cpp</text>
</a>
</g>
</g>
<!-- Node1&#45;&gt;Node30 -->
<g id="edge32" class="edge">
<title>Node1&#45;&gt;Node30</title>
<path fill="none" stroke="midnightblue" d="M1891.8,-121.44C2093.68,-122.57 2800.14,-122.73 3380.5,-76 3383.35,-75.77 3386.26,-75.51 3389.2,-75.21"/>
<polygon fill="midnightblue" stroke="midnightblue" points="1891.75,-117.94 1881.73,-121.38 1891.71,-124.94 1891.75,-117.94"/>
</g>
<!-- Node31 -->
<g id="node31" class="node">
<title>Node31</title>
<g id="a_node31"><a xlink:href="WaterPlant_8cpp.html" target="_top" xlink:title="Implements the WaterPlant behaviour defined in the corresponding header.">
<polygon fill="none" stroke="black" points="3525.5,-56.5 3525.5,-75.5 3615.5,-75.5 3615.5,-56.5 3525.5,-56.5"/>
<text text-anchor="middle" x="3570.5" y="-63.5" font-family="Helvetica,sans-Serif" font-size="10.00">WaterPlant.cpp</text>
</a>
</g>
</g>
<!-- Node1&#45;&gt;Node31 -->
<g id="edge33" class="edge">
<title>Node1&#45;&gt;Node31</title>
<path fill="none" stroke="midnightblue" d="M1891.99,-120.54C2146.78,-118.3 3190.82,-107.35 3516.5,-76 3519.43,-75.72 3522.45,-75.37 3525.48,-74.98"/>
<polygon fill="midnightblue" stroke="midnightblue" points="1891.82,-117.04 1881.85,-120.63 1891.88,-124.04 1891.82,-117.04"/>
</g>
<!-- Node32 -->
<g id="node32" class="node">
<title>Node32</title>
<g id="a_node32"><a xlink:href="waterStrategy_8cpp.html" target="_top" xlink:title="Implements the waterStrategy behaviour defined in the corresponding header.">
<polygon fill="none" stroke="black" points="3633.5,-56.5 3633.5,-75.5 3737.5,-75.5 3737.5,-56.5 3633.5,-56.5"/>
<text text-anchor="middle" x="3685.5" y="-63.5" font-family="Helvetica,sans-Serif" font-size="10.00">waterStrategy.cpp</text>
</a>
</g>
</g>
<!-- Node1&#45;&gt;Node32 -->
<g id="edge34" class="edge">
<title>Node1&#45;&gt;Node32</title>
<path fill="none" stroke="midnightblue" d="M1891.68,-120.51C2155.81,-118.04 3275.89,-105.99 3624.5,-76 3627.38,-75.75 3630.33,-75.46 3633.31,-75.13"/>
<polygon fill="midnightblue" stroke="midnightblue" points="1891.52,-117.01 1881.55,-120.6 1891.59,-124.01 1891.52,-117.01"/>
</g>
<!-- Node2&#45;&gt;Node3 -->
<g id="edge2" class="edge">
<title>Node2&#45;&gt;Node3</title>
<path fill="none" stroke="midnightblue" d="M187.45,-53.44C154.84,-43.26 108.09,-28.66 78.78,-19.52"/>
<polygon fill="midnightblue" stroke="midnightblue" points="186.5,-56.8 197.09,-56.44 188.58,-50.12 186.5,-56.8"/>
</g>
<!-- Node2&#45;&gt;Node4 -->
<g id="edge3" class="edge">
<title>Node2&#45;&gt;Node4</title>
<path fill="none" stroke="midnightblue" d="M208.21,-49C198.46,-39.43 186.45,-27.64 178.41,-19.75"/>
<polygon fill="midnightblue" stroke="midnightblue" points="205.83,-51.57 215.42,-56.08 210.73,-46.58 205.83,-51.57"/>
</g>
<!-- Node2&#45;&gt;Node5 -->
<g id="edge4" class="edge">
<title>Node2&#45;&gt;Node5</title>
<path fill="none" stroke="midnightblue" d="M240.79,-49C250.54,-39.43 262.55,-27.64 270.59,-19.75"/>
<polygon fill="midnightblue" stroke="midnightblue" points="238.27,-46.58 233.58,-56.08 243.17,-51.57 238.27,-46.58"/>
</g>
<!-- Node2&#45;&gt;Node6 -->
<g id="edge5" class="edge">
<title>Node2&#45;&gt;Node6</title>
<path fill="none" stroke="midnightblue" d="M261.54,-53.3C293.76,-43.13 339.69,-28.62 368.53,-19.52"/>
<polygon fill="midnightblue" stroke="midnightblue" points="260.08,-50.09 251.6,-56.44 262.19,-56.77 260.08,-50.09"/>
</g>
</g>
</svg>
        <g id="navigator" transform="translate(0 0)" fill="#404254">
                <rect fill="#f2f5e9" fill-opacity="0.5" stroke="#606060" stroke-width=".5" x="0" y="0" width="60" height="60"/>
                <use id="zoomplus" xlink:href="#zoomPlus" x="17" y="9" onmousedown="handleZoom(evt,'in')"/>
                <use id="zoomminus" xlink:href="#zoomMin" x="42" y="9" onmousedown="handleZoom(evt,'out')"/>
                <use id="reset" xlink:href="#resetDef" x="30" y="36" onmousedown="handleReset()"/>
                <g id="arrowUp" xlink:href="#dirArrow" transform="translate(30 24)" onmousedown="handlePan(0,-1)">
                  <use xlink:href="#rim" fill="#404040">
                        <set attributeName="fill" to="#808080" begin="arrowUp.mouseover" end="arrowUp.mouseout"/>
                  </use>
                  <path fill="none" stroke="white" stroke-width="1.5" d="M0,-3.0v7 M-2.5,-0.5L0,-3.0L2.5,-0.5"/>
                </g>
                <g id="arrowRight" xlink:href="#dirArrow" transform="rotate(90) translate(36 -43)" onmousedown="handlePan(1,0)">
                  <use xlink:href="#rim" fill="#404040">
                        <set attributeName="fill" to="#808080" begin="arrowRight.mouseover" end="arrowRight.mouseout"/>
                  </use>
                  <path fill="none" stroke="white" stroke-width="1.5" d="M0,-3.0v7 M-2.5,-0.5L0,-3.0L2.5,-0.5"/>
                </g>
                <g id="arrowDown" xlink:href="#dirArrow" transform="rotate(180) translate(-30 -48)" onmousedown="handlePan(0,1)">
                  <use xlink:href="#rim" fill="#404040">
                        <set attributeName="fill" to="#808080" begin="arrowDown.mouseover" end="arrowDown.mouseout"/>
                  </use>
                  <path fill="none" stroke="white" stroke-width="1.5" d="M0,-3.0v7 M-2.5,-0.5L0,-3.0L2.5,-0.5"/>
                </g>
                <g id="arrowLeft" xlink:href="#dirArrow" transform="rotate(270) translate(-36 17)" onmousedown="handlePan(-1,0)">
                  <use xlink:href="#rim" fill="#404040">
                        <set attributeName="fill" to="#808080" begin="arrowLeft.mouseover" end="arrowLeft.mouseout"/>
                  </use>
                  <path fill="none" stroke="white" stroke-width="1.5" d="M0,-3.0v7 M-2.5,-0.5L0,-3.0L2.5,-0.5"/>
                </g>
        </g>
        <svg viewBox="0 0 15 15" width="100%" height="30px" preserveAspectRatio="xMaxYMin meet">
         <g id="arrow_out" transform="scale(0.3 0.3)">
          <a xlink:href="PlantInstance_8h__dep__incl_org.svg" target="_base">
           <rect id="button" ry="5" rx="5" y="6" x="6" height="38" width="38"
                fill="#f2f5e9" fill-opacity="0.5" stroke="#606060" stroke-width="1.0"/>
           <path id="arrow"
             d="M 11.500037,31.436501 C 11.940474,20.09759 22.043105,11.32322 32.158766,21.979434 L 37.068811,17.246167 C 37.068811,17.246167 37.088388,32 37.088388,32 L 22.160133,31.978069 C 22.160133,31.978069 26.997745,27.140456 26.997745,27.140456 C 18.528582,18.264221 13.291696,25.230495 11.500037,31.436501 z"
             style="fill:#404040;"/>
          </a>
         </g>
        </svg>
</svg>
