<?xml version="1.0" encoding="UTF-8" standalone="no"?>
<!DOCTYPE svg PUBLIC "-//W3C//DTD SVG 1.1//EN"
 "http://www.w3.org/Graphics/SVG/1.1/DTD/svg11.dtd">
<!-- Generated by graphviz version 2.43.0 (0)
 -->
<!-- Title: PlantInstance.cpp Pages: 1 -->
<svg width="1083pt" height="252pt"
 viewBox="0.00 0.00 1082.83 252.00" xmlns="http://www.w3.org/2000/svg" xmlns:xlink="http://www.w3.org/1999/xlink">
<g id="graph0" class="graph" transform="scale(1 1) rotate(0) translate(4 248)">
<title>PlantInstance.cpp</title>
<!-- Node1 -->
<g id="node1" class="node">
<title>Node1</title>
<g id="a_node1"><a xlink:title="Implements the PlantInstance behaviour defined in the corresponding header.">
<polygon fill="#bfbfbf" stroke="black" points="509.83,-224.5 509.83,-243.5 612.83,-243.5 612.83,-224.5 509.83,-224.5"/>
<text text-anchor="middle" x="561.33" y="-231.5" font-family="Helvetica,sans-Serif" font-size="10.00">PlantInstance.cpp</text>
</a>
</g>
</g>
<!-- Node2 -->
<g id="node2" class="node">
<title>Node2</title>
<g id="a_node2"><a xlink:href="PlantInstance_8h.html" target="_top" xlink:title="Represents a single, physical plant in the nursery.">
<polygon fill="none" stroke="black" points="202.83,-168.5 202.83,-187.5 341.83,-187.5 341.83,-168.5 202.83,-168.5"/>
<text text-anchor="middle" x="272.33" y="-175.5" font-family="Helvetica,sans-Serif" font-size="10.00">../include/PlantInstance.h</text>
</a>
</g>
</g>
<!-- Node1&#45;&gt;Node2 -->
<g id="edge1" class="edge">
<title>Node1&#45;&gt;Node2</title>
<path fill="none" stroke="midnightblue" d="M515.53,-224.44C464.59,-214.92 382.29,-199.55 327.75,-189.36"/>
<polygon fill="midnightblue" stroke="midnightblue" points="328.38,-185.91 317.91,-187.52 327.09,-192.79 328.38,-185.91"/>
</g>
<!-- Node4 -->
<g id="node4" class="node">
<title>Node4</title>
<g id="a_node4"><a xlink:title=" ">
<polygon fill="none" stroke="#bfbfbf" points="20.33,-56.5 20.33,-75.5 78.33,-75.5 78.33,-56.5 20.33,-56.5"/>
<text text-anchor="middle" x="49.33" y="-63.5" font-family="Helvetica,sans-Serif" font-size="10.00">memory</text>
</a>
</g>
</g>
<!-- Node1&#45;&gt;Node4 -->
<g id="edge25" class="edge">
<title>Node1&#45;&gt;Node4</title>
<path fill="none" stroke="midnightblue" d="M509.66,-230.85C437.75,-226.93 303.87,-216.21 193.33,-188 127.99,-171.33 91.47,-186.9 52.33,-132 42.8,-118.65 43.12,-99.53 45.17,-85.49"/>
<polygon fill="midnightblue" stroke="midnightblue" points="48.64,-85.99 47.04,-75.52 41.76,-84.7 48.64,-85.99"/>
</g>
<!-- Node10 -->
<g id="node10" class="node">
<title>Node10</title>
<g id="a_node10"><a xlink:title=" ">
<polygon fill="none" stroke="#bfbfbf" points="64.33,-0.5 64.33,-19.5 120.33,-19.5 120.33,-0.5 64.33,-0.5"/>
<text text-anchor="middle" x="92.33" y="-7.5" font-family="Helvetica,sans-Serif" font-size="10.00">optional</text>
</a>
</g>
</g>
<!-- Node1&#45;&gt;Node10 -->
<g id="edge26" class="edge">
<title>Node1&#45;&gt;Node10</title>
<path fill="none" stroke="midnightblue" d="M509.82,-232.75C403.46,-231.48 163.45,-224.52 91.33,-188 30.12,-157.01 -23.46,-115.12 11.33,-56 20.81,-39.89 38.37,-29.13 54.72,-22.19"/>
<polygon fill="midnightblue" stroke="midnightblue" points="56.09,-25.41 64.14,-18.53 53.55,-18.89 56.09,-25.41"/>
</g>
<!-- Node11 -->
<g id="node11" class="node">
<title>Node11</title>
<g id="a_node11"><a xlink:href="Plant_8h.html" target="_top" xlink:title="Abstract &#39;Prototype&#39; interface for all plant types.">
<polygon fill="none" stroke="black" points="551.33,-168.5 551.33,-187.5 649.33,-187.5 649.33,-168.5 551.33,-168.5"/>
<text text-anchor="middle" x="600.33" y="-175.5" font-family="Helvetica,sans-Serif" font-size="10.00">../include/Plant.h</text>
</a>
</g>
</g>
<!-- Node1&#45;&gt;Node11 -->
<g id="edge14" class="edge">
<title>Node1&#45;&gt;Node11</title>
<path fill="none" stroke="midnightblue" d="M567.77,-224.08C573.28,-216.46 581.36,-205.26 588.09,-195.94"/>
<polygon fill="midnightblue" stroke="midnightblue" points="590.99,-197.91 594.01,-187.75 585.31,-193.81 590.99,-197.91"/>
</g>
<!-- Node12 -->
<g id="node12" class="node">
<title>Node12</title>
<g id="a_node12"><a xlink:href="WaterStrategy_8h.html" target="_top" xlink:title="Abstract &#39;Strategy&#39; interface for watering.">
<polygon fill="none" stroke="black" points="485.33,-112.5 485.33,-131.5 579.33,-131.5 579.33,-112.5 485.33,-112.5"/>
<text text-anchor="middle" x="532.33" y="-119.5" font-family="Helvetica,sans-Serif" font-size="10.00">WaterStrategy.h</text>
</a>
</g>
</g>
<!-- Node1&#45;&gt;Node12 -->
<g id="edge18" class="edge">
<title>Node1&#45;&gt;Node12</title>
<path fill="none" stroke="midnightblue" d="M556.88,-224.27C552.52,-215.37 546.03,-201.05 542.33,-188 537.99,-172.71 535.42,-154.82 533.97,-141.69"/>
<polygon fill="midnightblue" stroke="midnightblue" points="537.43,-141.16 532.97,-131.56 530.47,-141.85 537.43,-141.16"/>
</g>
<!-- Node13 -->
<g id="node13" class="node">
<title>Node13</title>
<g id="a_node13"><a xlink:href="FertilizeStrategy_8h.html" target="_top" xlink:title="Abstract &#39;Strategy&#39; interface for fertilizing.">
<polygon fill="none" stroke="black" points="635.33,-112.5 635.33,-131.5 739.33,-131.5 739.33,-112.5 635.33,-112.5"/>
<text text-anchor="middle" x="687.33" y="-119.5" font-family="Helvetica,sans-Serif" font-size="10.00">FertilizeStrategy.h</text>
</a>
</g>
</g>
<!-- Node1&#45;&gt;Node13 -->
<g id="edge19" class="edge">
<title>Node1&#45;&gt;Node13</title>
<path fill="none" stroke="midnightblue" d="M593.6,-224.46C614.34,-217.56 640.61,-205.98 658.33,-188 671.04,-175.09 678.71,-155.65 682.93,-141.39"/>
<polygon fill="midnightblue" stroke="midnightblue" points="686.33,-142.25 685.52,-131.69 679.56,-140.45 686.33,-142.25"/>
</g>
<!-- Node14 -->
<g id="node14" class="node">
<title>Node14</title>
<g id="a_node14"><a xlink:href="PlantStateThresholds_8h.html" target="_top" xlink:title="Centralised constants describing lifecycle transition boundaries.">
<polygon fill="none" stroke="black" points="705.33,-168.5 705.33,-187.5 881.33,-187.5 881.33,-168.5 705.33,-168.5"/>
<text text-anchor="middle" x="793.33" y="-175.5" font-family="Helvetica,sans-Serif" font-size="10.00">../include/PlantStateThresholds.h</text>
</a>
</g>
</g>
<!-- Node1&#45;&gt;Node14 -->
<g id="edge20" class="edge">
<title>Node1&#45;&gt;Node14</title>
<path fill="none" stroke="midnightblue" d="M598.09,-224.44C638.39,-215.06 703.14,-199.99 746.91,-189.8"/>
<polygon fill="midnightblue" stroke="midnightblue" points="747.79,-193.19 756.74,-187.52 746.2,-186.37 747.79,-193.19"/>
</g>
<!-- Node15 -->
<g id="node15" class="node">
<title>Node15</title>
<g id="a_node15"><a xlink:href="SeedState_8h.html" target="_top" xlink:title="Concrete state representing a seed.">
<polygon fill="none" stroke="black" points="373.33,-168.5 373.33,-187.5 495.33,-187.5 495.33,-168.5 373.33,-168.5"/>
<text text-anchor="middle" x="434.33" y="-175.5" font-family="Helvetica,sans-Serif" font-size="10.00">../include/SeedState.h</text>
</a>
</g>
</g>
<!-- Node1&#45;&gt;Node15 -->
<g id="edge21" class="edge">
<title>Node1&#45;&gt;Node15</title>
<path fill="none" stroke="midnightblue" d="M541.2,-224.44C520.3,-215.56 487.39,-201.56 463.61,-191.45"/>
<polygon fill="midnightblue" stroke="midnightblue" points="464.93,-188.21 454.36,-187.52 462.19,-194.65 464.93,-188.21"/>
</g>
<!-- Node16 -->
<g id="node16" class="node">
<title>Node16</title>
<g id="a_node16"><a xlink:title=" ">
<polygon fill="none" stroke="#bfbfbf" points="899.33,-168.5 899.33,-187.5 963.33,-187.5 963.33,-168.5 899.33,-168.5"/>
<text text-anchor="middle" x="931.33" y="-175.5" font-family="Helvetica,sans-Serif" font-size="10.00">algorithm</text>
</a>
</g>
</g>
<!-- Node1&#45;&gt;Node16 -->
<g id="edge24" class="edge">
<title>Node1&#45;&gt;Node16</title>
<path fill="none" stroke="midnightblue" d="M613.1,-227.22C676.05,-219.9 785.72,-206.23 889.16,-188.09"/>
<polygon fill="midnightblue" stroke="midnightblue" points="889.91,-191.51 899.15,-186.32 888.69,-184.62 889.91,-191.51"/>
</g>
<!-- Node17 -->
<g id="node17" class="node">
<title>Node17</title>
<g id="a_node17"><a xlink:title=" ">
<polygon fill="none" stroke="#bfbfbf" points="981.83,-168.5 981.83,-187.5 1074.83,-187.5 1074.83,-168.5 981.83,-168.5"/>
<text text-anchor="middle" x="1028.33" y="-175.5" font-family="Helvetica,sans-Serif" font-size="10.00">unordered_map</text>
</a>
</g>
</g>
<!-- Node1&#45;&gt;Node17 -->
<g id="edge27" class="edge">
<title>Node1&#45;&gt;Node17</title>
<path fill="none" stroke="midnightblue" d="M613.01,-228.18C689.1,-220.91 836,-206.15 971.46,-188.05"/>
<polygon fill="midnightblue" stroke="midnightblue" points="972.16,-191.49 981.6,-186.69 971.22,-184.55 972.16,-191.49"/>
</g>
<!-- Node3 -->
<g id="node3" class="node">
<title>Node3</title>
<g id="a_node3"><a xlink:href="GreenhouseComponent_8h.html" target="_top" xlink:title="The abstract &#39;Component&#39; interface for the Composite pattern.">
<polygon fill="none" stroke="black" points="77.33,-112.5 77.33,-131.5 217.33,-131.5 217.33,-112.5 77.33,-112.5"/>
<text text-anchor="middle" x="147.33" y="-119.5" font-family="Helvetica,sans-Serif" font-size="10.00">GreenhouseComponent.h</text>
</a>
</g>
</g>
<!-- Node2&#45;&gt;Node3 -->
<g id="edge2" class="edge">
<title>Node2&#45;&gt;Node3</title>
<path fill="none" stroke="midnightblue" d="M252.52,-168.44C232.04,-159.6 199.84,-145.69 176.46,-135.59"/>
<polygon fill="midnightblue" stroke="midnightblue" points="177.61,-132.27 167.04,-131.52 174.83,-138.7 177.61,-132.27"/>
</g>
<!-- Node2&#45;&gt;Node4 -->
<g id="edge12" class="edge">
<title>Node2&#45;&gt;Node4</title>
<path fill="none" stroke="midnightblue" d="M202.68,-169.27C151.52,-162.22 87.7,-150.11 68.33,-132 55.72,-120.22 51.33,-100.58 49.87,-85.97"/>
<polygon fill="midnightblue" stroke="midnightblue" points="53.34,-85.34 49.23,-75.57 46.35,-85.77 53.34,-85.34"/>
</g>
<!-- Node5 -->
<g id="node5" class="node">
<title>Node5</title>
<g id="a_node5"><a xlink:title=" ">
<polygon fill="none" stroke="#bfbfbf" points="329.33,-0.5 329.33,-19.5 373.33,-19.5 373.33,-0.5 329.33,-0.5"/>
<text text-anchor="middle" x="351.33" y="-7.5" font-family="Helvetica,sans-Serif" font-size="10.00">string</text>
</a>
</g>
</g>
<!-- Node2&#45;&gt;Node5 -->
<g id="edge13" class="edge">
<title>Node2&#45;&gt;Node5</title>
<path fill="none" stroke="midnightblue" d="M280.19,-168.23C287.68,-159.53 298.89,-145.57 306.33,-132 325.2,-97.57 339.32,-53.61 346.35,-29.27"/>
<polygon fill="midnightblue" stroke="midnightblue" points="349.74,-30.16 349.07,-19.58 343,-28.26 349.74,-30.16"/>
</g>
<!-- Node6 -->
<g id="node6" class="node">
<title>Node6</title>
<g id="a_node6"><a xlink:href="PlantState_8h.html" target="_top" xlink:title="Abstract base class describing the lifecycle state of a plant.">
<polygon fill="none" stroke="black" points="353.33,-112.5 353.33,-131.5 429.33,-131.5 429.33,-112.5 353.33,-112.5"/>
<text text-anchor="middle" x="391.33" y="-119.5" font-family="Helvetica,sans-Serif" font-size="10.00">PlantState.h</text>
</a>
</g>
</g>
<!-- Node2&#45;&gt;Node6 -->
<g id="edge5" class="edge">
<title>Node2&#45;&gt;Node6</title>
<path fill="none" stroke="midnightblue" d="M291.18,-168.44C310.59,-159.64 341.06,-145.81 363.29,-135.72"/>
<polygon fill="midnightblue" stroke="midnightblue" points="364.9,-138.84 372.56,-131.52 362.01,-132.46 364.9,-138.84"/>
</g>
<!-- Node7 -->
<g id="node7" class="node">
<title>Node7</title>
<g id="a_node7"><a xlink:href="Subject_8h.html" target="_top" xlink:title="Declares the Subject base that manages observer subscriptions.">
<polygon fill="none" stroke="black" points="235.33,-112.5 235.33,-131.5 297.33,-131.5 297.33,-112.5 235.33,-112.5"/>
<text text-anchor="middle" x="266.33" y="-119.5" font-family="Helvetica,sans-Serif" font-size="10.00">Subject.h</text>
</a>
</g>
</g>
<!-- Node2&#45;&gt;Node7 -->
<g id="edge7" class="edge">
<title>Node2&#45;&gt;Node7</title>
<path fill="none" stroke="midnightblue" d="M271.34,-168.08C270.54,-160.93 269.4,-150.64 268.4,-141.69"/>
<polygon fill="midnightblue" stroke="midnightblue" points="271.88,-141.3 267.3,-131.75 264.93,-142.08 271.88,-141.3"/>
</g>
<!-- Node3&#45;&gt;Node4 -->
<g id="edge3" class="edge">
<title>Node3&#45;&gt;Node4</title>
<path fill="none" stroke="midnightblue" d="M131.58,-112.32C116.01,-103.74 91.95,-90.49 73.87,-80.52"/>
<polygon fill="midnightblue" stroke="midnightblue" points="75.48,-77.42 65.03,-75.65 72.1,-83.55 75.48,-77.42"/>
</g>
<!-- Node3&#45;&gt;Node5 -->
<g id="edge4" class="edge">
<title>Node3&#45;&gt;Node5</title>
<path fill="none" stroke="midnightblue" d="M147.41,-112.46C148.03,-98.55 151.35,-71.07 167.33,-56 189.07,-35.5 272.69,-21.42 319.36,-14.99"/>
<polygon fill="midnightblue" stroke="midnightblue" points="319.83,-18.45 329.27,-13.66 318.9,-11.52 319.83,-18.45"/>
</g>
<!-- Node6&#45;&gt;Node5 -->
<g id="edge6" class="edge">
<title>Node6&#45;&gt;Node5</title>
<path fill="none" stroke="midnightblue" d="M388.19,-112.37C381.7,-94.54 366.71,-53.3 357.97,-29.27"/>
<polygon fill="midnightblue" stroke="midnightblue" points="361.16,-27.79 354.45,-19.59 354.58,-30.19 361.16,-27.79"/>
</g>
<!-- Node8 -->
<g id="node8" class="node">
<title>Node8</title>
<g id="a_node8"><a xlink:title=" ">
<polygon fill="none" stroke="#bfbfbf" points="264.33,-56.5 264.33,-75.5 296.33,-75.5 296.33,-56.5 264.33,-56.5"/>
<text text-anchor="middle" x="280.33" y="-63.5" font-family="Helvetica,sans-Serif" font-size="10.00">list</text>
</a>
</g>
</g>
<!-- Node7&#45;&gt;Node8 -->
<g id="edge8" class="edge">
<title>Node7&#45;&gt;Node8</title>
<path fill="none" stroke="midnightblue" d="M268.64,-112.08C270.49,-104.93 273.16,-94.64 275.48,-85.69"/>
<polygon fill="midnightblue" stroke="midnightblue" points="278.94,-86.31 278.06,-75.75 272.16,-84.55 278.94,-86.31"/>
</g>
<!-- Node9 -->
<g id="node9" class="node">
<title>Node9</title>
<g id="a_node9"><a xlink:href="Observer_8h.html" target="_top" xlink:title="Declares the Observer contract and shared event payload.">
<polygon fill="none" stroke="black" points="176.83,-56.5 176.83,-75.5 245.83,-75.5 245.83,-56.5 176.83,-56.5"/>
<text text-anchor="middle" x="211.33" y="-63.5" font-family="Helvetica,sans-Serif" font-size="10.00">Observer.h</text>
</a>
</g>
</g>
<!-- Node7&#45;&gt;Node9 -->
<g id="edge9" class="edge">
<title>Node7&#45;&gt;Node9</title>
<path fill="none" stroke="midnightblue" d="M257.24,-112.08C249.16,-104.14 237.13,-92.34 227.42,-82.8"/>
<polygon fill="midnightblue" stroke="midnightblue" points="229.83,-80.26 220.24,-75.75 224.92,-85.25 229.83,-80.26"/>
</g>
<!-- Node9&#45;&gt;Node5 -->
<g id="edge11" class="edge">
<title>Node9&#45;&gt;Node5</title>
<path fill="none" stroke="midnightblue" d="M233.51,-56.44C256.76,-47.48 293.48,-33.31 319.74,-23.18"/>
<polygon fill="midnightblue" stroke="midnightblue" points="321.18,-26.38 329.25,-19.52 318.66,-19.85 321.18,-26.38"/>
</g>
<!-- Node9&#45;&gt;Node10 -->
<g id="edge10" class="edge">
<title>Node9&#45;&gt;Node10</title>
<path fill="none" stroke="midnightblue" d="M192.47,-56.44C173.06,-47.64 142.6,-33.81 120.36,-23.72"/>
<polygon fill="midnightblue" stroke="midnightblue" points="121.65,-20.46 111.09,-19.52 118.75,-26.84 121.65,-20.46"/>
</g>
<!-- Node11&#45;&gt;Node5 -->
<g id="edge15" class="edge">
<title>Node11&#45;&gt;Node5</title>
<path fill="none" stroke="midnightblue" d="M601.15,-168.38C601.95,-154.85 601.53,-128.48 588.33,-112 536.41,-47.17 435.1,-23.25 383.38,-15"/>
<polygon fill="midnightblue" stroke="midnightblue" points="383.83,-11.53 373.43,-13.51 382.8,-18.45 383.83,-11.53"/>
</g>
<!-- Node11&#45;&gt;Node12 -->
<g id="edge16" class="edge">
<title>Node11&#45;&gt;Node12</title>
<path fill="none" stroke="midnightblue" d="M589.4,-168.32C579.15,-160.18 563.61,-147.84 551.33,-138.09"/>
<polygon fill="midnightblue" stroke="midnightblue" points="553.46,-135.31 543.45,-131.83 549.11,-140.79 553.46,-135.31"/>
</g>
<!-- Node11&#45;&gt;Node13 -->
<g id="edge17" class="edge">
<title>Node11&#45;&gt;Node13</title>
<path fill="none" stroke="midnightblue" d="M614.31,-168.32C627.88,-159.9 648.71,-146.97 664.65,-137.07"/>
<polygon fill="midnightblue" stroke="midnightblue" points="666.73,-139.9 673.38,-131.65 663.04,-133.95 666.73,-139.9"/>
</g>
<!-- Node15&#45;&gt;Node5 -->
<g id="edge23" class="edge">
<title>Node15&#45;&gt;Node5</title>
<path fill="none" stroke="midnightblue" d="M437.05,-168.26C440.56,-155.46 445.41,-131.08 438.33,-112 424.89,-75.8 392.01,-43.88 370.74,-26.04"/>
<polygon fill="midnightblue" stroke="midnightblue" points="372.92,-23.31 362.96,-19.71 368.5,-28.74 372.92,-23.31"/>
</g>
<!-- Node15&#45;&gt;Node6 -->
<g id="edge22" class="edge">
<title>Node15&#45;&gt;Node6</title>
<path fill="none" stroke="midnightblue" d="M427.23,-168.08C421.09,-160.38 412.06,-149.03 404.59,-139.65"/>
<polygon fill="midnightblue" stroke="midnightblue" points="407.26,-137.39 398.3,-131.75 401.79,-141.75 407.26,-137.39"/>
</g>
</g>
</svg>
