<?xml version="1.0" encoding="UTF-8" standalone="no"?>
<!DOCTYPE svg PUBLIC "-//W3C//DTD SVG 1.1//EN"
 "http://www.w3.org/Graphics/SVG/1.1/DTD/svg11.dtd">
<!-- Generated by graphviz version 2.43.0 (0)
 -->
<!-- Title: Plant.cpp Pages: 1 -->
<svg width="286pt" height="140pt"
 viewBox="0.00 0.00 286.00 140.00" xmlns="http://www.w3.org/2000/svg" xmlns:xlink="http://www.w3.org/1999/xlink">
<g id="graph0" class="graph" transform="scale(1 1) rotate(0) translate(4 136)">
<title>Plant.cpp</title>
<!-- Node1 -->
<g id="node1" class="node">
<title>Node1</title>
<g id="a_node1"><a xlink:title="Implements the Plant behaviour defined in the corresponding header.">
<polygon fill="#bfbfbf" stroke="black" points="78,-112.5 78,-131.5 140,-131.5 140,-112.5 78,-112.5"/>
<text text-anchor="middle" x="109" y="-119.5" font-family="Helvetica,sans-Serif" font-size="10.00">Plant.cpp</text>
</a>
</g>
</g>
<!-- Node2 -->
<g id="node2" class="node">
<title>Node2</title>
<g id="a_node2"><a xlink:href="Plant_8h.html" target="_top" xlink:title="Abstract &#39;Prototype&#39; interface for all plant types.">
<polygon fill="none" stroke="black" points="60,-56.5 60,-75.5 158,-75.5 158,-56.5 60,-56.5"/>
<text text-anchor="middle" x="109" y="-63.5" font-family="Helvetica,sans-Serif" font-size="10.00">../include/Plant.h</text>
</a>
</g>
</g>
<!-- Node1&#45;&gt;Node2 -->
<g id="edge1" class="edge">
<title>Node1&#45;&gt;Node2</title>
<path fill="none" stroke="midnightblue" d="M109,-112.08C109,-105.01 109,-94.86 109,-85.99"/>
<polygon fill="midnightblue" stroke="midnightblue" points="112.5,-85.75 109,-75.75 105.5,-85.75 112.5,-85.75"/>
</g>
<!-- Node3 -->
<g id="node3" class="node">
<title>Node3</title>
<g id="a_node3"><a xlink:title=" ">
<polygon fill="none" stroke="#bfbfbf" points="0,-0.5 0,-19.5 44,-19.5 44,-0.5 0,-0.5"/>
<text text-anchor="middle" x="22" y="-7.5" font-family="Helvetica,sans-Serif" font-size="10.00">string</text>
</a>
</g>
</g>
<!-- Node2&#45;&gt;Node3 -->
<g id="edge2" class="edge">
<title>Node2&#45;&gt;Node3</title>
<path fill="none" stroke="midnightblue" d="M95.02,-56.32C81.45,-47.9 60.62,-34.97 44.68,-25.07"/>
<polygon fill="midnightblue" stroke="midnightblue" points="46.29,-21.95 35.94,-19.65 42.59,-27.9 46.29,-21.95"/>
</g>
<!-- Node4 -->
<g id="node4" class="node">
<title>Node4</title>
<g id="a_node4"><a xlink:href="WaterStrategy_8h.html" target="_top" xlink:title="Abstract &#39;Strategy&#39; interface for watering.">
<polygon fill="none" stroke="black" points="62,-0.5 62,-19.5 156,-19.5 156,-0.5 62,-0.5"/>
<text text-anchor="middle" x="109" y="-7.5" font-family="Helvetica,sans-Serif" font-size="10.00">WaterStrategy.h</text>
</a>
</g>
</g>
<!-- Node2&#45;&gt;Node4 -->
<g id="edge3" class="edge">
<title>Node2&#45;&gt;Node4</title>
<path fill="none" stroke="midnightblue" d="M109,-56.08C109,-49.01 109,-38.86 109,-29.99"/>
<polygon fill="midnightblue" stroke="midnightblue" points="112.5,-29.75 109,-19.75 105.5,-29.75 112.5,-29.75"/>
</g>
<!-- Node5 -->
<g id="node5" class="node">
<title>Node5</title>
<g id="a_node5"><a xlink:href="FertilizeStrategy_8h.html" target="_top" xlink:title="Abstract &#39;Strategy&#39; interface for fertilizing.">
<polygon fill="none" stroke="black" points="174,-0.5 174,-19.5 278,-19.5 278,-0.5 174,-0.5"/>
<text text-anchor="middle" x="226" y="-7.5" font-family="Helvetica,sans-Serif" font-size="10.00">FertilizeStrategy.h</text>
</a>
</g>
</g>
<!-- Node2&#45;&gt;Node5 -->
<g id="edge4" class="edge">
<title>Node2&#45;&gt;Node5</title>
<path fill="none" stroke="midnightblue" d="M127.54,-56.44C146.62,-47.64 176.57,-33.81 198.44,-23.72"/>
<polygon fill="midnightblue" stroke="midnightblue" points="199.93,-26.88 207.55,-19.52 197,-20.53 199.93,-26.88"/>
</g>
</g>
</svg>
