<?xml version="1.0" encoding="UTF-8" standalone="no"?>
<!DOCTYPE svg PUBLIC "-//W3C//DTD SVG 1.1//EN"
 "http://www.w3.org/Graphics/SVG/1.1/DTD/svg11.dtd">
<!-- Generated by graphviz version 2.43.0 (0)
 -->
<!-- Title: PlantState.h Pages: 1 -->
<svg width="3897pt" height="196pt"
 viewBox="0.00 0.00 3896.50 196.00" xmlns="http://www.w3.org/2000/svg" xmlns:xlink="http://www.w3.org/1999/xlink">
<g id="graph0" class="graph" transform="scale(1 1) rotate(0) translate(4 192)">
<title>PlantState.h</title>
<!-- Node1 -->
<g id="node1" class="node">
<title>Node1</title>
<g id="a_node1"><a xlink:title="Abstract base class describing the lifecycle state of a plant.">
<polygon fill="#bfbfbf" stroke="black" points="3374,-168.5 3374,-187.5 3450,-187.5 3450,-168.5 3374,-168.5"/>
<text text-anchor="middle" x="3412" y="-175.5" font-family="Helvetica,sans-Serif" font-size="10.00">PlantState.h</text>
</a>
</g>
</g>
<!-- Node2 -->
<g id="node2" class="node">
<title>Node2</title>
<g id="a_node2"><a xlink:href="DeadState_8h.html" target="_top" xlink:title="Concrete state representing a dead plant.">
<polygon fill="none" stroke="black" points="3069.5,-56.5 3069.5,-75.5 3146.5,-75.5 3146.5,-56.5 3069.5,-56.5"/>
<text text-anchor="middle" x="3108" y="-63.5" font-family="Helvetica,sans-Serif" font-size="10.00">DeadState.h</text>
</a>
</g>
</g>
<!-- Node1&#45;&gt;Node2 -->
<g id="edge1" class="edge">
<title>Node1&#45;&gt;Node2</title>
<path fill="none" stroke="midnightblue" d="M3378.74,-164.97C3316.9,-142.59 3185.63,-95.09 3131.8,-75.61"/>
<polygon fill="midnightblue" stroke="midnightblue" points="3377.8,-168.35 3388.4,-168.46 3380.19,-161.77 3377.8,-168.35"/>
</g>
<!-- Node3 -->
<g id="node3" class="node">
<title>Node3</title>
<g id="a_node3"><a xlink:href="CSVAdapter_8cpp.html" target="_top" xlink:title="Implements the CSVAdapter behaviour defined in the corresponding header.">
<polygon fill="none" stroke="black" points="3422.5,-0.5 3422.5,-19.5 3515.5,-19.5 3515.5,-0.5 3422.5,-0.5"/>
<text text-anchor="middle" x="3469" y="-7.5" font-family="Helvetica,sans-Serif" font-size="10.00">CSVAdapter.cpp</text>
</a>
</g>
</g>
<!-- Node1&#45;&gt;Node3 -->
<g id="edge68" class="edge">
<title>Node1&#45;&gt;Node3</title>
<path fill="none" stroke="midnightblue" d="M3460.48,-176.03C3527.24,-171.76 3645.38,-153.03 3700,-76 3705.14,-68.75 3705.65,-62.86 3700,-56 3694.13,-48.88 3581.39,-29.38 3515.62,-18.53"/>
<polygon fill="midnightblue" stroke="midnightblue" points="3460.02,-172.55 3450.23,-176.6 3460.4,-179.54 3460.02,-172.55"/>
</g>
<!-- Node8 -->
<g id="node8" class="node">
<title>Node8</title>
<g id="a_node8"><a xlink:href="TXTAdapter_8cpp.html" target="_top" xlink:title="Implements the TXTAdapter behaviour defined in the corresponding header.">
<polygon fill="none" stroke="black" points="3534,-0.5 3534,-19.5 3626,-19.5 3626,-0.5 3534,-0.5"/>
<text text-anchor="middle" x="3580" y="-7.5" font-family="Helvetica,sans-Serif" font-size="10.00">TXTAdapter.cpp</text>
</a>
</g>
</g>
<!-- Node1&#45;&gt;Node8 -->
<g id="edge70" class="edge">
<title>Node1&#45;&gt;Node8</title>
<path fill="none" stroke="midnightblue" d="M3460.11,-177.12C3528.35,-175.88 3656.26,-168.33 3758,-132 3802.37,-116.16 3825.12,-117.18 3848,-76 3852.32,-68.23 3853.74,-62.79 3848,-56 3820.12,-23.04 3695.15,-14.21 3626.15,-11.85"/>
<polygon fill="midnightblue" stroke="midnightblue" points="3460.03,-173.62 3450.09,-177.26 3460.14,-180.62 3460.03,-173.62"/>
</g>
<!-- Node10 -->
<g id="node10" class="node">
<title>Node10</title>
<g id="a_node10"><a xlink:href="GrowingState_8h.html" target="_top" xlink:title="Concrete state representing a growing plant.">
<polygon fill="none" stroke="black" points="3423,-56.5 3423,-75.5 3515,-75.5 3515,-56.5 3423,-56.5"/>
<text text-anchor="middle" x="3469" y="-63.5" font-family="Helvetica,sans-Serif" font-size="10.00">GrowingState.h</text>
</a>
</g>
</g>
<!-- Node1&#45;&gt;Node10 -->
<g id="edge9" class="edge">
<title>Node1&#45;&gt;Node10</title>
<path fill="none" stroke="midnightblue" d="M3421.16,-159.32C3433.57,-135.37 3455.24,-93.55 3464.55,-75.59"/>
<polygon fill="midnightblue" stroke="midnightblue" points="3417.97,-157.88 3416.47,-168.37 3424.18,-161.1 3417.97,-157.88"/>
</g>
<!-- Node11 -->
<g id="node11" class="node">
<title>Node11</title>
<g id="a_node11"><a xlink:href="MatureState_8h.html" target="_top" xlink:title="Concrete state representing a mature plant (ready for sale).">
<polygon fill="none" stroke="black" points="3165,-56.5 3165,-75.5 3251,-75.5 3251,-56.5 3165,-56.5"/>
<text text-anchor="middle" x="3208" y="-63.5" font-family="Helvetica,sans-Serif" font-size="10.00">MatureState.h</text>
</a>
</g>
</g>
<!-- Node1&#45;&gt;Node11 -->
<g id="edge15" class="edge">
<title>Node1&#45;&gt;Node11</title>
<path fill="none" stroke="midnightblue" d="M3387.13,-163.59C3344.66,-140.69 3259.32,-94.67 3223.93,-75.59"/>
<polygon fill="midnightblue" stroke="midnightblue" points="3385.53,-166.7 3395.99,-168.37 3388.85,-160.54 3385.53,-166.7"/>
</g>
<!-- Node12 -->
<g id="node12" class="node">
<title>Node12</title>
<g id="a_node12"><a xlink:href="PlantInstance_8h.html" target="_top" xlink:title="Represents a single, physical plant in the nursery.">
<polygon fill="none" stroke="black" points="1835,-112.5 1835,-131.5 1927,-131.5 1927,-112.5 1835,-112.5"/>
<text text-anchor="middle" x="1881" y="-119.5" font-family="Helvetica,sans-Serif" font-size="10.00">PlantInstance.h</text>
</a>
</g>
</g>
<!-- Node1&#45;&gt;Node12 -->
<g id="edge21" class="edge">
<title>Node1&#45;&gt;Node12</title>
<path fill="none" stroke="midnightblue" d="M3363.71,-175.3C3133.85,-167.19 2152.37,-132.57 1927.18,-124.63"/>
<polygon fill="midnightblue" stroke="midnightblue" points="3363.66,-178.8 3373.77,-175.65 3363.9,-171.8 3363.66,-178.8"/>
</g>
<!-- Node16 -->
<g id="node16" class="node">
<title>Node16</title>
<g id="a_node16"><a xlink:href="CSVReaderWriter_8cpp.html" target="_top" xlink:title="Implements the CSVReaderWriter behaviour defined in the corresponding header.">
<polygon fill="none" stroke="black" points="0,-56.5 0,-75.5 120,-75.5 120,-56.5 0,-56.5"/>
<text text-anchor="middle" x="60" y="-63.5" font-family="Helvetica,sans-Serif" font-size="10.00">CSVReaderWriter.cpp</text>
</a>
</g>
</g>
<!-- Node1&#45;&gt;Node16 -->
<g id="edge69" class="edge">
<title>Node1&#45;&gt;Node16</title>
<path fill="none" stroke="midnightblue" d="M3363.72,-177.35C3065.59,-179.12 1444.76,-183.27 129,-76 126.11,-75.76 123.16,-75.49 120.17,-75.2"/>
<polygon fill="midnightblue" stroke="midnightblue" points="3363.79,-180.85 3373.76,-177.29 3363.74,-173.85 3363.79,-180.85"/>
</g>
<!-- Node33 -->
<g id="node33" class="node">
<title>Node33</title>
<g id="a_node33"><a xlink:href="TXTReaderWriter_8cpp.html" target="_top" xlink:title="Implements the TXTReaderWriter behaviour defined in the corresponding header.">
<polygon fill="none" stroke="black" points="3571.5,-56.5 3571.5,-75.5 3690.5,-75.5 3690.5,-56.5 3571.5,-56.5"/>
<text text-anchor="middle" x="3631" y="-63.5" font-family="Helvetica,sans-Serif" font-size="10.00">TXTReaderWriter.cpp</text>
</a>
</g>
</g>
<!-- Node1&#45;&gt;Node33 -->
<g id="edge71" class="edge">
<title>Node1&#45;&gt;Node33</title>
<path fill="none" stroke="midnightblue" d="M3438.12,-163.88C3483.52,-141.08 3575.75,-94.75 3613.9,-75.59"/>
<polygon fill="midnightblue" stroke="midnightblue" points="3436.55,-160.75 3429.18,-168.37 3439.69,-167.01 3436.55,-160.75"/>
</g>
<!-- Node37 -->
<g id="node37" class="node">
<title>Node37</title>
<g id="a_node37"><a xlink:href="SeedState_8h.html" target="_top" xlink:title="Concrete state representing a seed.">
<polygon fill="none" stroke="black" points="3747.5,-56.5 3747.5,-75.5 3822.5,-75.5 3822.5,-56.5 3747.5,-56.5"/>
<text text-anchor="middle" x="3785" y="-63.5" font-family="Helvetica,sans-Serif" font-size="10.00">SeedState.h</text>
</a>
</g>
</g>
<!-- Node1&#45;&gt;Node37 -->
<g id="edge57" class="edge">
<title>Node1&#45;&gt;Node37</title>
<path fill="none" stroke="midnightblue" d="M3460.2,-174.58C3538.06,-169.97 3687.43,-157.95 3733,-132 3756.36,-118.7 3773.22,-90.41 3780.7,-75.94"/>
<polygon fill="midnightblue" stroke="midnightblue" points="3459.94,-171.09 3450.16,-175.16 3460.34,-178.08 3459.94,-171.09"/>
</g>
<!-- Node38 -->
<g id="node38" class="node">
<title>Node38</title>
<g id="a_node38"><a xlink:href="WitheringState_8h.html" target="_top" xlink:title="Concrete state representing a withering plant (needs care).">
<polygon fill="none" stroke="black" points="3269,-56.5 3269,-75.5 3367,-75.5 3367,-56.5 3269,-56.5"/>
<text text-anchor="middle" x="3318" y="-63.5" font-family="Helvetica,sans-Serif" font-size="10.00">WitheringState.h</text>
</a>
</g>
</g>
<!-- Node1&#45;&gt;Node38 -->
<g id="edge62" class="edge">
<title>Node1&#45;&gt;Node38</title>
<path fill="none" stroke="midnightblue" d="M3397.97,-160.59C3377.71,-136.87 3340.96,-93.87 3325.34,-75.59"/>
<polygon fill="midnightblue" stroke="midnightblue" points="3395.47,-163.04 3404.62,-168.37 3400.79,-158.49 3395.47,-163.04"/>
</g>
<!-- Node2&#45;&gt;Node3 -->
<g id="edge2" class="edge">
<title>Node2&#45;&gt;Node3</title>
<path fill="none" stroke="midnightblue" d="M3156.63,-55.96C3271.48,-37.34 3302.06,-36.68 3413,-20 3416.02,-19.55 3419.13,-19.07 3422.26,-18.58"/>
<polygon fill="midnightblue" stroke="midnightblue" points="3156.05,-52.51 3146.75,-57.58 3157.18,-59.42 3156.05,-52.51"/>
</g>
<!-- Node4 -->
<g id="node4" class="node">
<title>Node4</title>
<g id="a_node4"><a xlink:href="DeadState_8cpp.html" target="_top" xlink:title="Implements the DeadState behaviour defined in the corresponding header.">
<polygon fill="none" stroke="black" points="1560,-0.5 1560,-19.5 1648,-19.5 1648,-0.5 1560,-0.5"/>
<text text-anchor="middle" x="1604" y="-7.5" font-family="Helvetica,sans-Serif" font-size="10.00">DeadState.cpp</text>
</a>
</g>
</g>
<!-- Node2&#45;&gt;Node4 -->
<g id="edge3" class="edge">
<title>Node2&#45;&gt;Node4</title>
<path fill="none" stroke="midnightblue" d="M3059.2,-56.14C2755.73,-24.94 1858.31,-13.7 1648.3,-11.45"/>
<polygon fill="midnightblue" stroke="midnightblue" points="3058.99,-59.64 3069.3,-57.21 3059.73,-52.68 3058.99,-59.64"/>
</g>
<!-- Node5 -->
<g id="node5" class="node">
<title>Node5</title>
<g id="a_node5"><a xlink:href="GrowingState_8cpp.html" target="_top" xlink:title="Implements the GrowingState behaviour defined in the corresponding header.">
<polygon fill="none" stroke="black" points="3056.5,-0.5 3056.5,-19.5 3159.5,-19.5 3159.5,-0.5 3056.5,-0.5"/>
<text text-anchor="middle" x="3108" y="-7.5" font-family="Helvetica,sans-Serif" font-size="10.00">GrowingState.cpp</text>
</a>
</g>
</g>
<!-- Node2&#45;&gt;Node5 -->
<g id="edge4" class="edge">
<title>Node2&#45;&gt;Node5</title>
<path fill="none" stroke="midnightblue" d="M3108,-45.8C3108,-36.91 3108,-26.78 3108,-19.75"/>
<polygon fill="midnightblue" stroke="midnightblue" points="3104.5,-46.08 3108,-56.08 3111.5,-46.08 3104.5,-46.08"/>
</g>
<!-- Node6 -->
<g id="node6" class="node">
<title>Node6</title>
<g id="a_node6"><a xlink:href="MatureState_8cpp.html" target="_top" xlink:title="Implements the MatureState behaviour defined in the corresponding header.">
<polygon fill="none" stroke="black" points="2941.5,-0.5 2941.5,-19.5 3038.5,-19.5 3038.5,-0.5 2941.5,-0.5"/>
<text text-anchor="middle" x="2990" y="-7.5" font-family="Helvetica,sans-Serif" font-size="10.00">MatureState.cpp</text>
</a>
</g>
</g>
<!-- Node2&#45;&gt;Node6 -->
<g id="edge5" class="edge">
<title>Node2&#45;&gt;Node6</title>
<path fill="none" stroke="midnightblue" d="M3080.1,-52.23C3058.03,-42.13 3027.82,-28.31 3008.61,-19.52"/>
<polygon fill="midnightblue" stroke="midnightblue" points="3078.75,-55.46 3089.3,-56.44 3081.67,-49.1 3078.75,-55.46"/>
</g>
<!-- Node7 -->
<g id="node7" class="node">
<title>Node7</title>
<g id="a_node7"><a xlink:href="SeedState_8cpp.html" target="_top" xlink:title="Implements the SeedState behaviour defined in the corresponding header.">
<polygon fill="none" stroke="black" points="3318,-0.5 3318,-19.5 3404,-19.5 3404,-0.5 3318,-0.5"/>
<text text-anchor="middle" x="3361" y="-7.5" font-family="Helvetica,sans-Serif" font-size="10.00">SeedState.cpp</text>
</a>
</g>
</g>
<!-- Node2&#45;&gt;Node7 -->
<g id="edge6" class="edge">
<title>Node2&#45;&gt;Node7</title>
<path fill="none" stroke="midnightblue" d="M3156.51,-54.65C3204.31,-44.44 3276.46,-29.04 3321.05,-19.53"/>
<polygon fill="midnightblue" stroke="midnightblue" points="3155.75,-51.23 3146.7,-56.74 3157.21,-58.08 3155.75,-51.23"/>
</g>
<!-- Node2&#45;&gt;Node8 -->
<g id="edge7" class="edge">
<title>Node2&#45;&gt;Node8</title>
<path fill="none" stroke="midnightblue" d="M3156.68,-56.03C3320.84,-33.12 3364.8,-40.9 3525,-20 3527.88,-19.62 3530.84,-19.21 3533.82,-18.78"/>
<polygon fill="midnightblue" stroke="midnightblue" points="3156.14,-52.57 3146.72,-57.44 3157.12,-59.5 3156.14,-52.57"/>
</g>
<!-- Node9 -->
<g id="node9" class="node">
<title>Node9</title>
<g id="a_node9"><a xlink:href="WitheringState_8cpp.html" target="_top" xlink:title="Implements the WitheringState behaviour defined in the corresponding header.">
<polygon fill="none" stroke="black" points="3178,-0.5 3178,-19.5 3288,-19.5 3288,-0.5 3178,-0.5"/>
<text text-anchor="middle" x="3233" y="-7.5" font-family="Helvetica,sans-Serif" font-size="10.00">WitheringState.cpp</text>
</a>
</g>
</g>
<!-- Node2&#45;&gt;Node9 -->
<g id="edge8" class="edge">
<title>Node2&#45;&gt;Node9</title>
<path fill="none" stroke="midnightblue" d="M3137.24,-52.37C3160.65,-42.26 3192.84,-28.35 3213.29,-19.52"/>
<polygon fill="midnightblue" stroke="midnightblue" points="3135.6,-49.26 3127.81,-56.44 3138.37,-55.69 3135.6,-49.26"/>
</g>
<!-- Node10&#45;&gt;Node3 -->
<g id="edge10" class="edge">
<title>Node10&#45;&gt;Node3</title>
<path fill="none" stroke="midnightblue" d="M3469,-45.8C3469,-36.91 3469,-26.78 3469,-19.75"/>
<polygon fill="midnightblue" stroke="midnightblue" points="3465.5,-46.08 3469,-56.08 3472.5,-46.08 3465.5,-46.08"/>
</g>
<!-- Node10&#45;&gt;Node5 -->
<g id="edge11" class="edge">
<title>Node10&#45;&gt;Node5</title>
<path fill="none" stroke="midnightblue" d="M3412.63,-56.57C3343.33,-46.2 3226.69,-28.75 3159.64,-18.72"/>
<polygon fill="midnightblue" stroke="midnightblue" points="3412.5,-60.09 3422.91,-58.11 3413.54,-53.17 3412.5,-60.09"/>
</g>
<!-- Node10&#45;&gt;Node7 -->
<g id="edge12" class="edge">
<title>Node10&#45;&gt;Node7</title>
<path fill="none" stroke="midnightblue" d="M3442.45,-51.73C3422.45,-41.73 3395.61,-28.31 3378.31,-19.65"/>
<polygon fill="midnightblue" stroke="midnightblue" points="3441.14,-54.98 3451.65,-56.32 3444.27,-48.72 3441.14,-54.98"/>
</g>
<!-- Node10&#45;&gt;Node8 -->
<g id="edge13" class="edge">
<title>Node10&#45;&gt;Node8</title>
<path fill="none" stroke="midnightblue" d="M3496.01,-51.86C3516.59,-41.85 3544.34,-28.35 3562.21,-19.65"/>
<polygon fill="midnightblue" stroke="midnightblue" points="3494.3,-48.8 3486.83,-56.32 3497.36,-55.1 3494.3,-48.8"/>
</g>
<!-- Node10&#45;&gt;Node9 -->
<g id="edge14" class="edge">
<title>Node10&#45;&gt;Node9</title>
<path fill="none" stroke="midnightblue" d="M3421.59,-54.15C3377,-43.95 3311.15,-28.88 3270.22,-19.52"/>
<polygon fill="midnightblue" stroke="midnightblue" points="3421.08,-57.62 3431.61,-56.44 3422.64,-50.8 3421.08,-57.62"/>
</g>
<!-- Node11&#45;&gt;Node3 -->
<g id="edge16" class="edge">
<title>Node11&#45;&gt;Node3</title>
<path fill="none" stroke="midnightblue" d="M3259.19,-54.41C3308.51,-44.2 3382.19,-28.96 3427.84,-19.52"/>
<polygon fill="midnightblue" stroke="midnightblue" points="3258.44,-50.99 3249.36,-56.44 3259.86,-57.84 3258.44,-50.99"/>
</g>
<!-- Node11&#45;&gt;Node5 -->
<g id="edge17" class="edge">
<title>Node11&#45;&gt;Node5</title>
<path fill="none" stroke="midnightblue" d="M3182.91,-51.45C3164.45,-41.48 3139.9,-28.23 3124.03,-19.65"/>
<polygon fill="midnightblue" stroke="midnightblue" points="3181.47,-54.65 3191.93,-56.32 3184.8,-48.49 3181.47,-54.65"/>
</g>
<!-- Node11&#45;&gt;Node6 -->
<g id="edge18" class="edge">
<title>Node11&#45;&gt;Node6</title>
<path fill="none" stroke="midnightblue" d="M3163.69,-54.02C3122.51,-43.82 3062.03,-28.84 3024.38,-19.52"/>
<polygon fill="midnightblue" stroke="midnightblue" points="3162.91,-57.44 3173.46,-56.44 3164.59,-50.64 3162.91,-57.44"/>
</g>
<!-- Node11&#45;&gt;Node8 -->
<g id="edge19" class="edge">
<title>Node11&#45;&gt;Node8</title>
<path fill="none" stroke="midnightblue" d="M3261.26,-55.85C3379.17,-37.83 3410.66,-37.12 3525,-20 3527.87,-19.57 3530.82,-19.12 3533.8,-18.65"/>
<polygon fill="midnightblue" stroke="midnightblue" points="3260.46,-52.43 3251.11,-57.41 3261.53,-59.35 3260.46,-52.43"/>
</g>
<!-- Node11&#45;&gt;Node9 -->
<g id="edge20" class="edge">
<title>Node11&#45;&gt;Node9</title>
<path fill="none" stroke="midnightblue" d="M3216.34,-46.98C3220.58,-37.82 3225.55,-27.09 3228.95,-19.75"/>
<polygon fill="midnightblue" stroke="midnightblue" points="3213.15,-45.54 3212.13,-56.08 3219.51,-48.48 3213.15,-45.54"/>
</g>
<!-- Node12&#45;&gt;Node3 -->
<g id="edge29" class="edge">
<title>Node12&#45;&gt;Node3</title>
<path fill="none" stroke="midnightblue" d="M1937.19,-120.53C2222.23,-117.99 3495.73,-105.06 3524,-76 3542.66,-56.82 3507.44,-32.27 3485.2,-19.53"/>
<polygon fill="midnightblue" stroke="midnightblue" points="1937.05,-117.03 1927.08,-120.62 1937.11,-124.03 1937.05,-117.03"/>
</g>
<!-- Node12&#45;&gt;Node4 -->
<g id="edge31" class="edge">
<title>Node12&#45;&gt;Node4</title>
<path fill="none" stroke="midnightblue" d="M1824.61,-120.41C1550.93,-117.43 373.24,-103.02 347,-76 340.81,-69.62 340.83,-62.4 347,-56 389.95,-11.48 1341.94,-10.52 1559.84,-10.88"/>
<polygon fill="midnightblue" stroke="midnightblue" points="1824.67,-123.91 1834.71,-120.52 1824.75,-116.91 1824.67,-123.91"/>
</g>
<!-- Node12&#45;&gt;Node5 -->
<g id="edge38" class="edge">
<title>Node12&#45;&gt;Node5</title>
<path fill="none" stroke="midnightblue" d="M1824.68,-120.41C1695.09,-118.46 1384.43,-110.22 1353,-76 1346.99,-69.45 1346.78,-62.35 1353,-56 1385.93,-22.37 3000.1,-23.94 3047,-20 3050.09,-19.74 3053.27,-19.42 3056.47,-19.07"/>
<polygon fill="midnightblue" stroke="midnightblue" points="1824.75,-123.91 1834.8,-120.55 1824.85,-116.91 1824.75,-123.91"/>
</g>
<!-- Node12&#45;&gt;Node6 -->
<g id="edge41" class="edge">
<title>Node12&#45;&gt;Node6</title>
<path fill="none" stroke="midnightblue" d="M1824.73,-120.22C1569.07,-116.54 528.32,-100.1 505,-76 498.82,-69.61 498.77,-62.34 505,-56 527.17,-33.43 2596.05,-14.43 2941.38,-11.42"/>
<polygon fill="midnightblue" stroke="midnightblue" points="1824.86,-123.72 1834.9,-120.36 1824.96,-116.72 1824.86,-123.72"/>
</g>
<!-- Node12&#45;&gt;Node7 -->
<g id="edge46" class="edge">
<title>Node12&#45;&gt;Node7</title>
<path fill="none" stroke="midnightblue" d="M1937.68,-120.36C2207.57,-117.21 3350.49,-102.29 3376,-76 3390.84,-60.71 3376.6,-33.82 3367.41,-19.9"/>
<polygon fill="midnightblue" stroke="midnightblue" points="1937.29,-116.87 1927.33,-120.48 1937.37,-123.87 1937.29,-116.87"/>
</g>
<!-- Node12&#45;&gt;Node8 -->
<g id="edge51" class="edge">
<title>Node12&#45;&gt;Node8</title>
<path fill="none" stroke="midnightblue" d="M1937.71,-120.77C2255.08,-119.37 3798.01,-110.78 3832,-76 3838.21,-69.64 3837.71,-62.82 3832,-56 3806.25,-25.25 3691.53,-15.49 3626.11,-12.41"/>
<polygon fill="midnightblue" stroke="midnightblue" points="1937.36,-117.27 1927.37,-120.82 1937.39,-124.27 1937.36,-117.27"/>
</g>
<!-- Node12&#45;&gt;Node9 -->
<g id="edge56" class="edge">
<title>Node12&#45;&gt;Node9</title>
<path fill="none" stroke="midnightblue" d="M1937.35,-121.52C2114.8,-122.66 2660.31,-122.22 2830,-76 2848.41,-70.98 2849.78,-61.68 2868,-56 2996.21,-16.06 3034.82,-37.21 3168,-20 3171.16,-19.59 3174.41,-19.16 3177.69,-18.73"/>
<polygon fill="midnightblue" stroke="midnightblue" points="1937.22,-118.02 1927.19,-121.45 1937.17,-125.02 1937.22,-118.02"/>
</g>
<!-- Node13 -->
<g id="node13" class="node">
<title>Node13</title>
<g id="a_node13"><a xlink:href="PlantStateUtils_8h.html" target="_top" xlink:title="Common helper functions shared by lifecycle state implementations.">
<polygon fill="none" stroke="black" points="2253,-56.5 2253,-75.5 2351,-75.5 2351,-56.5 2253,-56.5"/>
<text text-anchor="middle" x="2302" y="-63.5" font-family="Helvetica,sans-Serif" font-size="10.00">PlantStateUtils.h</text>
</a>
</g>
</g>
<!-- Node12&#45;&gt;Node13 -->
<g id="edge22" class="edge">
<title>Node12&#45;&gt;Node13</title>
<path fill="none" stroke="midnightblue" d="M1937.15,-114.51C2008.37,-106.16 2134.93,-90.96 2243,-76 2246.18,-75.56 2249.46,-75.09 2252.76,-74.62"/>
<polygon fill="midnightblue" stroke="midnightblue" points="1936.58,-111.05 1927.05,-115.69 1937.39,-118 1936.58,-111.05"/>
</g>
<!-- Node14 -->
<g id="node14" class="node">
<title>Node14</title>
<g id="a_node14"><a xlink:href="ConcreteGreenhouseIterator_8cpp.html" target="_top" xlink:title="Implements the ConcreteGreenhouseIterator behaviour defined in the corresponding header.">
<polygon fill="none" stroke="black" points="2877,-56.5 2877,-75.5 3051,-75.5 3051,-56.5 2877,-56.5"/>
<text text-anchor="middle" x="2964" y="-63.5" font-family="Helvetica,sans-Serif" font-size="10.00">ConcreteGreenhouseIterator.cpp</text>
</a>
</g>
</g>
<!-- Node12&#45;&gt;Node14 -->
<g id="edge27" class="edge">
<title>Node12&#45;&gt;Node14</title>
<path fill="none" stroke="midnightblue" d="M1937.41,-119.27C2087.89,-114.46 2511.3,-99.72 2863,-76 2867.57,-75.69 2872.25,-75.35 2876.97,-74.99"/>
<polygon fill="midnightblue" stroke="midnightblue" points="1936.94,-115.78 1927.06,-119.6 1937.16,-122.78 1936.94,-115.78"/>
</g>
<!-- Node15 -->
<g id="node15" class="node">
<title>Node15</title>
<g id="a_node15"><a xlink:href="ConcreteInventoryIterator_8cpp.html" target="_top" xlink:title="Implements the ConcreteInventoryIterator behaviour defined in the corresponding header.">
<polygon fill="none" stroke="black" points="138,-56.5 138,-75.5 300,-75.5 300,-56.5 138,-56.5"/>
<text text-anchor="middle" x="219" y="-63.5" font-family="Helvetica,sans-Serif" font-size="10.00">ConcreteInventoryIterator.cpp</text>
</a>
</g>
</g>
<!-- Node12&#45;&gt;Node15 -->
<g id="edge28" class="edge">
<title>Node12&#45;&gt;Node15</title>
<path fill="none" stroke="midnightblue" d="M1824.65,-120.72C1621,-119.42 904.08,-112.38 314,-76 309.45,-75.72 304.79,-75.4 300.08,-75.04"/>
<polygon fill="midnightblue" stroke="midnightblue" points="1824.78,-124.22 1834.8,-120.78 1824.82,-117.22 1824.78,-124.22"/>
</g>
<!-- Node12&#45;&gt;Node16 -->
<g id="edge30" class="edge">
<title>Node12&#45;&gt;Node16</title>
<path fill="none" stroke="midnightblue" d="M1824.71,-120.34C1563.77,-117.18 470.07,-102.55 129,-76 126.11,-75.77 123.15,-75.51 120.17,-75.22"/>
<polygon fill="midnightblue" stroke="midnightblue" points="1824.68,-123.84 1834.72,-120.46 1824.76,-116.84 1824.68,-123.84"/>
</g>
<!-- Node17 -->
<g id="node17" class="node">
<title>Node17</title>
<g id="a_node17"><a xlink:href="FertilizePlant_8cpp.html" target="_top" xlink:title="Implements the FertilizePlant behaviour defined in the corresponding header.">
<polygon fill="none" stroke="black" points="356.5,-56.5 356.5,-75.5 457.5,-75.5 457.5,-56.5 356.5,-56.5"/>
<text text-anchor="middle" x="407" y="-63.5" font-family="Helvetica,sans-Serif" font-size="10.00">FertilizePlant.cpp</text>
</a>
</g>
</g>
<!-- Node12&#45;&gt;Node17 -->
<g id="edge32" class="edge">
<title>Node12&#45;&gt;Node17</title>
<path fill="none" stroke="midnightblue" d="M1824.94,-121.33C1634.75,-122.01 996.71,-120.58 472,-76 467.35,-75.6 462.52,-75.1 457.68,-74.54"/>
<polygon fill="midnightblue" stroke="midnightblue" points="1824.99,-124.83 1834.98,-121.29 1824.97,-117.83 1824.99,-124.83"/>
</g>
<!-- Node18 -->
<g id="node18" class="node">
<title>Node18</title>
<g id="a_node18"><a xlink:href="FertilizeStrategy_8cpp.html" target="_top" xlink:title="Implements the FertilizeStrategy behaviour defined in the corresponding header.">
<polygon fill="none" stroke="black" points="514,-56.5 514,-75.5 630,-75.5 630,-56.5 514,-56.5"/>
<text text-anchor="middle" x="572" y="-63.5" font-family="Helvetica,sans-Serif" font-size="10.00">FertilizeStrategy.cpp</text>
</a>
</g>
</g>
<!-- Node12&#45;&gt;Node18 -->
<g id="edge33" class="edge">
<title>Node12&#45;&gt;Node18</title>
<path fill="none" stroke="midnightblue" d="M1824.92,-120.91C1649.48,-120.21 1095.63,-114.85 639,-76 636.08,-75.75 633.08,-75.47 630.07,-75.15"/>
<polygon fill="midnightblue" stroke="midnightblue" points="1824.93,-124.41 1834.94,-120.95 1824.96,-117.41 1824.93,-124.41"/>
</g>
<!-- Node19 -->
<g id="node19" class="node">
<title>Node19</title>
<g id="a_node19"><a xlink:href="FertilizingHandler_8cpp.html" target="_top" xlink:title="Implements the FertilizingHandler behaviour defined in the corresponding header.">
<polygon fill="none" stroke="black" points="648,-56.5 648,-75.5 770,-75.5 770,-56.5 648,-56.5"/>
<text text-anchor="middle" x="709" y="-63.5" font-family="Helvetica,sans-Serif" font-size="10.00">FertilizingHandler.cpp</text>
</a>
</g>
</g>
<!-- Node12&#45;&gt;Node19 -->
<g id="edge34" class="edge">
<title>Node12&#45;&gt;Node19</title>
<path fill="none" stroke="midnightblue" d="M1824.75,-120.43C1662.35,-118.42 1178.77,-109.8 779,-76 776.07,-75.75 773.07,-75.47 770.05,-75.17"/>
<polygon fill="midnightblue" stroke="midnightblue" points="1824.94,-123.93 1834.98,-120.55 1825.03,-116.93 1824.94,-123.93"/>
</g>
<!-- Node20 -->
<g id="node20" class="node">
<title>Node20</title>
<g id="a_node20"><a xlink:href="FrequentWatering_8cpp.html" target="_top" xlink:title="Implements the FrequentWatering behaviour defined in the corresponding header.">
<polygon fill="none" stroke="black" points="788.5,-56.5 788.5,-75.5 911.5,-75.5 911.5,-56.5 788.5,-56.5"/>
<text text-anchor="middle" x="850" y="-63.5" font-family="Helvetica,sans-Serif" font-size="10.00">FrequentWatering.cpp</text>
</a>
</g>
</g>
<!-- Node12&#45;&gt;Node20 -->
<g id="edge35" class="edge">
<title>Node12&#45;&gt;Node20</title>
<path fill="none" stroke="midnightblue" d="M1824.75,-119.92C1676.6,-116.74 1263.52,-105.69 921,-76 917.91,-75.73 914.74,-75.43 911.54,-75.1"/>
<polygon fill="midnightblue" stroke="midnightblue" points="1824.88,-123.42 1834.95,-120.14 1825.03,-116.43 1824.88,-123.42"/>
</g>
<!-- Node21 -->
<g id="node21" class="node">
<title>Node21</title>
<g id="a_node21"><a xlink:href="GreenhouseBed_8cpp.html" target="_top" xlink:title="Implements the GreenhouseBed behaviour defined in the corresponding header.">
<polygon fill="none" stroke="black" points="930,-56.5 930,-75.5 1044,-75.5 1044,-56.5 930,-56.5"/>
<text text-anchor="middle" x="987" y="-63.5" font-family="Helvetica,sans-Serif" font-size="10.00">GreenhouseBed.cpp</text>
</a>
</g>
</g>
<!-- Node12&#45;&gt;Node21 -->
<g id="edge36" class="edge">
<title>Node12&#45;&gt;Node21</title>
<path fill="none" stroke="midnightblue" d="M1824.64,-119.52C1690.62,-115.64 1342.48,-103.56 1053,-76 1050.12,-75.73 1047.18,-75.42 1044.2,-75.09"/>
<polygon fill="midnightblue" stroke="midnightblue" points="1824.57,-123.02 1834.67,-119.8 1824.77,-116.02 1824.57,-123.02"/>
</g>
<!-- Node22 -->
<g id="node22" class="node">
<title>Node22</title>
<g id="a_node22"><a xlink:href="GreenhouseController_8cpp.html" target="_top" xlink:title="Implements the GreenhouseController behaviour defined in the corresponding header.">
<polygon fill="none" stroke="black" points="1062.5,-56.5 1062.5,-75.5 1205.5,-75.5 1205.5,-56.5 1062.5,-56.5"/>
<text text-anchor="middle" x="1134" y="-63.5" font-family="Helvetica,sans-Serif" font-size="10.00">GreenhouseController.cpp</text>
</a>
</g>
</g>
<!-- Node12&#45;&gt;Node22 -->
<g id="edge37" class="edge">
<title>Node12&#45;&gt;Node22</title>
<path fill="none" stroke="midnightblue" d="M1824.63,-118.01C1709.79,-111.75 1440.55,-96.14 1215,-76 1211.9,-75.72 1208.73,-75.43 1205.54,-75.12"/>
<polygon fill="midnightblue" stroke="midnightblue" points="1824.75,-121.53 1834.92,-118.57 1825.13,-114.54 1824.75,-121.53"/>
</g>
<!-- Node23 -->
<g id="node23" class="node">
<title>Node23</title>
<g id="a_node23"><a xlink:href="Inventory_8cpp.html" target="_top" xlink:title="Implements the Inventory behaviour defined in the corresponding header.">
<polygon fill="none" stroke="black" points="1224,-56.5 1224,-75.5 1306,-75.5 1306,-56.5 1224,-56.5"/>
<text text-anchor="middle" x="1265" y="-63.5" font-family="Helvetica,sans-Serif" font-size="10.00">Inventory.cpp</text>
</a>
</g>
</g>
<!-- Node12&#45;&gt;Node23 -->
<g id="edge39" class="edge">
<title>Node12&#45;&gt;Node23</title>
<path fill="none" stroke="midnightblue" d="M1824.68,-118.02C1723.43,-112.31 1504.03,-98.4 1320,-76 1315.49,-75.45 1310.78,-74.8 1306.09,-74.1"/>
<polygon fill="midnightblue" stroke="midnightblue" points="1824.51,-121.51 1834.69,-118.58 1824.9,-114.52 1824.51,-121.51"/>
</g>
<!-- Node24 -->
<g id="node24" class="node">
<title>Node24</title>
<g id="a_node24"><a xlink:href="LiquidFertilizer_8cpp.html" target="_top" xlink:title="Implements the LiquidFertilizer behaviour defined in the corresponding header.">
<polygon fill="none" stroke="black" points="1362,-56.5 1362,-75.5 1470,-75.5 1470,-56.5 1362,-56.5"/>
<text text-anchor="middle" x="1416" y="-63.5" font-family="Helvetica,sans-Serif" font-size="10.00">LiquidFertilizer.cpp</text>
</a>
</g>
</g>
<!-- Node12&#45;&gt;Node24 -->
<g id="edge40" class="edge">
<title>Node12&#45;&gt;Node24</title>
<path fill="none" stroke="midnightblue" d="M1824.76,-115.25C1746.97,-107.17 1602.18,-91.69 1479,-76 1476.15,-75.64 1473.23,-75.25 1470.28,-74.86"/>
<polygon fill="midnightblue" stroke="midnightblue" points="1824.52,-118.74 1834.82,-116.29 1825.24,-111.78 1824.52,-118.74"/>
</g>
<!-- Node25 -->
<g id="node25" class="node">
<title>Node25</title>
<g id="a_node25"><a xlink:href="OrderDirector_8cpp.html" target="_top" xlink:title="Implements the OrderDirector behaviour defined in the corresponding header.">
<polygon fill="none" stroke="black" points="1488,-56.5 1488,-75.5 1590,-75.5 1590,-56.5 1488,-56.5"/>
<text text-anchor="middle" x="1539" y="-63.5" font-family="Helvetica,sans-Serif" font-size="10.00">OrderDirector.cpp</text>
</a>
</g>
</g>
<!-- Node12&#45;&gt;Node25 -->
<g id="edge42" class="edge">
<title>Node12&#45;&gt;Node25</title>
<path fill="none" stroke="midnightblue" d="M1824.79,-112.12C1759.64,-101.84 1653.19,-85.03 1590.24,-75.09"/>
<polygon fill="midnightblue" stroke="midnightblue" points="1824.45,-115.61 1834.88,-113.72 1825.54,-108.7 1824.45,-115.61"/>
</g>
<!-- Node26 -->
<g id="node26" class="node">
<title>Node26</title>
<g id="a_node26"><a xlink:href="OrganicFertilizer_8cpp.html" target="_top" xlink:title="Implements the OrganicFertilizer behaviour defined in the corresponding header.">
<polygon fill="none" stroke="black" points="1608,-56.5 1608,-75.5 1724,-75.5 1724,-56.5 1608,-56.5"/>
<text text-anchor="middle" x="1666" y="-63.5" font-family="Helvetica,sans-Serif" font-size="10.00">OrganicFertilizer.cpp</text>
</a>
</g>
</g>
<!-- Node12&#45;&gt;Node26 -->
<g id="edge43" class="edge">
<title>Node12&#45;&gt;Node26</title>
<path fill="none" stroke="midnightblue" d="M1837.04,-109.96C1796.43,-99.76 1736.96,-84.82 1699.91,-75.52"/>
<polygon fill="midnightblue" stroke="midnightblue" points="1836.38,-113.4 1846.93,-112.44 1838.09,-106.61 1836.38,-113.4"/>
</g>
<!-- Node27 -->
<g id="node27" class="node">
<title>Node27</title>
<g id="a_node27"><a xlink:href="PlantInstance_8cpp.html" target="_top" xlink:title="Implements the PlantInstance behaviour defined in the corresponding header.">
<polygon fill="none" stroke="black" points="3785.5,-0.5 3785.5,-19.5 3888.5,-19.5 3888.5,-0.5 3785.5,-0.5"/>
<text text-anchor="middle" x="3837" y="-7.5" font-family="Helvetica,sans-Serif" font-size="10.00">PlantInstance.cpp</text>
</a>
</g>
</g>
<!-- Node12&#45;&gt;Node27 -->
<g id="edge44" class="edge">
<title>Node12&#45;&gt;Node27</title>
<path fill="none" stroke="midnightblue" d="M1937.66,-120.78C2256.47,-119.44 3813.71,-111.08 3848,-76 3862.88,-60.78 3850.33,-33.36 3842.36,-19.51"/>
<polygon fill="midnightblue" stroke="midnightblue" points="1937.26,-117.29 1927.28,-120.83 1937.29,-124.29 1937.26,-117.29"/>
</g>
<!-- Node28 -->
<g id="node28" class="node">
<title>Node28</title>
<g id="a_node28"><a xlink:href="SeasonalWatering_8cpp.html" target="_top" xlink:title="Implements the SeasonalWatering behaviour defined in the corresponding header.">
<polygon fill="none" stroke="black" points="1742.5,-56.5 1742.5,-75.5 1867.5,-75.5 1867.5,-56.5 1742.5,-56.5"/>
<text text-anchor="middle" x="1805" y="-63.5" font-family="Helvetica,sans-Serif" font-size="10.00">SeasonalWatering.cpp</text>
</a>
</g>
</g>
<!-- Node12&#45;&gt;Node28 -->
<g id="edge45" class="edge">
<title>Node12&#45;&gt;Node28</title>
<path fill="none" stroke="midnightblue" d="M1860.42,-106.38C1846.69,-96.62 1829.07,-84.11 1817.43,-75.83"/>
<polygon fill="midnightblue" stroke="midnightblue" points="1858.61,-109.38 1868.79,-112.32 1862.66,-103.68 1858.61,-109.38"/>
</g>
<!-- Node29 -->
<g id="node29" class="node">
<title>Node29</title>
<g id="a_node29"><a xlink:href="SlowReleaseFertilizer_8cpp.html" target="_top" xlink:title="Implements the SlowReleaseFertilizer behaviour defined in the corresponding header.">
<polygon fill="none" stroke="black" points="1885.5,-56.5 1885.5,-75.5 2026.5,-75.5 2026.5,-56.5 1885.5,-56.5"/>
<text text-anchor="middle" x="1956" y="-63.5" font-family="Helvetica,sans-Serif" font-size="10.00">SlowReleaseFertilizer.cpp</text>
</a>
</g>
</g>
<!-- Node12&#45;&gt;Node29 -->
<g id="edge47" class="edge">
<title>Node12&#45;&gt;Node29</title>
<path fill="none" stroke="midnightblue" d="M1901.31,-106.38C1914.86,-96.62 1932.24,-84.11 1943.73,-75.83"/>
<polygon fill="midnightblue" stroke="midnightblue" points="1899.12,-103.64 1893.05,-112.32 1903.21,-109.32 1899.12,-103.64"/>
</g>
<!-- Node30 -->
<g id="node30" class="node">
<title>Node30</title>
<g id="a_node30"><a xlink:href="SparseWatering_8cpp.html" target="_top" xlink:title="Implements the SparseWatering behaviour defined in the corresponding header.">
<polygon fill="none" stroke="black" points="2044.5,-56.5 2044.5,-75.5 2157.5,-75.5 2157.5,-56.5 2044.5,-56.5"/>
<text text-anchor="middle" x="2101" y="-63.5" font-family="Helvetica,sans-Serif" font-size="10.00">SparseWatering.cpp</text>
</a>
</g>
</g>
<!-- Node12&#45;&gt;Node30 -->
<g id="edge48" class="edge">
<title>Node12&#45;&gt;Node30</title>
<path fill="none" stroke="midnightblue" d="M1925.72,-110.02C1967.28,-99.82 2028.31,-84.84 2066.3,-75.52"/>
<polygon fill="midnightblue" stroke="midnightblue" points="1924.74,-106.66 1915.86,-112.44 1926.41,-113.46 1924.74,-106.66"/>
</g>
<!-- Node31 -->
<g id="node31" class="node">
<title>Node31</title>
<g id="a_node31"><a xlink:href="Staff_8cpp.html" target="_top" xlink:title="Implements the Staff behaviour defined in the corresponding header.">
<polygon fill="none" stroke="black" points="2175.5,-56.5 2175.5,-75.5 2234.5,-75.5 2234.5,-56.5 2175.5,-56.5"/>
<text text-anchor="middle" x="2205" y="-63.5" font-family="Helvetica,sans-Serif" font-size="10.00">Staff.cpp</text>
</a>
</g>
</g>
<!-- Node12&#45;&gt;Node31 -->
<g id="edge49" class="edge">
<title>Node12&#45;&gt;Node31</title>
<path fill="none" stroke="midnightblue" d="M1937.07,-113.33C1994.7,-105.18 2086.91,-91.35 2166,-76 2169,-75.42 2172.12,-74.77 2175.24,-74.1"/>
<polygon fill="midnightblue" stroke="midnightblue" points="1936.49,-109.88 1927.08,-114.74 1937.47,-116.81 1936.49,-109.88"/>
</g>
<!-- Node32 -->
<g id="node32" class="node">
<title>Node32</title>
<g id="a_node32"><a xlink:href="StockItem_8cpp.html" target="_top" xlink:title="Implements the StockItem behaviour defined in the corresponding header.">
<polygon fill="none" stroke="black" points="2369,-56.5 2369,-75.5 2455,-75.5 2455,-56.5 2369,-56.5"/>
<text text-anchor="middle" x="2412" y="-63.5" font-family="Helvetica,sans-Serif" font-size="10.00">StockItem.cpp</text>
</a>
</g>
</g>
<!-- Node12&#45;&gt;Node32 -->
<g id="edge50" class="edge">
<title>Node12&#45;&gt;Node32</title>
<path fill="none" stroke="midnightblue" d="M1937.25,-117.14C2026.92,-110.66 2207.69,-96.3 2360,-76 2362.91,-75.61 2365.9,-75.18 2368.91,-74.72"/>
<polygon fill="midnightblue" stroke="midnightblue" points="1936.76,-113.67 1927.04,-117.87 1937.26,-120.65 1936.76,-113.67"/>
</g>
<!-- Node12&#45;&gt;Node33 -->
<g id="edge52" class="edge">
<title>Node12&#45;&gt;Node33</title>
<path fill="none" stroke="midnightblue" d="M1937.35,-121.41C2149.81,-122.55 2922.56,-122.99 3557,-76 3561.65,-75.66 3566.45,-75.23 3571.27,-74.75"/>
<polygon fill="midnightblue" stroke="midnightblue" points="1937.09,-117.91 1927.07,-121.35 1937.05,-124.91 1937.09,-117.91"/>
</g>
<!-- Node34 -->
<g id="node34" class="node">
<title>Node34</title>
<g id="a_node34"><a xlink:href="WateringHandler_8cpp.html" target="_top" xlink:title="Implements the WateringHandler behaviour defined in the corresponding header.">
<polygon fill="none" stroke="black" points="2473,-56.5 2473,-75.5 2591,-75.5 2591,-56.5 2473,-56.5"/>
<text text-anchor="middle" x="2532" y="-63.5" font-family="Helvetica,sans-Serif" font-size="10.00">WateringHandler.cpp</text>
</a>
</g>
</g>
<!-- Node12&#45;&gt;Node34 -->
<g id="edge53" class="edge">
<title>Node12&#45;&gt;Node34</title>
<path fill="none" stroke="midnightblue" d="M1937.47,-117.67C2041.68,-111.29 2271.22,-96.18 2464,-76 2466.84,-75.7 2469.75,-75.38 2472.68,-75.04"/>
<polygon fill="midnightblue" stroke="midnightblue" points="1936.95,-114.19 1927.18,-118.29 1937.37,-121.18 1936.95,-114.19"/>
</g>
<!-- Node35 -->
<g id="node35" class="node">
<title>Node35</title>
<g id="a_node35"><a xlink:href="WaterPlant_8cpp.html" target="_top" xlink:title="Implements the WaterPlant behaviour defined in the corresponding header.">
<polygon fill="none" stroke="black" points="2609,-56.5 2609,-75.5 2699,-75.5 2699,-56.5 2609,-56.5"/>
<text text-anchor="middle" x="2654" y="-63.5" font-family="Helvetica,sans-Serif" font-size="10.00">WaterPlant.cpp</text>
</a>
</g>
</g>
<!-- Node12&#45;&gt;Node35 -->
<g id="edge54" class="edge">
<title>Node12&#45;&gt;Node35</title>
<path fill="none" stroke="midnightblue" d="M1937.59,-119.43C2059.19,-115.63 2354.29,-104.09 2600,-76 2602.93,-75.67 2605.94,-75.28 2608.97,-74.86"/>
<polygon fill="midnightblue" stroke="midnightblue" points="1937.3,-115.94 1927.41,-119.75 1937.51,-122.94 1937.3,-115.94"/>
</g>
<!-- Node36 -->
<g id="node36" class="node">
<title>Node36</title>
<g id="a_node36"><a xlink:href="waterStrategy_8cpp.html" target="_top" xlink:title="Implements the waterStrategy behaviour defined in the corresponding header.">
<polygon fill="none" stroke="black" points="2717,-56.5 2717,-75.5 2821,-75.5 2821,-56.5 2717,-56.5"/>
<text text-anchor="middle" x="2769" y="-63.5" font-family="Helvetica,sans-Serif" font-size="10.00">waterStrategy.cpp</text>
</a>
</g>
</g>
<!-- Node12&#45;&gt;Node36 -->
<g id="edge55" class="edge">
<title>Node12&#45;&gt;Node36</title>
<path fill="none" stroke="midnightblue" d="M1937.32,-119.72C2071.22,-116.3 2419.03,-105.12 2708,-76 2710.88,-75.71 2713.82,-75.38 2716.8,-75.03"/>
<polygon fill="midnightblue" stroke="midnightblue" points="1937.2,-116.23 1927.29,-119.98 1937.38,-123.22 1937.2,-116.23"/>
</g>
<!-- Node13&#45;&gt;Node5 -->
<g id="edge23" class="edge">
<title>Node13&#45;&gt;Node5</title>
<path fill="none" stroke="midnightblue" d="M2361.01,-56.01C2665.84,-25.07 2746.03,-50.02 3047,-20 3050.09,-19.69 3053.26,-19.34 3056.46,-18.95"/>
<polygon fill="midnightblue" stroke="midnightblue" points="2360.59,-52.53 2351,-57.04 2361.31,-59.5 2360.59,-52.53"/>
</g>
<!-- Node13&#45;&gt;Node6 -->
<g id="edge24" class="edge">
<title>Node13&#45;&gt;Node6</title>
<path fill="none" stroke="midnightblue" d="M2361.25,-55.95C2583.82,-31.16 2836.88,-17.92 2941.26,-13.11"/>
<polygon fill="midnightblue" stroke="midnightblue" points="2360.56,-52.51 2351.01,-57.1 2361.34,-59.46 2360.56,-52.51"/>
</g>
<!-- Node13&#45;&gt;Node7 -->
<g id="edge25" class="edge">
<title>Node13&#45;&gt;Node7</title>
<path fill="none" stroke="midnightblue" d="M2361.49,-55.98C2776.57,-16.64 2885.24,-56.77 3297,-20 3303.71,-19.4 3310.78,-18.59 3317.69,-17.7"/>
<polygon fill="midnightblue" stroke="midnightblue" points="2360.93,-52.51 2351.31,-56.95 2361.6,-59.48 2360.93,-52.51"/>
</g>
<!-- Node13&#45;&gt;Node9 -->
<g id="edge26" class="edge">
<title>Node13&#45;&gt;Node9</title>
<path fill="none" stroke="midnightblue" d="M2361.44,-55.97C2719.43,-20.98 2813.34,-52.38 3168,-20 3171.18,-19.71 3174.44,-19.38 3177.72,-19.01"/>
<polygon fill="midnightblue" stroke="midnightblue" points="2360.92,-52.51 2351.31,-56.97 2361.61,-59.47 2360.92,-52.51"/>
</g>
<!-- Node37&#45;&gt;Node3 -->
<g id="edge58" class="edge">
<title>Node37&#45;&gt;Node3</title>
<path fill="none" stroke="midnightblue" d="M3736.93,-56.68C3735.61,-56.45 3734.3,-56.22 3733,-56 3656.93,-42.93 3568.51,-27.89 3515.74,-18.93"/>
<polygon fill="midnightblue" stroke="midnightblue" points="3736.78,-60.2 3747.23,-58.45 3737.97,-53.3 3736.78,-60.2"/>
</g>
<!-- Node37&#45;&gt;Node7 -->
<g id="edge60" class="edge">
<title>Node37&#45;&gt;Node7</title>
<path fill="none" stroke="midnightblue" d="M3737.32,-59.95C3666.61,-52.29 3529.81,-36.85 3414,-20 3410.77,-19.53 3407.43,-19.02 3404.07,-18.49"/>
<polygon fill="midnightblue" stroke="midnightblue" points="3736.95,-63.43 3747.27,-61.02 3737.7,-56.47 3736.95,-63.43"/>
</g>
<!-- Node37&#45;&gt;Node8 -->
<g id="edge61" class="edge">
<title>Node37&#45;&gt;Node8</title>
<path fill="none" stroke="midnightblue" d="M3742.59,-53.83C3703.89,-43.63 3647.51,-28.78 3612.33,-19.52"/>
<polygon fill="midnightblue" stroke="midnightblue" points="3741.96,-57.28 3752.52,-56.44 3743.74,-50.51 3741.96,-57.28"/>
</g>
<!-- Node37&#45;&gt;Node27 -->
<g id="edge59" class="edge">
<title>Node37&#45;&gt;Node27</title>
<path fill="none" stroke="midnightblue" d="M3800.68,-48.72C3809.84,-39.2 3821.05,-27.56 3828.57,-19.75"/>
<polygon fill="midnightblue" stroke="midnightblue" points="3798,-46.45 3793.59,-56.08 3803.04,-51.31 3798,-46.45"/>
</g>
<!-- Node38&#45;&gt;Node3 -->
<g id="edge63" class="edge">
<title>Node38&#45;&gt;Node3</title>
<path fill="none" stroke="midnightblue" d="M3351.45,-53.04C3379.86,-42.88 3419.94,-28.55 3445.19,-19.52"/>
<polygon fill="midnightblue" stroke="midnightblue" points="3350.16,-49.78 3341.93,-56.44 3352.52,-56.37 3350.16,-49.78"/>
</g>
<!-- Node38&#45;&gt;Node5 -->
<g id="edge64" class="edge">
<title>Node38&#45;&gt;Node5</title>
<path fill="none" stroke="midnightblue" d="M3274.81,-53.89C3235.15,-43.7 3177.23,-28.8 3141.12,-19.52"/>
<polygon fill="midnightblue" stroke="midnightblue" points="3274.17,-57.34 3284.72,-56.44 3275.91,-50.56 3274.17,-57.34"/>
</g>
<!-- Node38&#45;&gt;Node6 -->
<g id="edge65" class="edge">
<title>Node38&#45;&gt;Node6</title>
<path fill="none" stroke="midnightblue" d="M3258.71,-55.24C3195.71,-44.87 3097.25,-28.66 3038.64,-19.01"/>
<polygon fill="midnightblue" stroke="midnightblue" points="3258.46,-58.74 3268.9,-56.92 3259.6,-51.84 3258.46,-58.74"/>
</g>
<!-- Node38&#45;&gt;Node8 -->
<g id="edge66" class="edge">
<title>Node38&#45;&gt;Node8</title>
<path fill="none" stroke="midnightblue" d="M3369.38,-54.41C3418.9,-44.2 3492.86,-28.96 3538.68,-19.52"/>
<polygon fill="midnightblue" stroke="midnightblue" points="3368.6,-51 3359.51,-56.44 3370.02,-57.85 3368.6,-51"/>
</g>
<!-- Node38&#45;&gt;Node9 -->
<g id="edge67" class="edge">
<title>Node38&#45;&gt;Node9</title>
<path fill="none" stroke="midnightblue" d="M3295.81,-50.9C3280.22,-41 3259.87,-28.07 3246.62,-19.65"/>
<polygon fill="midnightblue" stroke="midnightblue" points="3294.03,-53.92 3304.34,-56.32 3297.78,-48.01 3294.03,-53.92"/>
</g>
</g>
</svg>
