<?xml version="1.0" encoding="UTF-8" standalone="no"?>
<!DOCTYPE svg PUBLIC "-//W3C//DTD SVG 1.1//EN"
 "http://www.w3.org/Graphics/SVG/1.1/DTD/svg11.dtd">
<!-- Generated by graphviz version 2.43.0 (0)
 -->
<!-- Title: PlantStateThresholds.h Pages: 1 -->
<svg width="479pt" height="140pt"
 viewBox="0.00 0.00 479.00 140.00" xmlns="http://www.w3.org/2000/svg" xmlns:xlink="http://www.w3.org/1999/xlink">
<g id="graph0" class="graph" transform="scale(1 1) rotate(0) translate(4 136)">
<title>PlantStateThresholds.h</title>
<!-- Node1 -->
<g id="node1" class="node">
<title>Node1</title>
<g id="a_node1"><a xlink:title="Centralised constants describing lifecycle transition boundaries.">
<polygon fill="#bfbfbf" stroke="black" points="198,-112.5 198,-131.5 327,-131.5 327,-112.5 198,-112.5"/>
<text text-anchor="middle" x="262.5" y="-119.5" font-family="Helvetica,sans-Serif" font-size="10.00">PlantStateThresholds.h</text>
</a>
</g>
</g>
<!-- Node2 -->
<g id="node2" class="node">
<title>Node2</title>
<g id="a_node2"><a xlink:href="PlantStateUtils_8h.html" target="_top" xlink:title="Common helper functions shared by lifecycle state implementations.">
<polygon fill="none" stroke="black" points="175.5,-56.5 175.5,-75.5 273.5,-75.5 273.5,-56.5 175.5,-56.5"/>
<text text-anchor="middle" x="224.5" y="-63.5" font-family="Helvetica,sans-Serif" font-size="10.00">PlantStateUtils.h</text>
</a>
</g>
</g>
<!-- Node1&#45;&gt;Node2 -->
<g id="edge1" class="edge">
<title>Node1&#45;&gt;Node2</title>
<path fill="none" stroke="midnightblue" d="M250.44,-103.86C243.86,-94.5 235.99,-83.33 230.66,-75.75"/>
<polygon fill="midnightblue" stroke="midnightblue" points="247.61,-105.92 256.23,-112.08 253.33,-101.89 247.61,-105.92"/>
</g>
<!-- Node3 -->
<g id="node3" class="node">
<title>Node3</title>
<g id="a_node3"><a xlink:href="GrowingState_8cpp.html" target="_top" xlink:title="Implements the GrowingState behaviour defined in the corresponding header.">
<polygon fill="none" stroke="black" points="0,-0.5 0,-19.5 103,-19.5 103,-0.5 0,-0.5"/>
<text text-anchor="middle" x="51.5" y="-7.5" font-family="Helvetica,sans-Serif" font-size="10.00">GrowingState.cpp</text>
</a>
</g>
</g>
<!-- Node1&#45;&gt;Node3 -->
<g id="edge6" class="edge">
<title>Node1&#45;&gt;Node3</title>
<path fill="none" stroke="midnightblue" d="M230.16,-108.76C208.86,-100.34 180.56,-88.46 156.5,-76 121.85,-58.05 83.4,-32.77 64.06,-19.66"/>
<polygon fill="midnightblue" stroke="midnightblue" points="229.12,-112.11 239.71,-112.49 231.67,-105.59 229.12,-112.11"/>
</g>
<!-- Node4 -->
<g id="node4" class="node">
<title>Node4</title>
<g id="a_node4"><a xlink:href="MatureState_8cpp.html" target="_top" xlink:title="Implements the MatureState behaviour defined in the corresponding header.">
<polygon fill="none" stroke="black" points="121,-0.5 121,-19.5 218,-19.5 218,-0.5 121,-0.5"/>
<text text-anchor="middle" x="169.5" y="-7.5" font-family="Helvetica,sans-Serif" font-size="10.00">MatureState.cpp</text>
</a>
</g>
</g>
<!-- Node1&#45;&gt;Node4 -->
<g id="edge7" class="edge">
<title>Node1&#45;&gt;Node4</title>
<path fill="none" stroke="midnightblue" d="M211.48,-109.13C194.18,-102.4 176.66,-91.99 166.5,-76 155.47,-58.65 161.64,-33.12 166.13,-19.8"/>
<polygon fill="midnightblue" stroke="midnightblue" points="210.43,-112.47 221.03,-112.5 212.77,-105.87 210.43,-112.47"/>
</g>
<!-- Node5 -->
<g id="node5" class="node">
<title>Node5</title>
<g id="a_node5"><a xlink:href="SeedState_8cpp.html" target="_top" xlink:title="Implements the SeedState behaviour defined in the corresponding header.">
<polygon fill="none" stroke="black" points="236.5,-0.5 236.5,-19.5 322.5,-19.5 322.5,-0.5 236.5,-0.5"/>
<text text-anchor="middle" x="279.5" y="-7.5" font-family="Helvetica,sans-Serif" font-size="10.00">SeedState.cpp</text>
</a>
</g>
</g>
<!-- Node1&#45;&gt;Node5 -->
<g id="edge9" class="edge">
<title>Node1&#45;&gt;Node5</title>
<path fill="none" stroke="midnightblue" d="M272.43,-103.3C276.4,-95.24 280.5,-85.41 282.5,-76 286.72,-56.11 283.52,-32.05 281.25,-19.53"/>
<polygon fill="midnightblue" stroke="midnightblue" points="269.19,-101.93 267.63,-112.41 275.39,-105.19 269.19,-101.93"/>
</g>
<!-- Node6 -->
<g id="node6" class="node">
<title>Node6</title>
<g id="a_node6"><a xlink:href="WitheringState_8cpp.html" target="_top" xlink:title="Implements the WitheringState behaviour defined in the corresponding header.">
<polygon fill="none" stroke="black" points="340.5,-0.5 340.5,-19.5 450.5,-19.5 450.5,-0.5 340.5,-0.5"/>
<text text-anchor="middle" x="395.5" y="-7.5" font-family="Helvetica,sans-Serif" font-size="10.00">WitheringState.cpp</text>
</a>
</g>
</g>
<!-- Node1&#45;&gt;Node6 -->
<g id="edge10" class="edge">
<title>Node1&#45;&gt;Node6</title>
<path fill="none" stroke="midnightblue" d="M280.86,-105.82C309.19,-82.39 362.63,-38.19 385.11,-19.59"/>
<polygon fill="midnightblue" stroke="midnightblue" points="278.41,-103.3 272.94,-112.37 282.87,-108.69 278.41,-103.3"/>
</g>
<!-- Node7 -->
<g id="node7" class="node">
<title>Node7</title>
<g id="a_node7"><a xlink:href="PlantInstance_8cpp.html" target="_top" xlink:title="Implements the PlantInstance behaviour defined in the corresponding header.">
<polygon fill="none" stroke="black" points="368,-56.5 368,-75.5 471,-75.5 471,-56.5 368,-56.5"/>
<text text-anchor="middle" x="419.5" y="-63.5" font-family="Helvetica,sans-Serif" font-size="10.00">PlantInstance.cpp</text>
</a>
</g>
</g>
<!-- Node1&#45;&gt;Node7 -->
<g id="edge8" class="edge">
<title>Node1&#45;&gt;Node7</title>
<path fill="none" stroke="midnightblue" d="M296.89,-109.17C326.45,-99 368.37,-84.59 394.74,-75.52"/>
<polygon fill="midnightblue" stroke="midnightblue" points="295.7,-105.88 287.38,-112.44 297.97,-112.5 295.7,-105.88"/>
</g>
<!-- Node2&#45;&gt;Node3 -->
<g id="edge2" class="edge">
<title>Node2&#45;&gt;Node3</title>
<path fill="none" stroke="midnightblue" d="M187.45,-53.44C154.84,-43.26 108.09,-28.66 78.78,-19.52"/>
<polygon fill="midnightblue" stroke="midnightblue" points="186.5,-56.8 197.09,-56.44 188.58,-50.12 186.5,-56.8"/>
</g>
<!-- Node2&#45;&gt;Node4 -->
<g id="edge3" class="edge">
<title>Node2&#45;&gt;Node4</title>
<path fill="none" stroke="midnightblue" d="M208.21,-49C198.46,-39.43 186.45,-27.64 178.41,-19.75"/>
<polygon fill="midnightblue" stroke="midnightblue" points="205.83,-51.57 215.42,-56.08 210.73,-46.58 205.83,-51.57"/>
</g>
<!-- Node2&#45;&gt;Node5 -->
<g id="edge4" class="edge">
<title>Node2&#45;&gt;Node5</title>
<path fill="none" stroke="midnightblue" d="M240.79,-49C250.54,-39.43 262.55,-27.64 270.59,-19.75"/>
<polygon fill="midnightblue" stroke="midnightblue" points="238.27,-46.58 233.58,-56.08 243.17,-51.57 238.27,-46.58"/>
</g>
<!-- Node2&#45;&gt;Node6 -->
<g id="edge5" class="edge">
<title>Node2&#45;&gt;Node6</title>
<path fill="none" stroke="midnightblue" d="M261.54,-53.3C293.76,-43.13 339.69,-28.62 368.53,-19.52"/>
<polygon fill="midnightblue" stroke="midnightblue" points="260.08,-50.09 251.6,-56.44 262.19,-56.77 260.08,-50.09"/>
</g>
</g>
</svg>
