<?xml version="1.0" encoding="UTF-8" standalone="no"?>
<!DOCTYPE svg PUBLIC "-//W3C//DTD SVG 1.1//EN"
 "http://www.w3.org/Graphics/SVG/1.1/DTD/svg11.dtd">
<!-- Generated by graphviz version 2.43.0 (0)
 -->
<!-- Title: PlantPrototypeRegistry.cpp Pages: 1 -->
<svg width="418pt" height="151pt"
 viewBox="0.00 0.00 418.00 151.00" xmlns="http://www.w3.org/2000/svg" xmlns:xlink="http://www.w3.org/1999/xlink">
<g id="graph0" class="graph" transform="scale(1 1) rotate(0) translate(4 147)">
<title>PlantPrototypeRegistry.cpp</title>
<!-- Node1 -->
<g id="node1" class="node">
<title>Node1</title>
<g id="a_node1"><a xlink:title="Implements the PlantPrototypeRegistry behaviour defined in the corresponding header.">
<polygon fill="#bfbfbf" stroke="black" points="161,-123.5 161,-142.5 309,-142.5 309,-123.5 161,-123.5"/>
<text text-anchor="middle" x="235" y="-130.5" font-family="Helvetica,sans-Serif" font-size="10.00">PlantPrototypeRegistry.cpp</text>
</a>
</g>
</g>
<!-- Node2 -->
<g id="node2" class="node">
<title>Node2</title>
<g id="a_node2"><a xlink:href="PlantPrototypeRegistry_8h.html" target="_top" xlink:title="Manages a set of clonable plant prototypes.">
<polygon fill="none" stroke="black" points="27,-56.5 27,-86.5 163,-86.5 163,-56.5 27,-56.5"/>
<text text-anchor="start" x="35" y="-74.5" font-family="Helvetica,sans-Serif" font-size="10.00">../include/PlantPrototype</text>
<text text-anchor="middle" x="95" y="-63.5" font-family="Helvetica,sans-Serif" font-size="10.00">Registry.h</text>
</a>
</g>
</g>
<!-- Node1&#45;&gt;Node2 -->
<g id="edge1" class="edge">
<title>Node1&#45;&gt;Node2</title>
<path fill="none" stroke="midnightblue" d="M214.94,-123.48C194.83,-114.93 163.24,-101.5 137.53,-90.57"/>
<polygon fill="midnightblue" stroke="midnightblue" points="138.57,-87.21 128,-86.52 135.83,-93.66 138.57,-87.21"/>
</g>
<!-- Node6 -->
<g id="node6" class="node">
<title>Node6</title>
<g id="a_node6"><a xlink:href="Plant_8h.html" target="_top" xlink:title="Abstract &#39;Prototype&#39; interface for all plant types.">
<polygon fill="none" stroke="black" points="186,-62 186,-81 284,-81 284,-62 186,-62"/>
<text text-anchor="middle" x="235" y="-69" font-family="Helvetica,sans-Serif" font-size="10.00">../include/Plant.h</text>
</a>
</g>
</g>
<!-- Node1&#45;&gt;Node6 -->
<g id="edge5" class="edge">
<title>Node1&#45;&gt;Node6</title>
<path fill="none" stroke="midnightblue" d="M235,-123.48C235,-115.08 235,-101.98 235,-91.16"/>
<polygon fill="midnightblue" stroke="midnightblue" points="238.5,-91.01 235,-81.01 231.5,-91.01 238.5,-91.01"/>
</g>
<!-- Node9 -->
<g id="node9" class="node">
<title>Node9</title>
<g id="a_node9"><a xlink:title=" ">
<polygon fill="none" stroke="#bfbfbf" points="302.5,-62 302.5,-81 347.5,-81 347.5,-62 302.5,-62"/>
<text text-anchor="middle" x="325" y="-69" font-family="Helvetica,sans-Serif" font-size="10.00">utility</text>
</a>
</g>
</g>
<!-- Node1&#45;&gt;Node9 -->
<g id="edge9" class="edge">
<title>Node1&#45;&gt;Node9</title>
<path fill="none" stroke="midnightblue" d="M247.89,-123.48C262.46,-113.84 286.4,-98.02 303.75,-86.55"/>
<polygon fill="midnightblue" stroke="midnightblue" points="305.72,-89.44 312.13,-81.01 301.86,-83.6 305.72,-89.44"/>
</g>
<!-- Node3 -->
<g id="node3" class="node">
<title>Node3</title>
<g id="a_node3"><a xlink:title=" ">
<polygon fill="none" stroke="#bfbfbf" points="0,-0.5 0,-19.5 38,-19.5 38,-0.5 0,-0.5"/>
<text text-anchor="middle" x="19" y="-7.5" font-family="Helvetica,sans-Serif" font-size="10.00">map</text>
</a>
</g>
</g>
<!-- Node2&#45;&gt;Node3 -->
<g id="edge2" class="edge">
<title>Node2&#45;&gt;Node3</title>
<path fill="none" stroke="midnightblue" d="M76.99,-56.4C65.26,-47.22 49.98,-35.26 38.06,-25.92"/>
<polygon fill="midnightblue" stroke="midnightblue" points="40.09,-23.07 30.06,-19.66 35.78,-28.58 40.09,-23.07"/>
</g>
<!-- Node4 -->
<g id="node4" class="node">
<title>Node4</title>
<g id="a_node4"><a xlink:title=" ">
<polygon fill="none" stroke="#bfbfbf" points="132,-0.5 132,-19.5 176,-19.5 176,-0.5 132,-0.5"/>
<text text-anchor="middle" x="154" y="-7.5" font-family="Helvetica,sans-Serif" font-size="10.00">string</text>
</a>
</g>
</g>
<!-- Node2&#45;&gt;Node4 -->
<g id="edge3" class="edge">
<title>Node2&#45;&gt;Node4</title>
<path fill="none" stroke="midnightblue" d="M108.98,-56.4C117.73,-47.58 129.03,-36.18 138.12,-27.02"/>
<polygon fill="midnightblue" stroke="midnightblue" points="140.86,-29.22 145.41,-19.66 135.89,-24.29 140.86,-29.22"/>
</g>
<!-- Node5 -->
<g id="node5" class="node">
<title>Node5</title>
<g id="a_node5"><a xlink:title=" ">
<polygon fill="none" stroke="#bfbfbf" points="56,-0.5 56,-19.5 114,-19.5 114,-0.5 56,-0.5"/>
<text text-anchor="middle" x="85" y="-7.5" font-family="Helvetica,sans-Serif" font-size="10.00">memory</text>
</a>
</g>
</g>
<!-- Node2&#45;&gt;Node5 -->
<g id="edge4" class="edge">
<title>Node2&#45;&gt;Node5</title>
<path fill="none" stroke="midnightblue" d="M92.63,-56.4C91.28,-48.38 89.58,-38.23 88.12,-29.57"/>
<polygon fill="midnightblue" stroke="midnightblue" points="91.56,-28.94 86.46,-19.66 84.66,-30.1 91.56,-28.94"/>
</g>
<!-- Node6&#45;&gt;Node4 -->
<g id="edge6" class="edge">
<title>Node6&#45;&gt;Node4</title>
<path fill="none" stroke="midnightblue" d="M223.39,-61.98C210.52,-52.52 189.53,-37.1 173.99,-25.69"/>
<polygon fill="midnightblue" stroke="midnightblue" points="175.72,-22.61 165.58,-19.51 171.57,-28.25 175.72,-22.61"/>
</g>
<!-- Node7 -->
<g id="node7" class="node">
<title>Node7</title>
<g id="a_node7"><a xlink:href="WaterStrategy_8h.html" target="_top" xlink:title="Abstract &#39;Strategy&#39; interface for watering.">
<polygon fill="none" stroke="black" points="194,-0.5 194,-19.5 288,-19.5 288,-0.5 194,-0.5"/>
<text text-anchor="middle" x="241" y="-7.5" font-family="Helvetica,sans-Serif" font-size="10.00">WaterStrategy.h</text>
</a>
</g>
</g>
<!-- Node6&#45;&gt;Node7 -->
<g id="edge7" class="edge">
<title>Node6&#45;&gt;Node7</title>
<path fill="none" stroke="midnightblue" d="M235.86,-61.98C236.71,-53.58 238.03,-40.48 239.12,-29.66"/>
<polygon fill="midnightblue" stroke="midnightblue" points="242.62,-29.81 240.14,-19.51 235.66,-29.11 242.62,-29.81"/>
</g>
<!-- Node8 -->
<g id="node8" class="node">
<title>Node8</title>
<g id="a_node8"><a xlink:href="FertilizeStrategy_8h.html" target="_top" xlink:title="Abstract &#39;Strategy&#39; interface for fertilizing.">
<polygon fill="none" stroke="black" points="306,-0.5 306,-19.5 410,-19.5 410,-0.5 306,-0.5"/>
<text text-anchor="middle" x="358" y="-7.5" font-family="Helvetica,sans-Serif" font-size="10.00">FertilizeStrategy.h</text>
</a>
</g>
</g>
<!-- Node6&#45;&gt;Node8 -->
<g id="edge8" class="edge">
<title>Node6&#45;&gt;Node8</title>
<path fill="none" stroke="midnightblue" d="M252.62,-61.98C273.17,-52.03 307.36,-35.49 331.21,-23.96"/>
<polygon fill="midnightblue" stroke="midnightblue" points="332.93,-27.01 340.41,-19.51 329.88,-20.71 332.93,-27.01"/>
</g>
</g>
</svg>
