<?xml version="1.0" encoding="UTF-8" standalone="no"?>
<!DOCTYPE svg PUBLIC "-//W3C//DTD SVG 1.1//EN"
 "http://www.w3.org/Graphics/SVG/1.1/DTD/svg11.dtd">
<!-- Generated by graphviz version 2.43.0 (0)
 -->
<!-- Title: Plant.h Pages: 1 -->
<svg width="574pt" height="84pt"
 viewBox="0.00 0.00 573.50 84.00" xmlns="http://www.w3.org/2000/svg" xmlns:xlink="http://www.w3.org/1999/xlink">
<g id="graph0" class="graph" transform="scale(1 1) rotate(0) translate(4 80)">
<title>Plant.h</title>
<!-- Node1 -->
<g id="node1" class="node">
<title>Node1</title>
<g id="a_node1"><a xlink:title="Abstract &#39;Prototype&#39; interface for all plant types.">
<polygon fill="#bfbfbf" stroke="black" points="207,-56.5 207,-75.5 257,-75.5 257,-56.5 207,-56.5"/>
<text text-anchor="middle" x="232" y="-63.5" font-family="Helvetica,sans-Serif" font-size="10.00">Plant.h</text>
</a>
</g>
</g>
<!-- Node2 -->
<g id="node2" class="node">
<title>Node2</title>
<g id="a_node2"><a xlink:href="Inventory_8cpp.html" target="_top" xlink:title="Implements the Inventory behaviour defined in the corresponding header.">
<polygon fill="none" stroke="black" points="0,-0.5 0,-19.5 82,-19.5 82,-0.5 0,-0.5"/>
<text text-anchor="middle" x="41" y="-7.5" font-family="Helvetica,sans-Serif" font-size="10.00">Inventory.cpp</text>
</a>
</g>
</g>
<!-- Node1&#45;&gt;Node2 -->
<g id="edge1" class="edge">
<title>Node1&#45;&gt;Node2</title>
<path fill="none" stroke="midnightblue" d="M196.56,-54.98C160.51,-44.79 105.23,-29.16 71.2,-19.54"/>
<polygon fill="midnightblue" stroke="midnightblue" points="196.06,-58.48 206.64,-57.83 197.97,-51.74 196.06,-58.48"/>
</g>
<!-- Node3 -->
<g id="node3" class="node">
<title>Node3</title>
<g id="a_node3"><a xlink:href="Plant_8cpp.html" target="_top" xlink:title="Implements the Plant behaviour defined in the corresponding header.">
<polygon fill="none" stroke="black" points="100,-0.5 100,-19.5 162,-19.5 162,-0.5 100,-0.5"/>
<text text-anchor="middle" x="131" y="-7.5" font-family="Helvetica,sans-Serif" font-size="10.00">Plant.cpp</text>
</a>
</g>
</g>
<!-- Node1&#45;&gt;Node3 -->
<g id="edge2" class="edge">
<title>Node1&#45;&gt;Node3</title>
<path fill="none" stroke="midnightblue" d="M206.92,-51.59C188.24,-41.61 163.3,-28.27 147.19,-19.65"/>
<polygon fill="midnightblue" stroke="midnightblue" points="205.3,-54.7 215.77,-56.32 208.6,-48.52 205.3,-54.7"/>
</g>
<!-- Node4 -->
<g id="node4" class="node">
<title>Node4</title>
<g id="a_node4"><a xlink:href="PlantInstance_8cpp.html" target="_top" xlink:title="Implements the PlantInstance behaviour defined in the corresponding header.">
<polygon fill="none" stroke="black" points="180.5,-0.5 180.5,-19.5 283.5,-19.5 283.5,-0.5 180.5,-0.5"/>
<text text-anchor="middle" x="232" y="-7.5" font-family="Helvetica,sans-Serif" font-size="10.00">PlantInstance.cpp</text>
</a>
</g>
</g>
<!-- Node1&#45;&gt;Node4 -->
<g id="edge3" class="edge">
<title>Node1&#45;&gt;Node4</title>
<path fill="none" stroke="midnightblue" d="M232,-45.8C232,-36.91 232,-26.78 232,-19.75"/>
<polygon fill="midnightblue" stroke="midnightblue" points="228.5,-46.08 232,-56.08 235.5,-46.08 228.5,-46.08"/>
</g>
<!-- Node5 -->
<g id="node5" class="node">
<title>Node5</title>
<g id="a_node5"><a xlink:href="PlantPrototypeRegistry_8cpp.html" target="_top" xlink:title="Implements the PlantPrototypeRegistry behaviour defined in the corresponding header.">
<polygon fill="none" stroke="black" points="302,-0.5 302,-19.5 450,-19.5 450,-0.5 302,-0.5"/>
<text text-anchor="middle" x="376" y="-7.5" font-family="Helvetica,sans-Serif" font-size="10.00">PlantPrototypeRegistry.cpp</text>
</a>
</g>
</g>
<!-- Node1&#45;&gt;Node5 -->
<g id="edge4" class="edge">
<title>Node1&#45;&gt;Node5</title>
<path fill="none" stroke="midnightblue" d="M264.25,-52.91C291.32,-42.75 329.32,-28.51 353.29,-19.52"/>
<polygon fill="midnightblue" stroke="midnightblue" points="262.95,-49.66 254.82,-56.44 265.41,-56.21 262.95,-49.66"/>
</g>
<!-- Node6 -->
<g id="node6" class="node">
<title>Node6</title>
<g id="a_node6"><a xlink:href="SalesFacade_8cpp.html" target="_top" xlink:title="Implements the SalesFacade behaviour defined in the corresponding header.">
<polygon fill="none" stroke="black" points="468.5,-0.5 468.5,-19.5 565.5,-19.5 565.5,-0.5 468.5,-0.5"/>
<text text-anchor="middle" x="517" y="-7.5" font-family="Helvetica,sans-Serif" font-size="10.00">SalesFacade.cpp</text>
</a>
</g>
</g>
<!-- Node1&#45;&gt;Node6 -->
<g id="edge5" class="edge">
<title>Node1&#45;&gt;Node6</title>
<path fill="none" stroke="midnightblue" d="M267.32,-58.31C319.05,-48.51 415.41,-30.25 472.1,-19.51"/>
<polygon fill="midnightblue" stroke="midnightblue" points="266.47,-54.91 257.29,-60.21 267.77,-61.78 266.47,-54.91"/>
</g>
</g>
</svg>
