<?xml version="1.0" encoding="UTF-8" standalone="no"?>
<!DOCTYPE svg PUBLIC "-//W3C//DTD SVG 1.1//EN"
 "http://www.w3.org/Graphics/SVG/1.1/DTD/svg11.dtd">
<!-- Generated by graphviz version 2.43.0 (0)
 -->
<!-- Title: PlantInstance.h Pages: 1 -->
<svg width="377pt" height="196pt"
 viewBox="0.00 0.00 377.26 196.00" xmlns="http://www.w3.org/2000/svg" xmlns:xlink="http://www.w3.org/1999/xlink">
<g id="graph0" class="graph" transform="scale(1 1) rotate(0) translate(4 192)">
<title>PlantInstance.h</title>
<!-- Node1 -->
<g id="node1" class="node">
<title>Node1</title>
<g id="a_node1"><a xlink:title="Represents a single, physical plant in the nursery.">
<polygon fill="#bfbfbf" stroke="black" points="135.76,-168.5 135.76,-187.5 227.76,-187.5 227.76,-168.5 135.76,-168.5"/>
<text text-anchor="middle" x="181.76" y="-175.5" font-family="Helvetica,sans-Serif" font-size="10.00">PlantInstance.h</text>
</a>
</g>
</g>
<!-- Node2 -->
<g id="node2" class="node">
<title>Node2</title>
<g id="a_node2"><a xlink:href="GreenhouseComponent_8h.html" target="_top" xlink:title="The abstract &#39;Component&#39; interface for the Composite pattern.">
<polygon fill="none" stroke="black" points="13.76,-112.5 13.76,-131.5 153.76,-131.5 153.76,-112.5 13.76,-112.5"/>
<text text-anchor="middle" x="83.76" y="-119.5" font-family="Helvetica,sans-Serif" font-size="10.00">GreenhouseComponent.h</text>
</a>
</g>
</g>
<!-- Node1&#45;&gt;Node2 -->
<g id="edge1" class="edge">
<title>Node1&#45;&gt;Node2</title>
<path fill="none" stroke="midnightblue" d="M166.02,-168.32C150.44,-159.74 126.39,-146.49 108.3,-136.52"/>
<polygon fill="midnightblue" stroke="midnightblue" points="109.92,-133.42 99.47,-131.65 106.54,-139.55 109.92,-133.42"/>
</g>
<!-- Node3 -->
<g id="node3" class="node">
<title>Node3</title>
<g id="a_node3"><a xlink:title=" ">
<polygon fill="none" stroke="#bfbfbf" points="5.76,-56.5 5.76,-75.5 63.76,-75.5 63.76,-56.5 5.76,-56.5"/>
<text text-anchor="middle" x="34.76" y="-63.5" font-family="Helvetica,sans-Serif" font-size="10.00">memory</text>
</a>
</g>
</g>
<!-- Node1&#45;&gt;Node3 -->
<g id="edge11" class="edge">
<title>Node1&#45;&gt;Node3</title>
<path fill="none" stroke="midnightblue" d="M135.37,-171.63C88.46,-165.14 20.67,-152.46 4.76,-132 -6.84,-117.07 5.94,-96.93 18.22,-83.04"/>
<polygon fill="midnightblue" stroke="midnightblue" points="20.87,-85.34 25.21,-75.68 15.79,-80.52 20.87,-85.34"/>
</g>
<!-- Node4 -->
<g id="node4" class="node">
<title>Node4</title>
<g id="a_node4"><a xlink:title=" ">
<polygon fill="none" stroke="#bfbfbf" points="178.76,-0.5 178.76,-19.5 222.76,-19.5 222.76,-0.5 178.76,-0.5"/>
<text text-anchor="middle" x="200.76" y="-7.5" font-family="Helvetica,sans-Serif" font-size="10.00">string</text>
</a>
</g>
</g>
<!-- Node1&#45;&gt;Node4 -->
<g id="edge12" class="edge">
<title>Node1&#45;&gt;Node4</title>
<path fill="none" stroke="midnightblue" d="M182.78,-168.08C185.77,-141.95 194.56,-65.21 198.64,-29.58"/>
<polygon fill="midnightblue" stroke="midnightblue" points="202.12,-29.9 199.78,-19.57 195.17,-29.11 202.12,-29.9"/>
</g>
<!-- Node5 -->
<g id="node5" class="node">
<title>Node5</title>
<g id="a_node5"><a xlink:href="PlantState_8h.html" target="_top" xlink:title="Abstract base class describing the lifecycle state of a plant.">
<polygon fill="none" stroke="black" points="209.76,-112.5 209.76,-131.5 285.76,-131.5 285.76,-112.5 209.76,-112.5"/>
<text text-anchor="middle" x="247.76" y="-119.5" font-family="Helvetica,sans-Serif" font-size="10.00">PlantState.h</text>
</a>
</g>
</g>
<!-- Node1&#45;&gt;Node5 -->
<g id="edge4" class="edge">
<title>Node1&#45;&gt;Node5</title>
<path fill="none" stroke="midnightblue" d="M192.37,-168.32C202.22,-160.26 217.11,-148.08 228.98,-138.37"/>
<polygon fill="midnightblue" stroke="midnightblue" points="231.44,-140.88 236.97,-131.83 227.01,-135.46 231.44,-140.88"/>
</g>
<!-- Node6 -->
<g id="node6" class="node">
<title>Node6</title>
<g id="a_node6"><a xlink:href="Subject_8h.html" target="_top" xlink:title="Declares the Subject base that manages observer subscriptions.">
<polygon fill="none" stroke="black" points="303.76,-112.5 303.76,-131.5 365.76,-131.5 365.76,-112.5 303.76,-112.5"/>
<text text-anchor="middle" x="334.76" y="-119.5" font-family="Helvetica,sans-Serif" font-size="10.00">Subject.h</text>
</a>
</g>
</g>
<!-- Node1&#45;&gt;Node6 -->
<g id="edge6" class="edge">
<title>Node1&#45;&gt;Node6</title>
<path fill="none" stroke="midnightblue" d="M206.01,-168.44C231.63,-159.4 272.25,-145.06 301,-134.92"/>
<polygon fill="midnightblue" stroke="midnightblue" points="302.37,-138.15 310.63,-131.52 300.04,-131.54 302.37,-138.15"/>
</g>
<!-- Node2&#45;&gt;Node3 -->
<g id="edge2" class="edge">
<title>Node2&#45;&gt;Node3</title>
<path fill="none" stroke="midnightblue" d="M75.67,-112.08C68.61,-104.3 58.17,-92.8 49.61,-83.37"/>
<polygon fill="midnightblue" stroke="midnightblue" points="52.02,-80.8 42.7,-75.75 46.83,-85.51 52.02,-80.8"/>
</g>
<!-- Node2&#45;&gt;Node4 -->
<g id="edge3" class="edge">
<title>Node2&#45;&gt;Node4</title>
<path fill="none" stroke="midnightblue" d="M92.94,-112.37C112.59,-93.89 158.97,-50.29 184.02,-26.74"/>
<polygon fill="midnightblue" stroke="midnightblue" points="186.74,-28.99 191.62,-19.59 181.94,-23.89 186.74,-28.99"/>
</g>
<!-- Node5&#45;&gt;Node4 -->
<g id="edge5" class="edge">
<title>Node5&#45;&gt;Node4</title>
<path fill="none" stroke="midnightblue" d="M244.07,-112.37C236.42,-94.46 218.68,-52.92 208.43,-28.95"/>
<polygon fill="midnightblue" stroke="midnightblue" points="211.58,-27.41 204.43,-19.59 205.14,-30.16 211.58,-27.41"/>
</g>
<!-- Node7 -->
<g id="node7" class="node">
<title>Node7</title>
<g id="a_node7"><a xlink:title=" ">
<polygon fill="none" stroke="#bfbfbf" points="249.76,-56.5 249.76,-75.5 281.76,-75.5 281.76,-56.5 249.76,-56.5"/>
<text text-anchor="middle" x="265.76" y="-63.5" font-family="Helvetica,sans-Serif" font-size="10.00">list</text>
</a>
</g>
</g>
<!-- Node6&#45;&gt;Node7 -->
<g id="edge7" class="edge">
<title>Node6&#45;&gt;Node7</title>
<path fill="none" stroke="midnightblue" d="M323.68,-112.32C313.28,-104.18 297.5,-91.84 285.04,-82.09"/>
<polygon fill="midnightblue" stroke="midnightblue" points="287.08,-79.24 277.05,-75.83 282.77,-84.75 287.08,-79.24"/>
</g>
<!-- Node8 -->
<g id="node8" class="node">
<title>Node8</title>
<g id="a_node8"><a xlink:href="Observer_8h.html" target="_top" xlink:title="Declares the Observer contract and shared event payload.">
<polygon fill="none" stroke="black" points="300.26,-56.5 300.26,-75.5 369.26,-75.5 369.26,-56.5 300.26,-56.5"/>
<text text-anchor="middle" x="334.76" y="-63.5" font-family="Helvetica,sans-Serif" font-size="10.00">Observer.h</text>
</a>
</g>
</g>
<!-- Node6&#45;&gt;Node8 -->
<g id="edge8" class="edge">
<title>Node6&#45;&gt;Node8</title>
<path fill="none" stroke="midnightblue" d="M334.76,-112.08C334.76,-105.01 334.76,-94.86 334.76,-85.99"/>
<polygon fill="midnightblue" stroke="midnightblue" points="338.26,-85.75 334.76,-75.75 331.26,-85.75 338.26,-85.75"/>
</g>
<!-- Node8&#45;&gt;Node4 -->
<g id="edge10" class="edge">
<title>Node8&#45;&gt;Node4</title>
<path fill="none" stroke="midnightblue" d="M313.53,-56.44C291.38,-47.52 256.44,-33.44 231.33,-23.32"/>
<polygon fill="midnightblue" stroke="midnightblue" points="232.48,-20.01 221.9,-19.52 229.86,-26.5 232.48,-20.01"/>
</g>
<!-- Node9 -->
<g id="node9" class="node">
<title>Node9</title>
<g id="a_node9"><a xlink:title=" ">
<polygon fill="none" stroke="#bfbfbf" points="306.76,-0.5 306.76,-19.5 362.76,-19.5 362.76,-0.5 306.76,-0.5"/>
<text text-anchor="middle" x="334.76" y="-7.5" font-family="Helvetica,sans-Serif" font-size="10.00">optional</text>
</a>
</g>
</g>
<!-- Node8&#45;&gt;Node9 -->
<g id="edge9" class="edge">
<title>Node8&#45;&gt;Node9</title>
<path fill="none" stroke="midnightblue" d="M334.76,-56.08C334.76,-49.01 334.76,-38.86 334.76,-29.99"/>
<polygon fill="midnightblue" stroke="midnightblue" points="338.26,-29.75 334.76,-19.75 331.26,-29.75 338.26,-29.75"/>
</g>
</g>
</svg>
