<?xml version="1.0" encoding="UTF-8" standalone="no"?>
<!DOCTYPE svg PUBLIC "-//W3C//DTD SVG 1.1//EN"
 "http://www.w3.org/Graphics/SVG/1.1/DTD/svg11.dtd">
<!-- Generated by graphviz version 2.43.0 (0)
 -->
<!-- Title: SalesFacade.cpp Pages: 1 -->
<!--zoomable 263 -->
<svg id="main" version="1.1" xmlns="http://www.w3.org/2000/svg" xmlns:xlink="http://www.w3.org/1999/xlink" xml:space="preserve" onload="init(evt)">
<style type="text/css"><![CDATA[
.edge:hover path { stroke: red; }
.edge:hover polygon { stroke: red; fill: red; }
]]></style>
<script type="text/javascript"><![CDATA[
var edges = document.getElementsByTagName('g');
if (edges && edges.length) {
  for (var i=0;i<edges.length;i++) {
    if (edges[i].id.substr(0,4)=='edge') {
      edges[i].setAttribute('class','edge');
    }
  }
}
]]></script>
        <defs>
                <circle id="rim" cx="0" cy="0" r="7"/>
                <circle id="rim2" cx="0" cy="0" r="3.5"/>
                <g id="zoomPlus">
                        <use xlink:href="#rim" fill="#404040">
                                <set attributeName="fill" to="#808080" begin="zoomplus.mouseover" end="zoomplus.mouseout"/>
                        </use>
                        <path d="M-4,0h8M0,-4v8" fill="none" stroke="white" stroke-width="1.5" pointer-events="none"/>
                </g>
                <g id="zoomMin">
                        <use xlink:href="#rim" fill="#404040">
                                <set attributeName="fill" to="#808080" begin="zoomminus.mouseover" end="zoomminus.mouseout"/>
                        </use>
                        <path d="M-4,0h8" fill="none" stroke="white" stroke-width="1.5" pointer-events="none"/>
                </g>
                <g id="dirArrow">
                        <path fill="none" stroke="white" stroke-width="1.5" d="M0,-3.0v7 M-2.5,-0.5L0,-3.0L2.5,-0.5"/>
                </g>
               <g id="resetDef">
                       <use xlink:href="#rim2" fill="#404040">
                               <set attributeName="fill" to="#808080" begin="reset.mouseover" end="reset.mouseout"/>
                       </use>
               </g>
        </defs>

<script type="text/javascript">
var viewWidth = 2726;
var viewHeight = 263;
var sectionId = 'dynsection-0';
</script>
<script xlink:href="svgpan.js"/>
<svg id="graph" class="graph">
<g id="viewport">
<title>SalesFacade.cpp</title>
<!-- Node1 -->
<g id="node1" class="node">
<title>Node1</title>
<g id="a_node1"><a xlink:title="Implements the SalesFacade behaviour defined in the corresponding header.">
<polygon fill="#bfbfbf" stroke="black" points="1264,-235.5 1264,-254.5 1361,-254.5 1361,-235.5 1264,-235.5"/>
<text text-anchor="middle" x="1312.5" y="-242.5" font-family="Helvetica,sans-Serif" font-size="10.00">SalesFacade.cpp</text>
</a>
</g>
</g>
<!-- Node2 -->
<g id="node2" class="node">
<title>Node2</title>
<g id="a_node2"><a xlink:href="SalesFacade_8h.html" target="_top" xlink:title="The &#39;Facade&#39; class.">
<polygon fill="none" stroke="black" points="524,-179.5 524,-198.5 657,-198.5 657,-179.5 524,-179.5"/>
<text text-anchor="middle" x="590.5" y="-186.5" font-family="Helvetica,sans-Serif" font-size="10.00">../include/SalesFacade.h</text>
</a>
</g>
</g>
<!-- Node1&#45;&gt;Node2 -->
<g id="edge1" class="edge">
<title>Node1&#45;&gt;Node2</title>
<path fill="none" stroke="midnightblue" d="M1263.72,-240.35C1140.48,-231.13 815.8,-206.85 666.99,-195.72"/>
<polygon fill="midnightblue" stroke="midnightblue" points="667.25,-192.23 657.01,-194.97 666.72,-199.21 667.25,-192.23"/>
</g>
<!-- Node3 -->
<g id="node3" class="node">
<title>Node3</title>
<g id="a_node3"><a xlink:title=" ">
<polygon fill="none" stroke="#bfbfbf" points="663.5,-0.5 663.5,-19.5 707.5,-19.5 707.5,-0.5 663.5,-0.5"/>
<text text-anchor="middle" x="685.5" y="-7.5" font-family="Helvetica,sans-Serif" font-size="10.00">string</text>
</a>
</g>
</g>
<!-- Node1&#45;&gt;Node3 -->
<g id="edge62" class="edge">
<title>Node1&#45;&gt;Node3</title>
<path fill="none" stroke="midnightblue" d="M1312.2,-235.38C1312.22,-221.37 1314.45,-193.73 1330.5,-179 1394.79,-120 1467.74,-210.12 1523.5,-143 1555.48,-104.5 1476.86,-57.15 1474.5,-56 1405.72,-22.39 857.17,-13.18 717.68,-11.37"/>
<polygon fill="midnightblue" stroke="midnightblue" points="717.67,-7.87 707.62,-11.25 717.58,-14.87 717.67,-7.87"/>
</g>
<!-- Node6 -->
<g id="node6" class="node">
<title>Node6</title>
<g id="a_node6"><a xlink:href="Inventory_8h.html" target="_top" xlink:title="The &#39;ConcreteAggregate&#39; class.">
<polygon fill="none" stroke="black" points="740.5,-179.5 740.5,-198.5 858.5,-198.5 858.5,-179.5 740.5,-179.5"/>
<text text-anchor="middle" x="799.5" y="-186.5" font-family="Helvetica,sans-Serif" font-size="10.00">../include/Inventory.h</text>
</a>
</g>
</g>
<!-- Node1&#45;&gt;Node6 -->
<g id="edge5" class="edge">
<title>Node1&#45;&gt;Node6</title>
<path fill="none" stroke="midnightblue" d="M1263.78,-238.87C1172.28,-229.24 974.52,-208.42 869.05,-197.32"/>
<polygon fill="midnightblue" stroke="midnightblue" points="869.14,-193.81 858.83,-196.25 868.41,-200.77 869.14,-193.81"/>
</g>
<!-- Node8 -->
<g id="node8" class="node">
<title>Node8</title>
<g id="a_node8"><a xlink:title=" ">
<polygon fill="none" stroke="#bfbfbf" points="1150.5,-56.5 1150.5,-75.5 1208.5,-75.5 1208.5,-56.5 1150.5,-56.5"/>
<text text-anchor="middle" x="1179.5" y="-63.5" font-family="Helvetica,sans-Serif" font-size="10.00">memory</text>
</a>
</g>
</g>
<!-- Node1&#45;&gt;Node8 -->
<g id="edge61" class="edge">
<title>Node1&#45;&gt;Node8</title>
<path fill="none" stroke="midnightblue" d="M1299.05,-235.44C1286.6,-227.1 1268.01,-213.58 1254.5,-199 1221.92,-163.84 1197.78,-112.02 1186.53,-84.96"/>
<polygon fill="midnightblue" stroke="midnightblue" points="1189.73,-83.54 1182.74,-75.58 1183.24,-86.16 1189.73,-83.54"/>
</g>
<!-- Node10 -->
<g id="node10" class="node">
<title>Node10</title>
<g id="a_node10"><a xlink:href="PaymentProcessor_8h.html" target="_top" xlink:title="A complex subsystem class used by the Facade.">
<polygon fill="none" stroke="black" points="87.5,-56.5 87.5,-75.5 249.5,-75.5 249.5,-56.5 87.5,-56.5"/>
<text text-anchor="middle" x="168.5" y="-63.5" font-family="Helvetica,sans-Serif" font-size="10.00">../include/PaymentProcessor.h</text>
</a>
</g>
</g>
<!-- Node1&#45;&gt;Node10 -->
<g id="edge12" class="edge">
<title>Node1&#45;&gt;Node10</title>
<path fill="none" stroke="midnightblue" d="M1263.88,-244.27C1067.17,-245.05 336.36,-244.81 244.5,-199 200.24,-176.93 180.09,-116.65 172.44,-85.77"/>
<polygon fill="midnightblue" stroke="midnightblue" points="175.81,-84.82 170.17,-75.85 168.99,-86.38 175.81,-84.82"/>
</g>
<!-- Node11 -->
<g id="node11" class="node">
<title>Node11</title>
<g id="a_node11"><a xlink:href="OrderBuilder_8h.html" target="_top" xlink:title="The abstract &#39;Builder&#39; interface.">
<polygon fill="none" stroke="black" points="1226.5,-118 1226.5,-137 1360.5,-137 1360.5,-118 1226.5,-118"/>
<text text-anchor="middle" x="1293.5" y="-125" font-family="Helvetica,sans-Serif" font-size="10.00">../include/OrderBuilder.h</text>
</a>
</g>
</g>
<!-- Node1&#45;&gt;Node11 -->
<g id="edge14" class="edge">
<title>Node1&#45;&gt;Node11</title>
<path fill="none" stroke="midnightblue" d="M1296.72,-235.47C1284.3,-227.77 1267.89,-215.18 1260.5,-199 1251.95,-180.3 1265.22,-158.93 1277.39,-144.66"/>
<polygon fill="midnightblue" stroke="midnightblue" points="1280.09,-146.9 1284.26,-137.16 1274.93,-142.17 1280.09,-146.9"/>
</g>
<!-- Node12 -->
<g id="node12" class="node">
<title>Node12</title>
<g id="a_node12"><a xlink:href="Order_8h.html" target="_top" xlink:title="The complex &#39;Product&#39; of the Builder pattern.">
<polygon fill="none" stroke="black" points="270,-179.5 270,-198.5 369,-198.5 369,-179.5 270,-179.5"/>
<text text-anchor="middle" x="319.5" y="-186.5" font-family="Helvetica,sans-Serif" font-size="10.00">../include/Order.h</text>
</a>
</g>
</g>
<!-- Node1&#45;&gt;Node12 -->
<g id="edge17" class="edge">
<title>Node1&#45;&gt;Node12</title>
<path fill="none" stroke="midnightblue" d="M1263.7,-243.47C1126.13,-241.59 723.39,-233.41 379.29,-199.08"/>
<polygon fill="midnightblue" stroke="midnightblue" points="379.43,-195.57 369.13,-198.05 378.73,-202.54 379.43,-195.57"/>
</g>
<!-- Node13 -->
<g id="node13" class="node">
<title>Node13</title>
<g id="a_node13"><a xlink:href="StockItem_8h.html" target="_top" xlink:title="Represents an inventory entry and observes plant availability.">
<polygon fill="none" stroke="black" points="208,-118 208,-137 283,-137 283,-118 208,-118"/>
<text text-anchor="middle" x="245.5" y="-125" font-family="Helvetica,sans-Serif" font-size="10.00">StockItem.h</text>
</a>
</g>
</g>
<!-- Node1&#45;&gt;Node13 -->
<g id="edge25" class="edge">
<title>Node1&#45;&gt;Node13</title>
<path fill="none" stroke="midnightblue" d="M1263.81,-243.56C1061.91,-241.54 299.24,-231.76 260.5,-199 245.75,-186.53 243.33,-163.46 243.74,-147.11"/>
<polygon fill="midnightblue" stroke="midnightblue" points="247.24,-147.28 244.36,-137.08 240.25,-146.85 247.24,-147.28"/>
</g>
<!-- Node16 -->
<g id="node16" class="node">
<title>Node16</title>
<g id="a_node16"><a xlink:href="Customer_8h.html" target="_top" xlink:title="The &#39;ConcreteColleague&#39; for Customers.">
<polygon fill="none" stroke="black" points="387,-179.5 387,-198.5 506,-198.5 506,-179.5 387,-179.5"/>
<text text-anchor="middle" x="446.5" y="-186.5" font-family="Helvetica,sans-Serif" font-size="10.00">../include/Customer.h</text>
</a>
</g>
</g>
<!-- Node1&#45;&gt;Node16 -->
<g id="edge26" class="edge">
<title>Node1&#45;&gt;Node16</title>
<path fill="none" stroke="midnightblue" d="M1263.83,-242.53C1140.52,-238.54 805.68,-225.99 516.44,-199.12"/>
<polygon fill="midnightblue" stroke="midnightblue" points="516.46,-195.6 506.18,-198.16 515.81,-202.57 516.46,-195.6"/>
</g>
<!-- Node18 -->
<g id="node18" class="node">
<title>Node18</title>
<g id="a_node18"><a xlink:href="GreenhouseBed_8h.html" target="_top" xlink:title="The &#39;Composite&#39; class.">
<polygon fill="none" stroke="black" points="949.5,-179.5 949.5,-198.5 1099.5,-198.5 1099.5,-179.5 949.5,-179.5"/>
<text text-anchor="middle" x="1024.5" y="-186.5" font-family="Helvetica,sans-Serif" font-size="10.00">../include/GreenhouseBed.h</text>
</a>
</g>
</g>
<!-- Node1&#45;&gt;Node18 -->
<g id="edge31" class="edge">
<title>Node1&#45;&gt;Node18</title>
<path fill="none" stroke="midnightblue" d="M1266.87,-235.44C1216.2,-225.94 1134.43,-210.61 1080.07,-200.42"/>
<polygon fill="midnightblue" stroke="midnightblue" points="1080.39,-196.92 1069.92,-198.52 1079.1,-203.8 1080.39,-196.92"/>
</g>
<!-- Node20 -->
<g id="node20" class="node">
<title>Node20</title>
<g id="a_node20"><a xlink:href="PlantPrototypeRegistry_8h.html" target="_top" xlink:title="Manages a set of clonable plant prototypes.">
<polygon fill="none" stroke="black" points="1378.5,-112.5 1378.5,-142.5 1514.5,-142.5 1514.5,-112.5 1378.5,-112.5"/>
<text text-anchor="start" x="1386.5" y="-130.5" font-family="Helvetica,sans-Serif" font-size="10.00">../include/PlantPrototype</text>
<text text-anchor="middle" x="1446.5" y="-119.5" font-family="Helvetica,sans-Serif" font-size="10.00">Registry.h</text>
</a>
</g>
</g>
<!-- Node1&#45;&gt;Node20 -->
<g id="edge38" class="edge">
<title>Node1&#45;&gt;Node20</title>
<path fill="none" stroke="midnightblue" d="M1306.6,-235.13C1298.51,-221.73 1286.28,-196.09 1298.5,-179 1307.88,-165.89 1340.39,-154.08 1372.55,-145.18"/>
<polygon fill="midnightblue" stroke="midnightblue" points="1373.75,-148.49 1382.5,-142.52 1371.94,-141.73 1373.75,-148.49"/>
</g>
<!-- Node22 -->
<g id="node22" class="node">
<title>Node22</title>
<g id="a_node22"><a xlink:href="Plant_8h.html" target="_top" xlink:title="Abstract &#39;Prototype&#39; interface for all plant types.">
<polygon fill="none" stroke="black" points="1863.5,-179.5 1863.5,-198.5 1961.5,-198.5 1961.5,-179.5 1863.5,-179.5"/>
<text text-anchor="middle" x="1912.5" y="-186.5" font-family="Helvetica,sans-Serif" font-size="10.00">../include/Plant.h</text>
</a>
</g>
</g>
<!-- Node1&#45;&gt;Node22 -->
<g id="edge42" class="edge">
<title>Node1&#45;&gt;Node22</title>
<path fill="none" stroke="midnightblue" d="M1361.11,-241.08C1454.31,-235.23 1664.81,-220.84 1853.19,-198.95"/>
<polygon fill="midnightblue" stroke="midnightblue" points="1853.75,-202.41 1863.28,-197.77 1852.94,-195.45 1853.75,-202.41"/>
</g>
<!-- Node25 -->
<g id="node25" class="node">
<title>Node25</title>
<g id="a_node25"><a xlink:href="FrequentWatering_8h.html" target="_top" xlink:title="Concrete strategy for frequent watering.">
<polygon fill="none" stroke="black" points="1340,-179.5 1340,-198.5 1499,-198.5 1499,-179.5 1340,-179.5"/>
<text text-anchor="middle" x="1419.5" y="-186.5" font-family="Helvetica,sans-Serif" font-size="10.00">../include/FrequentWatering.h</text>
</a>
</g>
</g>
<!-- Node1&#45;&gt;Node25 -->
<g id="edge46" class="edge">
<title>Node1&#45;&gt;Node25</title>
<path fill="none" stroke="midnightblue" d="M1329.69,-235.32C1346.85,-226.66 1373.45,-213.24 1393.25,-203.25"/>
<polygon fill="midnightblue" stroke="midnightblue" points="1395,-206.28 1402.35,-198.65 1391.85,-200.04 1395,-206.28"/>
</g>
<!-- Node26 -->
<g id="node26" class="node">
<title>Node26</title>
<g id="a_node26"><a xlink:href="SparseWatering_8h.html" target="_top" xlink:title="Concrete strategy for sparse watering.">
<polygon fill="none" stroke="black" points="1517,-179.5 1517,-198.5 1666,-198.5 1666,-179.5 1517,-179.5"/>
<text text-anchor="middle" x="1591.5" y="-186.5" font-family="Helvetica,sans-Serif" font-size="10.00">../include/SparseWatering.h</text>
</a>
</g>
</g>
<!-- Node1&#45;&gt;Node26 -->
<g id="edge48" class="edge">
<title>Node1&#45;&gt;Node26</title>
<path fill="none" stroke="midnightblue" d="M1356.71,-235.44C1405.79,-225.94 1485.01,-210.61 1537.66,-200.42"/>
<polygon fill="midnightblue" stroke="midnightblue" points="1538.35,-203.85 1547.5,-198.52 1537.02,-196.98 1538.35,-203.85"/>
</g>
<!-- Node27 -->
<g id="node27" class="node">
<title>Node27</title>
<g id="a_node27"><a xlink:href="SeasonalWatering_8h.html" target="_top" xlink:title="Concrete strategy for seasonal watering.">
<polygon fill="none" stroke="black" points="1684,-179.5 1684,-198.5 1845,-198.5 1845,-179.5 1684,-179.5"/>
<text text-anchor="middle" x="1764.5" y="-186.5" font-family="Helvetica,sans-Serif" font-size="10.00">../include/SeasonalWatering.h</text>
</a>
</g>
</g>
<!-- Node1&#45;&gt;Node27 -->
<g id="edge50" class="edge">
<title>Node1&#45;&gt;Node27</title>
<path fill="none" stroke="midnightblue" d="M1361.3,-238.17C1438.5,-228.95 1589.62,-210.89 1683.33,-199.7"/>
<polygon fill="midnightblue" stroke="midnightblue" points="1683.83,-203.16 1693.34,-198.5 1683,-196.21 1683.83,-203.16"/>
</g>
<!-- Node28 -->
<g id="node28" class="node">
<title>Node28</title>
<g id="a_node28"><a xlink:href="OrganicFertilizer_8h.html" target="_top" xlink:title="Concrete strategy for organic fertilizing.">
<polygon fill="none" stroke="black" points="1979.5,-179.5 1979.5,-198.5 2131.5,-198.5 2131.5,-179.5 1979.5,-179.5"/>
<text text-anchor="middle" x="2055.5" y="-186.5" font-family="Helvetica,sans-Serif" font-size="10.00">../include/OrganicFertilizer.h</text>
</a>
</g>
</g>
<!-- Node1&#45;&gt;Node28 -->
<g id="edge52" class="edge">
<title>Node1&#45;&gt;Node28</title>
<path fill="none" stroke="midnightblue" d="M1361.25,-241.29C1468.9,-235.17 1735.24,-219.28 1969.01,-199.1"/>
<polygon fill="midnightblue" stroke="midnightblue" points="1969.4,-202.58 1979.06,-198.23 1968.79,-195.61 1969.4,-202.58"/>
</g>
<!-- Node29 -->
<g id="node29" class="node">
<title>Node29</title>
<g id="a_node29"><a xlink:href="LiquidFertilizer_8h.html" target="_top" xlink:title="Concrete strategy for liquid fertilizing.">
<polygon fill="none" stroke="black" points="2149.5,-179.5 2149.5,-198.5 2293.5,-198.5 2293.5,-179.5 2149.5,-179.5"/>
<text text-anchor="middle" x="2221.5" y="-186.5" font-family="Helvetica,sans-Serif" font-size="10.00">../include/LiquidFertilizer.h</text>
</a>
</g>
</g>
<!-- Node1&#45;&gt;Node29 -->
<g id="edge54" class="edge">
<title>Node1&#45;&gt;Node29</title>
<path fill="none" stroke="midnightblue" d="M1361.1,-242.32C1487.47,-237.73 1836.98,-223.75 2138.83,-199.09"/>
<polygon fill="midnightblue" stroke="midnightblue" points="2139.42,-202.56 2149.1,-198.25 2138.84,-195.58 2139.42,-202.56"/>
</g>
<!-- Node30 -->
<g id="node30" class="node">
<title>Node30</title>
<g id="a_node30"><a xlink:href="SlowReleaseFertilizer_8h.html" target="_top" xlink:title="Concrete strategy for slow&#45;release fertilizing.">
<polygon fill="none" stroke="black" points="2312,-179.5 2312,-198.5 2489,-198.5 2489,-179.5 2312,-179.5"/>
<text text-anchor="middle" x="2400.5" y="-186.5" font-family="Helvetica,sans-Serif" font-size="10.00">../include/SlowReleaseFertilizer.h</text>
</a>
</g>
</g>
<!-- Node1&#45;&gt;Node30 -->
<g id="edge56" class="edge">
<title>Node1&#45;&gt;Node30</title>
<path fill="none" stroke="midnightblue" d="M1361.22,-242.58C1503.92,-238.26 1933.54,-224.04 2301.79,-199.01"/>
<polygon fill="midnightblue" stroke="midnightblue" points="2302.1,-202.5 2311.84,-198.33 2301.63,-195.52 2302.1,-202.5"/>
</g>
<!-- Node31 -->
<g id="node31" class="node">
<title>Node31</title>
<g id="a_node31"><a xlink:title=" ">
<polygon fill="none" stroke="#bfbfbf" points="2507.5,-179.5 2507.5,-198.5 2571.5,-198.5 2571.5,-179.5 2507.5,-179.5"/>
<text text-anchor="middle" x="2539.5" y="-186.5" font-family="Helvetica,sans-Serif" font-size="10.00">algorithm</text>
</a>
</g>
</g>
<!-- Node1&#45;&gt;Node31 -->
<g id="edge58" class="edge">
<title>Node1&#45;&gt;Node31</title>
<path fill="none" stroke="midnightblue" d="M1361.26,-243.31C1552.57,-240.42 2252.81,-228.15 2497.12,-198.89"/>
<polygon fill="midnightblue" stroke="midnightblue" points="2497.87,-202.33 2507.37,-197.62 2497.01,-195.38 2497.87,-202.33"/>
</g>
<!-- Node32 -->
<g id="node32" class="node">
<title>Node32</title>
<g id="a_node32"><a xlink:title=" ">
<polygon fill="none" stroke="#bfbfbf" points="2590,-179.5 2590,-198.5 2639,-198.5 2639,-179.5 2590,-179.5"/>
<text text-anchor="middle" x="2614.5" y="-186.5" font-family="Helvetica,sans-Serif" font-size="10.00">cctype</text>
</a>
</g>
</g>
<!-- Node1&#45;&gt;Node32 -->
<g id="edge59" class="edge">
<title>Node1&#45;&gt;Node32</title>
<path fill="none" stroke="midnightblue" d="M1361.2,-243.72C1560.91,-242.37 2318.43,-235.02 2579.55,-198.71"/>
<polygon fill="midnightblue" stroke="midnightblue" points="2580.35,-202.13 2589.75,-197.23 2579.35,-195.2 2580.35,-202.13"/>
</g>
<!-- Node33 -->
<g id="node33" class="node">
<title>Node33</title>
<g id="a_node33"><a xlink:title=" ">
<polygon fill="none" stroke="#bfbfbf" points="2657.5,-179.5 2657.5,-198.5 2717.5,-198.5 2717.5,-179.5 2657.5,-179.5"/>
<text text-anchor="middle" x="2687.5" y="-186.5" font-family="Helvetica,sans-Serif" font-size="10.00">iostream</text>
</a>
</g>
</g>
<!-- Node1&#45;&gt;Node33 -->
<g id="edge60" class="edge">
<title>Node1&#45;&gt;Node33</title>
<path fill="none" stroke="midnightblue" d="M1361.29,-243.62C1567.88,-241.81 2372.24,-232.79 2647.41,-198.83"/>
<polygon fill="midnightblue" stroke="midnightblue" points="2647.89,-202.3 2657.37,-197.56 2647.01,-195.35 2647.89,-202.3"/>
</g>
<!-- Node2&#45;&gt;Node3 -->
<g id="edge2" class="edge">
<title>Node2&#45;&gt;Node3</title>
<path fill="none" stroke="midnightblue" d="M533.76,-179.41C484.32,-169.3 424.06,-148.97 448.5,-112 494.62,-42.21 599.85,-20.49 653.21,-13.85"/>
<polygon fill="midnightblue" stroke="midnightblue" points="653.61,-17.32 663.15,-12.71 652.82,-10.37 653.61,-17.32"/>
</g>
<!-- Node4 -->
<g id="node4" class="node">
<title>Node4</title>
<g id="a_node4"><a xlink:title=" ">
<polygon fill="none" stroke="#bfbfbf" points="458,-118 458,-137 505,-137 505,-118 458,-118"/>
<text text-anchor="middle" x="481.5" y="-125" font-family="Helvetica,sans-Serif" font-size="10.00">vector</text>
</a>
</g>
</g>
<!-- Node2&#45;&gt;Node4 -->
<g id="edge3" class="edge">
<title>Node2&#45;&gt;Node4</title>
<path fill="none" stroke="midnightblue" d="M574.88,-179.48C556.91,-169.67 527.18,-153.43 506.09,-141.92"/>
<polygon fill="midnightblue" stroke="midnightblue" points="507.54,-138.73 497.09,-137.01 504.19,-144.87 507.54,-138.73"/>
</g>
<!-- Node5 -->
<g id="node5" class="node">
<title>Node5</title>
<g id="a_node5"><a xlink:title=" ">
<polygon fill="none" stroke="#bfbfbf" points="523.5,-118 523.5,-137 609.5,-137 609.5,-118 523.5,-118"/>
<text text-anchor="middle" x="566.5" y="-125" font-family="Helvetica,sans-Serif" font-size="10.00">unordered_set</text>
</a>
</g>
</g>
<!-- Node2&#45;&gt;Node5 -->
<g id="edge4" class="edge">
<title>Node2&#45;&gt;Node5</title>
<path fill="none" stroke="midnightblue" d="M587.06,-179.48C583.6,-170.9 578.17,-157.43 573.75,-146.48"/>
<polygon fill="midnightblue" stroke="midnightblue" points="576.92,-144.97 569.93,-137.01 570.43,-147.59 576.92,-144.97"/>
</g>
<!-- Node6&#45;&gt;Node3 -->
<g id="edge8" class="edge">
<title>Node6&#45;&gt;Node3</title>
<path fill="none" stroke="midnightblue" d="M823.29,-179.5C839.22,-172.41 858.96,-160.61 868.5,-143 875.06,-130.89 875.5,-123.86 868.5,-112 835.8,-56.6 760.62,-29.49 717.49,-18.06"/>
<polygon fill="midnightblue" stroke="midnightblue" points="718.32,-14.66 707.77,-15.61 716.61,-21.45 718.32,-14.66"/>
</g>
<!-- Node6&#45;&gt;Node4 -->
<g id="edge7" class="edge">
<title>Node6&#45;&gt;Node4</title>
<path fill="none" stroke="midnightblue" d="M740.4,-183.14C682.07,-177.31 590.81,-165.38 514.5,-143 512.35,-142.37 510.16,-141.63 507.98,-140.83"/>
<polygon fill="midnightblue" stroke="midnightblue" points="509.24,-137.56 498.66,-137.04 506.6,-144.05 509.24,-137.56"/>
</g>
<!-- Node6&#45;&gt;Node5 -->
<g id="edge11" class="edge">
<title>Node6&#45;&gt;Node5</title>
<path fill="none" stroke="midnightblue" d="M764.05,-179.5C727.5,-170.66 668.91,-156.29 618.5,-143 614.47,-141.94 610.28,-140.81 606.09,-139.67"/>
<polygon fill="midnightblue" stroke="midnightblue" points="607,-136.29 596.43,-137 605.14,-143.03 607,-136.29"/>
</g>
<!-- Node7 -->
<g id="node7" class="node">
<title>Node7</title>
<g id="a_node7"><a xlink:href="InventoryCollection_8h.html" target="_top" xlink:title="The &#39;Aggregate&#39; interface.">
<polygon fill="none" stroke="black" points="739,-118 739,-137 860,-137 860,-118 739,-118"/>
<text text-anchor="middle" x="799.5" y="-125" font-family="Helvetica,sans-Serif" font-size="10.00">InventoryCollection.h</text>
</a>
</g>
</g>
<!-- Node6&#45;&gt;Node7 -->
<g id="edge6" class="edge">
<title>Node6&#45;&gt;Node7</title>
<path fill="none" stroke="midnightblue" d="M799.5,-179.48C799.5,-171.08 799.5,-157.98 799.5,-147.16"/>
<polygon fill="midnightblue" stroke="midnightblue" points="803,-147.01 799.5,-137.01 796,-147.01 803,-147.01"/>
</g>
<!-- Node6&#45;&gt;Node8 -->
<g id="edge9" class="edge">
<title>Node6&#45;&gt;Node8</title>
<path fill="none" stroke="midnightblue" d="M858.69,-183.66C934.69,-177.35 1061.74,-164.01 1103.5,-143 1107.23,-141.12 1142.91,-104.71 1164.03,-82.98"/>
<polygon fill="midnightblue" stroke="midnightblue" points="1166.61,-85.34 1171.06,-75.72 1161.59,-80.46 1166.61,-85.34"/>
</g>
<!-- Node9 -->
<g id="node9" class="node">
<title>Node9</title>
<g id="a_node9"><a xlink:title=" ">
<polygon fill="none" stroke="#bfbfbf" points="628,-118 628,-137 721,-137 721,-118 628,-118"/>
<text text-anchor="middle" x="674.5" y="-125" font-family="Helvetica,sans-Serif" font-size="10.00">unordered_map</text>
</a>
</g>
</g>
<!-- Node6&#45;&gt;Node9 -->
<g id="edge10" class="edge">
<title>Node6&#45;&gt;Node9</title>
<path fill="none" stroke="midnightblue" d="M781.59,-179.48C760.61,-169.49 725.65,-152.85 701.41,-141.31"/>
<polygon fill="midnightblue" stroke="midnightblue" points="702.91,-138.15 692.38,-137.01 699.9,-144.47 702.91,-138.15"/>
</g>
<!-- Node10&#45;&gt;Node3 -->
<g id="edge13" class="edge">
<title>Node10&#45;&gt;Node3</title>
<path fill="none" stroke="midnightblue" d="M249.57,-56.53C365.46,-44.43 573.31,-22.72 653.09,-14.38"/>
<polygon fill="midnightblue" stroke="midnightblue" points="653.9,-17.82 663.48,-13.3 653.17,-10.86 653.9,-17.82"/>
</g>
<!-- Node11&#45;&gt;Node3 -->
<g id="edge15" class="edge">
<title>Node11&#45;&gt;Node3</title>
<path fill="none" stroke="midnightblue" d="M1287.19,-117.61C1275.49,-101.96 1248.78,-69.82 1217.5,-56 1127.21,-16.1 818.91,-11.44 717.86,-11"/>
<polygon fill="midnightblue" stroke="midnightblue" points="717.67,-7.5 707.66,-10.97 717.65,-14.5 717.67,-7.5"/>
</g>
<!-- Node11&#45;&gt;Node8 -->
<g id="edge16" class="edge">
<title>Node11&#45;&gt;Node8</title>
<path fill="none" stroke="midnightblue" d="M1277.17,-117.98C1258.29,-108.12 1226.99,-91.79 1204.92,-80.27"/>
<polygon fill="midnightblue" stroke="midnightblue" points="1206.29,-77.03 1195.8,-75.51 1203.05,-83.24 1206.29,-77.03"/>
</g>
<!-- Node12&#45;&gt;Node3 -->
<g id="edge24" class="edge">
<title>Node12&#45;&gt;Node3</title>
<path fill="none" stroke="midnightblue" d="M319.2,-179.23C318.89,-155.27 321.63,-88.35 359.5,-56 403.19,-18.69 579.42,-12.23 652.99,-11.17"/>
<polygon fill="midnightblue" stroke="midnightblue" points="653.11,-14.67 663.07,-11.05 653.03,-7.67 653.11,-14.67"/>
</g>
<!-- Node12&#45;&gt;Node4 -->
<g id="edge23" class="edge">
<title>Node12&#45;&gt;Node4</title>
<path fill="none" stroke="midnightblue" d="M342.71,-179.48C370.5,-169.27 417.22,-152.11 448.69,-140.55"/>
<polygon fill="midnightblue" stroke="midnightblue" points="450.15,-143.74 458.33,-137.01 447.74,-137.17 450.15,-143.74"/>
</g>
<!-- Node12&#45;&gt;Node13 -->
<g id="edge18" class="edge">
<title>Node12&#45;&gt;Node13</title>
<path fill="none" stroke="midnightblue" d="M308.9,-179.48C297.25,-170.11 278.31,-154.88 264.17,-143.51"/>
<polygon fill="midnightblue" stroke="midnightblue" points="266.07,-140.55 256.08,-137.01 261.68,-146 266.07,-140.55"/>
</g>
<!-- Node13&#45;&gt;Node3 -->
<g id="edge19" class="edge">
<title>Node13&#45;&gt;Node3</title>
<path fill="none" stroke="midnightblue" d="M249.57,-117.74C257.27,-102.28 275.55,-70.45 301.5,-56 361.69,-22.48 572.27,-13.78 653.34,-11.65"/>
<polygon fill="midnightblue" stroke="midnightblue" points="653.55,-15.15 663.46,-11.4 653.37,-8.15 653.55,-15.15"/>
</g>
<!-- Node14 -->
<g id="node14" class="node">
<title>Node14</title>
<g id="a_node14"><a xlink:href="Observer_8h.html" target="_top" xlink:title="Declares the Observer contract and shared event payload.">
<polygon fill="none" stroke="black" points="0,-56.5 0,-75.5 69,-75.5 69,-56.5 0,-56.5"/>
<text text-anchor="middle" x="34.5" y="-63.5" font-family="Helvetica,sans-Serif" font-size="10.00">Observer.h</text>
</a>
</g>
</g>
<!-- Node13&#45;&gt;Node14 -->
<g id="edge20" class="edge">
<title>Node13&#45;&gt;Node14</title>
<path fill="none" stroke="midnightblue" d="M215.27,-117.98C178.21,-107.53 115.31,-89.79 74.34,-78.23"/>
<polygon fill="midnightblue" stroke="midnightblue" points="75.25,-74.85 64.68,-75.51 73.35,-81.59 75.25,-74.85"/>
</g>
<!-- Node14&#45;&gt;Node3 -->
<g id="edge22" class="edge">
<title>Node14&#45;&gt;Node3</title>
<path fill="none" stroke="midnightblue" d="M69.02,-57.51C72.21,-56.94 75.41,-56.43 78.5,-56 296.76,-25.71 562.19,-14.91 653.13,-11.94"/>
<polygon fill="midnightblue" stroke="midnightblue" points="653.46,-15.44 663.34,-11.62 653.24,-8.44 653.46,-15.44"/>
</g>
<!-- Node15 -->
<g id="node15" class="node">
<title>Node15</title>
<g id="a_node15"><a xlink:title=" ">
<polygon fill="none" stroke="#bfbfbf" points="6.5,-0.5 6.5,-19.5 62.5,-19.5 62.5,-0.5 6.5,-0.5"/>
<text text-anchor="middle" x="34.5" y="-7.5" font-family="Helvetica,sans-Serif" font-size="10.00">optional</text>
</a>
</g>
</g>
<!-- Node14&#45;&gt;Node15 -->
<g id="edge21" class="edge">
<title>Node14&#45;&gt;Node15</title>
<path fill="none" stroke="midnightblue" d="M34.5,-56.08C34.5,-49.01 34.5,-38.86 34.5,-29.99"/>
<polygon fill="midnightblue" stroke="midnightblue" points="38,-29.75 34.5,-19.75 31,-29.75 38,-29.75"/>
</g>
<!-- Node16&#45;&gt;Node3 -->
<g id="edge29" class="edge">
<title>Node16&#45;&gt;Node3</title>
<path fill="none" stroke="midnightblue" d="M434.66,-179.22C405.9,-156.86 337.23,-96.7 372.5,-56 408.58,-14.37 580.46,-10.35 653.04,-10.56"/>
<polygon fill="midnightblue" stroke="midnightblue" points="653.38,-14.07 663.4,-10.63 653.42,-7.07 653.38,-14.07"/>
</g>
<!-- Node16&#45;&gt;Node4 -->
<g id="edge30" class="edge">
<title>Node16&#45;&gt;Node4</title>
<path fill="none" stroke="midnightblue" d="M451.51,-179.48C456.66,-170.73 464.81,-156.87 471.32,-145.81"/>
<polygon fill="midnightblue" stroke="midnightblue" points="474.44,-147.4 476.49,-137.01 468.41,-143.85 474.44,-147.4"/>
</g>
<!-- Node17 -->
<g id="node17" class="node">
<title>Node17</title>
<g id="a_node17"><a xlink:href="Colleague_8h.html" target="_top" xlink:title="The &#39;Colleague&#39; interface.">
<polygon fill="none" stroke="black" points="381.5,-56.5 381.5,-75.5 455.5,-75.5 455.5,-56.5 381.5,-56.5"/>
<text text-anchor="middle" x="418.5" y="-63.5" font-family="Helvetica,sans-Serif" font-size="10.00">Colleague.h</text>
</a>
</g>
</g>
<!-- Node16&#45;&gt;Node17 -->
<g id="edge27" class="edge">
<title>Node16&#45;&gt;Node17</title>
<path fill="none" stroke="midnightblue" d="M438.02,-179.23C430.45,-170.75 419.9,-157.13 415.5,-143 409.63,-124.13 411.65,-101.35 414.34,-85.67"/>
<polygon fill="midnightblue" stroke="midnightblue" points="417.81,-86.17 416.31,-75.68 410.94,-84.81 417.81,-86.17"/>
</g>
<!-- Node17&#45;&gt;Node3 -->
<g id="edge28" class="edge">
<title>Node17&#45;&gt;Node3</title>
<path fill="none" stroke="midnightblue" d="M455.63,-57.49C508.33,-46.83 603.95,-27.49 653.62,-17.45"/>
<polygon fill="midnightblue" stroke="midnightblue" points="654.39,-20.86 663.49,-15.45 653,-14 654.39,-20.86"/>
</g>
<!-- Node18&#45;&gt;Node3 -->
<g id="edge36" class="edge">
<title>Node18&#45;&gt;Node3</title>
<path fill="none" stroke="midnightblue" d="M1007.67,-179.48C991.32,-170.96 966.05,-157.13 945.5,-143 895.29,-108.46 893.4,-84.46 839.5,-56 800.22,-35.26 750.12,-22.9 717.92,-16.52"/>
<polygon fill="midnightblue" stroke="midnightblue" points="718.2,-13.01 707.73,-14.59 716.9,-19.89 718.2,-13.01"/>
</g>
<!-- Node18&#45;&gt;Node4 -->
<g id="edge35" class="edge">
<title>Node18&#45;&gt;Node4</title>
<path fill="none" stroke="midnightblue" d="M949.48,-182.73C817.89,-173.3 555.51,-153.51 514.5,-143 512.2,-142.41 509.85,-141.68 507.53,-140.85"/>
<polygon fill="midnightblue" stroke="midnightblue" points="508.83,-137.61 498.25,-137.12 506.22,-144.1 508.83,-137.61"/>
</g>
<!-- Node18&#45;&gt;Node8 -->
<g id="edge37" class="edge">
<title>Node18&#45;&gt;Node8</title>
<path fill="none" stroke="midnightblue" d="M1062.96,-179.45C1086.34,-172.7 1115.61,-161.29 1136.5,-143 1154.45,-127.29 1166.58,-102.18 1173.26,-85.16"/>
<polygon fill="midnightblue" stroke="midnightblue" points="1176.55,-86.36 1176.72,-75.77 1169.98,-83.94 1176.55,-86.36"/>
</g>
<!-- Node19 -->
<g id="node19" class="node">
<title>Node19</title>
<g id="a_node19"><a xlink:href="GreenhouseComponent_8h.html" target="_top" xlink:title="The abstract &#39;Component&#39; interface for the Composite pattern.">
<polygon fill="none" stroke="black" points="954.5,-118 954.5,-137 1094.5,-137 1094.5,-118 954.5,-118"/>
<text text-anchor="middle" x="1024.5" y="-125" font-family="Helvetica,sans-Serif" font-size="10.00">GreenhouseComponent.h</text>
</a>
</g>
</g>
<!-- Node18&#45;&gt;Node19 -->
<g id="edge32" class="edge">
<title>Node18&#45;&gt;Node19</title>
<path fill="none" stroke="midnightblue" d="M1024.5,-179.48C1024.5,-171.08 1024.5,-157.98 1024.5,-147.16"/>
<polygon fill="midnightblue" stroke="midnightblue" points="1028,-147.01 1024.5,-137.01 1021,-147.01 1028,-147.01"/>
</g>
<!-- Node19&#45;&gt;Node3 -->
<g id="edge34" class="edge">
<title>Node19&#45;&gt;Node3</title>
<path fill="none" stroke="midnightblue" d="M1017.17,-117.91C1003.67,-102.72 973.28,-71.29 940.5,-56 866.11,-21.3 768.1,-13.21 718.02,-11.42"/>
<polygon fill="midnightblue" stroke="midnightblue" points="717.9,-7.91 707.8,-11.12 717.69,-14.91 717.9,-7.91"/>
</g>
<!-- Node19&#45;&gt;Node8 -->
<g id="edge33" class="edge">
<title>Node19&#45;&gt;Node8</title>
<path fill="none" stroke="midnightblue" d="M1046.71,-117.98C1073.18,-107.81 1117.61,-90.76 1147.72,-79.2"/>
<polygon fill="midnightblue" stroke="midnightblue" points="1149.25,-82.36 1157.33,-75.51 1146.74,-75.83 1149.25,-82.36"/>
</g>
<!-- Node20&#45;&gt;Node3 -->
<g id="edge40" class="edge">
<title>Node20&#45;&gt;Node3</title>
<path fill="none" stroke="midnightblue" d="M1414.85,-112.38C1376.2,-95.82 1308.44,-69 1247.5,-56 1049.47,-13.75 804.5,-10.4 717.77,-10.67"/>
<polygon fill="midnightblue" stroke="midnightblue" points="717.74,-7.17 707.76,-10.72 717.78,-14.17 717.74,-7.17"/>
</g>
<!-- Node20&#45;&gt;Node8 -->
<g id="edge41" class="edge">
<title>Node20&#45;&gt;Node8</title>
<path fill="none" stroke="midnightblue" d="M1383.56,-112.47C1332.47,-101.09 1262.01,-85.39 1218.67,-75.73"/>
<polygon fill="midnightblue" stroke="midnightblue" points="1219.32,-72.29 1208.8,-73.53 1217.8,-79.12 1219.32,-72.29"/>
</g>
<!-- Node21 -->
<g id="node21" class="node">
<title>Node21</title>
<g id="a_node21"><a xlink:title=" ">
<polygon fill="none" stroke="#bfbfbf" points="1427.5,-56.5 1427.5,-75.5 1465.5,-75.5 1465.5,-56.5 1427.5,-56.5"/>
<text text-anchor="middle" x="1446.5" y="-63.5" font-family="Helvetica,sans-Serif" font-size="10.00">map</text>
</a>
</g>
</g>
<!-- Node20&#45;&gt;Node21 -->
<g id="edge39" class="edge">
<title>Node20&#45;&gt;Node21</title>
<path fill="none" stroke="midnightblue" d="M1446.5,-112.4C1446.5,-104.47 1446.5,-94.46 1446.5,-85.86"/>
<polygon fill="midnightblue" stroke="midnightblue" points="1450,-85.66 1446.5,-75.66 1443,-85.66 1450,-85.66"/>
</g>
<!-- Node22&#45;&gt;Node3 -->
<g id="edge43" class="edge">
<title>Node22&#45;&gt;Node3</title>
<path fill="none" stroke="midnightblue" d="M1895.98,-179.4C1866.65,-164.37 1803.32,-132.91 1747.5,-112 1664.66,-80.97 1643.71,-70.83 1556.5,-56 1390.45,-27.77 855.2,-14.62 717.86,-11.66"/>
<polygon fill="midnightblue" stroke="midnightblue" points="717.66,-8.16 707.59,-11.44 717.51,-15.15 717.66,-8.16"/>
</g>
<!-- Node23 -->
<g id="node23" class="node">
<title>Node23</title>
<g id="a_node23"><a xlink:href="WaterStrategy_8h.html" target="_top" xlink:title="Abstract &#39;Strategy&#39; interface for watering.">
<polygon fill="none" stroke="black" points="1644.5,-118 1644.5,-137 1738.5,-137 1738.5,-118 1644.5,-118"/>
<text text-anchor="middle" x="1691.5" y="-125" font-family="Helvetica,sans-Serif" font-size="10.00">WaterStrategy.h</text>
</a>
</g>
</g>
<!-- Node22&#45;&gt;Node23 -->
<g id="edge44" class="edge">
<title>Node22&#45;&gt;Node23</title>
<path fill="none" stroke="midnightblue" d="M1880.84,-179.48C1841.94,-169 1775.86,-151.21 1732.95,-139.66"/>
<polygon fill="midnightblue" stroke="midnightblue" points="1733.67,-136.23 1723.11,-137.01 1731.85,-142.99 1733.67,-136.23"/>
</g>
<!-- Node24 -->
<g id="node24" class="node">
<title>Node24</title>
<g id="a_node24"><a xlink:href="FertilizeStrategy_8h.html" target="_top" xlink:title="Abstract &#39;Strategy&#39; interface for fertilizing.">
<polygon fill="none" stroke="black" points="2086.5,-118 2086.5,-137 2190.5,-137 2190.5,-118 2086.5,-118"/>
<text text-anchor="middle" x="2138.5" y="-125" font-family="Helvetica,sans-Serif" font-size="10.00">FertilizeStrategy.h</text>
</a>
</g>
</g>
<!-- Node22&#45;&gt;Node24 -->
<g id="edge45" class="edge">
<title>Node22&#45;&gt;Node24</title>
<path fill="none" stroke="midnightblue" d="M1944.88,-179.48C1984.74,-168.98 2052.52,-151.14 2096.39,-139.59"/>
<polygon fill="midnightblue" stroke="midnightblue" points="2097.4,-142.94 2106.18,-137.01 2095.62,-136.17 2097.4,-142.94"/>
</g>
<!-- Node25&#45;&gt;Node23 -->
<g id="edge47" class="edge">
<title>Node25&#45;&gt;Node23</title>
<path fill="none" stroke="midnightblue" d="M1458.47,-179.48C1507.05,-168.85 1590.08,-150.68 1642.8,-139.15"/>
<polygon fill="midnightblue" stroke="midnightblue" points="1643.58,-142.57 1652.6,-137.01 1642.08,-135.73 1643.58,-142.57"/>
</g>
<!-- Node26&#45;&gt;Node23 -->
<g id="edge49" class="edge">
<title>Node26&#45;&gt;Node23</title>
<path fill="none" stroke="midnightblue" d="M1605.83,-179.48C1622.16,-169.75 1649.1,-153.73 1668.41,-142.24"/>
<polygon fill="midnightblue" stroke="midnightblue" points="1670.39,-145.13 1677.2,-137.01 1666.82,-139.11 1670.39,-145.13"/>
</g>
<!-- Node27&#45;&gt;Node23 -->
<g id="edge51" class="edge">
<title>Node27&#45;&gt;Node23</title>
<path fill="none" stroke="midnightblue" d="M1754.04,-179.48C1742.55,-170.11 1723.87,-154.88 1709.91,-143.51"/>
<polygon fill="midnightblue" stroke="midnightblue" points="1711.9,-140.61 1701.94,-137.01 1707.48,-146.04 1711.9,-140.61"/>
</g>
<!-- Node28&#45;&gt;Node24 -->
<g id="edge53" class="edge">
<title>Node28&#45;&gt;Node24</title>
<path fill="none" stroke="midnightblue" d="M2067.39,-179.48C2080.7,-169.93 2102.5,-154.31 2118.46,-142.87"/>
<polygon fill="midnightblue" stroke="midnightblue" points="2120.54,-145.68 2126.63,-137.01 2116.46,-139.99 2120.54,-145.68"/>
</g>
<!-- Node29&#45;&gt;Node24 -->
<g id="edge55" class="edge">
<title>Node29&#45;&gt;Node24</title>
<path fill="none" stroke="midnightblue" d="M2209.61,-179.48C2196.3,-169.93 2174.5,-154.31 2158.54,-142.87"/>
<polygon fill="midnightblue" stroke="midnightblue" points="2160.54,-139.99 2150.37,-137.01 2156.46,-145.68 2160.54,-139.99"/>
</g>
<!-- Node30&#45;&gt;Node24 -->
<g id="edge57" class="edge">
<title>Node30&#45;&gt;Node24</title>
<path fill="none" stroke="midnightblue" d="M2362.96,-179.48C2316.27,-168.87 2236.52,-150.76 2185.72,-139.22"/>
<polygon fill="midnightblue" stroke="midnightblue" points="2186.5,-135.81 2175.97,-137.01 2184.95,-142.64 2186.5,-135.81"/>
</g>
</g>
</svg>
        <g id="navigator" transform="translate(0 0)" fill="#404254">
                <rect fill="#f2f5e9" fill-opacity="0.5" stroke="#606060" stroke-width=".5" x="0" y="0" width="60" height="60"/>
                <use id="zoomplus" xlink:href="#zoomPlus" x="17" y="9" onmousedown="handleZoom(evt,'in')"/>
                <use id="zoomminus" xlink:href="#zoomMin" x="42" y="9" onmousedown="handleZoom(evt,'out')"/>
                <use id="reset" xlink:href="#resetDef" x="30" y="36" onmousedown="handleReset()"/>
                <g id="arrowUp" xlink:href="#dirArrow" transform="translate(30 24)" onmousedown="handlePan(0,-1)">
                  <use xlink:href="#rim" fill="#404040">
                        <set attributeName="fill" to="#808080" begin="arrowUp.mouseover" end="arrowUp.mouseout"/>
                  </use>
                  <path fill="none" stroke="white" stroke-width="1.5" d="M0,-3.0v7 M-2.5,-0.5L0,-3.0L2.5,-0.5"/>
                </g>
                <g id="arrowRight" xlink:href="#dirArrow" transform="rotate(90) translate(36 -43)" onmousedown="handlePan(1,0)">
                  <use xlink:href="#rim" fill="#404040">
                        <set attributeName="fill" to="#808080" begin="arrowRight.mouseover" end="arrowRight.mouseout"/>
                  </use>
                  <path fill="none" stroke="white" stroke-width="1.5" d="M0,-3.0v7 M-2.5,-0.5L0,-3.0L2.5,-0.5"/>
                </g>
                <g id="arrowDown" xlink:href="#dirArrow" transform="rotate(180) translate(-30 -48)" onmousedown="handlePan(0,1)">
                  <use xlink:href="#rim" fill="#404040">
                        <set attributeName="fill" to="#808080" begin="arrowDown.mouseover" end="arrowDown.mouseout"/>
                  </use>
                  <path fill="none" stroke="white" stroke-width="1.5" d="M0,-3.0v7 M-2.5,-0.5L0,-3.0L2.5,-0.5"/>
                </g>
                <g id="arrowLeft" xlink:href="#dirArrow" transform="rotate(270) translate(-36 17)" onmousedown="handlePan(-1,0)">
                  <use xlink:href="#rim" fill="#404040">
                        <set attributeName="fill" to="#808080" begin="arrowLeft.mouseover" end="arrowLeft.mouseout"/>
                  </use>
                  <path fill="none" stroke="white" stroke-width="1.5" d="M0,-3.0v7 M-2.5,-0.5L0,-3.0L2.5,-0.5"/>
                </g>
        </g>
        <svg viewBox="0 0 15 15" width="100%" height="30px" preserveAspectRatio="xMaxYMin meet">
         <g id="arrow_out" transform="scale(0.3 0.3)">
          <a xlink:href="SalesFacade_8cpp__incl_org.svg" target="_base">
           <rect id="button" ry="5" rx="5" y="6" x="6" height="38" width="38"
                fill="#f2f5e9" fill-opacity="0.5" stroke="#606060" stroke-width="1.0"/>
           <path id="arrow"
             d="M 11.500037,31.436501 C 11.940474,20.09759 22.043105,11.32322 32.158766,21.979434 L 37.068811,17.246167 C 37.068811,17.246167 37.088388,32 37.088388,32 L 22.160133,31.978069 C 22.160133,31.978069 26.997745,27.140456 26.997745,27.140456 C 18.528582,18.264221 13.291696,25.230495 11.500037,31.436501 z"
             style="fill:#404040;"/>
          </a>
         </g>
        </svg>
</svg>
