<?xml version="1.0" encoding="UTF-8" standalone="no"?>
<!DOCTYPE svg PUBLIC "-//W3C//DTD SVG 1.1//EN"
 "http://www.w3.org/Graphics/SVG/1.1/DTD/svg11.dtd">
<!-- Generated by graphviz version 2.43.0 (0)
 -->
<!-- Title: SeasonalWatering.h Pages: 1 -->
<svg width="248pt" height="84pt"
 viewBox="0.00 0.00 248.00 84.00" xmlns="http://www.w3.org/2000/svg" xmlns:xlink="http://www.w3.org/1999/xlink">
<g id="graph0" class="graph" transform="scale(1 1) rotate(0) translate(4 80)">
<title>SeasonalWatering.h</title>
<!-- Node1 -->
<g id="node1" class="node">
<title>Node1</title>
<g id="a_node1"><a xlink:title="Concrete strategy for seasonal watering.">
<polygon fill="#bfbfbf" stroke="black" points="56,-56.5 56,-75.5 169,-75.5 169,-56.5 56,-56.5"/>
<text text-anchor="middle" x="112.5" y="-63.5" font-family="Helvetica,sans-Serif" font-size="10.00">SeasonalWatering.h</text>
</a>
</g>
</g>
<!-- Node2 -->
<g id="node2" class="node">
<title>Node2</title>
<g id="a_node2"><a xlink:href="SalesFacade_8cpp.html" target="_top" xlink:title="Implements the SalesFacade behaviour defined in the corresponding header.">
<polygon fill="none" stroke="black" points="0,-0.5 0,-19.5 97,-19.5 97,-0.5 0,-0.5"/>
<text text-anchor="middle" x="48.5" y="-7.5" font-family="Helvetica,sans-Serif" font-size="10.00">SalesFacade.cpp</text>
</a>
</g>
</g>
<!-- Node1&#45;&gt;Node2 -->
<g id="edge1" class="edge">
<title>Node1&#45;&gt;Node2</title>
<path fill="none" stroke="midnightblue" d="M94.51,-49.82C83.04,-40.15 68.59,-27.95 58.97,-19.83"/>
<polygon fill="midnightblue" stroke="midnightblue" points="92.32,-52.55 102.22,-56.32 96.83,-47.2 92.32,-52.55"/>
</g>
<!-- Node3 -->
<g id="node3" class="node">
<title>Node3</title>
<g id="a_node3"><a xlink:href="SeasonalWatering_8cpp.html" target="_top" xlink:title="Implements the SeasonalWatering behaviour defined in the corresponding header.">
<polygon fill="none" stroke="black" points="115,-0.5 115,-19.5 240,-19.5 240,-0.5 115,-0.5"/>
<text text-anchor="middle" x="177.5" y="-7.5" font-family="Helvetica,sans-Serif" font-size="10.00">SeasonalWatering.cpp</text>
</a>
</g>
</g>
<!-- Node1&#45;&gt;Node3 -->
<g id="edge2" class="edge">
<title>Node1&#45;&gt;Node3</title>
<path fill="none" stroke="midnightblue" d="M130.77,-49.82C142.42,-40.15 157.1,-27.95 166.87,-19.83"/>
<polygon fill="midnightblue" stroke="midnightblue" points="128.4,-47.24 122.94,-56.32 132.87,-52.63 128.4,-47.24"/>
</g>
</g>
</svg>
