<?xml version="1.0" encoding="UTF-8" standalone="no"?>
<!DOCTYPE svg PUBLIC "-//W3C//DTD SVG 1.1//EN"
 "http://www.w3.org/Graphics/SVG/1.1/DTD/svg11.dtd">
<!-- Generated by graphviz version 2.43.0 (0)
 -->
<!-- Title: SeedState.h Pages: 1 -->
<svg width="117pt" height="140pt"
 viewBox="0.00 0.00 116.50 140.00" xmlns="http://www.w3.org/2000/svg" xmlns:xlink="http://www.w3.org/1999/xlink">
<g id="graph0" class="graph" transform="scale(1 1) rotate(0) translate(4 136)">
<title>SeedState.h</title>
<!-- Node1 -->
<g id="node1" class="node">
<title>Node1</title>
<g id="a_node1"><a xlink:title="Concrete state representing a seed.">
<polygon fill="#bfbfbf" stroke="black" points="33.5,-112.5 33.5,-131.5 108.5,-131.5 108.5,-112.5 33.5,-112.5"/>
<text text-anchor="middle" x="71" y="-119.5" font-family="Helvetica,sans-Serif" font-size="10.00">SeedState.h</text>
</a>
</g>
</g>
<!-- Node2 -->
<g id="node2" class="node">
<title>Node2</title>
<g id="a_node2"><a xlink:href="PlantState_8h.html" target="_top" xlink:title="Abstract base class describing the lifecycle state of a plant.">
<polygon fill="none" stroke="black" points="0,-56.5 0,-75.5 76,-75.5 76,-56.5 0,-56.5"/>
<text text-anchor="middle" x="38" y="-63.5" font-family="Helvetica,sans-Serif" font-size="10.00">PlantState.h</text>
</a>
</g>
</g>
<!-- Node1&#45;&gt;Node2 -->
<g id="edge1" class="edge">
<title>Node1&#45;&gt;Node2</title>
<path fill="none" stroke="midnightblue" d="M65.55,-112.08C60.99,-104.61 54.33,-93.72 48.71,-84.52"/>
<polygon fill="midnightblue" stroke="midnightblue" points="51.55,-82.46 43.35,-75.75 45.58,-86.11 51.55,-82.46"/>
</g>
<!-- Node3 -->
<g id="node3" class="node">
<title>Node3</title>
<g id="a_node3"><a xlink:title=" ">
<polygon fill="none" stroke="#bfbfbf" points="49,-0.5 49,-19.5 93,-19.5 93,-0.5 49,-0.5"/>
<text text-anchor="middle" x="71" y="-7.5" font-family="Helvetica,sans-Serif" font-size="10.00">string</text>
</a>
</g>
</g>
<!-- Node1&#45;&gt;Node3 -->
<g id="edge3" class="edge">
<title>Node1&#45;&gt;Node3</title>
<path fill="none" stroke="midnightblue" d="M74.97,-112.23C80.11,-99.8 88.09,-76.31 85,-56 83.63,-47 80.81,-37.33 78.05,-29.26"/>
<polygon fill="midnightblue" stroke="midnightblue" points="81.31,-27.98 74.6,-19.78 74.73,-30.37 81.31,-27.98"/>
</g>
<!-- Node2&#45;&gt;Node3 -->
<g id="edge2" class="edge">
<title>Node2&#45;&gt;Node3</title>
<path fill="none" stroke="midnightblue" d="M43.45,-56.08C48.01,-48.61 54.67,-37.72 60.29,-28.52"/>
<polygon fill="midnightblue" stroke="midnightblue" points="63.42,-30.11 65.65,-19.75 57.45,-26.46 63.42,-30.11"/>
</g>
</g>
</svg>
