<?xml version="1.0" encoding="UTF-8" standalone="no"?>
<!DOCTYPE svg PUBLIC "-//W3C//DTD SVG 1.1//EN"
 "http://www.w3.org/Graphics/SVG/1.1/DTD/svg11.dtd">
<!-- Generated by graphviz version 2.43.0 (0)
 -->
<!-- Title: SeedState.cpp Pages: 1 -->
<svg width="798pt" height="308pt"
 viewBox="0.00 0.00 797.67 308.00" xmlns="http://www.w3.org/2000/svg" xmlns:xlink="http://www.w3.org/1999/xlink">
<g id="graph0" class="graph" transform="scale(1 1) rotate(0) translate(4 304)">
<title>SeedState.cpp</title>
<!-- Node1 -->
<g id="node1" class="node">
<title>Node1</title>
<g id="a_node1"><a xlink:title="Implements the SeedState behaviour defined in the corresponding header.">
<polygon fill="#bfbfbf" stroke="black" points="384,-280.5 384,-299.5 470,-299.5 470,-280.5 384,-280.5"/>
<text text-anchor="middle" x="427" y="-287.5" font-family="Helvetica,sans-Serif" font-size="10.00">SeedState.cpp</text>
</a>
</g>
</g>
<!-- Node2 -->
<g id="node2" class="node">
<title>Node2</title>
<g id="a_node2"><a xlink:href="SeedState_8h.html" target="_top" xlink:title="Concrete state representing a seed.">
<polygon fill="none" stroke="black" points="0,-168.5 0,-187.5 122,-187.5 122,-168.5 0,-168.5"/>
<text text-anchor="middle" x="61" y="-175.5" font-family="Helvetica,sans-Serif" font-size="10.00">../include/SeedState.h</text>
</a>
</g>
</g>
<!-- Node1&#45;&gt;Node2 -->
<g id="edge1" class="edge">
<title>Node1&#45;&gt;Node2</title>
<path fill="none" stroke="midnightblue" d="M398.59,-280.46C333.38,-260.86 172.95,-212.65 99.21,-190.48"/>
<polygon fill="midnightblue" stroke="midnightblue" points="99.98,-187.06 89.4,-187.53 97.97,-193.76 99.98,-187.06"/>
</g>
<!-- Node5 -->
<g id="node5" class="node">
<title>Node5</title>
<g id="a_node5"><a xlink:href="DeadState_8h.html" target="_top" xlink:title="Concrete state representing a dead plant.">
<polygon fill="none" stroke="black" points="140,-168.5 140,-187.5 264,-187.5 264,-168.5 140,-168.5"/>
<text text-anchor="middle" x="202" y="-175.5" font-family="Helvetica,sans-Serif" font-size="10.00">../include/DeadState.h</text>
</a>
</g>
</g>
<!-- Node1&#45;&gt;Node5 -->
<g id="edge5" class="edge">
<title>Node1&#45;&gt;Node5</title>
<path fill="none" stroke="midnightblue" d="M409.34,-280.37C370.08,-261.17 275.31,-214.84 228.74,-192.07"/>
<polygon fill="midnightblue" stroke="midnightblue" points="230.09,-188.84 219.57,-187.59 227.02,-195.13 230.09,-188.84"/>
</g>
<!-- Node6 -->
<g id="node6" class="node">
<title>Node6</title>
<g id="a_node6"><a xlink:href="GrowingState_8h.html" target="_top" xlink:title="Concrete state representing a growing plant.">
<polygon fill="none" stroke="black" points="282.5,-168.5 282.5,-187.5 421.5,-187.5 421.5,-168.5 282.5,-168.5"/>
<text text-anchor="middle" x="352" y="-175.5" font-family="Helvetica,sans-Serif" font-size="10.00">../include/GrowingState.h</text>
</a>
</g>
</g>
<!-- Node1&#45;&gt;Node6 -->
<g id="edge8" class="edge">
<title>Node1&#45;&gt;Node6</title>
<path fill="none" stroke="midnightblue" d="M421.11,-280.37C408.74,-262.22 379.82,-219.8 363.58,-195.99"/>
<polygon fill="midnightblue" stroke="midnightblue" points="366.38,-193.88 357.86,-187.59 360.6,-197.83 366.38,-193.88"/>
</g>
<!-- Node7 -->
<g id="node7" class="node">
<title>Node7</title>
<g id="a_node7"><a xlink:href="PlantInstance_8h.html" target="_top" xlink:title="Represents a single, physical plant in the nursery.">
<polygon fill="none" stroke="black" points="439.5,-168.5 439.5,-187.5 578.5,-187.5 578.5,-168.5 439.5,-168.5"/>
<text text-anchor="middle" x="509" y="-175.5" font-family="Helvetica,sans-Serif" font-size="10.00">../include/PlantInstance.h</text>
</a>
</g>
</g>
<!-- Node1&#45;&gt;Node7 -->
<g id="edge11" class="edge">
<title>Node1&#45;&gt;Node7</title>
<path fill="none" stroke="midnightblue" d="M427.74,-280.22C429.23,-266.94 433.61,-241.45 446,-224 455.27,-210.95 469.55,-200.3 482.17,-192.65"/>
<polygon fill="midnightblue" stroke="midnightblue" points="484.03,-195.61 490.97,-187.61 480.55,-189.54 484.03,-195.61"/>
</g>
<!-- Node9 -->
<g id="node9" class="node">
<title>Node9</title>
<g id="a_node9"><a xlink:title=" ">
<polygon fill="none" stroke="#bfbfbf" points="628,-56.5 628,-75.5 686,-75.5 686,-56.5 628,-56.5"/>
<text text-anchor="middle" x="657" y="-63.5" font-family="Helvetica,sans-Serif" font-size="10.00">memory</text>
</a>
</g>
</g>
<!-- Node1&#45;&gt;Node9 -->
<g id="edge27" class="edge">
<title>Node1&#45;&gt;Node9</title>
<path fill="none" stroke="midnightblue" d="M470.19,-283.54C556.8,-271.58 746.5,-239.9 782,-188 813.28,-142.27 735.54,-99.94 688.96,-79.63"/>
<polygon fill="midnightblue" stroke="midnightblue" points="690.12,-76.32 679.55,-75.63 687.39,-82.76 690.12,-76.32"/>
</g>
<!-- Node14 -->
<g id="node14" class="node">
<title>Node14</title>
<g id="a_node14"><a xlink:href="PlantStateThresholds_8h.html" target="_top" xlink:title="Centralised constants describing lifecycle transition boundaries.">
<polygon fill="none" stroke="black" points="597,-168.5 597,-187.5 773,-187.5 773,-168.5 597,-168.5"/>
<text text-anchor="middle" x="685" y="-175.5" font-family="Helvetica,sans-Serif" font-size="10.00">../include/PlantStateThresholds.h</text>
</a>
</g>
</g>
<!-- Node1&#45;&gt;Node14 -->
<g id="edge23" class="edge">
<title>Node1&#45;&gt;Node14</title>
<path fill="none" stroke="midnightblue" d="M470.07,-284.24C508.49,-278.66 565.4,-267.08 610,-244 634.02,-231.57 656.77,-209.95 670.79,-195.08"/>
<polygon fill="midnightblue" stroke="midnightblue" points="673.45,-197.36 677.63,-187.62 668.29,-192.63 673.45,-197.36"/>
</g>
<!-- Node15 -->
<g id="node15" class="node">
<title>Node15</title>
<g id="a_node15"><a xlink:href="PlantStateUtils_8h.html" target="_top" xlink:title="Common helper functions shared by lifecycle state implementations.">
<polygon fill="none" stroke="black" points="455,-224.5 455,-243.5 601,-243.5 601,-224.5 455,-224.5"/>
<text text-anchor="middle" x="528" y="-231.5" font-family="Helvetica,sans-Serif" font-size="10.00">../include/PlantStateUtils.h</text>
</a>
</g>
</g>
<!-- Node1&#45;&gt;Node15 -->
<g id="edge24" class="edge">
<title>Node1&#45;&gt;Node15</title>
<path fill="none" stroke="midnightblue" d="M443.23,-280.32C459.35,-271.7 484.3,-258.36 502.96,-248.39"/>
<polygon fill="midnightblue" stroke="midnightblue" points="504.64,-251.46 511.81,-243.65 501.34,-245.28 504.64,-251.46"/>
</g>
<!-- Node3 -->
<g id="node3" class="node">
<title>Node3</title>
<g id="a_node3"><a xlink:href="PlantState_8h.html" target="_top" xlink:title="Abstract base class describing the lifecycle state of a plant.">
<polygon fill="none" stroke="black" points="239,-112.5 239,-131.5 315,-131.5 315,-112.5 239,-112.5"/>
<text text-anchor="middle" x="277" y="-119.5" font-family="Helvetica,sans-Serif" font-size="10.00">PlantState.h</text>
</a>
</g>
</g>
<!-- Node2&#45;&gt;Node3 -->
<g id="edge2" class="edge">
<title>Node2&#45;&gt;Node3</title>
<path fill="none" stroke="midnightblue" d="M95.23,-168.44C132.51,-159.12 192.27,-144.18 233.01,-134"/>
<polygon fill="midnightblue" stroke="midnightblue" points="234.08,-137.34 242.93,-131.52 232.38,-130.55 234.08,-137.34"/>
</g>
<!-- Node4 -->
<g id="node4" class="node">
<title>Node4</title>
<g id="a_node4"><a xlink:title=" ">
<polygon fill="none" stroke="#bfbfbf" points="321,-0.5 321,-19.5 365,-19.5 365,-0.5 321,-0.5"/>
<text text-anchor="middle" x="343" y="-7.5" font-family="Helvetica,sans-Serif" font-size="10.00">string</text>
</a>
</g>
</g>
<!-- Node2&#45;&gt;Node4 -->
<g id="edge4" class="edge">
<title>Node2&#45;&gt;Node4</title>
<path fill="none" stroke="midnightblue" d="M74.85,-168.25C107.04,-147.99 189.53,-96.49 260,-56 279.13,-45.01 301.08,-33.14 317.61,-24.35"/>
<polygon fill="midnightblue" stroke="midnightblue" points="319.45,-27.33 326.65,-19.56 316.17,-21.15 319.45,-27.33"/>
</g>
<!-- Node3&#45;&gt;Node4 -->
<g id="edge3" class="edge">
<title>Node3&#45;&gt;Node4</title>
<path fill="none" stroke="midnightblue" d="M282.18,-112.37C293.02,-94.3 318.29,-52.18 332.62,-28.31"/>
<polygon fill="midnightblue" stroke="midnightblue" points="335.7,-29.97 337.85,-19.59 329.7,-26.37 335.7,-29.97"/>
</g>
<!-- Node5&#45;&gt;Node3 -->
<g id="edge6" class="edge">
<title>Node5&#45;&gt;Node3</title>
<path fill="none" stroke="midnightblue" d="M214.05,-168.32C225.46,-160.11 242.83,-147.6 256.43,-137.81"/>
<polygon fill="midnightblue" stroke="midnightblue" points="258.66,-140.52 264.73,-131.83 254.57,-134.84 258.66,-140.52"/>
</g>
<!-- Node5&#45;&gt;Node4 -->
<g id="edge7" class="edge">
<title>Node5&#45;&gt;Node4</title>
<path fill="none" stroke="midnightblue" d="M204.39,-168.4C208.29,-155.34 216.93,-130.15 230,-112 256.02,-75.87 297.01,-43.37 321.82,-25.49"/>
<polygon fill="midnightblue" stroke="midnightblue" points="324.02,-28.22 330.17,-19.59 319.98,-22.51 324.02,-28.22"/>
</g>
<!-- Node6&#45;&gt;Node3 -->
<g id="edge9" class="edge">
<title>Node6&#45;&gt;Node3</title>
<path fill="none" stroke="midnightblue" d="M339.95,-168.32C328.54,-160.11 311.17,-147.6 297.57,-137.81"/>
<polygon fill="midnightblue" stroke="midnightblue" points="299.43,-134.84 289.27,-131.83 295.34,-140.52 299.43,-134.84"/>
</g>
<!-- Node6&#45;&gt;Node4 -->
<g id="edge10" class="edge">
<title>Node6&#45;&gt;Node4</title>
<path fill="none" stroke="midnightblue" d="M351.52,-168.08C350.1,-141.95 345.94,-65.21 344.01,-29.58"/>
<polygon fill="midnightblue" stroke="midnightblue" points="347.5,-29.36 343.46,-19.57 340.51,-29.74 347.5,-29.36"/>
</g>
<!-- Node7&#45;&gt;Node3 -->
<g id="edge15" class="edge">
<title>Node7&#45;&gt;Node3</title>
<path fill="none" stroke="midnightblue" d="M472.24,-168.44C431.94,-159.06 367.19,-143.99 323.42,-133.8"/>
<polygon fill="midnightblue" stroke="midnightblue" points="324.12,-130.37 313.59,-131.52 322.54,-137.19 324.12,-130.37"/>
</g>
<!-- Node7&#45;&gt;Node4 -->
<g id="edge22" class="edge">
<title>Node7&#45;&gt;Node4</title>
<path fill="none" stroke="midnightblue" d="M470.04,-168.44C447.29,-161.76 419.35,-150.43 400,-132 384.28,-117.02 361.1,-59.35 349.76,-29.35"/>
<polygon fill="midnightblue" stroke="midnightblue" points="352.93,-27.83 346.15,-19.69 346.37,-30.28 352.93,-27.83"/>
</g>
<!-- Node8 -->
<g id="node8" class="node">
<title>Node8</title>
<g id="a_node8"><a xlink:href="GreenhouseComponent_8h.html" target="_top" xlink:title="The abstract &#39;Component&#39; interface for the Composite pattern.">
<polygon fill="none" stroke="black" points="489,-112.5 489,-131.5 629,-131.5 629,-112.5 489,-112.5"/>
<text text-anchor="middle" x="559" y="-119.5" font-family="Helvetica,sans-Serif" font-size="10.00">GreenhouseComponent.h</text>
</a>
</g>
</g>
<!-- Node7&#45;&gt;Node8 -->
<g id="edge12" class="edge">
<title>Node7&#45;&gt;Node8</title>
<path fill="none" stroke="midnightblue" d="M517.26,-168.08C524.46,-160.3 535.11,-148.8 543.85,-139.37"/>
<polygon fill="midnightblue" stroke="midnightblue" points="546.67,-141.47 550.9,-131.75 541.53,-136.71 546.67,-141.47"/>
</g>
<!-- Node7&#45;&gt;Node9 -->
<g id="edge21" class="edge">
<title>Node7&#45;&gt;Node9</title>
<path fill="none" stroke="midnightblue" d="M568.82,-168.42C593.21,-162.08 619.87,-151.09 638,-132 649.76,-119.62 654.29,-100.38 656.01,-86.04"/>
<polygon fill="midnightblue" stroke="midnightblue" points="659.52,-86.07 656.87,-75.81 652.54,-85.48 659.52,-86.07"/>
</g>
<!-- Node10 -->
<g id="node10" class="node">
<title>Node10</title>
<g id="a_node10"><a xlink:href="Subject_8h.html" target="_top" xlink:title="Declares the Subject base that manages observer subscriptions.">
<polygon fill="none" stroke="black" points="409,-112.5 409,-131.5 471,-131.5 471,-112.5 409,-112.5"/>
<text text-anchor="middle" x="440" y="-119.5" font-family="Helvetica,sans-Serif" font-size="10.00">Subject.h</text>
</a>
</g>
</g>
<!-- Node7&#45;&gt;Node10 -->
<g id="edge16" class="edge">
<title>Node7&#45;&gt;Node10</title>
<path fill="none" stroke="midnightblue" d="M497.91,-168.32C487.51,-160.18 471.74,-147.84 459.28,-138.09"/>
<polygon fill="midnightblue" stroke="midnightblue" points="461.32,-135.24 451.29,-131.83 457.01,-140.75 461.32,-135.24"/>
</g>
<!-- Node8&#45;&gt;Node4 -->
<g id="edge14" class="edge">
<title>Node8&#45;&gt;Node4</title>
<path fill="none" stroke="midnightblue" d="M558.65,-112.42C557.59,-98.45 553.42,-70.88 537,-56 513.49,-34.7 423.98,-20.81 375.18,-14.65"/>
<polygon fill="midnightblue" stroke="midnightblue" points="375.49,-11.17 365.14,-13.43 374.64,-18.11 375.49,-11.17"/>
</g>
<!-- Node8&#45;&gt;Node9 -->
<g id="edge13" class="edge">
<title>Node8&#45;&gt;Node9</title>
<path fill="none" stroke="midnightblue" d="M574.75,-112.32C590.32,-103.74 614.38,-90.49 632.46,-80.52"/>
<polygon fill="midnightblue" stroke="midnightblue" points="634.22,-83.55 641.29,-75.65 630.85,-77.42 634.22,-83.55"/>
</g>
<!-- Node11 -->
<g id="node11" class="node">
<title>Node11</title>
<g id="a_node11"><a xlink:title=" ">
<polygon fill="none" stroke="#bfbfbf" points="409,-56.5 409,-75.5 441,-75.5 441,-56.5 409,-56.5"/>
<text text-anchor="middle" x="425" y="-63.5" font-family="Helvetica,sans-Serif" font-size="10.00">list</text>
</a>
</g>
</g>
<!-- Node10&#45;&gt;Node11 -->
<g id="edge17" class="edge">
<title>Node10&#45;&gt;Node11</title>
<path fill="none" stroke="midnightblue" d="M437.52,-112.08C435.51,-104.85 432.61,-94.41 430.11,-85.4"/>
<polygon fill="midnightblue" stroke="midnightblue" points="433.48,-84.45 427.43,-75.75 426.74,-86.32 433.48,-84.45"/>
</g>
<!-- Node12 -->
<g id="node12" class="node">
<title>Node12</title>
<g id="a_node12"><a xlink:href="Observer_8h.html" target="_top" xlink:title="Declares the Observer contract and shared event payload.">
<polygon fill="none" stroke="black" points="459.5,-56.5 459.5,-75.5 528.5,-75.5 528.5,-56.5 459.5,-56.5"/>
<text text-anchor="middle" x="494" y="-63.5" font-family="Helvetica,sans-Serif" font-size="10.00">Observer.h</text>
</a>
</g>
</g>
<!-- Node10&#45;&gt;Node12 -->
<g id="edge18" class="edge">
<title>Node10&#45;&gt;Node12</title>
<path fill="none" stroke="midnightblue" d="M448.92,-112.08C456.78,-104.22 468.43,-92.57 477.92,-83.08"/>
<polygon fill="midnightblue" stroke="midnightblue" points="480.65,-85.3 485.25,-75.75 475.7,-80.35 480.65,-85.3"/>
</g>
<!-- Node12&#45;&gt;Node4 -->
<g id="edge20" class="edge">
<title>Node12&#45;&gt;Node4</title>
<path fill="none" stroke="midnightblue" d="M470.07,-56.44C444.33,-47.24 403.28,-32.56 374.83,-22.38"/>
<polygon fill="midnightblue" stroke="midnightblue" points="375.93,-19.06 365.34,-18.99 373.58,-25.65 375.93,-19.06"/>
</g>
<!-- Node13 -->
<g id="node13" class="node">
<title>Node13</title>
<g id="a_node13"><a xlink:title=" ">
<polygon fill="none" stroke="#bfbfbf" points="466,-0.5 466,-19.5 522,-19.5 522,-0.5 466,-0.5"/>
<text text-anchor="middle" x="494" y="-7.5" font-family="Helvetica,sans-Serif" font-size="10.00">optional</text>
</a>
</g>
</g>
<!-- Node12&#45;&gt;Node13 -->
<g id="edge19" class="edge">
<title>Node12&#45;&gt;Node13</title>
<path fill="none" stroke="midnightblue" d="M494,-56.08C494,-49.01 494,-38.86 494,-29.99"/>
<polygon fill="midnightblue" stroke="midnightblue" points="497.5,-29.75 494,-19.75 490.5,-29.75 497.5,-29.75"/>
</g>
<!-- Node15&#45;&gt;Node7 -->
<g id="edge26" class="edge">
<title>Node15&#45;&gt;Node7</title>
<path fill="none" stroke="midnightblue" d="M524.86,-224.08C522.32,-216.85 518.64,-206.41 515.47,-197.4"/>
<polygon fill="midnightblue" stroke="midnightblue" points="518.7,-196.02 512.08,-187.75 512.1,-198.35 518.7,-196.02"/>
</g>
<!-- Node15&#45;&gt;Node14 -->
<g id="edge25" class="edge">
<title>Node15&#45;&gt;Node14</title>
<path fill="none" stroke="midnightblue" d="M552.88,-224.44C579.29,-215.36 621.22,-200.94 650.74,-190.78"/>
<polygon fill="midnightblue" stroke="midnightblue" points="651.92,-194.08 660.24,-187.52 649.64,-187.46 651.92,-194.08"/>
</g>
</g>
</svg>
