<?xml version="1.0" encoding="UTF-8" standalone="no"?>
<!DOCTYPE svg PUBLIC "-//W3C//DTD SVG 1.1//EN"
 "http://www.w3.org/Graphics/SVG/1.1/DTD/svg11.dtd">
<!-- Generated by graphviz version 2.43.0 (0)
 -->
<!-- Title: SlowReleaseFertilizer.h Pages: 1 -->
<svg width="264pt" height="84pt"
 viewBox="0.00 0.00 264.00 84.00" xmlns="http://www.w3.org/2000/svg" xmlns:xlink="http://www.w3.org/1999/xlink">
<g id="graph0" class="graph" transform="scale(1 1) rotate(0) translate(4 80)">
<title>SlowReleaseFertilizer.h</title>
<!-- Node1 -->
<g id="node1" class="node">
<title>Node1</title>
<g id="a_node1"><a xlink:title="Concrete strategy for slow&#45;release fertilizing.">
<polygon fill="#bfbfbf" stroke="black" points="51.5,-56.5 51.5,-75.5 181.5,-75.5 181.5,-56.5 51.5,-56.5"/>
<text text-anchor="middle" x="116.5" y="-63.5" font-family="Helvetica,sans-Serif" font-size="10.00">SlowReleaseFertilizer.h</text>
</a>
</g>
</g>
<!-- Node2 -->
<g id="node2" class="node">
<title>Node2</title>
<g id="a_node2"><a xlink:href="SalesFacade_8cpp.html" target="_top" xlink:title="Implements the SalesFacade behaviour defined in the corresponding header.">
<polygon fill="none" stroke="black" points="0,-0.5 0,-19.5 97,-19.5 97,-0.5 0,-0.5"/>
<text text-anchor="middle" x="48.5" y="-7.5" font-family="Helvetica,sans-Serif" font-size="10.00">SalesFacade.cpp</text>
</a>
</g>
</g>
<!-- Node1&#45;&gt;Node2 -->
<g id="edge1" class="edge">
<title>Node1&#45;&gt;Node2</title>
<path fill="none" stroke="midnightblue" d="M97.74,-50.1C85.5,-40.38 69.94,-28.03 59.62,-19.83"/>
<polygon fill="midnightblue" stroke="midnightblue" points="95.57,-52.85 105.57,-56.32 99.92,-47.36 95.57,-52.85"/>
</g>
<!-- Node3 -->
<g id="node3" class="node">
<title>Node3</title>
<g id="a_node3"><a xlink:href="SlowReleaseFertilizer_8cpp.html" target="_top" xlink:title="Implements the SlowReleaseFertilizer behaviour defined in the corresponding header.">
<polygon fill="none" stroke="black" points="115,-0.5 115,-19.5 256,-19.5 256,-0.5 115,-0.5"/>
<text text-anchor="middle" x="185.5" y="-7.5" font-family="Helvetica,sans-Serif" font-size="10.00">SlowReleaseFertilizer.cpp</text>
</a>
</g>
</g>
<!-- Node1&#45;&gt;Node3 -->
<g id="edge2" class="edge">
<title>Node1&#45;&gt;Node3</title>
<path fill="none" stroke="midnightblue" d="M135.54,-50.1C147.96,-40.38 163.74,-28.03 174.21,-19.83"/>
<polygon fill="midnightblue" stroke="midnightblue" points="133.3,-47.4 127.59,-56.32 137.62,-52.92 133.3,-47.4"/>
</g>
</g>
</svg>
