<?xml version="1.0" encoding="UTF-8" standalone="no"?>
<!DOCTYPE svg PUBLIC "-//W3C//DTD SVG 1.1//EN"
 "http://www.w3.org/Graphics/SVG/1.1/DTD/svg11.dtd">
<!-- Generated by graphviz version 2.43.0 (0)
 -->
<!-- Title: SparseWatering.cpp Pages: 1 -->
<svg width="568pt" height="252pt"
 viewBox="0.00 0.00 567.50 252.00" xmlns="http://www.w3.org/2000/svg" xmlns:xlink="http://www.w3.org/1999/xlink">
<g id="graph0" class="graph" transform="scale(1 1) rotate(0) translate(4 248)">
<title>SparseWatering.cpp</title>
<!-- Node1 -->
<g id="node1" class="node">
<title>Node1</title>
<g id="a_node1"><a xlink:title="Implements the SparseWatering behaviour defined in the corresponding header.">
<polygon fill="#bfbfbf" stroke="black" points="212.5,-224.5 212.5,-243.5 325.5,-243.5 325.5,-224.5 212.5,-224.5"/>
<text text-anchor="middle" x="269" y="-231.5" font-family="Helvetica,sans-Serif" font-size="10.00">SparseWatering.cpp</text>
</a>
</g>
</g>
<!-- Node2 -->
<g id="node2" class="node">
<title>Node2</title>
<g id="a_node2"><a xlink:href="SparseWatering_8h.html" target="_top" xlink:title="Concrete strategy for sparse watering.">
<polygon fill="none" stroke="black" points="27.5,-168.5 27.5,-187.5 176.5,-187.5 176.5,-168.5 27.5,-168.5"/>
<text text-anchor="middle" x="102" y="-175.5" font-family="Helvetica,sans-Serif" font-size="10.00">../include/SparseWatering.h</text>
</a>
</g>
</g>
<!-- Node1&#45;&gt;Node2 -->
<g id="edge1" class="edge">
<title>Node1&#45;&gt;Node2</title>
<path fill="none" stroke="midnightblue" d="M242.54,-224.44C214.32,-215.32 169.46,-200.81 138.03,-190.65"/>
<polygon fill="midnightblue" stroke="midnightblue" points="138.93,-187.26 128.34,-187.52 136.78,-193.92 138.93,-187.26"/>
</g>
<!-- Node4 -->
<g id="node4" class="node">
<title>Node4</title>
<g id="a_node4"><a xlink:href="PlantInstance_8h.html" target="_top" xlink:title="Represents a single, physical plant in the nursery.">
<polygon fill="none" stroke="black" points="199.5,-168.5 199.5,-187.5 338.5,-187.5 338.5,-168.5 199.5,-168.5"/>
<text text-anchor="middle" x="269" y="-175.5" font-family="Helvetica,sans-Serif" font-size="10.00">../include/PlantInstance.h</text>
</a>
</g>
</g>
<!-- Node1&#45;&gt;Node4 -->
<g id="edge3" class="edge">
<title>Node1&#45;&gt;Node4</title>
<path fill="none" stroke="midnightblue" d="M269,-224.08C269,-217.01 269,-206.86 269,-197.99"/>
<polygon fill="midnightblue" stroke="midnightblue" points="272.5,-197.75 269,-187.75 265.5,-197.75 272.5,-197.75"/>
</g>
<!-- Node13 -->
<g id="node13" class="node">
<title>Node13</title>
<g id="a_node13"><a xlink:title=" ">
<polygon fill="none" stroke="#bfbfbf" points="357,-168.5 357,-187.5 417,-187.5 417,-168.5 357,-168.5"/>
<text text-anchor="middle" x="387" y="-175.5" font-family="Helvetica,sans-Serif" font-size="10.00">iostream</text>
</a>
</g>
</g>
<!-- Node1&#45;&gt;Node13 -->
<g id="edge16" class="edge">
<title>Node1&#45;&gt;Node13</title>
<path fill="none" stroke="midnightblue" d="M287.7,-224.44C306.94,-215.64 337.15,-201.81 359.2,-191.72"/>
<polygon fill="midnightblue" stroke="midnightblue" points="360.75,-194.86 368.39,-187.52 357.84,-188.5 360.75,-194.86"/>
</g>
<!-- Node3 -->
<g id="node3" class="node">
<title>Node3</title>
<g id="a_node3"><a xlink:href="WaterStrategy_8h.html" target="_top" xlink:title="Abstract &#39;Strategy&#39; interface for watering.">
<polygon fill="none" stroke="black" points="0,-112.5 0,-131.5 94,-131.5 94,-112.5 0,-112.5"/>
<text text-anchor="middle" x="47" y="-119.5" font-family="Helvetica,sans-Serif" font-size="10.00">WaterStrategy.h</text>
</a>
</g>
</g>
<!-- Node2&#45;&gt;Node3 -->
<g id="edge2" class="edge">
<title>Node2&#45;&gt;Node3</title>
<path fill="none" stroke="midnightblue" d="M92.92,-168.08C84.83,-160.14 72.8,-148.34 63.09,-138.8"/>
<polygon fill="midnightblue" stroke="midnightblue" points="65.5,-136.26 55.91,-131.75 60.6,-141.25 65.5,-136.26"/>
</g>
<!-- Node5 -->
<g id="node5" class="node">
<title>Node5</title>
<g id="a_node5"><a xlink:href="GreenhouseComponent_8h.html" target="_top" xlink:title="The abstract &#39;Component&#39; interface for the Composite pattern.">
<polygon fill="none" stroke="black" points="150,-112.5 150,-131.5 290,-131.5 290,-112.5 150,-112.5"/>
<text text-anchor="middle" x="220" y="-119.5" font-family="Helvetica,sans-Serif" font-size="10.00">GreenhouseComponent.h</text>
</a>
</g>
</g>
<!-- Node4&#45;&gt;Node5 -->
<g id="edge4" class="edge">
<title>Node4&#45;&gt;Node5</title>
<path fill="none" stroke="midnightblue" d="M260.91,-168.08C253.84,-160.3 243.41,-148.8 234.85,-139.37"/>
<polygon fill="midnightblue" stroke="midnightblue" points="237.25,-136.8 227.94,-131.75 232.07,-141.51 237.25,-136.8"/>
</g>
<!-- Node6 -->
<g id="node6" class="node">
<title>Node6</title>
<g id="a_node6"><a xlink:title=" ">
<polygon fill="none" stroke="#bfbfbf" points="142,-56.5 142,-75.5 200,-75.5 200,-56.5 142,-56.5"/>
<text text-anchor="middle" x="171" y="-63.5" font-family="Helvetica,sans-Serif" font-size="10.00">memory</text>
</a>
</g>
</g>
<!-- Node4&#45;&gt;Node6 -->
<g id="edge14" class="edge">
<title>Node4&#45;&gt;Node6</title>
<path fill="none" stroke="midnightblue" d="M199.17,-168.55C176.9,-162.18 154.55,-151.12 141,-132 130.17,-116.71 142.49,-96.9 154.46,-83.18"/>
<polygon fill="midnightblue" stroke="midnightblue" points="157.35,-85.21 161.65,-75.53 152.25,-80.42 157.35,-85.21"/>
</g>
<!-- Node7 -->
<g id="node7" class="node">
<title>Node7</title>
<g id="a_node7"><a xlink:title=" ">
<polygon fill="none" stroke="#bfbfbf" points="329,-0.5 329,-19.5 373,-19.5 373,-0.5 329,-0.5"/>
<text text-anchor="middle" x="351" y="-7.5" font-family="Helvetica,sans-Serif" font-size="10.00">string</text>
</a>
</g>
</g>
<!-- Node4&#45;&gt;Node7 -->
<g id="edge15" class="edge">
<title>Node4&#45;&gt;Node7</title>
<path fill="none" stroke="midnightblue" d="M275.47,-168.33C281.91,-159.48 291.84,-145.21 299,-132 318,-96.97 335.23,-53.55 344.3,-29.4"/>
<polygon fill="midnightblue" stroke="midnightblue" points="347.68,-30.35 347.86,-19.76 341.11,-27.92 347.68,-30.35"/>
</g>
<!-- Node8 -->
<g id="node8" class="node">
<title>Node8</title>
<g id="a_node8"><a xlink:href="PlantState_8h.html" target="_top" xlink:title="Abstract base class describing the lifecycle state of a plant.">
<polygon fill="none" stroke="black" points="346,-56.5 346,-75.5 422,-75.5 422,-56.5 346,-56.5"/>
<text text-anchor="middle" x="384" y="-63.5" font-family="Helvetica,sans-Serif" font-size="10.00">PlantState.h</text>
</a>
</g>
</g>
<!-- Node4&#45;&gt;Node8 -->
<g id="edge7" class="edge">
<title>Node4&#45;&gt;Node8</title>
<path fill="none" stroke="midnightblue" d="M283.36,-168.36C296.71,-159.97 316.77,-146.42 332,-132 347.52,-117.31 362.46,-97.9 372.31,-84.13"/>
<polygon fill="midnightblue" stroke="midnightblue" points="375.4,-85.82 378.26,-75.62 369.66,-81.81 375.4,-85.82"/>
</g>
<!-- Node9 -->
<g id="node9" class="node">
<title>Node9</title>
<g id="a_node9"><a xlink:href="Subject_8h.html" target="_top" xlink:title="Declares the Subject base that manages observer subscriptions.">
<polygon fill="none" stroke="black" points="425,-112.5 425,-131.5 487,-131.5 487,-112.5 425,-112.5"/>
<text text-anchor="middle" x="456" y="-119.5" font-family="Helvetica,sans-Serif" font-size="10.00">Subject.h</text>
</a>
</g>
</g>
<!-- Node4&#45;&gt;Node9 -->
<g id="edge9" class="edge">
<title>Node4&#45;&gt;Node9</title>
<path fill="none" stroke="midnightblue" d="M298.63,-168.44C330.5,-159.24 381.33,-144.56 416.56,-134.39"/>
<polygon fill="midnightblue" stroke="midnightblue" points="417.87,-137.65 426.51,-131.52 415.93,-130.93 417.87,-137.65"/>
</g>
<!-- Node5&#45;&gt;Node6 -->
<g id="edge5" class="edge">
<title>Node5&#45;&gt;Node6</title>
<path fill="none" stroke="midnightblue" d="M211.91,-112.08C204.84,-104.3 194.41,-92.8 185.85,-83.37"/>
<polygon fill="midnightblue" stroke="midnightblue" points="188.25,-80.8 178.94,-75.75 183.07,-85.51 188.25,-80.8"/>
</g>
<!-- Node5&#45;&gt;Node7 -->
<g id="edge6" class="edge">
<title>Node5&#45;&gt;Node7</title>
<path fill="none" stroke="midnightblue" d="M230.28,-112.37C252.47,-93.73 305.11,-49.53 332.98,-26.13"/>
<polygon fill="midnightblue" stroke="midnightblue" points="335.36,-28.7 340.77,-19.59 330.86,-23.34 335.36,-28.7"/>
</g>
<!-- Node8&#45;&gt;Node7 -->
<g id="edge8" class="edge">
<title>Node8&#45;&gt;Node7</title>
<path fill="none" stroke="midnightblue" d="M378.55,-56.08C373.99,-48.61 367.33,-37.72 361.71,-28.52"/>
<polygon fill="midnightblue" stroke="midnightblue" points="364.55,-26.46 356.35,-19.75 358.58,-30.11 364.55,-26.46"/>
</g>
<!-- Node10 -->
<g id="node10" class="node">
<title>Node10</title>
<g id="a_node10"><a xlink:title=" ">
<polygon fill="none" stroke="#bfbfbf" points="440,-56.5 440,-75.5 472,-75.5 472,-56.5 440,-56.5"/>
<text text-anchor="middle" x="456" y="-63.5" font-family="Helvetica,sans-Serif" font-size="10.00">list</text>
</a>
</g>
</g>
<!-- Node9&#45;&gt;Node10 -->
<g id="edge10" class="edge">
<title>Node9&#45;&gt;Node10</title>
<path fill="none" stroke="midnightblue" d="M456,-112.08C456,-105.01 456,-94.86 456,-85.99"/>
<polygon fill="midnightblue" stroke="midnightblue" points="459.5,-85.75 456,-75.75 452.5,-85.75 459.5,-85.75"/>
</g>
<!-- Node11 -->
<g id="node11" class="node">
<title>Node11</title>
<g id="a_node11"><a xlink:href="Observer_8h.html" target="_top" xlink:title="Declares the Observer contract and shared event payload.">
<polygon fill="none" stroke="black" points="490.5,-56.5 490.5,-75.5 559.5,-75.5 559.5,-56.5 490.5,-56.5"/>
<text text-anchor="middle" x="525" y="-63.5" font-family="Helvetica,sans-Serif" font-size="10.00">Observer.h</text>
</a>
</g>
</g>
<!-- Node9&#45;&gt;Node11 -->
<g id="edge11" class="edge">
<title>Node9&#45;&gt;Node11</title>
<path fill="none" stroke="midnightblue" d="M467.09,-112.32C477.49,-104.18 493.26,-91.84 505.72,-82.09"/>
<polygon fill="midnightblue" stroke="midnightblue" points="507.99,-84.75 513.71,-75.83 503.68,-79.24 507.99,-84.75"/>
</g>
<!-- Node11&#45;&gt;Node7 -->
<g id="edge13" class="edge">
<title>Node11&#45;&gt;Node7</title>
<path fill="none" stroke="midnightblue" d="M497.43,-56.44C466.25,-46.77 415.57,-31.04 382.76,-20.86"/>
<polygon fill="midnightblue" stroke="midnightblue" points="383.78,-17.51 373.2,-17.89 381.71,-24.2 383.78,-17.51"/>
</g>
<!-- Node12 -->
<g id="node12" class="node">
<title>Node12</title>
<g id="a_node12"><a xlink:title=" ">
<polygon fill="none" stroke="#bfbfbf" points="497,-0.5 497,-19.5 553,-19.5 553,-0.5 497,-0.5"/>
<text text-anchor="middle" x="525" y="-7.5" font-family="Helvetica,sans-Serif" font-size="10.00">optional</text>
</a>
</g>
</g>
<!-- Node11&#45;&gt;Node12 -->
<g id="edge12" class="edge">
<title>Node11&#45;&gt;Node12</title>
<path fill="none" stroke="midnightblue" d="M525,-56.08C525,-49.01 525,-38.86 525,-29.99"/>
<polygon fill="midnightblue" stroke="midnightblue" points="528.5,-29.75 525,-19.75 521.5,-29.75 528.5,-29.75"/>
</g>
</g>
</svg>
