<?xml version="1.0" encoding="UTF-8" standalone="no"?>
<!DOCTYPE svg PUBLIC "-//W3C//DTD SVG 1.1//EN"
 "http://www.w3.org/Graphics/SVG/1.1/DTD/svg11.dtd">
<!-- Generated by graphviz version 2.43.0 (0)
 -->
<!-- Title: SparseWatering.h Pages: 1 -->
<svg width="236pt" height="84pt"
 viewBox="0.00 0.00 236.00 84.00" xmlns="http://www.w3.org/2000/svg" xmlns:xlink="http://www.w3.org/1999/xlink">
<g id="graph0" class="graph" transform="scale(1 1) rotate(0) translate(4 80)">
<title>SparseWatering.h</title>
<!-- Node1 -->
<g id="node1" class="node">
<title>Node1</title>
<g id="a_node1"><a xlink:title="Concrete strategy for sparse watering.">
<polygon fill="#bfbfbf" stroke="black" points="58.5,-56.5 58.5,-75.5 160.5,-75.5 160.5,-56.5 58.5,-56.5"/>
<text text-anchor="middle" x="109.5" y="-63.5" font-family="Helvetica,sans-Serif" font-size="10.00">SparseWatering.h</text>
</a>
</g>
</g>
<!-- Node2 -->
<g id="node2" class="node">
<title>Node2</title>
<g id="a_node2"><a xlink:href="SalesFacade_8cpp.html" target="_top" xlink:title="Implements the SalesFacade behaviour defined in the corresponding header.">
<polygon fill="none" stroke="black" points="0,-0.5 0,-19.5 97,-19.5 97,-0.5 0,-0.5"/>
<text text-anchor="middle" x="48.5" y="-7.5" font-family="Helvetica,sans-Serif" font-size="10.00">SalesFacade.cpp</text>
</a>
</g>
</g>
<!-- Node1&#45;&gt;Node2 -->
<g id="edge1" class="edge">
<title>Node1&#45;&gt;Node2</title>
<path fill="none" stroke="midnightblue" d="M92.03,-49.54C81.16,-39.91 67.56,-27.87 58.48,-19.83"/>
<polygon fill="midnightblue" stroke="midnightblue" points="89.89,-52.32 99.7,-56.32 94.53,-47.07 89.89,-52.32"/>
</g>
<!-- Node3 -->
<g id="node3" class="node">
<title>Node3</title>
<g id="a_node3"><a xlink:href="SparseWatering_8cpp.html" target="_top" xlink:title="Implements the SparseWatering behaviour defined in the corresponding header.">
<polygon fill="none" stroke="black" points="115,-0.5 115,-19.5 228,-19.5 228,-0.5 115,-0.5"/>
<text text-anchor="middle" x="171.5" y="-7.5" font-family="Helvetica,sans-Serif" font-size="10.00">SparseWatering.cpp</text>
</a>
</g>
</g>
<!-- Node1&#45;&gt;Node3 -->
<g id="edge2" class="edge">
<title>Node1&#45;&gt;Node3</title>
<path fill="none" stroke="midnightblue" d="M127.25,-49.54C138.31,-39.91 152.13,-27.87 161.36,-19.83"/>
<polygon fill="midnightblue" stroke="midnightblue" points="124.7,-47.12 119.46,-56.32 129.3,-52.4 124.7,-47.12"/>
</g>
</g>
</svg>
