<?xml version="1.0" encoding="UTF-8" standalone="no"?>
<!DOCTYPE svg PUBLIC "-//W3C//DTD SVG 1.1//EN"
 "http://www.w3.org/Graphics/SVG/1.1/DTD/svg11.dtd">
<!-- Generated by graphviz version 2.43.0 (0)
 -->
<!-- Title: Staff.cpp Pages: 1 -->
<!--zoomable 252 -->
<svg id="main" version="1.1" xmlns="http://www.w3.org/2000/svg" xmlns:xlink="http://www.w3.org/1999/xlink" xml:space="preserve" onload="init(evt)">
<style type="text/css"><![CDATA[
.edge:hover path { stroke: red; }
.edge:hover polygon { stroke: red; fill: red; }
]]></style>
<script type="text/javascript"><![CDATA[
var edges = document.getElementsByTagName('g');
if (edges && edges.length) {
  for (var i=0;i<edges.length;i++) {
    if (edges[i].id.substr(0,4)=='edge') {
      edges[i].setAttribute('class','edge');
    }
  }
}
]]></script>
        <defs>
                <circle id="rim" cx="0" cy="0" r="7"/>
                <circle id="rim2" cx="0" cy="0" r="3.5"/>
                <g id="zoomPlus">
                        <use xlink:href="#rim" fill="#404040">
                                <set attributeName="fill" to="#808080" begin="zoomplus.mouseover" end="zoomplus.mouseout"/>
                        </use>
                        <path d="M-4,0h8M0,-4v8" fill="none" stroke="white" stroke-width="1.5" pointer-events="none"/>
                </g>
                <g id="zoomMin">
                        <use xlink:href="#rim" fill="#404040">
                                <set attributeName="fill" to="#808080" begin="zoomminus.mouseover" end="zoomminus.mouseout"/>
                        </use>
                        <path d="M-4,0h8" fill="none" stroke="white" stroke-width="1.5" pointer-events="none"/>
                </g>
                <g id="dirArrow">
                        <path fill="none" stroke="white" stroke-width="1.5" d="M0,-3.0v7 M-2.5,-0.5L0,-3.0L2.5,-0.5"/>
                </g>
               <g id="resetDef">
                       <use xlink:href="#rim2" fill="#404040">
                               <set attributeName="fill" to="#808080" begin="reset.mouseover" end="reset.mouseout"/>
                       </use>
               </g>
        </defs>

<script type="text/javascript">
var viewWidth = 1148;
var viewHeight = 252;
var sectionId = 'dynsection-0';
</script>
<script xlink:href="svgpan.js"/>
<svg id="graph" class="graph">
<g id="viewport">
<title>Staff.cpp</title>
<!-- Node1 -->
<g id="node1" class="node">
<title>Node1</title>
<g id="a_node1"><a xlink:title="Implements the Staff behaviour defined in the corresponding header.">
<polygon fill="#bfbfbf" stroke="black" points="693.5,-224.5 693.5,-243.5 752.5,-243.5 752.5,-224.5 693.5,-224.5"/>
<text text-anchor="middle" x="723" y="-231.5" font-family="Helvetica,sans-Serif" font-size="10.00">Staff.cpp</text>
</a>
</g>
</g>
<!-- Node2 -->
<g id="node2" class="node">
<title>Node2</title>
<g id="a_node2"><a xlink:href="Staff_8h.html" target="_top" xlink:title="Represents a staff member.">
<polygon fill="none" stroke="black" points="270.5,-112.5 270.5,-131.5 365.5,-131.5 365.5,-112.5 270.5,-112.5"/>
<text text-anchor="middle" x="318" y="-119.5" font-family="Helvetica,sans-Serif" font-size="10.00">../include/Staff.h</text>
</a>
</g>
</g>
<!-- Node1&#45;&gt;Node2 -->
<g id="edge1" class="edge">
<title>Node1&#45;&gt;Node2</title>
<path fill="none" stroke="midnightblue" d="M693.44,-227.51C653.23,-219.83 579.17,-204.9 517,-188 457.96,-171.95 390.51,-148.9 351.25,-135"/>
<polygon fill="midnightblue" stroke="midnightblue" points="352.25,-131.64 341.66,-131.59 349.91,-138.24 352.25,-131.64"/>
</g>
<!-- Node5 -->
<g id="node5" class="node">
<title>Node5</title>
<g id="a_node5"><a xlink:title=" ">
<polygon fill="none" stroke="#bfbfbf" points="488,-0.5 488,-19.5 532,-19.5 532,-0.5 488,-0.5"/>
<text text-anchor="middle" x="510" y="-7.5" font-family="Helvetica,sans-Serif" font-size="10.00">string</text>
</a>
</g>
</g>
<!-- Node1&#45;&gt;Node5 -->
<g id="edge31" class="edge">
<title>Node1&#45;&gt;Node5</title>
<path fill="none" stroke="midnightblue" d="M720.12,-224.31C710.35,-196.1 675.82,-106.03 618,-56 596.06,-37.01 564.97,-25.2 541.78,-18.47"/>
<polygon fill="midnightblue" stroke="midnightblue" points="542.63,-15.08 532.06,-15.81 540.78,-21.83 542.63,-15.08"/>
</g>
<!-- Node9 -->
<g id="node9" class="node">
<title>Node9</title>
<g id="a_node9"><a xlink:href="CareRequestHandler_8h.html" target="_top" xlink:title="The &#39;Handler&#39; interface for the Chain of Responsibility.">
<polygon fill="none" stroke="black" points="732.5,-112.5 732.5,-131.5 905.5,-131.5 905.5,-112.5 732.5,-112.5"/>
<text text-anchor="middle" x="819" y="-119.5" font-family="Helvetica,sans-Serif" font-size="10.00">../include/CareRequestHandler.h</text>
</a>
</g>
</g>
<!-- Node1&#45;&gt;Node9 -->
<g id="edge10" class="edge">
<title>Node1&#45;&gt;Node9</title>
<path fill="none" stroke="midnightblue" d="M726.76,-224.33C732.72,-211.19 745.31,-185.89 761,-168 771.31,-156.24 785.07,-145.42 796.59,-137.33"/>
<polygon fill="midnightblue" stroke="midnightblue" points="798.57,-140.22 804.88,-131.71 794.64,-134.43 798.57,-140.22"/>
</g>
<!-- Node10 -->
<g id="node10" class="node">
<title>Node10</title>
<g id="a_node10"><a xlink:href="FloorMediator_8h.html" target="_top" xlink:title="The &#39;Mediator&#39; interface.">
<polygon fill="none" stroke="black" points="770,-168.5 770,-187.5 910,-187.5 910,-168.5 770,-168.5"/>
<text text-anchor="middle" x="840" y="-175.5" font-family="Helvetica,sans-Serif" font-size="10.00">../include/FloorMediator.h</text>
</a>
</g>
</g>
<!-- Node1&#45;&gt;Node10 -->
<g id="edge12" class="edge">
<title>Node1&#45;&gt;Node10</title>
<path fill="none" stroke="midnightblue" d="M741.54,-224.44C760.62,-215.64 790.57,-201.81 812.44,-191.72"/>
<polygon fill="midnightblue" stroke="midnightblue" points="813.93,-194.88 821.55,-187.52 811,-188.53 813.93,-194.88"/>
</g>
<!-- Node11 -->
<g id="node11" class="node">
<title>Node11</title>
<g id="a_node11"><a xlink:href="GreenhouseBed_8h.html" target="_top" xlink:title="The &#39;Composite&#39; class.">
<polygon fill="none" stroke="black" points="526,-168.5 526,-187.5 676,-187.5 676,-168.5 526,-168.5"/>
<text text-anchor="middle" x="601" y="-175.5" font-family="Helvetica,sans-Serif" font-size="10.00">../include/GreenhouseBed.h</text>
</a>
</g>
</g>
<!-- Node1&#45;&gt;Node11 -->
<g id="edge14" class="edge">
<title>Node1&#45;&gt;Node11</title>
<path fill="none" stroke="midnightblue" d="M703.67,-224.44C683.68,-215.6 652.26,-201.69 629.44,-191.59"/>
<polygon fill="midnightblue" stroke="midnightblue" points="630.8,-188.36 620.24,-187.52 627.97,-194.76 630.8,-188.36"/>
</g>
<!-- Node14 -->
<g id="node14" class="node">
<title>Node14</title>
<g id="a_node14"><a xlink:href="PlantCommand_8h.html" target="_top" xlink:title="The &#39;Command&#39; interface.">
<polygon fill="none" stroke="black" points="928,-168.5 928,-187.5 1076,-187.5 1076,-168.5 928,-168.5"/>
<text text-anchor="middle" x="1002" y="-175.5" font-family="Helvetica,sans-Serif" font-size="10.00">../include/PlantCommand.h</text>
</a>
</g>
</g>
<!-- Node1&#45;&gt;Node14 -->
<g id="edge21" class="edge">
<title>Node1&#45;&gt;Node14</title>
<path fill="none" stroke="midnightblue" d="M752.59,-227.27C798.9,-218.31 889.2,-200.83 947.5,-189.55"/>
<polygon fill="midnightblue" stroke="midnightblue" points="948.48,-192.92 957.64,-187.59 947.15,-186.05 948.48,-192.92"/>
</g>
<!-- Node15 -->
<g id="node15" class="node">
<title>Node15</title>
<g id="a_node15"><a xlink:href="PlantInstance_8h.html" target="_top" xlink:title="Represents a single, physical plant in the nursery.">
<polygon fill="none" stroke="black" points="191.5,-168.5 191.5,-187.5 330.5,-187.5 330.5,-168.5 191.5,-168.5"/>
<text text-anchor="middle" x="261" y="-175.5" font-family="Helvetica,sans-Serif" font-size="10.00">../include/PlantInstance.h</text>
</a>
</g>
</g>
<!-- Node1&#45;&gt;Node15 -->
<g id="edge22" class="edge">
<title>Node1&#45;&gt;Node15</title>
<path fill="none" stroke="midnightblue" d="M693.4,-229.54C623.34,-221.35 445.42,-200.56 340.94,-188.34"/>
<polygon fill="midnightblue" stroke="midnightblue" points="341.09,-184.84 330.75,-187.15 340.28,-191.79 341.09,-184.84"/>
</g>
<!-- Node19 -->
<g id="node19" class="node">
<title>Node19</title>
<g id="a_node19"><a xlink:title=" ">
<polygon fill="none" stroke="#bfbfbf" points="1094.5,-168.5 1094.5,-187.5 1139.5,-187.5 1139.5,-168.5 1094.5,-168.5"/>
<text text-anchor="middle" x="1117" y="-175.5" font-family="Helvetica,sans-Serif" font-size="10.00">utility</text>
</a>
</g>
</g>
<!-- Node1&#45;&gt;Node19 -->
<g id="edge32" class="edge">
<title>Node1&#45;&gt;Node19</title>
<path fill="none" stroke="midnightblue" d="M752.81,-230.82C813.43,-226.07 955.55,-213.26 1084.34,-187.83"/>
<polygon fill="midnightblue" stroke="midnightblue" points="1085.26,-191.22 1094.38,-185.82 1083.88,-184.35 1085.26,-191.22"/>
</g>
<!-- Node3 -->
<g id="node3" class="node">
<title>Node3</title>
<g id="a_node3"><a xlink:href="Observer_8h.html" target="_top" xlink:title="Declares the Observer contract and shared event payload.">
<polygon fill="none" stroke="black" points="50.5,-56.5 50.5,-75.5 119.5,-75.5 119.5,-56.5 50.5,-56.5"/>
<text text-anchor="middle" x="85" y="-63.5" font-family="Helvetica,sans-Serif" font-size="10.00">Observer.h</text>
</a>
</g>
</g>
<!-- Node2&#45;&gt;Node3 -->
<g id="edge2" class="edge">
<title>Node2&#45;&gt;Node3</title>
<path fill="none" stroke="midnightblue" d="M281.08,-112.44C240.01,-102.92 173.66,-87.55 129.69,-77.36"/>
<polygon fill="midnightblue" stroke="midnightblue" points="130.38,-73.92 119.84,-75.08 128.8,-80.74 130.38,-73.92"/>
</g>
<!-- Node2&#45;&gt;Node5 -->
<g id="edge7" class="edge">
<title>Node2&#45;&gt;Node5</title>
<path fill="none" stroke="midnightblue" d="M334.33,-112.4C351.15,-103.48 378.06,-89.05 401,-76 431.16,-58.84 465.47,-38.19 487.4,-24.84"/>
<polygon fill="midnightblue" stroke="midnightblue" points="489.28,-27.79 496,-19.6 485.64,-21.82 489.28,-27.79"/>
</g>
<!-- Node6 -->
<g id="node6" class="node">
<title>Node6</title>
<g id="a_node6"><a xlink:href="Colleague_8h.html" target="_top" xlink:title="The &#39;Colleague&#39; interface.">
<polygon fill="none" stroke="black" points="318,-56.5 318,-75.5 392,-75.5 392,-56.5 318,-56.5"/>
<text text-anchor="middle" x="355" y="-63.5" font-family="Helvetica,sans-Serif" font-size="10.00">Colleague.h</text>
</a>
</g>
</g>
<!-- Node2&#45;&gt;Node6 -->
<g id="edge5" class="edge">
<title>Node2&#45;&gt;Node6</title>
<path fill="none" stroke="midnightblue" d="M324.11,-112.08C329.28,-104.53 336.85,-93.49 343.19,-84.23"/>
<polygon fill="midnightblue" stroke="midnightblue" points="346.24,-85.98 349,-75.75 340.46,-82.02 346.24,-85.98"/>
</g>
<!-- Node7 -->
<g id="node7" class="node">
<title>Node7</title>
<g id="a_node7"><a xlink:title=" ">
<polygon fill="none" stroke="#bfbfbf" points="214,-56.5 214,-75.5 300,-75.5 300,-56.5 214,-56.5"/>
<text text-anchor="middle" x="257" y="-63.5" font-family="Helvetica,sans-Serif" font-size="10.00">unordered_set</text>
</a>
</g>
</g>
<!-- Node2&#45;&gt;Node7 -->
<g id="edge8" class="edge">
<title>Node2&#45;&gt;Node7</title>
<path fill="none" stroke="midnightblue" d="M308.2,-112.32C299.18,-104.34 285.59,-92.31 274.68,-82.65"/>
<polygon fill="midnightblue" stroke="midnightblue" points="276.79,-79.84 266.98,-75.83 272.15,-85.08 276.79,-79.84"/>
</g>
<!-- Node8 -->
<g id="node8" class="node">
<title>Node8</title>
<g id="a_node8"><a xlink:title=" ">
<polygon fill="none" stroke="#bfbfbf" points="448.5,-56.5 448.5,-75.5 495.5,-75.5 495.5,-56.5 448.5,-56.5"/>
<text text-anchor="middle" x="472" y="-63.5" font-family="Helvetica,sans-Serif" font-size="10.00">vector</text>
</a>
</g>
</g>
<!-- Node2&#45;&gt;Node8 -->
<g id="edge9" class="edge">
<title>Node2&#45;&gt;Node8</title>
<path fill="none" stroke="midnightblue" d="M342.4,-112.44C368.42,-103.32 409.8,-88.81 438.78,-78.65"/>
<polygon fill="midnightblue" stroke="midnightblue" points="440.19,-81.86 448.47,-75.25 437.88,-75.26 440.19,-81.86"/>
</g>
<!-- Node4 -->
<g id="node4" class="node">
<title>Node4</title>
<g id="a_node4"><a xlink:title=" ">
<polygon fill="none" stroke="#bfbfbf" points="57,-0.5 57,-19.5 113,-19.5 113,-0.5 57,-0.5"/>
<text text-anchor="middle" x="85" y="-7.5" font-family="Helvetica,sans-Serif" font-size="10.00">optional</text>
</a>
</g>
</g>
<!-- Node3&#45;&gt;Node4 -->
<g id="edge3" class="edge">
<title>Node3&#45;&gt;Node4</title>
<path fill="none" stroke="midnightblue" d="M85,-56.08C85,-49.01 85,-38.86 85,-29.99"/>
<polygon fill="midnightblue" stroke="midnightblue" points="88.5,-29.75 85,-19.75 81.5,-29.75 88.5,-29.75"/>
</g>
<!-- Node3&#45;&gt;Node5 -->
<g id="edge4" class="edge">
<title>Node3&#45;&gt;Node5</title>
<path fill="none" stroke="midnightblue" d="M119.75,-58.34C124.53,-57.5 129.38,-56.7 134,-56 260.84,-36.78 412.78,-20.71 477.86,-14.16"/>
<polygon fill="midnightblue" stroke="midnightblue" points="478.3,-17.64 487.9,-13.16 477.6,-10.67 478.3,-17.64"/>
</g>
<!-- Node6&#45;&gt;Node5 -->
<g id="edge6" class="edge">
<title>Node6&#45;&gt;Node5</title>
<path fill="none" stroke="midnightblue" d="M379.56,-56.44C406.13,-47.19 448.61,-32.39 477.83,-22.21"/>
<polygon fill="midnightblue" stroke="midnightblue" points="479.28,-25.41 487.57,-18.82 476.97,-18.8 479.28,-25.41"/>
</g>
<!-- Node9&#45;&gt;Node5 -->
<g id="edge11" class="edge">
<title>Node9&#45;&gt;Node5</title>
<path fill="none" stroke="midnightblue" d="M808.51,-112.41C790.92,-98.43 753.84,-70.83 718,-56 658.65,-31.43 583.97,-19.48 542.16,-14.34"/>
<polygon fill="midnightblue" stroke="midnightblue" points="542.37,-10.84 532.03,-13.15 541.55,-17.79 542.37,-10.84"/>
</g>
<!-- Node10&#45;&gt;Node5 -->
<g id="edge13" class="edge">
<title>Node10&#45;&gt;Node5</title>
<path fill="none" stroke="midnightblue" d="M864.5,-168.38C892.47,-157.15 932.26,-136.09 915,-112 871.03,-50.65 630.46,-22.27 542.35,-13.82"/>
<polygon fill="midnightblue" stroke="midnightblue" points="542.43,-10.31 532.15,-12.87 541.78,-17.28 542.43,-10.31"/>
</g>
<!-- Node11&#45;&gt;Node5 -->
<g id="edge19" class="edge">
<title>Node11&#45;&gt;Node5</title>
<path fill="none" stroke="midnightblue" d="M607.37,-168.23C613.26,-159.53 621.61,-145.57 625,-132 633.77,-96.93 621.51,-81.62 596,-56 580.75,-40.69 559.2,-29.42 541.48,-21.99"/>
<polygon fill="midnightblue" stroke="midnightblue" points="542.69,-18.71 532.1,-18.26 540.1,-25.21 542.69,-18.71"/>
</g>
<!-- Node11&#45;&gt;Node8 -->
<g id="edge18" class="edge">
<title>Node11&#45;&gt;Node8</title>
<path fill="none" stroke="midnightblue" d="M525.75,-172.81C497.69,-167.14 468.45,-155.45 451,-132 440.43,-117.8 449.33,-98.05 458.59,-84.06"/>
<polygon fill="midnightblue" stroke="midnightblue" points="461.52,-85.97 464.52,-75.81 455.84,-81.89 461.52,-85.97"/>
</g>
<!-- Node12 -->
<g id="node12" class="node">
<title>Node12</title>
<g id="a_node12"><a xlink:href="GreenhouseComponent_8h.html" target="_top" xlink:title="The abstract &#39;Component&#39; interface for the Composite pattern.">
<polygon fill="none" stroke="black" points="460,-112.5 460,-131.5 600,-131.5 600,-112.5 460,-112.5"/>
<text text-anchor="middle" x="530" y="-119.5" font-family="Helvetica,sans-Serif" font-size="10.00">GreenhouseComponent.h</text>
</a>
</g>
</g>
<!-- Node11&#45;&gt;Node12 -->
<g id="edge15" class="edge">
<title>Node11&#45;&gt;Node12</title>
<path fill="none" stroke="midnightblue" d="M589.59,-168.32C578.89,-160.18 562.66,-147.84 549.84,-138.09"/>
<polygon fill="midnightblue" stroke="midnightblue" points="551.69,-135.1 541.61,-131.83 547.46,-140.67 551.69,-135.1"/>
</g>
<!-- Node13 -->
<g id="node13" class="node">
<title>Node13</title>
<g id="a_node13"><a xlink:title=" ">
<polygon fill="none" stroke="#bfbfbf" points="514,-56.5 514,-75.5 572,-75.5 572,-56.5 514,-56.5"/>
<text text-anchor="middle" x="543" y="-63.5" font-family="Helvetica,sans-Serif" font-size="10.00">memory</text>
</a>
</g>
</g>
<!-- Node11&#45;&gt;Node13 -->
<g id="edge20" class="edge">
<title>Node11&#45;&gt;Node13</title>
<path fill="none" stroke="midnightblue" d="M605.04,-168.43C610.55,-155.43 618.67,-130.3 609,-112 601.58,-97.95 587.58,-87.47 574.38,-80.17"/>
<polygon fill="midnightblue" stroke="midnightblue" points="575.96,-77.04 565.46,-75.62 572.78,-83.28 575.96,-77.04"/>
</g>
<!-- Node12&#45;&gt;Node5 -->
<g id="edge17" class="edge">
<title>Node12&#45;&gt;Node5</title>
<path fill="none" stroke="midnightblue" d="M545.39,-112.4C564.5,-100.55 593.17,-78.12 581,-56 572.52,-40.58 556.27,-29.7 541.46,-22.51"/>
<polygon fill="midnightblue" stroke="midnightblue" points="542.59,-19.18 532.03,-18.3 539.74,-25.57 542.59,-19.18"/>
</g>
<!-- Node12&#45;&gt;Node13 -->
<g id="edge16" class="edge">
<title>Node12&#45;&gt;Node13</title>
<path fill="none" stroke="midnightblue" d="M532.15,-112.08C533.87,-104.93 536.35,-94.64 538.5,-85.69"/>
<polygon fill="midnightblue" stroke="midnightblue" points="541.96,-86.29 540.89,-75.75 535.15,-84.65 541.96,-86.29"/>
</g>
<!-- Node15&#45;&gt;Node5 -->
<g id="edge30" class="edge">
<title>Node15&#45;&gt;Node5</title>
<path fill="none" stroke="midnightblue" d="M220.85,-168.43C201.03,-161.95 178.86,-150.83 167,-132 151.01,-106.62 184.15,-63.2 194,-56 238.67,-23.33 406.01,-14.24 477.4,-11.83"/>
<polygon fill="midnightblue" stroke="midnightblue" points="477.72,-15.32 487.61,-11.51 477.5,-8.33 477.72,-15.32"/>
</g>
<!-- Node15&#45;&gt;Node12 -->
<g id="edge23" class="edge">
<title>Node15&#45;&gt;Node12</title>
<path fill="none" stroke="midnightblue" d="M303.62,-168.44C350.75,-158.98 426.69,-143.74 477.46,-133.55"/>
<polygon fill="midnightblue" stroke="midnightblue" points="478.46,-136.92 487.58,-131.52 477.08,-130.05 478.46,-136.92"/>
</g>
<!-- Node15&#45;&gt;Node13 -->
<g id="edge29" class="edge">
<title>Node15&#45;&gt;Node13</title>
<path fill="none" stroke="midnightblue" d="M283.13,-168.37C332.96,-148.93 454.11,-101.67 511.65,-79.23"/>
<polygon fill="midnightblue" stroke="midnightblue" points="512.93,-82.49 520.97,-75.59 510.39,-75.96 512.93,-82.49"/>
</g>
<!-- Node16 -->
<g id="node16" class="node">
<title>Node16</title>
<g id="a_node16"><a xlink:href="PlantState_8h.html" target="_top" xlink:title="Abstract base class describing the lifecycle state of a plant.">
<polygon fill="none" stroke="black" points="176,-112.5 176,-131.5 252,-131.5 252,-112.5 176,-112.5"/>
<text text-anchor="middle" x="214" y="-119.5" font-family="Helvetica,sans-Serif" font-size="10.00">PlantState.h</text>
</a>
</g>
</g>
<!-- Node15&#45;&gt;Node16 -->
<g id="edge24" class="edge">
<title>Node15&#45;&gt;Node16</title>
<path fill="none" stroke="midnightblue" d="M253.24,-168.08C246.46,-160.3 236.46,-148.8 228.24,-139.37"/>
<polygon fill="midnightblue" stroke="midnightblue" points="230.82,-137 221.62,-131.75 225.54,-141.59 230.82,-137"/>
</g>
<!-- Node17 -->
<g id="node17" class="node">
<title>Node17</title>
<g id="a_node17"><a xlink:href="Subject_8h.html" target="_top" xlink:title="Declares the Subject base that manages observer subscriptions.">
<polygon fill="none" stroke="black" points="54,-112.5 54,-131.5 116,-131.5 116,-112.5 54,-112.5"/>
<text text-anchor="middle" x="85" y="-119.5" font-family="Helvetica,sans-Serif" font-size="10.00">Subject.h</text>
</a>
</g>
</g>
<!-- Node15&#45;&gt;Node17 -->
<g id="edge26" class="edge">
<title>Node15&#45;&gt;Node17</title>
<path fill="none" stroke="midnightblue" d="M233.11,-168.44C203.25,-159.28 155.69,-144.69 122.54,-134.52"/>
<polygon fill="midnightblue" stroke="midnightblue" points="123.34,-131.1 112.76,-131.52 121.29,-137.8 123.34,-131.1"/>
</g>
<!-- Node16&#45;&gt;Node5 -->
<g id="edge25" class="edge">
<title>Node16&#45;&gt;Node5</title>
<path fill="none" stroke="midnightblue" d="M209.01,-112.23C201.94,-98.5 191.3,-71.87 205,-56 239.93,-15.54 406.04,-10.82 477.35,-10.7"/>
<polygon fill="midnightblue" stroke="midnightblue" points="477.55,-14.2 487.55,-10.72 477.56,-7.2 477.55,-14.2"/>
</g>
<!-- Node17&#45;&gt;Node3 -->
<g id="edge28" class="edge">
<title>Node17&#45;&gt;Node3</title>
<path fill="none" stroke="midnightblue" d="M85,-112.08C85,-105.01 85,-94.86 85,-85.99"/>
<polygon fill="midnightblue" stroke="midnightblue" points="88.5,-85.75 85,-75.75 81.5,-85.75 88.5,-85.75"/>
</g>
<!-- Node18 -->
<g id="node18" class="node">
<title>Node18</title>
<g id="a_node18"><a xlink:title=" ">
<polygon fill="none" stroke="#bfbfbf" points="0,-56.5 0,-75.5 32,-75.5 32,-56.5 0,-56.5"/>
<text text-anchor="middle" x="16" y="-63.5" font-family="Helvetica,sans-Serif" font-size="10.00">list</text>
</a>
</g>
</g>
<!-- Node17&#45;&gt;Node18 -->
<g id="edge27" class="edge">
<title>Node17&#45;&gt;Node18</title>
<path fill="none" stroke="midnightblue" d="M73.91,-112.32C63.51,-104.18 47.74,-91.84 35.28,-82.09"/>
<polygon fill="midnightblue" stroke="midnightblue" points="37.32,-79.24 27.29,-75.83 33.01,-84.75 37.32,-79.24"/>
</g>
</g>
</svg>
        <g id="navigator" transform="translate(0 0)" fill="#404254">
                <rect fill="#f2f5e9" fill-opacity="0.5" stroke="#606060" stroke-width=".5" x="0" y="0" width="60" height="60"/>
                <use id="zoomplus" xlink:href="#zoomPlus" x="17" y="9" onmousedown="handleZoom(evt,'in')"/>
                <use id="zoomminus" xlink:href="#zoomMin" x="42" y="9" onmousedown="handleZoom(evt,'out')"/>
                <use id="reset" xlink:href="#resetDef" x="30" y="36" onmousedown="handleReset()"/>
                <g id="arrowUp" xlink:href="#dirArrow" transform="translate(30 24)" onmousedown="handlePan(0,-1)">
                  <use xlink:href="#rim" fill="#404040">
                        <set attributeName="fill" to="#808080" begin="arrowUp.mouseover" end="arrowUp.mouseout"/>
                  </use>
                  <path fill="none" stroke="white" stroke-width="1.5" d="M0,-3.0v7 M-2.5,-0.5L0,-3.0L2.5,-0.5"/>
                </g>
                <g id="arrowRight" xlink:href="#dirArrow" transform="rotate(90) translate(36 -43)" onmousedown="handlePan(1,0)">
                  <use xlink:href="#rim" fill="#404040">
                        <set attributeName="fill" to="#808080" begin="arrowRight.mouseover" end="arrowRight.mouseout"/>
                  </use>
                  <path fill="none" stroke="white" stroke-width="1.5" d="M0,-3.0v7 M-2.5,-0.5L0,-3.0L2.5,-0.5"/>
                </g>
                <g id="arrowDown" xlink:href="#dirArrow" transform="rotate(180) translate(-30 -48)" onmousedown="handlePan(0,1)">
                  <use xlink:href="#rim" fill="#404040">
                        <set attributeName="fill" to="#808080" begin="arrowDown.mouseover" end="arrowDown.mouseout"/>
                  </use>
                  <path fill="none" stroke="white" stroke-width="1.5" d="M0,-3.0v7 M-2.5,-0.5L0,-3.0L2.5,-0.5"/>
                </g>
                <g id="arrowLeft" xlink:href="#dirArrow" transform="rotate(270) translate(-36 17)" onmousedown="handlePan(-1,0)">
                  <use xlink:href="#rim" fill="#404040">
                        <set attributeName="fill" to="#808080" begin="arrowLeft.mouseover" end="arrowLeft.mouseout"/>
                  </use>
                  <path fill="none" stroke="white" stroke-width="1.5" d="M0,-3.0v7 M-2.5,-0.5L0,-3.0L2.5,-0.5"/>
                </g>
        </g>
        <svg viewBox="0 0 15 15" width="100%" height="30px" preserveAspectRatio="xMaxYMin meet">
         <g id="arrow_out" transform="scale(0.3 0.3)">
          <a xlink:href="Staff_8cpp__incl_org.svg" target="_base">
           <rect id="button" ry="5" rx="5" y="6" x="6" height="38" width="38"
                fill="#f2f5e9" fill-opacity="0.5" stroke="#606060" stroke-width="1.0"/>
           <path id="arrow"
             d="M 11.500037,31.436501 C 11.940474,20.09759 22.043105,11.32322 32.158766,21.979434 L 37.068811,17.246167 C 37.068811,17.246167 37.088388,32 37.088388,32 L 22.160133,31.978069 C 22.160133,31.978069 26.997745,27.140456 26.997745,27.140456 C 18.528582,18.264221 13.291696,25.230495 11.500037,31.436501 z"
             style="fill:#404040;"/>
          </a>
         </g>
        </svg>
</svg>
