<?xml version="1.0" encoding="UTF-8" standalone="no"?>
<!DOCTYPE svg PUBLIC "-//W3C//DTD SVG 1.1//EN"
 "http://www.w3.org/Graphics/SVG/1.1/DTD/svg11.dtd">
<!-- Generated by graphviz version 2.43.0 (0)
 -->
<!-- Title: Staff.h Pages: 1 -->
<svg width="377pt" height="140pt"
 viewBox="0.00 0.00 377.00 140.00" xmlns="http://www.w3.org/2000/svg" xmlns:xlink="http://www.w3.org/1999/xlink">
<g id="graph0" class="graph" transform="scale(1 1) rotate(0) translate(4 136)">
<title>Staff.h</title>
<!-- Node1 -->
<g id="node1" class="node">
<title>Node1</title>
<g id="a_node1"><a xlink:title="Represents a staff member.">
<polygon fill="#bfbfbf" stroke="black" points="138.5,-112.5 138.5,-131.5 186.5,-131.5 186.5,-112.5 138.5,-112.5"/>
<text text-anchor="middle" x="162.5" y="-119.5" font-family="Helvetica,sans-Serif" font-size="10.00">Staff.h</text>
</a>
</g>
</g>
<!-- Node2 -->
<g id="node2" class="node">
<title>Node2</title>
<g id="a_node2"><a xlink:href="Observer_8h.html" target="_top" xlink:title="Declares the Observer contract and shared event payload.">
<polygon fill="none" stroke="black" points="0,-56.5 0,-75.5 69,-75.5 69,-56.5 0,-56.5"/>
<text text-anchor="middle" x="34.5" y="-63.5" font-family="Helvetica,sans-Serif" font-size="10.00">Observer.h</text>
</a>
</g>
</g>
<!-- Node1&#45;&gt;Node2 -->
<g id="edge1" class="edge">
<title>Node1&#45;&gt;Node2</title>
<path fill="none" stroke="midnightblue" d="M142.22,-112.44C121.15,-103.56 87.98,-89.56 64.01,-79.45"/>
<polygon fill="midnightblue" stroke="midnightblue" points="65.26,-76.18 54.69,-75.52 62.54,-82.63 65.26,-76.18"/>
</g>
<!-- Node4 -->
<g id="node4" class="node">
<title>Node4</title>
<g id="a_node4"><a xlink:title=" ">
<polygon fill="none" stroke="#bfbfbf" points="78.5,-0.5 78.5,-19.5 122.5,-19.5 122.5,-0.5 78.5,-0.5"/>
<text text-anchor="middle" x="100.5" y="-7.5" font-family="Helvetica,sans-Serif" font-size="10.00">string</text>
</a>
</g>
</g>
<!-- Node1&#45;&gt;Node4 -->
<g id="edge6" class="edge">
<title>Node1&#45;&gt;Node4</title>
<path fill="none" stroke="midnightblue" d="M150.47,-112.38C139.95,-104.19 125.03,-90.94 116.5,-76 108.31,-61.65 104.28,-43.19 102.32,-29.61"/>
<polygon fill="midnightblue" stroke="midnightblue" points="105.78,-29.06 101.11,-19.55 98.83,-29.9 105.78,-29.06"/>
</g>
<!-- Node5 -->
<g id="node5" class="node">
<title>Node5</title>
<g id="a_node5"><a xlink:href="Colleague_8h.html" target="_top" xlink:title="The &#39;Colleague&#39; interface.">
<polygon fill="none" stroke="black" points="125.5,-56.5 125.5,-75.5 199.5,-75.5 199.5,-56.5 125.5,-56.5"/>
<text text-anchor="middle" x="162.5" y="-63.5" font-family="Helvetica,sans-Serif" font-size="10.00">Colleague.h</text>
</a>
</g>
</g>
<!-- Node1&#45;&gt;Node5 -->
<g id="edge4" class="edge">
<title>Node1&#45;&gt;Node5</title>
<path fill="none" stroke="midnightblue" d="M162.5,-112.08C162.5,-105.01 162.5,-94.86 162.5,-85.99"/>
<polygon fill="midnightblue" stroke="midnightblue" points="166,-85.75 162.5,-75.75 159,-85.75 166,-85.75"/>
</g>
<!-- Node6 -->
<g id="node6" class="node">
<title>Node6</title>
<g id="a_node6"><a xlink:title=" ">
<polygon fill="none" stroke="#bfbfbf" points="217.5,-56.5 217.5,-75.5 303.5,-75.5 303.5,-56.5 217.5,-56.5"/>
<text text-anchor="middle" x="260.5" y="-63.5" font-family="Helvetica,sans-Serif" font-size="10.00">unordered_set</text>
</a>
</g>
</g>
<!-- Node1&#45;&gt;Node6 -->
<g id="edge7" class="edge">
<title>Node1&#45;&gt;Node6</title>
<path fill="none" stroke="midnightblue" d="M178.25,-112.32C193.82,-103.74 217.88,-90.49 235.96,-80.52"/>
<polygon fill="midnightblue" stroke="midnightblue" points="237.72,-83.55 244.79,-75.65 234.35,-77.42 237.72,-83.55"/>
</g>
<!-- Node7 -->
<g id="node7" class="node">
<title>Node7</title>
<g id="a_node7"><a xlink:title=" ">
<polygon fill="none" stroke="#bfbfbf" points="322,-56.5 322,-75.5 369,-75.5 369,-56.5 322,-56.5"/>
<text text-anchor="middle" x="345.5" y="-63.5" font-family="Helvetica,sans-Serif" font-size="10.00">vector</text>
</a>
</g>
</g>
<!-- Node1&#45;&gt;Node7 -->
<g id="edge8" class="edge">
<title>Node1&#45;&gt;Node7</title>
<path fill="none" stroke="midnightblue" d="M186.8,-113.83C219.06,-104.31 276.16,-87.46 312.35,-76.78"/>
<polygon fill="midnightblue" stroke="midnightblue" points="313.37,-80.13 321.97,-73.94 311.39,-73.42 313.37,-80.13"/>
</g>
<!-- Node3 -->
<g id="node3" class="node">
<title>Node3</title>
<g id="a_node3"><a xlink:title=" ">
<polygon fill="none" stroke="#bfbfbf" points="4.5,-0.5 4.5,-19.5 60.5,-19.5 60.5,-0.5 4.5,-0.5"/>
<text text-anchor="middle" x="32.5" y="-7.5" font-family="Helvetica,sans-Serif" font-size="10.00">optional</text>
</a>
</g>
</g>
<!-- Node2&#45;&gt;Node3 -->
<g id="edge2" class="edge">
<title>Node2&#45;&gt;Node3</title>
<path fill="none" stroke="midnightblue" d="M34.17,-56.08C33.91,-49.01 33.53,-38.86 33.2,-29.99"/>
<polygon fill="midnightblue" stroke="midnightblue" points="36.69,-29.61 32.82,-19.75 29.7,-29.87 36.69,-29.61"/>
</g>
<!-- Node2&#45;&gt;Node4 -->
<g id="edge3" class="edge">
<title>Node2&#45;&gt;Node4</title>
<path fill="none" stroke="midnightblue" d="M45.1,-56.32C54.96,-48.26 69.85,-36.08 81.72,-26.37"/>
<polygon fill="midnightblue" stroke="midnightblue" points="84.18,-28.88 89.7,-19.83 79.75,-23.46 84.18,-28.88"/>
</g>
<!-- Node5&#45;&gt;Node4 -->
<g id="edge5" class="edge">
<title>Node5&#45;&gt;Node4</title>
<path fill="none" stroke="midnightblue" d="M152.54,-56.32C143.37,-48.34 129.56,-36.31 118.47,-26.65"/>
<polygon fill="midnightblue" stroke="midnightblue" points="120.48,-23.76 110.64,-19.83 115.88,-29.04 120.48,-23.76"/>
</g>
</g>
</svg>
