<?xml version="1.0" encoding="UTF-8" standalone="no"?>
<!DOCTYPE svg PUBLIC "-//W3C//DTD SVG 1.1//EN"
 "http://www.w3.org/Graphics/SVG/1.1/DTD/svg11.dtd">
<!-- Generated by graphviz version 2.43.0 (0)
 -->
<!-- Title: StockItem.h Pages: 1 -->
<svg width="1430pt" height="140pt"
 viewBox="0.00 0.00 1430.00 140.00" xmlns="http://www.w3.org/2000/svg" xmlns:xlink="http://www.w3.org/1999/xlink">
<g id="graph0" class="graph" transform="scale(1 1) rotate(0) translate(4 136)">
<title>StockItem.h</title>
<!-- Node1 -->
<g id="node1" class="node">
<title>Node1</title>
<g id="a_node1"><a xlink:title="Represents an inventory entry and observes plant availability.">
<polygon fill="#bfbfbf" stroke="black" points="708,-112.5 708,-131.5 783,-131.5 783,-112.5 708,-112.5"/>
<text text-anchor="middle" x="745.5" y="-119.5" font-family="Helvetica,sans-Serif" font-size="10.00">StockItem.h</text>
</a>
</g>
</g>
<!-- Node2 -->
<g id="node2" class="node">
<title>Node2</title>
<g id="a_node2"><a xlink:href="Order_8h.html" target="_top" xlink:title="The complex &#39;Product&#39; of the Builder pattern.">
<polygon fill="none" stroke="black" points="287.5,-56.5 287.5,-75.5 339.5,-75.5 339.5,-56.5 287.5,-56.5"/>
<text text-anchor="middle" x="313.5" y="-63.5" font-family="Helvetica,sans-Serif" font-size="10.00">Order.h</text>
</a>
</g>
</g>
<!-- Node1&#45;&gt;Node2 -->
<g id="edge1" class="edge">
<title>Node1&#45;&gt;Node2</title>
<path fill="none" stroke="midnightblue" d="M697.43,-115.46C626.96,-107.26 491.52,-91.23 376.5,-76 364.34,-74.39 350.88,-72.48 339.54,-70.84"/>
<polygon fill="midnightblue" stroke="midnightblue" points="697.42,-118.98 707.75,-116.66 698.22,-112.03 697.42,-118.98"/>
</g>
<!-- Node3 -->
<g id="node3" class="node">
<title>Node3</title>
<g id="a_node3"><a xlink:href="CustomOrderBuilder_8cpp.html" target="_top" xlink:title="Implements the CustomOrderBuilder behaviour defined in the corresponding header.">
<polygon fill="none" stroke="black" points="0,-0.5 0,-19.5 135,-19.5 135,-0.5 0,-0.5"/>
<text text-anchor="middle" x="67.5" y="-7.5" font-family="Helvetica,sans-Serif" font-size="10.00">CustomOrderBuilder.cpp</text>
</a>
</g>
</g>
<!-- Node1&#45;&gt;Node3 -->
<g id="edge11" class="edge">
<title>Node1&#45;&gt;Node3</title>
<path fill="none" stroke="midnightblue" d="M697.77,-119.59C612.74,-116.37 429.73,-106.26 278.5,-76 208.21,-61.94 128.03,-33.74 89.9,-19.56"/>
<polygon fill="midnightblue" stroke="midnightblue" points="697.77,-123.09 707.89,-119.96 698.03,-116.1 697.77,-123.09"/>
</g>
<!-- Node6 -->
<g id="node6" class="node">
<title>Node6</title>
<g id="a_node6"><a xlink:href="OrderDirector_8cpp.html" target="_top" xlink:title="Implements the OrderDirector behaviour defined in the corresponding header.">
<polygon fill="none" stroke="black" points="351.5,-0.5 351.5,-19.5 453.5,-19.5 453.5,-0.5 351.5,-0.5"/>
<text text-anchor="middle" x="402.5" y="-7.5" font-family="Helvetica,sans-Serif" font-size="10.00">OrderDirector.cpp</text>
</a>
</g>
</g>
<!-- Node1&#45;&gt;Node6 -->
<g id="edge13" class="edge">
<title>Node1&#45;&gt;Node6</title>
<path fill="none" stroke="midnightblue" d="M697.56,-119.1C621.99,-115.26 479.54,-104.4 438.5,-76 418.77,-62.35 408.71,-34.22 404.68,-19.86"/>
<polygon fill="midnightblue" stroke="midnightblue" points="697.6,-122.6 707.76,-119.59 697.94,-115.61 697.6,-122.6"/>
</g>
<!-- Node7 -->
<g id="node7" class="node">
<title>Node7</title>
<g id="a_node7"><a xlink:href="SalesFacade_8cpp.html" target="_top" xlink:title="Implements the SalesFacade behaviour defined in the corresponding header.">
<polygon fill="none" stroke="black" points="472,-0.5 472,-19.5 569,-19.5 569,-0.5 472,-0.5"/>
<text text-anchor="middle" x="520.5" y="-7.5" font-family="Helvetica,sans-Serif" font-size="10.00">SalesFacade.cpp</text>
</a>
</g>
</g>
<!-- Node1&#45;&gt;Node7 -->
<g id="edge14" class="edge">
<title>Node1&#45;&gt;Node7</title>
<path fill="none" stroke="midnightblue" d="M697.67,-121.02C621.8,-119.91 479.19,-112.84 447.5,-76 428.13,-53.49 469.36,-31.38 497.38,-19.64"/>
<polygon fill="midnightblue" stroke="midnightblue" points="697.87,-124.52 707.91,-121.14 697.96,-117.52 697.87,-124.52"/>
</g>
<!-- Node8 -->
<g id="node8" class="node">
<title>Node8</title>
<g id="a_node8"><a xlink:href="ConcreteInventoryIterator_8cpp.html" target="_top" xlink:title="Implements the ConcreteInventoryIterator behaviour defined in the corresponding header.">
<polygon fill="none" stroke="black" points="456.5,-56.5 456.5,-75.5 618.5,-75.5 618.5,-56.5 456.5,-56.5"/>
<text text-anchor="middle" x="537.5" y="-63.5" font-family="Helvetica,sans-Serif" font-size="10.00">ConcreteInventoryIterator.cpp</text>
</a>
</g>
</g>
<!-- Node1&#45;&gt;Node8 -->
<g id="edge7" class="edge">
<title>Node1&#45;&gt;Node8</title>
<path fill="none" stroke="midnightblue" d="M702.72,-109.89C663.44,-99.7 606.07,-84.8 570.3,-75.52"/>
<polygon fill="midnightblue" stroke="midnightblue" points="701.98,-113.32 712.54,-112.44 703.74,-106.54 701.98,-113.32"/>
</g>
<!-- Node9 -->
<g id="node9" class="node">
<title>Node9</title>
<g id="a_node9"><a xlink:href="CSVAdapter_8cpp.html" target="_top" xlink:title="Implements the CSVAdapter behaviour defined in the corresponding header.">
<polygon fill="none" stroke="black" points="637,-56.5 637,-75.5 730,-75.5 730,-56.5 637,-56.5"/>
<text text-anchor="middle" x="683.5" y="-63.5" font-family="Helvetica,sans-Serif" font-size="10.00">CSVAdapter.cpp</text>
</a>
</g>
</g>
<!-- Node1&#45;&gt;Node9 -->
<g id="edge8" class="edge">
<title>Node1&#45;&gt;Node9</title>
<path fill="none" stroke="midnightblue" d="M727.75,-105.54C716.69,-95.91 702.87,-83.87 693.64,-75.83"/>
<polygon fill="midnightblue" stroke="midnightblue" points="725.7,-108.4 735.54,-112.32 730.3,-103.12 725.7,-108.4"/>
</g>
<!-- Node10 -->
<g id="node10" class="node">
<title>Node10</title>
<g id="a_node10"><a xlink:href="CSVReaderWriter_8cpp.html" target="_top" xlink:title="Implements the CSVReaderWriter behaviour defined in the corresponding header.">
<polygon fill="none" stroke="black" points="748.5,-56.5 748.5,-75.5 868.5,-75.5 868.5,-56.5 748.5,-56.5"/>
<text text-anchor="middle" x="808.5" y="-63.5" font-family="Helvetica,sans-Serif" font-size="10.00">CSVReaderWriter.cpp</text>
</a>
</g>
</g>
<!-- Node1&#45;&gt;Node10 -->
<g id="edge9" class="edge">
<title>Node1&#45;&gt;Node10</title>
<path fill="none" stroke="midnightblue" d="M763.54,-105.54C774.77,-95.91 788.82,-83.87 798.19,-75.83"/>
<polygon fill="midnightblue" stroke="midnightblue" points="760.94,-103.16 755.62,-112.32 765.49,-108.47 760.94,-103.16"/>
</g>
<!-- Node11 -->
<g id="node11" class="node">
<title>Node11</title>
<g id="a_node11"><a xlink:href="Customer_8cpp.html" target="_top" xlink:title="Implements the Customer behaviour defined in the corresponding header.">
<polygon fill="none" stroke="black" points="887,-56.5 887,-75.5 970,-75.5 970,-56.5 887,-56.5"/>
<text text-anchor="middle" x="928.5" y="-63.5" font-family="Helvetica,sans-Serif" font-size="10.00">Customer.cpp</text>
</a>
</g>
</g>
<!-- Node1&#45;&gt;Node11 -->
<g id="edge10" class="edge">
<title>Node1&#45;&gt;Node11</title>
<path fill="none" stroke="midnightblue" d="M784.24,-109.57C818.76,-99.38 868.51,-84.7 899.64,-75.52"/>
<polygon fill="midnightblue" stroke="midnightblue" points="783.1,-106.26 774.5,-112.44 785.08,-112.97 783.1,-106.26"/>
</g>
<!-- Node12 -->
<g id="node12" class="node">
<title>Node12</title>
<g id="a_node12"><a xlink:href="Inventory_8cpp.html" target="_top" xlink:title="Implements the Inventory behaviour defined in the corresponding header.">
<polygon fill="none" stroke="black" points="988.5,-56.5 988.5,-75.5 1070.5,-75.5 1070.5,-56.5 988.5,-56.5"/>
<text text-anchor="middle" x="1029.5" y="-63.5" font-family="Helvetica,sans-Serif" font-size="10.00">Inventory.cpp</text>
</a>
</g>
</g>
<!-- Node1&#45;&gt;Node12 -->
<g id="edge12" class="edge">
<title>Node1&#45;&gt;Node12</title>
<path fill="none" stroke="midnightblue" d="M793.35,-111.9C848.06,-101.5 936.7,-84.65 988.41,-74.81"/>
<polygon fill="midnightblue" stroke="midnightblue" points="792.38,-108.52 783.21,-113.83 793.69,-115.4 792.38,-108.52"/>
</g>
<!-- Node13 -->
<g id="node13" class="node">
<title>Node13</title>
<g id="a_node13"><a xlink:href="StockItem_8cpp.html" target="_top" xlink:title="Implements the StockItem behaviour defined in the corresponding header.">
<polygon fill="none" stroke="black" points="1088.5,-56.5 1088.5,-75.5 1174.5,-75.5 1174.5,-56.5 1088.5,-56.5"/>
<text text-anchor="middle" x="1131.5" y="-63.5" font-family="Helvetica,sans-Serif" font-size="10.00">StockItem.cpp</text>
</a>
</g>
</g>
<!-- Node1&#45;&gt;Node13 -->
<g id="edge15" class="edge">
<title>Node1&#45;&gt;Node13</title>
<path fill="none" stroke="midnightblue" d="M793.06,-115.16C857.91,-107.07 977.67,-91.67 1079.5,-76 1082.4,-75.55 1085.38,-75.08 1088.39,-74.59"/>
<polygon fill="midnightblue" stroke="midnightblue" points="792.62,-111.69 783.13,-116.4 793.49,-118.63 792.62,-111.69"/>
</g>
<!-- Node14 -->
<g id="node14" class="node">
<title>Node14</title>
<g id="a_node14"><a xlink:href="TXTAdapter_8cpp.html" target="_top" xlink:title="Implements the TXTAdapter behaviour defined in the corresponding header.">
<polygon fill="none" stroke="black" points="1192.5,-56.5 1192.5,-75.5 1284.5,-75.5 1284.5,-56.5 1192.5,-56.5"/>
<text text-anchor="middle" x="1238.5" y="-63.5" font-family="Helvetica,sans-Serif" font-size="10.00">TXTAdapter.cpp</text>
</a>
</g>
</g>
<!-- Node1&#45;&gt;Node14 -->
<g id="edge16" class="edge">
<title>Node1&#45;&gt;Node14</title>
<path fill="none" stroke="midnightblue" d="M793.41,-117.02C874.09,-110.11 1042.09,-94.82 1183.5,-76 1186.38,-75.62 1189.34,-75.2 1192.32,-74.76"/>
<polygon fill="midnightblue" stroke="midnightblue" points="792.75,-113.57 783.09,-117.9 793.35,-120.54 792.75,-113.57"/>
</g>
<!-- Node15 -->
<g id="node15" class="node">
<title>Node15</title>
<g id="a_node15"><a xlink:href="TXTReaderWriter_8cpp.html" target="_top" xlink:title="Implements the TXTReaderWriter behaviour defined in the corresponding header.">
<polygon fill="none" stroke="black" points="1303,-56.5 1303,-75.5 1422,-75.5 1422,-56.5 1303,-56.5"/>
<text text-anchor="middle" x="1362.5" y="-63.5" font-family="Helvetica,sans-Serif" font-size="10.00">TXTReaderWriter.cpp</text>
</a>
</g>
</g>
<!-- Node1&#45;&gt;Node15 -->
<g id="edge17" class="edge">
<title>Node1&#45;&gt;Node15</title>
<path fill="none" stroke="midnightblue" d="M793.28,-117.85C888.55,-111.39 1108.91,-95.61 1293.5,-76 1296.5,-75.68 1299.58,-75.34 1302.68,-74.98"/>
<polygon fill="midnightblue" stroke="midnightblue" points="792.84,-114.37 783.1,-118.53 793.31,-121.35 792.84,-114.37"/>
</g>
<!-- Node2&#45;&gt;Node3 -->
<g id="edge2" class="edge">
<title>Node2&#45;&gt;Node3</title>
<path fill="none" stroke="midnightblue" d="M277.12,-57.01C231.45,-46.99 153.42,-29.86 106.53,-19.57"/>
<polygon fill="midnightblue" stroke="midnightblue" points="276.66,-60.5 287.17,-59.22 278.16,-53.66 276.66,-60.5"/>
</g>
<!-- Node4 -->
<g id="node4" class="node">
<title>Node4</title>
<g id="a_node4"><a xlink:href="Order_8cpp.html" target="_top" xlink:title="Implements the Order behaviour defined in the corresponding header.">
<polygon fill="none" stroke="black" points="270,-0.5 270,-19.5 333,-19.5 333,-0.5 270,-0.5"/>
<text text-anchor="middle" x="301.5" y="-7.5" font-family="Helvetica,sans-Serif" font-size="10.00">Order.cpp</text>
</a>
</g>
</g>
<!-- Node2&#45;&gt;Node4 -->
<g id="edge3" class="edge">
<title>Node2&#45;&gt;Node4</title>
<path fill="none" stroke="midnightblue" d="M309.3,-46.1C307.31,-37.14 305.02,-26.86 303.44,-19.75"/>
<polygon fill="midnightblue" stroke="midnightblue" points="305.93,-47.08 311.52,-56.08 312.77,-45.56 305.93,-47.08"/>
</g>
<!-- Node5 -->
<g id="node5" class="node">
<title>Node5</title>
<g id="a_node5"><a xlink:href="OrderBuilder_8cpp.html" target="_top" xlink:title="Implements the OrderBuilder behaviour defined in the corresponding header.">
<polygon fill="none" stroke="black" points="153.5,-0.5 153.5,-19.5 251.5,-19.5 251.5,-0.5 153.5,-0.5"/>
<text text-anchor="middle" x="202.5" y="-7.5" font-family="Helvetica,sans-Serif" font-size="10.00">OrderBuilder.cpp</text>
</a>
</g>
</g>
<!-- Node2&#45;&gt;Node5 -->
<g id="edge4" class="edge">
<title>Node2&#45;&gt;Node5</title>
<path fill="none" stroke="midnightblue" d="M286.49,-51.86C265.91,-41.85 238.16,-28.35 220.29,-19.65"/>
<polygon fill="midnightblue" stroke="midnightblue" points="285.14,-55.1 295.67,-56.32 288.2,-48.8 285.14,-55.1"/>
</g>
<!-- Node2&#45;&gt;Node6 -->
<g id="edge5" class="edge">
<title>Node2&#45;&gt;Node6</title>
<path fill="none" stroke="midnightblue" d="M336.74,-50.9C353.06,-41 374.37,-28.07 388.24,-19.65"/>
<polygon fill="midnightblue" stroke="midnightblue" points="334.53,-48.14 327.8,-56.32 338.16,-54.13 334.53,-48.14"/>
</g>
<!-- Node2&#45;&gt;Node7 -->
<g id="edge6" class="edge">
<title>Node2&#45;&gt;Node7</title>
<path fill="none" stroke="midnightblue" d="M349.59,-55.59C388.54,-45.42 450.05,-29.38 487.68,-19.56"/>
<polygon fill="midnightblue" stroke="midnightblue" points="348.51,-52.25 339.72,-58.16 350.28,-59.02 348.51,-52.25"/>
</g>
</g>
</svg>
