<?xml version="1.0" encoding="UTF-8" standalone="no"?>
<!DOCTYPE svg PUBLIC "-//W3C//DTD SVG 1.1//EN"
 "http://www.w3.org/Graphics/SVG/1.1/DTD/svg11.dtd">
<!-- Generated by graphviz version 2.43.0 (0)
 -->
<!-- Title: StockItem.cpp Pages: 1 -->
<svg width="677pt" height="252pt"
 viewBox="0.00 0.00 676.50 252.00" xmlns="http://www.w3.org/2000/svg" xmlns:xlink="http://www.w3.org/1999/xlink">
<g id="graph0" class="graph" transform="scale(1 1) rotate(0) translate(4 248)">
<title>StockItem.cpp</title>
<!-- Node1 -->
<g id="node1" class="node">
<title>Node1</title>
<g id="a_node1"><a xlink:title="Implements the StockItem behaviour defined in the corresponding header.">
<polygon fill="#bfbfbf" stroke="black" points="429,-224.5 429,-243.5 515,-243.5 515,-224.5 429,-224.5"/>
<text text-anchor="middle" x="472" y="-231.5" font-family="Helvetica,sans-Serif" font-size="10.00">StockItem.cpp</text>
</a>
</g>
</g>
<!-- Node2 -->
<g id="node2" class="node">
<title>Node2</title>
<g id="a_node2"><a xlink:href="StockItem_8h.html" target="_top" xlink:title="Represents an inventory entry and observes plant availability.">
<polygon fill="none" stroke="black" points="369,-112.5 369,-131.5 491,-131.5 491,-112.5 369,-112.5"/>
<text text-anchor="middle" x="430" y="-119.5" font-family="Helvetica,sans-Serif" font-size="10.00">../include/StockItem.h</text>
</a>
</g>
</g>
<!-- Node1&#45;&gt;Node2 -->
<g id="edge1" class="edge">
<title>Node1&#45;&gt;Node2</title>
<path fill="none" stroke="midnightblue" d="M448.55,-224.41C432.84,-217.28 413.38,-205.46 404,-188 395.51,-172.19 405.46,-153 415.41,-139.58"/>
<polygon fill="midnightblue" stroke="midnightblue" points="418.21,-141.68 421.75,-131.69 412.75,-137.29 418.21,-141.68"/>
</g>
<!-- Node6 -->
<g id="node6" class="node">
<title>Node6</title>
<g id="a_node6"><a xlink:href="PlantInstance_8h.html" target="_top" xlink:title="Represents a single, physical plant in the nursery.">
<polygon fill="none" stroke="black" points="172.5,-168.5 172.5,-187.5 311.5,-187.5 311.5,-168.5 172.5,-168.5"/>
<text text-anchor="middle" x="242" y="-175.5" font-family="Helvetica,sans-Serif" font-size="10.00">../include/PlantInstance.h</text>
</a>
</g>
</g>
<!-- Node1&#45;&gt;Node6 -->
<g id="edge6" class="edge">
<title>Node1&#45;&gt;Node6</title>
<path fill="none" stroke="midnightblue" d="M435.56,-224.44C395.6,-215.06 331.41,-199.99 288.02,-189.8"/>
<polygon fill="midnightblue" stroke="midnightblue" points="288.81,-186.39 278.27,-187.52 287.21,-193.21 288.81,-186.39"/>
</g>
<!-- Node12 -->
<g id="node12" class="node">
<title>Node12</title>
<g id="a_node12"><a xlink:title=" ">
<polygon fill="none" stroke="#bfbfbf" points="413,-168.5 413,-187.5 463,-187.5 463,-168.5 413,-168.5"/>
<text text-anchor="middle" x="438" y="-175.5" font-family="Helvetica,sans-Serif" font-size="10.00">atomic</text>
</a>
</g>
</g>
<!-- Node1&#45;&gt;Node12 -->
<g id="edge17" class="edge">
<title>Node1&#45;&gt;Node12</title>
<path fill="none" stroke="midnightblue" d="M466.39,-224.08C461.63,-216.53 454.68,-205.49 448.85,-196.23"/>
<polygon fill="midnightblue" stroke="midnightblue" points="451.8,-194.35 443.51,-187.75 445.88,-198.08 451.8,-194.35"/>
</g>
<!-- Node13 -->
<g id="node13" class="node">
<title>Node13</title>
<g id="a_node13"><a xlink:title=" ">
<polygon fill="none" stroke="#bfbfbf" points="481,-168.5 481,-187.5 531,-187.5 531,-168.5 481,-168.5"/>
<text text-anchor="middle" x="506" y="-175.5" font-family="Helvetica,sans-Serif" font-size="10.00">cstdint</text>
</a>
</g>
</g>
<!-- Node1&#45;&gt;Node13 -->
<g id="edge18" class="edge">
<title>Node1&#45;&gt;Node13</title>
<path fill="none" stroke="midnightblue" d="M477.61,-224.08C482.37,-216.53 489.32,-205.49 495.15,-196.23"/>
<polygon fill="midnightblue" stroke="midnightblue" points="498.12,-198.08 500.49,-187.75 492.2,-194.35 498.12,-198.08"/>
</g>
<!-- Node14 -->
<g id="node14" class="node">
<title>Node14</title>
<g id="a_node14"><a xlink:title=" ">
<polygon fill="none" stroke="#bfbfbf" points="549,-168.5 549,-187.5 605,-187.5 605,-168.5 549,-168.5"/>
<text text-anchor="middle" x="577" y="-175.5" font-family="Helvetica,sans-Serif" font-size="10.00">sstream</text>
</a>
</g>
</g>
<!-- Node1&#45;&gt;Node14 -->
<g id="edge19" class="edge">
<title>Node1&#45;&gt;Node14</title>
<path fill="none" stroke="midnightblue" d="M488.87,-224.32C505.71,-215.66 531.81,-202.24 551.24,-192.25"/>
<polygon fill="midnightblue" stroke="midnightblue" points="552.88,-195.34 560.17,-187.65 549.68,-189.12 552.88,-195.34"/>
</g>
<!-- Node15 -->
<g id="node15" class="node">
<title>Node15</title>
<g id="a_node15"><a xlink:title=" ">
<polygon fill="none" stroke="#bfbfbf" points="623.5,-168.5 623.5,-187.5 668.5,-187.5 668.5,-168.5 623.5,-168.5"/>
<text text-anchor="middle" x="646" y="-175.5" font-family="Helvetica,sans-Serif" font-size="10.00">utility</text>
</a>
</g>
</g>
<!-- Node1&#45;&gt;Node15 -->
<g id="edge20" class="edge">
<title>Node1&#45;&gt;Node15</title>
<path fill="none" stroke="midnightblue" d="M499.57,-224.44C530.57,-214.82 580.86,-199.21 613.69,-189.03"/>
<polygon fill="midnightblue" stroke="midnightblue" points="614.76,-192.36 623.27,-186.05 612.68,-185.68 614.76,-192.36"/>
</g>
<!-- Node3 -->
<g id="node3" class="node">
<title>Node3</title>
<g id="a_node3"><a xlink:title=" ">
<polygon fill="none" stroke="#bfbfbf" points="239,-0.5 239,-19.5 283,-19.5 283,-0.5 239,-0.5"/>
<text text-anchor="middle" x="261" y="-7.5" font-family="Helvetica,sans-Serif" font-size="10.00">string</text>
</a>
</g>
</g>
<!-- Node2&#45;&gt;Node3 -->
<g id="edge2" class="edge">
<title>Node2&#45;&gt;Node3</title>
<path fill="none" stroke="midnightblue" d="M431.05,-112.18C432.18,-98.37 432.19,-71.63 418,-56 401.3,-37.6 333.89,-23.31 293.03,-16.12"/>
<polygon fill="midnightblue" stroke="midnightblue" points="293.46,-12.64 283.01,-14.4 292.28,-19.54 293.46,-12.64"/>
</g>
<!-- Node4 -->
<g id="node4" class="node">
<title>Node4</title>
<g id="a_node4"><a xlink:href="Observer_8h.html" target="_top" xlink:title="Declares the Observer contract and shared event payload.">
<polygon fill="none" stroke="black" points="339.5,-56.5 339.5,-75.5 408.5,-75.5 408.5,-56.5 339.5,-56.5"/>
<text text-anchor="middle" x="374" y="-63.5" font-family="Helvetica,sans-Serif" font-size="10.00">Observer.h</text>
</a>
</g>
</g>
<!-- Node2&#45;&gt;Node4 -->
<g id="edge3" class="edge">
<title>Node2&#45;&gt;Node4</title>
<path fill="none" stroke="midnightblue" d="M421,-112.32C412.81,-104.42 400.49,-92.55 390.53,-82.94"/>
<polygon fill="midnightblue" stroke="midnightblue" points="392.79,-80.26 383.16,-75.83 387.93,-85.29 392.79,-80.26"/>
</g>
<!-- Node4&#45;&gt;Node3 -->
<g id="edge5" class="edge">
<title>Node4&#45;&gt;Node3</title>
<path fill="none" stroke="midnightblue" d="M356.09,-56.44C337.75,-47.68 308.99,-33.94 287.91,-23.86"/>
<polygon fill="midnightblue" stroke="midnightblue" points="289.35,-20.67 278.82,-19.52 286.33,-26.99 289.35,-20.67"/>
</g>
<!-- Node5 -->
<g id="node5" class="node">
<title>Node5</title>
<g id="a_node5"><a xlink:title=" ">
<polygon fill="none" stroke="#bfbfbf" points="346,-0.5 346,-19.5 402,-19.5 402,-0.5 346,-0.5"/>
<text text-anchor="middle" x="374" y="-7.5" font-family="Helvetica,sans-Serif" font-size="10.00">optional</text>
</a>
</g>
</g>
<!-- Node4&#45;&gt;Node5 -->
<g id="edge4" class="edge">
<title>Node4&#45;&gt;Node5</title>
<path fill="none" stroke="midnightblue" d="M374,-56.08C374,-49.01 374,-38.86 374,-29.99"/>
<polygon fill="midnightblue" stroke="midnightblue" points="377.5,-29.75 374,-19.75 370.5,-29.75 377.5,-29.75"/>
</g>
<!-- Node6&#45;&gt;Node3 -->
<g id="edge16" class="edge">
<title>Node6&#45;&gt;Node3</title>
<path fill="none" stroke="midnightblue" d="M243.02,-168.08C246.01,-141.95 254.8,-65.21 258.87,-29.58"/>
<polygon fill="midnightblue" stroke="midnightblue" points="262.36,-29.9 260.02,-19.57 255.4,-29.11 262.36,-29.9"/>
</g>
<!-- Node7 -->
<g id="node7" class="node">
<title>Node7</title>
<g id="a_node7"><a xlink:href="GreenhouseComponent_8h.html" target="_top" xlink:title="The abstract &#39;Component&#39; interface for the Composite pattern.">
<polygon fill="none" stroke="black" points="55,-112.5 55,-131.5 195,-131.5 195,-112.5 55,-112.5"/>
<text text-anchor="middle" x="125" y="-119.5" font-family="Helvetica,sans-Serif" font-size="10.00">GreenhouseComponent.h</text>
</a>
</g>
</g>
<!-- Node6&#45;&gt;Node7 -->
<g id="edge7" class="edge">
<title>Node6&#45;&gt;Node7</title>
<path fill="none" stroke="midnightblue" d="M223.46,-168.44C204.38,-159.64 174.43,-145.81 152.56,-135.72"/>
<polygon fill="midnightblue" stroke="midnightblue" points="154,-132.53 143.45,-131.52 151.07,-138.88 154,-132.53"/>
</g>
<!-- Node8 -->
<g id="node8" class="node">
<title>Node8</title>
<g id="a_node8"><a xlink:title=" ">
<polygon fill="none" stroke="#bfbfbf" points="170,-56.5 170,-75.5 228,-75.5 228,-56.5 170,-56.5"/>
<text text-anchor="middle" x="199" y="-63.5" font-family="Helvetica,sans-Serif" font-size="10.00">memory</text>
</a>
</g>
</g>
<!-- Node6&#45;&gt;Node8 -->
<g id="edge15" class="edge">
<title>Node6&#45;&gt;Node8</title>
<path fill="none" stroke="midnightblue" d="M238.63,-168.37C231.62,-150.46 215.39,-108.92 206.02,-84.95"/>
<polygon fill="midnightblue" stroke="midnightblue" points="209.26,-83.63 202.36,-75.59 202.74,-86.18 209.26,-83.63"/>
</g>
<!-- Node9 -->
<g id="node9" class="node">
<title>Node9</title>
<g id="a_node9"><a xlink:href="PlantState_8h.html" target="_top" xlink:title="Abstract base class describing the lifecycle state of a plant.">
<polygon fill="none" stroke="black" points="0,-56.5 0,-75.5 76,-75.5 76,-56.5 0,-56.5"/>
<text text-anchor="middle" x="38" y="-63.5" font-family="Helvetica,sans-Serif" font-size="10.00">PlantState.h</text>
</a>
</g>
</g>
<!-- Node6&#45;&gt;Node9 -->
<g id="edge10" class="edge">
<title>Node6&#45;&gt;Node9</title>
<path fill="none" stroke="midnightblue" d="M172.46,-169.49C123.16,-162.66 62.89,-150.73 46,-132 34.95,-119.74 33.86,-100.48 34.99,-86.1"/>
<polygon fill="midnightblue" stroke="midnightblue" points="38.5,-86.19 36.22,-75.85 31.55,-85.36 38.5,-86.19"/>
</g>
<!-- Node10 -->
<g id="node10" class="node">
<title>Node10</title>
<g id="a_node10"><a xlink:href="Subject_8h.html" target="_top" xlink:title="Declares the Subject base that manages observer subscriptions.">
<polygon fill="none" stroke="black" points="289,-112.5 289,-131.5 351,-131.5 351,-112.5 289,-112.5"/>
<text text-anchor="middle" x="320" y="-119.5" font-family="Helvetica,sans-Serif" font-size="10.00">Subject.h</text>
</a>
</g>
</g>
<!-- Node6&#45;&gt;Node10 -->
<g id="edge12" class="edge">
<title>Node6&#45;&gt;Node10</title>
<path fill="none" stroke="midnightblue" d="M254.53,-168.32C266.59,-159.98 285.03,-147.21 299.27,-137.35"/>
<polygon fill="midnightblue" stroke="midnightblue" points="301.27,-140.22 307.5,-131.65 297.28,-134.47 301.27,-140.22"/>
</g>
<!-- Node7&#45;&gt;Node3 -->
<g id="edge9" class="edge">
<title>Node7&#45;&gt;Node3</title>
<path fill="none" stroke="midnightblue" d="M127.8,-112.28C132.58,-98.62 143.53,-72.07 161,-56 180.35,-38.19 207.93,-26.5 229.23,-19.51"/>
<polygon fill="midnightblue" stroke="midnightblue" points="230.3,-22.84 238.82,-16.54 228.23,-16.16 230.3,-22.84"/>
</g>
<!-- Node7&#45;&gt;Node8 -->
<g id="edge8" class="edge">
<title>Node7&#45;&gt;Node8</title>
<path fill="none" stroke="midnightblue" d="M136.89,-112.32C148.15,-104.11 165.29,-91.6 178.71,-81.81"/>
<polygon fill="midnightblue" stroke="midnightblue" points="180.88,-84.56 186.89,-75.83 176.75,-78.9 180.88,-84.56"/>
</g>
<!-- Node9&#45;&gt;Node3 -->
<g id="edge11" class="edge">
<title>Node9&#45;&gt;Node3</title>
<path fill="none" stroke="midnightblue" d="M73.34,-56.44C116.13,-46.08 187.6,-28.77 228.89,-18.77"/>
<polygon fill="midnightblue" stroke="midnightblue" points="229.81,-22.15 238.7,-16.4 228.16,-15.35 229.81,-22.15"/>
</g>
<!-- Node10&#45;&gt;Node4 -->
<g id="edge14" class="edge">
<title>Node10&#45;&gt;Node4</title>
<path fill="none" stroke="midnightblue" d="M328.92,-112.08C336.78,-104.22 348.43,-92.57 357.92,-83.08"/>
<polygon fill="midnightblue" stroke="midnightblue" points="360.65,-85.3 365.25,-75.75 355.7,-80.35 360.65,-85.3"/>
</g>
<!-- Node11 -->
<g id="node11" class="node">
<title>Node11</title>
<g id="a_node11"><a xlink:title=" ">
<polygon fill="none" stroke="#bfbfbf" points="289,-56.5 289,-75.5 321,-75.5 321,-56.5 289,-56.5"/>
<text text-anchor="middle" x="305" y="-63.5" font-family="Helvetica,sans-Serif" font-size="10.00">list</text>
</a>
</g>
</g>
<!-- Node10&#45;&gt;Node11 -->
<g id="edge13" class="edge">
<title>Node10&#45;&gt;Node11</title>
<path fill="none" stroke="midnightblue" d="M317.52,-112.08C315.51,-104.85 312.61,-94.41 310.11,-85.4"/>
<polygon fill="midnightblue" stroke="midnightblue" points="313.48,-84.45 307.43,-75.75 306.74,-86.32 313.48,-84.45"/>
</g>
</g>
</svg>
