<?xml version="1.0" encoding="UTF-8" standalone="no"?>
<!DOCTYPE svg PUBLIC "-//W3C//DTD SVG 1.1//EN"
 "http://www.w3.org/Graphics/SVG/1.1/DTD/svg11.dtd">
<!-- Generated by graphviz version 2.43.0 (0)
 -->
<!-- Title: StockItem.h Pages: 1 -->
<svg width="128pt" height="140pt"
 viewBox="0.00 0.00 127.50 140.00" xmlns="http://www.w3.org/2000/svg" xmlns:xlink="http://www.w3.org/1999/xlink">
<g id="graph0" class="graph" transform="scale(1 1) rotate(0) translate(4 136)">
<title>StockItem.h</title>
<!-- Node1 -->
<g id="node1" class="node">
<title>Node1</title>
<g id="a_node1"><a xlink:title="Represents an inventory entry and observes plant availability.">
<polygon fill="#bfbfbf" stroke="black" points="15.5,-112.5 15.5,-131.5 90.5,-131.5 90.5,-112.5 15.5,-112.5"/>
<text text-anchor="middle" x="53" y="-119.5" font-family="Helvetica,sans-Serif" font-size="10.00">StockItem.h</text>
</a>
</g>
</g>
<!-- Node2 -->
<g id="node2" class="node">
<title>Node2</title>
<g id="a_node2"><a xlink:title=" ">
<polygon fill="none" stroke="#bfbfbf" points="0,-0.5 0,-19.5 44,-19.5 44,-0.5 0,-0.5"/>
<text text-anchor="middle" x="22" y="-7.5" font-family="Helvetica,sans-Serif" font-size="10.00">string</text>
</a>
</g>
</g>
<!-- Node1&#45;&gt;Node2 -->
<g id="edge1" class="edge">
<title>Node1&#45;&gt;Node2</title>
<path fill="none" stroke="midnightblue" d="M50.57,-112.37C45.54,-94.54 33.92,-53.3 27.15,-29.27"/>
<polygon fill="midnightblue" stroke="midnightblue" points="30.5,-28.27 24.42,-19.59 23.77,-30.17 30.5,-28.27"/>
</g>
<!-- Node3 -->
<g id="node3" class="node">
<title>Node3</title>
<g id="a_node3"><a xlink:href="Observer_8h.html" target="_top" xlink:title="Declares the Observer contract and shared event payload.">
<polygon fill="none" stroke="black" points="50.5,-56.5 50.5,-75.5 119.5,-75.5 119.5,-56.5 50.5,-56.5"/>
<text text-anchor="middle" x="85" y="-63.5" font-family="Helvetica,sans-Serif" font-size="10.00">Observer.h</text>
</a>
</g>
</g>
<!-- Node1&#45;&gt;Node3 -->
<g id="edge2" class="edge">
<title>Node1&#45;&gt;Node3</title>
<path fill="none" stroke="midnightblue" d="M58.28,-112.08C62.71,-104.61 69.16,-93.72 74.62,-84.52"/>
<polygon fill="midnightblue" stroke="midnightblue" points="77.73,-86.14 79.81,-75.75 71.71,-82.57 77.73,-86.14"/>
</g>
<!-- Node3&#45;&gt;Node2 -->
<g id="edge4" class="edge">
<title>Node3&#45;&gt;Node2</title>
<path fill="none" stroke="midnightblue" d="M74.88,-56.32C65.47,-48.26 51.26,-36.08 39.93,-26.37"/>
<polygon fill="midnightblue" stroke="midnightblue" points="42.18,-23.68 32.31,-19.83 37.62,-29 42.18,-23.68"/>
</g>
<!-- Node4 -->
<g id="node4" class="node">
<title>Node4</title>
<g id="a_node4"><a xlink:title=" ">
<polygon fill="none" stroke="#bfbfbf" points="62,-0.5 62,-19.5 118,-19.5 118,-0.5 62,-0.5"/>
<text text-anchor="middle" x="90" y="-7.5" font-family="Helvetica,sans-Serif" font-size="10.00">optional</text>
</a>
</g>
</g>
<!-- Node3&#45;&gt;Node4 -->
<g id="edge3" class="edge">
<title>Node3&#45;&gt;Node4</title>
<path fill="none" stroke="midnightblue" d="M85.83,-56.08C86.48,-49.01 87.42,-38.86 88.24,-29.99"/>
<polygon fill="midnightblue" stroke="midnightblue" points="91.75,-30.03 89.19,-19.75 84.78,-29.39 91.75,-30.03"/>
</g>
</g>
</svg>
