<?xml version="1.0" encoding="UTF-8" standalone="no"?>
<!DOCTYPE svg PUBLIC "-//W3C//DTD SVG 1.1//EN"
 "http://www.w3.org/Graphics/SVG/1.1/DTD/svg11.dtd">
<!-- Generated by graphviz version 2.43.0 (0)
 -->
<!-- Title: ObserverEvent Pages: 1 -->
<svg width="220pt" height="332pt"
 viewBox="0.00 0.00 219.50 332.00" xmlns="http://www.w3.org/2000/svg" xmlns:xlink="http://www.w3.org/1999/xlink">
<g id="graph0" class="graph" transform="scale(1 1) rotate(0) translate(4 328)">
<title>ObserverEvent</title>
<!-- Node1 -->
<g id="node1" class="node">
<title>Node1</title>
<g id="a_node1"><a xlink:title="Describes a notification emitted by a Subject.">
<polygon fill="#bfbfbf" stroke="black" points="53,-0.5 53,-68.5 142,-68.5 142,-0.5 53,-0.5"/>
<text text-anchor="middle" x="97.5" y="-56.5" font-family="Helvetica,sans-Serif" font-size="10.00">ObserverEvent</text>
<polyline fill="none" stroke="black" points="53,-49.5 142,-49.5 "/>
<text text-anchor="start" x="61" y="-37.5" font-family="Helvetica,sans-Serif" font-size="10.00">+ availability</text>
<text text-anchor="start" x="61" y="-26.5" font-family="Helvetica,sans-Serif" font-size="10.00">+ type</text>
<polyline fill="none" stroke="black" points="53,-19.5 142,-19.5 "/>
<text text-anchor="middle" x="97.5" y="-7.5" font-family="Helvetica,sans-Serif" font-size="10.00"> </text>
</a>
</g>
</g>
<!-- Node2 -->
<g id="node2" class="node">
<title>Node2</title>
<g id="a_node2"><a xlink:href="classSubject.html" target="_top" xlink:title=" ">
<polygon fill="none" stroke="black" points="0,-116.5 0,-217.5 109,-217.5 109,-116.5 0,-116.5"/>
<text text-anchor="middle" x="54.5" y="-205.5" font-family="Helvetica,sans-Serif" font-size="10.00">Subject</text>
<polyline fill="none" stroke="black" points="0,-198.5 109,-198.5 "/>
<text text-anchor="middle" x="54.5" y="-186.5" font-family="Helvetica,sans-Serif" font-size="10.00"> </text>
<polyline fill="none" stroke="black" points="0,-179.5 109,-179.5 "/>
<text text-anchor="start" x="8" y="-167.5" font-family="Helvetica,sans-Serif" font-size="10.00">+ ~Subject()</text>
<text text-anchor="start" x="8" y="-156.5" font-family="Helvetica,sans-Serif" font-size="10.00">+ attach()</text>
<text text-anchor="start" x="8" y="-145.5" font-family="Helvetica,sans-Serif" font-size="10.00">+ detach()</text>
<text text-anchor="start" x="8" y="-134.5" font-family="Helvetica,sans-Serif" font-size="10.00"># clearObservers()</text>
<text text-anchor="start" x="8" y="-123.5" font-family="Helvetica,sans-Serif" font-size="10.00"># notify()</text>
</a>
</g>
</g>
<!-- Node2&#45;&gt;Node1 -->
<g id="edge1" class="edge">
<title>Node2&#45;&gt;Node1</title>
<path fill="none" stroke="#404040" d="M65.69,-116.31C68.29,-106.5 71.25,-96.36 74.5,-87 75.32,-84.65 76.19,-82.26 77.12,-79.86"/>
<polygon fill="none" stroke="#404040" points="77.15,-79.79 75.71,-72.73 81.68,-68.68 83.12,-75.75 77.15,-79.79"/>
<text text-anchor="middle" x="96.5" y="-90" font-family="Helvetica,sans-Serif" font-size="10.00"> +source</text>
</g>
<!-- Node3 -->
<g id="node3" class="node">
<title>Node3</title>
<g id="a_node3"><a xlink:title=" ">
<polygon fill="none" stroke="#bfbfbf" points="127,-138.5 127,-195.5 192,-195.5 192,-138.5 127,-138.5"/>
<text text-anchor="middle" x="159.5" y="-183.5" font-family="Helvetica,sans-Serif" font-size="10.00">std::string</text>
<polyline fill="none" stroke="#bfbfbf" points="127,-176.5 192,-176.5 "/>
<text text-anchor="middle" x="159.5" y="-164.5" font-family="Helvetica,sans-Serif" font-size="10.00"> </text>
<polyline fill="none" stroke="#bfbfbf" points="127,-157.5 192,-157.5 "/>
<text text-anchor="middle" x="159.5" y="-145.5" font-family="Helvetica,sans-Serif" font-size="10.00"> </text>
</a>
</g>
</g>
<!-- Node3&#45;&gt;Node1 -->
<g id="edge2" class="edge">
<title>Node3&#45;&gt;Node1</title>
<path fill="none" stroke="#404040" d="M146.35,-138.32C138.27,-121.31 127.73,-99.13 118.51,-79.73"/>
<polygon fill="none" stroke="#404040" points="118.42,-79.52 112.23,-75.82 113.27,-68.68 119.45,-72.39 118.42,-79.52"/>
<text text-anchor="middle" x="154.5" y="-90" font-family="Helvetica,sans-Serif" font-size="10.00"> +message</text>
</g>
<!-- Node4 -->
<g id="node4" class="node">
<title>Node4</title>
<g id="a_node4"><a xlink:title=" ">
<polygon fill="none" stroke="#bfbfbf" points="107.5,-255.5 107.5,-323.5 211.5,-323.5 211.5,-255.5 107.5,-255.5"/>
<text text-anchor="start" x="115.5" y="-311.5" font-family="Helvetica,sans-Serif" font-size="10.00">std::basic_string&lt;</text>
<text text-anchor="middle" x="159.5" y="-300.5" font-family="Helvetica,sans-Serif" font-size="10.00"> Char &gt;</text>
<polyline fill="none" stroke="#bfbfbf" points="107.5,-293.5 211.5,-293.5 "/>
<text text-anchor="middle" x="159.5" y="-281.5" font-family="Helvetica,sans-Serif" font-size="10.00"> </text>
<polyline fill="none" stroke="#bfbfbf" points="107.5,-274.5 211.5,-274.5 "/>
<text text-anchor="middle" x="159.5" y="-262.5" font-family="Helvetica,sans-Serif" font-size="10.00"> </text>
</a>
</g>
</g>
<!-- Node4&#45;&gt;Node3 -->
<g id="edge3" class="edge">
<title>Node4&#45;&gt;Node3</title>
<path fill="none" stroke="midnightblue" d="M159.5,-244.82C159.5,-228.48 159.5,-210.37 159.5,-195.84"/>
<polygon fill="none" stroke="midnightblue" points="156,-245.25 159.5,-255.25 163,-245.25 156,-245.25"/>
</g>
</g>
</svg>
