<?xml version="1.0" encoding="UTF-8" standalone="no"?>
<!DOCTYPE svg PUBLIC "-//W3C//DTD SVG 1.1//EN"
 "http://www.w3.org/Graphics/SVG/1.1/DTD/svg11.dtd">
<!-- Generated by graphviz version 2.43.0 (0)
 -->
<!-- Title: StaffReminder Pages: 1 -->
<svg width="116pt" height="277pt"
 viewBox="0.00 0.00 116.00 277.00" xmlns="http://www.w3.org/2000/svg" xmlns:xlink="http://www.w3.org/1999/xlink">
<g id="graph0" class="graph" transform="scale(1 1) rotate(0) translate(4 273)">
<title>StaffReminder</title>
<!-- Node1 -->
<g id="node1" class="node">
<title>Node1</title>
<g id="a_node1"><a xlink:title=" ">
<polygon fill="#bfbfbf" stroke="black" points="9,-0.5 9,-57.5 95,-57.5 95,-0.5 9,-0.5"/>
<text text-anchor="middle" x="52" y="-45.5" font-family="Helvetica,sans-Serif" font-size="10.00">StaffReminder</text>
<polyline fill="none" stroke="black" points="9,-38.5 95,-38.5 "/>
<text text-anchor="start" x="17" y="-26.5" font-family="Helvetica,sans-Serif" font-size="10.00">+ type</text>
<polyline fill="none" stroke="black" points="9,-19.5 95,-19.5 "/>
<text text-anchor="middle" x="52" y="-7.5" font-family="Helvetica,sans-Serif" font-size="10.00"> </text>
</a>
</g>
</g>
<!-- Node2 -->
<g id="node2" class="node">
<title>Node2</title>
<g id="a_node2"><a xlink:title=" ">
<polygon fill="none" stroke="#bfbfbf" points="19.5,-105.5 19.5,-162.5 84.5,-162.5 84.5,-105.5 19.5,-105.5"/>
<text text-anchor="middle" x="52" y="-150.5" font-family="Helvetica,sans-Serif" font-size="10.00">std::string</text>
<polyline fill="none" stroke="#bfbfbf" points="19.5,-143.5 84.5,-143.5 "/>
<text text-anchor="middle" x="52" y="-131.5" font-family="Helvetica,sans-Serif" font-size="10.00"> </text>
<polyline fill="none" stroke="#bfbfbf" points="19.5,-124.5 84.5,-124.5 "/>
<text text-anchor="middle" x="52" y="-112.5" font-family="Helvetica,sans-Serif" font-size="10.00"> </text>
</a>
</g>
</g>
<!-- Node2&#45;&gt;Node1 -->
<g id="edge1" class="edge">
<title>Node2&#45;&gt;Node1</title>
<path fill="none" stroke="#404040" d="M52,-105.4C52,-94.55 52,-81.87 52,-70.05"/>
<polygon fill="none" stroke="#404040" points="52,-69.68 48,-63.68 52,-57.68 56,-63.68 52,-69.68"/>
<text text-anchor="middle" x="80" y="-79" font-family="Helvetica,sans-Serif" font-size="10.00"> +message</text>
</g>
<!-- Node3 -->
<g id="node3" class="node">
<title>Node3</title>
<g id="a_node3"><a xlink:title=" ">
<polygon fill="none" stroke="#bfbfbf" points="0,-200.5 0,-268.5 104,-268.5 104,-200.5 0,-200.5"/>
<text text-anchor="start" x="8" y="-256.5" font-family="Helvetica,sans-Serif" font-size="10.00">std::basic_string&lt;</text>
<text text-anchor="middle" x="52" y="-245.5" font-family="Helvetica,sans-Serif" font-size="10.00"> Char &gt;</text>
<polyline fill="none" stroke="#bfbfbf" points="0,-238.5 104,-238.5 "/>
<text text-anchor="middle" x="52" y="-226.5" font-family="Helvetica,sans-Serif" font-size="10.00"> </text>
<polyline fill="none" stroke="#bfbfbf" points="0,-219.5 104,-219.5 "/>
<text text-anchor="middle" x="52" y="-207.5" font-family="Helvetica,sans-Serif" font-size="10.00"> </text>
</a>
</g>
</g>
<!-- Node3&#45;&gt;Node2 -->
<g id="edge2" class="edge">
<title>Node3&#45;&gt;Node2</title>
<path fill="none" stroke="midnightblue" d="M52,-190.38C52,-180.94 52,-171.2 52,-162.57"/>
<polygon fill="none" stroke="midnightblue" points="48.5,-190.43 52,-200.43 55.5,-190.43 48.5,-190.43"/>
</g>
</g>
</svg>
