<?xml version="1.0" encoding="UTF-8" standalone="no"?>
<!DOCTYPE svg PUBLIC "-//W3C//DTD SVG 1.1//EN"
 "http://www.w3.org/Graphics/SVG/1.1/DTD/svg11.dtd">
<!-- Generated by graphviz version 2.43.0 (0)
 -->
<!-- Title: Subject.cpp Pages: 1 -->
<svg width="251pt" height="196pt"
 viewBox="0.00 0.00 251.00 196.00" xmlns="http://www.w3.org/2000/svg" xmlns:xlink="http://www.w3.org/1999/xlink">
<g id="graph0" class="graph" transform="scale(1 1) rotate(0) translate(4 192)">
<title>Subject.cpp</title>
<!-- Node1 -->
<g id="node1" class="node">
<title>Node1</title>
<g id="a_node1"><a xlink:title="Implements the Subject behaviour defined in the corresponding header.">
<polygon fill="#bfbfbf" stroke="black" points="114.5,-168.5 114.5,-187.5 187.5,-187.5 187.5,-168.5 114.5,-168.5"/>
<text text-anchor="middle" x="151" y="-175.5" font-family="Helvetica,sans-Serif" font-size="10.00">Subject.cpp</text>
</a>
</g>
</g>
<!-- Node2 -->
<g id="node2" class="node">
<title>Node2</title>
<g id="a_node2"><a xlink:href="Subject_8h.html" target="_top" xlink:title="Declares the Subject base that manages observer subscriptions.">
<polygon fill="none" stroke="black" points="13.5,-112.5 13.5,-131.5 122.5,-131.5 122.5,-112.5 13.5,-112.5"/>
<text text-anchor="middle" x="68" y="-119.5" font-family="Helvetica,sans-Serif" font-size="10.00">../include/Subject.h</text>
</a>
</g>
</g>
<!-- Node1&#45;&gt;Node2 -->
<g id="edge1" class="edge">
<title>Node1&#45;&gt;Node2</title>
<path fill="none" stroke="midnightblue" d="M137.66,-168.32C124.84,-159.98 105.22,-147.21 90.06,-137.35"/>
<polygon fill="midnightblue" stroke="midnightblue" points="91.59,-134.17 81.3,-131.65 87.78,-140.04 91.59,-134.17"/>
</g>
<!-- Node5 -->
<g id="node5" class="node">
<title>Node5</title>
<g id="a_node5"><a xlink:title=" ">
<polygon fill="none" stroke="#bfbfbf" points="123,-0.5 123,-19.5 179,-19.5 179,-0.5 123,-0.5"/>
<text text-anchor="middle" x="151" y="-7.5" font-family="Helvetica,sans-Serif" font-size="10.00">optional</text>
</a>
</g>
</g>
<!-- Node1&#45;&gt;Node5 -->
<g id="edge7" class="edge">
<title>Node1&#45;&gt;Node5</title>
<path fill="none" stroke="midnightblue" d="M151,-168.08C151,-141.95 151,-65.21 151,-29.58"/>
<polygon fill="midnightblue" stroke="midnightblue" points="154.5,-29.57 151,-19.57 147.5,-29.57 154.5,-29.57"/>
</g>
<!-- Node7 -->
<g id="node7" class="node">
<title>Node7</title>
<g id="a_node7"><a xlink:title=" ">
<polygon fill="none" stroke="#bfbfbf" points="179,-112.5 179,-131.5 243,-131.5 243,-112.5 179,-112.5"/>
<text text-anchor="middle" x="211" y="-119.5" font-family="Helvetica,sans-Serif" font-size="10.00">algorithm</text>
</a>
</g>
</g>
<!-- Node1&#45;&gt;Node7 -->
<g id="edge6" class="edge">
<title>Node1&#45;&gt;Node7</title>
<path fill="none" stroke="midnightblue" d="M160.64,-168.32C169.51,-160.34 182.87,-148.31 193.61,-138.65"/>
<polygon fill="midnightblue" stroke="midnightblue" points="196.09,-141.13 201.18,-131.83 191.41,-135.92 196.09,-141.13"/>
</g>
<!-- Node3 -->
<g id="node3" class="node">
<title>Node3</title>
<g id="a_node3"><a xlink:title=" ">
<polygon fill="none" stroke="#bfbfbf" points="0,-56.5 0,-75.5 32,-75.5 32,-56.5 0,-56.5"/>
<text text-anchor="middle" x="16" y="-63.5" font-family="Helvetica,sans-Serif" font-size="10.00">list</text>
</a>
</g>
</g>
<!-- Node2&#45;&gt;Node3 -->
<g id="edge2" class="edge">
<title>Node2&#45;&gt;Node3</title>
<path fill="none" stroke="midnightblue" d="M59.41,-112.08C51.84,-104.22 40.62,-92.57 31.49,-83.08"/>
<polygon fill="midnightblue" stroke="midnightblue" points="33.88,-80.53 24.43,-75.75 28.84,-85.38 33.88,-80.53"/>
</g>
<!-- Node4 -->
<g id="node4" class="node">
<title>Node4</title>
<g id="a_node4"><a xlink:href="Observer_8h.html" target="_top" xlink:title="Declares the Observer contract and shared event payload.">
<polygon fill="none" stroke="black" points="50.5,-56.5 50.5,-75.5 119.5,-75.5 119.5,-56.5 50.5,-56.5"/>
<text text-anchor="middle" x="85" y="-63.5" font-family="Helvetica,sans-Serif" font-size="10.00">Observer.h</text>
</a>
</g>
</g>
<!-- Node2&#45;&gt;Node4 -->
<g id="edge3" class="edge">
<title>Node2&#45;&gt;Node4</title>
<path fill="none" stroke="midnightblue" d="M70.81,-112.08C73.08,-104.85 76.37,-94.41 79.21,-85.4"/>
<polygon fill="midnightblue" stroke="midnightblue" points="82.58,-86.34 82.25,-75.75 75.9,-84.24 82.58,-86.34"/>
</g>
<!-- Node4&#45;&gt;Node5 -->
<g id="edge4" class="edge">
<title>Node4&#45;&gt;Node5</title>
<path fill="none" stroke="midnightblue" d="M95.6,-56.32C105.46,-48.26 120.35,-36.08 132.22,-26.37"/>
<polygon fill="midnightblue" stroke="midnightblue" points="134.68,-28.88 140.2,-19.83 130.25,-23.46 134.68,-28.88"/>
</g>
<!-- Node6 -->
<g id="node6" class="node">
<title>Node6</title>
<g id="a_node6"><a xlink:title=" ">
<polygon fill="none" stroke="#bfbfbf" points="61,-0.5 61,-19.5 105,-19.5 105,-0.5 61,-0.5"/>
<text text-anchor="middle" x="83" y="-7.5" font-family="Helvetica,sans-Serif" font-size="10.00">string</text>
</a>
</g>
</g>
<!-- Node4&#45;&gt;Node6 -->
<g id="edge5" class="edge">
<title>Node4&#45;&gt;Node6</title>
<path fill="none" stroke="midnightblue" d="M84.67,-56.08C84.41,-49.01 84.03,-38.86 83.7,-29.99"/>
<polygon fill="midnightblue" stroke="midnightblue" points="87.19,-29.61 83.32,-19.75 80.2,-29.87 87.19,-29.61"/>
</g>
</g>
</svg>
