<?xml version="1.0" encoding="UTF-8" standalone="no"?>
<!DOCTYPE svg PUBLIC "-//W3C//DTD SVG 1.1//EN"
 "http://www.w3.org/Graphics/SVG/1.1/DTD/svg11.dtd">
<!-- Generated by graphviz version 2.43.0 (0)
 -->
<!-- Title: TXTAdapter.cpp Pages: 1 -->
<!--zoomable 263 -->
<svg id="main" version="1.1" xmlns="http://www.w3.org/2000/svg" xmlns:xlink="http://www.w3.org/1999/xlink" xml:space="preserve" onload="init(evt)">
<style type="text/css"><![CDATA[
.edge:hover path { stroke: red; }
.edge:hover polygon { stroke: red; fill: red; }
]]></style>
<script type="text/javascript"><![CDATA[
var edges = document.getElementsByTagName('g');
if (edges && edges.length) {
  for (var i=0;i<edges.length;i++) {
    if (edges[i].id.substr(0,4)=='edge') {
      edges[i].setAttribute('class','edge');
    }
  }
}
]]></script>
        <defs>
                <circle id="rim" cx="0" cy="0" r="7"/>
                <circle id="rim2" cx="0" cy="0" r="3.5"/>
                <g id="zoomPlus">
                        <use xlink:href="#rim" fill="#404040">
                                <set attributeName="fill" to="#808080" begin="zoomplus.mouseover" end="zoomplus.mouseout"/>
                        </use>
                        <path d="M-4,0h8M0,-4v8" fill="none" stroke="white" stroke-width="1.5" pointer-events="none"/>
                </g>
                <g id="zoomMin">
                        <use xlink:href="#rim" fill="#404040">
                                <set attributeName="fill" to="#808080" begin="zoomminus.mouseover" end="zoomminus.mouseout"/>
                        </use>
                        <path d="M-4,0h8" fill="none" stroke="white" stroke-width="1.5" pointer-events="none"/>
                </g>
                <g id="dirArrow">
                        <path fill="none" stroke="white" stroke-width="1.5" d="M0,-3.0v7 M-2.5,-0.5L0,-3.0L2.5,-0.5"/>
                </g>
               <g id="resetDef">
                       <use xlink:href="#rim2" fill="#404040">
                               <set attributeName="fill" to="#808080" begin="reset.mouseover" end="reset.mouseout"/>
                       </use>
               </g>
        </defs>

<script type="text/javascript">
var viewWidth = 1868;
var viewHeight = 263;
var sectionId = 'dynsection-0';
</script>
<script xlink:href="svgpan.js"/>
<svg id="graph" class="graph">
<g id="viewport">
<title>TXTAdapter.cpp</title>
<!-- Node1 -->
<g id="node1" class="node">
<title>Node1</title>
<g id="a_node1"><a xlink:title="Implements the TXTAdapter behaviour defined in the corresponding header.">
<polygon fill="#bfbfbf" stroke="black" points="905,-235.5 905,-254.5 997,-254.5 997,-235.5 905,-235.5"/>
<text text-anchor="middle" x="951" y="-242.5" font-family="Helvetica,sans-Serif" font-size="10.00">TXTAdapter.cpp</text>
</a>
</g>
</g>
<!-- Node2 -->
<g id="node2" class="node">
<title>Node2</title>
<g id="a_node2"><a xlink:href="TXTAdapter_8h.html" target="_top" xlink:title="&#39;Adapter&#39; class that adapts TXTReaderWriter to FileAdapter.">
<polygon fill="none" stroke="black" points="999,-118 999,-137 1127,-137 1127,-118 999,-118"/>
<text text-anchor="middle" x="1063" y="-125" font-family="Helvetica,sans-Serif" font-size="10.00">../include/TXTAdapter.h</text>
</a>
</g>
</g>
<!-- Node1&#45;&gt;Node2 -->
<g id="edge1" class="edge">
<title>Node1&#45;&gt;Node2</title>
<path fill="none" stroke="midnightblue" d="M965.85,-235.44C979.36,-227.2 999.36,-213.83 1014,-199 1029.98,-182.82 1044.32,-160.88 1053.29,-145.8"/>
<polygon fill="midnightblue" stroke="midnightblue" points="1056.4,-147.41 1058.38,-137.01 1050.34,-143.91 1056.4,-147.41"/>
</g>
<!-- Node5 -->
<g id="node5" class="node">
<title>Node5</title>
<g id="a_node5"><a xlink:title=" ">
<polygon fill="none" stroke="#bfbfbf" points="905,-56.5 905,-75.5 963,-75.5 963,-56.5 905,-56.5"/>
<text text-anchor="middle" x="934" y="-63.5" font-family="Helvetica,sans-Serif" font-size="10.00">memory</text>
</a>
</g>
</g>
<!-- Node1&#45;&gt;Node5 -->
<g id="edge55" class="edge">
<title>Node1&#45;&gt;Node5</title>
<path fill="none" stroke="midnightblue" d="M958.67,-235.46C965.78,-226.93 975.85,-213.09 980,-199 982.51,-190.47 981.72,-187.72 980,-179 973.08,-143.93 955.05,-106.03 943.73,-84.53"/>
<polygon fill="midnightblue" stroke="midnightblue" points="946.76,-82.77 938.93,-75.63 940.6,-86.09 946.76,-82.77"/>
</g>
<!-- Node6 -->
<g id="node6" class="node">
<title>Node6</title>
<g id="a_node6"><a xlink:href="TXTReaderWriter_8h.html" target="_top" xlink:title="The &#39;Adaptee&#39; class for reading/writing TXT files.">
<polygon fill="none" stroke="black" points="1365.5,-118 1365.5,-137 1520.5,-137 1520.5,-118 1365.5,-118"/>
<text text-anchor="middle" x="1443" y="-125" font-family="Helvetica,sans-Serif" font-size="10.00">../include/TXTReaderWriter.h</text>
</a>
</g>
</g>
<!-- Node1&#45;&gt;Node6 -->
<g id="edge6" class="edge">
<title>Node1&#45;&gt;Node6</title>
<path fill="none" stroke="midnightblue" d="M979.72,-235.45C1007.99,-226.86 1052.29,-212.93 1090,-199 1111.68,-190.99 1115.78,-185.37 1138,-179 1232.4,-151.93 1259.12,-159.07 1356,-143 1364.36,-141.61 1373.17,-140.15 1381.85,-138.7"/>
<polygon fill="midnightblue" stroke="midnightblue" points="1382.65,-142.12 1391.94,-137.02 1381.5,-135.21 1382.65,-142.12"/>
</g>
<!-- Node8 -->
<g id="node8" class="node">
<title>Node8</title>
<g id="a_node8"><a xlink:href="Inventory_8h.html" target="_top" xlink:title="The &#39;ConcreteAggregate&#39; class.">
<polygon fill="none" stroke="black" points="1539,-118 1539,-137 1657,-137 1657,-118 1539,-118"/>
<text text-anchor="middle" x="1598" y="-125" font-family="Helvetica,sans-Serif" font-size="10.00">../include/Inventory.h</text>
</a>
</g>
</g>
<!-- Node1&#45;&gt;Node8 -->
<g id="edge9" class="edge">
<title>Node1&#45;&gt;Node8</title>
<path fill="none" stroke="midnightblue" d="M993.47,-235.43C1029.72,-227.59 1082.98,-214.81 1128,-199 1148.27,-191.88 1151.26,-184.59 1172,-179 1326.4,-137.36 1372.01,-167.71 1530,-143 1536.89,-141.92 1544.14,-140.59 1551.22,-139.18"/>
<polygon fill="midnightblue" stroke="midnightblue" points="1552.35,-142.52 1561.43,-137.07 1550.93,-135.66 1552.35,-142.52"/>
</g>
<!-- Node12 -->
<g id="node12" class="node">
<title>Node12</title>
<g id="a_node12"><a xlink:href="StockItem_8h.html" target="_top" xlink:title="Represents an inventory entry and observes plant availability.">
<polygon fill="none" stroke="black" points="1225,-118 1225,-137 1347,-137 1347,-118 1225,-118"/>
<text text-anchor="middle" x="1286" y="-125" font-family="Helvetica,sans-Serif" font-size="10.00">../include/StockItem.h</text>
</a>
</g>
</g>
<!-- Node1&#45;&gt;Node12 -->
<g id="edge16" class="edge">
<title>Node1&#45;&gt;Node12</title>
<path fill="none" stroke="midnightblue" d="M968.55,-235.34C996.07,-221.99 1051.28,-196.14 1100,-179 1146.22,-162.74 1200.41,-148.56 1238.34,-139.4"/>
<polygon fill="midnightblue" stroke="midnightblue" points="1239.19,-142.8 1248.1,-137.07 1237.56,-135.99 1239.19,-142.8"/>
</g>
<!-- Node15 -->
<g id="node15" class="node">
<title>Node15</title>
<g id="a_node15"><a xlink:href="InventoryIterator_8h.html" target="_top" xlink:title="The &#39;Iterator&#39; interface.">
<polygon fill="none" stroke="black" points="1180.5,-179.5 1180.5,-198.5 1335.5,-198.5 1335.5,-179.5 1180.5,-179.5"/>
<text text-anchor="middle" x="1258" y="-186.5" font-family="Helvetica,sans-Serif" font-size="10.00">../include/InventoryIterator.h</text>
</a>
</g>
</g>
<!-- Node1&#45;&gt;Node15 -->
<g id="edge21" class="edge">
<title>Node1&#45;&gt;Node15</title>
<path fill="none" stroke="midnightblue" d="M997.29,-235.86C1051.37,-226.35 1140.9,-210.6 1199.67,-200.26"/>
<polygon fill="midnightblue" stroke="midnightblue" points="1200.31,-203.7 1209.55,-198.52 1199.1,-196.81 1200.31,-203.7"/>
</g>
<!-- Node16 -->
<g id="node16" class="node">
<title>Node16</title>
<g id="a_node16"><a xlink:href="PlantPrototypeRegistry_8h.html" target="_top" xlink:title="Manages a set of clonable plant prototypes.">
<polygon fill="none" stroke="black" points="573,-112.5 573,-142.5 709,-142.5 709,-112.5 573,-112.5"/>
<text text-anchor="start" x="581" y="-130.5" font-family="Helvetica,sans-Serif" font-size="10.00">../include/PlantPrototype</text>
<text text-anchor="middle" x="641" y="-119.5" font-family="Helvetica,sans-Serif" font-size="10.00">Registry.h</text>
</a>
</g>
</g>
<!-- Node1&#45;&gt;Node16 -->
<g id="edge22" class="edge">
<title>Node1&#45;&gt;Node16</title>
<path fill="none" stroke="midnightblue" d="M923.08,-235.49C896.85,-227.19 856.68,-213.69 823,-199 805.51,-191.37 802.5,-186.62 785,-179 756.23,-166.47 723.25,-154.72 696.12,-145.71"/>
<polygon fill="midnightblue" stroke="midnightblue" points="697.01,-142.32 686.41,-142.52 694.82,-148.97 697.01,-142.32"/>
</g>
<!-- Node18 -->
<g id="node18" class="node">
<title>Node18</title>
<g id="a_node18"><a xlink:href="PlantInstance_8h.html" target="_top" xlink:title="Represents a single, physical plant in the nursery.">
<polygon fill="none" stroke="black" points="832.5,-179.5 832.5,-198.5 971.5,-198.5 971.5,-179.5 832.5,-179.5"/>
<text text-anchor="middle" x="902" y="-186.5" font-family="Helvetica,sans-Serif" font-size="10.00">../include/PlantInstance.h</text>
</a>
</g>
</g>
<!-- Node1&#45;&gt;Node18 -->
<g id="edge26" class="edge">
<title>Node1&#45;&gt;Node18</title>
<path fill="none" stroke="midnightblue" d="M942.91,-235.08C935.84,-227.3 925.41,-215.8 916.85,-206.37"/>
<polygon fill="midnightblue" stroke="midnightblue" points="919.25,-203.8 909.94,-198.75 914.07,-208.51 919.25,-203.8"/>
</g>
<!-- Node20 -->
<g id="node20" class="node">
<title>Node20</title>
<g id="a_node20"><a xlink:href="PlantState_8h.html" target="_top" xlink:title="Abstract base class describing the lifecycle state of a plant.">
<polygon fill="none" stroke="black" points="365,-118 365,-137 441,-137 441,-118 365,-118"/>
<text text-anchor="middle" x="403" y="-125" font-family="Helvetica,sans-Serif" font-size="10.00">PlantState.h</text>
</a>
</g>
</g>
<!-- Node1&#45;&gt;Node20 -->
<g id="edge37" class="edge">
<title>Node1&#45;&gt;Node20</title>
<path fill="none" stroke="midnightblue" d="M904.54,-244.2C766.52,-244.33 366.12,-241.04 327,-199 307.17,-177.69 342.73,-155.17 371.6,-141.47"/>
<polygon fill="midnightblue" stroke="midnightblue" points="373.39,-144.5 381.05,-137.18 370.5,-138.13 373.39,-144.5"/>
</g>
<!-- Node23 -->
<g id="node23" class="node">
<title>Node23</title>
<g id="a_node23"><a xlink:href="SeedState_8h.html" target="_top" xlink:title="Concrete state representing a seed.">
<polygon fill="none" stroke="black" points="0,-179.5 0,-198.5 122,-198.5 122,-179.5 0,-179.5"/>
<text text-anchor="middle" x="61" y="-186.5" font-family="Helvetica,sans-Serif" font-size="10.00">../include/SeedState.h</text>
</a>
</g>
</g>
<!-- Node1&#45;&gt;Node23 -->
<g id="edge38" class="edge">
<title>Node1&#45;&gt;Node23</title>
<path fill="none" stroke="midnightblue" d="M904.68,-242.64C781.05,-238.77 432.84,-226.21 132.28,-199.05"/>
<polygon fill="midnightblue" stroke="midnightblue" points="132.33,-195.54 122.05,-198.12 131.7,-202.51 132.33,-195.54"/>
</g>
<!-- Node24 -->
<g id="node24" class="node">
<title>Node24</title>
<g id="a_node24"><a xlink:href="GrowingState_8h.html" target="_top" xlink:title="Concrete state representing a growing plant.">
<polygon fill="none" stroke="black" points="140.5,-179.5 140.5,-198.5 279.5,-198.5 279.5,-179.5 140.5,-179.5"/>
<text text-anchor="middle" x="210" y="-186.5" font-family="Helvetica,sans-Serif" font-size="10.00">../include/GrowingState.h</text>
</a>
</g>
</g>
<!-- Node1&#45;&gt;Node24 -->
<g id="edge41" class="edge">
<title>Node1&#45;&gt;Node24</title>
<path fill="none" stroke="midnightblue" d="M904.75,-241.44C797.39,-235.38 522.92,-219.1 294,-199 292.69,-198.88 291.36,-198.77 290.02,-198.65"/>
<polygon fill="midnightblue" stroke="midnightblue" points="289.94,-195.12 279.65,-197.67 289.28,-202.09 289.94,-195.12"/>
</g>
<!-- Node25 -->
<g id="node25" class="node">
<title>Node25</title>
<g id="a_node25"><a xlink:href="MatureState_8h.html" target="_top" xlink:title="Concrete state representing a mature plant (ready for sale).">
<polygon fill="none" stroke="black" points="336.5,-179.5 336.5,-198.5 469.5,-198.5 469.5,-179.5 336.5,-179.5"/>
<text text-anchor="middle" x="403" y="-186.5" font-family="Helvetica,sans-Serif" font-size="10.00">../include/MatureState.h</text>
</a>
</g>
</g>
<!-- Node1&#45;&gt;Node25 -->
<g id="edge44" class="edge">
<title>Node1&#45;&gt;Node25</title>
<path fill="none" stroke="midnightblue" d="M904.74,-239.94C821.89,-232.6 642.48,-216.35 479.91,-199.07"/>
<polygon fill="midnightblue" stroke="midnightblue" points="480.03,-195.57 469.72,-197.99 479.29,-202.53 480.03,-195.57"/>
</g>
<!-- Node26 -->
<g id="node26" class="node">
<title>Node26</title>
<g id="a_node26"><a xlink:href="WitheringState_8h.html" target="_top" xlink:title="Concrete state representing a withering plant (needs care).">
<polygon fill="none" stroke="black" points="488,-179.5 488,-198.5 634,-198.5 634,-179.5 488,-179.5"/>
<text text-anchor="middle" x="561" y="-186.5" font-family="Helvetica,sans-Serif" font-size="10.00">../include/WitheringState.h</text>
</a>
</g>
</g>
<!-- Node1&#45;&gt;Node26 -->
<g id="edge47" class="edge">
<title>Node1&#45;&gt;Node26</title>
<path fill="none" stroke="midnightblue" d="M904.73,-237.59C837.39,-228.27 711.8,-210.88 632.51,-199.9"/>
<polygon fill="midnightblue" stroke="midnightblue" points="632.98,-196.43 622.59,-198.53 632.02,-203.37 632.98,-196.43"/>
</g>
<!-- Node27 -->
<g id="node27" class="node">
<title>Node27</title>
<g id="a_node27"><a xlink:href="DeadState_8h.html" target="_top" xlink:title="Concrete state representing a dead plant.">
<polygon fill="none" stroke="black" points="652,-179.5 652,-198.5 776,-198.5 776,-179.5 652,-179.5"/>
<text text-anchor="middle" x="714" y="-186.5" font-family="Helvetica,sans-Serif" font-size="10.00">../include/DeadState.h</text>
</a>
</g>
</g>
<!-- Node1&#45;&gt;Node27 -->
<g id="edge50" class="edge">
<title>Node1&#45;&gt;Node27</title>
<path fill="none" stroke="midnightblue" d="M913.45,-235.44C872.19,-226.04 805.86,-210.93 761.13,-200.74"/>
<polygon fill="midnightblue" stroke="midnightblue" points="761.91,-197.33 751.38,-198.52 760.35,-204.15 761.91,-197.33"/>
</g>
<!-- Node28 -->
<g id="node28" class="node">
<title>Node28</title>
<g id="a_node28"><a xlink:title=" ">
<polygon fill="none" stroke="#bfbfbf" points="1354,-179.5 1354,-198.5 1410,-198.5 1410,-179.5 1354,-179.5"/>
<text text-anchor="middle" x="1382" y="-186.5" font-family="Helvetica,sans-Serif" font-size="10.00">sstream</text>
</a>
</g>
</g>
<!-- Node1&#45;&gt;Node28 -->
<g id="edge53" class="edge">
<title>Node1&#45;&gt;Node28</title>
<path fill="none" stroke="midnightblue" d="M997.07,-240.62C1069.03,-234.92 1212.58,-221.91 1343.58,-199.05"/>
<polygon fill="midnightblue" stroke="midnightblue" points="1344.56,-202.43 1353.8,-197.24 1343.34,-195.54 1344.56,-202.43"/>
</g>
<!-- Node29 -->
<g id="node29" class="node">
<title>Node29</title>
<g id="a_node29"><a xlink:title=" ">
<polygon fill="none" stroke="#bfbfbf" points="1428,-179.5 1428,-198.5 1488,-198.5 1488,-179.5 1428,-179.5"/>
<text text-anchor="middle" x="1458" y="-186.5" font-family="Helvetica,sans-Serif" font-size="10.00">iostream</text>
</a>
</g>
</g>
<!-- Node1&#45;&gt;Node29 -->
<g id="edge54" class="edge">
<title>Node1&#45;&gt;Node29</title>
<path fill="none" stroke="midnightblue" d="M997.09,-241.58C1079.58,-236.8 1258.01,-224.5 1417.83,-198.99"/>
<polygon fill="midnightblue" stroke="midnightblue" points="1418.53,-202.42 1427.84,-197.37 1417.41,-195.51 1418.53,-202.42"/>
</g>
<!-- Node3 -->
<g id="node3" class="node">
<title>Node3</title>
<g id="a_node3"><a xlink:href="FileAdapter_8h.html" target="_top" xlink:title="The &#39;Target&#39; interface for the Adapter pattern.">
<polygon fill="none" stroke="black" points="1022,-56.5 1022,-75.5 1102,-75.5 1102,-56.5 1022,-56.5"/>
<text text-anchor="middle" x="1062" y="-63.5" font-family="Helvetica,sans-Serif" font-size="10.00">FileAdapter.h</text>
</a>
</g>
</g>
<!-- Node2&#45;&gt;Node3 -->
<g id="edge2" class="edge">
<title>Node2&#45;&gt;Node3</title>
<path fill="none" stroke="midnightblue" d="M1062.86,-117.98C1062.72,-109.58 1062.5,-96.48 1062.31,-85.66"/>
<polygon fill="midnightblue" stroke="midnightblue" points="1065.81,-85.45 1062.14,-75.51 1058.81,-85.57 1065.81,-85.45"/>
</g>
<!-- Node4 -->
<g id="node4" class="node">
<title>Node4</title>
<g id="a_node4"><a xlink:title=" ">
<polygon fill="none" stroke="#bfbfbf" points="715,-0.5 715,-19.5 759,-19.5 759,-0.5 715,-0.5"/>
<text text-anchor="middle" x="737" y="-7.5" font-family="Helvetica,sans-Serif" font-size="10.00">string</text>
</a>
</g>
</g>
<!-- Node2&#45;&gt;Node4 -->
<g id="edge4" class="edge">
<title>Node2&#45;&gt;Node4</title>
<path fill="none" stroke="midnightblue" d="M1054.87,-117.97C1039.97,-102.89 1006.61,-71.63 972,-56 904.04,-25.31 815.83,-15.53 769.2,-12.43"/>
<polygon fill="midnightblue" stroke="midnightblue" points="769.28,-8.93 759.08,-11.82 768.85,-15.92 769.28,-8.93"/>
</g>
<!-- Node2&#45;&gt;Node5 -->
<g id="edge5" class="edge">
<title>Node2&#45;&gt;Node5</title>
<path fill="none" stroke="midnightblue" d="M1044.52,-117.98C1022.87,-107.99 986.79,-91.35 961.77,-79.81"/>
<polygon fill="midnightblue" stroke="midnightblue" points="962.99,-76.52 952.45,-75.51 960.06,-82.88 962.99,-76.52"/>
</g>
<!-- Node3&#45;&gt;Node4 -->
<g id="edge3" class="edge">
<title>Node3&#45;&gt;Node4</title>
<path fill="none" stroke="midnightblue" d="M1021.82,-58.32C956.62,-47.49 829.04,-26.29 769.3,-16.37"/>
<polygon fill="midnightblue" stroke="midnightblue" points="769.74,-12.89 759.3,-14.71 768.59,-19.8 769.74,-12.89"/>
</g>
<!-- Node6&#45;&gt;Node4 -->
<g id="edge8" class="edge">
<title>Node6&#45;&gt;Node4</title>
<path fill="none" stroke="midnightblue" d="M1427.76,-117.94C1399.46,-102.52 1336.43,-70.32 1279,-56 1181.44,-31.67 871.04,-16.67 769.5,-12.32"/>
<polygon fill="midnightblue" stroke="midnightblue" points="769.39,-8.82 759.25,-11.89 769.09,-15.81 769.39,-8.82"/>
</g>
<!-- Node7 -->
<g id="node7" class="node">
<title>Node7</title>
<g id="a_node7"><a xlink:title=" ">
<polygon fill="none" stroke="#bfbfbf" points="1419.5,-56.5 1419.5,-75.5 1466.5,-75.5 1466.5,-56.5 1419.5,-56.5"/>
<text text-anchor="middle" x="1443" y="-63.5" font-family="Helvetica,sans-Serif" font-size="10.00">vector</text>
</a>
</g>
</g>
<!-- Node6&#45;&gt;Node7 -->
<g id="edge7" class="edge">
<title>Node6&#45;&gt;Node7</title>
<path fill="none" stroke="midnightblue" d="M1443,-117.98C1443,-109.58 1443,-96.48 1443,-85.66"/>
<polygon fill="midnightblue" stroke="midnightblue" points="1446.5,-85.51 1443,-75.51 1439.5,-85.51 1446.5,-85.51"/>
</g>
<!-- Node8&#45;&gt;Node4 -->
<g id="edge12" class="edge">
<title>Node8&#45;&gt;Node4</title>
<path fill="none" stroke="midnightblue" d="M1583.84,-117.82C1554.24,-99.76 1487.6,-59.49 1476,-56 1340.86,-15.32 893.78,-11.32 769.38,-11"/>
<polygon fill="midnightblue" stroke="midnightblue" points="769.34,-7.5 759.34,-10.98 769.33,-14.5 769.34,-7.5"/>
</g>
<!-- Node8&#45;&gt;Node5 -->
<g id="edge13" class="edge">
<title>Node8&#45;&gt;Node5</title>
<path fill="none" stroke="midnightblue" d="M1562.52,-117.95C1552.1,-115.71 1540.64,-113.5 1530,-112 1301.91,-79.9 1242.37,-97.04 1013,-76 1000.11,-74.82 986.07,-73.29 973.45,-71.84"/>
<polygon fill="midnightblue" stroke="midnightblue" points="973.57,-68.33 963.23,-70.64 972.76,-75.28 973.57,-68.33"/>
</g>
<!-- Node8&#45;&gt;Node7 -->
<g id="edge11" class="edge">
<title>Node8&#45;&gt;Node7</title>
<path fill="none" stroke="midnightblue" d="M1575.79,-117.98C1549.32,-107.81 1504.89,-90.76 1474.78,-79.2"/>
<polygon fill="midnightblue" stroke="midnightblue" points="1475.76,-75.83 1465.17,-75.51 1473.25,-82.36 1475.76,-75.83"/>
</g>
<!-- Node9 -->
<g id="node9" class="node">
<title>Node9</title>
<g id="a_node9"><a xlink:href="InventoryCollection_8h.html" target="_top" xlink:title="The &#39;Aggregate&#39; interface.">
<polygon fill="none" stroke="black" points="1523.5,-56.5 1523.5,-75.5 1644.5,-75.5 1644.5,-56.5 1523.5,-56.5"/>
<text text-anchor="middle" x="1584" y="-63.5" font-family="Helvetica,sans-Serif" font-size="10.00">InventoryCollection.h</text>
</a>
</g>
</g>
<!-- Node8&#45;&gt;Node9 -->
<g id="edge10" class="edge">
<title>Node8&#45;&gt;Node9</title>
<path fill="none" stroke="midnightblue" d="M1595.99,-117.98C1594,-109.49 1590.87,-96.2 1588.31,-85.32"/>
<polygon fill="midnightblue" stroke="midnightblue" points="1591.7,-84.44 1586,-75.51 1584.89,-86.04 1591.7,-84.44"/>
</g>
<!-- Node10 -->
<g id="node10" class="node">
<title>Node10</title>
<g id="a_node10"><a xlink:title=" ">
<polygon fill="none" stroke="#bfbfbf" points="1662.5,-56.5 1662.5,-75.5 1755.5,-75.5 1755.5,-56.5 1662.5,-56.5"/>
<text text-anchor="middle" x="1709" y="-63.5" font-family="Helvetica,sans-Serif" font-size="10.00">unordered_map</text>
</a>
</g>
</g>
<!-- Node8&#45;&gt;Node10 -->
<g id="edge14" class="edge">
<title>Node8&#45;&gt;Node10</title>
<path fill="none" stroke="midnightblue" d="M1613.9,-117.98C1632.28,-108.12 1662.76,-91.79 1684.24,-80.27"/>
<polygon fill="midnightblue" stroke="midnightblue" points="1685.97,-83.32 1693.13,-75.51 1682.66,-77.15 1685.97,-83.32"/>
</g>
<!-- Node11 -->
<g id="node11" class="node">
<title>Node11</title>
<g id="a_node11"><a xlink:title=" ">
<polygon fill="none" stroke="#bfbfbf" points="1774,-56.5 1774,-75.5 1860,-75.5 1860,-56.5 1774,-56.5"/>
<text text-anchor="middle" x="1817" y="-63.5" font-family="Helvetica,sans-Serif" font-size="10.00">unordered_set</text>
</a>
</g>
</g>
<!-- Node8&#45;&gt;Node11 -->
<g id="edge15" class="edge">
<title>Node8&#45;&gt;Node11</title>
<path fill="none" stroke="midnightblue" d="M1629.38,-117.98C1667.92,-107.5 1733.41,-89.71 1775.92,-78.16"/>
<polygon fill="midnightblue" stroke="midnightblue" points="1776.95,-81.51 1785.68,-75.51 1775.11,-74.75 1776.95,-81.51"/>
</g>
<!-- Node12&#45;&gt;Node4 -->
<g id="edge17" class="edge">
<title>Node12&#45;&gt;Node4</title>
<path fill="none" stroke="midnightblue" d="M1285.38,-117.84C1283.78,-102.53 1278.08,-70.93 1258,-56 1218.78,-26.83 876.85,-14.89 769.26,-11.84"/>
<polygon fill="midnightblue" stroke="midnightblue" points="769.12,-8.33 759.03,-11.55 768.93,-15.33 769.12,-8.33"/>
</g>
<!-- Node13 -->
<g id="node13" class="node">
<title>Node13</title>
<g id="a_node13"><a xlink:href="Observer_8h.html" target="_top" xlink:title="Declares the Observer contract and shared event payload.">
<polygon fill="none" stroke="black" points="1179.5,-56.5 1179.5,-75.5 1248.5,-75.5 1248.5,-56.5 1179.5,-56.5"/>
<text text-anchor="middle" x="1214" y="-63.5" font-family="Helvetica,sans-Serif" font-size="10.00">Observer.h</text>
</a>
</g>
</g>
<!-- Node12&#45;&gt;Node13 -->
<g id="edge18" class="edge">
<title>Node12&#45;&gt;Node13</title>
<path fill="none" stroke="midnightblue" d="M1275.68,-117.98C1264.35,-108.61 1245.93,-93.38 1232.16,-82.01"/>
<polygon fill="midnightblue" stroke="midnightblue" points="1234.23,-79.18 1224.3,-75.51 1229.78,-84.58 1234.23,-79.18"/>
</g>
<!-- Node13&#45;&gt;Node4 -->
<g id="edge20" class="edge">
<title>Node13&#45;&gt;Node4</title>
<path fill="none" stroke="midnightblue" d="M1179.47,-57.6C1176.28,-57.02 1173.08,-56.47 1170,-56 1021.15,-33.1 841.67,-18.58 769.44,-13.28"/>
<polygon fill="midnightblue" stroke="midnightblue" points="769.41,-9.76 759.18,-12.53 768.9,-16.75 769.41,-9.76"/>
</g>
<!-- Node14 -->
<g id="node14" class="node">
<title>Node14</title>
<g id="a_node14"><a xlink:title=" ">
<polygon fill="none" stroke="#bfbfbf" points="1186,-0.5 1186,-19.5 1242,-19.5 1242,-0.5 1186,-0.5"/>
<text text-anchor="middle" x="1214" y="-7.5" font-family="Helvetica,sans-Serif" font-size="10.00">optional</text>
</a>
</g>
</g>
<!-- Node13&#45;&gt;Node14 -->
<g id="edge19" class="edge">
<title>Node13&#45;&gt;Node14</title>
<path fill="none" stroke="midnightblue" d="M1214,-56.08C1214,-49.01 1214,-38.86 1214,-29.99"/>
<polygon fill="midnightblue" stroke="midnightblue" points="1217.5,-29.75 1214,-19.75 1210.5,-29.75 1217.5,-29.75"/>
</g>
<!-- Node16&#45;&gt;Node4 -->
<g id="edge24" class="edge">
<title>Node16&#45;&gt;Node4</title>
<path fill="none" stroke="midnightblue" d="M652.77,-112.34C670.62,-90.86 704.44,-50.17 723.34,-27.43"/>
<polygon fill="midnightblue" stroke="midnightblue" points="726.09,-29.6 729.79,-19.67 720.71,-25.12 726.09,-29.6"/>
</g>
<!-- Node16&#45;&gt;Node5 -->
<g id="edge25" class="edge">
<title>Node16&#45;&gt;Node5</title>
<path fill="none" stroke="midnightblue" d="M709.33,-112.62C766.99,-100.92 847.49,-84.57 894.84,-74.95"/>
<polygon fill="midnightblue" stroke="midnightblue" points="895.61,-78.37 904.71,-72.95 894.21,-71.51 895.61,-78.37"/>
</g>
<!-- Node17 -->
<g id="node17" class="node">
<title>Node17</title>
<g id="a_node17"><a xlink:title=" ">
<polygon fill="none" stroke="#bfbfbf" points="622,-56.5 622,-75.5 660,-75.5 660,-56.5 622,-56.5"/>
<text text-anchor="middle" x="641" y="-63.5" font-family="Helvetica,sans-Serif" font-size="10.00">map</text>
</a>
</g>
</g>
<!-- Node16&#45;&gt;Node17 -->
<g id="edge23" class="edge">
<title>Node16&#45;&gt;Node17</title>
<path fill="none" stroke="midnightblue" d="M641,-112.4C641,-104.47 641,-94.46 641,-85.86"/>
<polygon fill="midnightblue" stroke="midnightblue" points="644.5,-85.66 641,-75.66 637.5,-85.66 644.5,-85.66"/>
</g>
<!-- Node18&#45;&gt;Node4 -->
<g id="edge36" class="edge">
<title>Node18&#45;&gt;Node4</title>
<path fill="none" stroke="midnightblue" d="M832.2,-182.42C804.58,-176.6 774.96,-165.18 756,-143 728.63,-110.98 730.56,-57.81 733.98,-29.71"/>
<polygon fill="midnightblue" stroke="midnightblue" points="737.47,-30.04 735.4,-19.65 730.53,-29.06 737.47,-30.04"/>
</g>
<!-- Node18&#45;&gt;Node5 -->
<g id="edge35" class="edge">
<title>Node18&#45;&gt;Node5</title>
<path fill="none" stroke="midnightblue" d="M904.31,-179.38C906.73,-170.32 910.65,-155.66 914,-143 919.17,-123.47 925.05,-101.11 929.09,-85.72"/>
<polygon fill="midnightblue" stroke="midnightblue" points="932.52,-86.46 931.67,-75.89 925.75,-84.68 932.52,-86.46"/>
</g>
<!-- Node19 -->
<g id="node19" class="node">
<title>Node19</title>
<g id="a_node19"><a xlink:href="GreenhouseComponent_8h.html" target="_top" xlink:title="The abstract &#39;Component&#39; interface for the Composite pattern.">
<polygon fill="none" stroke="black" points="765,-118 765,-137 905,-137 905,-118 765,-118"/>
<text text-anchor="middle" x="835" y="-125" font-family="Helvetica,sans-Serif" font-size="10.00">GreenhouseComponent.h</text>
</a>
</g>
</g>
<!-- Node18&#45;&gt;Node19 -->
<g id="edge27" class="edge">
<title>Node18&#45;&gt;Node19</title>
<path fill="none" stroke="midnightblue" d="M892.4,-179.48C881.95,-170.2 865.03,-155.17 852.26,-143.83"/>
<polygon fill="midnightblue" stroke="midnightblue" points="854.38,-141.03 844.58,-137.01 849.73,-146.27 854.38,-141.03"/>
</g>
<!-- Node18&#45;&gt;Node20 -->
<g id="edge30" class="edge">
<title>Node18&#45;&gt;Node20</title>
<path fill="none" stroke="midnightblue" d="M832.35,-179.7C729.62,-167.45 540.05,-144.84 451.26,-134.25"/>
<polygon fill="midnightblue" stroke="midnightblue" points="451.54,-130.76 441.2,-133.05 450.71,-137.71 451.54,-130.76"/>
</g>
<!-- Node21 -->
<g id="node21" class="node">
<title>Node21</title>
<g id="a_node21"><a xlink:href="Subject_8h.html" target="_top" xlink:title="Declares the Subject base that manages observer subscriptions.">
<polygon fill="none" stroke="black" points="1145,-118 1145,-137 1207,-137 1207,-118 1145,-118"/>
<text text-anchor="middle" x="1176" y="-125" font-family="Helvetica,sans-Serif" font-size="10.00">Subject.h</text>
</a>
</g>
</g>
<!-- Node18&#45;&gt;Node21 -->
<g id="edge32" class="edge">
<title>Node18&#45;&gt;Node21</title>
<path fill="none" stroke="midnightblue" d="M959.8,-179.49C1007.52,-171.85 1076.77,-159.32 1136,-143 1138.8,-142.23 1141.69,-141.35 1144.57,-140.42"/>
<polygon fill="midnightblue" stroke="midnightblue" points="1145.88,-143.67 1154.19,-137.11 1143.6,-137.05 1145.88,-143.67"/>
</g>
<!-- Node19&#45;&gt;Node4 -->
<g id="edge29" class="edge">
<title>Node19&#45;&gt;Node4</title>
<path fill="none" stroke="midnightblue" d="M827.63,-117.82C811.39,-98.67 772.25,-52.54 751.11,-27.63"/>
<polygon fill="midnightblue" stroke="midnightblue" points="753.59,-25.14 744.45,-19.78 748.25,-29.67 753.59,-25.14"/>
</g>
<!-- Node19&#45;&gt;Node5 -->
<g id="edge28" class="edge">
<title>Node19&#45;&gt;Node5</title>
<path fill="none" stroke="midnightblue" d="M849.18,-117.98C865.36,-108.25 892.03,-92.23 911.14,-80.74"/>
<polygon fill="midnightblue" stroke="midnightblue" points="913.07,-83.66 919.84,-75.51 909.47,-77.66 913.07,-83.66"/>
</g>
<!-- Node20&#45;&gt;Node4 -->
<g id="edge31" class="edge">
<title>Node20&#45;&gt;Node4</title>
<path fill="none" stroke="midnightblue" d="M406.66,-117.85C413.63,-102.58 430.32,-71.02 455,-56 496.52,-30.73 639.88,-17.77 704.71,-13.09"/>
<polygon fill="midnightblue" stroke="midnightblue" points="705.05,-16.57 714.78,-12.38 704.56,-9.59 705.05,-16.57"/>
</g>
<!-- Node21&#45;&gt;Node13 -->
<g id="edge34" class="edge">
<title>Node21&#45;&gt;Node13</title>
<path fill="none" stroke="midnightblue" d="M1181.44,-117.98C1187.09,-109.14 1196.06,-95.09 1203.16,-83.98"/>
<polygon fill="midnightblue" stroke="midnightblue" points="1206.13,-85.82 1208.57,-75.51 1200.23,-82.05 1206.13,-85.82"/>
</g>
<!-- Node22 -->
<g id="node22" class="node">
<title>Node22</title>
<g id="a_node22"><a xlink:title=" ">
<polygon fill="none" stroke="#bfbfbf" points="1129,-56.5 1129,-75.5 1161,-75.5 1161,-56.5 1129,-56.5"/>
<text text-anchor="middle" x="1145" y="-63.5" font-family="Helvetica,sans-Serif" font-size="10.00">list</text>
</a>
</g>
</g>
<!-- Node21&#45;&gt;Node22 -->
<g id="edge33" class="edge">
<title>Node21&#45;&gt;Node22</title>
<path fill="none" stroke="midnightblue" d="M1171.56,-117.98C1167.05,-109.32 1159.93,-95.65 1154.19,-84.65"/>
<polygon fill="midnightblue" stroke="midnightblue" points="1157.16,-82.76 1149.43,-75.51 1150.95,-85.99 1157.16,-82.76"/>
</g>
<!-- Node23&#45;&gt;Node4 -->
<g id="edge40" class="edge">
<title>Node23&#45;&gt;Node4</title>
<path fill="none" stroke="midnightblue" d="M77.45,-179.36C123.78,-155.45 259.86,-88.03 381,-56 497.71,-25.14 641.73,-15.22 704.83,-12.21"/>
<polygon fill="midnightblue" stroke="midnightblue" points="705.11,-15.7 714.94,-11.76 704.8,-8.71 705.11,-15.7"/>
</g>
<!-- Node23&#45;&gt;Node20 -->
<g id="edge39" class="edge">
<title>Node23&#45;&gt;Node20</title>
<path fill="none" stroke="midnightblue" d="M110,-179.48C175.22,-168.13 289.84,-148.19 354.7,-136.9"/>
<polygon fill="midnightblue" stroke="midnightblue" points="355.42,-140.33 364.67,-135.17 354.22,-133.43 355.42,-140.33"/>
</g>
<!-- Node24&#45;&gt;Node4 -->
<g id="edge43" class="edge">
<title>Node24&#45;&gt;Node4</title>
<path fill="none" stroke="midnightblue" d="M220.66,-179.45C251.17,-155.48 342.33,-87.31 430,-56 525.79,-21.79 647.3,-13.57 704.47,-11.6"/>
<polygon fill="midnightblue" stroke="midnightblue" points="704.81,-15.09 714.7,-11.3 704.6,-8.1 704.81,-15.09"/>
</g>
<!-- Node24&#45;&gt;Node20 -->
<g id="edge42" class="edge">
<title>Node24&#45;&gt;Node20</title>
<path fill="none" stroke="midnightblue" d="M237.65,-179.48C271.19,-169.14 327.87,-151.66 365.37,-140.1"/>
<polygon fill="midnightblue" stroke="midnightblue" points="366.87,-143.3 375.4,-137.01 364.81,-136.61 366.87,-143.3"/>
</g>
<!-- Node25&#45;&gt;Node4 -->
<g id="edge46" class="edge">
<title>Node25&#45;&gt;Node4</title>
<path fill="none" stroke="midnightblue" d="M412.54,-179.18C441.58,-152.48 528.99,-73.34 563,-56 609.17,-32.46 668.68,-20.52 704.78,-15.04"/>
<polygon fill="midnightblue" stroke="midnightblue" points="705.36,-18.5 714.75,-13.6 704.36,-11.57 705.36,-18.5"/>
</g>
<!-- Node25&#45;&gt;Node20 -->
<g id="edge45" class="edge">
<title>Node25&#45;&gt;Node20</title>
<path fill="none" stroke="midnightblue" d="M403,-179.48C403,-171.08 403,-157.98 403,-147.16"/>
<polygon fill="midnightblue" stroke="midnightblue" points="406.5,-147.01 403,-137.01 399.5,-147.01 406.5,-147.01"/>
</g>
<!-- Node26&#45;&gt;Node4 -->
<g id="edge49" class="edge">
<title>Node26&#45;&gt;Node4</title>
<path fill="none" stroke="midnightblue" d="M559.76,-179.4C558.52,-170.36 556.7,-155.71 556,-143 553.75,-102.3 553.58,-81.96 585,-56 619.46,-27.53 671.38,-17.07 704.73,-13.23"/>
<polygon fill="midnightblue" stroke="midnightblue" points="705.27,-16.7 714.86,-12.2 704.56,-9.73 705.27,-16.7"/>
</g>
<!-- Node26&#45;&gt;Node20 -->
<g id="edge48" class="edge">
<title>Node26&#45;&gt;Node20</title>
<path fill="none" stroke="midnightblue" d="M538.36,-179.48C511.26,-169.27 465.69,-152.11 435,-140.55"/>
<polygon fill="midnightblue" stroke="midnightblue" points="436.19,-137.26 425.6,-137.01 433.72,-143.81 436.19,-137.26"/>
</g>
<!-- Node27&#45;&gt;Node4 -->
<g id="edge52" class="edge">
<title>Node27&#45;&gt;Node4</title>
<path fill="none" stroke="midnightblue" d="M663.24,-179.43C624.59,-171.74 576.05,-159.2 564,-143 555.78,-131.95 559.15,-124.9 564,-112 585.8,-53.98 661.09,-27.79 704.83,-17.24"/>
<polygon fill="midnightblue" stroke="midnightblue" points="705.72,-20.62 714.69,-14.99 704.17,-13.8 705.72,-20.62"/>
</g>
<!-- Node27&#45;&gt;Node20 -->
<g id="edge51" class="edge">
<title>Node27&#45;&gt;Node20</title>
<path fill="none" stroke="midnightblue" d="M669.44,-179.48C611.49,-168.39 510.64,-149.09 451.03,-137.69"/>
<polygon fill="midnightblue" stroke="midnightblue" points="451.6,-134.23 441.12,-135.79 450.28,-141.11 451.6,-134.23"/>
</g>
</g>
</svg>
        <g id="navigator" transform="translate(0 0)" fill="#404254">
                <rect fill="#f2f5e9" fill-opacity="0.5" stroke="#606060" stroke-width=".5" x="0" y="0" width="60" height="60"/>
                <use id="zoomplus" xlink:href="#zoomPlus" x="17" y="9" onmousedown="handleZoom(evt,'in')"/>
                <use id="zoomminus" xlink:href="#zoomMin" x="42" y="9" onmousedown="handleZoom(evt,'out')"/>
                <use id="reset" xlink:href="#resetDef" x="30" y="36" onmousedown="handleReset()"/>
                <g id="arrowUp" xlink:href="#dirArrow" transform="translate(30 24)" onmousedown="handlePan(0,-1)">
                  <use xlink:href="#rim" fill="#404040">
                        <set attributeName="fill" to="#808080" begin="arrowUp.mouseover" end="arrowUp.mouseout"/>
                  </use>
                  <path fill="none" stroke="white" stroke-width="1.5" d="M0,-3.0v7 M-2.5,-0.5L0,-3.0L2.5,-0.5"/>
                </g>
                <g id="arrowRight" xlink:href="#dirArrow" transform="rotate(90) translate(36 -43)" onmousedown="handlePan(1,0)">
                  <use xlink:href="#rim" fill="#404040">
                        <set attributeName="fill" to="#808080" begin="arrowRight.mouseover" end="arrowRight.mouseout"/>
                  </use>
                  <path fill="none" stroke="white" stroke-width="1.5" d="M0,-3.0v7 M-2.5,-0.5L0,-3.0L2.5,-0.5"/>
                </g>
                <g id="arrowDown" xlink:href="#dirArrow" transform="rotate(180) translate(-30 -48)" onmousedown="handlePan(0,1)">
                  <use xlink:href="#rim" fill="#404040">
                        <set attributeName="fill" to="#808080" begin="arrowDown.mouseover" end="arrowDown.mouseout"/>
                  </use>
                  <path fill="none" stroke="white" stroke-width="1.5" d="M0,-3.0v7 M-2.5,-0.5L0,-3.0L2.5,-0.5"/>
                </g>
                <g id="arrowLeft" xlink:href="#dirArrow" transform="rotate(270) translate(-36 17)" onmousedown="handlePan(-1,0)">
                  <use xlink:href="#rim" fill="#404040">
                        <set attributeName="fill" to="#808080" begin="arrowLeft.mouseover" end="arrowLeft.mouseout"/>
                  </use>
                  <path fill="none" stroke="white" stroke-width="1.5" d="M0,-3.0v7 M-2.5,-0.5L0,-3.0L2.5,-0.5"/>
                </g>
        </g>
        <svg viewBox="0 0 15 15" width="100%" height="30px" preserveAspectRatio="xMaxYMin meet">
         <g id="arrow_out" transform="scale(0.3 0.3)">
          <a xlink:href="TXTAdapter_8cpp__incl_org.svg" target="_base">
           <rect id="button" ry="5" rx="5" y="6" x="6" height="38" width="38"
                fill="#f2f5e9" fill-opacity="0.5" stroke="#606060" stroke-width="1.0"/>
           <path id="arrow"
             d="M 11.500037,31.436501 C 11.940474,20.09759 22.043105,11.32322 32.158766,21.979434 L 37.068811,17.246167 C 37.068811,17.246167 37.088388,32 37.088388,32 L 22.160133,31.978069 C 22.160133,31.978069 26.997745,27.140456 26.997745,27.140456 C 18.528582,18.264221 13.291696,25.230495 11.500037,31.436501 z"
             style="fill:#404040;"/>
          </a>
         </g>
        </svg>
</svg>
