<?xml version="1.0" encoding="UTF-8" standalone="no"?>
<!DOCTYPE svg PUBLIC "-//W3C//DTD SVG 1.1//EN"
 "http://www.w3.org/Graphics/SVG/1.1/DTD/svg11.dtd">
<!-- Generated by graphviz version 2.43.0 (0)
 -->
<!-- Title: TXTReaderWriter.h Pages: 1 -->
<svg width="238pt" height="84pt"
 viewBox="0.00 0.00 237.50 84.00" xmlns="http://www.w3.org/2000/svg" xmlns:xlink="http://www.w3.org/1999/xlink">
<g id="graph0" class="graph" transform="scale(1 1) rotate(0) translate(4 80)">
<title>TXTReaderWriter.h</title>
<!-- Node1 -->
<g id="node1" class="node">
<title>Node1</title>
<g id="a_node1"><a xlink:title="The &#39;Adaptee&#39; class for reading/writing TXT files.">
<polygon fill="#bfbfbf" stroke="black" points="54,-56.5 54,-75.5 162,-75.5 162,-56.5 54,-56.5"/>
<text text-anchor="middle" x="108" y="-63.5" font-family="Helvetica,sans-Serif" font-size="10.00">TXTReaderWriter.h</text>
</a>
</g>
</g>
<!-- Node2 -->
<g id="node2" class="node">
<title>Node2</title>
<g id="a_node2"><a xlink:href="TXTAdapter_8cpp.html" target="_top" xlink:title="Implements the TXTAdapter behaviour defined in the corresponding header.">
<polygon fill="none" stroke="black" points="0,-0.5 0,-19.5 92,-19.5 92,-0.5 0,-0.5"/>
<text text-anchor="middle" x="46" y="-7.5" font-family="Helvetica,sans-Serif" font-size="10.00">TXTAdapter.cpp</text>
</a>
</g>
</g>
<!-- Node1&#45;&gt;Node2 -->
<g id="edge1" class="edge">
<title>Node1&#45;&gt;Node2</title>
<path fill="none" stroke="midnightblue" d="M90.25,-49.54C79.19,-39.91 65.37,-27.87 56.14,-19.83"/>
<polygon fill="midnightblue" stroke="midnightblue" points="88.2,-52.4 98.04,-56.32 92.8,-47.12 88.2,-52.4"/>
</g>
<!-- Node3 -->
<g id="node3" class="node">
<title>Node3</title>
<g id="a_node3"><a xlink:href="TXTReaderWriter_8cpp.html" target="_top" xlink:title="Implements the TXTReaderWriter behaviour defined in the corresponding header.">
<polygon fill="none" stroke="black" points="110.5,-0.5 110.5,-19.5 229.5,-19.5 229.5,-0.5 110.5,-0.5"/>
<text text-anchor="middle" x="170" y="-7.5" font-family="Helvetica,sans-Serif" font-size="10.00">TXTReaderWriter.cpp</text>
</a>
</g>
</g>
<!-- Node1&#45;&gt;Node3 -->
<g id="edge2" class="edge">
<title>Node1&#45;&gt;Node3</title>
<path fill="none" stroke="midnightblue" d="M125.75,-49.54C136.81,-39.91 150.63,-27.87 159.86,-19.83"/>
<polygon fill="midnightblue" stroke="midnightblue" points="123.2,-47.12 117.96,-56.32 127.8,-52.4 123.2,-47.12"/>
</g>
</g>
</svg>
