<?xml version="1.0" encoding="UTF-8" standalone="no"?>
<!DOCTYPE svg PUBLIC "-//W3C//DTD SVG 1.1//EN"
 "http://www.w3.org/Graphics/SVG/1.1/DTD/svg11.dtd">
<!-- Generated by graphviz version 2.43.0 (0)
 -->
<!-- Title: waterStrategy.cpp Pages: 1 -->
<svg width="424pt" height="252pt"
 viewBox="0.00 0.00 424.00 252.00" xmlns="http://www.w3.org/2000/svg" xmlns:xlink="http://www.w3.org/1999/xlink">
<g id="graph0" class="graph" transform="scale(1 1) rotate(0) translate(4 248)">
<title>waterStrategy.cpp</title>
<!-- Node1 -->
<g id="node1" class="node">
<title>Node1</title>
<g id="a_node1"><a xlink:title="Implements the waterStrategy behaviour defined in the corresponding header.">
<polygon fill="#bfbfbf" stroke="black" points="97.5,-224.5 97.5,-243.5 201.5,-243.5 201.5,-224.5 97.5,-224.5"/>
<text text-anchor="middle" x="149.5" y="-231.5" font-family="Helvetica,sans-Serif" font-size="10.00">waterStrategy.cpp</text>
</a>
</g>
</g>
<!-- Node2 -->
<g id="node2" class="node">
<title>Node2</title>
<g id="a_node2"><a xlink:href="WaterStrategy_8h.html" target="_top" xlink:title="Abstract &#39;Strategy&#39; interface for watering.">
<polygon fill="none" stroke="black" points="0,-168.5 0,-187.5 141,-187.5 141,-168.5 0,-168.5"/>
<text text-anchor="middle" x="70.5" y="-175.5" font-family="Helvetica,sans-Serif" font-size="10.00">../include/WaterStrategy.h</text>
</a>
</g>
</g>
<!-- Node1&#45;&gt;Node2 -->
<g id="edge1" class="edge">
<title>Node1&#45;&gt;Node2</title>
<path fill="none" stroke="midnightblue" d="M136.81,-224.32C124.6,-215.98 105.92,-203.21 91.5,-193.35"/>
<polygon fill="midnightblue" stroke="midnightblue" points="93.39,-190.41 83.16,-187.65 89.44,-196.19 93.39,-190.41"/>
</g>
<!-- Node3 -->
<g id="node3" class="node">
<title>Node3</title>
<g id="a_node3"><a xlink:href="PlantInstance_8h.html" target="_top" xlink:title="Represents a single, physical plant in the nursery.">
<polygon fill="none" stroke="black" points="159,-168.5 159,-187.5 298,-187.5 298,-168.5 159,-168.5"/>
<text text-anchor="middle" x="228.5" y="-175.5" font-family="Helvetica,sans-Serif" font-size="10.00">../include/PlantInstance.h</text>
</a>
</g>
</g>
<!-- Node1&#45;&gt;Node3 -->
<g id="edge2" class="edge">
<title>Node1&#45;&gt;Node3</title>
<path fill="none" stroke="midnightblue" d="M162.19,-224.32C174.4,-215.98 193.08,-203.21 207.5,-193.35"/>
<polygon fill="midnightblue" stroke="midnightblue" points="209.56,-196.19 215.84,-187.65 205.61,-190.41 209.56,-196.19"/>
</g>
<!-- Node4 -->
<g id="node4" class="node">
<title>Node4</title>
<g id="a_node4"><a xlink:href="GreenhouseComponent_8h.html" target="_top" xlink:title="The abstract &#39;Component&#39; interface for the Composite pattern.">
<polygon fill="none" stroke="black" points="60.5,-112.5 60.5,-131.5 200.5,-131.5 200.5,-112.5 60.5,-112.5"/>
<text text-anchor="middle" x="130.5" y="-119.5" font-family="Helvetica,sans-Serif" font-size="10.00">GreenhouseComponent.h</text>
</a>
</g>
</g>
<!-- Node3&#45;&gt;Node4 -->
<g id="edge3" class="edge">
<title>Node3&#45;&gt;Node4</title>
<path fill="none" stroke="midnightblue" d="M212.75,-168.32C197.18,-159.74 173.12,-146.49 155.04,-136.52"/>
<polygon fill="midnightblue" stroke="midnightblue" points="156.65,-133.42 146.21,-131.65 153.28,-139.55 156.65,-133.42"/>
</g>
<!-- Node5 -->
<g id="node5" class="node">
<title>Node5</title>
<g id="a_node5"><a xlink:title=" ">
<polygon fill="none" stroke="#bfbfbf" points="52.5,-56.5 52.5,-75.5 110.5,-75.5 110.5,-56.5 52.5,-56.5"/>
<text text-anchor="middle" x="81.5" y="-63.5" font-family="Helvetica,sans-Serif" font-size="10.00">memory</text>
</a>
</g>
</g>
<!-- Node3&#45;&gt;Node5 -->
<g id="edge13" class="edge">
<title>Node3&#45;&gt;Node5</title>
<path fill="none" stroke="midnightblue" d="M160.8,-168.45C116.78,-161.34 65.12,-149.52 51.5,-132 39.89,-117.07 52.68,-96.93 64.96,-83.04"/>
<polygon fill="midnightblue" stroke="midnightblue" points="67.61,-85.34 71.95,-75.68 62.53,-80.52 67.61,-85.34"/>
</g>
<!-- Node6 -->
<g id="node6" class="node">
<title>Node6</title>
<g id="a_node6"><a xlink:title=" ">
<polygon fill="none" stroke="#bfbfbf" points="225.5,-0.5 225.5,-19.5 269.5,-19.5 269.5,-0.5 225.5,-0.5"/>
<text text-anchor="middle" x="247.5" y="-7.5" font-family="Helvetica,sans-Serif" font-size="10.00">string</text>
</a>
</g>
</g>
<!-- Node3&#45;&gt;Node6 -->
<g id="edge14" class="edge">
<title>Node3&#45;&gt;Node6</title>
<path fill="none" stroke="midnightblue" d="M229.52,-168.08C232.51,-141.95 241.3,-65.21 245.37,-29.58"/>
<polygon fill="midnightblue" stroke="midnightblue" points="248.86,-29.9 246.52,-19.57 241.9,-29.11 248.86,-29.9"/>
</g>
<!-- Node7 -->
<g id="node7" class="node">
<title>Node7</title>
<g id="a_node7"><a xlink:href="PlantState_8h.html" target="_top" xlink:title="Abstract base class describing the lifecycle state of a plant.">
<polygon fill="none" stroke="black" points="256.5,-112.5 256.5,-131.5 332.5,-131.5 332.5,-112.5 256.5,-112.5"/>
<text text-anchor="middle" x="294.5" y="-119.5" font-family="Helvetica,sans-Serif" font-size="10.00">PlantState.h</text>
</a>
</g>
</g>
<!-- Node3&#45;&gt;Node7 -->
<g id="edge6" class="edge">
<title>Node3&#45;&gt;Node7</title>
<path fill="none" stroke="midnightblue" d="M239.1,-168.32C248.96,-160.26 263.85,-148.08 275.72,-138.37"/>
<polygon fill="midnightblue" stroke="midnightblue" points="278.18,-140.88 283.7,-131.83 273.75,-135.46 278.18,-140.88"/>
</g>
<!-- Node8 -->
<g id="node8" class="node">
<title>Node8</title>
<g id="a_node8"><a xlink:href="Subject_8h.html" target="_top" xlink:title="Declares the Subject base that manages observer subscriptions.">
<polygon fill="none" stroke="black" points="350.5,-112.5 350.5,-131.5 412.5,-131.5 412.5,-112.5 350.5,-112.5"/>
<text text-anchor="middle" x="381.5" y="-119.5" font-family="Helvetica,sans-Serif" font-size="10.00">Subject.h</text>
</a>
</g>
</g>
<!-- Node3&#45;&gt;Node8 -->
<g id="edge8" class="edge">
<title>Node3&#45;&gt;Node8</title>
<path fill="none" stroke="midnightblue" d="M252.74,-168.44C278.37,-159.4 318.99,-145.06 347.74,-134.92"/>
<polygon fill="midnightblue" stroke="midnightblue" points="349.11,-138.15 357.37,-131.52 346.78,-131.54 349.11,-138.15"/>
</g>
<!-- Node4&#45;&gt;Node5 -->
<g id="edge4" class="edge">
<title>Node4&#45;&gt;Node5</title>
<path fill="none" stroke="midnightblue" d="M122.41,-112.08C115.34,-104.3 104.91,-92.8 96.35,-83.37"/>
<polygon fill="midnightblue" stroke="midnightblue" points="98.75,-80.8 89.44,-75.75 93.57,-85.51 98.75,-80.8"/>
</g>
<!-- Node4&#45;&gt;Node6 -->
<g id="edge5" class="edge">
<title>Node4&#45;&gt;Node6</title>
<path fill="none" stroke="midnightblue" d="M139.68,-112.37C159.33,-93.89 205.71,-50.29 230.75,-26.74"/>
<polygon fill="midnightblue" stroke="midnightblue" points="233.47,-28.99 238.36,-19.59 228.68,-23.89 233.47,-28.99"/>
</g>
<!-- Node7&#45;&gt;Node6 -->
<g id="edge7" class="edge">
<title>Node7&#45;&gt;Node6</title>
<path fill="none" stroke="midnightblue" d="M290.81,-112.37C283.16,-94.46 265.41,-52.92 255.17,-28.95"/>
<polygon fill="midnightblue" stroke="midnightblue" points="258.32,-27.41 251.17,-19.59 251.88,-30.16 258.32,-27.41"/>
</g>
<!-- Node9 -->
<g id="node9" class="node">
<title>Node9</title>
<g id="a_node9"><a xlink:title=" ">
<polygon fill="none" stroke="#bfbfbf" points="296.5,-56.5 296.5,-75.5 328.5,-75.5 328.5,-56.5 296.5,-56.5"/>
<text text-anchor="middle" x="312.5" y="-63.5" font-family="Helvetica,sans-Serif" font-size="10.00">list</text>
</a>
</g>
</g>
<!-- Node8&#45;&gt;Node9 -->
<g id="edge9" class="edge">
<title>Node8&#45;&gt;Node9</title>
<path fill="none" stroke="midnightblue" d="M370.41,-112.32C360.01,-104.18 344.24,-91.84 331.78,-82.09"/>
<polygon fill="midnightblue" stroke="midnightblue" points="333.82,-79.24 323.79,-75.83 329.51,-84.75 333.82,-79.24"/>
</g>
<!-- Node10 -->
<g id="node10" class="node">
<title>Node10</title>
<g id="a_node10"><a xlink:href="Observer_8h.html" target="_top" xlink:title="Declares the Observer contract and shared event payload.">
<polygon fill="none" stroke="black" points="347,-56.5 347,-75.5 416,-75.5 416,-56.5 347,-56.5"/>
<text text-anchor="middle" x="381.5" y="-63.5" font-family="Helvetica,sans-Serif" font-size="10.00">Observer.h</text>
</a>
</g>
</g>
<!-- Node8&#45;&gt;Node10 -->
<g id="edge10" class="edge">
<title>Node8&#45;&gt;Node10</title>
<path fill="none" stroke="midnightblue" d="M381.5,-112.08C381.5,-105.01 381.5,-94.86 381.5,-85.99"/>
<polygon fill="midnightblue" stroke="midnightblue" points="385,-85.75 381.5,-75.75 378,-85.75 385,-85.75"/>
</g>
<!-- Node10&#45;&gt;Node6 -->
<g id="edge12" class="edge">
<title>Node10&#45;&gt;Node6</title>
<path fill="none" stroke="midnightblue" d="M360.27,-56.44C338.12,-47.52 303.18,-33.44 278.06,-23.32"/>
<polygon fill="midnightblue" stroke="midnightblue" points="279.22,-20.01 268.63,-19.52 276.6,-26.5 279.22,-20.01"/>
</g>
<!-- Node11 -->
<g id="node11" class="node">
<title>Node11</title>
<g id="a_node11"><a xlink:title=" ">
<polygon fill="none" stroke="#bfbfbf" points="353.5,-0.5 353.5,-19.5 409.5,-19.5 409.5,-0.5 353.5,-0.5"/>
<text text-anchor="middle" x="381.5" y="-7.5" font-family="Helvetica,sans-Serif" font-size="10.00">optional</text>
</a>
</g>
</g>
<!-- Node10&#45;&gt;Node11 -->
<g id="edge11" class="edge">
<title>Node10&#45;&gt;Node11</title>
<path fill="none" stroke="midnightblue" d="M381.5,-56.08C381.5,-49.01 381.5,-38.86 381.5,-29.99"/>
<polygon fill="midnightblue" stroke="midnightblue" points="385,-29.75 381.5,-19.75 378,-29.75 385,-29.75"/>
</g>
</g>
</svg>
