<?xml version="1.0" encoding="UTF-8" standalone="no"?>
<!DOCTYPE svg PUBLIC "-//W3C//DTD SVG 1.1//EN"
 "http://www.w3.org/Graphics/SVG/1.1/DTD/svg11.dtd">
<!-- Generated by graphviz version 2.43.0 (0)
 -->
<!-- Title: WaterStrategy.h Pages: 1 -->
<!--zoomable 140 -->
<svg id="main" version="1.1" xmlns="http://www.w3.org/2000/svg" xmlns:xlink="http://www.w3.org/1999/xlink" xml:space="preserve" onload="init(evt)">
<style type="text/css"><![CDATA[
.edge:hover path { stroke: red; }
.edge:hover polygon { stroke: red; fill: red; }
]]></style>
<script type="text/javascript"><![CDATA[
var edges = document.getElementsByTagName('g');
if (edges && edges.length) {
  for (var i=0;i<edges.length;i++) {
    if (edges[i].id.substr(0,4)=='edge') {
      edges[i].setAttribute('class','edge');
    }
  }
}
]]></script>
        <defs>
                <circle id="rim" cx="0" cy="0" r="7"/>
                <circle id="rim2" cx="0" cy="0" r="3.5"/>
                <g id="zoomPlus">
                        <use xlink:href="#rim" fill="#404040">
                                <set attributeName="fill" to="#808080" begin="zoomplus.mouseover" end="zoomplus.mouseout"/>
                        </use>
                        <path d="M-4,0h8M0,-4v8" fill="none" stroke="white" stroke-width="1.5" pointer-events="none"/>
                </g>
                <g id="zoomMin">
                        <use xlink:href="#rim" fill="#404040">
                                <set attributeName="fill" to="#808080" begin="zoomminus.mouseover" end="zoomminus.mouseout"/>
                        </use>
                        <path d="M-4,0h8" fill="none" stroke="white" stroke-width="1.5" pointer-events="none"/>
                </g>
                <g id="dirArrow">
                        <path fill="none" stroke="white" stroke-width="1.5" d="M0,-3.0v7 M-2.5,-0.5L0,-3.0L2.5,-0.5"/>
                </g>
               <g id="resetDef">
                       <use xlink:href="#rim2" fill="#404040">
                               <set attributeName="fill" to="#808080" begin="reset.mouseover" end="reset.mouseout"/>
                       </use>
               </g>
        </defs>

<script type="text/javascript">
var viewWidth = 988;
var viewHeight = 140;
var sectionId = 'dynsection-0';
</script>
<script xlink:href="svgpan.js"/>
<svg id="graph" class="graph">
<g id="viewport">
<title>WaterStrategy.h</title>
<!-- Node1 -->
<g id="node1" class="node">
<title>Node1</title>
<g id="a_node1"><a xlink:title="Abstract &#39;Strategy&#39; interface for watering.">
<polygon fill="#bfbfbf" stroke="black" points="550.5,-112.5 550.5,-131.5 644.5,-131.5 644.5,-112.5 550.5,-112.5"/>
<text text-anchor="middle" x="597.5" y="-119.5" font-family="Helvetica,sans-Serif" font-size="10.00">WaterStrategy.h</text>
</a>
</g>
</g>
<!-- Node2 -->
<g id="node2" class="node">
<title>Node2</title>
<g id="a_node2"><a xlink:href="FrequentWatering_8h.html" target="_top" xlink:title="Concrete strategy for frequent watering.">
<polygon fill="none" stroke="black" points="347.5,-56.5 347.5,-75.5 459.5,-75.5 459.5,-56.5 347.5,-56.5"/>
<text text-anchor="middle" x="403.5" y="-63.5" font-family="Helvetica,sans-Serif" font-size="10.00">FrequentWatering.h</text>
</a>
</g>
</g>
<!-- Node1&#45;&gt;Node2 -->
<g id="edge1" class="edge">
<title>Node1&#45;&gt;Node2</title>
<path fill="none" stroke="midnightblue" d="M556.9,-109.7C520.28,-99.51 467.24,-84.74 434.1,-75.52"/>
<polygon fill="midnightblue" stroke="midnightblue" points="556.19,-113.13 566.76,-112.44 558.06,-106.39 556.19,-113.13"/>
</g>
<!-- Node5 -->
<g id="node5" class="node">
<title>Node5</title>
<g id="a_node5"><a xlink:href="Plant_8h.html" target="_top" xlink:title="Abstract &#39;Prototype&#39; interface for all plant types.">
<polygon fill="none" stroke="black" points="477.5,-56.5 477.5,-75.5 527.5,-75.5 527.5,-56.5 477.5,-56.5"/>
<text text-anchor="middle" x="502.5" y="-63.5" font-family="Helvetica,sans-Serif" font-size="10.00">Plant.h</text>
</a>
</g>
</g>
<!-- Node1&#45;&gt;Node5 -->
<g id="edge4" class="edge">
<title>Node1&#45;&gt;Node5</title>
<path fill="none" stroke="midnightblue" d="M573.18,-107.18C555.7,-97.24 532.67,-84.15 517.73,-75.65"/>
<polygon fill="midnightblue" stroke="midnightblue" points="571.81,-110.43 582.24,-112.32 575.27,-104.34 571.81,-110.43"/>
</g>
<!-- Node8 -->
<g id="node8" class="node">
<title>Node8</title>
<g id="a_node8"><a xlink:href="PlantInstance_8cpp.html" target="_top" xlink:title="Implements the PlantInstance behaviour defined in the corresponding header.">
<polygon fill="none" stroke="black" points="488,-0.5 488,-19.5 591,-19.5 591,-0.5 488,-0.5"/>
<text text-anchor="middle" x="539.5" y="-7.5" font-family="Helvetica,sans-Serif" font-size="10.00">PlantInstance.cpp</text>
</a>
</g>
</g>
<!-- Node1&#45;&gt;Node8 -->
<g id="edge16" class="edge">
<title>Node1&#45;&gt;Node8</title>
<path fill="none" stroke="midnightblue" d="M588.18,-103.32C575.55,-79.37 553.5,-37.55 544.03,-19.59"/>
<polygon fill="midnightblue" stroke="midnightblue" points="585.19,-105.16 592.95,-112.37 591.38,-101.89 585.19,-105.16"/>
</g>
<!-- Node10 -->
<g id="node10" class="node">
<title>Node10</title>
<g id="a_node10"><a xlink:href="SeasonalWatering_8h.html" target="_top" xlink:title="Concrete strategy for seasonal watering.">
<polygon fill="none" stroke="black" points="584,-56.5 584,-75.5 697,-75.5 697,-56.5 584,-56.5"/>
<text text-anchor="middle" x="640.5" y="-63.5" font-family="Helvetica,sans-Serif" font-size="10.00">SeasonalWatering.h</text>
</a>
</g>
</g>
<!-- Node1&#45;&gt;Node10 -->
<g id="edge10" class="edge">
<title>Node1&#45;&gt;Node10</title>
<path fill="none" stroke="midnightblue" d="M610.92,-104.14C618.41,-94.74 627.44,-83.4 633.53,-75.75"/>
<polygon fill="midnightblue" stroke="midnightblue" points="608.09,-102.08 604.6,-112.08 613.57,-106.44 608.09,-102.08"/>
</g>
<!-- Node12 -->
<g id="node12" class="node">
<title>Node12</title>
<g id="a_node12"><a xlink:href="SparseWatering_8h.html" target="_top" xlink:title="Concrete strategy for sparse watering.">
<polygon fill="none" stroke="black" points="715.5,-56.5 715.5,-75.5 817.5,-75.5 817.5,-56.5 715.5,-56.5"/>
<text text-anchor="middle" x="766.5" y="-63.5" font-family="Helvetica,sans-Serif" font-size="10.00">SparseWatering.h</text>
</a>
</g>
</g>
<!-- Node1&#45;&gt;Node12 -->
<g id="edge13" class="edge">
<title>Node1&#45;&gt;Node12</title>
<path fill="none" stroke="midnightblue" d="M634.1,-109.3C665.95,-99.13 711.34,-84.62 739.85,-75.52"/>
<polygon fill="midnightblue" stroke="midnightblue" points="632.74,-106.07 624.28,-112.44 634.87,-112.73 632.74,-106.07"/>
</g>
<!-- Node14 -->
<g id="node14" class="node">
<title>Node14</title>
<g id="a_node14"><a xlink:href="waterStrategy_8cpp.html" target="_top" xlink:title="Implements the waterStrategy behaviour defined in the corresponding header.">
<polygon fill="none" stroke="black" points="835.5,-56.5 835.5,-75.5 939.5,-75.5 939.5,-56.5 835.5,-56.5"/>
<text text-anchor="middle" x="887.5" y="-63.5" font-family="Helvetica,sans-Serif" font-size="10.00">waterStrategy.cpp</text>
</a>
</g>
</g>
<!-- Node1&#45;&gt;Node14 -->
<g id="edge17" class="edge">
<title>Node1&#45;&gt;Node14</title>
<path fill="none" stroke="midnightblue" d="M653.35,-110.6C708.15,-100.4 790.73,-85.02 841.76,-75.52"/>
<polygon fill="midnightblue" stroke="midnightblue" points="652.64,-107.17 643.45,-112.44 653.92,-114.05 652.64,-107.17"/>
</g>
<!-- Node3 -->
<g id="node3" class="node">
<title>Node3</title>
<g id="a_node3"><a xlink:href="FrequentWatering_8cpp.html" target="_top" xlink:title="Implements the FrequentWatering behaviour defined in the corresponding header.">
<polygon fill="none" stroke="black" points="0,-0.5 0,-19.5 123,-19.5 123,-0.5 0,-0.5"/>
<text text-anchor="middle" x="61.5" y="-7.5" font-family="Helvetica,sans-Serif" font-size="10.00">FrequentWatering.cpp</text>
</a>
</g>
</g>
<!-- Node2&#45;&gt;Node3 -->
<g id="edge2" class="edge">
<title>Node2&#45;&gt;Node3</title>
<path fill="none" stroke="midnightblue" d="M339.24,-54.85C274.62,-44.65 176.12,-29.1 115.44,-19.52"/>
<polygon fill="midnightblue" stroke="midnightblue" points="338.89,-58.34 349.31,-56.44 339.98,-51.43 338.89,-58.34"/>
</g>
<!-- Node4 -->
<g id="node4" class="node">
<title>Node4</title>
<g id="a_node4"><a xlink:href="SalesFacade_8cpp.html" target="_top" xlink:title="Implements the SalesFacade behaviour defined in the corresponding header.">
<polygon fill="none" stroke="black" points="609,-0.5 609,-19.5 706,-19.5 706,-0.5 609,-0.5"/>
<text text-anchor="middle" x="657.5" y="-7.5" font-family="Helvetica,sans-Serif" font-size="10.00">SalesFacade.cpp</text>
</a>
</g>
</g>
<!-- Node2&#45;&gt;Node4 -->
<g id="edge3" class="edge">
<title>Node2&#45;&gt;Node4</title>
<path fill="none" stroke="midnightblue" d="M453.62,-54.35C501.62,-44.14 573.12,-28.94 617.44,-19.52"/>
<polygon fill="midnightblue" stroke="midnightblue" points="452.8,-50.94 443.75,-56.44 454.26,-57.79 452.8,-50.94"/>
</g>
<!-- Node5&#45;&gt;Node4 -->
<g id="edge9" class="edge">
<title>Node5&#45;&gt;Node4</title>
<path fill="none" stroke="midnightblue" d="M536.83,-53.04C566,-42.88 607.14,-28.55 633.05,-19.52"/>
<polygon fill="midnightblue" stroke="midnightblue" points="535.35,-49.85 527.06,-56.44 537.66,-56.46 535.35,-49.85"/>
</g>
<!-- Node6 -->
<g id="node6" class="node">
<title>Node6</title>
<g id="a_node6"><a xlink:href="Inventory_8cpp.html" target="_top" xlink:title="Implements the Inventory behaviour defined in the corresponding header.">
<polygon fill="none" stroke="black" points="141.5,-0.5 141.5,-19.5 223.5,-19.5 223.5,-0.5 141.5,-0.5"/>
<text text-anchor="middle" x="182.5" y="-7.5" font-family="Helvetica,sans-Serif" font-size="10.00">Inventory.cpp</text>
</a>
</g>
</g>
<!-- Node5&#45;&gt;Node6 -->
<g id="edge5" class="edge">
<title>Node5&#45;&gt;Node6</title>
<path fill="none" stroke="midnightblue" d="M467.32,-55.94C362.89,-34.56 334,-36.87 232.5,-20 229.63,-19.52 226.67,-19.02 223.69,-18.5"/>
<polygon fill="midnightblue" stroke="midnightblue" points="466.82,-59.41 477.32,-58.01 468.24,-52.56 466.82,-59.41"/>
</g>
<!-- Node7 -->
<g id="node7" class="node">
<title>Node7</title>
<g id="a_node7"><a xlink:href="Plant_8cpp.html" target="_top" xlink:title="Implements the Plant behaviour defined in the corresponding header.">
<polygon fill="none" stroke="black" points="241.5,-0.5 241.5,-19.5 303.5,-19.5 303.5,-0.5 241.5,-0.5"/>
<text text-anchor="middle" x="272.5" y="-7.5" font-family="Helvetica,sans-Serif" font-size="10.00">Plant.cpp</text>
</a>
</g>
</g>
<!-- Node5&#45;&gt;Node7 -->
<g id="edge6" class="edge">
<title>Node5&#45;&gt;Node7</title>
<path fill="none" stroke="midnightblue" d="M467.4,-55.8C424.49,-45.39 347.08,-27.83 303.66,-18.02"/>
<polygon fill="midnightblue" stroke="midnightblue" points="466.73,-59.24 477.27,-58.22 468.39,-52.44 466.73,-59.24"/>
</g>
<!-- Node5&#45;&gt;Node8 -->
<g id="edge7" class="edge">
<title>Node5&#45;&gt;Node8</title>
<path fill="none" stroke="midnightblue" d="M514.45,-47.57C520.81,-38.27 528.37,-27.25 533.5,-19.75"/>
<polygon fill="midnightblue" stroke="midnightblue" points="511.37,-45.86 508.61,-56.08 517.15,-49.81 511.37,-45.86"/>
</g>
<!-- Node9 -->
<g id="node9" class="node">
<title>Node9</title>
<g id="a_node9"><a xlink:href="PlantPrototypeRegistry_8cpp.html" target="_top" xlink:title="Implements the PlantPrototypeRegistry behaviour defined in the corresponding header.">
<polygon fill="none" stroke="black" points="321.5,-0.5 321.5,-19.5 469.5,-19.5 469.5,-0.5 321.5,-0.5"/>
<text text-anchor="middle" x="395.5" y="-7.5" font-family="Helvetica,sans-Serif" font-size="10.00">PlantPrototypeRegistry.cpp</text>
</a>
</g>
</g>
<!-- Node5&#45;&gt;Node9 -->
<g id="edge8" class="edge">
<title>Node5&#45;&gt;Node9</title>
<path fill="none" stroke="midnightblue" d="M476.2,-51.73C456.39,-41.73 429.79,-28.31 412.65,-19.65"/>
<polygon fill="midnightblue" stroke="midnightblue" points="474.8,-54.94 485.31,-56.32 477.96,-48.69 474.8,-54.94"/>
</g>
<!-- Node10&#45;&gt;Node4 -->
<g id="edge11" class="edge">
<title>Node10&#45;&gt;Node4</title>
<path fill="none" stroke="midnightblue" d="M646.36,-46.4C649.2,-37.36 652.48,-26.94 654.75,-19.75"/>
<polygon fill="midnightblue" stroke="midnightblue" points="642.97,-45.49 643.31,-56.08 649.65,-47.6 642.97,-45.49"/>
</g>
<!-- Node11 -->
<g id="node11" class="node">
<title>Node11</title>
<g id="a_node11"><a xlink:href="SeasonalWatering_8cpp.html" target="_top" xlink:title="Implements the SeasonalWatering behaviour defined in the corresponding header.">
<polygon fill="none" stroke="black" points="724,-0.5 724,-19.5 849,-19.5 849,-0.5 724,-0.5"/>
<text text-anchor="middle" x="786.5" y="-7.5" font-family="Helvetica,sans-Serif" font-size="10.00">SeasonalWatering.cpp</text>
</a>
</g>
</g>
<!-- Node10&#45;&gt;Node11 -->
<g id="edge12" class="edge">
<title>Node10&#45;&gt;Node11</title>
<path fill="none" stroke="midnightblue" d="M673.2,-52.91C700.65,-42.75 739.17,-28.51 763.47,-19.52"/>
<polygon fill="midnightblue" stroke="midnightblue" points="671.8,-49.69 663.63,-56.44 674.23,-56.26 671.8,-49.69"/>
</g>
<!-- Node12&#45;&gt;Node4 -->
<g id="edge14" class="edge">
<title>Node12&#45;&gt;Node4</title>
<path fill="none" stroke="midnightblue" d="M739.98,-51.86C719.77,-41.85 692.51,-28.35 674.97,-19.65"/>
<polygon fill="midnightblue" stroke="midnightblue" points="738.47,-55.02 748.99,-56.32 741.58,-48.75 738.47,-55.02"/>
</g>
<!-- Node13 -->
<g id="node13" class="node">
<title>Node13</title>
<g id="a_node13"><a xlink:href="SparseWatering_8cpp.html" target="_top" xlink:title="Implements the SparseWatering behaviour defined in the corresponding header.">
<polygon fill="none" stroke="black" points="867,-0.5 867,-19.5 980,-19.5 980,-0.5 867,-0.5"/>
<text text-anchor="middle" x="923.5" y="-7.5" font-family="Helvetica,sans-Serif" font-size="10.00">SparseWatering.cpp</text>
</a>
</g>
</g>
<!-- Node12&#45;&gt;Node13 -->
<g id="edge15" class="edge">
<title>Node12&#45;&gt;Node13</title>
<path fill="none" stroke="midnightblue" d="M800.89,-53.17C830.45,-43 872.37,-28.59 898.74,-19.52"/>
<polygon fill="midnightblue" stroke="midnightblue" points="799.7,-49.88 791.38,-56.44 801.97,-56.5 799.7,-49.88"/>
</g>
</g>
</svg>
        <g id="navigator" transform="translate(0 0)" fill="#404254">
                <rect fill="#f2f5e9" fill-opacity="0.5" stroke="#606060" stroke-width=".5" x="0" y="0" width="60" height="60"/>
                <use id="zoomplus" xlink:href="#zoomPlus" x="17" y="9" onmousedown="handleZoom(evt,'in')"/>
                <use id="zoomminus" xlink:href="#zoomMin" x="42" y="9" onmousedown="handleZoom(evt,'out')"/>
                <use id="reset" xlink:href="#resetDef" x="30" y="36" onmousedown="handleReset()"/>
                <g id="arrowUp" xlink:href="#dirArrow" transform="translate(30 24)" onmousedown="handlePan(0,-1)">
                  <use xlink:href="#rim" fill="#404040">
                        <set attributeName="fill" to="#808080" begin="arrowUp.mouseover" end="arrowUp.mouseout"/>
                  </use>
                  <path fill="none" stroke="white" stroke-width="1.5" d="M0,-3.0v7 M-2.5,-0.5L0,-3.0L2.5,-0.5"/>
                </g>
                <g id="arrowRight" xlink:href="#dirArrow" transform="rotate(90) translate(36 -43)" onmousedown="handlePan(1,0)">
                  <use xlink:href="#rim" fill="#404040">
                        <set attributeName="fill" to="#808080" begin="arrowRight.mouseover" end="arrowRight.mouseout"/>
                  </use>
                  <path fill="none" stroke="white" stroke-width="1.5" d="M0,-3.0v7 M-2.5,-0.5L0,-3.0L2.5,-0.5"/>
                </g>
                <g id="arrowDown" xlink:href="#dirArrow" transform="rotate(180) translate(-30 -48)" onmousedown="handlePan(0,1)">
                  <use xlink:href="#rim" fill="#404040">
                        <set attributeName="fill" to="#808080" begin="arrowDown.mouseover" end="arrowDown.mouseout"/>
                  </use>
                  <path fill="none" stroke="white" stroke-width="1.5" d="M0,-3.0v7 M-2.5,-0.5L0,-3.0L2.5,-0.5"/>
                </g>
                <g id="arrowLeft" xlink:href="#dirArrow" transform="rotate(270) translate(-36 17)" onmousedown="handlePan(-1,0)">
                  <use xlink:href="#rim" fill="#404040">
                        <set attributeName="fill" to="#808080" begin="arrowLeft.mouseover" end="arrowLeft.mouseout"/>
                  </use>
                  <path fill="none" stroke="white" stroke-width="1.5" d="M0,-3.0v7 M-2.5,-0.5L0,-3.0L2.5,-0.5"/>
                </g>
        </g>
        <svg viewBox="0 0 15 15" width="100%" height="30px" preserveAspectRatio="xMaxYMin meet">
         <g id="arrow_out" transform="scale(0.3 0.3)">
          <a xlink:href="WaterStrategy_8h__dep__incl_org.svg" target="_base">
           <rect id="button" ry="5" rx="5" y="6" x="6" height="38" width="38"
                fill="#f2f5e9" fill-opacity="0.5" stroke="#606060" stroke-width="1.0"/>
           <path id="arrow"
             d="M 11.500037,31.436501 C 11.940474,20.09759 22.043105,11.32322 32.158766,21.979434 L 37.068811,17.246167 C 37.068811,17.246167 37.088388,32 37.088388,32 L 22.160133,31.978069 C 22.160133,31.978069 26.997745,27.140456 26.997745,27.140456 C 18.528582,18.264221 13.291696,25.230495 11.500037,31.436501 z"
             style="fill:#404040;"/>
          </a>
         </g>
        </svg>
</svg>
