<?xml version="1.0" encoding="UTF-8" standalone="no"?>
<!DOCTYPE svg PUBLIC "-//W3C//DTD SVG 1.1//EN"
 "http://www.w3.org/Graphics/SVG/1.1/DTD/svg11.dtd">
<!-- Generated by graphviz version 2.43.0 (0)
 -->
<!-- Title: WitheringState.h Pages: 1 -->
<svg width="576pt" height="84pt"
 viewBox="0.00 0.00 575.50 84.00" xmlns="http://www.w3.org/2000/svg" xmlns:xlink="http://www.w3.org/1999/xlink">
<g id="graph0" class="graph" transform="scale(1 1) rotate(0) translate(4 80)">
<title>WitheringState.h</title>
<!-- Node1 -->
<g id="node1" class="node">
<title>Node1</title>
<g id="a_node1"><a xlink:title="Concrete state representing a withering plant (needs care).">
<polygon fill="#bfbfbf" stroke="black" points="231.5,-56.5 231.5,-75.5 329.5,-75.5 329.5,-56.5 231.5,-56.5"/>
<text text-anchor="middle" x="280.5" y="-63.5" font-family="Helvetica,sans-Serif" font-size="10.00">WitheringState.h</text>
</a>
</g>
</g>
<!-- Node2 -->
<g id="node2" class="node">
<title>Node2</title>
<g id="a_node2"><a xlink:href="CSVAdapter_8cpp.html" target="_top" xlink:title="Implements the CSVAdapter behaviour defined in the corresponding header.">
<polygon fill="none" stroke="black" points="0,-0.5 0,-19.5 93,-19.5 93,-0.5 0,-0.5"/>
<text text-anchor="middle" x="46.5" y="-7.5" font-family="Helvetica,sans-Serif" font-size="10.00">CSVAdapter.cpp</text>
</a>
</g>
</g>
<!-- Node1&#45;&gt;Node2 -->
<g id="edge1" class="edge">
<title>Node1&#45;&gt;Node2</title>
<path fill="none" stroke="midnightblue" d="M233.5,-54.15C189.28,-43.95 123.98,-28.88 83.4,-19.52"/>
<polygon fill="midnightblue" stroke="midnightblue" points="232.89,-57.61 243.42,-56.44 234.47,-50.78 232.89,-57.61"/>
</g>
<!-- Node3 -->
<g id="node3" class="node">
<title>Node3</title>
<g id="a_node3"><a xlink:href="GrowingState_8cpp.html" target="_top" xlink:title="Implements the GrowingState behaviour defined in the corresponding header.">
<polygon fill="none" stroke="black" points="111,-0.5 111,-19.5 214,-19.5 214,-0.5 111,-0.5"/>
<text text-anchor="middle" x="162.5" y="-7.5" font-family="Helvetica,sans-Serif" font-size="10.00">GrowingState.cpp</text>
</a>
</g>
</g>
<!-- Node1&#45;&gt;Node3 -->
<g id="edge2" class="edge">
<title>Node1&#45;&gt;Node3</title>
<path fill="none" stroke="midnightblue" d="M252.6,-52.23C230.53,-42.13 200.32,-28.31 181.11,-19.52"/>
<polygon fill="midnightblue" stroke="midnightblue" points="251.25,-55.46 261.8,-56.44 254.17,-49.1 251.25,-55.46"/>
</g>
<!-- Node4 -->
<g id="node4" class="node">
<title>Node4</title>
<g id="a_node4"><a xlink:href="MatureState_8cpp.html" target="_top" xlink:title="Implements the MatureState behaviour defined in the corresponding header.">
<polygon fill="none" stroke="black" points="232,-0.5 232,-19.5 329,-19.5 329,-0.5 232,-0.5"/>
<text text-anchor="middle" x="280.5" y="-7.5" font-family="Helvetica,sans-Serif" font-size="10.00">MatureState.cpp</text>
</a>
</g>
</g>
<!-- Node1&#45;&gt;Node4 -->
<g id="edge3" class="edge">
<title>Node1&#45;&gt;Node4</title>
<path fill="none" stroke="midnightblue" d="M280.5,-45.8C280.5,-36.91 280.5,-26.78 280.5,-19.75"/>
<polygon fill="midnightblue" stroke="midnightblue" points="277,-46.08 280.5,-56.08 284,-46.08 277,-46.08"/>
</g>
<!-- Node5 -->
<g id="node5" class="node">
<title>Node5</title>
<g id="a_node5"><a xlink:href="TXTAdapter_8cpp.html" target="_top" xlink:title="Implements the TXTAdapter behaviour defined in the corresponding header.">
<polygon fill="none" stroke="black" points="347.5,-0.5 347.5,-19.5 439.5,-19.5 439.5,-0.5 347.5,-0.5"/>
<text text-anchor="middle" x="393.5" y="-7.5" font-family="Helvetica,sans-Serif" font-size="10.00">TXTAdapter.cpp</text>
</a>
</g>
</g>
<!-- Node1&#45;&gt;Node5 -->
<g id="edge4" class="edge">
<title>Node1&#45;&gt;Node5</title>
<path fill="none" stroke="midnightblue" d="M307.5,-52.1C328.61,-42.01 357.36,-28.27 375.68,-19.52"/>
<polygon fill="midnightblue" stroke="midnightblue" points="305.92,-48.97 298.41,-56.44 308.94,-55.29 305.92,-48.97"/>
</g>
<!-- Node6 -->
<g id="node6" class="node">
<title>Node6</title>
<g id="a_node6"><a xlink:href="WitheringState_8cpp.html" target="_top" xlink:title="Implements the WitheringState behaviour defined in the corresponding header.">
<polygon fill="none" stroke="black" points="457.5,-0.5 457.5,-19.5 567.5,-19.5 567.5,-0.5 457.5,-0.5"/>
<text text-anchor="middle" x="512.5" y="-7.5" font-family="Helvetica,sans-Serif" font-size="10.00">WitheringState.cpp</text>
</a>
</g>
</g>
<!-- Node1&#45;&gt;Node6 -->
<g id="edge5" class="edge">
<title>Node1&#45;&gt;Node6</title>
<path fill="none" stroke="midnightblue" d="M327.1,-54.15C370.94,-43.95 435.68,-28.88 475.91,-19.52"/>
<polygon fill="midnightblue" stroke="midnightblue" points="326.21,-50.77 317.26,-56.44 327.79,-57.59 326.21,-50.77"/>
</g>
</g>
</svg>
