<?xml version="1.0" encoding="UTF-8" standalone="no"?>
<!DOCTYPE svg PUBLIC "-//W3C//DTD SVG 1.1//EN"
 "http://www.w3.org/Graphics/SVG/1.1/DTD/svg11.dtd">
<!-- Generated by graphviz version 2.43.0 (0)
 -->
<!-- Title: WitheringState.cpp Pages: 1 -->
<!--zoomable 308 -->
<svg id="main" version="1.1" xmlns="http://www.w3.org/2000/svg" xmlns:xlink="http://www.w3.org/1999/xlink" xml:space="preserve" onload="init(evt)">
<style type="text/css"><![CDATA[
.edge:hover path { stroke: red; }
.edge:hover polygon { stroke: red; fill: red; }
]]></style>
<script type="text/javascript"><![CDATA[
var edges = document.getElementsByTagName('g');
if (edges && edges.length) {
  for (var i=0;i<edges.length;i++) {
    if (edges[i].id.substr(0,4)=='edge') {
      edges[i].setAttribute('class','edge');
    }
  }
}
]]></script>
        <defs>
                <circle id="rim" cx="0" cy="0" r="7"/>
                <circle id="rim2" cx="0" cy="0" r="3.5"/>
                <g id="zoomPlus">
                        <use xlink:href="#rim" fill="#404040">
                                <set attributeName="fill" to="#808080" begin="zoomplus.mouseover" end="zoomplus.mouseout"/>
                        </use>
                        <path d="M-4,0h8M0,-4v8" fill="none" stroke="white" stroke-width="1.5" pointer-events="none"/>
                </g>
                <g id="zoomMin">
                        <use xlink:href="#rim" fill="#404040">
                                <set attributeName="fill" to="#808080" begin="zoomminus.mouseover" end="zoomminus.mouseout"/>
                        </use>
                        <path d="M-4,0h8" fill="none" stroke="white" stroke-width="1.5" pointer-events="none"/>
                </g>
                <g id="dirArrow">
                        <path fill="none" stroke="white" stroke-width="1.5" d="M0,-3.0v7 M-2.5,-0.5L0,-3.0L2.5,-0.5"/>
                </g>
               <g id="resetDef">
                       <use xlink:href="#rim2" fill="#404040">
                               <set attributeName="fill" to="#808080" begin="reset.mouseover" end="reset.mouseout"/>
                       </use>
               </g>
        </defs>

<script type="text/javascript">
var viewWidth = 974;
var viewHeight = 308;
var sectionId = 'dynsection-0';
</script>
<script xlink:href="svgpan.js"/>
<svg id="graph" class="graph">
<g id="viewport">
<title>WitheringState.cpp</title>
<!-- Node1 -->
<g id="node1" class="node">
<title>Node1</title>
<g id="a_node1"><a xlink:title="Implements the WitheringState behaviour defined in the corresponding header.">
<polygon fill="#bfbfbf" stroke="black" points="504.5,-280.5 504.5,-299.5 614.5,-299.5 614.5,-280.5 504.5,-280.5"/>
<text text-anchor="middle" x="559.5" y="-287.5" font-family="Helvetica,sans-Serif" font-size="10.00">WitheringState.cpp</text>
</a>
</g>
</g>
<!-- Node2 -->
<g id="node2" class="node">
<title>Node2</title>
<g id="a_node2"><a xlink:href="WitheringState_8h.html" target="_top" xlink:title="Concrete state representing a withering plant (needs care).">
<polygon fill="none" stroke="black" points="151.5,-168.5 151.5,-187.5 297.5,-187.5 297.5,-168.5 151.5,-168.5"/>
<text text-anchor="middle" x="224.5" y="-175.5" font-family="Helvetica,sans-Serif" font-size="10.00">../include/WitheringState.h</text>
</a>
</g>
</g>
<!-- Node1&#45;&gt;Node2 -->
<g id="edge1" class="edge">
<title>Node1&#45;&gt;Node2</title>
<path fill="none" stroke="midnightblue" d="M533.49,-280.46C474.13,-260.97 328.53,-213.16 260.56,-190.84"/>
<polygon fill="midnightblue" stroke="midnightblue" points="261.32,-187.4 250.72,-187.61 259.13,-194.06 261.32,-187.4"/>
</g>
<!-- Node5 -->
<g id="node5" class="node">
<title>Node5</title>
<g id="a_node5"><a xlink:href="DeadState_8h.html" target="_top" xlink:title="Concrete state representing a dead plant.">
<polygon fill="none" stroke="black" points="315.5,-168.5 315.5,-187.5 439.5,-187.5 439.5,-168.5 315.5,-168.5"/>
<text text-anchor="middle" x="377.5" y="-175.5" font-family="Helvetica,sans-Serif" font-size="10.00">../include/DeadState.h</text>
</a>
</g>
</g>
<!-- Node1&#45;&gt;Node5 -->
<g id="edge5" class="edge">
<title>Node1&#45;&gt;Node5</title>
<path fill="none" stroke="midnightblue" d="M545.22,-280.37C513.85,-261.41 438.72,-216 400.57,-192.94"/>
<polygon fill="midnightblue" stroke="midnightblue" points="402.08,-189.77 391.71,-187.59 398.46,-195.76 402.08,-189.77"/>
</g>
<!-- Node6 -->
<g id="node6" class="node">
<title>Node6</title>
<g id="a_node6"><a xlink:href="GrowingState_8h.html" target="_top" xlink:title="Concrete state representing a growing plant.">
<polygon fill="none" stroke="black" points="458,-168.5 458,-187.5 597,-187.5 597,-168.5 458,-168.5"/>
<text text-anchor="middle" x="527.5" y="-175.5" font-family="Helvetica,sans-Serif" font-size="10.00">../include/GrowingState.h</text>
</a>
</g>
</g>
<!-- Node1&#45;&gt;Node6 -->
<g id="edge8" class="edge">
<title>Node1&#45;&gt;Node6</title>
<path fill="none" stroke="midnightblue" d="M556.99,-280.37C551.8,-262.54 539.8,-221.3 532.82,-197.27"/>
<polygon fill="midnightblue" stroke="midnightblue" points="536.15,-196.22 530,-187.59 529.43,-198.17 536.15,-196.22"/>
</g>
<!-- Node7 -->
<g id="node7" class="node">
<title>Node7</title>
<g id="a_node7"><a xlink:href="MatureState_8h.html" target="_top" xlink:title="Concrete state representing a mature plant (ready for sale).">
<polygon fill="none" stroke="black" points="0,-168.5 0,-187.5 133,-187.5 133,-168.5 0,-168.5"/>
<text text-anchor="middle" x="66.5" y="-175.5" font-family="Helvetica,sans-Serif" font-size="10.00">../include/MatureState.h</text>
</a>
</g>
</g>
<!-- Node1&#45;&gt;Node7 -->
<g id="edge11" class="edge">
<title>Node1&#45;&gt;Node7</title>
<path fill="none" stroke="midnightblue" d="M521.23,-280.46C432.4,-260.64 212.42,-211.56 114.66,-189.75"/>
<polygon fill="midnightblue" stroke="midnightblue" points="115.27,-186.3 104.75,-187.53 113.75,-193.13 115.27,-186.3"/>
</g>
<!-- Node8 -->
<g id="node8" class="node">
<title>Node8</title>
<g id="a_node8"><a xlink:href="PlantInstance_8h.html" target="_top" xlink:title="Represents a single, physical plant in the nursery.">
<polygon fill="none" stroke="black" points="615,-168.5 615,-187.5 754,-187.5 754,-168.5 615,-168.5"/>
<text text-anchor="middle" x="684.5" y="-175.5" font-family="Helvetica,sans-Serif" font-size="10.00">../include/PlantInstance.h</text>
</a>
</g>
</g>
<!-- Node1&#45;&gt;Node8 -->
<g id="edge14" class="edge">
<title>Node1&#45;&gt;Node8</title>
<path fill="none" stroke="midnightblue" d="M563.44,-280.47C569.98,-267.06 584.18,-240.86 602.5,-224 617.28,-210.39 636.93,-199.43 653.28,-191.73"/>
<polygon fill="midnightblue" stroke="midnightblue" points="654.8,-194.88 662.47,-187.58 651.92,-188.5 654.8,-194.88"/>
</g>
<!-- Node10 -->
<g id="node10" class="node">
<title>Node10</title>
<g id="a_node10"><a xlink:title=" ">
<polygon fill="none" stroke="#bfbfbf" points="773.5,-56.5 773.5,-75.5 831.5,-75.5 831.5,-56.5 773.5,-56.5"/>
<text text-anchor="middle" x="802.5" y="-63.5" font-family="Helvetica,sans-Serif" font-size="10.00">memory</text>
</a>
</g>
</g>
<!-- Node1&#45;&gt;Node10 -->
<g id="edge30" class="edge">
<title>Node1&#45;&gt;Node10</title>
<path fill="none" stroke="midnightblue" d="M614.65,-283.64C714.36,-272.64 917.95,-243.74 957.5,-188 993.74,-136.91 898.41,-96.9 841.49,-78.33"/>
<polygon fill="midnightblue" stroke="midnightblue" points="842.28,-74.91 831.69,-75.22 840.16,-81.58 842.28,-74.91"/>
</g>
<!-- Node15 -->
<g id="node15" class="node">
<title>Node15</title>
<g id="a_node15"><a xlink:href="PlantStateThresholds_8h.html" target="_top" xlink:title="Centralised constants describing lifecycle transition boundaries.">
<polygon fill="none" stroke="black" points="772.5,-168.5 772.5,-187.5 948.5,-187.5 948.5,-168.5 772.5,-168.5"/>
<text text-anchor="middle" x="860.5" y="-175.5" font-family="Helvetica,sans-Serif" font-size="10.00">../include/PlantStateThresholds.h</text>
</a>
</g>
</g>
<!-- Node1&#45;&gt;Node15 -->
<g id="edge26" class="edge">
<title>Node1&#45;&gt;Node15</title>
<path fill="none" stroke="midnightblue" d="M614.91,-282.93C657.67,-276.85 717.58,-265.23 766.5,-244 795.59,-231.37 825,-209.17 842.99,-194.28"/>
<polygon fill="midnightblue" stroke="midnightblue" points="845.48,-196.76 850.85,-187.63 840.96,-191.41 845.48,-196.76"/>
</g>
<!-- Node16 -->
<g id="node16" class="node">
<title>Node16</title>
<g id="a_node16"><a xlink:href="PlantStateUtils_8h.html" target="_top" xlink:title="Common helper functions shared by lifecycle state implementations.">
<polygon fill="none" stroke="black" points="611.5,-224.5 611.5,-243.5 757.5,-243.5 757.5,-224.5 611.5,-224.5"/>
<text text-anchor="middle" x="684.5" y="-231.5" font-family="Helvetica,sans-Serif" font-size="10.00">../include/PlantStateUtils.h</text>
</a>
</g>
</g>
<!-- Node1&#45;&gt;Node16 -->
<g id="edge27" class="edge">
<title>Node1&#45;&gt;Node16</title>
<path fill="none" stroke="midnightblue" d="M579.31,-280.44C599.79,-271.6 631.98,-257.69 655.36,-247.59"/>
<polygon fill="midnightblue" stroke="midnightblue" points="656.99,-250.7 664.79,-243.52 654.22,-244.27 656.99,-250.7"/>
</g>
<!-- Node3 -->
<g id="node3" class="node">
<title>Node3</title>
<g id="a_node3"><a xlink:href="PlantState_8h.html" target="_top" xlink:title="Abstract base class describing the lifecycle state of a plant.">
<polygon fill="none" stroke="black" points="384.5,-112.5 384.5,-131.5 460.5,-131.5 460.5,-112.5 384.5,-112.5"/>
<text text-anchor="middle" x="422.5" y="-119.5" font-family="Helvetica,sans-Serif" font-size="10.00">PlantState.h</text>
</a>
</g>
</g>
<!-- Node2&#45;&gt;Node3 -->
<g id="edge2" class="edge">
<title>Node2&#45;&gt;Node3</title>
<path fill="none" stroke="midnightblue" d="M255.87,-168.44C289.76,-159.2 343.9,-144.44 381.22,-134.26"/>
<polygon fill="midnightblue" stroke="midnightblue" points="382.55,-137.52 391.27,-131.52 380.7,-130.77 382.55,-137.52"/>
</g>
<!-- Node4 -->
<g id="node4" class="node">
<title>Node4</title>
<g id="a_node4"><a xlink:title=" ">
<polygon fill="none" stroke="#bfbfbf" points="433.5,-0.5 433.5,-19.5 477.5,-19.5 477.5,-0.5 433.5,-0.5"/>
<text text-anchor="middle" x="455.5" y="-7.5" font-family="Helvetica,sans-Serif" font-size="10.00">string</text>
</a>
</g>
</g>
<!-- Node2&#45;&gt;Node4 -->
<g id="edge4" class="edge">
<title>Node2&#45;&gt;Node4</title>
<path fill="none" stroke="midnightblue" d="M236.2,-168.43C263.38,-148.56 332.93,-97.81 391.5,-56 405.91,-45.71 422.24,-34.23 434.8,-25.44"/>
<polygon fill="midnightblue" stroke="midnightblue" points="437,-28.17 443.19,-19.58 432.99,-22.44 437,-28.17"/>
</g>
<!-- Node3&#45;&gt;Node4 -->
<g id="edge3" class="edge">
<title>Node3&#45;&gt;Node4</title>
<path fill="none" stroke="midnightblue" d="M425.09,-112.37C430.44,-94.54 442.81,-53.3 450.02,-29.27"/>
<polygon fill="midnightblue" stroke="midnightblue" points="453.4,-30.18 452.92,-19.59 446.7,-28.16 453.4,-30.18"/>
</g>
<!-- Node5&#45;&gt;Node3 -->
<g id="edge6" class="edge">
<title>Node5&#45;&gt;Node3</title>
<path fill="none" stroke="midnightblue" d="M384.93,-168.08C391.35,-160.38 400.81,-149.03 408.62,-139.65"/>
<polygon fill="midnightblue" stroke="midnightblue" points="411.49,-141.67 415.21,-131.75 406.12,-137.19 411.49,-141.67"/>
</g>
<!-- Node5&#45;&gt;Node4 -->
<g id="edge7" class="edge">
<title>Node5&#45;&gt;Node4</title>
<path fill="none" stroke="midnightblue" d="M375.31,-168.29C372.52,-155.53 368.82,-131.19 375.5,-112 387.72,-76.88 417.81,-44.78 437.4,-26.59"/>
<polygon fill="midnightblue" stroke="midnightblue" points="439.99,-28.97 445.08,-19.67 435.3,-23.77 439.99,-28.97"/>
</g>
<!-- Node6&#45;&gt;Node3 -->
<g id="edge9" class="edge">
<title>Node6&#45;&gt;Node3</title>
<path fill="none" stroke="midnightblue" d="M510.63,-168.32C493.79,-159.66 467.69,-146.24 448.26,-136.25"/>
<polygon fill="midnightblue" stroke="midnightblue" points="449.82,-133.12 439.33,-131.65 446.62,-139.34 449.82,-133.12"/>
</g>
<!-- Node6&#45;&gt;Node4 -->
<g id="edge10" class="edge">
<title>Node6&#45;&gt;Node4</title>
<path fill="none" stroke="midnightblue" d="M523.63,-168.08C512.25,-141.83 478.72,-64.55 463.36,-29.12"/>
<polygon fill="midnightblue" stroke="midnightblue" points="466.41,-27.35 459.22,-19.57 459.98,-30.14 466.41,-27.35"/>
</g>
<!-- Node7&#45;&gt;Node3 -->
<g id="edge12" class="edge">
<title>Node7&#45;&gt;Node3</title>
<path fill="none" stroke="midnightblue" d="M122.91,-168.44C192.33,-157.91 309,-140.22 374.38,-130.3"/>
<polygon fill="midnightblue" stroke="midnightblue" points="375.05,-133.74 384.42,-128.78 374,-126.82 375.05,-133.74"/>
</g>
<!-- Node7&#45;&gt;Node4 -->
<g id="edge13" class="edge">
<title>Node7&#45;&gt;Node4</title>
<path fill="none" stroke="midnightblue" d="M86.6,-168.42C150.62,-141.1 350.05,-56 425.85,-23.65"/>
<polygon fill="midnightblue" stroke="midnightblue" points="427.47,-26.77 435.29,-19.62 424.72,-20.33 427.47,-26.77"/>
</g>
<!-- Node8&#45;&gt;Node3 -->
<g id="edge18" class="edge">
<title>Node8&#45;&gt;Node3</title>
<path fill="none" stroke="midnightblue" d="M642.99,-168.44C596.14,-158.79 520.06,-143.11 470.65,-132.92"/>
<polygon fill="midnightblue" stroke="midnightblue" points="471.34,-129.49 460.84,-130.9 469.92,-136.35 471.34,-129.49"/>
</g>
<!-- Node8&#45;&gt;Node4 -->
<g id="edge25" class="edge">
<title>Node8&#45;&gt;Node4</title>
<path fill="none" stroke="midnightblue" d="M631.84,-168.47C604.09,-161.98 570.69,-150.83 545.5,-132 512.72,-107.5 518.29,-88.57 493.5,-56 486.07,-46.24 477.25,-35.74 469.99,-27.34"/>
<polygon fill="midnightblue" stroke="midnightblue" points="472.56,-24.97 463.34,-19.75 467.29,-29.58 472.56,-24.97"/>
</g>
<!-- Node9 -->
<g id="node9" class="node">
<title>Node9</title>
<g id="a_node9"><a xlink:href="GreenhouseComponent_8h.html" target="_top" xlink:title="The abstract &#39;Component&#39; interface for the Composite pattern.">
<polygon fill="none" stroke="black" points="634.5,-112.5 634.5,-131.5 774.5,-131.5 774.5,-112.5 634.5,-112.5"/>
<text text-anchor="middle" x="704.5" y="-119.5" font-family="Helvetica,sans-Serif" font-size="10.00">GreenhouseComponent.h</text>
</a>
</g>
</g>
<!-- Node8&#45;&gt;Node9 -->
<g id="edge15" class="edge">
<title>Node8&#45;&gt;Node9</title>
<path fill="none" stroke="midnightblue" d="M687.8,-168.08C690.48,-160.85 694.35,-150.41 697.69,-141.4"/>
<polygon fill="midnightblue" stroke="midnightblue" points="701.07,-142.34 701.26,-131.75 694.5,-139.91 701.07,-142.34"/>
</g>
<!-- Node8&#45;&gt;Node10 -->
<g id="edge24" class="edge">
<title>Node8&#45;&gt;Node10</title>
<path fill="none" stroke="midnightblue" d="M721.64,-168.35C742.53,-161.68 767.55,-150.4 783.5,-132 794.68,-119.1 799.29,-99.93 801.19,-85.74"/>
<polygon fill="midnightblue" stroke="midnightblue" points="804.68,-85.95 802.2,-75.65 797.72,-85.25 804.68,-85.95"/>
</g>
<!-- Node11 -->
<g id="node11" class="node">
<title>Node11</title>
<g id="a_node11"><a xlink:href="Subject_8h.html" target="_top" xlink:title="Declares the Subject base that manages observer subscriptions.">
<polygon fill="none" stroke="black" points="554.5,-112.5 554.5,-131.5 616.5,-131.5 616.5,-112.5 554.5,-112.5"/>
<text text-anchor="middle" x="585.5" y="-119.5" font-family="Helvetica,sans-Serif" font-size="10.00">Subject.h</text>
</a>
</g>
</g>
<!-- Node8&#45;&gt;Node11 -->
<g id="edge19" class="edge">
<title>Node8&#45;&gt;Node11</title>
<path fill="none" stroke="midnightblue" d="M668.59,-168.32C652.86,-159.74 628.56,-146.49 610.29,-136.52"/>
<polygon fill="midnightblue" stroke="midnightblue" points="611.82,-133.37 601.37,-131.65 608.47,-139.52 611.82,-133.37"/>
</g>
<!-- Node9&#45;&gt;Node4 -->
<g id="edge17" class="edge">
<title>Node9&#45;&gt;Node4</title>
<path fill="none" stroke="midnightblue" d="M704.2,-112.36C703.22,-98.3 699.16,-70.61 682.5,-56 653.91,-30.92 543.48,-18.33 487.88,-13.47"/>
<polygon fill="midnightblue" stroke="midnightblue" points="488.11,-9.97 477.85,-12.62 487.52,-16.95 488.11,-9.97"/>
</g>
<!-- Node9&#45;&gt;Node10 -->
<g id="edge16" class="edge">
<title>Node9&#45;&gt;Node10</title>
<path fill="none" stroke="midnightblue" d="M720.25,-112.32C735.82,-103.74 759.88,-90.49 777.96,-80.52"/>
<polygon fill="midnightblue" stroke="midnightblue" points="779.72,-83.55 786.79,-75.65 776.35,-77.42 779.72,-83.55"/>
</g>
<!-- Node12 -->
<g id="node12" class="node">
<title>Node12</title>
<g id="a_node12"><a xlink:title=" ">
<polygon fill="none" stroke="#bfbfbf" points="554.5,-56.5 554.5,-75.5 586.5,-75.5 586.5,-56.5 554.5,-56.5"/>
<text text-anchor="middle" x="570.5" y="-63.5" font-family="Helvetica,sans-Serif" font-size="10.00">list</text>
</a>
</g>
</g>
<!-- Node11&#45;&gt;Node12 -->
<g id="edge20" class="edge">
<title>Node11&#45;&gt;Node12</title>
<path fill="none" stroke="midnightblue" d="M583.02,-112.08C581.01,-104.85 578.11,-94.41 575.61,-85.4"/>
<polygon fill="midnightblue" stroke="midnightblue" points="578.98,-84.45 572.93,-75.75 572.24,-86.32 578.98,-84.45"/>
</g>
<!-- Node13 -->
<g id="node13" class="node">
<title>Node13</title>
<g id="a_node13"><a xlink:href="Observer_8h.html" target="_top" xlink:title="Declares the Observer contract and shared event payload.">
<polygon fill="none" stroke="black" points="605,-56.5 605,-75.5 674,-75.5 674,-56.5 605,-56.5"/>
<text text-anchor="middle" x="639.5" y="-63.5" font-family="Helvetica,sans-Serif" font-size="10.00">Observer.h</text>
</a>
</g>
</g>
<!-- Node11&#45;&gt;Node13 -->
<g id="edge21" class="edge">
<title>Node11&#45;&gt;Node13</title>
<path fill="none" stroke="midnightblue" d="M594.42,-112.08C602.28,-104.22 613.93,-92.57 623.42,-83.08"/>
<polygon fill="midnightblue" stroke="midnightblue" points="626.15,-85.3 630.75,-75.75 621.2,-80.35 626.15,-85.3"/>
</g>
<!-- Node13&#45;&gt;Node4 -->
<g id="edge23" class="edge">
<title>Node13&#45;&gt;Node4</title>
<path fill="none" stroke="midnightblue" d="M610.34,-56.44C576.77,-46.59 521.82,-30.46 487.2,-20.3"/>
<polygon fill="midnightblue" stroke="midnightblue" points="488.17,-16.94 477.59,-17.48 486.2,-23.66 488.17,-16.94"/>
</g>
<!-- Node14 -->
<g id="node14" class="node">
<title>Node14</title>
<g id="a_node14"><a xlink:title=" ">
<polygon fill="none" stroke="#bfbfbf" points="611.5,-0.5 611.5,-19.5 667.5,-19.5 667.5,-0.5 611.5,-0.5"/>
<text text-anchor="middle" x="639.5" y="-7.5" font-family="Helvetica,sans-Serif" font-size="10.00">optional</text>
</a>
</g>
</g>
<!-- Node13&#45;&gt;Node14 -->
<g id="edge22" class="edge">
<title>Node13&#45;&gt;Node14</title>
<path fill="none" stroke="midnightblue" d="M639.5,-56.08C639.5,-49.01 639.5,-38.86 639.5,-29.99"/>
<polygon fill="midnightblue" stroke="midnightblue" points="643,-29.75 639.5,-19.75 636,-29.75 643,-29.75"/>
</g>
<!-- Node16&#45;&gt;Node8 -->
<g id="edge29" class="edge">
<title>Node16&#45;&gt;Node8</title>
<path fill="none" stroke="midnightblue" d="M684.5,-224.08C684.5,-217.01 684.5,-206.86 684.5,-197.99"/>
<polygon fill="midnightblue" stroke="midnightblue" points="688,-197.75 684.5,-187.75 681,-197.75 688,-197.75"/>
</g>
<!-- Node16&#45;&gt;Node15 -->
<g id="edge28" class="edge">
<title>Node16&#45;&gt;Node15</title>
<path fill="none" stroke="midnightblue" d="M712.39,-224.44C742.25,-215.28 789.81,-200.69 822.96,-190.52"/>
<polygon fill="midnightblue" stroke="midnightblue" points="824.21,-193.8 832.74,-187.52 822.16,-187.1 824.21,-193.8"/>
</g>
</g>
</svg>
        <g id="navigator" transform="translate(0 0)" fill="#404254">
                <rect fill="#f2f5e9" fill-opacity="0.5" stroke="#606060" stroke-width=".5" x="0" y="0" width="60" height="60"/>
                <use id="zoomplus" xlink:href="#zoomPlus" x="17" y="9" onmousedown="handleZoom(evt,'in')"/>
                <use id="zoomminus" xlink:href="#zoomMin" x="42" y="9" onmousedown="handleZoom(evt,'out')"/>
                <use id="reset" xlink:href="#resetDef" x="30" y="36" onmousedown="handleReset()"/>
                <g id="arrowUp" xlink:href="#dirArrow" transform="translate(30 24)" onmousedown="handlePan(0,-1)">
                  <use xlink:href="#rim" fill="#404040">
                        <set attributeName="fill" to="#808080" begin="arrowUp.mouseover" end="arrowUp.mouseout"/>
                  </use>
                  <path fill="none" stroke="white" stroke-width="1.5" d="M0,-3.0v7 M-2.5,-0.5L0,-3.0L2.5,-0.5"/>
                </g>
                <g id="arrowRight" xlink:href="#dirArrow" transform="rotate(90) translate(36 -43)" onmousedown="handlePan(1,0)">
                  <use xlink:href="#rim" fill="#404040">
                        <set attributeName="fill" to="#808080" begin="arrowRight.mouseover" end="arrowRight.mouseout"/>
                  </use>
                  <path fill="none" stroke="white" stroke-width="1.5" d="M0,-3.0v7 M-2.5,-0.5L0,-3.0L2.5,-0.5"/>
                </g>
                <g id="arrowDown" xlink:href="#dirArrow" transform="rotate(180) translate(-30 -48)" onmousedown="handlePan(0,1)">
                  <use xlink:href="#rim" fill="#404040">
                        <set attributeName="fill" to="#808080" begin="arrowDown.mouseover" end="arrowDown.mouseout"/>
                  </use>
                  <path fill="none" stroke="white" stroke-width="1.5" d="M0,-3.0v7 M-2.5,-0.5L0,-3.0L2.5,-0.5"/>
                </g>
                <g id="arrowLeft" xlink:href="#dirArrow" transform="rotate(270) translate(-36 17)" onmousedown="handlePan(-1,0)">
                  <use xlink:href="#rim" fill="#404040">
                        <set attributeName="fill" to="#808080" begin="arrowLeft.mouseover" end="arrowLeft.mouseout"/>
                  </use>
                  <path fill="none" stroke="white" stroke-width="1.5" d="M0,-3.0v7 M-2.5,-0.5L0,-3.0L2.5,-0.5"/>
                </g>
        </g>
        <svg viewBox="0 0 15 15" width="100%" height="30px" preserveAspectRatio="xMaxYMin meet">
         <g id="arrow_out" transform="scale(0.3 0.3)">
          <a xlink:href="WitheringState_8cpp__incl_org.svg" target="_base">
           <rect id="button" ry="5" rx="5" y="6" x="6" height="38" width="38"
                fill="#f2f5e9" fill-opacity="0.5" stroke="#606060" stroke-width="1.0"/>
           <path id="arrow"
             d="M 11.500037,31.436501 C 11.940474,20.09759 22.043105,11.32322 32.158766,21.979434 L 37.068811,17.246167 C 37.068811,17.246167 37.088388,32 37.088388,32 L 22.160133,31.978069 C 22.160133,31.978069 26.997745,27.140456 26.997745,27.140456 C 18.528582,18.264221 13.291696,25.230495 11.500037,31.436501 z"
             style="fill:#404040;"/>
          </a>
         </g>
        </svg>
</svg>
